%FSLAX45Y45*%
G04 Gerber Fmt 4.5, Leading zero omitted, Abs format (unit mm)*
G04 Created by KiCad (PCBNEW (6.0.0-0)) date 2023-05-28 12:50:59*
%MOMM*%
%LPD*%
G01*
G04 APERTURE LIST*
%TA.AperFunction,Profile*%
%ADD10C,0.100000*%
%TD*%
%ADD11C,0.200000*%
%ADD12C,0.030000*%
%ADD13C,0.040000*%
%ADD14C,0.060000*%
%ADD15C,0.075000*%
%ADD16C,0.100000*%
G04 APERTURE END LIST*
D10*
X9398000Y-7747000D02*
X13462000Y-7747000D01*
X13562000Y-8001000D02*
G75*
G03*
X13562000Y-8001000I-100000J0D01*
G01*
X13562000Y-9525000D02*
G75*
G03*
X13562000Y-9525000I-100000J0D01*
G01*
X13462000Y-9779000D02*
G75*
G03*
X13716000Y-9525000I0J254000D01*
G01*
X9498000Y-9525000D02*
G75*
G03*
X9498000Y-9525000I-100000J0D01*
G01*
X13716000Y-8001000D02*
X13716000Y-9525000D01*
X9144000Y-9525000D02*
X9144000Y-8001000D01*
X13716000Y-8001000D02*
G75*
G03*
X13462000Y-7747000I-254000J0D01*
G01*
X9398000Y-7747000D02*
G75*
G03*
X9144000Y-8001000I0J-254000D01*
G01*
X13462000Y-9779000D02*
X9398000Y-9779000D01*
X9144000Y-9525000D02*
G75*
G03*
X9398000Y-9779000I254000J0D01*
G01*
X9498000Y-8001000D02*
G75*
G03*
X9498000Y-8001000I-100000J0D01*
G01*
D11*
D12*
X9916400Y-8832950D02*
X9946400Y-8862950D01*
X9946400Y-8832950D02*
X9916400Y-8862950D01*
X10056100Y-8684500D02*
X10086100Y-8714500D01*
X10086100Y-8684500D02*
X10056100Y-8714500D01*
X10284700Y-8595600D02*
X10314700Y-8625600D01*
X10314700Y-8595600D02*
X10284700Y-8625600D01*
X10284700Y-8875000D02*
X10314700Y-8905000D01*
X10314700Y-8875000D02*
X10284700Y-8905000D01*
X10386300Y-8227300D02*
X10416300Y-8257300D01*
X10416300Y-8227300D02*
X10386300Y-8257300D01*
X10386300Y-9243300D02*
X10416300Y-9273300D01*
X10416300Y-9243300D02*
X10386300Y-9273300D01*
X10513591Y-9256291D02*
X10543591Y-9286291D01*
X10543591Y-9256291D02*
X10513591Y-9286291D01*
X10564100Y-8011400D02*
X10594100Y-8041400D01*
X10594100Y-8011400D02*
X10564100Y-8041400D01*
X10646941Y-9058859D02*
X10676941Y-9088859D01*
X10676941Y-9058859D02*
X10646941Y-9088859D01*
X10691100Y-8630398D02*
X10721100Y-8660398D01*
X10721100Y-8630398D02*
X10691100Y-8660398D01*
X10692602Y-8103550D02*
X10722602Y-8133550D01*
X10722602Y-8103550D02*
X10692602Y-8133550D01*
X10703800Y-9256000D02*
X10733800Y-9286000D01*
X10733800Y-9256000D02*
X10703800Y-9286000D01*
X10716500Y-8798800D02*
X10746500Y-8828800D01*
X10746500Y-8798800D02*
X10716500Y-8828800D01*
X10760659Y-8989300D02*
X10790659Y-9019300D01*
X10790659Y-8989300D02*
X10760659Y-9019300D01*
X10792700Y-8738850D02*
X10822700Y-8768850D01*
X10822700Y-8738850D02*
X10792700Y-8768850D01*
X10830800Y-8316200D02*
X10860800Y-8346200D01*
X10860800Y-8316200D02*
X10830800Y-8346200D01*
X10881600Y-8862300D02*
X10911600Y-8892300D01*
X10911600Y-8862300D02*
X10881600Y-8892300D01*
X11009993Y-9451902D02*
X11039993Y-9481902D01*
X11039993Y-9451902D02*
X11009993Y-9481902D01*
X11052400Y-8297800D02*
X11082400Y-8327800D01*
X11082400Y-8297800D02*
X11052400Y-8327800D01*
X11097500Y-8062200D02*
X11127500Y-8092200D01*
X11127500Y-8062200D02*
X11097500Y-8092200D01*
X11241530Y-9256750D02*
X11271530Y-9286750D01*
X11271530Y-9256750D02*
X11241530Y-9286750D01*
X11262600Y-8265400D02*
X11292600Y-8295400D01*
X11292600Y-8265400D02*
X11262600Y-8295400D01*
X11341340Y-9257050D02*
X11371340Y-9287050D01*
X11371340Y-9257050D02*
X11341340Y-9287050D01*
X11427700Y-9257050D02*
X11457700Y-9287050D01*
X11457700Y-9257050D02*
X11427700Y-9287050D01*
X11491200Y-9205200D02*
X11521200Y-9235200D01*
X11521200Y-9205200D02*
X11491200Y-9235200D01*
X11597684Y-8130584D02*
X11627684Y-8160584D01*
X11627684Y-8130584D02*
X11597684Y-8160584D01*
X11702343Y-8336843D02*
X11732343Y-8366843D01*
X11732343Y-8336843D02*
X11702343Y-8366843D01*
X11770600Y-8399293D02*
X11800600Y-8429293D01*
X11800600Y-8399293D02*
X11770600Y-8429293D01*
X11778543Y-8260643D02*
X11808543Y-8290643D01*
X11808543Y-8260643D02*
X11778543Y-8290643D01*
X11808700Y-8027410D02*
X11838700Y-8057410D01*
X11838700Y-8027410D02*
X11808700Y-8057410D01*
X11891300Y-9078200D02*
X11921300Y-9108200D01*
X11921300Y-9078200D02*
X11891300Y-9108200D01*
X11923000Y-8875000D02*
X11953000Y-8905000D01*
X11953000Y-8875000D02*
X11923000Y-8905000D01*
X11999200Y-8515000D02*
X12029200Y-8545000D01*
X12029200Y-8515000D02*
X11999200Y-8545000D01*
X11999200Y-8600000D02*
X12029200Y-8630000D01*
X12029200Y-8600000D02*
X11999200Y-8630000D01*
X12024600Y-8811500D02*
X12054600Y-8841500D01*
X12054600Y-8811500D02*
X12024600Y-8841500D01*
X12075400Y-8481300D02*
X12105400Y-8511300D01*
X12105400Y-8481300D02*
X12075400Y-8511300D01*
X12177000Y-8265400D02*
X12207000Y-8295400D01*
X12207000Y-8265400D02*
X12177000Y-8295400D01*
X12405600Y-8367000D02*
X12435600Y-8397000D01*
X12435600Y-8367000D02*
X12405600Y-8397000D01*
X12405600Y-8494000D02*
X12435600Y-8524000D01*
X12435600Y-8494000D02*
X12405600Y-8524000D01*
X12437300Y-8843300D02*
X12467300Y-8873300D01*
X12467300Y-8843300D02*
X12437300Y-8873300D01*
X12807048Y-8930752D02*
X12837048Y-8960752D01*
X12837048Y-8930752D02*
X12807048Y-8960752D01*
D13*
X9924700Y-9094500D02*
G75*
G03*
X9924700Y-9094500I-20000J0D01*
G01*
X9925350Y-8432150D02*
G75*
G03*
X9925350Y-8432150I-20000J0D01*
G01*
X9995850Y-9010650D02*
G75*
G03*
X9995850Y-9010650I-20000J0D01*
G01*
X9996500Y-8516000D02*
G75*
G03*
X9996500Y-8516000I-20000J0D01*
G01*
X10130500Y-8304500D02*
G75*
G03*
X10130500Y-8304500I-20000J0D01*
G01*
X10139300Y-9222800D02*
G75*
G03*
X10139300Y-9222800I-20000J0D01*
G01*
X11361100Y-8623300D02*
G75*
G03*
X11361100Y-8623300I-20000J0D01*
G01*
X11450000Y-8547100D02*
G75*
G03*
X11450000Y-8547100I-20000J0D01*
G01*
X11538900Y-8623300D02*
G75*
G03*
X11538900Y-8623300I-20000J0D01*
G01*
X12239159Y-9067019D02*
G75*
G03*
X12239159Y-9067019I-20000J0D01*
G01*
X12485100Y-9093200D02*
G75*
G03*
X12485100Y-9093200I-20000J0D01*
G01*
D14*
X9301000Y-8301000D02*
X9301000Y-8361000D01*
X9271000Y-8331000D02*
X9331000Y-8331000D01*
D11*
X9261000Y-8351000D02*
X9341000Y-8351000D01*
X9261000Y-8311000D02*
X9341000Y-8311000D01*
X9341000Y-8351000D02*
G75*
G03*
X9341000Y-8311000I0J20000D01*
G01*
X9261000Y-8311000D02*
G75*
G03*
X9261000Y-8351000I0J-20000D01*
G01*
D14*
X9301000Y-9165000D02*
X9301000Y-9225000D01*
X9271000Y-9195000D02*
X9331000Y-9195000D01*
D11*
X9261000Y-9215000D02*
X9341000Y-9215000D01*
X9261000Y-9175000D02*
X9341000Y-9175000D01*
X9341000Y-9215000D02*
G75*
G03*
X9341000Y-9175000I0J20000D01*
G01*
X9261000Y-9175000D02*
G75*
G03*
X9261000Y-9215000I0J-20000D01*
G01*
D14*
X9718000Y-8301000D02*
X9718000Y-8361000D01*
X9688000Y-8331000D02*
X9748000Y-8331000D01*
D11*
X9663000Y-8351000D02*
X9773000Y-8351000D01*
X9663000Y-8311000D02*
X9773000Y-8311000D01*
X9773000Y-8351000D02*
G75*
G03*
X9773000Y-8311000I0J20000D01*
G01*
X9663000Y-8311000D02*
G75*
G03*
X9663000Y-8351000I0J-20000D01*
G01*
D14*
X9718000Y-9165000D02*
X9718000Y-9225000D01*
X9688000Y-9195000D02*
X9748000Y-9195000D01*
D11*
X9663000Y-9215000D02*
X9773000Y-9215000D01*
X9663000Y-9175000D02*
X9773000Y-9175000D01*
X9773000Y-9215000D02*
G75*
G03*
X9773000Y-9175000I0J20000D01*
G01*
X9663000Y-9175000D02*
G75*
G03*
X9663000Y-9215000I0J-20000D01*
G01*
D15*
X13459417Y-8689517D02*
X13459417Y-8636483D01*
X13406383Y-8636483D01*
X13406383Y-8689517D01*
X13459417Y-8689517D01*
X13459417Y-8889517D02*
X13459417Y-8836483D01*
X13406383Y-8836483D01*
X13406383Y-8889517D01*
X13459417Y-8889517D01*
D16*
X9779000Y-7924000D02*
X9829000Y-7874000D01*
X9779000Y-7824000D01*
X9729000Y-7874000D01*
X9779000Y-7924000D01*
X9779000Y-9702000D02*
X9829000Y-9652000D01*
X9779000Y-9602000D01*
X9729000Y-9652000D01*
X9779000Y-9702000D01*
X10033000Y-7924000D02*
X10083000Y-7874000D01*
X10033000Y-7824000D01*
X9983000Y-7874000D01*
X10033000Y-7924000D01*
X10033000Y-9702000D02*
X10083000Y-9652000D01*
X10033000Y-9602000D01*
X9983000Y-9652000D01*
X10033000Y-9702000D01*
X10287000Y-7924000D02*
X10337000Y-7874000D01*
X10287000Y-7824000D01*
X10237000Y-7874000D01*
X10287000Y-7924000D01*
X10287000Y-9702000D02*
X10337000Y-9652000D01*
X10287000Y-9602000D01*
X10237000Y-9652000D01*
X10287000Y-9702000D01*
X10541000Y-7924000D02*
X10591000Y-7874000D01*
X10541000Y-7824000D01*
X10491000Y-7874000D01*
X10541000Y-7924000D01*
X10541000Y-9702000D02*
X10591000Y-9652000D01*
X10541000Y-9602000D01*
X10491000Y-9652000D01*
X10541000Y-9702000D01*
X10795000Y-7924000D02*
X10845000Y-7874000D01*
X10795000Y-7824000D01*
X10745000Y-7874000D01*
X10795000Y-7924000D01*
X10795000Y-9702000D02*
X10845000Y-9652000D01*
X10795000Y-9602000D01*
X10745000Y-9652000D01*
X10795000Y-9702000D01*
X11049000Y-7924000D02*
X11099000Y-7874000D01*
X11049000Y-7824000D01*
X10999000Y-7874000D01*
X11049000Y-7924000D01*
X11049000Y-9702000D02*
X11099000Y-9652000D01*
X11049000Y-9602000D01*
X10999000Y-9652000D01*
X11049000Y-9702000D01*
X11303000Y-7924000D02*
X11353000Y-7874000D01*
X11303000Y-7824000D01*
X11253000Y-7874000D01*
X11303000Y-7924000D01*
X11303000Y-9702000D02*
X11353000Y-9652000D01*
X11303000Y-9602000D01*
X11253000Y-9652000D01*
X11303000Y-9702000D01*
X11557000Y-7924000D02*
X11607000Y-7874000D01*
X11557000Y-7824000D01*
X11507000Y-7874000D01*
X11557000Y-7924000D01*
X11557000Y-9702000D02*
X11607000Y-9652000D01*
X11557000Y-9602000D01*
X11507000Y-9652000D01*
X11557000Y-9702000D01*
X11811000Y-7924000D02*
X11861000Y-7874000D01*
X11811000Y-7824000D01*
X11761000Y-7874000D01*
X11811000Y-7924000D01*
X11811000Y-9702000D02*
X11861000Y-9652000D01*
X11811000Y-9602000D01*
X11761000Y-9652000D01*
X11811000Y-9702000D01*
X12065000Y-7924000D02*
X12115000Y-7874000D01*
X12065000Y-7824000D01*
X12015000Y-7874000D01*
X12065000Y-7924000D01*
X12065000Y-9702000D02*
X12115000Y-9652000D01*
X12065000Y-9602000D01*
X12015000Y-9652000D01*
X12065000Y-9702000D01*
X12319000Y-7924000D02*
X12369000Y-7874000D01*
X12319000Y-7824000D01*
X12269000Y-7874000D01*
X12319000Y-7924000D01*
X12319000Y-9702000D02*
X12369000Y-9652000D01*
X12319000Y-9602000D01*
X12269000Y-9652000D01*
X12319000Y-9702000D01*
X12573000Y-7924000D02*
X12623000Y-7874000D01*
X12573000Y-7824000D01*
X12523000Y-7874000D01*
X12573000Y-7924000D01*
X12573000Y-9702000D02*
X12623000Y-9652000D01*
X12573000Y-9602000D01*
X12523000Y-9652000D01*
X12573000Y-9702000D01*
X12827000Y-7924000D02*
X12877000Y-7874000D01*
X12827000Y-7824000D01*
X12777000Y-7874000D01*
X12827000Y-7924000D01*
X12827000Y-9702000D02*
X12877000Y-9652000D01*
X12827000Y-9602000D01*
X12777000Y-9652000D01*
X12827000Y-9702000D01*
X13081000Y-7924000D02*
X13131000Y-7874000D01*
X13081000Y-7824000D01*
X13031000Y-7874000D01*
X13081000Y-7924000D01*
X13081000Y-9702000D02*
X13131000Y-9652000D01*
X13081000Y-9602000D01*
X13031000Y-9652000D01*
X13081000Y-9702000D01*
D11*
X9396619Y-10094476D02*
X9396619Y-9894476D01*
X9444238Y-9894476D01*
X9472810Y-9904000D01*
X9491857Y-9923048D01*
X9501381Y-9942095D01*
X9510905Y-9980190D01*
X9510905Y-10008762D01*
X9501381Y-10046857D01*
X9491857Y-10065905D01*
X9472810Y-10084952D01*
X9444238Y-10094476D01*
X9396619Y-10094476D01*
X9596619Y-10094476D02*
X9596619Y-9961143D01*
X9596619Y-9999238D02*
X9606143Y-9980190D01*
X9615667Y-9970667D01*
X9634714Y-9961143D01*
X9653762Y-9961143D01*
X9720429Y-10094476D02*
X9720429Y-9961143D01*
X9720429Y-9894476D02*
X9710905Y-9904000D01*
X9720429Y-9913524D01*
X9729952Y-9904000D01*
X9720429Y-9894476D01*
X9720429Y-9913524D01*
X9844238Y-10094476D02*
X9825190Y-10084952D01*
X9815667Y-10065905D01*
X9815667Y-9894476D01*
X9949000Y-10094476D02*
X9929952Y-10084952D01*
X9920429Y-10065905D01*
X9920429Y-9894476D01*
X10177571Y-10094476D02*
X10177571Y-9894476D01*
X10244238Y-10037333D01*
X10310905Y-9894476D01*
X10310905Y-10094476D01*
X10491857Y-10094476D02*
X10491857Y-9989714D01*
X10482333Y-9970667D01*
X10463286Y-9961143D01*
X10425190Y-9961143D01*
X10406143Y-9970667D01*
X10491857Y-10084952D02*
X10472810Y-10094476D01*
X10425190Y-10094476D01*
X10406143Y-10084952D01*
X10396619Y-10065905D01*
X10396619Y-10046857D01*
X10406143Y-10027810D01*
X10425190Y-10018286D01*
X10472810Y-10018286D01*
X10491857Y-10008762D01*
X10587095Y-9961143D02*
X10587095Y-10161143D01*
X10587095Y-9970667D02*
X10606143Y-9961143D01*
X10644238Y-9961143D01*
X10663286Y-9970667D01*
X10672810Y-9980190D01*
X10682333Y-9999238D01*
X10682333Y-10056381D01*
X10672810Y-10075429D01*
X10663286Y-10084952D01*
X10644238Y-10094476D01*
X10606143Y-10094476D01*
X10587095Y-10084952D01*
X10768048Y-10075429D02*
X10777571Y-10084952D01*
X10768048Y-10094476D01*
X10758524Y-10084952D01*
X10768048Y-10075429D01*
X10768048Y-10094476D01*
X10768048Y-9970667D02*
X10777571Y-9980190D01*
X10768048Y-9989714D01*
X10758524Y-9980190D01*
X10768048Y-9970667D01*
X10768048Y-9989714D01*
D12*
X9109000Y-10409000D02*
X9139000Y-10439000D01*
X9139000Y-10409000D02*
X9109000Y-10439000D01*
D11*
X9434714Y-10314476D02*
X9453762Y-10314476D01*
X9472810Y-10324000D01*
X9482333Y-10333524D01*
X9491857Y-10352571D01*
X9501381Y-10390667D01*
X9501381Y-10438286D01*
X9491857Y-10476381D01*
X9482333Y-10495429D01*
X9472810Y-10504952D01*
X9453762Y-10514476D01*
X9434714Y-10514476D01*
X9415667Y-10504952D01*
X9406143Y-10495429D01*
X9396619Y-10476381D01*
X9387095Y-10438286D01*
X9387095Y-10390667D01*
X9396619Y-10352571D01*
X9406143Y-10333524D01*
X9415667Y-10324000D01*
X9434714Y-10314476D01*
X9587095Y-10495429D02*
X9596619Y-10504952D01*
X9587095Y-10514476D01*
X9577571Y-10504952D01*
X9587095Y-10495429D01*
X9587095Y-10514476D01*
X9663286Y-10314476D02*
X9787095Y-10314476D01*
X9720429Y-10390667D01*
X9749000Y-10390667D01*
X9768048Y-10400190D01*
X9777571Y-10409714D01*
X9787095Y-10428762D01*
X9787095Y-10476381D01*
X9777571Y-10495429D01*
X9768048Y-10504952D01*
X9749000Y-10514476D01*
X9691857Y-10514476D01*
X9672810Y-10504952D01*
X9663286Y-10495429D01*
X9910905Y-10314476D02*
X9929952Y-10314476D01*
X9949000Y-10324000D01*
X9958524Y-10333524D01*
X9968048Y-10352571D01*
X9977571Y-10390667D01*
X9977571Y-10438286D01*
X9968048Y-10476381D01*
X9958524Y-10495429D01*
X9949000Y-10504952D01*
X9929952Y-10514476D01*
X9910905Y-10514476D01*
X9891857Y-10504952D01*
X9882333Y-10495429D01*
X9872810Y-10476381D01*
X9863286Y-10438286D01*
X9863286Y-10390667D01*
X9872810Y-10352571D01*
X9882333Y-10333524D01*
X9891857Y-10324000D01*
X9910905Y-10314476D01*
X10101381Y-10314476D02*
X10120429Y-10314476D01*
X10139476Y-10324000D01*
X10149000Y-10333524D01*
X10158524Y-10352571D01*
X10168048Y-10390667D01*
X10168048Y-10438286D01*
X10158524Y-10476381D01*
X10149000Y-10495429D01*
X10139476Y-10504952D01*
X10120429Y-10514476D01*
X10101381Y-10514476D01*
X10082333Y-10504952D01*
X10072810Y-10495429D01*
X10063286Y-10476381D01*
X10053762Y-10438286D01*
X10053762Y-10390667D01*
X10063286Y-10352571D01*
X10072810Y-10333524D01*
X10082333Y-10324000D01*
X10101381Y-10314476D01*
X10253762Y-10514476D02*
X10253762Y-10381143D01*
X10253762Y-10400190D02*
X10263286Y-10390667D01*
X10282333Y-10381143D01*
X10310905Y-10381143D01*
X10329952Y-10390667D01*
X10339476Y-10409714D01*
X10339476Y-10514476D01*
X10339476Y-10409714D02*
X10349000Y-10390667D01*
X10368048Y-10381143D01*
X10396619Y-10381143D01*
X10415667Y-10390667D01*
X10425190Y-10409714D01*
X10425190Y-10514476D01*
X10520429Y-10514476D02*
X10520429Y-10381143D01*
X10520429Y-10400190D02*
X10529952Y-10390667D01*
X10549000Y-10381143D01*
X10577571Y-10381143D01*
X10596619Y-10390667D01*
X10606143Y-10409714D01*
X10606143Y-10514476D01*
X10606143Y-10409714D02*
X10615667Y-10390667D01*
X10634714Y-10381143D01*
X10663286Y-10381143D01*
X10682333Y-10390667D01*
X10691857Y-10409714D01*
X10691857Y-10514476D01*
X11082333Y-10304952D02*
X10910905Y-10562095D01*
X11339476Y-10314476D02*
X11358524Y-10314476D01*
X11377571Y-10324000D01*
X11387095Y-10333524D01*
X11396619Y-10352571D01*
X11406143Y-10390667D01*
X11406143Y-10438286D01*
X11396619Y-10476381D01*
X11387095Y-10495429D01*
X11377571Y-10504952D01*
X11358524Y-10514476D01*
X11339476Y-10514476D01*
X11320428Y-10504952D01*
X11310905Y-10495429D01*
X11301381Y-10476381D01*
X11291857Y-10438286D01*
X11291857Y-10390667D01*
X11301381Y-10352571D01*
X11310905Y-10333524D01*
X11320428Y-10324000D01*
X11339476Y-10314476D01*
X11491857Y-10495429D02*
X11501381Y-10504952D01*
X11491857Y-10514476D01*
X11482333Y-10504952D01*
X11491857Y-10495429D01*
X11491857Y-10514476D01*
X11625190Y-10314476D02*
X11644238Y-10314476D01*
X11663286Y-10324000D01*
X11672809Y-10333524D01*
X11682333Y-10352571D01*
X11691857Y-10390667D01*
X11691857Y-10438286D01*
X11682333Y-10476381D01*
X11672809Y-10495429D01*
X11663286Y-10504952D01*
X11644238Y-10514476D01*
X11625190Y-10514476D01*
X11606143Y-10504952D01*
X11596619Y-10495429D01*
X11587095Y-10476381D01*
X11577571Y-10438286D01*
X11577571Y-10390667D01*
X11587095Y-10352571D01*
X11596619Y-10333524D01*
X11606143Y-10324000D01*
X11625190Y-10314476D01*
X11882333Y-10514476D02*
X11768048Y-10514476D01*
X11825190Y-10514476D02*
X11825190Y-10314476D01*
X11806143Y-10343048D01*
X11787095Y-10362095D01*
X11768048Y-10371619D01*
X12072809Y-10514476D02*
X11958524Y-10514476D01*
X12015667Y-10514476D02*
X12015667Y-10314476D01*
X11996619Y-10343048D01*
X11977571Y-10362095D01*
X11958524Y-10371619D01*
X12187095Y-10400190D02*
X12168048Y-10390667D01*
X12158524Y-10381143D01*
X12149000Y-10362095D01*
X12149000Y-10352571D01*
X12158524Y-10333524D01*
X12168048Y-10324000D01*
X12187095Y-10314476D01*
X12225190Y-10314476D01*
X12244238Y-10324000D01*
X12253762Y-10333524D01*
X12263286Y-10352571D01*
X12263286Y-10362095D01*
X12253762Y-10381143D01*
X12244238Y-10390667D01*
X12225190Y-10400190D01*
X12187095Y-10400190D01*
X12168048Y-10409714D01*
X12158524Y-10419238D01*
X12149000Y-10438286D01*
X12149000Y-10476381D01*
X12158524Y-10495429D01*
X12168048Y-10504952D01*
X12187095Y-10514476D01*
X12225190Y-10514476D01*
X12244238Y-10504952D01*
X12253762Y-10495429D01*
X12263286Y-10476381D01*
X12263286Y-10438286D01*
X12253762Y-10419238D01*
X12244238Y-10409714D01*
X12225190Y-10400190D01*
X12339476Y-10314476D02*
X12339476Y-10352571D01*
X12415667Y-10314476D02*
X12415667Y-10352571D01*
X12710905Y-10590667D02*
X12701381Y-10581143D01*
X12682333Y-10552571D01*
X12672809Y-10533524D01*
X12663286Y-10504952D01*
X12653762Y-10457333D01*
X12653762Y-10419238D01*
X12663286Y-10371619D01*
X12672809Y-10343048D01*
X12682333Y-10324000D01*
X12701381Y-10295429D01*
X12710905Y-10285905D01*
X12872809Y-10381143D02*
X12872809Y-10514476D01*
X12825190Y-10304952D02*
X12777571Y-10447810D01*
X12901381Y-10447810D01*
X13082333Y-10514476D02*
X12968048Y-10514476D01*
X13025190Y-10514476D02*
X13025190Y-10314476D01*
X13006143Y-10343048D01*
X12987095Y-10362095D01*
X12968048Y-10371619D01*
X13320428Y-10514476D02*
X13320428Y-10314476D01*
X13406143Y-10514476D02*
X13406143Y-10409714D01*
X13396619Y-10390667D01*
X13377571Y-10381143D01*
X13349000Y-10381143D01*
X13329952Y-10390667D01*
X13320428Y-10400190D01*
X13529952Y-10514476D02*
X13510905Y-10504952D01*
X13501381Y-10495429D01*
X13491857Y-10476381D01*
X13491857Y-10419238D01*
X13501381Y-10400190D01*
X13510905Y-10390667D01*
X13529952Y-10381143D01*
X13558524Y-10381143D01*
X13577571Y-10390667D01*
X13587095Y-10400190D01*
X13596619Y-10419238D01*
X13596619Y-10476381D01*
X13587095Y-10495429D01*
X13577571Y-10504952D01*
X13558524Y-10514476D01*
X13529952Y-10514476D01*
X13710905Y-10514476D02*
X13691857Y-10504952D01*
X13682333Y-10485905D01*
X13682333Y-10314476D01*
X13863286Y-10504952D02*
X13844238Y-10514476D01*
X13806143Y-10514476D01*
X13787095Y-10504952D01*
X13777571Y-10485905D01*
X13777571Y-10409714D01*
X13787095Y-10390667D01*
X13806143Y-10381143D01*
X13844238Y-10381143D01*
X13863286Y-10390667D01*
X13872809Y-10409714D01*
X13872809Y-10428762D01*
X13777571Y-10447810D01*
X13949000Y-10504952D02*
X13968048Y-10514476D01*
X14006143Y-10514476D01*
X14025190Y-10504952D01*
X14034714Y-10485905D01*
X14034714Y-10476381D01*
X14025190Y-10457333D01*
X14006143Y-10447810D01*
X13977571Y-10447810D01*
X13958524Y-10438286D01*
X13949000Y-10419238D01*
X13949000Y-10409714D01*
X13958524Y-10390667D01*
X13977571Y-10381143D01*
X14006143Y-10381143D01*
X14025190Y-10390667D01*
X14101381Y-10590667D02*
X14110905Y-10581143D01*
X14129952Y-10552571D01*
X14139476Y-10533524D01*
X14149000Y-10504952D01*
X14158524Y-10457333D01*
X14158524Y-10419238D01*
X14149000Y-10371619D01*
X14139476Y-10343048D01*
X14129952Y-10324000D01*
X14110905Y-10295429D01*
X14101381Y-10285905D01*
D13*
X9139000Y-10688000D02*
G75*
G03*
X9139000Y-10688000I-20000J0D01*
G01*
D11*
X9434714Y-10578476D02*
X9453762Y-10578476D01*
X9472810Y-10588000D01*
X9482333Y-10597524D01*
X9491857Y-10616571D01*
X9501381Y-10654667D01*
X9501381Y-10702286D01*
X9491857Y-10740381D01*
X9482333Y-10759429D01*
X9472810Y-10768952D01*
X9453762Y-10778476D01*
X9434714Y-10778476D01*
X9415667Y-10768952D01*
X9406143Y-10759429D01*
X9396619Y-10740381D01*
X9387095Y-10702286D01*
X9387095Y-10654667D01*
X9396619Y-10616571D01*
X9406143Y-10597524D01*
X9415667Y-10588000D01*
X9434714Y-10578476D01*
X9587095Y-10759429D02*
X9596619Y-10768952D01*
X9587095Y-10778476D01*
X9577571Y-10768952D01*
X9587095Y-10759429D01*
X9587095Y-10778476D01*
X9768048Y-10645143D02*
X9768048Y-10778476D01*
X9720429Y-10568952D02*
X9672810Y-10711810D01*
X9796619Y-10711810D01*
X9910905Y-10578476D02*
X9929952Y-10578476D01*
X9949000Y-10588000D01*
X9958524Y-10597524D01*
X9968048Y-10616571D01*
X9977571Y-10654667D01*
X9977571Y-10702286D01*
X9968048Y-10740381D01*
X9958524Y-10759429D01*
X9949000Y-10768952D01*
X9929952Y-10778476D01*
X9910905Y-10778476D01*
X9891857Y-10768952D01*
X9882333Y-10759429D01*
X9872810Y-10740381D01*
X9863286Y-10702286D01*
X9863286Y-10654667D01*
X9872810Y-10616571D01*
X9882333Y-10597524D01*
X9891857Y-10588000D01*
X9910905Y-10578476D01*
X10101381Y-10578476D02*
X10120429Y-10578476D01*
X10139476Y-10588000D01*
X10149000Y-10597524D01*
X10158524Y-10616571D01*
X10168048Y-10654667D01*
X10168048Y-10702286D01*
X10158524Y-10740381D01*
X10149000Y-10759429D01*
X10139476Y-10768952D01*
X10120429Y-10778476D01*
X10101381Y-10778476D01*
X10082333Y-10768952D01*
X10072810Y-10759429D01*
X10063286Y-10740381D01*
X10053762Y-10702286D01*
X10053762Y-10654667D01*
X10063286Y-10616571D01*
X10072810Y-10597524D01*
X10082333Y-10588000D01*
X10101381Y-10578476D01*
X10253762Y-10778476D02*
X10253762Y-10645143D01*
X10253762Y-10664190D02*
X10263286Y-10654667D01*
X10282333Y-10645143D01*
X10310905Y-10645143D01*
X10329952Y-10654667D01*
X10339476Y-10673714D01*
X10339476Y-10778476D01*
X10339476Y-10673714D02*
X10349000Y-10654667D01*
X10368048Y-10645143D01*
X10396619Y-10645143D01*
X10415667Y-10654667D01*
X10425190Y-10673714D01*
X10425190Y-10778476D01*
X10520429Y-10778476D02*
X10520429Y-10645143D01*
X10520429Y-10664190D02*
X10529952Y-10654667D01*
X10549000Y-10645143D01*
X10577571Y-10645143D01*
X10596619Y-10654667D01*
X10606143Y-10673714D01*
X10606143Y-10778476D01*
X10606143Y-10673714D02*
X10615667Y-10654667D01*
X10634714Y-10645143D01*
X10663286Y-10645143D01*
X10682333Y-10654667D01*
X10691857Y-10673714D01*
X10691857Y-10778476D01*
X11082333Y-10568952D02*
X10910905Y-10826095D01*
X11339476Y-10578476D02*
X11358524Y-10578476D01*
X11377571Y-10588000D01*
X11387095Y-10597524D01*
X11396619Y-10616571D01*
X11406143Y-10654667D01*
X11406143Y-10702286D01*
X11396619Y-10740381D01*
X11387095Y-10759429D01*
X11377571Y-10768952D01*
X11358524Y-10778476D01*
X11339476Y-10778476D01*
X11320428Y-10768952D01*
X11310905Y-10759429D01*
X11301381Y-10740381D01*
X11291857Y-10702286D01*
X11291857Y-10654667D01*
X11301381Y-10616571D01*
X11310905Y-10597524D01*
X11320428Y-10588000D01*
X11339476Y-10578476D01*
X11491857Y-10759429D02*
X11501381Y-10768952D01*
X11491857Y-10778476D01*
X11482333Y-10768952D01*
X11491857Y-10759429D01*
X11491857Y-10778476D01*
X11625190Y-10578476D02*
X11644238Y-10578476D01*
X11663286Y-10588000D01*
X11672809Y-10597524D01*
X11682333Y-10616571D01*
X11691857Y-10654667D01*
X11691857Y-10702286D01*
X11682333Y-10740381D01*
X11672809Y-10759429D01*
X11663286Y-10768952D01*
X11644238Y-10778476D01*
X11625190Y-10778476D01*
X11606143Y-10768952D01*
X11596619Y-10759429D01*
X11587095Y-10740381D01*
X11577571Y-10702286D01*
X11577571Y-10654667D01*
X11587095Y-10616571D01*
X11596619Y-10597524D01*
X11606143Y-10588000D01*
X11625190Y-10578476D01*
X11882333Y-10778476D02*
X11768048Y-10778476D01*
X11825190Y-10778476D02*
X11825190Y-10578476D01*
X11806143Y-10607048D01*
X11787095Y-10626095D01*
X11768048Y-10635619D01*
X12063286Y-10578476D02*
X11968048Y-10578476D01*
X11958524Y-10673714D01*
X11968048Y-10664190D01*
X11987095Y-10654667D01*
X12034714Y-10654667D01*
X12053762Y-10664190D01*
X12063286Y-10673714D01*
X12072809Y-10692762D01*
X12072809Y-10740381D01*
X12063286Y-10759429D01*
X12053762Y-10768952D01*
X12034714Y-10778476D01*
X11987095Y-10778476D01*
X11968048Y-10768952D01*
X11958524Y-10759429D01*
X12139476Y-10578476D02*
X12272809Y-10578476D01*
X12187095Y-10778476D01*
X12339476Y-10578476D02*
X12339476Y-10616571D01*
X12415667Y-10578476D02*
X12415667Y-10616571D01*
X12710905Y-10854667D02*
X12701381Y-10845143D01*
X12682333Y-10816571D01*
X12672809Y-10797524D01*
X12663286Y-10768952D01*
X12653762Y-10721333D01*
X12653762Y-10683238D01*
X12663286Y-10635619D01*
X12672809Y-10607048D01*
X12682333Y-10588000D01*
X12701381Y-10559429D01*
X12710905Y-10549905D01*
X12891857Y-10778476D02*
X12777571Y-10778476D01*
X12834714Y-10778476D02*
X12834714Y-10578476D01*
X12815667Y-10607048D01*
X12796619Y-10626095D01*
X12777571Y-10635619D01*
X13082333Y-10778476D02*
X12968048Y-10778476D01*
X13025190Y-10778476D02*
X13025190Y-10578476D01*
X13006143Y-10607048D01*
X12987095Y-10626095D01*
X12968048Y-10635619D01*
X13320428Y-10778476D02*
X13320428Y-10578476D01*
X13406143Y-10778476D02*
X13406143Y-10673714D01*
X13396619Y-10654667D01*
X13377571Y-10645143D01*
X13349000Y-10645143D01*
X13329952Y-10654667D01*
X13320428Y-10664190D01*
X13529952Y-10778476D02*
X13510905Y-10768952D01*
X13501381Y-10759429D01*
X13491857Y-10740381D01*
X13491857Y-10683238D01*
X13501381Y-10664190D01*
X13510905Y-10654667D01*
X13529952Y-10645143D01*
X13558524Y-10645143D01*
X13577571Y-10654667D01*
X13587095Y-10664190D01*
X13596619Y-10683238D01*
X13596619Y-10740381D01*
X13587095Y-10759429D01*
X13577571Y-10768952D01*
X13558524Y-10778476D01*
X13529952Y-10778476D01*
X13710905Y-10778476D02*
X13691857Y-10768952D01*
X13682333Y-10749905D01*
X13682333Y-10578476D01*
X13863286Y-10768952D02*
X13844238Y-10778476D01*
X13806143Y-10778476D01*
X13787095Y-10768952D01*
X13777571Y-10749905D01*
X13777571Y-10673714D01*
X13787095Y-10654667D01*
X13806143Y-10645143D01*
X13844238Y-10645143D01*
X13863286Y-10654667D01*
X13872809Y-10673714D01*
X13872809Y-10692762D01*
X13777571Y-10711810D01*
X13949000Y-10768952D02*
X13968048Y-10778476D01*
X14006143Y-10778476D01*
X14025190Y-10768952D01*
X14034714Y-10749905D01*
X14034714Y-10740381D01*
X14025190Y-10721333D01*
X14006143Y-10711810D01*
X13977571Y-10711810D01*
X13958524Y-10702286D01*
X13949000Y-10683238D01*
X13949000Y-10673714D01*
X13958524Y-10654667D01*
X13977571Y-10645143D01*
X14006143Y-10645143D01*
X14025190Y-10654667D01*
X14101381Y-10854667D02*
X14110905Y-10845143D01*
X14129952Y-10816571D01*
X14139476Y-10797524D01*
X14149000Y-10768952D01*
X14158524Y-10721333D01*
X14158524Y-10683238D01*
X14149000Y-10635619D01*
X14139476Y-10607048D01*
X14129952Y-10588000D01*
X14110905Y-10559429D01*
X14101381Y-10549905D01*
D14*
X9109000Y-10922000D02*
X9109000Y-10982000D01*
X9079000Y-10952000D02*
X9139000Y-10952000D01*
D11*
X9434714Y-10842476D02*
X9453762Y-10842476D01*
X9472810Y-10852000D01*
X9482333Y-10861524D01*
X9491857Y-10880571D01*
X9501381Y-10918667D01*
X9501381Y-10966286D01*
X9491857Y-11004381D01*
X9482333Y-11023429D01*
X9472810Y-11032952D01*
X9453762Y-11042476D01*
X9434714Y-11042476D01*
X9415667Y-11032952D01*
X9406143Y-11023429D01*
X9396619Y-11004381D01*
X9387095Y-10966286D01*
X9387095Y-10918667D01*
X9396619Y-10880571D01*
X9406143Y-10861524D01*
X9415667Y-10852000D01*
X9434714Y-10842476D01*
X9587095Y-11023429D02*
X9596619Y-11032952D01*
X9587095Y-11042476D01*
X9577571Y-11032952D01*
X9587095Y-11023429D01*
X9587095Y-11042476D01*
X9768048Y-10842476D02*
X9729952Y-10842476D01*
X9710905Y-10852000D01*
X9701381Y-10861524D01*
X9682333Y-10890095D01*
X9672810Y-10928190D01*
X9672810Y-11004381D01*
X9682333Y-11023429D01*
X9691857Y-11032952D01*
X9710905Y-11042476D01*
X9749000Y-11042476D01*
X9768048Y-11032952D01*
X9777571Y-11023429D01*
X9787095Y-11004381D01*
X9787095Y-10956762D01*
X9777571Y-10937714D01*
X9768048Y-10928190D01*
X9749000Y-10918667D01*
X9710905Y-10918667D01*
X9691857Y-10928190D01*
X9682333Y-10937714D01*
X9672810Y-10956762D01*
X9910905Y-10842476D02*
X9929952Y-10842476D01*
X9949000Y-10852000D01*
X9958524Y-10861524D01*
X9968048Y-10880571D01*
X9977571Y-10918667D01*
X9977571Y-10966286D01*
X9968048Y-11004381D01*
X9958524Y-11023429D01*
X9949000Y-11032952D01*
X9929952Y-11042476D01*
X9910905Y-11042476D01*
X9891857Y-11032952D01*
X9882333Y-11023429D01*
X9872810Y-11004381D01*
X9863286Y-10966286D01*
X9863286Y-10918667D01*
X9872810Y-10880571D01*
X9882333Y-10861524D01*
X9891857Y-10852000D01*
X9910905Y-10842476D01*
X10101381Y-10842476D02*
X10120429Y-10842476D01*
X10139476Y-10852000D01*
X10149000Y-10861524D01*
X10158524Y-10880571D01*
X10168048Y-10918667D01*
X10168048Y-10966286D01*
X10158524Y-11004381D01*
X10149000Y-11023429D01*
X10139476Y-11032952D01*
X10120429Y-11042476D01*
X10101381Y-11042476D01*
X10082333Y-11032952D01*
X10072810Y-11023429D01*
X10063286Y-11004381D01*
X10053762Y-10966286D01*
X10053762Y-10918667D01*
X10063286Y-10880571D01*
X10072810Y-10861524D01*
X10082333Y-10852000D01*
X10101381Y-10842476D01*
X10253762Y-11042476D02*
X10253762Y-10909143D01*
X10253762Y-10928190D02*
X10263286Y-10918667D01*
X10282333Y-10909143D01*
X10310905Y-10909143D01*
X10329952Y-10918667D01*
X10339476Y-10937714D01*
X10339476Y-11042476D01*
X10339476Y-10937714D02*
X10349000Y-10918667D01*
X10368048Y-10909143D01*
X10396619Y-10909143D01*
X10415667Y-10918667D01*
X10425190Y-10937714D01*
X10425190Y-11042476D01*
X10520429Y-11042476D02*
X10520429Y-10909143D01*
X10520429Y-10928190D02*
X10529952Y-10918667D01*
X10549000Y-10909143D01*
X10577571Y-10909143D01*
X10596619Y-10918667D01*
X10606143Y-10937714D01*
X10606143Y-11042476D01*
X10606143Y-10937714D02*
X10615667Y-10918667D01*
X10634714Y-10909143D01*
X10663286Y-10909143D01*
X10682333Y-10918667D01*
X10691857Y-10937714D01*
X10691857Y-11042476D01*
X11082333Y-10832952D02*
X10910905Y-11090095D01*
X11339476Y-10842476D02*
X11358524Y-10842476D01*
X11377571Y-10852000D01*
X11387095Y-10861524D01*
X11396619Y-10880571D01*
X11406143Y-10918667D01*
X11406143Y-10966286D01*
X11396619Y-11004381D01*
X11387095Y-11023429D01*
X11377571Y-11032952D01*
X11358524Y-11042476D01*
X11339476Y-11042476D01*
X11320428Y-11032952D01*
X11310905Y-11023429D01*
X11301381Y-11004381D01*
X11291857Y-10966286D01*
X11291857Y-10918667D01*
X11301381Y-10880571D01*
X11310905Y-10861524D01*
X11320428Y-10852000D01*
X11339476Y-10842476D01*
X11491857Y-11023429D02*
X11501381Y-11032952D01*
X11491857Y-11042476D01*
X11482333Y-11032952D01*
X11491857Y-11023429D01*
X11491857Y-11042476D01*
X11625190Y-10842476D02*
X11644238Y-10842476D01*
X11663286Y-10852000D01*
X11672809Y-10861524D01*
X11682333Y-10880571D01*
X11691857Y-10918667D01*
X11691857Y-10966286D01*
X11682333Y-11004381D01*
X11672809Y-11023429D01*
X11663286Y-11032952D01*
X11644238Y-11042476D01*
X11625190Y-11042476D01*
X11606143Y-11032952D01*
X11596619Y-11023429D01*
X11587095Y-11004381D01*
X11577571Y-10966286D01*
X11577571Y-10918667D01*
X11587095Y-10880571D01*
X11596619Y-10861524D01*
X11606143Y-10852000D01*
X11625190Y-10842476D01*
X11768048Y-10861524D02*
X11777571Y-10852000D01*
X11796619Y-10842476D01*
X11844238Y-10842476D01*
X11863286Y-10852000D01*
X11872809Y-10861524D01*
X11882333Y-10880571D01*
X11882333Y-10899619D01*
X11872809Y-10928190D01*
X11758524Y-11042476D01*
X11882333Y-11042476D01*
X11949000Y-10842476D02*
X12072809Y-10842476D01*
X12006143Y-10918667D01*
X12034714Y-10918667D01*
X12053762Y-10928190D01*
X12063286Y-10937714D01*
X12072809Y-10956762D01*
X12072809Y-11004381D01*
X12063286Y-11023429D01*
X12053762Y-11032952D01*
X12034714Y-11042476D01*
X11977571Y-11042476D01*
X11958524Y-11032952D01*
X11949000Y-11023429D01*
X12244238Y-10842476D02*
X12206143Y-10842476D01*
X12187095Y-10852000D01*
X12177571Y-10861524D01*
X12158524Y-10890095D01*
X12149000Y-10928190D01*
X12149000Y-11004381D01*
X12158524Y-11023429D01*
X12168048Y-11032952D01*
X12187095Y-11042476D01*
X12225190Y-11042476D01*
X12244238Y-11032952D01*
X12253762Y-11023429D01*
X12263286Y-11004381D01*
X12263286Y-10956762D01*
X12253762Y-10937714D01*
X12244238Y-10928190D01*
X12225190Y-10918667D01*
X12187095Y-10918667D01*
X12168048Y-10928190D01*
X12158524Y-10937714D01*
X12149000Y-10956762D01*
X12339476Y-10842476D02*
X12339476Y-10880571D01*
X12415667Y-10842476D02*
X12415667Y-10880571D01*
X12710905Y-11118667D02*
X12701381Y-11109143D01*
X12682333Y-11080571D01*
X12672809Y-11061524D01*
X12663286Y-11032952D01*
X12653762Y-10985333D01*
X12653762Y-10947238D01*
X12663286Y-10899619D01*
X12672809Y-10871048D01*
X12682333Y-10852000D01*
X12701381Y-10823429D01*
X12710905Y-10813905D01*
X12825190Y-10842476D02*
X12844238Y-10842476D01*
X12863286Y-10852000D01*
X12872809Y-10861524D01*
X12882333Y-10880571D01*
X12891857Y-10918667D01*
X12891857Y-10966286D01*
X12882333Y-11004381D01*
X12872809Y-11023429D01*
X12863286Y-11032952D01*
X12844238Y-11042476D01*
X12825190Y-11042476D01*
X12806143Y-11032952D01*
X12796619Y-11023429D01*
X12787095Y-11004381D01*
X12777571Y-10966286D01*
X12777571Y-10918667D01*
X12787095Y-10880571D01*
X12796619Y-10861524D01*
X12806143Y-10852000D01*
X12825190Y-10842476D01*
X13129952Y-11042476D02*
X13129952Y-10842476D01*
X13215667Y-11042476D02*
X13215667Y-10937714D01*
X13206143Y-10918667D01*
X13187095Y-10909143D01*
X13158524Y-10909143D01*
X13139476Y-10918667D01*
X13129952Y-10928190D01*
X13339476Y-11042476D02*
X13320428Y-11032952D01*
X13310905Y-11023429D01*
X13301381Y-11004381D01*
X13301381Y-10947238D01*
X13310905Y-10928190D01*
X13320428Y-10918667D01*
X13339476Y-10909143D01*
X13368048Y-10909143D01*
X13387095Y-10918667D01*
X13396619Y-10928190D01*
X13406143Y-10947238D01*
X13406143Y-11004381D01*
X13396619Y-11023429D01*
X13387095Y-11032952D01*
X13368048Y-11042476D01*
X13339476Y-11042476D01*
X13520428Y-11042476D02*
X13501381Y-11032952D01*
X13491857Y-11013905D01*
X13491857Y-10842476D01*
X13672809Y-11032952D02*
X13653762Y-11042476D01*
X13615667Y-11042476D01*
X13596619Y-11032952D01*
X13587095Y-11013905D01*
X13587095Y-10937714D01*
X13596619Y-10918667D01*
X13615667Y-10909143D01*
X13653762Y-10909143D01*
X13672809Y-10918667D01*
X13682333Y-10937714D01*
X13682333Y-10956762D01*
X13587095Y-10975810D01*
X13758524Y-11032952D02*
X13777571Y-11042476D01*
X13815667Y-11042476D01*
X13834714Y-11032952D01*
X13844238Y-11013905D01*
X13844238Y-11004381D01*
X13834714Y-10985333D01*
X13815667Y-10975810D01*
X13787095Y-10975810D01*
X13768048Y-10966286D01*
X13758524Y-10947238D01*
X13758524Y-10937714D01*
X13768048Y-10918667D01*
X13787095Y-10909143D01*
X13815667Y-10909143D01*
X13834714Y-10918667D01*
X14082333Y-10966286D02*
X14234714Y-10966286D01*
X14158524Y-11042476D02*
X14158524Y-10890095D01*
X14568048Y-10909143D02*
X14568048Y-11042476D01*
X14520428Y-10832952D02*
X14472809Y-10975810D01*
X14596619Y-10975810D01*
X14815667Y-11032952D02*
X14834714Y-11042476D01*
X14872809Y-11042476D01*
X14891857Y-11032952D01*
X14901381Y-11013905D01*
X14901381Y-11004381D01*
X14891857Y-10985333D01*
X14872809Y-10975810D01*
X14844238Y-10975810D01*
X14825190Y-10966286D01*
X14815667Y-10947238D01*
X14815667Y-10937714D01*
X14825190Y-10918667D01*
X14844238Y-10909143D01*
X14872809Y-10909143D01*
X14891857Y-10918667D01*
X15015667Y-11042476D02*
X14996619Y-11032952D01*
X14987095Y-11013905D01*
X14987095Y-10842476D01*
X15120428Y-11042476D02*
X15101381Y-11032952D01*
X15091857Y-11023429D01*
X15082333Y-11004381D01*
X15082333Y-10947238D01*
X15091857Y-10928190D01*
X15101381Y-10918667D01*
X15120428Y-10909143D01*
X15149000Y-10909143D01*
X15168048Y-10918667D01*
X15177571Y-10928190D01*
X15187095Y-10947238D01*
X15187095Y-11004381D01*
X15177571Y-11023429D01*
X15168048Y-11032952D01*
X15149000Y-11042476D01*
X15120428Y-11042476D01*
X15244238Y-10909143D02*
X15320428Y-10909143D01*
X15272809Y-10842476D02*
X15272809Y-11013905D01*
X15282333Y-11032952D01*
X15301381Y-11042476D01*
X15320428Y-11042476D01*
X15377571Y-11032952D02*
X15396619Y-11042476D01*
X15434714Y-11042476D01*
X15453762Y-11032952D01*
X15463286Y-11013905D01*
X15463286Y-11004381D01*
X15453762Y-10985333D01*
X15434714Y-10975810D01*
X15406143Y-10975810D01*
X15387095Y-10966286D01*
X15377571Y-10947238D01*
X15377571Y-10937714D01*
X15387095Y-10918667D01*
X15406143Y-10909143D01*
X15434714Y-10909143D01*
X15453762Y-10918667D01*
X15529952Y-11118667D02*
X15539476Y-11109143D01*
X15558524Y-11080571D01*
X15568048Y-11061524D01*
X15577571Y-11032952D01*
X15587095Y-10985333D01*
X15587095Y-10947238D01*
X15577571Y-10899619D01*
X15568048Y-10871048D01*
X15558524Y-10852000D01*
X15539476Y-10823429D01*
X15529952Y-10813905D01*
D15*
X9128017Y-11242517D02*
X9128017Y-11189483D01*
X9074983Y-11189483D01*
X9074983Y-11242517D01*
X9128017Y-11242517D01*
D11*
X9434714Y-11106476D02*
X9453762Y-11106476D01*
X9472810Y-11116000D01*
X9482333Y-11125524D01*
X9491857Y-11144571D01*
X9501381Y-11182667D01*
X9501381Y-11230286D01*
X9491857Y-11268381D01*
X9482333Y-11287428D01*
X9472810Y-11296952D01*
X9453762Y-11306476D01*
X9434714Y-11306476D01*
X9415667Y-11296952D01*
X9406143Y-11287428D01*
X9396619Y-11268381D01*
X9387095Y-11230286D01*
X9387095Y-11182667D01*
X9396619Y-11144571D01*
X9406143Y-11125524D01*
X9415667Y-11116000D01*
X9434714Y-11106476D01*
X9587095Y-11287428D02*
X9596619Y-11296952D01*
X9587095Y-11306476D01*
X9577571Y-11296952D01*
X9587095Y-11287428D01*
X9587095Y-11306476D01*
X9663286Y-11106476D02*
X9796619Y-11106476D01*
X9710905Y-11306476D01*
X9968048Y-11106476D02*
X9872810Y-11106476D01*
X9863286Y-11201714D01*
X9872810Y-11192190D01*
X9891857Y-11182667D01*
X9939476Y-11182667D01*
X9958524Y-11192190D01*
X9968048Y-11201714D01*
X9977571Y-11220762D01*
X9977571Y-11268381D01*
X9968048Y-11287428D01*
X9958524Y-11296952D01*
X9939476Y-11306476D01*
X9891857Y-11306476D01*
X9872810Y-11296952D01*
X9863286Y-11287428D01*
X10101381Y-11106476D02*
X10120429Y-11106476D01*
X10139476Y-11116000D01*
X10149000Y-11125524D01*
X10158524Y-11144571D01*
X10168048Y-11182667D01*
X10168048Y-11230286D01*
X10158524Y-11268381D01*
X10149000Y-11287428D01*
X10139476Y-11296952D01*
X10120429Y-11306476D01*
X10101381Y-11306476D01*
X10082333Y-11296952D01*
X10072810Y-11287428D01*
X10063286Y-11268381D01*
X10053762Y-11230286D01*
X10053762Y-11182667D01*
X10063286Y-11144571D01*
X10072810Y-11125524D01*
X10082333Y-11116000D01*
X10101381Y-11106476D01*
X10253762Y-11306476D02*
X10253762Y-11173143D01*
X10253762Y-11192190D02*
X10263286Y-11182667D01*
X10282333Y-11173143D01*
X10310905Y-11173143D01*
X10329952Y-11182667D01*
X10339476Y-11201714D01*
X10339476Y-11306476D01*
X10339476Y-11201714D02*
X10349000Y-11182667D01*
X10368048Y-11173143D01*
X10396619Y-11173143D01*
X10415667Y-11182667D01*
X10425190Y-11201714D01*
X10425190Y-11306476D01*
X10520429Y-11306476D02*
X10520429Y-11173143D01*
X10520429Y-11192190D02*
X10529952Y-11182667D01*
X10549000Y-11173143D01*
X10577571Y-11173143D01*
X10596619Y-11182667D01*
X10606143Y-11201714D01*
X10606143Y-11306476D01*
X10606143Y-11201714D02*
X10615667Y-11182667D01*
X10634714Y-11173143D01*
X10663286Y-11173143D01*
X10682333Y-11182667D01*
X10691857Y-11201714D01*
X10691857Y-11306476D01*
X11082333Y-11096952D02*
X10910905Y-11354095D01*
X11339476Y-11106476D02*
X11358524Y-11106476D01*
X11377571Y-11116000D01*
X11387095Y-11125524D01*
X11396619Y-11144571D01*
X11406143Y-11182667D01*
X11406143Y-11230286D01*
X11396619Y-11268381D01*
X11387095Y-11287428D01*
X11377571Y-11296952D01*
X11358524Y-11306476D01*
X11339476Y-11306476D01*
X11320428Y-11296952D01*
X11310905Y-11287428D01*
X11301381Y-11268381D01*
X11291857Y-11230286D01*
X11291857Y-11182667D01*
X11301381Y-11144571D01*
X11310905Y-11125524D01*
X11320428Y-11116000D01*
X11339476Y-11106476D01*
X11491857Y-11287428D02*
X11501381Y-11296952D01*
X11491857Y-11306476D01*
X11482333Y-11296952D01*
X11491857Y-11287428D01*
X11491857Y-11306476D01*
X11625190Y-11106476D02*
X11644238Y-11106476D01*
X11663286Y-11116000D01*
X11672809Y-11125524D01*
X11682333Y-11144571D01*
X11691857Y-11182667D01*
X11691857Y-11230286D01*
X11682333Y-11268381D01*
X11672809Y-11287428D01*
X11663286Y-11296952D01*
X11644238Y-11306476D01*
X11625190Y-11306476D01*
X11606143Y-11296952D01*
X11596619Y-11287428D01*
X11587095Y-11268381D01*
X11577571Y-11230286D01*
X11577571Y-11182667D01*
X11587095Y-11144571D01*
X11596619Y-11125524D01*
X11606143Y-11116000D01*
X11625190Y-11106476D01*
X11768048Y-11125524D02*
X11777571Y-11116000D01*
X11796619Y-11106476D01*
X11844238Y-11106476D01*
X11863286Y-11116000D01*
X11872809Y-11125524D01*
X11882333Y-11144571D01*
X11882333Y-11163619D01*
X11872809Y-11192190D01*
X11758524Y-11306476D01*
X11882333Y-11306476D01*
X11977571Y-11306476D02*
X12015667Y-11306476D01*
X12034714Y-11296952D01*
X12044238Y-11287428D01*
X12063286Y-11258857D01*
X12072809Y-11220762D01*
X12072809Y-11144571D01*
X12063286Y-11125524D01*
X12053762Y-11116000D01*
X12034714Y-11106476D01*
X11996619Y-11106476D01*
X11977571Y-11116000D01*
X11968048Y-11125524D01*
X11958524Y-11144571D01*
X11958524Y-11192190D01*
X11968048Y-11211238D01*
X11977571Y-11220762D01*
X11996619Y-11230286D01*
X12034714Y-11230286D01*
X12053762Y-11220762D01*
X12063286Y-11211238D01*
X12072809Y-11192190D01*
X12253762Y-11106476D02*
X12158524Y-11106476D01*
X12149000Y-11201714D01*
X12158524Y-11192190D01*
X12177571Y-11182667D01*
X12225190Y-11182667D01*
X12244238Y-11192190D01*
X12253762Y-11201714D01*
X12263286Y-11220762D01*
X12263286Y-11268381D01*
X12253762Y-11287428D01*
X12244238Y-11296952D01*
X12225190Y-11306476D01*
X12177571Y-11306476D01*
X12158524Y-11296952D01*
X12149000Y-11287428D01*
X12339476Y-11106476D02*
X12339476Y-11144571D01*
X12415667Y-11106476D02*
X12415667Y-11144571D01*
X12710905Y-11382667D02*
X12701381Y-11373143D01*
X12682333Y-11344571D01*
X12672809Y-11325524D01*
X12663286Y-11296952D01*
X12653762Y-11249333D01*
X12653762Y-11211238D01*
X12663286Y-11163619D01*
X12672809Y-11135048D01*
X12682333Y-11116000D01*
X12701381Y-11087429D01*
X12710905Y-11077905D01*
X12777571Y-11125524D02*
X12787095Y-11116000D01*
X12806143Y-11106476D01*
X12853762Y-11106476D01*
X12872809Y-11116000D01*
X12882333Y-11125524D01*
X12891857Y-11144571D01*
X12891857Y-11163619D01*
X12882333Y-11192190D01*
X12768048Y-11306476D01*
X12891857Y-11306476D01*
X13129952Y-11306476D02*
X13129952Y-11106476D01*
X13215667Y-11306476D02*
X13215667Y-11201714D01*
X13206143Y-11182667D01*
X13187095Y-11173143D01*
X13158524Y-11173143D01*
X13139476Y-11182667D01*
X13129952Y-11192190D01*
X13339476Y-11306476D02*
X13320428Y-11296952D01*
X13310905Y-11287428D01*
X13301381Y-11268381D01*
X13301381Y-11211238D01*
X13310905Y-11192190D01*
X13320428Y-11182667D01*
X13339476Y-11173143D01*
X13368048Y-11173143D01*
X13387095Y-11182667D01*
X13396619Y-11192190D01*
X13406143Y-11211238D01*
X13406143Y-11268381D01*
X13396619Y-11287428D01*
X13387095Y-11296952D01*
X13368048Y-11306476D01*
X13339476Y-11306476D01*
X13520428Y-11306476D02*
X13501381Y-11296952D01*
X13491857Y-11277905D01*
X13491857Y-11106476D01*
X13672809Y-11296952D02*
X13653762Y-11306476D01*
X13615667Y-11306476D01*
X13596619Y-11296952D01*
X13587095Y-11277905D01*
X13587095Y-11201714D01*
X13596619Y-11182667D01*
X13615667Y-11173143D01*
X13653762Y-11173143D01*
X13672809Y-11182667D01*
X13682333Y-11201714D01*
X13682333Y-11220762D01*
X13587095Y-11239809D01*
X13758524Y-11296952D02*
X13777571Y-11306476D01*
X13815667Y-11306476D01*
X13834714Y-11296952D01*
X13844238Y-11277905D01*
X13844238Y-11268381D01*
X13834714Y-11249333D01*
X13815667Y-11239809D01*
X13787095Y-11239809D01*
X13768048Y-11230286D01*
X13758524Y-11211238D01*
X13758524Y-11201714D01*
X13768048Y-11182667D01*
X13787095Y-11173143D01*
X13815667Y-11173143D01*
X13834714Y-11182667D01*
X13910905Y-11382667D02*
X13920428Y-11373143D01*
X13939476Y-11344571D01*
X13949000Y-11325524D01*
X13958524Y-11296952D01*
X13968048Y-11249333D01*
X13968048Y-11211238D01*
X13958524Y-11163619D01*
X13949000Y-11135048D01*
X13939476Y-11116000D01*
X13920428Y-11087429D01*
X13910905Y-11077905D01*
D16*
X9089000Y-11530000D02*
X9139000Y-11480000D01*
X9089000Y-11430000D01*
X9039000Y-11480000D01*
X9089000Y-11530000D01*
D11*
X9501381Y-11570476D02*
X9387095Y-11570476D01*
X9444238Y-11570476D02*
X9444238Y-11370476D01*
X9425190Y-11399048D01*
X9406143Y-11418095D01*
X9387095Y-11427619D01*
X9587095Y-11551428D02*
X9596619Y-11560952D01*
X9587095Y-11570476D01*
X9577571Y-11560952D01*
X9587095Y-11551428D01*
X9587095Y-11570476D01*
X9720429Y-11370476D02*
X9739476Y-11370476D01*
X9758524Y-11380000D01*
X9768048Y-11389524D01*
X9777571Y-11408571D01*
X9787095Y-11446667D01*
X9787095Y-11494286D01*
X9777571Y-11532381D01*
X9768048Y-11551428D01*
X9758524Y-11560952D01*
X9739476Y-11570476D01*
X9720429Y-11570476D01*
X9701381Y-11560952D01*
X9691857Y-11551428D01*
X9682333Y-11532381D01*
X9672810Y-11494286D01*
X9672810Y-11446667D01*
X9682333Y-11408571D01*
X9691857Y-11389524D01*
X9701381Y-11380000D01*
X9720429Y-11370476D01*
X9910905Y-11370476D02*
X9929952Y-11370476D01*
X9949000Y-11380000D01*
X9958524Y-11389524D01*
X9968048Y-11408571D01*
X9977571Y-11446667D01*
X9977571Y-11494286D01*
X9968048Y-11532381D01*
X9958524Y-11551428D01*
X9949000Y-11560952D01*
X9929952Y-11570476D01*
X9910905Y-11570476D01*
X9891857Y-11560952D01*
X9882333Y-11551428D01*
X9872810Y-11532381D01*
X9863286Y-11494286D01*
X9863286Y-11446667D01*
X9872810Y-11408571D01*
X9882333Y-11389524D01*
X9891857Y-11380000D01*
X9910905Y-11370476D01*
X10101381Y-11370476D02*
X10120429Y-11370476D01*
X10139476Y-11380000D01*
X10149000Y-11389524D01*
X10158524Y-11408571D01*
X10168048Y-11446667D01*
X10168048Y-11494286D01*
X10158524Y-11532381D01*
X10149000Y-11551428D01*
X10139476Y-11560952D01*
X10120429Y-11570476D01*
X10101381Y-11570476D01*
X10082333Y-11560952D01*
X10072810Y-11551428D01*
X10063286Y-11532381D01*
X10053762Y-11494286D01*
X10053762Y-11446667D01*
X10063286Y-11408571D01*
X10072810Y-11389524D01*
X10082333Y-11380000D01*
X10101381Y-11370476D01*
X10253762Y-11570476D02*
X10253762Y-11437143D01*
X10253762Y-11456190D02*
X10263286Y-11446667D01*
X10282333Y-11437143D01*
X10310905Y-11437143D01*
X10329952Y-11446667D01*
X10339476Y-11465714D01*
X10339476Y-11570476D01*
X10339476Y-11465714D02*
X10349000Y-11446667D01*
X10368048Y-11437143D01*
X10396619Y-11437143D01*
X10415667Y-11446667D01*
X10425190Y-11465714D01*
X10425190Y-11570476D01*
X10520429Y-11570476D02*
X10520429Y-11437143D01*
X10520429Y-11456190D02*
X10529952Y-11446667D01*
X10549000Y-11437143D01*
X10577571Y-11437143D01*
X10596619Y-11446667D01*
X10606143Y-11465714D01*
X10606143Y-11570476D01*
X10606143Y-11465714D02*
X10615667Y-11446667D01*
X10634714Y-11437143D01*
X10663286Y-11437143D01*
X10682333Y-11446667D01*
X10691857Y-11465714D01*
X10691857Y-11570476D01*
X11082333Y-11360952D02*
X10910905Y-11618095D01*
X11339476Y-11370476D02*
X11358524Y-11370476D01*
X11377571Y-11380000D01*
X11387095Y-11389524D01*
X11396619Y-11408571D01*
X11406143Y-11446667D01*
X11406143Y-11494286D01*
X11396619Y-11532381D01*
X11387095Y-11551428D01*
X11377571Y-11560952D01*
X11358524Y-11570476D01*
X11339476Y-11570476D01*
X11320428Y-11560952D01*
X11310905Y-11551428D01*
X11301381Y-11532381D01*
X11291857Y-11494286D01*
X11291857Y-11446667D01*
X11301381Y-11408571D01*
X11310905Y-11389524D01*
X11320428Y-11380000D01*
X11339476Y-11370476D01*
X11491857Y-11551428D02*
X11501381Y-11560952D01*
X11491857Y-11570476D01*
X11482333Y-11560952D01*
X11491857Y-11551428D01*
X11491857Y-11570476D01*
X11625190Y-11370476D02*
X11644238Y-11370476D01*
X11663286Y-11380000D01*
X11672809Y-11389524D01*
X11682333Y-11408571D01*
X11691857Y-11446667D01*
X11691857Y-11494286D01*
X11682333Y-11532381D01*
X11672809Y-11551428D01*
X11663286Y-11560952D01*
X11644238Y-11570476D01*
X11625190Y-11570476D01*
X11606143Y-11560952D01*
X11596619Y-11551428D01*
X11587095Y-11532381D01*
X11577571Y-11494286D01*
X11577571Y-11446667D01*
X11587095Y-11408571D01*
X11596619Y-11389524D01*
X11606143Y-11380000D01*
X11625190Y-11370476D01*
X11758524Y-11370476D02*
X11882333Y-11370476D01*
X11815667Y-11446667D01*
X11844238Y-11446667D01*
X11863286Y-11456190D01*
X11872809Y-11465714D01*
X11882333Y-11484762D01*
X11882333Y-11532381D01*
X11872809Y-11551428D01*
X11863286Y-11560952D01*
X11844238Y-11570476D01*
X11787095Y-11570476D01*
X11768048Y-11560952D01*
X11758524Y-11551428D01*
X11977571Y-11570476D02*
X12015667Y-11570476D01*
X12034714Y-11560952D01*
X12044238Y-11551428D01*
X12063286Y-11522857D01*
X12072809Y-11484762D01*
X12072809Y-11408571D01*
X12063286Y-11389524D01*
X12053762Y-11380000D01*
X12034714Y-11370476D01*
X11996619Y-11370476D01*
X11977571Y-11380000D01*
X11968048Y-11389524D01*
X11958524Y-11408571D01*
X11958524Y-11456190D01*
X11968048Y-11475238D01*
X11977571Y-11484762D01*
X11996619Y-11494286D01*
X12034714Y-11494286D01*
X12053762Y-11484762D01*
X12063286Y-11475238D01*
X12072809Y-11456190D01*
X12244238Y-11437143D02*
X12244238Y-11570476D01*
X12196619Y-11360952D02*
X12149000Y-11503809D01*
X12272809Y-11503809D01*
X12339476Y-11370476D02*
X12339476Y-11408571D01*
X12415667Y-11370476D02*
X12415667Y-11408571D01*
X12710905Y-11646667D02*
X12701381Y-11637143D01*
X12682333Y-11608571D01*
X12672809Y-11589524D01*
X12663286Y-11560952D01*
X12653762Y-11513333D01*
X12653762Y-11475238D01*
X12663286Y-11427619D01*
X12672809Y-11399048D01*
X12682333Y-11380000D01*
X12701381Y-11351428D01*
X12710905Y-11341905D01*
X12777571Y-11389524D02*
X12787095Y-11380000D01*
X12806143Y-11370476D01*
X12853762Y-11370476D01*
X12872809Y-11380000D01*
X12882333Y-11389524D01*
X12891857Y-11408571D01*
X12891857Y-11427619D01*
X12882333Y-11456190D01*
X12768048Y-11570476D01*
X12891857Y-11570476D01*
X13006143Y-11456190D02*
X12987095Y-11446667D01*
X12977571Y-11437143D01*
X12968048Y-11418095D01*
X12968048Y-11408571D01*
X12977571Y-11389524D01*
X12987095Y-11380000D01*
X13006143Y-11370476D01*
X13044238Y-11370476D01*
X13063286Y-11380000D01*
X13072809Y-11389524D01*
X13082333Y-11408571D01*
X13082333Y-11418095D01*
X13072809Y-11437143D01*
X13063286Y-11446667D01*
X13044238Y-11456190D01*
X13006143Y-11456190D01*
X12987095Y-11465714D01*
X12977571Y-11475238D01*
X12968048Y-11494286D01*
X12968048Y-11532381D01*
X12977571Y-11551428D01*
X12987095Y-11560952D01*
X13006143Y-11570476D01*
X13044238Y-11570476D01*
X13063286Y-11560952D01*
X13072809Y-11551428D01*
X13082333Y-11532381D01*
X13082333Y-11494286D01*
X13072809Y-11475238D01*
X13063286Y-11465714D01*
X13044238Y-11456190D01*
X13320428Y-11570476D02*
X13320428Y-11370476D01*
X13406143Y-11570476D02*
X13406143Y-11465714D01*
X13396619Y-11446667D01*
X13377571Y-11437143D01*
X13349000Y-11437143D01*
X13329952Y-11446667D01*
X13320428Y-11456190D01*
X13529952Y-11570476D02*
X13510905Y-11560952D01*
X13501381Y-11551428D01*
X13491857Y-11532381D01*
X13491857Y-11475238D01*
X13501381Y-11456190D01*
X13510905Y-11446667D01*
X13529952Y-11437143D01*
X13558524Y-11437143D01*
X13577571Y-11446667D01*
X13587095Y-11456190D01*
X13596619Y-11475238D01*
X13596619Y-11532381D01*
X13587095Y-11551428D01*
X13577571Y-11560952D01*
X13558524Y-11570476D01*
X13529952Y-11570476D01*
X13710905Y-11570476D02*
X13691857Y-11560952D01*
X13682333Y-11541905D01*
X13682333Y-11370476D01*
X13863286Y-11560952D02*
X13844238Y-11570476D01*
X13806143Y-11570476D01*
X13787095Y-11560952D01*
X13777571Y-11541905D01*
X13777571Y-11465714D01*
X13787095Y-11446667D01*
X13806143Y-11437143D01*
X13844238Y-11437143D01*
X13863286Y-11446667D01*
X13872809Y-11465714D01*
X13872809Y-11484762D01*
X13777571Y-11503809D01*
X13949000Y-11560952D02*
X13968048Y-11570476D01*
X14006143Y-11570476D01*
X14025190Y-11560952D01*
X14034714Y-11541905D01*
X14034714Y-11532381D01*
X14025190Y-11513333D01*
X14006143Y-11503809D01*
X13977571Y-11503809D01*
X13958524Y-11494286D01*
X13949000Y-11475238D01*
X13949000Y-11465714D01*
X13958524Y-11446667D01*
X13977571Y-11437143D01*
X14006143Y-11437143D01*
X14025190Y-11446667D01*
X14101381Y-11646667D02*
X14110905Y-11637143D01*
X14129952Y-11608571D01*
X14139476Y-11589524D01*
X14149000Y-11560952D01*
X14158524Y-11513333D01*
X14158524Y-11475238D01*
X14149000Y-11427619D01*
X14139476Y-11399048D01*
X14129952Y-11380000D01*
X14110905Y-11351428D01*
X14101381Y-11341905D01*
M02*
