%TF.GenerationSoftware,KiCad,Pcbnew,(6.0.0-0)*%
%TF.CreationDate,2023-05-28T12:50:48+10:00*%
%TF.ProjectId,atmega32u4-dev,61746d65-6761-4333-9275-342d6465762e,v1.0.0*%
%TF.SameCoordinates,Original*%
%TF.FileFunction,Legend,Top*%
%TF.FilePolarity,Positive*%
%FSLAX46Y46*%
G04 Gerber Fmt 4.6, Leading zero omitted, Abs format (unit mm)*
G04 Created by KiCad (PCBNEW (6.0.0-0)) date 2023-05-28 12:50:48*
%MOMM*%
%LPD*%
G01*
G04 APERTURE LIST*
G04 Aperture macros list*
%AMRoundRect*
0 Rectangle with rounded corners*
0 $1 Rounding radius*
0 $2 $3 $4 $5 $6 $7 $8 $9 X,Y pos of 4 corners*
0 Add a 4 corners polygon primitive as box body*
4,1,4,$2,$3,$4,$5,$6,$7,$8,$9,$2,$3,0*
0 Add four circle primitives for the rounded corners*
1,1,$1+$1,$2,$3*
1,1,$1+$1,$4,$5*
1,1,$1+$1,$6,$7*
1,1,$1+$1,$8,$9*
0 Add four rect primitives between the rounded corners*
20,1,$1+$1,$2,$3,$4,$5,0*
20,1,$1+$1,$4,$5,$6,$7,0*
20,1,$1+$1,$6,$7,$8,$9,0*
20,1,$1+$1,$8,$9,$2,$3,0*%
%AMRotRect*
0 Rectangle, with rotation*
0 The origin of the aperture is its center*
0 $1 length*
0 $2 width*
0 $3 Rotation angle, in degrees counterclockwise*
0 Add horizontal line*
21,1,$1,$2,0,0,$3*%
G04 Aperture macros list end*
%ADD10C,0.153000*%
%ADD11C,0.150000*%
%ADD12C,0.120000*%
%ADD13RoundRect,0.225000X0.250000X-0.225000X0.250000X0.225000X-0.250000X0.225000X-0.250000X-0.225000X0*%
%ADD14RoundRect,0.225000X-0.250000X0.225000X-0.250000X-0.225000X0.250000X-0.225000X0.250000X0.225000X0*%
%ADD15RoundRect,0.218750X-0.218750X-0.256250X0.218750X-0.256250X0.218750X0.256250X-0.218750X0.256250X0*%
%ADD16RoundRect,0.150000X0.150000X-0.587500X0.150000X0.587500X-0.150000X0.587500X-0.150000X-0.587500X0*%
%ADD17RoundRect,0.200000X-0.275000X0.200000X-0.275000X-0.200000X0.275000X-0.200000X0.275000X0.200000X0*%
%ADD18RoundRect,0.200000X0.200000X0.275000X-0.200000X0.275000X-0.200000X-0.275000X0.200000X-0.275000X0*%
%ADD19RoundRect,0.225000X0.225000X0.250000X-0.225000X0.250000X-0.225000X-0.250000X0.225000X-0.250000X0*%
%ADD20RoundRect,0.062500X0.291682X0.380070X-0.380070X-0.291682X-0.291682X-0.380070X0.380070X0.291682X0*%
%ADD21RoundRect,0.062500X-0.291682X0.380070X-0.380070X0.291682X0.291682X-0.380070X0.380070X-0.291682X0*%
%ADD22RotRect,5.200000X5.200000X225.000000*%
%ADD23RoundRect,0.200000X0.275000X-0.200000X0.275000X0.200000X-0.275000X0.200000X-0.275000X-0.200000X0*%
%ADD24RoundRect,0.200000X-0.200000X-0.275000X0.200000X-0.275000X0.200000X0.275000X-0.200000X0.275000X0*%
%ADD25RoundRect,0.250000X0.625000X-0.350000X0.625000X0.350000X-0.625000X0.350000X-0.625000X-0.350000X0*%
%ADD26O,1.750000X1.200000*%
%ADD27RoundRect,0.218750X0.256250X-0.218750X0.256250X0.218750X-0.256250X0.218750X-0.256250X-0.218750X0*%
%ADD28RoundRect,0.150000X0.512500X0.150000X-0.512500X0.150000X-0.512500X-0.150000X0.512500X-0.150000X0*%
%ADD29RoundRect,0.225000X-0.225000X-0.250000X0.225000X-0.250000X0.225000X0.250000X-0.225000X0.250000X0*%
%ADD30R,1.900000X0.400000*%
%ADD31R,0.450000X0.600000*%
%ADD32C,0.600000*%
%ADD33R,1.160000X0.600000*%
%ADD34R,1.160000X0.300000*%
%ADD35O,1.700000X0.900000*%
%ADD36O,2.000000X0.900000*%
%ADD37R,1.700000X1.700000*%
%ADD38O,1.700000X1.700000*%
G04 APERTURE END LIST*
D10*
X117094000Y-92964000D02*
X130810000Y-92966000D01*
X106259380Y-89661904D02*
X106259380Y-89090476D01*
X107259380Y-89376190D02*
X106259380Y-89376190D01*
X106259380Y-88852380D02*
X107259380Y-88185714D01*
X106259380Y-88185714D02*
X107259380Y-88852380D01*
X107259380Y-86272666D02*
X106783190Y-86606000D01*
X107259380Y-86844095D02*
X106259380Y-86844095D01*
X106259380Y-86463142D01*
X106307000Y-86367904D01*
X106354619Y-86320285D01*
X106449857Y-86272666D01*
X106592714Y-86272666D01*
X106687952Y-86320285D01*
X106735571Y-86367904D01*
X106783190Y-86463142D01*
X106783190Y-86844095D01*
X106259380Y-85939333D02*
X107259380Y-85272666D01*
X106259380Y-85272666D02*
X107259380Y-85939333D01*
D11*
X132008714Y-93067142D02*
X131961095Y-93114761D01*
X131818238Y-93162380D01*
X131723000Y-93162380D01*
X131580142Y-93114761D01*
X131484904Y-93019523D01*
X131437285Y-92924285D01*
X131389666Y-92733809D01*
X131389666Y-92590952D01*
X131437285Y-92400476D01*
X131484904Y-92305238D01*
X131580142Y-92210000D01*
X131723000Y-92162380D01*
X131818238Y-92162380D01*
X131961095Y-92210000D01*
X132008714Y-92257619D01*
X132437285Y-93162380D02*
X132437285Y-92162380D01*
X132437285Y-92638571D02*
X133008714Y-92638571D01*
X133008714Y-93162380D02*
X133008714Y-92162380D01*
X134056333Y-93162380D02*
X133723000Y-92686190D01*
X133484904Y-93162380D02*
X133484904Y-92162380D01*
X133865857Y-92162380D01*
X133961095Y-92210000D01*
X134008714Y-92257619D01*
X134056333Y-92352857D01*
X134056333Y-92495714D01*
X134008714Y-92590952D01*
X133961095Y-92638571D01*
X133865857Y-92686190D01*
X133484904Y-92686190D01*
X135008714Y-92210000D02*
X134913476Y-92162380D01*
X134770619Y-92162380D01*
X134627761Y-92210000D01*
X134532523Y-92305238D01*
X134484904Y-92400476D01*
X134437285Y-92590952D01*
X134437285Y-92733809D01*
X134484904Y-92924285D01*
X134532523Y-93019523D01*
X134627761Y-93114761D01*
X134770619Y-93162380D01*
X134865857Y-93162380D01*
X135008714Y-93114761D01*
X135056333Y-93067142D01*
X135056333Y-92733809D01*
X134865857Y-92733809D01*
D10*
X107259380Y-92908285D02*
X106259380Y-92908285D01*
X106259380Y-92670190D01*
X106307000Y-92527333D01*
X106402238Y-92432095D01*
X106497476Y-92384476D01*
X106687952Y-92336857D01*
X106830809Y-92336857D01*
X107021285Y-92384476D01*
X107116523Y-92432095D01*
X107211761Y-92527333D01*
X107259380Y-92670190D01*
X107259380Y-92908285D01*
X107259380Y-91384476D02*
X107259380Y-91955904D01*
X107259380Y-91670190D02*
X106259380Y-91670190D01*
X106402238Y-91765428D01*
X106497476Y-91860666D01*
X106545095Y-91955904D01*
X106259380Y-91051142D02*
X106259380Y-90432095D01*
X106640333Y-90765428D01*
X106640333Y-90622571D01*
X106687952Y-90527333D01*
X106735571Y-90479714D01*
X106830809Y-90432095D01*
X107068904Y-90432095D01*
X107164142Y-90479714D01*
X107211761Y-90527333D01*
X107259380Y-90622571D01*
X107259380Y-90908285D01*
X107211761Y-91003523D01*
X107164142Y-91051142D01*
X107259380Y-84645333D02*
X106259380Y-84645333D01*
X106259380Y-84264380D01*
X106307000Y-84169142D01*
X106354619Y-84121523D01*
X106449857Y-84073904D01*
X106592714Y-84073904D01*
X106687952Y-84121523D01*
X106735571Y-84169142D01*
X106783190Y-84264380D01*
X106783190Y-84645333D01*
X106259380Y-83740571D02*
X107259380Y-83502476D01*
X106545095Y-83312000D01*
X107259380Y-83121523D01*
X106259380Y-82883428D01*
X107259380Y-81931047D02*
X106783190Y-82264380D01*
X107259380Y-82502476D02*
X106259380Y-82502476D01*
X106259380Y-82121523D01*
X106307000Y-82026285D01*
X106354619Y-81978666D01*
X106449857Y-81931047D01*
X106592714Y-81931047D01*
X106687952Y-81978666D01*
X106735571Y-82026285D01*
X106783190Y-82121523D01*
X106783190Y-82502476D01*
D11*
X121697904Y-92368666D02*
X122174095Y-92368666D01*
X121602666Y-92654380D02*
X121936000Y-91654380D01*
X122269333Y-92654380D01*
X122602666Y-92654380D02*
X122602666Y-91654380D01*
X122840761Y-91654380D01*
X122983619Y-91702000D01*
X123078857Y-91797238D01*
X123126476Y-91892476D01*
X123174095Y-92082952D01*
X123174095Y-92225809D01*
X123126476Y-92416285D01*
X123078857Y-92511523D01*
X122983619Y-92606761D01*
X122840761Y-92654380D01*
X122602666Y-92654380D01*
X124174095Y-92559142D02*
X124126476Y-92606761D01*
X123983619Y-92654380D01*
X123888380Y-92654380D01*
X123745523Y-92606761D01*
X123650285Y-92511523D01*
X123602666Y-92416285D01*
X123555047Y-92225809D01*
X123555047Y-92082952D01*
X123602666Y-91892476D01*
X123650285Y-91797238D01*
X123745523Y-91702000D01*
X123888380Y-91654380D01*
X123983619Y-91654380D01*
X124126476Y-91702000D01*
X124174095Y-91749619D01*
X132659428Y-89010952D02*
X132659428Y-88249047D01*
X133040380Y-88630000D02*
X132278476Y-88630000D01*
X132659428Y-87010952D02*
X132659428Y-86249047D01*
D12*
%TO.C,C5*%
X130681000Y-89548580D02*
X130681000Y-89267420D01*
X131701000Y-89548580D02*
X131701000Y-89267420D01*
%TO.C,kibuzzard-63FC0A8C*%
G36*
X118207830Y-94263666D02*
G01*
X118258431Y-94323495D01*
X118288792Y-94423210D01*
X118298912Y-94562811D01*
X118298912Y-94572336D01*
X118288693Y-94708464D01*
X118258034Y-94805698D01*
X118206937Y-94864039D01*
X118135400Y-94883486D01*
X118065252Y-94863493D01*
X118015147Y-94803516D01*
X117985084Y-94703553D01*
X117975062Y-94563605D01*
X117985183Y-94423657D01*
X118015544Y-94323694D01*
X118066145Y-94263716D01*
X118136987Y-94243723D01*
X118207830Y-94263666D01*
G37*
G36*
X117181445Y-97811894D02*
G01*
X117181445Y-94562811D01*
X117694075Y-94562811D01*
X117699190Y-94674112D01*
X117714536Y-94777300D01*
X117740112Y-94872373D01*
X117774442Y-94952145D01*
X117817106Y-95020011D01*
X117873066Y-95076962D01*
X117947281Y-95123992D01*
X118036777Y-95155544D01*
X118138575Y-95166061D01*
X118239977Y-95155742D01*
X118328281Y-95124786D01*
X118401108Y-95077955D01*
X118456075Y-95020011D01*
X118510248Y-94928432D01*
X118548944Y-94821970D01*
X118572161Y-94700626D01*
X118579900Y-94564398D01*
X118574608Y-94459447D01*
X118558733Y-94358376D01*
X118556908Y-94351673D01*
X120249950Y-94351673D01*
X120299956Y-94450098D01*
X120396000Y-94505661D01*
X120507125Y-94456448D01*
X120527762Y-94437398D01*
X120527762Y-95004136D01*
X120530144Y-95062080D01*
X120545225Y-95105736D01*
X120587691Y-95136692D01*
X120667462Y-95147011D01*
X120749219Y-95136295D01*
X120791287Y-95104148D01*
X120806369Y-95062080D01*
X120808750Y-95007311D01*
X120808750Y-95004136D01*
X122518487Y-95004136D01*
X122559762Y-95104148D01*
X122658187Y-95147011D01*
X123278900Y-95147011D01*
X123377325Y-95127961D01*
X123411456Y-95086686D01*
X123421775Y-95006517D01*
X123412250Y-94925555D01*
X123374944Y-94879517D01*
X123282075Y-94864436D01*
X122991562Y-94864436D01*
X122991562Y-94856498D01*
X123031250Y-94840623D01*
X123109989Y-94797761D01*
X125091825Y-94797761D01*
X125109288Y-94883486D01*
X125112463Y-94899361D01*
X125129925Y-94940636D01*
X125169216Y-95003739D01*
X125214063Y-95053348D01*
X125305785Y-95115085D01*
X125411618Y-95152126D01*
X125531563Y-95164473D01*
X125652389Y-95152214D01*
X125758751Y-95115437D01*
X125850650Y-95054142D01*
X125921206Y-94973973D01*
X125963539Y-94880576D01*
X125977650Y-94773948D01*
X125964553Y-94692986D01*
X125956695Y-94678698D01*
X127647700Y-94678698D01*
X127655638Y-94746961D01*
X127698897Y-94792205D01*
X127787400Y-94807286D01*
X128217613Y-94807286D01*
X128217613Y-95000961D01*
X128227138Y-95083511D01*
X128247775Y-95115261D01*
X128289050Y-95134311D01*
X128362075Y-95142248D01*
X128439069Y-95132723D01*
X128485106Y-95093830D01*
X128500188Y-95002548D01*
X128500188Y-94954923D01*
X130194050Y-94954923D01*
X130254375Y-95050173D01*
X130267075Y-95061286D01*
X130306763Y-95091448D01*
X130389313Y-95132900D01*
X130478213Y-95157771D01*
X130573463Y-95166061D01*
X130680531Y-95152920D01*
X130775251Y-95113497D01*
X130857625Y-95047792D01*
X130921125Y-94963831D01*
X130959225Y-94869639D01*
X130971925Y-94765217D01*
X130958519Y-94661324D01*
X130918303Y-94568720D01*
X130851275Y-94487405D01*
X130767490Y-94424346D01*
X130677003Y-94386510D01*
X130579813Y-94373898D01*
X130524250Y-94377073D01*
X130540125Y-94256423D01*
X130817938Y-94256423D01*
X130869531Y-94254042D01*
X130908425Y-94238961D01*
X130938191Y-94199670D01*
X130948113Y-94123073D01*
X130937397Y-94038936D01*
X130905250Y-93996073D01*
X130863975Y-93980992D01*
X130808413Y-93978611D01*
X130659188Y-93978611D01*
X130417888Y-93977023D01*
X130353594Y-93992105D01*
X130312319Y-94026236D01*
X130289300Y-94069098D01*
X130278188Y-94102436D01*
X130269059Y-94168317D01*
X130244850Y-94346911D01*
X130221038Y-94528283D01*
X130213100Y-94602498D01*
X130230563Y-94641392D01*
X130304381Y-94689811D01*
X130404394Y-94719973D01*
X130490913Y-94683461D01*
X130567113Y-94654886D01*
X130652044Y-94685842D01*
X130689350Y-94769980D01*
X130655219Y-94853323D01*
X130550444Y-94883486D01*
X130451225Y-94850148D01*
X130344863Y-94799348D01*
X130252788Y-94851736D01*
X130194050Y-94954923D01*
X128500188Y-94954923D01*
X128500188Y-94119898D01*
X128497806Y-94064336D01*
X128482725Y-94022267D01*
X128439863Y-93988930D01*
X128359694Y-93978611D01*
X128278731Y-93987342D01*
X128235075Y-94018298D01*
X128219994Y-94057986D01*
X128217613Y-94111961D01*
X128217613Y-94545348D01*
X127958850Y-94545348D01*
X128055688Y-94157998D01*
X128057275Y-94153236D01*
X128068388Y-94086561D01*
X128040606Y-94025442D01*
X127957263Y-93984961D01*
X127884238Y-93973848D01*
X127829469Y-93991311D01*
X127800894Y-94027823D01*
X127784225Y-94083386D01*
X127652463Y-94615198D01*
X127647700Y-94678698D01*
X125956695Y-94678698D01*
X125925263Y-94621548D01*
X125875256Y-94569955D01*
X125828425Y-94535823D01*
X125828425Y-94524711D01*
X125897217Y-94474881D01*
X125938492Y-94407941D01*
X125952250Y-94323892D01*
X125939726Y-94234375D01*
X125902156Y-94151031D01*
X125839538Y-94073861D01*
X125755224Y-94012125D01*
X125652565Y-93975083D01*
X125531563Y-93962736D01*
X125452783Y-93968292D01*
X125381544Y-93984961D01*
X125276769Y-94034173D01*
X125210888Y-94096880D01*
X125175963Y-94146886D01*
X125139450Y-94254836D01*
X125159294Y-94311589D01*
X125218825Y-94361198D01*
X125306138Y-94389773D01*
X125366463Y-94369930D01*
X125410913Y-94310398D01*
X125420438Y-94291348D01*
X125461713Y-94253248D01*
X125551406Y-94234198D01*
X125639513Y-94264361D01*
X125671263Y-94327861D01*
X125641100Y-94374295D01*
X125550613Y-94389773D01*
X125468063Y-94397711D01*
X125424009Y-94440970D01*
X125409325Y-94529473D01*
X125420041Y-94610833D01*
X125452188Y-94651711D01*
X125493463Y-94667586D01*
X125565694Y-94670761D01*
X125657769Y-94703305D01*
X125696663Y-94778711D01*
X125656975Y-94855705D01*
X125606175Y-94881303D01*
X125533150Y-94889836D01*
X125466475Y-94880311D01*
X125379163Y-94804111D01*
X125331538Y-94721561D01*
X125247400Y-94705686D01*
X125130719Y-94728705D01*
X125091825Y-94797761D01*
X123109989Y-94797761D01*
X123129675Y-94787045D01*
X123240800Y-94699336D01*
X123292394Y-94642186D01*
X123336050Y-94569161D01*
X123365816Y-94485817D01*
X123375737Y-94397711D01*
X123362508Y-94288614D01*
X123322821Y-94187808D01*
X123256675Y-94095292D01*
X123169274Y-94021650D01*
X123065822Y-93977464D01*
X122946319Y-93962736D01*
X122826903Y-93977288D01*
X122723716Y-94020944D01*
X122636756Y-94093705D01*
X122571051Y-94184810D01*
X122531628Y-94283499D01*
X122518487Y-94389773D01*
X122526425Y-94470736D01*
X122569684Y-94515980D01*
X122658187Y-94531061D01*
X122739150Y-94521536D01*
X122782012Y-94492961D01*
X122797094Y-94453273D01*
X122799475Y-94400886D01*
X122799475Y-94391361D01*
X122805825Y-94354848D01*
X122847894Y-94281030D01*
X122936000Y-94243723D01*
X123015375Y-94258011D01*
X123057444Y-94288967D01*
X123082050Y-94331830D01*
X123093162Y-94372311D01*
X123078280Y-94441764D01*
X123033631Y-94507248D01*
X122967948Y-94567375D01*
X122889962Y-94620755D01*
X122805825Y-94671158D01*
X122721687Y-94722355D01*
X122643702Y-94779108D01*
X122578019Y-94846180D01*
X122533370Y-94921784D01*
X122518487Y-95004136D01*
X120808750Y-95004136D01*
X120808750Y-94123073D01*
X120800812Y-94038936D01*
X120778587Y-94004805D01*
X120737312Y-93986548D01*
X120661906Y-93978611D01*
X120572212Y-94019886D01*
X120567450Y-94023061D01*
X120307100Y-94258011D01*
X120249950Y-94351673D01*
X118556908Y-94351673D01*
X118532275Y-94261186D01*
X118499136Y-94181017D01*
X118456869Y-94111961D01*
X118401306Y-94053620D01*
X118328281Y-94005598D01*
X118239580Y-93973452D01*
X118136987Y-93962736D01*
X118033998Y-93973650D01*
X117944106Y-94006392D01*
X117870089Y-94055208D01*
X117814725Y-94114342D01*
X117770870Y-94190741D01*
X117731381Y-94291348D01*
X117710656Y-94371605D01*
X117698220Y-94462093D01*
X117694075Y-94562811D01*
X117181445Y-94562811D01*
X117181445Y-93450106D01*
X131484555Y-93450106D01*
X131484555Y-97811894D01*
X117181445Y-97811894D01*
G37*
%TO.C,C3*%
X124966000Y-89267420D02*
X124966000Y-89548580D01*
X125986000Y-89267420D02*
X125986000Y-89548580D01*
%TO.C,D6*%
X103290000Y-84047000D02*
X105575000Y-84047000D01*
X103290000Y-82577000D02*
X103290000Y-84047000D01*
X105575000Y-82577000D02*
X103290000Y-82577000D01*
%TO.C,Q1*%
X128488000Y-85598000D02*
X128488000Y-87273000D01*
X131608000Y-85598000D02*
X131608000Y-86248000D01*
X131608000Y-85598000D02*
X131608000Y-84948000D01*
X128488000Y-85598000D02*
X128488000Y-84948000D01*
%TO.C,R5*%
X102376500Y-91202742D02*
X102376500Y-91677258D01*
X101331500Y-91202742D02*
X101331500Y-91677258D01*
%TO.C,R8*%
X120125258Y-83326500D02*
X119650742Y-83326500D01*
X120125258Y-82281500D02*
X119650742Y-82281500D01*
%TO.C,C10*%
X110960780Y-92098400D02*
X110679620Y-92098400D01*
X110960780Y-93118400D02*
X110679620Y-93118400D01*
%TO.C,C9*%
X111011580Y-83187000D02*
X110730420Y-83187000D01*
X111011580Y-82167000D02*
X110730420Y-82167000D01*
%TO.C,U3*%
X114300000Y-82524689D02*
X114812652Y-83037341D01*
X114300000Y-92735311D02*
X113787348Y-92222659D01*
X114812652Y-92222659D02*
X114300000Y-92735311D01*
X118892659Y-88142652D02*
X119405311Y-87630000D01*
X113787348Y-83037341D02*
X114300000Y-82524689D01*
X109707341Y-87117348D02*
X109194689Y-87630000D01*
X109194689Y-87630000D02*
X109707341Y-88142652D01*
%TO.C,kibuzzard-63FC10C2*%
G36*
X117204331Y-97810307D02*
G01*
X114189669Y-97810307D01*
X114189669Y-94554873D01*
X115181856Y-94554873D01*
X115192770Y-94676466D01*
X115225512Y-94788831D01*
X115280083Y-94891969D01*
X115356481Y-94985880D01*
X115447663Y-95064014D01*
X115546584Y-95119825D01*
X115653245Y-95153311D01*
X115767644Y-95164473D01*
X115892659Y-95155841D01*
X116001006Y-95129945D01*
X116092684Y-95086785D01*
X116167694Y-95026361D01*
X116212144Y-94929523D01*
X116212144Y-94580273D01*
X116196269Y-94491373D01*
X116091494Y-94446923D01*
X115812094Y-94446923D01*
X115735894Y-94461211D01*
X115709700Y-94496136D01*
X115702556Y-94563605D01*
X115708906Y-94630280D01*
X115735894Y-94667586D01*
X115805744Y-94680286D01*
X115931156Y-94680286D01*
X115931156Y-94853323D01*
X115856941Y-94874755D01*
X115773994Y-94881898D01*
X115659694Y-94857887D01*
X115558094Y-94785855D01*
X115505177Y-94717239D01*
X115473427Y-94639452D01*
X115462844Y-94552492D01*
X115486259Y-94428270D01*
X115556506Y-94330242D01*
X115656916Y-94266544D01*
X115770819Y-94245311D01*
X115856544Y-94256225D01*
X115929569Y-94288967D01*
X116026406Y-94332623D01*
X116079984Y-94311589D01*
X116139119Y-94248486D01*
X116175631Y-94158792D01*
X116132769Y-94088148D01*
X116019351Y-94019357D01*
X115901347Y-93978082D01*
X115778756Y-93964323D01*
X115662075Y-93974890D01*
X115553331Y-94006591D01*
X115452525Y-94059425D01*
X115359656Y-94133392D01*
X115281869Y-94223136D01*
X115226306Y-94323297D01*
X115192969Y-94433876D01*
X115181856Y-94554873D01*
X114189669Y-94554873D01*
X114189669Y-93451693D01*
X117204331Y-93451693D01*
X117204331Y-97810307D01*
G37*
%TO.C,R4*%
X102376500Y-84057258D02*
X102376500Y-83582742D01*
X101331500Y-84057258D02*
X101331500Y-83582742D01*
%TO.C,C2*%
X100840000Y-91312420D02*
X100840000Y-91593580D01*
X99820000Y-91312420D02*
X99820000Y-91593580D01*
%TO.C,kibuzzard-63FC0E25*%
G36*
X100427003Y-80396507D02*
G01*
X100477108Y-80456484D01*
X100507172Y-80556447D01*
X100517193Y-80696395D01*
X100507072Y-80836343D01*
X100476711Y-80936306D01*
X100426110Y-80996284D01*
X100355268Y-81016277D01*
X100284426Y-80996334D01*
X100233824Y-80936505D01*
X100203463Y-80836790D01*
X100193343Y-80697189D01*
X100193343Y-80687664D01*
X100203562Y-80551536D01*
X100234221Y-80454302D01*
X100285318Y-80395961D01*
X100356855Y-80376514D01*
X100427003Y-80396507D01*
G37*
G36*
X97170875Y-77448106D02*
G01*
X106537125Y-77448106D01*
X106537125Y-81809894D01*
X97170875Y-81809894D01*
X97170875Y-81136927D01*
X97683505Y-81136927D01*
X97691443Y-81221064D01*
X97713668Y-81255195D01*
X97754943Y-81273452D01*
X97830349Y-81281389D01*
X97920043Y-81240114D01*
X97924805Y-81236939D01*
X98185155Y-81001989D01*
X98242305Y-80908327D01*
X98192299Y-80809902D01*
X98096255Y-80754339D01*
X97985130Y-80803552D01*
X97964493Y-80822602D01*
X97964493Y-80695602D01*
X99912355Y-80695602D01*
X99917647Y-80800553D01*
X99933522Y-80901624D01*
X99959980Y-80998814D01*
X99993119Y-81078983D01*
X100035386Y-81148039D01*
X100090949Y-81206380D01*
X100163974Y-81254402D01*
X100252676Y-81286548D01*
X100355268Y-81297264D01*
X100458257Y-81286350D01*
X100548149Y-81253608D01*
X100622166Y-81204792D01*
X100677530Y-81145658D01*
X100721385Y-81069259D01*
X100760874Y-80968652D01*
X100781600Y-80888395D01*
X100794035Y-80797907D01*
X100798180Y-80697189D01*
X100793065Y-80585888D01*
X100777719Y-80482700D01*
X100752143Y-80387627D01*
X100717813Y-80307855D01*
X100683632Y-80253483D01*
X102468230Y-80253483D01*
X102477755Y-80334445D01*
X102515061Y-80380483D01*
X102607930Y-80395564D01*
X102898443Y-80395564D01*
X102898443Y-80403502D01*
X102858755Y-80419377D01*
X102760330Y-80472955D01*
X102649205Y-80560664D01*
X102597611Y-80617814D01*
X102553955Y-80690839D01*
X102524190Y-80774183D01*
X102514268Y-80862289D01*
X102527497Y-80971386D01*
X102567184Y-81072192D01*
X102633330Y-81164708D01*
X102720731Y-81238350D01*
X102824183Y-81282536D01*
X102943686Y-81297264D01*
X103063102Y-81282712D01*
X103166289Y-81239056D01*
X103253249Y-81166295D01*
X103318954Y-81075190D01*
X103358377Y-80976501D01*
X103371518Y-80870227D01*
X103363580Y-80789264D01*
X103320321Y-80744020D01*
X103231818Y-80728939D01*
X103150855Y-80738464D01*
X103107993Y-80767039D01*
X103092911Y-80806727D01*
X103090530Y-80859114D01*
X103090530Y-80868639D01*
X103084180Y-80905152D01*
X103042111Y-80978970D01*
X102954005Y-81016277D01*
X102874630Y-81001989D01*
X102832561Y-80971033D01*
X102807955Y-80928170D01*
X102796843Y-80887689D01*
X102811726Y-80818236D01*
X102856374Y-80752752D01*
X102922057Y-80692625D01*
X103000043Y-80639245D01*
X103084180Y-80588842D01*
X103168318Y-80537645D01*
X103239213Y-80486052D01*
X104655805Y-80486052D01*
X104668902Y-80567014D01*
X104708193Y-80638452D01*
X104758199Y-80690045D01*
X104805030Y-80724177D01*
X104805030Y-80735289D01*
X104736239Y-80785119D01*
X104694964Y-80852059D01*
X104681205Y-80936108D01*
X104693729Y-81025625D01*
X104731300Y-81108969D01*
X104793918Y-81186139D01*
X104878232Y-81247875D01*
X104980890Y-81284917D01*
X105101893Y-81297264D01*
X105180672Y-81291708D01*
X105251911Y-81275039D01*
X105356686Y-81225827D01*
X105422568Y-81163120D01*
X105457493Y-81113114D01*
X105494005Y-81005164D01*
X105474161Y-80948411D01*
X105414630Y-80898802D01*
X105327318Y-80870227D01*
X105266993Y-80890070D01*
X105222543Y-80949602D01*
X105213018Y-80968652D01*
X105171743Y-81006752D01*
X105082049Y-81025802D01*
X104993943Y-80995639D01*
X104962193Y-80932139D01*
X104992355Y-80885705D01*
X105082843Y-80870227D01*
X105165393Y-80862289D01*
X105209446Y-80819030D01*
X105224130Y-80730527D01*
X105213415Y-80649167D01*
X105181268Y-80608289D01*
X105144122Y-80594002D01*
X105705143Y-80594002D01*
X105723796Y-80638848D01*
X105779755Y-80687664D01*
X105860718Y-80716239D01*
X105949618Y-80643214D01*
X105954380Y-80636864D01*
X106006768Y-80619402D01*
X106084555Y-80668614D01*
X106145674Y-80701158D01*
X106233780Y-80716239D01*
X106331411Y-80702745D01*
X106414755Y-80662264D01*
X106467143Y-80617020D01*
X106513974Y-80553520D01*
X106536993Y-80490814D01*
X106481430Y-80413820D01*
X106383799Y-80366989D01*
X106339944Y-80386039D01*
X106292518Y-80443189D01*
X106271880Y-80462239D01*
X106240924Y-80468589D01*
X106191711Y-80443189D01*
X106113924Y-80393183D01*
X106009149Y-80368577D01*
X105902786Y-80385245D01*
X105825793Y-80422552D01*
X105773405Y-80470177D01*
X105743243Y-80507483D01*
X105721018Y-80543995D01*
X105705143Y-80594002D01*
X105144122Y-80594002D01*
X105139993Y-80592414D01*
X105067761Y-80589239D01*
X104975686Y-80556695D01*
X104936793Y-80481289D01*
X104976480Y-80404295D01*
X105027280Y-80378697D01*
X105100305Y-80370164D01*
X105166980Y-80379689D01*
X105254293Y-80455889D01*
X105301918Y-80538439D01*
X105386055Y-80554314D01*
X105502736Y-80531295D01*
X105541630Y-80462239D01*
X105524168Y-80376514D01*
X105520993Y-80360639D01*
X105503530Y-80319364D01*
X105464240Y-80256261D01*
X105419393Y-80206652D01*
X105327670Y-80144915D01*
X105221837Y-80107874D01*
X105101893Y-80095527D01*
X104981066Y-80107786D01*
X104874704Y-80144563D01*
X104782805Y-80205858D01*
X104712250Y-80286027D01*
X104669916Y-80379424D01*
X104655805Y-80486052D01*
X103239213Y-80486052D01*
X103246304Y-80480892D01*
X103311986Y-80413820D01*
X103356635Y-80338216D01*
X103371518Y-80255864D01*
X103330243Y-80155852D01*
X103231818Y-80112989D01*
X102611105Y-80112989D01*
X102512680Y-80132039D01*
X102478549Y-80173314D01*
X102468230Y-80253483D01*
X100683632Y-80253483D01*
X100675149Y-80239989D01*
X100619190Y-80183038D01*
X100544974Y-80136008D01*
X100455479Y-80104456D01*
X100353680Y-80093939D01*
X100252279Y-80104258D01*
X100163974Y-80135214D01*
X100091147Y-80182045D01*
X100036180Y-80239989D01*
X99982007Y-80331568D01*
X99943311Y-80438030D01*
X99920094Y-80559374D01*
X99912355Y-80695602D01*
X97964493Y-80695602D01*
X97964493Y-80255864D01*
X97962111Y-80197920D01*
X97947030Y-80154264D01*
X97904565Y-80123308D01*
X97824793Y-80112989D01*
X97743036Y-80123705D01*
X97700968Y-80155852D01*
X97685886Y-80197920D01*
X97683505Y-80252689D01*
X97683505Y-81136927D01*
X97170875Y-81136927D01*
X97170875Y-77448106D01*
G37*
%TO.C,R6*%
X100862742Y-86218500D02*
X101337258Y-86218500D01*
X100862742Y-87263500D02*
X101337258Y-87263500D01*
%TO.C,R1*%
X128761258Y-91425500D02*
X128286742Y-91425500D01*
X128761258Y-92470500D02*
X128286742Y-92470500D01*
%TO.C,J1*%
X136829000Y-88930000D02*
X136829000Y-89930000D01*
X136829000Y-89930000D02*
X138429000Y-89930000D01*
X136829000Y-86330000D02*
X136829000Y-85330000D01*
X138429000Y-89430000D02*
X140689000Y-89430000D01*
X132869000Y-84570000D02*
X132869000Y-85490000D01*
X140689000Y-90690000D02*
X140689000Y-84570000D01*
X134469000Y-90690000D02*
X134469000Y-89770000D01*
X132869000Y-85490000D02*
X134469000Y-85490000D01*
X132869000Y-90690000D02*
X140689000Y-90690000D01*
X138429000Y-85330000D02*
X138429000Y-86330000D01*
X138429000Y-89930000D02*
X138429000Y-88930000D01*
X132869000Y-89770000D02*
X132869000Y-90690000D01*
X134469000Y-89770000D02*
X132869000Y-89770000D01*
X136829000Y-85330000D02*
X138429000Y-85330000D01*
X136329000Y-88130000D02*
X136329000Y-87130000D01*
X134469000Y-89490000D02*
X133254000Y-89490000D01*
X136329000Y-87130000D02*
X140689000Y-87130000D01*
X134469000Y-85490000D02*
X134469000Y-85770000D01*
X134469000Y-89490000D02*
X134469000Y-89770000D01*
X138429000Y-86330000D02*
X136829000Y-86330000D01*
X140689000Y-84570000D02*
X132869000Y-84570000D01*
X138429000Y-88930000D02*
X136829000Y-88930000D01*
X140689000Y-88130000D02*
X136329000Y-88130000D01*
X134469000Y-84570000D02*
X134469000Y-85490000D01*
X138429000Y-88930000D02*
X140689000Y-88930000D01*
%TO.C,D4*%
X103290000Y-86841000D02*
X105575000Y-86841000D01*
X105575000Y-85371000D02*
X103290000Y-85371000D01*
X103290000Y-85371000D02*
X103290000Y-86841000D01*
%TO.C,kibuzzard-63FC0D8E*%
G36*
X108363544Y-94257217D02*
G01*
X108390531Y-94316748D01*
X108364338Y-94377073D01*
X108286550Y-94405648D01*
X108207175Y-94377073D01*
X108179394Y-94315955D01*
X108204794Y-94256423D01*
X108283375Y-94229436D01*
X108363544Y-94257217D01*
G37*
G36*
X110720981Y-94261186D02*
G01*
X110737650Y-94296905D01*
X110741619Y-94342942D01*
X110709075Y-94401680D01*
X110614619Y-94431048D01*
X110524925Y-94399298D01*
X110497144Y-94331036D01*
X110527703Y-94251264D01*
X110619381Y-94224673D01*
X110720981Y-94261186D01*
G37*
G36*
X103373237Y-94732673D02*
G01*
X103401019Y-94800936D01*
X103370459Y-94880708D01*
X103278781Y-94907298D01*
X103177181Y-94870786D01*
X103162100Y-94835861D01*
X103158131Y-94789823D01*
X103190675Y-94730292D01*
X103284337Y-94700923D01*
X103373237Y-94732673D01*
G37*
G36*
X113303248Y-94266841D02*
G01*
X113353850Y-94326670D01*
X113384211Y-94426385D01*
X113394331Y-94565986D01*
X113394331Y-94575511D01*
X113384112Y-94711639D01*
X113353453Y-94808873D01*
X113302355Y-94867214D01*
X113230819Y-94886661D01*
X113160671Y-94866668D01*
X113110566Y-94806691D01*
X113080502Y-94706728D01*
X113070481Y-94566780D01*
X113080602Y-94426832D01*
X113110963Y-94326869D01*
X113161564Y-94266891D01*
X113232406Y-94246898D01*
X113303248Y-94266841D01*
G37*
G36*
X96886051Y-93446931D02*
G01*
X114187949Y-93446931D01*
X114187949Y-97815069D01*
X96886051Y-97815069D01*
X96886051Y-94681873D01*
X97398681Y-94681873D01*
X97406619Y-94750136D01*
X97449878Y-94795380D01*
X97538381Y-94810461D01*
X97968594Y-94810461D01*
X97968594Y-95004136D01*
X97978119Y-95086686D01*
X97998756Y-95118436D01*
X98040031Y-95137486D01*
X98113056Y-95145423D01*
X98190050Y-95135898D01*
X98236087Y-95097005D01*
X98251169Y-95005723D01*
X98251169Y-94958098D01*
X100175219Y-94958098D01*
X100235544Y-95053348D01*
X100248244Y-95064461D01*
X100287931Y-95094623D01*
X100370481Y-95136075D01*
X100459381Y-95160946D01*
X100554631Y-95169236D01*
X100661699Y-95156095D01*
X100756420Y-95116672D01*
X100838794Y-95050967D01*
X100902294Y-94967006D01*
X100940394Y-94872814D01*
X100952611Y-94772361D01*
X101873844Y-94772361D01*
X101929406Y-94849355D01*
X102027037Y-94896186D01*
X102070892Y-94877136D01*
X102118319Y-94819986D01*
X102138956Y-94800936D01*
X102169912Y-94794586D01*
X102219125Y-94819986D01*
X102296912Y-94869992D01*
X102401687Y-94894598D01*
X102508050Y-94877930D01*
X102585044Y-94840623D01*
X102637431Y-94792998D01*
X102667594Y-94755692D01*
X102689819Y-94719180D01*
X102698134Y-94692986D01*
X102869206Y-94692986D01*
X102880848Y-94824131D01*
X102915773Y-94938166D01*
X102973981Y-95035092D01*
X103055120Y-95108735D01*
X103158837Y-95152920D01*
X103285131Y-95167648D01*
X103388760Y-95155654D01*
X103481628Y-95119671D01*
X103563737Y-95059698D01*
X103627678Y-94981911D01*
X103666043Y-94892482D01*
X103678831Y-94791411D01*
X103666396Y-94707538D01*
X103629090Y-94629486D01*
X103566912Y-94557255D01*
X103487273Y-94499487D01*
X103397579Y-94464827D01*
X103297831Y-94453273D01*
X103180356Y-94480261D01*
X103188294Y-94458036D01*
X103217662Y-94402473D01*
X103274019Y-94340561D01*
X103370062Y-94286586D01*
X103496269Y-94264361D01*
X103588344Y-94254836D01*
X103620094Y-94234198D01*
X103639144Y-94192923D01*
X103646563Y-94124661D01*
X105348881Y-94124661D01*
X105358406Y-94204036D01*
X105396506Y-94250073D01*
X105488581Y-94265948D01*
X105850531Y-94265948D01*
X105815606Y-94338180D01*
X105777109Y-94394933D01*
X105731469Y-94462005D01*
X105682256Y-94537609D01*
X105633044Y-94619961D01*
X105587403Y-94711441D01*
X105548906Y-94814430D01*
X105522712Y-94921784D01*
X105513981Y-95026361D01*
X105516362Y-95079542D01*
X105531444Y-95115261D01*
X105573513Y-95140661D01*
X105653681Y-95147011D01*
X105733850Y-95140661D01*
X105775919Y-95116055D01*
X105791794Y-95081130D01*
X105794969Y-95029536D01*
X105803700Y-94954923D01*
X105829894Y-94869198D01*
X105872835Y-94773948D01*
X107861894Y-94773948D01*
X107876269Y-94885603D01*
X107919397Y-94981382D01*
X107991275Y-95061286D01*
X108081322Y-95121258D01*
X108178953Y-95157241D01*
X108284169Y-95169236D01*
X108389385Y-95157153D01*
X108487016Y-95120905D01*
X108577063Y-95060492D01*
X108648941Y-94980323D01*
X108692068Y-94884809D01*
X108706444Y-94773948D01*
X108706230Y-94772361D01*
X109225556Y-94772361D01*
X109281119Y-94849355D01*
X109378750Y-94896186D01*
X109422605Y-94877136D01*
X109470031Y-94819986D01*
X109490669Y-94800936D01*
X109521625Y-94794586D01*
X109570837Y-94819986D01*
X109648625Y-94869992D01*
X109753400Y-94894598D01*
X109859763Y-94877930D01*
X109936756Y-94840623D01*
X109989144Y-94792998D01*
X110019306Y-94755692D01*
X110041531Y-94719180D01*
X110057406Y-94669173D01*
X110038753Y-94624327D01*
X109982794Y-94575511D01*
X109901831Y-94546936D01*
X109812931Y-94619961D01*
X109808169Y-94626311D01*
X109755781Y-94643773D01*
X109677994Y-94594561D01*
X109616875Y-94562017D01*
X109528769Y-94546936D01*
X109431138Y-94560430D01*
X109347794Y-94600911D01*
X109295406Y-94646155D01*
X109248575Y-94709655D01*
X109225556Y-94772361D01*
X108706230Y-94772361D01*
X108697514Y-94707670D01*
X108670725Y-94642186D01*
X108613575Y-94555667D01*
X108577856Y-94523123D01*
X108601669Y-94497723D01*
X108648500Y-94423111D01*
X108668123Y-94340561D01*
X110220919Y-94340561D01*
X110233354Y-94424434D01*
X110270660Y-94502486D01*
X110332838Y-94574717D01*
X110412301Y-94632485D01*
X110501465Y-94667145D01*
X110600331Y-94678698D01*
X110719394Y-94651711D01*
X110711456Y-94673936D01*
X110680103Y-94729498D01*
X110624144Y-94791411D01*
X110529688Y-94845386D01*
X110403481Y-94867611D01*
X110311406Y-94877136D01*
X110266163Y-94919205D01*
X110251081Y-95007311D01*
X110262194Y-95087877D01*
X110295531Y-95132723D01*
X110381256Y-95148598D01*
X110390781Y-95148598D01*
X110504510Y-95140470D01*
X110608205Y-95116086D01*
X110701868Y-95075446D01*
X110785497Y-95018550D01*
X110859094Y-94945398D01*
X110920816Y-94860118D01*
X110965979Y-94772361D01*
X111148019Y-94772361D01*
X111203581Y-94849355D01*
X111301213Y-94896186D01*
X111345067Y-94877136D01*
X111392494Y-94819986D01*
X111413131Y-94800936D01*
X111444088Y-94794586D01*
X111493300Y-94819986D01*
X111571088Y-94869992D01*
X111675863Y-94894598D01*
X111782225Y-94877930D01*
X111859219Y-94840623D01*
X111911606Y-94792998D01*
X111941769Y-94755692D01*
X111963994Y-94719180D01*
X111979869Y-94669173D01*
X111961216Y-94624327D01*
X111905256Y-94575511D01*
X111824294Y-94546936D01*
X111735394Y-94619961D01*
X111730631Y-94626311D01*
X111678244Y-94643773D01*
X111600456Y-94594561D01*
X111539338Y-94562017D01*
X111451231Y-94546936D01*
X111353600Y-94560430D01*
X111270256Y-94600911D01*
X111217869Y-94646155D01*
X111171038Y-94709655D01*
X111148019Y-94772361D01*
X110965979Y-94772361D01*
X110968822Y-94766836D01*
X111003112Y-94665554D01*
X111023686Y-94556270D01*
X111030544Y-94438986D01*
X111023075Y-94354848D01*
X112127506Y-94354848D01*
X112177513Y-94453273D01*
X112273556Y-94508836D01*
X112384681Y-94459623D01*
X112405319Y-94440573D01*
X112405319Y-95007311D01*
X112407700Y-95065255D01*
X112422781Y-95108911D01*
X112465247Y-95139867D01*
X112545019Y-95150186D01*
X112626775Y-95139470D01*
X112668844Y-95107323D01*
X112683925Y-95065255D01*
X112686306Y-95010486D01*
X112686306Y-94565986D01*
X112789494Y-94565986D01*
X112794609Y-94677287D01*
X112809955Y-94780475D01*
X112835531Y-94875548D01*
X112869861Y-94955320D01*
X112912525Y-95023186D01*
X112968484Y-95080137D01*
X113042700Y-95127167D01*
X113132195Y-95158719D01*
X113233994Y-95169236D01*
X113335395Y-95158917D01*
X113423700Y-95127961D01*
X113496527Y-95081130D01*
X113551494Y-95023186D01*
X113605667Y-94931607D01*
X113644363Y-94825145D01*
X113667580Y-94703801D01*
X113675319Y-94567573D01*
X113670027Y-94462622D01*
X113654152Y-94361551D01*
X113627694Y-94264361D01*
X113594555Y-94184192D01*
X113552287Y-94115136D01*
X113496725Y-94056795D01*
X113423700Y-94008773D01*
X113334998Y-93976627D01*
X113232406Y-93965911D01*
X113129417Y-93976825D01*
X113039525Y-94009567D01*
X112965508Y-94058383D01*
X112910144Y-94117517D01*
X112866289Y-94193916D01*
X112826800Y-94294523D01*
X112806074Y-94374780D01*
X112793639Y-94465268D01*
X112789494Y-94565986D01*
X112686306Y-94565986D01*
X112686306Y-94126248D01*
X112678369Y-94042111D01*
X112656144Y-94007980D01*
X112614869Y-93989723D01*
X112539463Y-93981786D01*
X112449769Y-94023061D01*
X112445006Y-94026236D01*
X112184656Y-94261186D01*
X112127506Y-94354848D01*
X111023075Y-94354848D01*
X111018902Y-94307841D01*
X110983977Y-94193805D01*
X110925769Y-94096880D01*
X110844453Y-94023237D01*
X110740208Y-93979052D01*
X110613031Y-93964323D01*
X110509491Y-93976318D01*
X110416887Y-94012301D01*
X110335219Y-94072273D01*
X110271719Y-94150061D01*
X110233619Y-94239490D01*
X110220919Y-94340561D01*
X108668123Y-94340561D01*
X108671519Y-94326273D01*
X108658819Y-94225732D01*
X108620719Y-94137890D01*
X108557219Y-94062748D01*
X108476433Y-94005422D01*
X108386474Y-93971026D01*
X108287344Y-93959561D01*
X108187860Y-93970850D01*
X108096844Y-94004716D01*
X108014294Y-94061161D01*
X107949030Y-94134891D01*
X107909872Y-94220616D01*
X107896819Y-94318336D01*
X107923013Y-94428667D01*
X107965081Y-94497723D01*
X107992069Y-94523123D01*
X107958731Y-94553286D01*
X107894438Y-94644567D01*
X107870030Y-94708266D01*
X107861894Y-94773948D01*
X105872835Y-94773948D01*
X105873550Y-94772361D01*
X105934669Y-94664411D01*
X105993208Y-94571145D01*
X106051350Y-94478673D01*
X106105127Y-94386003D01*
X106150569Y-94292142D01*
X106181525Y-94205425D01*
X106191844Y-94134186D01*
X106182319Y-94045286D01*
X106140250Y-94000042D01*
X106052144Y-93984961D01*
X105480644Y-93984961D01*
X105388569Y-94004011D01*
X105358406Y-94045286D01*
X105348881Y-94124661D01*
X103646563Y-94124661D01*
X103647081Y-94119898D01*
X103637556Y-94043698D01*
X103600250Y-93998455D01*
X103512144Y-93983373D01*
X103397812Y-93991501D01*
X103293577Y-94015885D01*
X103199438Y-94056525D01*
X103115396Y-94113421D01*
X103041450Y-94186573D01*
X102979442Y-94271854D01*
X102931214Y-94365135D01*
X102896765Y-94466418D01*
X102876096Y-94575701D01*
X102869206Y-94692986D01*
X102698134Y-94692986D01*
X102705694Y-94669173D01*
X102687041Y-94624327D01*
X102631081Y-94575511D01*
X102550119Y-94546936D01*
X102461219Y-94619961D01*
X102456456Y-94626311D01*
X102404069Y-94643773D01*
X102326281Y-94594561D01*
X102265162Y-94562017D01*
X102177056Y-94546936D01*
X102079425Y-94560430D01*
X101996081Y-94600911D01*
X101943694Y-94646155D01*
X101896862Y-94709655D01*
X101873844Y-94772361D01*
X100952611Y-94772361D01*
X100953094Y-94768392D01*
X100939688Y-94664499D01*
X100899472Y-94571895D01*
X100832444Y-94490580D01*
X100748659Y-94427521D01*
X100658172Y-94389685D01*
X100560981Y-94377073D01*
X100505419Y-94380248D01*
X100521294Y-94259598D01*
X100799106Y-94259598D01*
X100850700Y-94257217D01*
X100889594Y-94242136D01*
X100919359Y-94202845D01*
X100929281Y-94126248D01*
X100918566Y-94042111D01*
X100886419Y-93999248D01*
X100845144Y-93984167D01*
X100789581Y-93981786D01*
X100640356Y-93981786D01*
X100399056Y-93980198D01*
X100334762Y-93995280D01*
X100293487Y-94029411D01*
X100270469Y-94072273D01*
X100259356Y-94105611D01*
X100250228Y-94171492D01*
X100226019Y-94350086D01*
X100202206Y-94531458D01*
X100194269Y-94605673D01*
X100211731Y-94644567D01*
X100285550Y-94692986D01*
X100385562Y-94723148D01*
X100472081Y-94686636D01*
X100548281Y-94658061D01*
X100633212Y-94689017D01*
X100670519Y-94773155D01*
X100636387Y-94856498D01*
X100531612Y-94886661D01*
X100432394Y-94853323D01*
X100326031Y-94802523D01*
X100233956Y-94854911D01*
X100175219Y-94958098D01*
X98251169Y-94958098D01*
X98251169Y-94772361D01*
X99195731Y-94772361D01*
X99251294Y-94849355D01*
X99348925Y-94896186D01*
X99392780Y-94877136D01*
X99440206Y-94819986D01*
X99460844Y-94800936D01*
X99491800Y-94794586D01*
X99541012Y-94819986D01*
X99618800Y-94869992D01*
X99723575Y-94894598D01*
X99829937Y-94877930D01*
X99906931Y-94840623D01*
X99959319Y-94792998D01*
X99989481Y-94755692D01*
X100011706Y-94719180D01*
X100027581Y-94669173D01*
X100008928Y-94624327D01*
X99952969Y-94575511D01*
X99872006Y-94546936D01*
X99783106Y-94619961D01*
X99778344Y-94626311D01*
X99725956Y-94643773D01*
X99648169Y-94594561D01*
X99587050Y-94562017D01*
X99498944Y-94546936D01*
X99401312Y-94560430D01*
X99317969Y-94600911D01*
X99265581Y-94646155D01*
X99218750Y-94709655D01*
X99195731Y-94772361D01*
X98251169Y-94772361D01*
X98251169Y-94123073D01*
X98248787Y-94067511D01*
X98233706Y-94025442D01*
X98190844Y-93992105D01*
X98110675Y-93981786D01*
X98029712Y-93990517D01*
X97986056Y-94021473D01*
X97970975Y-94061161D01*
X97968594Y-94115136D01*
X97968594Y-94548523D01*
X97709831Y-94548523D01*
X97806669Y-94161173D01*
X97808256Y-94156411D01*
X97819369Y-94089736D01*
X97791587Y-94028617D01*
X97708244Y-93988136D01*
X97635219Y-93977023D01*
X97580450Y-93994486D01*
X97551875Y-94030998D01*
X97535206Y-94086561D01*
X97403444Y-94618373D01*
X97398681Y-94681873D01*
X96886051Y-94681873D01*
X96886051Y-93446931D01*
G37*
G36*
X108389738Y-94699336D02*
G01*
X108425456Y-94781092D01*
X108390531Y-94862848D01*
X108285756Y-94900948D01*
X108179394Y-94862848D01*
X108142881Y-94780298D01*
X108179394Y-94698542D01*
X108284963Y-94661236D01*
X108389738Y-94699336D01*
G37*
%TO.C,D1*%
X135409000Y-94195000D02*
X136879000Y-94195000D01*
X136879000Y-94195000D02*
X136879000Y-91910000D01*
X135409000Y-91910000D02*
X135409000Y-94195000D01*
%TO.C,C4*%
X124346580Y-82548000D02*
X124065420Y-82548000D01*
X124346580Y-83568000D02*
X124065420Y-83568000D01*
%TO.C,U2*%
X124206000Y-84038000D02*
X123406000Y-84038000D01*
X124206000Y-84038000D02*
X125006000Y-84038000D01*
X124206000Y-87158000D02*
X126006000Y-87158000D01*
X124206000Y-87158000D02*
X123406000Y-87158000D01*
%TO.C,kibuzzard-63FC107B*%
G36*
X125099961Y-80398541D02*
G01*
X125196600Y-80464620D01*
X125247312Y-80529267D01*
X125277739Y-80605731D01*
X125287881Y-80694014D01*
X125277827Y-80782297D01*
X125247665Y-80858761D01*
X125197394Y-80923408D01*
X125101350Y-80989488D01*
X124994194Y-81011514D01*
X124886839Y-80989686D01*
X124790200Y-80924202D01*
X124739488Y-80859643D01*
X124709061Y-80782385D01*
X124698919Y-80692427D01*
X124708973Y-80602645D01*
X124739135Y-80525915D01*
X124789406Y-80462239D01*
X124885450Y-80397945D01*
X124992606Y-80376514D01*
X125099961Y-80398541D01*
G37*
G36*
X130618574Y-81809894D02*
G01*
X113983426Y-81809894D01*
X113983426Y-81135339D01*
X114496056Y-81135339D01*
X114503994Y-81219477D01*
X114526219Y-81253608D01*
X114567494Y-81271864D01*
X114642900Y-81279802D01*
X114732594Y-81238527D01*
X114737356Y-81235352D01*
X114848181Y-81135339D01*
X115142169Y-81135339D01*
X115150106Y-81219477D01*
X115172331Y-81253608D01*
X115213606Y-81271864D01*
X115289012Y-81279802D01*
X115378706Y-81238527D01*
X115383469Y-81235352D01*
X115643819Y-81000402D01*
X115700969Y-80906739D01*
X115650962Y-80808314D01*
X115554919Y-80752752D01*
X115443794Y-80801964D01*
X115423156Y-80821014D01*
X115423156Y-80592414D01*
X115848606Y-80592414D01*
X115867259Y-80637261D01*
X115923219Y-80686077D01*
X116004181Y-80714652D01*
X116093081Y-80641627D01*
X116097844Y-80635277D01*
X116150231Y-80617814D01*
X116228019Y-80667027D01*
X116289137Y-80699570D01*
X116377244Y-80714652D01*
X116474875Y-80701158D01*
X116558219Y-80660677D01*
X116610606Y-80615433D01*
X116657437Y-80551933D01*
X116680456Y-80489227D01*
X116624894Y-80412233D01*
X116527262Y-80365402D01*
X116483408Y-80384452D01*
X116435981Y-80441602D01*
X116415344Y-80460652D01*
X116384387Y-80467002D01*
X116335175Y-80441602D01*
X116257387Y-80391595D01*
X116152612Y-80366989D01*
X116046250Y-80383658D01*
X115969256Y-80420964D01*
X115916869Y-80468589D01*
X115886706Y-80505895D01*
X115864481Y-80542408D01*
X115848606Y-80592414D01*
X115423156Y-80592414D01*
X115423156Y-80254277D01*
X115423058Y-80251895D01*
X116782056Y-80251895D01*
X116791581Y-80332858D01*
X116828887Y-80378895D01*
X116921756Y-80393977D01*
X117212269Y-80393977D01*
X117212269Y-80401914D01*
X117172581Y-80417789D01*
X117074156Y-80471367D01*
X116963031Y-80559077D01*
X116911437Y-80616227D01*
X116867781Y-80689252D01*
X116838016Y-80772595D01*
X116828094Y-80860702D01*
X116841323Y-80969798D01*
X116881010Y-81070604D01*
X116947156Y-81163120D01*
X117034557Y-81236763D01*
X117138009Y-81280948D01*
X117257512Y-81295677D01*
X117376928Y-81281124D01*
X117480115Y-81237468D01*
X117567075Y-81164708D01*
X117588256Y-81135339D01*
X117788531Y-81135339D01*
X117796469Y-81219477D01*
X117818694Y-81253608D01*
X117859969Y-81271864D01*
X117935375Y-81279802D01*
X118025069Y-81238527D01*
X118029831Y-81235352D01*
X118290181Y-81000402D01*
X118347331Y-80906739D01*
X118297325Y-80808314D01*
X118201281Y-80752752D01*
X118090156Y-80801964D01*
X118069519Y-80821014D01*
X118069519Y-80592414D01*
X118494969Y-80592414D01*
X118513622Y-80637261D01*
X118569581Y-80686077D01*
X118650544Y-80714652D01*
X118739444Y-80641627D01*
X118744206Y-80635277D01*
X118796594Y-80617814D01*
X118874381Y-80667027D01*
X118935500Y-80699570D01*
X119023606Y-80714652D01*
X119121237Y-80701158D01*
X119204581Y-80660677D01*
X119256969Y-80615433D01*
X119303800Y-80551933D01*
X119326819Y-80489227D01*
X119323382Y-80484464D01*
X119444294Y-80484464D01*
X119457391Y-80565427D01*
X119496681Y-80636864D01*
X119546687Y-80688458D01*
X119593519Y-80722589D01*
X119593519Y-80733702D01*
X119524727Y-80783531D01*
X119483452Y-80850471D01*
X119469694Y-80934520D01*
X119482217Y-81024038D01*
X119519788Y-81107381D01*
X119582406Y-81184552D01*
X119666720Y-81246288D01*
X119769378Y-81283329D01*
X119890381Y-81295677D01*
X119969161Y-81290120D01*
X120040400Y-81273452D01*
X120145175Y-81224239D01*
X120211056Y-81161533D01*
X120229350Y-81135339D01*
X120433306Y-81135339D01*
X120441244Y-81219477D01*
X120463469Y-81253608D01*
X120504744Y-81271864D01*
X120580150Y-81279802D01*
X120669844Y-81238527D01*
X120674606Y-81235352D01*
X120783672Y-81136927D01*
X122514519Y-81136927D01*
X122522456Y-81219477D01*
X122565716Y-81263530D01*
X122654219Y-81278214D01*
X122735975Y-81267498D01*
X122778044Y-81235352D01*
X122793125Y-81193283D01*
X122795506Y-81138514D01*
X122795506Y-80704333D01*
X122898694Y-80704333D01*
X122909608Y-80820617D01*
X122942350Y-80927377D01*
X122996920Y-81024611D01*
X123073319Y-81112320D01*
X123164104Y-81184899D01*
X123261834Y-81236741D01*
X123366510Y-81267846D01*
X123478131Y-81278214D01*
X123771819Y-81279802D01*
X123853575Y-81269086D01*
X123895644Y-81236939D01*
X123910725Y-81195664D01*
X123913106Y-81140102D01*
X123913106Y-80701158D01*
X124417931Y-80701158D01*
X124428746Y-80821857D01*
X124461191Y-80932338D01*
X124515265Y-81032598D01*
X124590969Y-81122639D01*
X124681357Y-81196954D01*
X124779484Y-81250036D01*
X124885351Y-81281885D01*
X124998956Y-81292502D01*
X125106906Y-81281389D01*
X125211681Y-81248052D01*
X125308916Y-81195267D01*
X125394244Y-81125814D01*
X125465681Y-81038700D01*
X125521244Y-80932933D01*
X125556963Y-80813672D01*
X125567166Y-80704333D01*
X125648244Y-80704333D01*
X125659158Y-80820617D01*
X125691900Y-80927377D01*
X125746470Y-81024611D01*
X125822869Y-81112320D01*
X125913654Y-81184899D01*
X126011384Y-81236741D01*
X126116060Y-81267846D01*
X126227681Y-81278214D01*
X126521369Y-81279802D01*
X126603125Y-81269086D01*
X126645194Y-81236939D01*
X126660275Y-81195664D01*
X126662350Y-81147245D01*
X127183356Y-81147245D01*
X127246856Y-81242495D01*
X127351631Y-81297264D01*
X127448469Y-81232177D01*
X127505111Y-81166454D01*
X127568357Y-81093747D01*
X127638207Y-81014054D01*
X127714661Y-80927377D01*
X127797719Y-80833714D01*
X127797719Y-81136927D01*
X127805656Y-81219477D01*
X127848916Y-81263530D01*
X127937419Y-81278214D01*
X128019175Y-81267498D01*
X128061244Y-81235352D01*
X128076325Y-81193283D01*
X128078706Y-81138514D01*
X128078706Y-81093270D01*
X128181894Y-81093270D01*
X128223169Y-81168677D01*
X128267619Y-81197252D01*
X128305719Y-81219477D01*
X128422400Y-81266308D01*
X128498798Y-81283572D01*
X128574006Y-81289327D01*
X128678605Y-81279802D01*
X128782851Y-81251227D01*
X128886744Y-81203602D01*
X128964730Y-81153794D01*
X129033588Y-81093270D01*
X129092127Y-81018658D01*
X129139156Y-80926583D01*
X129170113Y-80820022D01*
X129180431Y-80701952D01*
X129169914Y-80582691D01*
X129142229Y-80486052D01*
X129259806Y-80486052D01*
X129269927Y-80581103D01*
X129300288Y-80659883D01*
X129345730Y-80720009D01*
X129401094Y-80759102D01*
X129464197Y-80785494D01*
X129532856Y-80807520D01*
X129601516Y-80824784D01*
X129664619Y-80836889D01*
X129765425Y-80873402D01*
X129805906Y-80944045D01*
X129771775Y-81012308D01*
X129686050Y-81036914D01*
X129601119Y-81016277D01*
X129576513Y-80995639D01*
X129558256Y-80979764D01*
X129475706Y-80948014D01*
X129419350Y-80967858D01*
X129364581Y-81027389D01*
X129326481Y-81114702D01*
X129375694Y-81192489D01*
X129415381Y-81222652D01*
X129524125Y-81272658D01*
X129606873Y-81291113D01*
X129697956Y-81297264D01*
X129809169Y-81285711D01*
X129903626Y-81251050D01*
X129981325Y-81193283D01*
X130039092Y-81119993D01*
X130073753Y-81038766D01*
X130085306Y-80949602D01*
X130075186Y-80855344D01*
X130044825Y-80775770D01*
X129999383Y-80713263D01*
X129944019Y-80670202D01*
X129881313Y-80639047D01*
X129813844Y-80612258D01*
X129746375Y-80591025D01*
X129683669Y-80576539D01*
X129582863Y-80540820D01*
X129542381Y-80479702D01*
X129558785Y-80412674D01*
X129607998Y-80372457D01*
X129690019Y-80359052D01*
X129766219Y-80383658D01*
X129829719Y-80435252D01*
X129900363Y-80494783D01*
X129953544Y-80514627D01*
X130037681Y-80476527D01*
X130088878Y-80416400D01*
X130105944Y-80369370D01*
X130064669Y-80278089D01*
X130050381Y-80260627D01*
X130004344Y-80212208D01*
X129932906Y-80162202D01*
X129824956Y-80116958D01*
X129756297Y-80103266D01*
X129683669Y-80098702D01*
X129588242Y-80108050D01*
X129496697Y-80136096D01*
X129409031Y-80182839D01*
X129348706Y-80234631D01*
X129301081Y-80304283D01*
X129270125Y-80389016D01*
X129259806Y-80486052D01*
X129142229Y-80486052D01*
X129138363Y-80472558D01*
X129090539Y-80376514D01*
X129031206Y-80299520D01*
X128961952Y-80237211D01*
X128884363Y-80185220D01*
X128803797Y-80145136D01*
X128725613Y-80118545D01*
X128649016Y-80103663D01*
X128573213Y-80098702D01*
X128496417Y-80105052D01*
X128416844Y-80124102D01*
X128309688Y-80165377D01*
X128254919Y-80198714D01*
X128204913Y-80238402D01*
X128183481Y-80293964D01*
X128218406Y-80382864D01*
X128273572Y-80449539D01*
X128324769Y-80471764D01*
X128400969Y-80440014D01*
X128429544Y-80419377D01*
X128492250Y-80393977D01*
X128585119Y-80381277D01*
X128687909Y-80398739D01*
X128786731Y-80451127D01*
X128867694Y-80551139D01*
X128891506Y-80618806D01*
X128899444Y-80694808D01*
X128891506Y-80770809D01*
X128867694Y-80838477D01*
X128788319Y-80936902D01*
X128687513Y-80990480D01*
X128585119Y-81008339D01*
X128485106Y-80994845D01*
X128407319Y-80954364D01*
X128326356Y-80919439D01*
X128273969Y-80940870D01*
X128215231Y-81005164D01*
X128181894Y-81093270D01*
X128078706Y-81093270D01*
X128078706Y-80255864D01*
X128069181Y-80174902D01*
X128027113Y-80129658D01*
X127939006Y-80114577D01*
X127857250Y-80125292D01*
X127815181Y-80157439D01*
X127800100Y-80198714D01*
X127797719Y-80254277D01*
X127797719Y-80563839D01*
X127448469Y-80165377D01*
X127350838Y-80098702D01*
X127246856Y-80153470D01*
X127183356Y-80248720D01*
X127235744Y-80347939D01*
X127295374Y-80413920D01*
X127372666Y-80494386D01*
X127467618Y-80589338D01*
X127580231Y-80698777D01*
X127516731Y-80759102D01*
X127426244Y-80847009D01*
X127348456Y-80924995D01*
X127283369Y-80993059D01*
X127230981Y-81051202D01*
X127183356Y-81147245D01*
X126662350Y-81147245D01*
X126662656Y-81140102D01*
X126662656Y-80257452D01*
X126643606Y-80155852D01*
X126601538Y-80126086D01*
X126522956Y-80116164D01*
X126232444Y-80116164D01*
X126115514Y-80126979D01*
X126007614Y-80159423D01*
X125908743Y-80213498D01*
X125818900Y-80289202D01*
X125744238Y-80380036D01*
X125690908Y-80479503D01*
X125658910Y-80587602D01*
X125648244Y-80704333D01*
X125567166Y-80704333D01*
X125568869Y-80686077D01*
X125558302Y-80569594D01*
X125526602Y-80461445D01*
X125473768Y-80361631D01*
X125399800Y-80270152D01*
X125310751Y-80193753D01*
X125212673Y-80139183D01*
X125105567Y-80106441D01*
X124989431Y-80095527D01*
X124873544Y-80106589D01*
X124767181Y-80139778D01*
X124670344Y-80195093D01*
X124583031Y-80272533D01*
X124510800Y-80365699D01*
X124459206Y-80468192D01*
X124428250Y-80580012D01*
X124417931Y-80701158D01*
X123913106Y-80701158D01*
X123913106Y-80257452D01*
X123894056Y-80155852D01*
X123851988Y-80126086D01*
X123773406Y-80116164D01*
X123482894Y-80116164D01*
X123365964Y-80126979D01*
X123258064Y-80159423D01*
X123159193Y-80213498D01*
X123069350Y-80289202D01*
X122994688Y-80380036D01*
X122941358Y-80479503D01*
X122909360Y-80587602D01*
X122898694Y-80704333D01*
X122795506Y-80704333D01*
X122795506Y-80255864D01*
X122785981Y-80174902D01*
X122743913Y-80129658D01*
X122655806Y-80114577D01*
X122574050Y-80125292D01*
X122531981Y-80157439D01*
X122516900Y-80198714D01*
X122514519Y-80254277D01*
X122514519Y-81136927D01*
X120783672Y-81136927D01*
X120934956Y-81000402D01*
X120992106Y-80906739D01*
X120942100Y-80808314D01*
X120846056Y-80752752D01*
X120734931Y-80801964D01*
X120714294Y-80821014D01*
X120714294Y-80592414D01*
X121139744Y-80592414D01*
X121158397Y-80637261D01*
X121214356Y-80686077D01*
X121295319Y-80714652D01*
X121384219Y-80641627D01*
X121388981Y-80635277D01*
X121441369Y-80617814D01*
X121519156Y-80667027D01*
X121580275Y-80699570D01*
X121668381Y-80714652D01*
X121766012Y-80701158D01*
X121849356Y-80660677D01*
X121901744Y-80615433D01*
X121948575Y-80551933D01*
X121971594Y-80489227D01*
X121916031Y-80412233D01*
X121818400Y-80365402D01*
X121774545Y-80384452D01*
X121727119Y-80441602D01*
X121706481Y-80460652D01*
X121675525Y-80467002D01*
X121626312Y-80441602D01*
X121548525Y-80391595D01*
X121443750Y-80366989D01*
X121337387Y-80383658D01*
X121260394Y-80420964D01*
X121208006Y-80468589D01*
X121177844Y-80505895D01*
X121155619Y-80542408D01*
X121139744Y-80592414D01*
X120714294Y-80592414D01*
X120714294Y-80254277D01*
X120711912Y-80196333D01*
X120696831Y-80152677D01*
X120654366Y-80121720D01*
X120574594Y-80111402D01*
X120492837Y-80122117D01*
X120450769Y-80154264D01*
X120435687Y-80196333D01*
X120433306Y-80251102D01*
X120433306Y-81135339D01*
X120229350Y-81135339D01*
X120245981Y-81111527D01*
X120282494Y-81003577D01*
X120262650Y-80946823D01*
X120203119Y-80897214D01*
X120115806Y-80868639D01*
X120055481Y-80888483D01*
X120011031Y-80948014D01*
X120001506Y-80967064D01*
X119960231Y-81005164D01*
X119870537Y-81024214D01*
X119782431Y-80994052D01*
X119750681Y-80930552D01*
X119780844Y-80884117D01*
X119871331Y-80868639D01*
X119953881Y-80860702D01*
X119997934Y-80817442D01*
X120012619Y-80728939D01*
X120001903Y-80647580D01*
X119969756Y-80606702D01*
X119928481Y-80590827D01*
X119856250Y-80587652D01*
X119764175Y-80555108D01*
X119725281Y-80479702D01*
X119764969Y-80402708D01*
X119815769Y-80377109D01*
X119888794Y-80368577D01*
X119955469Y-80378102D01*
X120042781Y-80454302D01*
X120090406Y-80536852D01*
X120174544Y-80552727D01*
X120291225Y-80529708D01*
X120330119Y-80460652D01*
X120312656Y-80374927D01*
X120309481Y-80359052D01*
X120292019Y-80317777D01*
X120252728Y-80254673D01*
X120207881Y-80205064D01*
X120116159Y-80143328D01*
X120010326Y-80106286D01*
X119890381Y-80093939D01*
X119769555Y-80106198D01*
X119663192Y-80142975D01*
X119571294Y-80204270D01*
X119500738Y-80284439D01*
X119458405Y-80377837D01*
X119444294Y-80484464D01*
X119323382Y-80484464D01*
X119271256Y-80412233D01*
X119173625Y-80365402D01*
X119129770Y-80384452D01*
X119082344Y-80441602D01*
X119061706Y-80460652D01*
X119030750Y-80467002D01*
X118981537Y-80441602D01*
X118903750Y-80391595D01*
X118798975Y-80366989D01*
X118692612Y-80383658D01*
X118615619Y-80420964D01*
X118563231Y-80468589D01*
X118533069Y-80505895D01*
X118510844Y-80542408D01*
X118494969Y-80592414D01*
X118069519Y-80592414D01*
X118069519Y-80254277D01*
X118067137Y-80196333D01*
X118052056Y-80152677D01*
X118009591Y-80121720D01*
X117929819Y-80111402D01*
X117848062Y-80122117D01*
X117805994Y-80154264D01*
X117790912Y-80196333D01*
X117788531Y-80251102D01*
X117788531Y-81135339D01*
X117588256Y-81135339D01*
X117632780Y-81073603D01*
X117672203Y-80974913D01*
X117685344Y-80868639D01*
X117677406Y-80787677D01*
X117634147Y-80742433D01*
X117545644Y-80727352D01*
X117464681Y-80736877D01*
X117421819Y-80765452D01*
X117406737Y-80805139D01*
X117404356Y-80857527D01*
X117404356Y-80867052D01*
X117398006Y-80903564D01*
X117355937Y-80977383D01*
X117267831Y-81014689D01*
X117188456Y-81000402D01*
X117146387Y-80969445D01*
X117121781Y-80926583D01*
X117110669Y-80886102D01*
X117125552Y-80816648D01*
X117170200Y-80751164D01*
X117235883Y-80691038D01*
X117313869Y-80637658D01*
X117398006Y-80587255D01*
X117482144Y-80536058D01*
X117560130Y-80479305D01*
X117625812Y-80412233D01*
X117670461Y-80336628D01*
X117685344Y-80254277D01*
X117644069Y-80154264D01*
X117545644Y-80111402D01*
X116924931Y-80111402D01*
X116826506Y-80130452D01*
X116792375Y-80171727D01*
X116782056Y-80251895D01*
X115423058Y-80251895D01*
X115420775Y-80196333D01*
X115405694Y-80152677D01*
X115363228Y-80121720D01*
X115283456Y-80111402D01*
X115201700Y-80122117D01*
X115159631Y-80154264D01*
X115144550Y-80196333D01*
X115142169Y-80251102D01*
X115142169Y-81135339D01*
X114848181Y-81135339D01*
X114997706Y-81000402D01*
X115054856Y-80906739D01*
X115004850Y-80808314D01*
X114908806Y-80752752D01*
X114797681Y-80801964D01*
X114777044Y-80821014D01*
X114777044Y-80254277D01*
X114774662Y-80196333D01*
X114759581Y-80152677D01*
X114717116Y-80121720D01*
X114637344Y-80111402D01*
X114555587Y-80122117D01*
X114513519Y-80154264D01*
X114498437Y-80196333D01*
X114496056Y-80251102D01*
X114496056Y-81135339D01*
X113983426Y-81135339D01*
X113983426Y-77448106D01*
X130618574Y-77448106D01*
X130618574Y-81809894D01*
G37*
G36*
X123632119Y-80997227D02*
G01*
X123479719Y-80997227D01*
X123366808Y-80975597D01*
X123269375Y-80910708D01*
X123202105Y-80813672D01*
X123179681Y-80695602D01*
X123202700Y-80577928D01*
X123271756Y-80482083D01*
X123369388Y-80418384D01*
X123478131Y-80397152D01*
X123632119Y-80397152D01*
X123632119Y-80997227D01*
G37*
G36*
X126381669Y-80997227D02*
G01*
X126229269Y-80997227D01*
X126116358Y-80975597D01*
X126018925Y-80910708D01*
X125951655Y-80813672D01*
X125929231Y-80695602D01*
X125952250Y-80577928D01*
X126021306Y-80482083D01*
X126118938Y-80418384D01*
X126227681Y-80397152D01*
X126381669Y-80397152D01*
X126381669Y-80997227D01*
G37*
%TO.C,kibuzzard-63FC10EF*%
G36*
X130181350Y-77436199D02*
G01*
X133216650Y-77436199D01*
X133216650Y-81821801D01*
X130181350Y-81821801D01*
X130181350Y-81169470D01*
X131656005Y-81169470D01*
X131658386Y-81224239D01*
X131673468Y-81266308D01*
X131713949Y-81298455D01*
X131794118Y-81309170D01*
X131875874Y-81298455D01*
X131917943Y-81266308D01*
X131931436Y-81225827D01*
X131933818Y-81171058D01*
X131931885Y-81126608D01*
X132021130Y-81126608D01*
X132044546Y-81179789D01*
X132114793Y-81228208D01*
X132208455Y-81255195D01*
X132278305Y-81212333D01*
X132300530Y-81164708D01*
X132618030Y-80469383D01*
X132635294Y-80506094D01*
X132674386Y-80590827D01*
X132725980Y-80702944D01*
X132780749Y-80821808D01*
X132835319Y-80940672D01*
X132886318Y-81052789D01*
X132926204Y-81140102D01*
X132947436Y-81184552D01*
X132973630Y-81226620D01*
X133000618Y-81248845D01*
X133042686Y-81255195D01*
X133122855Y-81228208D01*
X133193102Y-81179789D01*
X133216518Y-81126608D01*
X133192705Y-81050408D01*
X132754555Y-80161408D01*
X132701374Y-80105052D01*
X132625968Y-80083620D01*
X132610093Y-80083620D01*
X132536274Y-80105052D01*
X132483093Y-80161408D01*
X132044943Y-81050408D01*
X132021130Y-81126608D01*
X131931885Y-81126608D01*
X131931436Y-81116289D01*
X131917149Y-81074220D01*
X131875080Y-81040883D01*
X131794911Y-81031358D01*
X131714743Y-81040883D01*
X131672674Y-81073427D01*
X131658386Y-81114702D01*
X131656005Y-81169470D01*
X130181350Y-81169470D01*
X130181350Y-80501133D01*
X130693980Y-80501133D01*
X130705710Y-80611640D01*
X130740900Y-80710330D01*
X130799549Y-80797202D01*
X130875837Y-80864670D01*
X130963943Y-80905152D01*
X131063868Y-80918645D01*
X131182930Y-80882133D01*
X131225793Y-80848795D01*
X131254368Y-80817045D01*
X131270243Y-80882133D01*
X131311121Y-80909517D01*
X131389305Y-80918645D01*
X131469871Y-80908723D01*
X131511543Y-80878958D01*
X131526624Y-80838477D01*
X131529005Y-80785295D01*
X131529005Y-80775770D01*
X131656005Y-80775770D01*
X131657593Y-80821808D01*
X131686168Y-80890070D01*
X131794118Y-80917058D01*
X131875874Y-80906739D01*
X131917943Y-80875783D01*
X131931436Y-80833714D01*
X131933818Y-80778945D01*
X131933818Y-80221733D01*
X131931436Y-80166170D01*
X131917943Y-80124895D01*
X131876271Y-80092748D01*
X131795705Y-80082033D01*
X131714346Y-80092352D01*
X131673468Y-80123308D01*
X131658386Y-80165377D01*
X131656005Y-80220145D01*
X131656005Y-80775770D01*
X131529005Y-80775770D01*
X131529005Y-80223320D01*
X131526624Y-80168552D01*
X131513130Y-80126483D01*
X131471458Y-80094336D01*
X131390893Y-80083620D01*
X131309533Y-80094336D01*
X131268655Y-80126483D01*
X131253574Y-80166964D01*
X131251193Y-80221733D01*
X131251193Y-80502720D01*
X131212299Y-80602733D01*
X131110699Y-80640833D01*
X131010686Y-80604320D01*
X130973380Y-80502720D01*
X130973380Y-80223320D01*
X130963855Y-80142358D01*
X130922580Y-80098305D01*
X130833680Y-80083620D01*
X130751924Y-80094336D01*
X130709855Y-80126483D01*
X130696361Y-80166964D01*
X130693980Y-80221733D01*
X130693980Y-80501133D01*
X130181350Y-80501133D01*
X130181350Y-77436199D01*
G37*
%TO.C,C1*%
X99820000Y-83960580D02*
X99820000Y-83679420D01*
X100840000Y-83960580D02*
X100840000Y-83679420D01*
%TO.C,U1*%
X128270000Y-87848000D02*
X129070000Y-87848000D01*
X128270000Y-87848000D02*
X127470000Y-87848000D01*
X128270000Y-90968000D02*
X130070000Y-90968000D01*
X128270000Y-90968000D02*
X127470000Y-90968000D01*
%TO.C,R9*%
X120125258Y-91454500D02*
X119650742Y-91454500D01*
X120125258Y-90409500D02*
X119650742Y-90409500D01*
%TO.C,C7*%
X119747420Y-92966000D02*
X120028580Y-92966000D01*
X119747420Y-91946000D02*
X120028580Y-91946000D01*
%TO.C,Y1*%
X108750000Y-85085000D02*
X109150000Y-85085000D01*
X109150000Y-83885000D02*
X109150000Y-84885000D01*
X109150000Y-83885000D02*
X109550000Y-83885000D01*
X109150000Y-81285000D02*
X109150000Y-82085000D01*
X108750000Y-81285000D02*
X109150000Y-81285000D01*
X108750000Y-84885000D02*
X106750000Y-84885000D01*
X108750000Y-84885000D02*
X109150000Y-84885000D01*
X106750000Y-82085000D02*
X106750000Y-81285000D01*
X106750000Y-81285000D02*
X108750000Y-81285000D01*
X106750000Y-84885000D02*
X106750000Y-83885000D01*
X106750000Y-85085000D02*
X108750000Y-85085000D01*
%TO.C,kibuzzard-63FC0C67*%
G36*
X106501406Y-77448899D02*
G01*
X114224594Y-77448899D01*
X114224594Y-81809101D01*
X106501406Y-81809101D01*
X106501406Y-80490020D01*
X107493594Y-80490020D01*
X107504001Y-80579097D01*
X107535222Y-80662176D01*
X107587256Y-80739258D01*
X107542012Y-80830936D01*
X107526931Y-80931345D01*
X107538397Y-81023068D01*
X107572792Y-81105618D01*
X107630119Y-81178995D01*
X107701027Y-81235440D01*
X107782519Y-81269306D01*
X107874594Y-81280595D01*
X108274644Y-81280595D01*
X108356400Y-81269880D01*
X108398469Y-81237733D01*
X108413550Y-81196458D01*
X108415115Y-81159945D01*
X109306519Y-81159945D01*
X109329934Y-81213127D01*
X109400181Y-81261545D01*
X109493844Y-81288533D01*
X109563694Y-81245670D01*
X109585919Y-81198045D01*
X109903419Y-80502720D01*
X109920683Y-80539431D01*
X109959775Y-80624164D01*
X110011369Y-80736281D01*
X110066137Y-80855145D01*
X110120708Y-80974009D01*
X110171706Y-81086127D01*
X110211592Y-81173439D01*
X110232825Y-81217889D01*
X110259019Y-81259958D01*
X110286006Y-81282183D01*
X110328075Y-81288533D01*
X110408244Y-81261545D01*
X110478491Y-81213127D01*
X110501906Y-81159945D01*
X110478094Y-81083745D01*
X110183125Y-80485258D01*
X110565406Y-80485258D01*
X110578503Y-80566220D01*
X110617794Y-80637658D01*
X110667800Y-80689252D01*
X110714631Y-80723383D01*
X110714631Y-80734495D01*
X110645840Y-80784325D01*
X110604565Y-80851265D01*
X110590806Y-80935314D01*
X110603330Y-81024831D01*
X110640901Y-81108175D01*
X110703519Y-81185345D01*
X110787833Y-81247081D01*
X110890491Y-81284123D01*
X111011494Y-81296470D01*
X111090273Y-81290914D01*
X111161513Y-81274245D01*
X111266288Y-81225033D01*
X111332169Y-81162327D01*
X111367094Y-81112320D01*
X111403606Y-81004370D01*
X111383763Y-80947617D01*
X111324231Y-80898008D01*
X111236919Y-80869433D01*
X111176594Y-80889277D01*
X111132144Y-80948808D01*
X111122619Y-80967858D01*
X111081344Y-81005958D01*
X110991650Y-81025008D01*
X110903544Y-80994845D01*
X110871794Y-80931345D01*
X110901956Y-80884911D01*
X110992444Y-80869433D01*
X111074994Y-80861495D01*
X111119047Y-80818236D01*
X111133731Y-80729733D01*
X111123016Y-80648373D01*
X111090869Y-80607495D01*
X111049594Y-80591620D01*
X110977363Y-80588445D01*
X110885288Y-80555902D01*
X110846394Y-80480495D01*
X110886081Y-80403502D01*
X110936881Y-80377903D01*
X111009906Y-80369370D01*
X111076581Y-80378895D01*
X111163894Y-80455095D01*
X111211519Y-80537645D01*
X111295656Y-80553520D01*
X111412338Y-80530502D01*
X111451231Y-80461445D01*
X111433769Y-80375720D01*
X111430594Y-80359845D01*
X111413131Y-80318570D01*
X111373841Y-80255467D01*
X111350520Y-80229670D01*
X112318006Y-80229670D01*
X112341819Y-80312220D01*
X112386269Y-80413291D01*
X112422252Y-80496370D01*
X112449769Y-80561458D01*
X112383623Y-80645772D01*
X112343935Y-80744197D01*
X112330706Y-80856733D01*
X112341025Y-80955158D01*
X112371981Y-81044058D01*
X112418813Y-81119464D01*
X112476756Y-81177408D01*
X112565480Y-81233852D01*
X112655967Y-81267719D01*
X112748219Y-81279008D01*
X113091119Y-81279008D01*
X113172875Y-81268292D01*
X113214944Y-81236145D01*
X113230025Y-81194077D01*
X113232406Y-81139308D01*
X113232406Y-80258245D01*
X113222881Y-80175695D01*
X113180813Y-80131642D01*
X113092706Y-80116958D01*
X113010950Y-80127673D01*
X112968881Y-80159820D01*
X112953800Y-80201889D01*
X112951419Y-80256658D01*
X112951419Y-80436045D01*
X112751394Y-80436045D01*
X112702181Y-80439220D01*
X112640445Y-80292994D01*
X112599170Y-80197215D01*
X112578356Y-80151883D01*
X112548988Y-80120927D01*
X112498188Y-80105845D01*
X112416431Y-80128070D01*
X112342613Y-80174108D01*
X112318006Y-80229670D01*
X111350520Y-80229670D01*
X111328994Y-80205858D01*
X111237272Y-80144122D01*
X111131438Y-80107080D01*
X111011494Y-80094733D01*
X110890667Y-80106992D01*
X110784305Y-80143769D01*
X110692406Y-80205064D01*
X110621851Y-80285233D01*
X110579517Y-80378631D01*
X110565406Y-80485258D01*
X110183125Y-80485258D01*
X110039944Y-80194745D01*
X109986762Y-80138389D01*
X109911356Y-80116958D01*
X109895481Y-80116958D01*
X109821662Y-80138389D01*
X109768481Y-80194745D01*
X109330331Y-81083745D01*
X109306519Y-81159945D01*
X108415115Y-81159945D01*
X108415931Y-81140895D01*
X108415931Y-80259833D01*
X108406406Y-80177283D01*
X108364337Y-80132039D01*
X108276231Y-80116958D01*
X107858719Y-80116958D01*
X107763204Y-80128864D01*
X107677744Y-80164583D01*
X107602337Y-80224114D01*
X107543335Y-80301284D01*
X107507087Y-80389920D01*
X107493594Y-80490020D01*
X106501406Y-80490020D01*
X106501406Y-77448899D01*
G37*
G36*
X108134944Y-80999608D02*
G01*
X107912694Y-80999608D01*
X107834112Y-80983733D01*
X107807919Y-80928170D01*
X107812681Y-80871020D01*
X107888881Y-80837683D01*
X107986512Y-80815458D01*
X108015881Y-80724177D01*
X107987306Y-80632895D01*
X107901581Y-80610670D01*
X107812681Y-80597970D01*
X107783312Y-80566220D01*
X107774581Y-80505895D01*
X107799584Y-80424933D01*
X107874594Y-80397945D01*
X108134944Y-80397945D01*
X108134944Y-80999608D01*
G37*
G36*
X112951419Y-80998020D02*
G01*
X112751394Y-80998020D01*
X112656144Y-80962302D01*
X112610106Y-80856733D01*
X112656144Y-80751958D01*
X112748219Y-80717033D01*
X112951419Y-80717033D01*
X112951419Y-80998020D01*
G37*
%TO.C,C8*%
X119747420Y-83818000D02*
X120028580Y-83818000D01*
X119747420Y-84838000D02*
X120028580Y-84838000D01*
%TO.C,D2*%
X126404000Y-84098000D02*
X126404000Y-86648000D01*
X128104000Y-84098000D02*
X126404000Y-84098000D01*
X128104000Y-84098000D02*
X128104000Y-86648000D01*
%TO.C,D5*%
X103290000Y-89635000D02*
X105575000Y-89635000D01*
X105575000Y-88165000D02*
X103290000Y-88165000D01*
X103290000Y-88165000D02*
X103290000Y-89635000D01*
%TO.C,J2*%
X90410000Y-92100000D02*
X90410000Y-83160000D01*
X90410000Y-92100000D02*
X91870000Y-92100000D01*
X90410000Y-83160000D02*
X91870000Y-83160000D01*
X95920000Y-92100000D02*
X94120000Y-92100000D01*
X95920000Y-83160000D02*
X94120000Y-83160000D01*
%TO.C,R3*%
X124474500Y-89170742D02*
X124474500Y-89645258D01*
X123429500Y-89170742D02*
X123429500Y-89645258D01*
%TO.C,R7*%
X100862742Y-87869500D02*
X101337258Y-87869500D01*
X100862742Y-88914500D02*
X101337258Y-88914500D01*
%TO.C,D3*%
X103290000Y-92429000D02*
X105575000Y-92429000D01*
X105575000Y-90959000D02*
X103290000Y-90959000D01*
X103290000Y-90959000D02*
X103290000Y-92429000D01*
%TO.C,R2*%
X125713258Y-91425500D02*
X125238742Y-91425500D01*
X125713258Y-92470500D02*
X125238742Y-92470500D01*
%TO.C,C6*%
X121918000Y-89267420D02*
X121918000Y-89548580D01*
X122938000Y-89267420D02*
X122938000Y-89548580D01*
%TD*%
%LPC*%
D13*
%TO.C,C5*%
X131191000Y-90183000D03*
X131191000Y-88633000D03*
%TD*%
D14*
%TO.C,C3*%
X125476000Y-88633000D03*
X125476000Y-90183000D03*
%TD*%
D15*
%TO.C,D6*%
X103987500Y-83312000D03*
X105562500Y-83312000D03*
%TD*%
D16*
%TO.C,Q1*%
X129098000Y-86535500D03*
X130998000Y-86535500D03*
X130048000Y-84660500D03*
%TD*%
D17*
%TO.C,R5*%
X101854000Y-90615000D03*
X101854000Y-92265000D03*
%TD*%
D18*
%TO.C,R8*%
X120713000Y-82804000D03*
X119063000Y-82804000D03*
%TD*%
D19*
%TO.C,C10*%
X111595200Y-92608400D03*
X110045200Y-92608400D03*
%TD*%
%TO.C,C9*%
X111646000Y-82677000D03*
X110096000Y-82677000D03*
%TD*%
D20*
%TO.C,U3*%
X118427736Y-87037798D03*
X118074182Y-86684245D03*
X117720629Y-86330691D03*
X117367076Y-85977138D03*
X117013522Y-85623585D03*
X116659969Y-85270031D03*
X116306415Y-84916478D03*
X115952862Y-84562924D03*
X115599309Y-84209371D03*
X115245755Y-83855818D03*
X114892202Y-83502264D03*
D21*
X113707798Y-83502264D03*
X113354245Y-83855818D03*
X113000691Y-84209371D03*
X112647138Y-84562924D03*
X112293585Y-84916478D03*
X111940031Y-85270031D03*
X111586478Y-85623585D03*
X111232924Y-85977138D03*
X110879371Y-86330691D03*
X110525818Y-86684245D03*
X110172264Y-87037798D03*
D20*
X110172264Y-88222202D03*
X110525818Y-88575755D03*
X110879371Y-88929309D03*
X111232924Y-89282862D03*
X111586478Y-89636415D03*
X111940031Y-89989969D03*
X112293585Y-90343522D03*
X112647138Y-90697076D03*
X113000691Y-91050629D03*
X113354245Y-91404182D03*
X113707798Y-91757736D03*
D21*
X114892202Y-91757736D03*
X115245755Y-91404182D03*
X115599309Y-91050629D03*
X115952862Y-90697076D03*
X116306415Y-90343522D03*
X116659969Y-89989969D03*
X117013522Y-89636415D03*
X117367076Y-89282862D03*
X117720629Y-88929309D03*
X118074182Y-88575755D03*
X118427736Y-88222202D03*
D22*
X114300000Y-87630000D03*
%TD*%
D23*
%TO.C,R4*%
X101854000Y-84645000D03*
X101854000Y-82995000D03*
%TD*%
D14*
%TO.C,C2*%
X100330000Y-90678000D03*
X100330000Y-92228000D03*
%TD*%
D24*
%TO.C,R6*%
X100275000Y-86741000D03*
X101925000Y-86741000D03*
%TD*%
D18*
%TO.C,R1*%
X129349000Y-91948000D03*
X127699000Y-91948000D03*
%TD*%
D25*
%TO.C,J1*%
X134329000Y-88630000D03*
D26*
X134329000Y-86630000D03*
%TD*%
D15*
%TO.C,D4*%
X103987500Y-86106000D03*
X105562500Y-86106000D03*
%TD*%
D27*
%TO.C,D1*%
X136144000Y-93497500D03*
X136144000Y-91922500D03*
%TD*%
D19*
%TO.C,C4*%
X124981000Y-83058000D03*
X123431000Y-83058000D03*
%TD*%
D28*
%TO.C,U2*%
X125343500Y-86548000D03*
X125343500Y-85598000D03*
X125343500Y-84648000D03*
X123068500Y-84648000D03*
X123068500Y-86548000D03*
%TD*%
D13*
%TO.C,C1*%
X100330000Y-84595000D03*
X100330000Y-83045000D03*
%TD*%
D28*
%TO.C,U1*%
X129407500Y-90358000D03*
X129407500Y-89408000D03*
X129407500Y-88458000D03*
X127132500Y-88458000D03*
X127132500Y-90358000D03*
%TD*%
D18*
%TO.C,R9*%
X120713000Y-90932000D03*
X119063000Y-90932000D03*
%TD*%
D29*
%TO.C,C7*%
X119113000Y-92456000D03*
X120663000Y-92456000D03*
%TD*%
D30*
%TO.C,Y1*%
X107950000Y-84285000D03*
X107950000Y-83085000D03*
X107950000Y-81885000D03*
%TD*%
D29*
%TO.C,C8*%
X119113000Y-84328000D03*
X120663000Y-84328000D03*
%TD*%
D31*
%TO.C,D2*%
X127254000Y-84548000D03*
X127254000Y-86648000D03*
%TD*%
D15*
%TO.C,D5*%
X103987500Y-88900000D03*
X105562500Y-88900000D03*
%TD*%
D32*
%TO.C,J2*%
X96700000Y-84740000D03*
X96700000Y-90520000D03*
D33*
X97760000Y-84430000D03*
X97760000Y-85230000D03*
D34*
X97760000Y-86380000D03*
X97760000Y-87380000D03*
X97760000Y-87880000D03*
X97760000Y-88880000D03*
D33*
X97760000Y-90030000D03*
X97760000Y-90830000D03*
X97760000Y-90830000D03*
X97760000Y-90030000D03*
D34*
X97760000Y-89380000D03*
X97760000Y-88380000D03*
X97760000Y-86880000D03*
X97760000Y-85880000D03*
D33*
X97760000Y-85230000D03*
X97760000Y-84430000D03*
D35*
X93010000Y-83310000D03*
D36*
X97180000Y-91950000D03*
X97180000Y-83310000D03*
D35*
X93010000Y-91950000D03*
%TD*%
D17*
%TO.C,R3*%
X123952000Y-88583000D03*
X123952000Y-90233000D03*
%TD*%
D24*
%TO.C,R7*%
X100275000Y-88392000D03*
X101925000Y-88392000D03*
%TD*%
D15*
%TO.C,D3*%
X103987500Y-91694000D03*
X105562500Y-91694000D03*
%TD*%
D18*
%TO.C,R2*%
X126301000Y-91948000D03*
X124651000Y-91948000D03*
%TD*%
D14*
%TO.C,C6*%
X122428000Y-88633000D03*
X122428000Y-90183000D03*
%TD*%
D37*
%TO.C,J3*%
X97790000Y-96520000D03*
D38*
X100330000Y-96520000D03*
X102870000Y-96520000D03*
X105410000Y-96520000D03*
X107950000Y-96520000D03*
X110490000Y-96520000D03*
X113030000Y-96520000D03*
X115570000Y-96520000D03*
X118110000Y-96520000D03*
X120650000Y-96520000D03*
X123190000Y-96520000D03*
X125730000Y-96520000D03*
X128270000Y-96520000D03*
X130810000Y-96520000D03*
%TD*%
D37*
%TO.C,J4*%
X97790000Y-78740000D03*
D38*
X100330000Y-78740000D03*
X102870000Y-78740000D03*
X105410000Y-78740000D03*
X107950000Y-78740000D03*
X110490000Y-78740000D03*
X113030000Y-78740000D03*
X115570000Y-78740000D03*
X118110000Y-78740000D03*
X120650000Y-78740000D03*
X123190000Y-78740000D03*
X125730000Y-78740000D03*
X128270000Y-78740000D03*
X130810000Y-78740000D03*
%TD*%
M02*
