%TF.GenerationSoftware,KiCad,Pcbnew,(6.0.0-0)*%
%TF.CreationDate,2023-05-28T12:50:48+10:00*%
%TF.ProjectId,atmega32u4-dev,61746d65-6761-4333-9275-342d6465762e,v1.0.0*%
%TF.SameCoordinates,Original*%
%TF.FileFunction,Legend,Bot*%
%TF.FilePolarity,Positive*%
%FSLAX46Y46*%
G04 Gerber Fmt 4.6, Leading zero omitted, Abs format (unit mm)*
G04 Created by KiCad (PCBNEW (6.0.0-0)) date 2023-05-28 12:50:48*
%MOMM*%
%LPD*%
G01*
G04 APERTURE LIST*
G04 Aperture macros list*
%AMRoundRect*
0 Rectangle with rounded corners*
0 $1 Rounding radius*
0 $2 $3 $4 $5 $6 $7 $8 $9 X,Y pos of 4 corners*
0 Add a 4 corners polygon primitive as box body*
4,1,4,$2,$3,$4,$5,$6,$7,$8,$9,$2,$3,0*
0 Add four circle primitives for the rounded corners*
1,1,$1+$1,$2,$3*
1,1,$1+$1,$4,$5*
1,1,$1+$1,$6,$7*
1,1,$1+$1,$8,$9*
0 Add four rect primitives between the rounded corners*
20,1,$1+$1,$2,$3,$4,$5,0*
20,1,$1+$1,$4,$5,$6,$7,0*
20,1,$1+$1,$6,$7,$8,$9,0*
20,1,$1+$1,$8,$9,$2,$3,0*%
G04 Aperture macros list end*
%ADD10C,0.120000*%
%ADD11RoundRect,0.250000X0.625000X-0.350000X0.625000X0.350000X-0.625000X0.350000X-0.625000X-0.350000X0*%
%ADD12O,1.750000X1.200000*%
%ADD13C,0.600000*%
%ADD14O,1.700000X0.900000*%
%ADD15O,2.000000X0.900000*%
%ADD16R,1.700000X1.700000*%
%ADD17O,1.700000X1.700000*%
G04 APERTURE END LIST*
D10*
%TO.C,J3*%
X97790000Y-95190000D02*
X96460000Y-95190000D01*
X96460000Y-95190000D02*
X96460000Y-96520000D01*
X99060000Y-95190000D02*
X132140000Y-95190000D01*
X132140000Y-95190000D02*
X132140000Y-97850000D01*
X99060000Y-97850000D02*
X132140000Y-97850000D01*
X99060000Y-95190000D02*
X99060000Y-97850000D01*
%TO.C,kibuzzard-63FC1DB5*%
G36*
X111603499Y-77414768D02*
G01*
X111603499Y-84059382D01*
X109376501Y-84059382D01*
X109376501Y-83359427D01*
X109897069Y-83359427D01*
X109924056Y-83453089D01*
X109972475Y-83523336D01*
X110025656Y-83546752D01*
X110101856Y-83522939D01*
X110990856Y-83084789D01*
X111047213Y-83031608D01*
X111068644Y-82957789D01*
X111068644Y-82941914D01*
X111047213Y-82866508D01*
X110990856Y-82813327D01*
X110101856Y-82375177D01*
X110025656Y-82351364D01*
X109972475Y-82374780D01*
X109924056Y-82445027D01*
X109897069Y-82525195D01*
X109903419Y-82567264D01*
X109925644Y-82594252D01*
X109967712Y-82620445D01*
X110012162Y-82641678D01*
X110099475Y-82681564D01*
X110211592Y-82732563D01*
X110330456Y-82787133D01*
X110449320Y-82841902D01*
X110561438Y-82893495D01*
X110646170Y-82932588D01*
X110682881Y-82949852D01*
X109987556Y-83267352D01*
X109939931Y-83289577D01*
X109897069Y-83359427D01*
X109376501Y-83359427D01*
X109376501Y-81841777D01*
X109889131Y-81841777D01*
X109901478Y-81962779D01*
X109938520Y-82065438D01*
X110000256Y-82149752D01*
X110077426Y-82212370D01*
X110160770Y-82249940D01*
X110250287Y-82262464D01*
X110334337Y-82248706D01*
X110401276Y-82207431D01*
X110451106Y-82138639D01*
X110462219Y-82138639D01*
X110496350Y-82185470D01*
X110547944Y-82235477D01*
X110619381Y-82274767D01*
X110700344Y-82287864D01*
X110806971Y-82273753D01*
X110900369Y-82231420D01*
X110980538Y-82160864D01*
X111041833Y-82068965D01*
X111078610Y-81962603D01*
X111090869Y-81841777D01*
X111078522Y-81721832D01*
X111041480Y-81615999D01*
X110979744Y-81524277D01*
X110930134Y-81479430D01*
X110867031Y-81440139D01*
X110825756Y-81422677D01*
X110809881Y-81419502D01*
X110724156Y-81402039D01*
X110655100Y-81440933D01*
X110632081Y-81557614D01*
X110647956Y-81641752D01*
X110730506Y-81689377D01*
X110806706Y-81776689D01*
X110816231Y-81843364D01*
X110807698Y-81916389D01*
X110782100Y-81967189D01*
X110705106Y-82006877D01*
X110629700Y-81967983D01*
X110597156Y-81875908D01*
X110593981Y-81803677D01*
X110578106Y-81762402D01*
X110537228Y-81730255D01*
X110455869Y-81719539D01*
X110367366Y-81734223D01*
X110324106Y-81778277D01*
X110316169Y-81860827D01*
X110300691Y-81951314D01*
X110254256Y-81981477D01*
X110190756Y-81949727D01*
X110160594Y-81861620D01*
X110179644Y-81771927D01*
X110217744Y-81730652D01*
X110236794Y-81721127D01*
X110296325Y-81676677D01*
X110316169Y-81616352D01*
X110287594Y-81529039D01*
X110237984Y-81469508D01*
X110181231Y-81449664D01*
X110073281Y-81486177D01*
X110023275Y-81521102D01*
X109960569Y-81586983D01*
X109911356Y-81691758D01*
X109894687Y-81762997D01*
X109889131Y-81841777D01*
X109376501Y-81841777D01*
X109376501Y-81163120D01*
X110774956Y-81163120D01*
X110783291Y-81244281D01*
X110808294Y-81295677D01*
X110919419Y-81322664D01*
X110925769Y-81322664D01*
X110982125Y-81320283D01*
X111025781Y-81303614D01*
X111060309Y-81261744D01*
X111071819Y-81183758D01*
X111064278Y-81103986D01*
X111041656Y-81056758D01*
X110927356Y-81025802D01*
X110921006Y-81025802D01*
X110865444Y-81028183D01*
X110822581Y-81043264D01*
X110786863Y-81085134D01*
X110774956Y-81163120D01*
X109376501Y-81163120D01*
X109376501Y-80500339D01*
X109889131Y-80500339D01*
X109901478Y-80621342D01*
X109938520Y-80724000D01*
X110000256Y-80808314D01*
X110077426Y-80870932D01*
X110160770Y-80908503D01*
X110250287Y-80921027D01*
X110334337Y-80907268D01*
X110401276Y-80865993D01*
X110451106Y-80797202D01*
X110462219Y-80797202D01*
X110496350Y-80844033D01*
X110547944Y-80894039D01*
X110619381Y-80933330D01*
X110700344Y-80946427D01*
X110806971Y-80932315D01*
X110900369Y-80889982D01*
X110980538Y-80819427D01*
X111041833Y-80727528D01*
X111078610Y-80621165D01*
X111090869Y-80500339D01*
X111078522Y-80380395D01*
X111041480Y-80274561D01*
X110979744Y-80182839D01*
X110930134Y-80137992D01*
X110867031Y-80098702D01*
X110825756Y-80081239D01*
X110809881Y-80078064D01*
X110724156Y-80060602D01*
X110655100Y-80099495D01*
X110632081Y-80216177D01*
X110647956Y-80300314D01*
X110730506Y-80347939D01*
X110806706Y-80435252D01*
X110816231Y-80501927D01*
X110807698Y-80574952D01*
X110782100Y-80625752D01*
X110705106Y-80665439D01*
X110629700Y-80626545D01*
X110597156Y-80534470D01*
X110593981Y-80462239D01*
X110578106Y-80420964D01*
X110537228Y-80388817D01*
X110455869Y-80378102D01*
X110367366Y-80392786D01*
X110324106Y-80436839D01*
X110316169Y-80519389D01*
X110300691Y-80609877D01*
X110254256Y-80640039D01*
X110190756Y-80608289D01*
X110160594Y-80520183D01*
X110179644Y-80430489D01*
X110217744Y-80389214D01*
X110236794Y-80379689D01*
X110296325Y-80335239D01*
X110316169Y-80274914D01*
X110287594Y-80187602D01*
X110237984Y-80128070D01*
X110181231Y-80108227D01*
X110073281Y-80144739D01*
X110023275Y-80179664D01*
X109960569Y-80245545D01*
X109911356Y-80350320D01*
X109894687Y-80421559D01*
X109889131Y-80500339D01*
X109376501Y-80500339D01*
X109376501Y-77414768D01*
X111603499Y-77414768D01*
G37*
%TO.C,kibuzzard-63FC2462*%
G36*
X114344053Y-87520462D02*
G01*
X114401203Y-87658575D01*
X114346435Y-87799069D01*
X114198797Y-87864553D01*
X114048778Y-87800259D01*
X113991628Y-87658575D01*
X114052350Y-87519272D01*
X114199988Y-87457359D01*
X114344053Y-87520462D01*
G37*
G36*
X113053416Y-87797878D02*
G01*
X113011744Y-87885984D01*
X112892681Y-87919322D01*
X112739091Y-87856219D01*
X112662891Y-87721678D01*
X112962928Y-87721678D01*
X113053416Y-87797878D01*
G37*
G36*
X115752563Y-87500222D02*
G01*
X115810903Y-87641906D01*
X115754944Y-87785972D01*
X115604925Y-87852647D01*
X115452525Y-87785972D01*
X115394185Y-87640716D01*
X115456097Y-87499031D01*
X115606116Y-87435928D01*
X115752563Y-87500222D01*
G37*
G36*
X105931178Y-89290692D02*
G01*
X105769189Y-89266663D01*
X105610336Y-89226872D01*
X105456148Y-89171703D01*
X105308109Y-89101686D01*
X105167647Y-89017496D01*
X105036113Y-88919943D01*
X104914774Y-88809968D01*
X104804798Y-88688629D01*
X104707246Y-88557095D01*
X104623056Y-88416633D01*
X104553039Y-88268594D01*
X104497870Y-88114406D01*
X104458079Y-87955553D01*
X104434050Y-87793564D01*
X104426015Y-87630000D01*
X104434050Y-87466436D01*
X104458079Y-87304447D01*
X104487775Y-87185897D01*
X106607372Y-87185897D01*
X106647853Y-87307341D01*
X107290791Y-88638459D01*
X107370563Y-88726566D01*
X107483672Y-88759903D01*
X107595591Y-88728947D01*
X107674172Y-88636078D01*
X107696064Y-88590834D01*
X108429028Y-88590834D01*
X108440935Y-88689656D01*
X108481416Y-88740853D01*
X108602860Y-88762284D01*
X109926835Y-88762284D01*
X110038753Y-88744425D01*
X110086378Y-88688466D01*
X110098285Y-88588453D01*
X110086378Y-88489631D01*
X110045897Y-88438434D01*
X109924453Y-88417003D01*
X109469635Y-88417003D01*
X109469635Y-88062197D01*
X110229253Y-88062197D01*
X110232825Y-88144350D01*
X110255447Y-88205072D01*
X110315574Y-88253292D01*
X110424516Y-88269366D01*
X110598347Y-88226503D01*
X110638828Y-88102678D01*
X110762058Y-88229480D01*
X110907910Y-88271747D01*
X111056076Y-88248728D01*
X111176726Y-88179672D01*
X111269860Y-88064578D01*
X111332963Y-88139588D01*
X111450835Y-88225313D01*
X111617522Y-88271747D01*
X111792544Y-88235135D01*
X111936610Y-88125300D01*
X112008047Y-88006370D01*
X112050910Y-87844842D01*
X112065197Y-87640716D01*
X112065197Y-87635953D01*
X112219978Y-87635953D01*
X112241542Y-87822617D01*
X112306232Y-87982557D01*
X112414050Y-88115775D01*
X112554147Y-88215655D01*
X112715675Y-88275583D01*
X112898635Y-88295559D01*
X113053118Y-88280974D01*
X113185575Y-88237219D01*
X113296006Y-88164293D01*
X113384410Y-88062197D01*
X113445131Y-87932716D01*
X113465372Y-87791925D01*
X113447215Y-87664528D01*
X113444310Y-87659766D01*
X113584435Y-87659766D01*
X113603749Y-87815076D01*
X113661693Y-87957157D01*
X113758266Y-88086009D01*
X113877857Y-88187874D01*
X114004857Y-88248993D01*
X114139266Y-88269366D01*
X114286903Y-88239600D01*
X114378581Y-88184831D01*
X114417872Y-88138397D01*
X114466688Y-88239600D01*
X114601228Y-88274128D01*
X114736960Y-88259841D01*
X114797681Y-88211025D01*
X114819113Y-88150303D01*
X114822685Y-88069341D01*
X114822685Y-87644288D01*
X114977466Y-87644288D01*
X114997177Y-87803302D01*
X115056312Y-87948558D01*
X115154869Y-88080056D01*
X115276974Y-88183905D01*
X115406752Y-88246215D01*
X115544203Y-88266984D01*
X115691841Y-88238409D01*
X115784710Y-88184831D01*
X115827572Y-88136016D01*
X115881746Y-88236028D01*
X116015691Y-88269366D01*
X116153803Y-88255078D01*
X116216906Y-88205072D01*
X116238338Y-88141969D01*
X116241910Y-88059816D01*
X116241910Y-87533559D01*
X116396691Y-87533559D01*
X116455031Y-87637144D01*
X116630053Y-87671672D01*
X116756260Y-87647859D01*
X116827697Y-87524034D01*
X116958666Y-87409734D01*
X117058678Y-87395447D01*
X117168216Y-87408246D01*
X117244416Y-87446644D01*
X117303947Y-87562134D01*
X117245606Y-87675244D01*
X117107494Y-87724059D01*
X116999147Y-87728822D01*
X116937235Y-87752634D01*
X116889014Y-87813952D01*
X116872941Y-87935991D01*
X116894967Y-88068745D01*
X116961047Y-88133634D01*
X117084872Y-88145541D01*
X117220603Y-88168758D01*
X117265847Y-88238409D01*
X117218222Y-88333659D01*
X117086063Y-88378903D01*
X116951522Y-88350328D01*
X116889610Y-88293178D01*
X116875322Y-88264603D01*
X116808647Y-88175306D01*
X116718160Y-88145541D01*
X116587191Y-88188403D01*
X116497894Y-88262817D01*
X116468128Y-88347947D01*
X116522897Y-88509872D01*
X116575285Y-88584881D01*
X116674106Y-88678941D01*
X116831269Y-88752759D01*
X116938128Y-88777763D01*
X117056297Y-88786097D01*
X117237801Y-88767576D01*
X117391789Y-88712014D01*
X117518260Y-88619409D01*
X117612187Y-88503654D01*
X117668543Y-88378639D01*
X117687328Y-88244363D01*
X117671152Y-88145541D01*
X117844491Y-88145541D01*
X117864202Y-88304952D01*
X117923337Y-88452986D01*
X118021894Y-88589644D01*
X118152334Y-88698784D01*
X118307115Y-88764269D01*
X118486238Y-88786097D01*
X118665493Y-88764004D01*
X118820671Y-88697726D01*
X118951772Y-88587263D01*
X119050991Y-88448489D01*
X119110522Y-88297279D01*
X119130366Y-88133634D01*
X119122321Y-88062197D01*
X119330391Y-88062197D01*
X119333963Y-88145541D01*
X119354203Y-88207453D01*
X119417306Y-88255673D01*
X119539941Y-88271747D01*
X119672100Y-88249125D01*
X119735203Y-88181259D01*
X119749491Y-88059816D01*
X119749491Y-87643097D01*
X119805450Y-87490697D01*
X119955469Y-87435928D01*
X120107869Y-87493078D01*
X120166210Y-87643097D01*
X120166210Y-88064578D01*
X120169781Y-88146731D01*
X120192403Y-88209834D01*
X120253721Y-88256269D01*
X120375760Y-88271747D01*
X120496608Y-88255673D01*
X120559116Y-88207453D01*
X120579356Y-88144350D01*
X120582928Y-88062197D01*
X120582928Y-87712153D01*
X120713897Y-87712153D01*
X120721041Y-87807403D01*
X120918685Y-88605122D01*
X120943688Y-88688466D01*
X120986550Y-88743234D01*
X121068703Y-88769428D01*
X121178241Y-88752759D01*
X121303256Y-88692038D01*
X121344928Y-88600359D01*
X121328260Y-88500347D01*
X121325878Y-88493203D01*
X121180622Y-87912178D01*
X121568766Y-87912178D01*
X121568766Y-88562259D01*
X121572338Y-88643222D01*
X121594960Y-88702753D01*
X121660444Y-88749188D01*
X121781888Y-88762284D01*
X121902141Y-88746806D01*
X121966435Y-88696800D01*
X121989056Y-88633697D01*
X121992628Y-88550353D01*
X121992628Y-87226378D01*
X121970006Y-87089456D01*
X121900950Y-87031116D01*
X121785460Y-87016828D01*
X121675922Y-87028734D01*
X121614010Y-87057309D01*
X121583053Y-87104934D01*
X121568766Y-87228759D01*
X121568766Y-87519272D01*
X120923447Y-87519272D01*
X120790692Y-87541894D01*
X120725803Y-87609759D01*
X120713897Y-87712153D01*
X120582928Y-87712153D01*
X120582928Y-87219234D01*
X120579356Y-87139462D01*
X120556735Y-87078741D01*
X120493036Y-87032306D01*
X120373378Y-87016828D01*
X120256102Y-87031116D01*
X120194785Y-87073978D01*
X120170972Y-87171609D01*
X120128110Y-87123984D01*
X120063816Y-87071597D01*
X119887603Y-87019209D01*
X119736394Y-87039450D01*
X119603441Y-87100172D01*
X119488744Y-87201375D01*
X119400770Y-87331682D01*
X119347986Y-87479717D01*
X119330391Y-87645478D01*
X119330391Y-88062197D01*
X119122321Y-88062197D01*
X119115483Y-88001475D01*
X119070835Y-87876459D01*
X119005350Y-87766922D01*
X118927960Y-87681197D01*
X118761272Y-87549633D01*
X118613635Y-87469266D01*
X118554103Y-87445453D01*
X118554103Y-87433547D01*
X118989872Y-87433547D01*
X119129175Y-87410925D01*
X119185135Y-87341869D01*
X119199422Y-87220425D01*
X119183944Y-87100172D01*
X119132747Y-87038259D01*
X118985110Y-87009684D01*
X118054041Y-87009684D01*
X117906403Y-87073978D01*
X117844491Y-87223997D01*
X117866815Y-87347524D01*
X117933788Y-87460931D01*
X118032312Y-87561539D01*
X118149291Y-87646669D01*
X118275497Y-87723464D01*
X118401703Y-87799069D01*
X118518682Y-87879138D01*
X118617206Y-87969328D01*
X118684179Y-88067555D01*
X118706503Y-88171734D01*
X118689835Y-88232456D01*
X118652925Y-88296750D01*
X118589822Y-88343184D01*
X118470760Y-88364616D01*
X118338600Y-88308656D01*
X118275497Y-88197928D01*
X118265972Y-88143159D01*
X118265972Y-88128872D01*
X118262400Y-88050291D01*
X118239778Y-87990759D01*
X118175485Y-87947897D01*
X118054041Y-87933609D01*
X117921286Y-87956231D01*
X117856397Y-88024097D01*
X117844491Y-88145541D01*
X117671152Y-88145541D01*
X117666691Y-88118289D01*
X117604778Y-88017879D01*
X117501591Y-87943134D01*
X117501591Y-87926466D01*
X117571838Y-87875269D01*
X117646847Y-87797878D01*
X117705783Y-87690722D01*
X117725428Y-87569278D01*
X117704262Y-87409337D01*
X117640762Y-87269241D01*
X117534928Y-87148987D01*
X117397080Y-87057045D01*
X117237537Y-87001879D01*
X117056297Y-86983491D01*
X116876380Y-87002011D01*
X116717630Y-87057574D01*
X116580047Y-87150178D01*
X116512777Y-87224592D01*
X116453841Y-87319247D01*
X116427647Y-87381159D01*
X116422885Y-87404972D01*
X116396691Y-87533559D01*
X116241910Y-87533559D01*
X116241910Y-87226378D01*
X116238338Y-87144225D01*
X116218097Y-87081122D01*
X116160649Y-87034687D01*
X116054981Y-87019209D01*
X115881150Y-87051356D01*
X115829953Y-87145416D01*
X115712379Y-87050761D01*
X115535869Y-87019209D01*
X115401857Y-87040111D01*
X115274461Y-87102818D01*
X115153678Y-87207328D01*
X115055782Y-87339487D01*
X114997045Y-87485141D01*
X114977466Y-87644288D01*
X114822685Y-87644288D01*
X114822685Y-87083503D01*
X114801518Y-86912715D01*
X114738018Y-86765474D01*
X114632185Y-86641781D01*
X114499893Y-86548516D01*
X114357018Y-86492556D01*
X114203560Y-86473903D01*
X114026752Y-86495930D01*
X113858278Y-86562009D01*
X113735049Y-86645948D01*
X113693972Y-86721553D01*
X113765410Y-86885859D01*
X113835656Y-86954916D01*
X113893997Y-86973966D01*
X113963053Y-86945391D01*
X114082116Y-86879311D01*
X114210703Y-86857284D01*
X114358341Y-86928722D01*
X114415491Y-87100172D01*
X114415491Y-87171609D01*
X114298214Y-87082312D01*
X114127360Y-87052547D01*
X113998375Y-87072787D01*
X113874947Y-87133509D01*
X113757075Y-87234712D01*
X113661164Y-87362903D01*
X113603617Y-87504587D01*
X113584435Y-87659766D01*
X113444310Y-87659766D01*
X113392744Y-87575231D01*
X113232010Y-87504984D01*
X112667653Y-87504984D01*
X112746235Y-87393066D01*
X112903397Y-87347822D01*
X113026627Y-87354966D01*
X113120091Y-87376397D01*
X113146285Y-87385922D01*
X113241535Y-87412116D01*
X113372503Y-87304959D01*
X113403460Y-87195422D01*
X113371759Y-87102702D01*
X113276658Y-87036473D01*
X113118156Y-86996736D01*
X112896253Y-86983491D01*
X112729863Y-86998671D01*
X112583119Y-87044212D01*
X112461378Y-87114757D01*
X112369997Y-87204947D01*
X112286653Y-87338561D01*
X112236647Y-87482230D01*
X112219978Y-87635953D01*
X112065197Y-87635953D01*
X112065197Y-87223997D01*
X112061625Y-87141844D01*
X112039003Y-87078741D01*
X111977686Y-87030520D01*
X111855647Y-87014447D01*
X111734799Y-87031116D01*
X111672291Y-87081122D01*
X111652050Y-87144225D01*
X111648478Y-87226378D01*
X111648478Y-87643097D01*
X111611569Y-87798473D01*
X111500841Y-87850266D01*
X111387731Y-87795497D01*
X111357966Y-87640716D01*
X111357966Y-87223997D01*
X111354394Y-87140653D01*
X111331772Y-87078741D01*
X111268669Y-87030520D01*
X111146035Y-87014447D01*
X111025186Y-87031116D01*
X110962678Y-87081122D01*
X110942438Y-87144225D01*
X110938866Y-87226378D01*
X110938866Y-87643097D01*
X110901956Y-87798473D01*
X110791228Y-87850266D01*
X110684072Y-87798473D01*
X110648353Y-87643097D01*
X110648353Y-87221616D01*
X110644781Y-87139462D01*
X110622160Y-87076359D01*
X110557866Y-87029925D01*
X110436422Y-87014447D01*
X110315574Y-87030520D01*
X110253066Y-87078741D01*
X110232825Y-87140653D01*
X110229253Y-87223997D01*
X110229253Y-88062197D01*
X109469635Y-88062197D01*
X109469635Y-87219234D01*
X109466063Y-87138272D01*
X109444631Y-87077550D01*
X109381528Y-87028734D01*
X109262466Y-87014447D01*
X109144594Y-87028734D01*
X109082681Y-87077550D01*
X109061250Y-87139462D01*
X109057678Y-87221616D01*
X109057678Y-88417003D01*
X108600478Y-88417003D01*
X108488560Y-88434863D01*
X108440935Y-88490822D01*
X108429028Y-88590834D01*
X107696064Y-88590834D01*
X108317110Y-87307341D01*
X108357591Y-87185897D01*
X108323063Y-87104339D01*
X108219478Y-87031116D01*
X108092081Y-86990634D01*
X108015881Y-87012066D01*
X107973019Y-87057309D01*
X107936110Y-87128747D01*
X107812285Y-87385922D01*
X107152678Y-87385922D01*
X107028853Y-87128747D01*
X106991944Y-87059691D01*
X106949081Y-87015637D01*
X106872881Y-86993016D01*
X106745485Y-87033497D01*
X106641900Y-87104934D01*
X106607372Y-87185897D01*
X104487775Y-87185897D01*
X104497870Y-87145594D01*
X104553039Y-86991406D01*
X104623056Y-86843367D01*
X104707246Y-86702905D01*
X104804798Y-86571371D01*
X104914774Y-86450032D01*
X105036113Y-86340057D01*
X105167647Y-86242504D01*
X105308109Y-86158314D01*
X105456148Y-86088297D01*
X105610336Y-86033128D01*
X105769189Y-85993337D01*
X105931178Y-85969308D01*
X106094742Y-85961273D01*
X122505259Y-85961273D01*
X122668822Y-85969308D01*
X122830811Y-85993337D01*
X122989664Y-86033128D01*
X123143853Y-86088297D01*
X123291891Y-86158314D01*
X123432353Y-86242504D01*
X123563888Y-86340057D01*
X123685227Y-86450032D01*
X123795202Y-86571371D01*
X123892754Y-86702905D01*
X123976944Y-86843368D01*
X124046961Y-86991406D01*
X124102130Y-87145594D01*
X124141921Y-87304448D01*
X124165950Y-87466436D01*
X124173985Y-87630000D01*
X124165950Y-87793564D01*
X124141921Y-87955552D01*
X124102130Y-88114406D01*
X124046961Y-88268594D01*
X123976944Y-88416632D01*
X123892754Y-88557095D01*
X123795202Y-88688629D01*
X123685227Y-88809968D01*
X123563888Y-88919943D01*
X123432353Y-89017496D01*
X123291891Y-89101686D01*
X123143853Y-89171703D01*
X122989664Y-89226872D01*
X122830811Y-89266663D01*
X122668822Y-89290692D01*
X122505259Y-89298727D01*
X106094742Y-89298727D01*
X105931178Y-89290692D01*
G37*
G36*
X107481291Y-88064578D02*
G01*
X107324128Y-87738347D01*
X107640835Y-87738347D01*
X107481291Y-88064578D01*
G37*
%TO.C,kibuzzard-63FC1FF3*%
G36*
X103131144Y-94600117D02*
G01*
X103166069Y-94615198D01*
X103202581Y-94716798D01*
X103175991Y-94808476D01*
X103096219Y-94839036D01*
X103027956Y-94811254D01*
X102996206Y-94722354D01*
X103025575Y-94628692D01*
X103085106Y-94596148D01*
X103131144Y-94600117D01*
G37*
G36*
X101764439Y-97762682D02*
G01*
X101764439Y-94950161D01*
X102278656Y-94950161D01*
X102293737Y-95038267D01*
X102338981Y-95075573D01*
X102415181Y-95085098D01*
X102488206Y-95077161D01*
X102529481Y-95058111D01*
X102550119Y-95026361D01*
X102559644Y-94934286D01*
X102581869Y-94808079D01*
X102635844Y-94712036D01*
X102697756Y-94655679D01*
X102753319Y-94626311D01*
X102775544Y-94618373D01*
X102748556Y-94735848D01*
X102760110Y-94835596D01*
X102794770Y-94925290D01*
X102852537Y-95004929D01*
X102924769Y-95067107D01*
X103002821Y-95104413D01*
X103086694Y-95116848D01*
X103187765Y-95104060D01*
X103277194Y-95065695D01*
X103354981Y-95001754D01*
X103414953Y-94919645D01*
X103450937Y-94826777D01*
X103462931Y-94723148D01*
X103448203Y-94596854D01*
X103404017Y-94493137D01*
X103330375Y-94411998D01*
X103233449Y-94353790D01*
X103119414Y-94318865D01*
X102988269Y-94307223D01*
X102870984Y-94314113D01*
X102761701Y-94334782D01*
X102660418Y-94369231D01*
X102567137Y-94417459D01*
X102481856Y-94479467D01*
X102408704Y-94553413D01*
X102351808Y-94637455D01*
X102311168Y-94731594D01*
X102286784Y-94835829D01*
X102278656Y-94950161D01*
X101764439Y-94950161D01*
X101764439Y-93354723D01*
X102277069Y-93354723D01*
X102278656Y-93648411D01*
X102289025Y-93760032D01*
X102320130Y-93864708D01*
X102371971Y-93962438D01*
X102444550Y-94053223D01*
X102532259Y-94129622D01*
X102629494Y-94184192D01*
X102736253Y-94216934D01*
X102852537Y-94227848D01*
X102969268Y-94217182D01*
X103077367Y-94185184D01*
X103176834Y-94131854D01*
X103267669Y-94057192D01*
X103343373Y-93967349D01*
X103397447Y-93868478D01*
X103429891Y-93760577D01*
X103440706Y-93643648D01*
X103440706Y-93353136D01*
X103430784Y-93274554D01*
X103401019Y-93232486D01*
X103299419Y-93213436D01*
X102416769Y-93213436D01*
X102361206Y-93215817D01*
X102319931Y-93230898D01*
X102287784Y-93272967D01*
X102277069Y-93354723D01*
X101764439Y-93354723D01*
X101764439Y-92870536D01*
X102842219Y-92870536D01*
X102870794Y-92951498D01*
X102919609Y-93007458D01*
X102964456Y-93026111D01*
X103014463Y-93010236D01*
X103050975Y-92988011D01*
X103088281Y-92957848D01*
X103135906Y-92905461D01*
X103173213Y-92828467D01*
X103189881Y-92722104D01*
X103165275Y-92617329D01*
X103115269Y-92539542D01*
X103089869Y-92490329D01*
X103096219Y-92459373D01*
X103115269Y-92438736D01*
X103172419Y-92391309D01*
X103191469Y-92347454D01*
X103144638Y-92249823D01*
X103067644Y-92194261D01*
X103004938Y-92217279D01*
X102941438Y-92264111D01*
X102896194Y-92316498D01*
X102855712Y-92399842D01*
X102842219Y-92497473D01*
X102857300Y-92585579D01*
X102889844Y-92646698D01*
X102939056Y-92724486D01*
X102921594Y-92776873D01*
X102915244Y-92781636D01*
X102842219Y-92870536D01*
X101764439Y-92870536D01*
X101764439Y-91681630D01*
X103975561Y-91681630D01*
X103975561Y-97762682D01*
X101764439Y-97762682D01*
G37*
G36*
X103159719Y-93648411D02*
G01*
X103138486Y-93757154D01*
X103074788Y-93854786D01*
X102978942Y-93923842D01*
X102861269Y-93946861D01*
X102743198Y-93924437D01*
X102646162Y-93857167D01*
X102581273Y-93759734D01*
X102559644Y-93646823D01*
X102559644Y-93494423D01*
X103159719Y-93494423D01*
X103159719Y-93648411D01*
G37*
%TO.C,kibuzzard-63FC1D99*%
G36*
X129381911Y-77414768D02*
G01*
X129381911Y-84427682D01*
X127158089Y-84427682D01*
X127158089Y-83746777D01*
X127670719Y-83746777D01*
X127725487Y-83851552D01*
X127820737Y-83915052D01*
X127916781Y-83867427D01*
X127974923Y-83815039D01*
X128042987Y-83749952D01*
X128120973Y-83672164D01*
X128208881Y-83581677D01*
X128269206Y-83518177D01*
X128378645Y-83630790D01*
X128473597Y-83725742D01*
X128554063Y-83803034D01*
X128620044Y-83862664D01*
X128719263Y-83915052D01*
X128814513Y-83851552D01*
X128869281Y-83747570D01*
X128802606Y-83649939D01*
X128404144Y-83300689D01*
X128713706Y-83300689D01*
X128769269Y-83298308D01*
X128810544Y-83283227D01*
X128842691Y-83241158D01*
X128853406Y-83159402D01*
X128838325Y-83071295D01*
X128793081Y-83029227D01*
X128712119Y-83019702D01*
X127829469Y-83019702D01*
X127774700Y-83022083D01*
X127732631Y-83037164D01*
X127700484Y-83079233D01*
X127689769Y-83160989D01*
X127704453Y-83249492D01*
X127748506Y-83292752D01*
X127831056Y-83300689D01*
X128134269Y-83300689D01*
X128040606Y-83383747D01*
X127953929Y-83460201D01*
X127874236Y-83530051D01*
X127801529Y-83593297D01*
X127735806Y-83649939D01*
X127670719Y-83746777D01*
X127158089Y-83746777D01*
X127158089Y-82229127D01*
X127689769Y-82229127D01*
X127704453Y-82317630D01*
X127748506Y-82360889D01*
X127831056Y-82368827D01*
X128618456Y-82368827D01*
X128618456Y-82800627D01*
X128630363Y-82876827D01*
X128667669Y-82908577D01*
X128735138Y-82916514D01*
X128802606Y-82908577D01*
X128837531Y-82881589D01*
X128853406Y-82799039D01*
X128853406Y-82227539D01*
X128838325Y-82139433D01*
X128793081Y-82097364D01*
X128712119Y-82087839D01*
X127829469Y-82087839D01*
X127774700Y-82090220D01*
X127732631Y-82105302D01*
X127700484Y-82147370D01*
X127689769Y-82229127D01*
X127158089Y-82229127D01*
X127158089Y-81592539D01*
X127678656Y-81592539D01*
X127684411Y-81667747D01*
X127701675Y-81744145D01*
X127748506Y-81860827D01*
X127770731Y-81898927D01*
X127799306Y-81943377D01*
X127874712Y-81984652D01*
X127962819Y-81951314D01*
X128027112Y-81892577D01*
X128048544Y-81840189D01*
X128013619Y-81759227D01*
X127973137Y-81681439D01*
X127959644Y-81581427D01*
X127977503Y-81479033D01*
X128031081Y-81378227D01*
X128129506Y-81298852D01*
X128197173Y-81275039D01*
X128273175Y-81267102D01*
X128349177Y-81275039D01*
X128416844Y-81298852D01*
X128516856Y-81379814D01*
X128569244Y-81478636D01*
X128586706Y-81581427D01*
X128574006Y-81674295D01*
X128548606Y-81737002D01*
X128527969Y-81765577D01*
X128496219Y-81841777D01*
X128518444Y-81892973D01*
X128585119Y-81948139D01*
X128674019Y-81983064D01*
X128729581Y-81961633D01*
X128769269Y-81911627D01*
X128802606Y-81856858D01*
X128843881Y-81749702D01*
X128862931Y-81670128D01*
X128869281Y-81593333D01*
X128864320Y-81517530D01*
X128849438Y-81440933D01*
X128822847Y-81362748D01*
X128782763Y-81282183D01*
X128730772Y-81204594D01*
X128668463Y-81135339D01*
X128591469Y-81076006D01*
X128495425Y-81028183D01*
X128385292Y-80996631D01*
X128266031Y-80986114D01*
X128147961Y-80996433D01*
X128041400Y-81027389D01*
X127949325Y-81074419D01*
X127874712Y-81132958D01*
X127814189Y-81201816D01*
X127764381Y-81279802D01*
X127716756Y-81383695D01*
X127688181Y-81487940D01*
X127678656Y-81592539D01*
X127158089Y-81592539D01*
X127158089Y-80468589D01*
X127670719Y-80468589D01*
X127676870Y-80559672D01*
X127695325Y-80642420D01*
X127745331Y-80751164D01*
X127775494Y-80790852D01*
X127853281Y-80840064D01*
X127940594Y-80801964D01*
X128000125Y-80747195D01*
X128019969Y-80690839D01*
X127988219Y-80608289D01*
X127972344Y-80590033D01*
X127951706Y-80565427D01*
X127931069Y-80480495D01*
X127955675Y-80394770D01*
X128023937Y-80360639D01*
X128094581Y-80401120D01*
X128131094Y-80501927D01*
X128143198Y-80565030D01*
X128160462Y-80633689D01*
X128182489Y-80702348D01*
X128208881Y-80765452D01*
X128247973Y-80820816D01*
X128308100Y-80866258D01*
X128386880Y-80896619D01*
X128481931Y-80906739D01*
X128578967Y-80896420D01*
X128663700Y-80865464D01*
X128733352Y-80817839D01*
X128785144Y-80757514D01*
X128831887Y-80669849D01*
X128859933Y-80578303D01*
X128869281Y-80482877D01*
X128864717Y-80410248D01*
X128851025Y-80341589D01*
X128805781Y-80233639D01*
X128755775Y-80162202D01*
X128707356Y-80116164D01*
X128689894Y-80101877D01*
X128598613Y-80060602D01*
X128551583Y-80077667D01*
X128491456Y-80128864D01*
X128453356Y-80213002D01*
X128473200Y-80266183D01*
X128532731Y-80336827D01*
X128584325Y-80400327D01*
X128608931Y-80476527D01*
X128595526Y-80558547D01*
X128555309Y-80607760D01*
X128488281Y-80624164D01*
X128427163Y-80583683D01*
X128391444Y-80482877D01*
X128376958Y-80420170D01*
X128355725Y-80352702D01*
X128328936Y-80285233D01*
X128297781Y-80222527D01*
X128254720Y-80167162D01*
X128192212Y-80121720D01*
X128112639Y-80091359D01*
X128018381Y-80081239D01*
X127929217Y-80092793D01*
X127847990Y-80127453D01*
X127774700Y-80185220D01*
X127716933Y-80262920D01*
X127682272Y-80357376D01*
X127670719Y-80468589D01*
X127158089Y-80468589D01*
X127158089Y-77414768D01*
X129381911Y-77414768D01*
G37*
%TO.C,kibuzzard-63FC11E2*%
G36*
X102970806Y-82776814D02*
G01*
X102753319Y-82670452D01*
X102970806Y-82565677D01*
X102970806Y-82776814D01*
G37*
G36*
X103170831Y-81444902D02*
G01*
X103149598Y-81553645D01*
X103085900Y-81651277D01*
X102990055Y-81720333D01*
X102872381Y-81743352D01*
X102754311Y-81720928D01*
X102657275Y-81653658D01*
X102592386Y-81556225D01*
X102570756Y-81443314D01*
X102570756Y-81290914D01*
X103170831Y-81290914D01*
X103170831Y-81444902D01*
G37*
G36*
X103981911Y-77414768D02*
G01*
X103981911Y-83767282D01*
X101758089Y-83767282D01*
X101758089Y-82672039D01*
X102289769Y-82672039D01*
X102310406Y-82746652D01*
X102372319Y-82799039D01*
X103258144Y-83227664D01*
X103339106Y-83254652D01*
X103393478Y-83231633D01*
X103442294Y-83162577D01*
X103469281Y-83077645D01*
X103454994Y-83026845D01*
X103424831Y-82998270D01*
X103377206Y-82973664D01*
X103205756Y-82891114D01*
X103205756Y-82451377D01*
X103377206Y-82368827D01*
X103423244Y-82344220D01*
X103452613Y-82315645D01*
X103467694Y-82264845D01*
X103440706Y-82179914D01*
X103393081Y-82110858D01*
X103339106Y-82087839D01*
X103258144Y-82114827D01*
X102370731Y-82543452D01*
X102311994Y-82596633D01*
X102289769Y-82672039D01*
X101758089Y-82672039D01*
X101758089Y-81151214D01*
X102288181Y-81151214D01*
X102289769Y-81444902D01*
X102300137Y-81556523D01*
X102331242Y-81661198D01*
X102383084Y-81758929D01*
X102455662Y-81849714D01*
X102543372Y-81926113D01*
X102640606Y-81980683D01*
X102747366Y-82013425D01*
X102863650Y-82024339D01*
X102980381Y-82013673D01*
X103088480Y-81981675D01*
X103187946Y-81928345D01*
X103278781Y-81853683D01*
X103354485Y-81763840D01*
X103408559Y-81664969D01*
X103441004Y-81557068D01*
X103451819Y-81440139D01*
X103451819Y-81149627D01*
X103441897Y-81071045D01*
X103412131Y-81028977D01*
X103310531Y-81009927D01*
X102427881Y-81009927D01*
X102372319Y-81012308D01*
X102331044Y-81027389D01*
X102298897Y-81069458D01*
X102288181Y-81151214D01*
X101758089Y-81151214D01*
X101758089Y-80468589D01*
X102270719Y-80468589D01*
X102276870Y-80559672D01*
X102295325Y-80642420D01*
X102345331Y-80751164D01*
X102375494Y-80790852D01*
X102453281Y-80840064D01*
X102540594Y-80801964D01*
X102600125Y-80747195D01*
X102619969Y-80690839D01*
X102588219Y-80608289D01*
X102572344Y-80590033D01*
X102551706Y-80565427D01*
X102531069Y-80480495D01*
X102555675Y-80394770D01*
X102623937Y-80360639D01*
X102694581Y-80401120D01*
X102731094Y-80501927D01*
X102743198Y-80565030D01*
X102760462Y-80633689D01*
X102782489Y-80702348D01*
X102808881Y-80765452D01*
X102847973Y-80820816D01*
X102908100Y-80866258D01*
X102986880Y-80896619D01*
X103081931Y-80906739D01*
X103178967Y-80896420D01*
X103263700Y-80865464D01*
X103333352Y-80817839D01*
X103385144Y-80757514D01*
X103431887Y-80669849D01*
X103459933Y-80578303D01*
X103469281Y-80482877D01*
X103464717Y-80410248D01*
X103451025Y-80341589D01*
X103405781Y-80233639D01*
X103355775Y-80162202D01*
X103307356Y-80116164D01*
X103289894Y-80101877D01*
X103198613Y-80060602D01*
X103151583Y-80077667D01*
X103091456Y-80128864D01*
X103053356Y-80213002D01*
X103073200Y-80266183D01*
X103132731Y-80336827D01*
X103184325Y-80400327D01*
X103208931Y-80476527D01*
X103195526Y-80558547D01*
X103155309Y-80607760D01*
X103088281Y-80624164D01*
X103027163Y-80583683D01*
X102991444Y-80482877D01*
X102976958Y-80420170D01*
X102955725Y-80352702D01*
X102928936Y-80285233D01*
X102897781Y-80222527D01*
X102854720Y-80167162D01*
X102792212Y-80121720D01*
X102712639Y-80091359D01*
X102618381Y-80081239D01*
X102529217Y-80092793D01*
X102447990Y-80127453D01*
X102374700Y-80185220D01*
X102316933Y-80262920D01*
X102282272Y-80357376D01*
X102270719Y-80468589D01*
X101758089Y-80468589D01*
X101758089Y-77414768D01*
X103981911Y-77414768D01*
G37*
%TO.C,kibuzzard-63FC1DA9*%
G36*
X109048418Y-77414768D02*
G01*
X109048418Y-84191144D01*
X106851582Y-84191144D01*
X106851582Y-83297514D01*
X107372150Y-83297514D01*
X107383439Y-83389589D01*
X107417306Y-83471080D01*
X107473750Y-83541989D01*
X107547128Y-83599315D01*
X107629678Y-83633711D01*
X107721400Y-83645176D01*
X107821809Y-83630095D01*
X107913487Y-83584851D01*
X107990569Y-83636886D01*
X108073649Y-83668107D01*
X108162725Y-83678514D01*
X108262826Y-83665020D01*
X108351461Y-83628772D01*
X108428631Y-83569770D01*
X108488163Y-83494364D01*
X108523881Y-83408903D01*
X108535788Y-83313389D01*
X108535788Y-82895876D01*
X108520706Y-82807770D01*
X108475463Y-82765701D01*
X108392913Y-82756176D01*
X107511850Y-82756176D01*
X107456287Y-82758558D01*
X107415012Y-82773639D01*
X107382866Y-82815708D01*
X107372150Y-82897464D01*
X107372150Y-83297514D01*
X106851582Y-83297514D01*
X106851582Y-82487889D01*
X107364212Y-82487889D01*
X107380087Y-82562501D01*
X107424537Y-82642273D01*
X107481687Y-82668864D01*
X107559475Y-82649814D01*
X108440538Y-82345014D01*
X108467525Y-82333901D01*
X108509594Y-82291833D01*
X108535788Y-82210870D01*
X108509594Y-82129908D01*
X108458000Y-82084664D01*
X107910312Y-81898926D01*
X108098146Y-81835363D01*
X108245085Y-81785642D01*
X108351130Y-81749765D01*
X108416281Y-81727730D01*
X108440538Y-81719539D01*
X108467525Y-81705251D01*
X108499275Y-81679851D01*
X108535788Y-81592539D01*
X108511975Y-81509195D01*
X108464350Y-81465539D01*
X108440538Y-81454426D01*
X107559475Y-81148039D01*
X107481687Y-81130576D01*
X107424934Y-81157167D01*
X107381675Y-81236939D01*
X107365800Y-81320283D01*
X107391200Y-81377433D01*
X107468987Y-81413151D01*
X107999213Y-81587776D01*
X107476925Y-81760814D01*
X107420569Y-81792167D01*
X107384850Y-81841776D01*
X107373737Y-81907658D01*
X107399931Y-81983064D01*
X107451525Y-82027514D01*
X108002388Y-82210076D01*
X107468987Y-82384701D01*
X107415012Y-82405339D01*
X107380881Y-82434708D01*
X107364212Y-82487889D01*
X106851582Y-82487889D01*
X106851582Y-80898801D01*
X107373737Y-80898801D01*
X107381675Y-80971826D01*
X107400725Y-81013101D01*
X107432475Y-81035326D01*
X107515025Y-81043264D01*
X108396088Y-81043264D01*
X108450856Y-81040883D01*
X108492925Y-81025801D01*
X108525072Y-80983733D01*
X108535788Y-80901976D01*
X108521103Y-80813870D01*
X108477050Y-80771801D01*
X108394500Y-80762276D01*
X108072238Y-80762276D01*
X108072238Y-80341589D01*
X108396088Y-80341589D01*
X108450856Y-80339208D01*
X108492925Y-80324126D01*
X108525072Y-80282058D01*
X108535788Y-80200301D01*
X108521103Y-80112195D01*
X108477050Y-80070126D01*
X108394500Y-80060601D01*
X107513437Y-80060601D01*
X107458669Y-80062983D01*
X107416600Y-80078064D01*
X107384453Y-80120133D01*
X107373737Y-80201889D01*
X107388422Y-80290392D01*
X107432475Y-80333651D01*
X107515025Y-80341589D01*
X107838875Y-80341589D01*
X107838875Y-80762276D01*
X107513437Y-80762276D01*
X107458669Y-80764658D01*
X107416600Y-80779739D01*
X107383262Y-80822601D01*
X107373737Y-80898801D01*
X106851582Y-80898801D01*
X106851582Y-77414768D01*
X109048418Y-77414768D01*
G37*
G36*
X108254800Y-83297514D02*
G01*
X108227813Y-83372523D01*
X108146850Y-83397526D01*
X108086525Y-83388795D01*
X108054775Y-83359426D01*
X108042075Y-83270526D01*
X108019850Y-83184801D01*
X107928569Y-83156226D01*
X107837287Y-83185595D01*
X107815062Y-83283226D01*
X107781725Y-83359426D01*
X107724575Y-83364189D01*
X107669012Y-83337995D01*
X107653137Y-83259414D01*
X107653137Y-83037164D01*
X108254800Y-83037164D01*
X108254800Y-83297514D01*
G37*
%TO.C,kibuzzard-63FC11F1*%
G36*
X126843499Y-77414768D02*
G01*
X126843499Y-84391170D01*
X124616501Y-84391170D01*
X124616501Y-83738839D01*
X125148181Y-83738839D01*
X125162866Y-83827342D01*
X125206919Y-83870602D01*
X125289469Y-83878539D01*
X126172119Y-83878539D01*
X126227681Y-83876158D01*
X126268956Y-83861077D01*
X126301103Y-83819008D01*
X126311819Y-83737252D01*
X126296738Y-83649146D01*
X126251494Y-83607077D01*
X126170531Y-83597552D01*
X125287881Y-83597552D01*
X125233112Y-83599933D01*
X125191044Y-83615014D01*
X125158897Y-83657083D01*
X125148181Y-83738839D01*
X124616501Y-83738839D01*
X124616501Y-83056214D01*
X125129131Y-83056214D01*
X125135283Y-83147297D01*
X125153737Y-83230046D01*
X125203744Y-83338789D01*
X125233906Y-83378477D01*
X125311694Y-83427689D01*
X125399006Y-83389589D01*
X125458537Y-83334821D01*
X125478381Y-83278464D01*
X125446631Y-83195914D01*
X125430756Y-83177658D01*
X125410119Y-83153052D01*
X125389481Y-83068121D01*
X125414087Y-82982396D01*
X125482350Y-82948264D01*
X125552994Y-82988746D01*
X125589506Y-83089552D01*
X125601611Y-83152655D01*
X125618875Y-83221314D01*
X125640902Y-83289974D01*
X125667294Y-83353077D01*
X125706386Y-83408441D01*
X125766513Y-83453883D01*
X125845292Y-83484244D01*
X125940344Y-83494364D01*
X126037380Y-83484046D01*
X126122113Y-83453089D01*
X126191764Y-83405464D01*
X126243556Y-83345139D01*
X126290299Y-83257474D01*
X126318345Y-83165928D01*
X126327694Y-83070502D01*
X126323130Y-82997874D01*
X126309438Y-82929214D01*
X126264194Y-82821264D01*
X126214188Y-82749827D01*
X126165769Y-82703789D01*
X126148306Y-82689502D01*
X126057025Y-82648227D01*
X126009995Y-82665292D01*
X125949869Y-82716489D01*
X125911769Y-82800627D01*
X125931613Y-82853808D01*
X125991144Y-82924452D01*
X126042738Y-82987952D01*
X126067344Y-83064152D01*
X126053938Y-83146173D01*
X126013722Y-83195385D01*
X125946694Y-83211789D01*
X125885575Y-83171308D01*
X125849856Y-83070502D01*
X125835370Y-83007796D01*
X125814138Y-82940327D01*
X125787348Y-82872858D01*
X125756194Y-82810152D01*
X125713133Y-82754788D01*
X125650625Y-82709346D01*
X125571052Y-82678985D01*
X125476794Y-82668864D01*
X125387629Y-82680418D01*
X125306402Y-82715078D01*
X125233112Y-82772846D01*
X125175345Y-82850545D01*
X125140685Y-82945001D01*
X125129131Y-83056214D01*
X124616501Y-83056214D01*
X124616501Y-81987827D01*
X125133894Y-81987827D01*
X125144510Y-82101432D01*
X125176359Y-82207299D01*
X125229441Y-82305426D01*
X125303756Y-82395814D01*
X125393797Y-82471518D01*
X125494058Y-82525592D01*
X125604538Y-82558037D01*
X125725237Y-82568852D01*
X125846384Y-82558533D01*
X125958203Y-82527577D01*
X126060696Y-82475983D01*
X126153863Y-82403752D01*
X126231303Y-82316439D01*
X126286617Y-82219602D01*
X126319806Y-82113239D01*
X126330869Y-81997352D01*
X126319955Y-81881216D01*
X126287213Y-81774110D01*
X126232642Y-81676032D01*
X126156244Y-81586983D01*
X126064764Y-81513015D01*
X125964950Y-81460182D01*
X125856802Y-81428481D01*
X125740319Y-81417914D01*
X125612723Y-81429821D01*
X125493462Y-81465539D01*
X125387695Y-81521102D01*
X125300581Y-81592539D01*
X125231128Y-81677867D01*
X125178344Y-81775102D01*
X125145006Y-81879877D01*
X125133894Y-81987827D01*
X124616501Y-81987827D01*
X124616501Y-81174233D01*
X125149769Y-81174233D01*
X125160484Y-81255394D01*
X125192631Y-81297264D01*
X125235494Y-81312346D01*
X125291056Y-81314727D01*
X126172119Y-81314727D01*
X126259034Y-81299646D01*
X126300706Y-81254402D01*
X126310231Y-81178202D01*
X126302294Y-81105177D01*
X126283244Y-81063902D01*
X126251494Y-81041677D01*
X126168944Y-81033739D01*
X125637131Y-81033739D01*
X125700830Y-80984924D01*
X125793500Y-80917852D01*
X125880614Y-80855542D01*
X125927644Y-80821014D01*
X125964950Y-80792439D01*
X125993525Y-80753546D01*
X126011781Y-80686871D01*
X125995113Y-80621783D01*
X125962569Y-80579714D01*
X125945106Y-80567014D01*
X125882995Y-80519786D01*
X125776038Y-80441602D01*
X125676620Y-80369371D01*
X125637131Y-80340002D01*
X126172119Y-80340002D01*
X126226888Y-80337621D01*
X126267369Y-80322539D01*
X126299516Y-80279677D01*
X126310231Y-80198714D01*
X126299516Y-80120133D01*
X126267369Y-80078064D01*
X126226094Y-80062983D01*
X126168944Y-80060602D01*
X125287881Y-80060602D01*
X125233112Y-80062983D01*
X125191044Y-80078064D01*
X125160087Y-80120927D01*
X125149769Y-80201889D01*
X125160087Y-80275708D01*
X125181519Y-80316189D01*
X125191044Y-80325714D01*
X125664119Y-80686077D01*
X125530959Y-80786851D01*
X125417231Y-80873275D01*
X125322933Y-80945347D01*
X125248067Y-81003069D01*
X125192631Y-81046439D01*
X125160484Y-81091882D01*
X125149769Y-81174233D01*
X124616501Y-81174233D01*
X124616501Y-77414768D01*
X126843499Y-77414768D01*
G37*
G36*
X125820664Y-81709044D02*
G01*
X125897128Y-81739471D01*
X125961775Y-81790183D01*
X126027855Y-81886822D01*
X126049881Y-81994177D01*
X126028450Y-82101333D01*
X125964156Y-82197377D01*
X125900480Y-82247648D01*
X125823751Y-82277810D01*
X125733969Y-82287864D01*
X125644010Y-82277722D01*
X125566752Y-82247295D01*
X125502194Y-82196583D01*
X125436709Y-82099944D01*
X125414881Y-81992589D01*
X125436908Y-81885433D01*
X125502987Y-81789389D01*
X125567634Y-81739118D01*
X125644099Y-81708956D01*
X125732381Y-81698902D01*
X125820664Y-81709044D01*
G37*
%TO.C,kibuzzard-63FC1FFB*%
G36*
X100619719Y-93696036D02*
G01*
X100598486Y-93804780D01*
X100534788Y-93902411D01*
X100438942Y-93971467D01*
X100321269Y-93994486D01*
X100203198Y-93972063D01*
X100106162Y-93904792D01*
X100041273Y-93807360D01*
X100019644Y-93694449D01*
X100019644Y-93542049D01*
X100619719Y-93542049D01*
X100619719Y-93696036D01*
G37*
G36*
X99222851Y-97762682D02*
G01*
X99222851Y-94562811D01*
X99735481Y-94562811D01*
X99737069Y-94804111D01*
X99737069Y-94953336D01*
X99739450Y-95008899D01*
X99754531Y-95050174D01*
X99797394Y-95082321D01*
X99881531Y-95093036D01*
X99958128Y-95083114D01*
X99997419Y-95053349D01*
X100012500Y-95014455D01*
X100014881Y-94962861D01*
X100014881Y-94685049D01*
X100135531Y-94669174D01*
X100132356Y-94724736D01*
X100144968Y-94821926D01*
X100182803Y-94912414D01*
X100245862Y-94996199D01*
X100327178Y-95063226D01*
X100419782Y-95103443D01*
X100523675Y-95116849D01*
X100628097Y-95104149D01*
X100722289Y-95066049D01*
X100806250Y-95002549D01*
X100871955Y-94920175D01*
X100911378Y-94825454D01*
X100924519Y-94718386D01*
X100916228Y-94623136D01*
X100891358Y-94534236D01*
X100849906Y-94451686D01*
X100819744Y-94411999D01*
X100808631Y-94399299D01*
X100713381Y-94338974D01*
X100610194Y-94397711D01*
X100557806Y-94489786D01*
X100608606Y-94596149D01*
X100641944Y-94695367D01*
X100611781Y-94800142D01*
X100528438Y-94834274D01*
X100444300Y-94796967D01*
X100413344Y-94712036D01*
X100441919Y-94635836D01*
X100478431Y-94549317D01*
X100448269Y-94449305D01*
X100399850Y-94375486D01*
X100360956Y-94358024D01*
X100286741Y-94365961D01*
X100105369Y-94389774D01*
X99926775Y-94413983D01*
X99860894Y-94423111D01*
X99827556Y-94434224D01*
X99784694Y-94457242D01*
X99750562Y-94498517D01*
X99735481Y-94562811D01*
X99222851Y-94562811D01*
X99222851Y-93402349D01*
X99737069Y-93402349D01*
X99738656Y-93696036D01*
X99749025Y-93807657D01*
X99780130Y-93912333D01*
X99831971Y-94010064D01*
X99904550Y-94100849D01*
X99992259Y-94177247D01*
X100089494Y-94231817D01*
X100196253Y-94264560D01*
X100312537Y-94275474D01*
X100429268Y-94264808D01*
X100537367Y-94232810D01*
X100636834Y-94179480D01*
X100727669Y-94104817D01*
X100803373Y-94014975D01*
X100857447Y-93916103D01*
X100889891Y-93808203D01*
X100900706Y-93691274D01*
X100900706Y-93400761D01*
X100890784Y-93322180D01*
X100861019Y-93280111D01*
X100759419Y-93261061D01*
X99876769Y-93261061D01*
X99821206Y-93263442D01*
X99779931Y-93278524D01*
X99747784Y-93320592D01*
X99737069Y-93402349D01*
X99222851Y-93402349D01*
X99222851Y-92918161D01*
X100302219Y-92918161D01*
X100330794Y-92999124D01*
X100379609Y-93055083D01*
X100424456Y-93073736D01*
X100474463Y-93057861D01*
X100510975Y-93035636D01*
X100548281Y-93005474D01*
X100595906Y-92953086D01*
X100633213Y-92876092D01*
X100649881Y-92769730D01*
X100625275Y-92664955D01*
X100575269Y-92587167D01*
X100549869Y-92537955D01*
X100556219Y-92506999D01*
X100575269Y-92486361D01*
X100632419Y-92438935D01*
X100651469Y-92395080D01*
X100604638Y-92297449D01*
X100527644Y-92241886D01*
X100464938Y-92264905D01*
X100401438Y-92311736D01*
X100356194Y-92364124D01*
X100315712Y-92447467D01*
X100302219Y-92545099D01*
X100317300Y-92633205D01*
X100349844Y-92694324D01*
X100399056Y-92772111D01*
X100381594Y-92824499D01*
X100375244Y-92829261D01*
X100302219Y-92918161D01*
X99222851Y-92918161D01*
X99222851Y-91729256D01*
X101437149Y-91729256D01*
X101437149Y-97762682D01*
X99222851Y-97762682D01*
G37*
%TO.C,J4*%
X96460000Y-77410000D02*
X96460000Y-78740000D01*
X97790000Y-77410000D02*
X96460000Y-77410000D01*
X99060000Y-77410000D02*
X99060000Y-80070000D01*
X99060000Y-80070000D02*
X132140000Y-80070000D01*
X132140000Y-77410000D02*
X132140000Y-80070000D01*
X99060000Y-77410000D02*
X132140000Y-77410000D01*
%TO.C,kibuzzard-63FC1DF3*%
G36*
X131101306Y-85033445D02*
G01*
X131136231Y-85048526D01*
X131172744Y-85150126D01*
X131146153Y-85241804D01*
X131066381Y-85272364D01*
X130998119Y-85244582D01*
X130966369Y-85155682D01*
X130995738Y-85062020D01*
X131055269Y-85029476D01*
X131101306Y-85033445D01*
G37*
G36*
X131947311Y-77414768D02*
G01*
X131947311Y-88539306D01*
X129672689Y-88539306D01*
X129672689Y-87839351D01*
X130239294Y-87839351D01*
X130266281Y-87933014D01*
X130314700Y-88003260D01*
X130367881Y-88026676D01*
X130444081Y-88002864D01*
X131333081Y-87564714D01*
X131389438Y-87511532D01*
X131410869Y-87437714D01*
X131410869Y-87421839D01*
X131389438Y-87346432D01*
X131333081Y-87293251D01*
X130444081Y-86855101D01*
X130367881Y-86831289D01*
X130314700Y-86854704D01*
X130266281Y-86924951D01*
X130239294Y-87005120D01*
X130245644Y-87047189D01*
X130267869Y-87074176D01*
X130309938Y-87100370D01*
X130354387Y-87121603D01*
X130441700Y-87161489D01*
X130553817Y-87212487D01*
X130672681Y-87267057D01*
X130791545Y-87321826D01*
X130903663Y-87373420D01*
X130988395Y-87412512D01*
X131025106Y-87429776D01*
X130329781Y-87747276D01*
X130282156Y-87769501D01*
X130239294Y-87839351D01*
X129672689Y-87839351D01*
X129672689Y-86213751D01*
X130245644Y-86213751D01*
X130247231Y-86455051D01*
X130247231Y-86604276D01*
X130249612Y-86659839D01*
X130264694Y-86701114D01*
X130307556Y-86733260D01*
X130391694Y-86743976D01*
X130468291Y-86734054D01*
X130507581Y-86704289D01*
X130522662Y-86665395D01*
X130525044Y-86613801D01*
X130525044Y-86335989D01*
X130645694Y-86320114D01*
X130642519Y-86375676D01*
X130655131Y-86472866D01*
X130692966Y-86563354D01*
X130756025Y-86647139D01*
X130837340Y-86714166D01*
X130929944Y-86754383D01*
X131033838Y-86767789D01*
X131138260Y-86755089D01*
X131232451Y-86716989D01*
X131316413Y-86653489D01*
X131382117Y-86571115D01*
X131421540Y-86476394D01*
X131434681Y-86369326D01*
X131426391Y-86274076D01*
X131401520Y-86185176D01*
X131360069Y-86102626D01*
X131329906Y-86062939D01*
X131318794Y-86050239D01*
X131223544Y-85989914D01*
X131120356Y-86048651D01*
X131067969Y-86140726D01*
X131118769Y-86247089D01*
X131152106Y-86346307D01*
X131121944Y-86451082D01*
X131038600Y-86485214D01*
X130954463Y-86447907D01*
X130923506Y-86362976D01*
X130952081Y-86286776D01*
X130988594Y-86200257D01*
X130958431Y-86100245D01*
X130910013Y-86026426D01*
X130871119Y-86008964D01*
X130796903Y-86016901D01*
X130615531Y-86040714D01*
X130436937Y-86064923D01*
X130371056Y-86074051D01*
X130337719Y-86085164D01*
X130294856Y-86108182D01*
X130260725Y-86149457D01*
X130245644Y-86213751D01*
X129672689Y-86213751D01*
X129672689Y-85766870D01*
X131117181Y-85766870D01*
X131125516Y-85848031D01*
X131150519Y-85899426D01*
X131261644Y-85926414D01*
X131267994Y-85926414D01*
X131324350Y-85924032D01*
X131368006Y-85907364D01*
X131402534Y-85865493D01*
X131414044Y-85787507D01*
X131406503Y-85707735D01*
X131383881Y-85660507D01*
X131269581Y-85629551D01*
X131263231Y-85629551D01*
X131207669Y-85631932D01*
X131164806Y-85647014D01*
X131129088Y-85688884D01*
X131117181Y-85766870D01*
X129672689Y-85766870D01*
X129672689Y-85383489D01*
X130248819Y-85383489D01*
X130263900Y-85471595D01*
X130309144Y-85508901D01*
X130385344Y-85518426D01*
X130458369Y-85510489D01*
X130499644Y-85491439D01*
X130520281Y-85459689D01*
X130529806Y-85367614D01*
X130552031Y-85241407D01*
X130606006Y-85145364D01*
X130667919Y-85089007D01*
X130723481Y-85059639D01*
X130745706Y-85051701D01*
X130718719Y-85169176D01*
X130730272Y-85268924D01*
X130764933Y-85358618D01*
X130822700Y-85438257D01*
X130894931Y-85500434D01*
X130972983Y-85537741D01*
X131056856Y-85550176D01*
X131157927Y-85537388D01*
X131247356Y-85499023D01*
X131325144Y-85435082D01*
X131385116Y-85352973D01*
X131421099Y-85260105D01*
X131433094Y-85156476D01*
X131418365Y-85030182D01*
X131374180Y-84926465D01*
X131300538Y-84845326D01*
X131203612Y-84787118D01*
X131089576Y-84752193D01*
X130958431Y-84740551D01*
X130841147Y-84747441D01*
X130731863Y-84768110D01*
X130630581Y-84802559D01*
X130537299Y-84850787D01*
X130452019Y-84912795D01*
X130378867Y-84986741D01*
X130321971Y-85070783D01*
X130281331Y-85164922D01*
X130256947Y-85269157D01*
X130248819Y-85383489D01*
X129672689Y-85383489D01*
X129672689Y-84546876D01*
X130940969Y-84546876D01*
X130954066Y-84617520D01*
X130993356Y-84651651D01*
X131066381Y-84661176D01*
X131138613Y-84652445D01*
X131177506Y-84624664D01*
X131191794Y-84545289D01*
X131191794Y-84167464D01*
X131178300Y-84096423D01*
X131137819Y-84061101D01*
X131064794Y-84053164D01*
X130993356Y-84062689D01*
X130955256Y-84092851D01*
X130940969Y-84169051D01*
X130940969Y-84546876D01*
X129672689Y-84546876D01*
X129672689Y-83527701D01*
X130231356Y-83527701D01*
X130243703Y-83648704D01*
X130280745Y-83751362D01*
X130342481Y-83835676D01*
X130419651Y-83898294D01*
X130502995Y-83935865D01*
X130592512Y-83948389D01*
X130676562Y-83934630D01*
X130743501Y-83893355D01*
X130793331Y-83824564D01*
X130804444Y-83824564D01*
X130838575Y-83871395D01*
X130890169Y-83921401D01*
X130961606Y-83960692D01*
X131042569Y-83973789D01*
X131149196Y-83959677D01*
X131242594Y-83917344D01*
X131322763Y-83846789D01*
X131384058Y-83754890D01*
X131420835Y-83648527D01*
X131433094Y-83527701D01*
X131420747Y-83407757D01*
X131383705Y-83301923D01*
X131321969Y-83210201D01*
X131272359Y-83165354D01*
X131209256Y-83126064D01*
X131167981Y-83108601D01*
X131152106Y-83105426D01*
X131066381Y-83087964D01*
X130997325Y-83126857D01*
X130974306Y-83243539D01*
X130990181Y-83327676D01*
X131072731Y-83375301D01*
X131148931Y-83462614D01*
X131158456Y-83529289D01*
X131149923Y-83602314D01*
X131124325Y-83653114D01*
X131047331Y-83692801D01*
X130971925Y-83653907D01*
X130939381Y-83561832D01*
X130936206Y-83489601D01*
X130920331Y-83448326D01*
X130879453Y-83416179D01*
X130798094Y-83405464D01*
X130709591Y-83420148D01*
X130666331Y-83464201D01*
X130658394Y-83546751D01*
X130642916Y-83637239D01*
X130596481Y-83667401D01*
X130532981Y-83635651D01*
X130502819Y-83547545D01*
X130521869Y-83457851D01*
X130559969Y-83416576D01*
X130579019Y-83407051D01*
X130638550Y-83362601D01*
X130658394Y-83302276D01*
X130629819Y-83214964D01*
X130580209Y-83155432D01*
X130523456Y-83135589D01*
X130415506Y-83172101D01*
X130365500Y-83207026D01*
X130302794Y-83272907D01*
X130253581Y-83377682D01*
X130236912Y-83448921D01*
X130231356Y-83527701D01*
X129672689Y-83527701D01*
X129672689Y-82213251D01*
X130575844Y-82213251D01*
X130589337Y-82313175D01*
X130629819Y-82401282D01*
X130697287Y-82477570D01*
X130784159Y-82536219D01*
X130882849Y-82571409D01*
X130993356Y-82583139D01*
X131272756Y-82583139D01*
X131327525Y-82580757D01*
X131368006Y-82567264D01*
X131400153Y-82525195D01*
X131410869Y-82443439D01*
X131396184Y-82354539D01*
X131352131Y-82313264D01*
X131271169Y-82303739D01*
X130991769Y-82303739D01*
X130890169Y-82266432D01*
X130853656Y-82166420D01*
X130891756Y-82064820D01*
X130991769Y-82025926D01*
X131272756Y-82025926D01*
X131327525Y-82023545D01*
X131368006Y-82008464D01*
X131400153Y-81967585D01*
X131410869Y-81886226D01*
X131400153Y-81805660D01*
X131368006Y-81763989D01*
X131325938Y-81750495D01*
X131271169Y-81748114D01*
X130709194Y-81748114D01*
X130656012Y-81750495D01*
X130615531Y-81765576D01*
X130585766Y-81807248D01*
X130575844Y-81887814D01*
X130584972Y-81965998D01*
X130612356Y-82006876D01*
X130677444Y-82022751D01*
X130645694Y-82051326D01*
X130612356Y-82094189D01*
X130575844Y-82213251D01*
X129672689Y-82213251D01*
X129672689Y-81483001D01*
X130185319Y-81483001D01*
X130196034Y-81563170D01*
X130228181Y-81603651D01*
X130270250Y-81618732D01*
X130325019Y-81621114D01*
X130379787Y-81618732D01*
X130421062Y-81604445D01*
X130453606Y-81562376D01*
X130463037Y-81483001D01*
X130577431Y-81483001D01*
X130604419Y-81590951D01*
X130672681Y-81619526D01*
X130718719Y-81621114D01*
X131274344Y-81621114D01*
X131329113Y-81618732D01*
X131371181Y-81603651D01*
X131402138Y-81562773D01*
X131412456Y-81481414D01*
X131401741Y-81400848D01*
X131369594Y-81359176D01*
X131328319Y-81345682D01*
X131272756Y-81343301D01*
X130715544Y-81343301D01*
X130660775Y-81345682D01*
X130618706Y-81359176D01*
X130587750Y-81401245D01*
X130577431Y-81483001D01*
X130463037Y-81483001D01*
X130463131Y-81482207D01*
X130453606Y-81402039D01*
X130420269Y-81359970D01*
X130378200Y-81345682D01*
X130323431Y-81343301D01*
X130268662Y-81345682D01*
X130228181Y-81359176D01*
X130196034Y-81401245D01*
X130185319Y-81483001D01*
X129672689Y-81483001D01*
X129672689Y-81068664D01*
X130239294Y-81068664D01*
X130266281Y-81162326D01*
X130314700Y-81232573D01*
X130367881Y-81255989D01*
X130444081Y-81232176D01*
X131333081Y-80794026D01*
X131389438Y-80740845D01*
X131410869Y-80667026D01*
X131410869Y-80651151D01*
X131389438Y-80575745D01*
X131333081Y-80522564D01*
X130444081Y-80084414D01*
X130367881Y-80060601D01*
X130314700Y-80084017D01*
X130266281Y-80154264D01*
X130239294Y-80234432D01*
X130245644Y-80276501D01*
X130267869Y-80303489D01*
X130309938Y-80329682D01*
X130354387Y-80350915D01*
X130441700Y-80390801D01*
X130553817Y-80441799D01*
X130672681Y-80496370D01*
X130791545Y-80551139D01*
X130903663Y-80602732D01*
X130988395Y-80641824D01*
X131025106Y-80659089D01*
X130329781Y-80976589D01*
X130282156Y-80998814D01*
X130239294Y-81068664D01*
X129672689Y-81068664D01*
X129672689Y-77414768D01*
X131947311Y-77414768D01*
G37*
%TO.C,kibuzzard-63FC1F7A*%
G36*
X131917149Y-92611906D02*
G01*
X131917149Y-97762682D01*
X129702851Y-97762682D01*
X129702851Y-94562811D01*
X130215481Y-94562811D01*
X130217069Y-94804111D01*
X130217069Y-94953336D01*
X130219450Y-95008899D01*
X130234531Y-95050174D01*
X130277394Y-95082321D01*
X130361531Y-95093036D01*
X130438128Y-95083114D01*
X130477419Y-95053349D01*
X130492500Y-95014455D01*
X130494881Y-94962861D01*
X130494881Y-94685049D01*
X130615531Y-94669174D01*
X130612356Y-94724736D01*
X130624968Y-94821926D01*
X130662803Y-94912414D01*
X130725862Y-94996199D01*
X130807178Y-95063226D01*
X130899782Y-95103443D01*
X131003675Y-95116849D01*
X131108097Y-95104149D01*
X131202289Y-95066049D01*
X131286250Y-95002549D01*
X131351955Y-94920175D01*
X131391378Y-94825454D01*
X131404519Y-94718386D01*
X131396228Y-94623136D01*
X131371358Y-94534236D01*
X131329906Y-94451686D01*
X131299744Y-94411999D01*
X131288631Y-94399299D01*
X131193381Y-94338974D01*
X131090194Y-94397711D01*
X131037806Y-94489786D01*
X131088606Y-94596149D01*
X131121944Y-94695367D01*
X131091781Y-94800142D01*
X131008438Y-94834274D01*
X130924300Y-94796967D01*
X130893344Y-94712036D01*
X130921919Y-94635836D01*
X130958431Y-94549317D01*
X130928269Y-94449305D01*
X130879850Y-94375486D01*
X130840956Y-94358024D01*
X130766741Y-94365961D01*
X130585369Y-94389774D01*
X130406775Y-94413983D01*
X130340894Y-94423111D01*
X130307556Y-94434224D01*
X130264694Y-94457242D01*
X130230562Y-94498517D01*
X130215481Y-94562811D01*
X129702851Y-94562811D01*
X129702851Y-93708736D01*
X130218656Y-93708736D01*
X130239294Y-93783349D01*
X130301206Y-93835736D01*
X131187031Y-94264361D01*
X131267994Y-94291349D01*
X131322366Y-94268330D01*
X131371181Y-94199274D01*
X131398169Y-94114342D01*
X131383881Y-94063542D01*
X131353719Y-94034967D01*
X131306094Y-94010361D01*
X131134644Y-93927811D01*
X131134644Y-93488074D01*
X131306094Y-93405524D01*
X131352131Y-93380917D01*
X131381500Y-93352342D01*
X131396581Y-93301542D01*
X131369594Y-93216611D01*
X131321969Y-93147555D01*
X131267994Y-93124536D01*
X131187031Y-93151524D01*
X130299619Y-93580149D01*
X130240881Y-93633330D01*
X130218656Y-93708736D01*
X129702851Y-93708736D01*
X129702851Y-92611906D01*
X131917149Y-92611906D01*
G37*
G36*
X130899694Y-93813511D02*
G01*
X130682206Y-93707149D01*
X130899694Y-93602374D01*
X130899694Y-93813511D01*
G37*
%TO.C,kibuzzard-63FC1EBD*%
G36*
X119214768Y-77414768D02*
G01*
X119214768Y-84235594D01*
X117005232Y-84235594D01*
X117005232Y-83247508D01*
X117517862Y-83247508D01*
X117532591Y-83367011D01*
X117576776Y-83470463D01*
X117650419Y-83557864D01*
X117742935Y-83624010D01*
X117843741Y-83663697D01*
X117952837Y-83676926D01*
X118040944Y-83667004D01*
X118124288Y-83637239D01*
X118197313Y-83593583D01*
X118254463Y-83541989D01*
X118342172Y-83430864D01*
X118395750Y-83332439D01*
X118411625Y-83292751D01*
X118419563Y-83292751D01*
X118419563Y-83583264D01*
X118434644Y-83676133D01*
X118480681Y-83713439D01*
X118561644Y-83722964D01*
X118641813Y-83712645D01*
X118683088Y-83678514D01*
X118702138Y-83580089D01*
X118702138Y-82959376D01*
X118659275Y-82860951D01*
X118559263Y-82819676D01*
X118476911Y-82834559D01*
X118401306Y-82879208D01*
X118334234Y-82944890D01*
X118277481Y-83022876D01*
X118226284Y-83107014D01*
X118175881Y-83191151D01*
X118122502Y-83269137D01*
X118062375Y-83334820D01*
X117996891Y-83379469D01*
X117927437Y-83394351D01*
X117886956Y-83383239D01*
X117844094Y-83358633D01*
X117813137Y-83316564D01*
X117798850Y-83237189D01*
X117836156Y-83149083D01*
X117909975Y-83107014D01*
X117946487Y-83100664D01*
X117956012Y-83100664D01*
X118008400Y-83098283D01*
X118048087Y-83083201D01*
X118076662Y-83040339D01*
X118086187Y-82959376D01*
X118071106Y-82870873D01*
X118025862Y-82827614D01*
X117944900Y-82819676D01*
X117838626Y-82832817D01*
X117739936Y-82872240D01*
X117648831Y-82937945D01*
X117576071Y-83024905D01*
X117532415Y-83128092D01*
X117517862Y-83247508D01*
X117005232Y-83247508D01*
X117005232Y-82569645D01*
X117533737Y-82569645D01*
X117541675Y-82645051D01*
X117559931Y-82686326D01*
X117594062Y-82708551D01*
X117678200Y-82716489D01*
X118562438Y-82716489D01*
X118617206Y-82714108D01*
X118659275Y-82699026D01*
X118691422Y-82656958D01*
X118702138Y-82575201D01*
X118691819Y-82495429D01*
X118660863Y-82452964D01*
X118617206Y-82437883D01*
X118559263Y-82435501D01*
X117992525Y-82435501D01*
X118011575Y-82414864D01*
X118060787Y-82303739D01*
X118005225Y-82207695D01*
X117906800Y-82157689D01*
X117813137Y-82214839D01*
X117578187Y-82475189D01*
X117575012Y-82479951D01*
X117533737Y-82569645D01*
X117005232Y-82569645D01*
X117005232Y-81221064D01*
X117533737Y-81221064D01*
X117535325Y-81514751D01*
X117545693Y-81626372D01*
X117576798Y-81731048D01*
X117628640Y-81828779D01*
X117701219Y-81919564D01*
X117788928Y-81995962D01*
X117886162Y-82050533D01*
X117992922Y-82083275D01*
X118109206Y-82094189D01*
X118225937Y-82083523D01*
X118334036Y-82051525D01*
X118433503Y-81998195D01*
X118524338Y-81923533D01*
X118600041Y-81833690D01*
X118654116Y-81734819D01*
X118686560Y-81626918D01*
X118697375Y-81509989D01*
X118697375Y-81219476D01*
X118687453Y-81140895D01*
X118657688Y-81098826D01*
X118556088Y-81079776D01*
X117673437Y-81079776D01*
X117617875Y-81082158D01*
X117576600Y-81097239D01*
X117544453Y-81139308D01*
X117533737Y-81221064D01*
X117005232Y-81221064D01*
X117005232Y-80736876D01*
X118098887Y-80736876D01*
X118127463Y-80817839D01*
X118176278Y-80873798D01*
X118221125Y-80892451D01*
X118271131Y-80876576D01*
X118307644Y-80854351D01*
X118344950Y-80824189D01*
X118392575Y-80771801D01*
X118429881Y-80694808D01*
X118446550Y-80588445D01*
X118421944Y-80483670D01*
X118371938Y-80405883D01*
X118346538Y-80356670D01*
X118352888Y-80325714D01*
X118371938Y-80305076D01*
X118429088Y-80257650D01*
X118448138Y-80213795D01*
X118401306Y-80116164D01*
X118324313Y-80060601D01*
X118261606Y-80083620D01*
X118198106Y-80130451D01*
X118152863Y-80182839D01*
X118112381Y-80266183D01*
X118098887Y-80363814D01*
X118113969Y-80451920D01*
X118146513Y-80513039D01*
X118195725Y-80590826D01*
X118178263Y-80643214D01*
X118171913Y-80647976D01*
X118098887Y-80736876D01*
X117005232Y-80736876D01*
X117005232Y-77414768D01*
X119214768Y-77414768D01*
G37*
G36*
X118416388Y-81514751D02*
G01*
X118395155Y-81623495D01*
X118331456Y-81721126D01*
X118235611Y-81790183D01*
X118117938Y-81813201D01*
X117999867Y-81790778D01*
X117902831Y-81723508D01*
X117837942Y-81626075D01*
X117816312Y-81513164D01*
X117816312Y-81360764D01*
X118416388Y-81360764D01*
X118416388Y-81514751D01*
G37*
%TO.C,kibuzzard-63FC1FD1*%
G36*
X111594768Y-91681630D02*
G01*
X111594768Y-97762682D01*
X109385232Y-97762682D01*
X109385232Y-94699336D01*
X109897862Y-94699336D01*
X109912591Y-94826512D01*
X109956776Y-94930758D01*
X110030419Y-95012073D01*
X110127344Y-95070282D01*
X110241380Y-95105207D01*
X110372525Y-95116848D01*
X110489809Y-95109990D01*
X110599093Y-95089416D01*
X110700376Y-95055126D01*
X110793657Y-95007120D01*
X110878938Y-94945398D01*
X110952090Y-94871802D01*
X111008986Y-94788172D01*
X111049626Y-94694510D01*
X111074010Y-94590814D01*
X111082138Y-94477086D01*
X111082138Y-94467561D01*
X111066263Y-94381836D01*
X111021416Y-94348498D01*
X110940850Y-94337386D01*
X110852744Y-94352467D01*
X110810675Y-94397711D01*
X110801150Y-94489786D01*
X110778925Y-94615992D01*
X110724950Y-94710448D01*
X110663038Y-94766408D01*
X110607475Y-94797761D01*
X110585250Y-94805698D01*
X110612238Y-94686636D01*
X110600684Y-94587770D01*
X110566024Y-94498605D01*
X110508256Y-94419142D01*
X110436025Y-94356965D01*
X110357973Y-94319659D01*
X110274100Y-94307223D01*
X110173029Y-94319923D01*
X110083600Y-94358023D01*
X110005812Y-94421523D01*
X109945840Y-94503191D01*
X109909857Y-94595795D01*
X109897862Y-94699336D01*
X109385232Y-94699336D01*
X109385232Y-93354723D01*
X109915325Y-93354723D01*
X109916912Y-93648411D01*
X109927281Y-93760032D01*
X109958386Y-93864708D01*
X110010228Y-93962438D01*
X110082806Y-94053223D01*
X110170516Y-94129622D01*
X110267750Y-94184192D01*
X110374509Y-94216934D01*
X110490794Y-94227848D01*
X110607525Y-94217182D01*
X110715623Y-94185184D01*
X110815090Y-94131854D01*
X110905925Y-94057192D01*
X110981629Y-93967349D01*
X111035703Y-93868478D01*
X111068148Y-93760577D01*
X111078963Y-93643648D01*
X111078963Y-93353136D01*
X111069041Y-93274554D01*
X111039275Y-93232486D01*
X110937675Y-93213436D01*
X110055025Y-93213436D01*
X109999462Y-93215817D01*
X109958187Y-93230898D01*
X109926041Y-93272967D01*
X109915325Y-93354723D01*
X109385232Y-93354723D01*
X109385232Y-92870536D01*
X110480475Y-92870536D01*
X110509050Y-92951498D01*
X110557866Y-93007458D01*
X110602713Y-93026111D01*
X110652719Y-93010236D01*
X110689231Y-92988011D01*
X110726538Y-92957848D01*
X110774163Y-92905461D01*
X110811469Y-92828467D01*
X110828138Y-92722104D01*
X110803531Y-92617329D01*
X110753525Y-92539542D01*
X110728125Y-92490329D01*
X110734475Y-92459373D01*
X110753525Y-92438736D01*
X110810675Y-92391309D01*
X110829725Y-92347454D01*
X110782894Y-92249823D01*
X110705900Y-92194261D01*
X110643194Y-92217279D01*
X110579694Y-92264111D01*
X110534450Y-92316498D01*
X110493969Y-92399842D01*
X110480475Y-92497473D01*
X110495556Y-92585579D01*
X110528100Y-92646698D01*
X110577313Y-92724486D01*
X110559850Y-92776873D01*
X110553500Y-92781636D01*
X110480475Y-92870536D01*
X109385232Y-92870536D01*
X109385232Y-91681630D01*
X111594768Y-91681630D01*
G37*
G36*
X110332837Y-94611229D02*
G01*
X110364587Y-94700923D01*
X110335219Y-94795379D01*
X110276481Y-94827923D01*
X110230444Y-94823954D01*
X110194725Y-94807286D01*
X110158212Y-94705686D01*
X110184803Y-94614008D01*
X110264575Y-94583448D01*
X110332837Y-94611229D01*
G37*
G36*
X110797975Y-93648411D02*
G01*
X110776742Y-93757154D01*
X110713044Y-93854786D01*
X110617198Y-93923842D01*
X110499525Y-93946861D01*
X110381455Y-93924437D01*
X110284419Y-93857167D01*
X110219530Y-93759734D01*
X110197900Y-93646823D01*
X110197900Y-93494423D01*
X110797975Y-93494423D01*
X110797975Y-93648411D01*
G37*
%TO.C,kibuzzard-63FC1FE1*%
G36*
X107762675Y-94617579D02*
G01*
X107791250Y-94696954D01*
X107762675Y-94774742D01*
X107702350Y-94800936D01*
X107642819Y-94773948D01*
X107615037Y-94693779D01*
X107642025Y-94615198D01*
X107701556Y-94589798D01*
X107762675Y-94617579D01*
G37*
G36*
X108248450Y-94589798D02*
G01*
X108286550Y-94696161D01*
X108248450Y-94800936D01*
X108166694Y-94835861D01*
X108084938Y-94800142D01*
X108046838Y-94695367D01*
X108084144Y-94589798D01*
X108165900Y-94553286D01*
X108248450Y-94589798D01*
G37*
G36*
X106832532Y-97762682D02*
G01*
X106832532Y-94697748D01*
X107345162Y-94697748D01*
X107356628Y-94796879D01*
X107391024Y-94886837D01*
X107448350Y-94967623D01*
X107523492Y-95031123D01*
X107611333Y-95069223D01*
X107711875Y-95081923D01*
X107808712Y-95058904D01*
X107883325Y-95012073D01*
X107908725Y-94988261D01*
X107941269Y-95023979D01*
X108027788Y-95081129D01*
X108093272Y-95107918D01*
X108159550Y-95116848D01*
X108270410Y-95102472D01*
X108365925Y-95059345D01*
X108446094Y-94987467D01*
X108506507Y-94897420D01*
X108542755Y-94799789D01*
X108554838Y-94694573D01*
X108542843Y-94589357D01*
X108506860Y-94491726D01*
X108446888Y-94401679D01*
X108366983Y-94329801D01*
X108271204Y-94286674D01*
X108159550Y-94272298D01*
X108093867Y-94280434D01*
X108030169Y-94304842D01*
X107938887Y-94369136D01*
X107908725Y-94402473D01*
X107883325Y-94375486D01*
X107814269Y-94333417D01*
X107703937Y-94307223D01*
X107606218Y-94320276D01*
X107520493Y-94359434D01*
X107446762Y-94424698D01*
X107390318Y-94507248D01*
X107356451Y-94598265D01*
X107345162Y-94697748D01*
X106832532Y-94697748D01*
X106832532Y-93319798D01*
X107367387Y-93319798D01*
X107368975Y-93613486D01*
X107379343Y-93725107D01*
X107410448Y-93829783D01*
X107462290Y-93927513D01*
X107534869Y-94018298D01*
X107622578Y-94094697D01*
X107719812Y-94149267D01*
X107826572Y-94182009D01*
X107942856Y-94192923D01*
X108059587Y-94182257D01*
X108167686Y-94150259D01*
X108267153Y-94096929D01*
X108357988Y-94022267D01*
X108433691Y-93932424D01*
X108487766Y-93833553D01*
X108520210Y-93725652D01*
X108531025Y-93608723D01*
X108531025Y-93318211D01*
X108521103Y-93239629D01*
X108491338Y-93197561D01*
X108389738Y-93178511D01*
X107507087Y-93178511D01*
X107451525Y-93180892D01*
X107410250Y-93195973D01*
X107378103Y-93238042D01*
X107367387Y-93319798D01*
X106832532Y-93319798D01*
X106832532Y-92665880D01*
X109067468Y-92665880D01*
X109067468Y-97762682D01*
X106832532Y-97762682D01*
G37*
G36*
X108250038Y-93613486D02*
G01*
X108228805Y-93722229D01*
X108165106Y-93819861D01*
X108069261Y-93888917D01*
X107951588Y-93911936D01*
X107833517Y-93889512D01*
X107736481Y-93822242D01*
X107671592Y-93724809D01*
X107649962Y-93611898D01*
X107649962Y-93459498D01*
X108250038Y-93459498D01*
X108250038Y-93613486D01*
G37*
%TO.C,kibuzzard-63FC1EB5*%
G36*
X115868450Y-81514752D02*
G01*
X115847217Y-81623495D01*
X115783519Y-81721127D01*
X115687673Y-81790183D01*
X115570000Y-81813202D01*
X115451930Y-81790778D01*
X115354894Y-81723508D01*
X115290005Y-81626075D01*
X115268375Y-81513164D01*
X115268375Y-81360764D01*
X115868450Y-81360764D01*
X115868450Y-81514752D01*
G37*
G36*
X116666830Y-77414768D02*
G01*
X116666830Y-83875232D01*
X114473170Y-83875232D01*
X114473170Y-83215758D01*
X114985800Y-83215758D01*
X114993737Y-83291164D01*
X115011994Y-83332439D01*
X115046125Y-83354664D01*
X115130262Y-83362602D01*
X116014500Y-83362602D01*
X116069269Y-83360220D01*
X116111338Y-83345139D01*
X116143484Y-83303070D01*
X116154200Y-83221314D01*
X116143881Y-83141542D01*
X116112925Y-83099077D01*
X116069269Y-83083995D01*
X116011325Y-83081614D01*
X115444587Y-83081614D01*
X115463637Y-83060977D01*
X115512850Y-82949852D01*
X115457287Y-82853808D01*
X115358862Y-82803802D01*
X115265200Y-82860952D01*
X115030250Y-83121302D01*
X115027075Y-83126064D01*
X114985800Y-83215758D01*
X114473170Y-83215758D01*
X114473170Y-82569645D01*
X114985800Y-82569645D01*
X114993737Y-82645052D01*
X115011994Y-82686327D01*
X115046125Y-82708552D01*
X115130262Y-82716489D01*
X116014500Y-82716489D01*
X116069269Y-82714108D01*
X116111338Y-82699027D01*
X116143484Y-82656958D01*
X116154200Y-82575202D01*
X116143881Y-82495430D01*
X116112925Y-82452964D01*
X116069269Y-82437883D01*
X116011325Y-82435502D01*
X115444587Y-82435502D01*
X115463637Y-82414864D01*
X115512850Y-82303739D01*
X115457287Y-82207695D01*
X115358862Y-82157689D01*
X115265200Y-82214839D01*
X115030250Y-82475189D01*
X115027075Y-82479952D01*
X114985800Y-82569645D01*
X114473170Y-82569645D01*
X114473170Y-81221064D01*
X114985800Y-81221064D01*
X114987387Y-81514752D01*
X114997756Y-81626373D01*
X115028861Y-81731048D01*
X115080703Y-81828779D01*
X115153281Y-81919564D01*
X115240991Y-81995963D01*
X115338225Y-82050533D01*
X115444984Y-82083275D01*
X115561269Y-82094189D01*
X115678000Y-82083523D01*
X115786098Y-82051525D01*
X115885565Y-81998195D01*
X115976400Y-81923533D01*
X116052104Y-81833690D01*
X116106178Y-81734819D01*
X116138623Y-81626918D01*
X116149438Y-81509989D01*
X116149438Y-81219477D01*
X116139516Y-81140895D01*
X116109750Y-81098827D01*
X116008150Y-81079777D01*
X115125500Y-81079777D01*
X115069938Y-81082158D01*
X115028662Y-81097239D01*
X114996516Y-81139308D01*
X114985800Y-81221064D01*
X114473170Y-81221064D01*
X114473170Y-80736877D01*
X115550950Y-80736877D01*
X115579525Y-80817839D01*
X115628341Y-80873798D01*
X115673188Y-80892452D01*
X115723194Y-80876577D01*
X115759706Y-80854352D01*
X115797013Y-80824189D01*
X115844638Y-80771802D01*
X115881944Y-80694808D01*
X115898613Y-80588445D01*
X115874006Y-80483670D01*
X115824000Y-80405883D01*
X115798600Y-80356670D01*
X115804950Y-80325714D01*
X115824000Y-80305077D01*
X115881150Y-80257650D01*
X115900200Y-80213795D01*
X115853369Y-80116164D01*
X115776375Y-80060602D01*
X115713669Y-80083620D01*
X115650169Y-80130452D01*
X115604925Y-80182839D01*
X115564444Y-80266183D01*
X115550950Y-80363814D01*
X115566031Y-80451920D01*
X115598575Y-80513039D01*
X115647788Y-80590827D01*
X115630325Y-80643214D01*
X115623975Y-80647977D01*
X115550950Y-80736877D01*
X114473170Y-80736877D01*
X114473170Y-77414768D01*
X116666830Y-77414768D01*
G37*
%TO.C,kibuzzard-63FC2005*%
G36*
X98886830Y-92673818D02*
G01*
X98886830Y-97762682D01*
X96693170Y-97762682D01*
X96693170Y-94500898D01*
X97205800Y-94500898D01*
X97216912Y-94573923D01*
X97257394Y-94657267D01*
X97318512Y-94685048D01*
X97385187Y-94673936D01*
X97389950Y-94672348D01*
X97777300Y-94575511D01*
X97777300Y-94834273D01*
X97343912Y-94834273D01*
X97289938Y-94836655D01*
X97250250Y-94851736D01*
X97219294Y-94895392D01*
X97210562Y-94976355D01*
X97220881Y-95056523D01*
X97254219Y-95099386D01*
X97296287Y-95114467D01*
X97351850Y-95116848D01*
X98234500Y-95116848D01*
X98325781Y-95101767D01*
X98364675Y-95055730D01*
X98374200Y-94978736D01*
X98366263Y-94905711D01*
X98347213Y-94864436D01*
X98315463Y-94843798D01*
X98232913Y-94834273D01*
X98039238Y-94834273D01*
X98039238Y-94404061D01*
X98024156Y-94315558D01*
X97978913Y-94272298D01*
X97910650Y-94264361D01*
X97847150Y-94269123D01*
X97315337Y-94400886D01*
X97259775Y-94417555D01*
X97223262Y-94446130D01*
X97205800Y-94500898D01*
X96693170Y-94500898D01*
X96693170Y-93327736D01*
X97210562Y-93327736D01*
X97212150Y-93621423D01*
X97222518Y-93733045D01*
X97253623Y-93837720D01*
X97305465Y-93935451D01*
X97378044Y-94026236D01*
X97465753Y-94102634D01*
X97562987Y-94157205D01*
X97669747Y-94189947D01*
X97786031Y-94200861D01*
X97902762Y-94190195D01*
X98010861Y-94158197D01*
X98110328Y-94104867D01*
X98201163Y-94030205D01*
X98276866Y-93940362D01*
X98330941Y-93841491D01*
X98363385Y-93733590D01*
X98374200Y-93616661D01*
X98374200Y-93326148D01*
X98364278Y-93247567D01*
X98334513Y-93205498D01*
X98232913Y-93186448D01*
X97350262Y-93186448D01*
X97294700Y-93188830D01*
X97253425Y-93203911D01*
X97221278Y-93245980D01*
X97210562Y-93327736D01*
X96693170Y-93327736D01*
X96693170Y-92673818D01*
X98886830Y-92673818D01*
G37*
G36*
X98093213Y-93621423D02*
G01*
X98071980Y-93730167D01*
X98008281Y-93827798D01*
X97912436Y-93896855D01*
X97794763Y-93919873D01*
X97676692Y-93897450D01*
X97579656Y-93830180D01*
X97514767Y-93732747D01*
X97493137Y-93619836D01*
X97493137Y-93467436D01*
X98093213Y-93467436D01*
X98093213Y-93621423D01*
G37*
%TO.C,kibuzzard-63FC11D2*%
G36*
X101447468Y-77414768D02*
G01*
X101447468Y-82663970D01*
X99212532Y-82663970D01*
X99212532Y-81987033D01*
X99725162Y-81987033D01*
X99780725Y-82089427D01*
X99879150Y-82151339D01*
X99979162Y-82097364D01*
X100330000Y-81778277D01*
X100680838Y-82097364D01*
X100782438Y-82151339D01*
X100879275Y-82090221D01*
X100934838Y-81987033D01*
X100871338Y-81889402D01*
X100525263Y-81587777D01*
X100871338Y-81286152D01*
X100934838Y-81188521D01*
X100878481Y-81085333D01*
X100782438Y-81022627D01*
X100680838Y-81078189D01*
X100330000Y-81397277D01*
X99979162Y-81078189D01*
X99879150Y-81022627D01*
X99781519Y-81084539D01*
X99725162Y-81188521D01*
X99788662Y-81286152D01*
X100134737Y-81587777D01*
X99788662Y-81889402D01*
X99725162Y-81987033D01*
X99212532Y-81987033D01*
X99212532Y-80544789D01*
X99755325Y-80544789D01*
X99766614Y-80637041D01*
X99800481Y-80727528D01*
X99856925Y-80816252D01*
X99914869Y-80874196D01*
X99990275Y-80921027D01*
X100079175Y-80951983D01*
X100177600Y-80962302D01*
X100290136Y-80949073D01*
X100388561Y-80909385D01*
X100472875Y-80843239D01*
X100537963Y-80870756D01*
X100621042Y-80906739D01*
X100722113Y-80951189D01*
X100804663Y-80975002D01*
X100860225Y-80950396D01*
X100906263Y-80876577D01*
X100928488Y-80794821D01*
X100913406Y-80744021D01*
X100882450Y-80714652D01*
X100837118Y-80693838D01*
X100741339Y-80652563D01*
X100595113Y-80590827D01*
X100598288Y-80541614D01*
X100598288Y-80341589D01*
X100777675Y-80341589D01*
X100832444Y-80339208D01*
X100874513Y-80324127D01*
X100906659Y-80282058D01*
X100917375Y-80200302D01*
X100902691Y-80112196D01*
X100858638Y-80070127D01*
X100776088Y-80060602D01*
X99895025Y-80060602D01*
X99840256Y-80062983D01*
X99798187Y-80078064D01*
X99766041Y-80120133D01*
X99755325Y-80201889D01*
X99755325Y-80544789D01*
X99212532Y-80544789D01*
X99212532Y-77414768D01*
X101447468Y-77414768D01*
G37*
G36*
X100317300Y-80544789D02*
G01*
X100282375Y-80636864D01*
X100177600Y-80682902D01*
X100072031Y-80636864D01*
X100036312Y-80541614D01*
X100036312Y-80341589D01*
X100317300Y-80341589D01*
X100317300Y-80544789D01*
G37*
%TO.C,kibuzzard-63FC1F6E*%
G36*
X125827631Y-93689686D02*
G01*
X125610144Y-93583323D01*
X125827631Y-93478548D01*
X125827631Y-93689686D01*
G37*
G36*
X126843499Y-92488080D02*
G01*
X126843499Y-97762682D01*
X124616501Y-97762682D01*
X124616501Y-94670761D01*
X125129131Y-94670761D01*
X125141478Y-94791763D01*
X125178520Y-94894422D01*
X125240256Y-94978736D01*
X125317426Y-95041354D01*
X125400770Y-95078925D01*
X125490287Y-95091448D01*
X125574337Y-95077690D01*
X125641276Y-95036415D01*
X125691106Y-94967623D01*
X125702219Y-94967623D01*
X125736350Y-95014454D01*
X125787944Y-95064461D01*
X125859381Y-95103751D01*
X125940344Y-95116848D01*
X126046971Y-95102737D01*
X126140369Y-95060404D01*
X126220538Y-94989848D01*
X126281833Y-94897950D01*
X126318610Y-94791587D01*
X126330869Y-94670761D01*
X126318522Y-94550816D01*
X126281480Y-94444983D01*
X126219744Y-94353261D01*
X126170134Y-94308414D01*
X126107031Y-94269123D01*
X126065756Y-94251661D01*
X126049881Y-94248486D01*
X125964156Y-94231023D01*
X125895100Y-94269917D01*
X125872081Y-94386598D01*
X125887956Y-94470736D01*
X125970506Y-94518361D01*
X126046706Y-94605673D01*
X126056231Y-94672348D01*
X126047698Y-94745373D01*
X126022100Y-94796173D01*
X125945106Y-94835861D01*
X125869700Y-94796967D01*
X125837156Y-94704892D01*
X125833981Y-94632661D01*
X125818106Y-94591386D01*
X125777228Y-94559239D01*
X125695869Y-94548523D01*
X125607366Y-94563208D01*
X125564106Y-94607261D01*
X125556169Y-94689811D01*
X125540691Y-94780298D01*
X125494256Y-94810461D01*
X125430756Y-94778711D01*
X125400594Y-94690604D01*
X125419644Y-94600911D01*
X125457744Y-94559636D01*
X125476794Y-94550111D01*
X125536325Y-94505661D01*
X125556169Y-94445336D01*
X125527594Y-94358023D01*
X125477984Y-94298492D01*
X125421231Y-94278648D01*
X125313281Y-94315161D01*
X125263275Y-94350086D01*
X125200569Y-94415967D01*
X125151356Y-94520742D01*
X125134687Y-94591981D01*
X125129131Y-94670761D01*
X124616501Y-94670761D01*
X124616501Y-93584911D01*
X125146594Y-93584911D01*
X125167231Y-93659523D01*
X125229144Y-93711911D01*
X126114969Y-94140536D01*
X126195931Y-94167523D01*
X126250303Y-94144504D01*
X126299119Y-94075448D01*
X126326106Y-93990517D01*
X126311819Y-93939717D01*
X126281656Y-93911142D01*
X126234031Y-93886536D01*
X126062581Y-93803986D01*
X126062581Y-93364248D01*
X126234031Y-93281698D01*
X126280069Y-93257092D01*
X126309438Y-93228517D01*
X126324519Y-93177717D01*
X126297531Y-93092786D01*
X126249906Y-93023729D01*
X126195931Y-93000711D01*
X126114969Y-93027698D01*
X125227556Y-93456323D01*
X125168819Y-93509504D01*
X125146594Y-93584911D01*
X124616501Y-93584911D01*
X124616501Y-92488080D01*
X126843499Y-92488080D01*
G37*
%TO.C,kibuzzard-63FC11DC*%
G36*
X106521911Y-77414768D02*
G01*
X106521911Y-83429144D01*
X104298089Y-83429144D01*
X104298089Y-82229126D01*
X104829769Y-82229126D01*
X104844453Y-82317629D01*
X104888506Y-82360889D01*
X104971056Y-82368826D01*
X105758456Y-82368826D01*
X105758456Y-82800626D01*
X105770363Y-82876826D01*
X105807669Y-82908576D01*
X105875138Y-82916514D01*
X105942606Y-82908576D01*
X105977531Y-82881589D01*
X105993406Y-82799039D01*
X105993406Y-82227539D01*
X105978325Y-82139433D01*
X105933081Y-82097364D01*
X105852119Y-82087839D01*
X104969469Y-82087839D01*
X104914700Y-82090220D01*
X104872631Y-82105301D01*
X104840484Y-82147370D01*
X104829769Y-82229126D01*
X104298089Y-82229126D01*
X104298089Y-81592539D01*
X104818656Y-81592539D01*
X104824411Y-81667747D01*
X104841675Y-81744145D01*
X104888506Y-81860826D01*
X104910731Y-81898926D01*
X104939306Y-81943376D01*
X105014712Y-81984651D01*
X105102819Y-81951314D01*
X105167112Y-81892576D01*
X105188544Y-81840189D01*
X105153619Y-81759226D01*
X105113137Y-81681439D01*
X105099644Y-81581426D01*
X105117503Y-81479033D01*
X105171081Y-81378226D01*
X105269506Y-81298851D01*
X105337173Y-81275039D01*
X105413175Y-81267101D01*
X105489177Y-81275039D01*
X105556844Y-81298851D01*
X105656856Y-81379814D01*
X105709244Y-81478636D01*
X105726706Y-81581426D01*
X105714006Y-81674295D01*
X105688606Y-81737001D01*
X105667969Y-81765576D01*
X105636219Y-81841776D01*
X105658444Y-81892973D01*
X105725119Y-81948139D01*
X105814019Y-81983064D01*
X105869581Y-81961633D01*
X105909269Y-81911626D01*
X105942606Y-81856858D01*
X105983881Y-81749701D01*
X106002931Y-81670128D01*
X106009281Y-81593333D01*
X106004320Y-81517529D01*
X105989438Y-81440933D01*
X105962847Y-81362748D01*
X105922763Y-81282183D01*
X105870772Y-81204594D01*
X105808463Y-81135339D01*
X105731469Y-81076006D01*
X105635425Y-81028183D01*
X105525292Y-80996631D01*
X105406031Y-80986114D01*
X105287961Y-80996433D01*
X105181400Y-81027389D01*
X105089325Y-81074419D01*
X105014712Y-81132958D01*
X104954189Y-81201815D01*
X104904381Y-81279801D01*
X104856756Y-81383694D01*
X104828181Y-81487940D01*
X104818656Y-81592539D01*
X104298089Y-81592539D01*
X104298089Y-80468589D01*
X104810719Y-80468589D01*
X104816870Y-80559672D01*
X104835325Y-80642420D01*
X104885331Y-80751164D01*
X104915494Y-80790851D01*
X104993281Y-80840064D01*
X105080594Y-80801964D01*
X105140125Y-80747195D01*
X105159969Y-80690839D01*
X105128219Y-80608289D01*
X105112344Y-80590033D01*
X105091706Y-80565426D01*
X105071069Y-80480495D01*
X105095675Y-80394770D01*
X105163937Y-80360639D01*
X105234581Y-80401120D01*
X105271094Y-80501926D01*
X105283198Y-80565029D01*
X105300462Y-80633689D01*
X105322489Y-80702348D01*
X105348881Y-80765451D01*
X105387973Y-80820815D01*
X105448100Y-80866258D01*
X105526880Y-80896619D01*
X105621931Y-80906739D01*
X105718967Y-80896420D01*
X105803700Y-80865464D01*
X105873352Y-80817839D01*
X105925144Y-80757514D01*
X105971887Y-80669849D01*
X105999933Y-80578303D01*
X106009281Y-80482876D01*
X106004717Y-80410248D01*
X105991025Y-80341589D01*
X105945781Y-80233639D01*
X105895775Y-80162201D01*
X105847356Y-80116164D01*
X105829894Y-80101876D01*
X105738613Y-80060601D01*
X105691583Y-80077667D01*
X105631456Y-80128864D01*
X105593356Y-80213001D01*
X105613200Y-80266183D01*
X105672731Y-80336826D01*
X105724325Y-80400326D01*
X105748931Y-80476526D01*
X105735526Y-80558547D01*
X105695309Y-80607760D01*
X105628281Y-80624164D01*
X105567163Y-80583683D01*
X105531444Y-80482876D01*
X105516958Y-80420170D01*
X105495725Y-80352701D01*
X105468936Y-80285233D01*
X105437781Y-80222526D01*
X105394720Y-80167162D01*
X105332212Y-80121720D01*
X105252639Y-80091359D01*
X105158381Y-80081239D01*
X105069217Y-80092792D01*
X104987990Y-80127453D01*
X104914700Y-80185220D01*
X104856933Y-80262919D01*
X104822272Y-80357376D01*
X104810719Y-80468589D01*
X104298089Y-80468589D01*
X104298089Y-77414768D01*
X106521911Y-77414768D01*
G37*
%TO.C,kibuzzard-63FC1EC6*%
G36*
X120947656Y-81514752D02*
G01*
X120926423Y-81623495D01*
X120862725Y-81721127D01*
X120766880Y-81790183D01*
X120649206Y-81813202D01*
X120531136Y-81790778D01*
X120434100Y-81723508D01*
X120369211Y-81626075D01*
X120347581Y-81513164D01*
X120347581Y-81360764D01*
X120947656Y-81360764D01*
X120947656Y-81514752D01*
G37*
G36*
X121763499Y-77414768D02*
G01*
X121763499Y-84218132D01*
X119536501Y-84218132D01*
X119536501Y-83259414D01*
X120049131Y-83259414D01*
X120061478Y-83380417D01*
X120098520Y-83483075D01*
X120160256Y-83567389D01*
X120237426Y-83630007D01*
X120320770Y-83667578D01*
X120410287Y-83680102D01*
X120494337Y-83666343D01*
X120561276Y-83625068D01*
X120611106Y-83556277D01*
X120622219Y-83556277D01*
X120656350Y-83603108D01*
X120707944Y-83653114D01*
X120779381Y-83692405D01*
X120860344Y-83705502D01*
X120966971Y-83691390D01*
X121060369Y-83649057D01*
X121140538Y-83578502D01*
X121201833Y-83486603D01*
X121238610Y-83380240D01*
X121250869Y-83259414D01*
X121238522Y-83139470D01*
X121201480Y-83033636D01*
X121139744Y-82941914D01*
X121090134Y-82897067D01*
X121027031Y-82857777D01*
X120985756Y-82840314D01*
X120969881Y-82837139D01*
X120884156Y-82819677D01*
X120815100Y-82858570D01*
X120792081Y-82975252D01*
X120807956Y-83059389D01*
X120890506Y-83107014D01*
X120966706Y-83194327D01*
X120976231Y-83261002D01*
X120967698Y-83334027D01*
X120942100Y-83384827D01*
X120865106Y-83424514D01*
X120789700Y-83385620D01*
X120757156Y-83293545D01*
X120753981Y-83221314D01*
X120738106Y-83180039D01*
X120697228Y-83147892D01*
X120615869Y-83137177D01*
X120527366Y-83151861D01*
X120484106Y-83195914D01*
X120476169Y-83278464D01*
X120460691Y-83368952D01*
X120414256Y-83399114D01*
X120350756Y-83367364D01*
X120320594Y-83279258D01*
X120339644Y-83189564D01*
X120377744Y-83148289D01*
X120396794Y-83138764D01*
X120456325Y-83094314D01*
X120476169Y-83033989D01*
X120447594Y-82946677D01*
X120397984Y-82887145D01*
X120341231Y-82867302D01*
X120233281Y-82903814D01*
X120183275Y-82938739D01*
X120120569Y-83004620D01*
X120071356Y-83109395D01*
X120054687Y-83180634D01*
X120049131Y-83259414D01*
X119536501Y-83259414D01*
X119536501Y-82569645D01*
X120065006Y-82569645D01*
X120072944Y-82645052D01*
X120091200Y-82686327D01*
X120125331Y-82708552D01*
X120209469Y-82716489D01*
X121093706Y-82716489D01*
X121148475Y-82714108D01*
X121190544Y-82699027D01*
X121222691Y-82656958D01*
X121233406Y-82575202D01*
X121223088Y-82495430D01*
X121192131Y-82452964D01*
X121148475Y-82437883D01*
X121090531Y-82435502D01*
X120523794Y-82435502D01*
X120542844Y-82414864D01*
X120592056Y-82303739D01*
X120536494Y-82207695D01*
X120438069Y-82157689D01*
X120344406Y-82214839D01*
X120109456Y-82475189D01*
X120106281Y-82479952D01*
X120065006Y-82569645D01*
X119536501Y-82569645D01*
X119536501Y-81221064D01*
X120065006Y-81221064D01*
X120066594Y-81514752D01*
X120076962Y-81626373D01*
X120108067Y-81731048D01*
X120159909Y-81828779D01*
X120232487Y-81919564D01*
X120320197Y-81995963D01*
X120417431Y-82050533D01*
X120524191Y-82083275D01*
X120640475Y-82094189D01*
X120757206Y-82083523D01*
X120865305Y-82051525D01*
X120964771Y-81998195D01*
X121055606Y-81923533D01*
X121131310Y-81833690D01*
X121185384Y-81734819D01*
X121217829Y-81626918D01*
X121228644Y-81509989D01*
X121228644Y-81219477D01*
X121218722Y-81140895D01*
X121188956Y-81098827D01*
X121087356Y-81079777D01*
X120204706Y-81079777D01*
X120149144Y-81082158D01*
X120107869Y-81097239D01*
X120075722Y-81139308D01*
X120065006Y-81221064D01*
X119536501Y-81221064D01*
X119536501Y-80736877D01*
X120630156Y-80736877D01*
X120658731Y-80817839D01*
X120707547Y-80873798D01*
X120752394Y-80892452D01*
X120802400Y-80876577D01*
X120838913Y-80854352D01*
X120876219Y-80824189D01*
X120923844Y-80771802D01*
X120961150Y-80694808D01*
X120977819Y-80588445D01*
X120953213Y-80483670D01*
X120903206Y-80405883D01*
X120877806Y-80356670D01*
X120884156Y-80325714D01*
X120903206Y-80305077D01*
X120960356Y-80257650D01*
X120979406Y-80213795D01*
X120932575Y-80116164D01*
X120855581Y-80060602D01*
X120792875Y-80083620D01*
X120729375Y-80130452D01*
X120684131Y-80182839D01*
X120643650Y-80266183D01*
X120630156Y-80363814D01*
X120645237Y-80451920D01*
X120677781Y-80513039D01*
X120726994Y-80590827D01*
X120709531Y-80643214D01*
X120703181Y-80647977D01*
X120630156Y-80736877D01*
X119536501Y-80736877D01*
X119536501Y-77414768D01*
X121763499Y-77414768D01*
G37*
%TO.C,kibuzzard-63FC1F81*%
G36*
X129375561Y-92537294D02*
G01*
X129375561Y-97762682D01*
X127164439Y-97762682D01*
X127164439Y-94500899D01*
X127677069Y-94500899D01*
X127688181Y-94573924D01*
X127728662Y-94657268D01*
X127789781Y-94685049D01*
X127856456Y-94673936D01*
X127861219Y-94672349D01*
X128248569Y-94575511D01*
X128248569Y-94834274D01*
X127815181Y-94834274D01*
X127761206Y-94836655D01*
X127721519Y-94851736D01*
X127690562Y-94895393D01*
X127681831Y-94976355D01*
X127692150Y-95056524D01*
X127725487Y-95099386D01*
X127767556Y-95114468D01*
X127823119Y-95116849D01*
X128705769Y-95116849D01*
X128797050Y-95101768D01*
X128835944Y-95055730D01*
X128845469Y-94978736D01*
X128837531Y-94905711D01*
X128818481Y-94864436D01*
X128786731Y-94843799D01*
X128704181Y-94834274D01*
X128510506Y-94834274D01*
X128510506Y-94404061D01*
X128495425Y-94315558D01*
X128450181Y-94272299D01*
X128381919Y-94264361D01*
X128318419Y-94269124D01*
X127786606Y-94400886D01*
X127731044Y-94417555D01*
X127694531Y-94446130D01*
X127677069Y-94500899D01*
X127164439Y-94500899D01*
X127164439Y-93634124D01*
X127683419Y-93634124D01*
X127704056Y-93708736D01*
X127765969Y-93761124D01*
X128651794Y-94189749D01*
X128732756Y-94216736D01*
X128787128Y-94193718D01*
X128835944Y-94124661D01*
X128862931Y-94039730D01*
X128848644Y-93988930D01*
X128818481Y-93960355D01*
X128770856Y-93935749D01*
X128599406Y-93853199D01*
X128599406Y-93413461D01*
X128770856Y-93330911D01*
X128816894Y-93306305D01*
X128846263Y-93277730D01*
X128861344Y-93226930D01*
X128834356Y-93141999D01*
X128786731Y-93072943D01*
X128732756Y-93049924D01*
X128651794Y-93076911D01*
X127764381Y-93505536D01*
X127705644Y-93558718D01*
X127683419Y-93634124D01*
X127164439Y-93634124D01*
X127164439Y-92537294D01*
X129375561Y-92537294D01*
G37*
G36*
X128364456Y-93738899D02*
G01*
X128146969Y-93632536D01*
X128364456Y-93527761D01*
X128364456Y-93738899D01*
G37*
%TO.C,kibuzzard-63FC1FCA*%
G36*
X114144293Y-90959318D02*
G01*
X114144293Y-97762682D01*
X111915707Y-97762682D01*
X111915707Y-94673936D01*
X112428337Y-94673936D01*
X112439053Y-94776528D01*
X112471200Y-94865230D01*
X112519222Y-94938255D01*
X112577562Y-94993817D01*
X112646619Y-95036084D01*
X112726787Y-95069223D01*
X112823978Y-95095682D01*
X112925049Y-95111557D01*
X113030000Y-95116848D01*
X113166227Y-95109109D01*
X113287572Y-95085892D01*
X113394034Y-95047197D01*
X113485613Y-94993023D01*
X113543556Y-94938056D01*
X113590388Y-94865230D01*
X113621344Y-94776925D01*
X113631663Y-94675523D01*
X113621145Y-94573725D01*
X113589594Y-94484230D01*
X113542564Y-94410014D01*
X113485613Y-94354055D01*
X113417747Y-94311391D01*
X113337975Y-94277061D01*
X113242901Y-94251485D01*
X113139714Y-94236139D01*
X113028412Y-94231023D01*
X112927694Y-94235169D01*
X112837207Y-94247604D01*
X112756950Y-94268330D01*
X112656342Y-94307819D01*
X112579944Y-94351673D01*
X112520809Y-94407038D01*
X112471994Y-94481055D01*
X112439252Y-94570947D01*
X112428337Y-94673936D01*
X111915707Y-94673936D01*
X111915707Y-93980992D01*
X112444212Y-93980992D01*
X112452150Y-94056398D01*
X112470406Y-94097673D01*
X112504537Y-94119898D01*
X112588675Y-94127836D01*
X113472913Y-94127836D01*
X113527681Y-94125455D01*
X113569750Y-94110373D01*
X113601897Y-94068305D01*
X113612613Y-93986548D01*
X113602294Y-93906777D01*
X113571338Y-93864311D01*
X113527681Y-93849230D01*
X113469738Y-93846848D01*
X112903000Y-93846848D01*
X112922050Y-93826211D01*
X112971262Y-93715086D01*
X112915700Y-93619042D01*
X112817275Y-93569036D01*
X112723612Y-93626186D01*
X112488662Y-93886536D01*
X112485487Y-93891298D01*
X112444212Y-93980992D01*
X111915707Y-93980992D01*
X111915707Y-92632411D01*
X112444212Y-92632411D01*
X112445800Y-92926098D01*
X112456168Y-93037720D01*
X112487273Y-93142395D01*
X112539115Y-93240126D01*
X112611694Y-93330911D01*
X112699403Y-93407309D01*
X112796637Y-93461880D01*
X112903397Y-93494622D01*
X113019681Y-93505536D01*
X113136412Y-93494870D01*
X113244511Y-93462872D01*
X113343978Y-93409542D01*
X113434813Y-93334880D01*
X113510516Y-93245037D01*
X113564591Y-93146166D01*
X113597035Y-93038265D01*
X113607850Y-92921336D01*
X113607850Y-92630823D01*
X113597928Y-92552242D01*
X113568163Y-92510173D01*
X113466563Y-92491123D01*
X112583912Y-92491123D01*
X112528350Y-92493505D01*
X112487075Y-92508586D01*
X112454928Y-92550655D01*
X112444212Y-92632411D01*
X111915707Y-92632411D01*
X111915707Y-92148223D01*
X113009362Y-92148223D01*
X113037938Y-92229186D01*
X113086753Y-92285145D01*
X113131600Y-92303798D01*
X113181606Y-92287923D01*
X113218119Y-92265698D01*
X113255425Y-92235536D01*
X113303050Y-92183148D01*
X113340356Y-92106155D01*
X113357025Y-91999792D01*
X113332419Y-91895017D01*
X113282412Y-91817230D01*
X113257013Y-91768017D01*
X113263363Y-91737061D01*
X113282412Y-91716423D01*
X113339563Y-91668997D01*
X113358613Y-91625142D01*
X113311781Y-91527511D01*
X113234788Y-91471948D01*
X113172081Y-91494967D01*
X113108581Y-91541798D01*
X113063338Y-91594186D01*
X113022856Y-91677530D01*
X113009362Y-91775161D01*
X113024444Y-91863267D01*
X113056988Y-91924386D01*
X113106200Y-92002173D01*
X113088738Y-92054561D01*
X113082388Y-92059323D01*
X113009362Y-92148223D01*
X111915707Y-92148223D01*
X111915707Y-90959318D01*
X114144293Y-90959318D01*
G37*
G36*
X113326863Y-92926098D02*
G01*
X113305630Y-93034842D01*
X113241931Y-93132473D01*
X113146086Y-93201530D01*
X113028412Y-93224548D01*
X112910342Y-93202125D01*
X112813306Y-93134855D01*
X112748417Y-93037422D01*
X112726787Y-92924511D01*
X112726787Y-92772111D01*
X113326863Y-92772111D01*
X113326863Y-92926098D01*
G37*
G36*
X113169154Y-94522032D02*
G01*
X113269117Y-94552095D01*
X113329095Y-94602201D01*
X113349088Y-94672348D01*
X113329641Y-94743885D01*
X113271300Y-94794983D01*
X113174066Y-94825641D01*
X113037938Y-94835861D01*
X113028412Y-94835861D01*
X112888812Y-94825741D01*
X112789097Y-94795380D01*
X112729268Y-94744778D01*
X112709325Y-94673936D01*
X112729318Y-94603094D01*
X112789295Y-94552492D01*
X112889258Y-94522131D01*
X113029206Y-94512011D01*
X113169154Y-94522032D01*
G37*
%TO.C,kibuzzard-63FC11F9*%
G36*
X123280664Y-83042544D02*
G01*
X123357128Y-83072971D01*
X123421775Y-83123683D01*
X123487855Y-83220322D01*
X123509881Y-83327677D01*
X123488450Y-83434833D01*
X123424156Y-83530877D01*
X123360480Y-83581147D01*
X123283751Y-83611310D01*
X123193969Y-83621364D01*
X123104010Y-83611222D01*
X123026752Y-83580795D01*
X122962194Y-83530083D01*
X122896709Y-83433444D01*
X122874881Y-83326089D01*
X122896908Y-83218933D01*
X122962987Y-83122889D01*
X123027634Y-83072618D01*
X123104099Y-83042456D01*
X123192381Y-83032402D01*
X123280664Y-83042544D01*
G37*
G36*
X122076501Y-84414982D02*
G01*
X122076501Y-83321327D01*
X122593894Y-83321327D01*
X122604510Y-83434932D01*
X122636359Y-83540798D01*
X122689441Y-83638926D01*
X122763756Y-83729314D01*
X122853797Y-83805018D01*
X122954058Y-83859092D01*
X123064538Y-83891537D01*
X123185237Y-83902352D01*
X123306384Y-83892033D01*
X123418203Y-83861077D01*
X123520696Y-83809483D01*
X123613863Y-83737252D01*
X123691303Y-83649939D01*
X123746617Y-83553102D01*
X123779806Y-83446739D01*
X123790869Y-83330852D01*
X123779955Y-83214716D01*
X123747213Y-83107609D01*
X123692642Y-83009532D01*
X123616244Y-82920483D01*
X123524764Y-82846515D01*
X123424950Y-82793681D01*
X123316802Y-82761981D01*
X123200319Y-82751414D01*
X123072723Y-82763320D01*
X122953462Y-82799039D01*
X122847695Y-82854602D01*
X122760581Y-82926039D01*
X122691128Y-83011367D01*
X122638344Y-83108602D01*
X122605006Y-83213377D01*
X122593894Y-83321327D01*
X122076501Y-83321327D01*
X122076501Y-82233889D01*
X122589131Y-82233889D01*
X122595283Y-82324972D01*
X122613737Y-82407720D01*
X122663744Y-82516464D01*
X122693906Y-82556152D01*
X122771694Y-82605364D01*
X122859006Y-82567264D01*
X122918537Y-82512495D01*
X122938381Y-82456139D01*
X122906631Y-82373589D01*
X122890756Y-82355333D01*
X122870119Y-82330727D01*
X122849481Y-82245795D01*
X122874087Y-82160070D01*
X122942350Y-82125939D01*
X123012994Y-82166420D01*
X123049506Y-82267227D01*
X123061611Y-82330330D01*
X123078875Y-82398989D01*
X123100902Y-82467648D01*
X123127294Y-82530752D01*
X123166386Y-82586116D01*
X123226513Y-82631558D01*
X123305292Y-82661919D01*
X123400344Y-82672039D01*
X123497380Y-82661720D01*
X123582113Y-82630764D01*
X123651764Y-82583139D01*
X123703556Y-82522814D01*
X123750299Y-82435149D01*
X123778345Y-82343603D01*
X123787694Y-82248177D01*
X123783130Y-82175548D01*
X123769438Y-82106889D01*
X123724194Y-81998939D01*
X123674188Y-81927502D01*
X123625769Y-81881464D01*
X123608306Y-81867177D01*
X123517025Y-81825902D01*
X123469995Y-81842967D01*
X123409869Y-81894164D01*
X123371769Y-81978302D01*
X123391613Y-82031483D01*
X123451144Y-82102127D01*
X123502738Y-82165627D01*
X123527344Y-82241827D01*
X123513938Y-82323847D01*
X123473722Y-82373060D01*
X123406694Y-82389464D01*
X123345575Y-82348983D01*
X123309856Y-82248177D01*
X123295370Y-82185470D01*
X123274138Y-82118002D01*
X123247348Y-82050533D01*
X123216194Y-81987827D01*
X123173133Y-81932463D01*
X123110625Y-81887020D01*
X123031052Y-81856659D01*
X122936794Y-81846539D01*
X122847629Y-81858093D01*
X122766402Y-81892753D01*
X122693112Y-81950520D01*
X122635345Y-82028220D01*
X122600685Y-82122676D01*
X122589131Y-82233889D01*
X122076501Y-82233889D01*
X122076501Y-81583014D01*
X122608181Y-81583014D01*
X122622866Y-81671517D01*
X122666919Y-81714777D01*
X122749469Y-81722714D01*
X123632119Y-81722714D01*
X123687681Y-81720333D01*
X123728956Y-81705252D01*
X123761103Y-81663183D01*
X123771819Y-81581427D01*
X123756738Y-81493320D01*
X123711494Y-81451252D01*
X123630531Y-81441727D01*
X122747881Y-81441727D01*
X122693112Y-81444108D01*
X122651044Y-81459189D01*
X122618897Y-81501258D01*
X122608181Y-81583014D01*
X122076501Y-81583014D01*
X122076501Y-81174233D01*
X122609769Y-81174233D01*
X122620484Y-81255394D01*
X122652631Y-81297264D01*
X122695494Y-81312345D01*
X122751056Y-81314727D01*
X123632119Y-81314727D01*
X123719034Y-81299645D01*
X123760706Y-81254402D01*
X123770231Y-81178202D01*
X123762294Y-81105177D01*
X123743244Y-81063902D01*
X123711494Y-81041677D01*
X123628944Y-81033739D01*
X123097131Y-81033739D01*
X123160830Y-80984923D01*
X123253500Y-80917852D01*
X123340614Y-80855542D01*
X123387644Y-80821014D01*
X123424950Y-80792439D01*
X123453525Y-80753545D01*
X123471781Y-80686870D01*
X123455113Y-80621783D01*
X123422569Y-80579714D01*
X123405106Y-80567014D01*
X123342995Y-80519786D01*
X123236038Y-80441602D01*
X123136620Y-80369370D01*
X123097131Y-80340002D01*
X123632119Y-80340002D01*
X123686888Y-80337620D01*
X123727369Y-80322539D01*
X123759516Y-80279677D01*
X123770231Y-80198714D01*
X123759516Y-80120133D01*
X123727369Y-80078064D01*
X123686094Y-80062983D01*
X123628944Y-80060602D01*
X122747881Y-80060602D01*
X122693112Y-80062983D01*
X122651044Y-80078064D01*
X122620087Y-80120927D01*
X122609769Y-80201889D01*
X122620087Y-80275708D01*
X122641519Y-80316189D01*
X122651044Y-80325714D01*
X123124119Y-80686077D01*
X122990959Y-80786851D01*
X122877231Y-80873275D01*
X122782933Y-80945347D01*
X122708067Y-81003069D01*
X122652631Y-81046439D01*
X122620484Y-81091881D01*
X122609769Y-81174233D01*
X122076501Y-81174233D01*
X122076501Y-77414768D01*
X124303499Y-77414768D01*
X124303499Y-84414982D01*
X122076501Y-84414982D01*
G37*
%TO.C,kibuzzard-63FC1F60*%
G36*
X121753180Y-92830980D02*
G01*
X121753180Y-97762682D01*
X119546820Y-97762682D01*
X119546820Y-94970004D01*
X120059450Y-94970004D01*
X120067387Y-95045411D01*
X120085644Y-95086686D01*
X120119775Y-95108911D01*
X120203912Y-95116848D01*
X121088150Y-95116848D01*
X121142919Y-95114467D01*
X121184988Y-95099386D01*
X121217134Y-95057317D01*
X121227850Y-94975561D01*
X121217531Y-94895789D01*
X121186575Y-94853323D01*
X121142919Y-94838242D01*
X121084975Y-94835861D01*
X120518237Y-94835861D01*
X120537287Y-94815223D01*
X120586500Y-94704098D01*
X120530937Y-94608054D01*
X120432512Y-94558048D01*
X120338850Y-94615198D01*
X120103900Y-94875548D01*
X120100725Y-94880311D01*
X120059450Y-94970004D01*
X119546820Y-94970004D01*
X119546820Y-93927811D01*
X120061037Y-93927811D01*
X120081675Y-94002423D01*
X120143587Y-94054811D01*
X121029413Y-94483436D01*
X121110375Y-94510423D01*
X121164747Y-94487404D01*
X121213563Y-94418348D01*
X121240550Y-94333417D01*
X121226263Y-94282617D01*
X121196100Y-94254042D01*
X121148475Y-94229436D01*
X120977025Y-94146886D01*
X120977025Y-93707148D01*
X121148475Y-93624598D01*
X121194513Y-93599992D01*
X121223881Y-93571417D01*
X121238963Y-93520617D01*
X121211975Y-93435686D01*
X121164350Y-93366629D01*
X121110375Y-93343611D01*
X121029413Y-93370598D01*
X120142000Y-93799223D01*
X120083262Y-93852404D01*
X120061037Y-93927811D01*
X119546820Y-93927811D01*
X119546820Y-92830980D01*
X121753180Y-92830980D01*
G37*
G36*
X120742075Y-94032586D02*
G01*
X120524587Y-93926223D01*
X120742075Y-93821448D01*
X120742075Y-94032586D01*
G37*
%TO.C,kibuzzard-63FC1F68*%
G36*
X123290013Y-93672223D02*
G01*
X123072525Y-93565861D01*
X123290013Y-93461086D01*
X123290013Y-93672223D01*
G37*
G36*
X124301118Y-92470618D02*
G01*
X124301118Y-97762682D01*
X122078882Y-97762682D01*
X122078882Y-94641392D01*
X122591512Y-94641392D01*
X122606241Y-94760896D01*
X122650426Y-94864348D01*
X122724069Y-94951748D01*
X122816585Y-95017894D01*
X122917391Y-95057582D01*
X123026487Y-95070811D01*
X123114594Y-95060889D01*
X123197938Y-95031123D01*
X123270963Y-94987467D01*
X123328113Y-94935873D01*
X123415822Y-94824748D01*
X123469400Y-94726323D01*
X123485275Y-94686636D01*
X123493213Y-94686636D01*
X123493213Y-94977148D01*
X123508294Y-95070017D01*
X123554331Y-95107323D01*
X123635294Y-95116848D01*
X123715463Y-95106530D01*
X123756738Y-95072398D01*
X123775788Y-94973973D01*
X123775788Y-94353261D01*
X123732925Y-94254836D01*
X123632913Y-94213561D01*
X123550561Y-94228444D01*
X123474956Y-94273092D01*
X123407884Y-94338775D01*
X123351131Y-94416761D01*
X123299934Y-94500898D01*
X123249531Y-94585036D01*
X123196152Y-94663022D01*
X123136025Y-94728705D01*
X123070541Y-94773353D01*
X123001087Y-94788236D01*
X122960606Y-94777123D01*
X122917744Y-94752517D01*
X122886787Y-94710448D01*
X122872500Y-94631073D01*
X122909806Y-94542967D01*
X122983625Y-94500898D01*
X123020137Y-94494548D01*
X123029662Y-94494548D01*
X123082050Y-94492167D01*
X123121737Y-94477086D01*
X123150312Y-94434223D01*
X123159837Y-94353261D01*
X123144756Y-94264758D01*
X123099512Y-94221498D01*
X123018550Y-94213561D01*
X122912276Y-94226702D01*
X122813586Y-94266125D01*
X122722481Y-94331830D01*
X122649721Y-94418789D01*
X122606065Y-94521977D01*
X122591512Y-94641392D01*
X122078882Y-94641392D01*
X122078882Y-93567448D01*
X122608975Y-93567448D01*
X122629612Y-93642061D01*
X122691525Y-93694448D01*
X123577350Y-94123073D01*
X123658313Y-94150061D01*
X123712684Y-94127042D01*
X123761500Y-94057986D01*
X123788488Y-93973055D01*
X123774200Y-93922255D01*
X123744038Y-93893680D01*
X123696413Y-93869073D01*
X123524963Y-93786523D01*
X123524963Y-93346786D01*
X123696413Y-93264236D01*
X123742450Y-93239630D01*
X123771819Y-93211055D01*
X123786900Y-93160255D01*
X123759913Y-93075323D01*
X123712288Y-93006267D01*
X123658313Y-92983248D01*
X123577350Y-93010236D01*
X122689938Y-93438861D01*
X122631200Y-93492042D01*
X122608975Y-93567448D01*
X122078882Y-93567448D01*
X122078882Y-92470618D01*
X124301118Y-92470618D01*
G37*
%TO.C,kibuzzard-63FC11B0*%
G36*
X98907468Y-77414768D02*
G01*
X98907468Y-82862406D01*
X96672532Y-82862406D01*
X96672532Y-82185470D01*
X97185162Y-82185470D01*
X97240725Y-82287864D01*
X97339150Y-82349776D01*
X97439162Y-82295801D01*
X97790000Y-81976714D01*
X98140838Y-82295801D01*
X98242438Y-82349776D01*
X98339275Y-82288657D01*
X98394838Y-82185470D01*
X98331338Y-82087839D01*
X97985263Y-81786214D01*
X98331338Y-81484589D01*
X98394838Y-81386957D01*
X98338481Y-81283770D01*
X98242438Y-81221064D01*
X98140838Y-81276626D01*
X97790000Y-81595714D01*
X97439162Y-81276626D01*
X97339150Y-81221064D01*
X97241519Y-81282976D01*
X97185162Y-81386957D01*
X97248662Y-81484589D01*
X97594737Y-81786214D01*
X97248662Y-82087839D01*
X97185162Y-82185470D01*
X96672532Y-82185470D01*
X96672532Y-81059139D01*
X97213737Y-81059139D01*
X97225644Y-81133751D01*
X97262950Y-81165501D01*
X97329625Y-81173439D01*
X97395506Y-81165501D01*
X97429637Y-81138514D01*
X97443925Y-81057551D01*
X97443925Y-80754339D01*
X98242438Y-80754339D01*
X98296413Y-80751957D01*
X98336894Y-80737670D01*
X98369438Y-80695601D01*
X98378963Y-80616226D01*
X98369438Y-80537645D01*
X98336894Y-80496370D01*
X98295619Y-80482082D01*
X98240850Y-80479701D01*
X97443925Y-80479701D01*
X97443925Y-80174901D01*
X97432019Y-80100289D01*
X97394712Y-80068539D01*
X97328037Y-80060601D01*
X97262156Y-80068539D01*
X97228025Y-80095526D01*
X97213737Y-80176489D01*
X97213737Y-81059139D01*
X96672532Y-81059139D01*
X96672532Y-77414768D01*
X98907468Y-77414768D01*
G37*
%TO.C,kibuzzard-63FC1FBE*%
G36*
X115871625Y-94537411D02*
G01*
X115850392Y-94646155D01*
X115786694Y-94743786D01*
X115690848Y-94812842D01*
X115573175Y-94835861D01*
X115455105Y-94813438D01*
X115358069Y-94746167D01*
X115293180Y-94648734D01*
X115271550Y-94535823D01*
X115271550Y-94383423D01*
X115871625Y-94383423D01*
X115871625Y-94537411D01*
G37*
G36*
X114457295Y-97762682D02*
G01*
X114457295Y-94243723D01*
X114988975Y-94243723D01*
X114990562Y-94537411D01*
X115000931Y-94649032D01*
X115032036Y-94753708D01*
X115083878Y-94851438D01*
X115156456Y-94942223D01*
X115244166Y-95018622D01*
X115341400Y-95073192D01*
X115448159Y-95105934D01*
X115564444Y-95116848D01*
X115681175Y-95106182D01*
X115789273Y-95074184D01*
X115888740Y-95020854D01*
X115979575Y-94946192D01*
X116055279Y-94856350D01*
X116109353Y-94757478D01*
X116141798Y-94649578D01*
X116152613Y-94532648D01*
X116152613Y-94242136D01*
X116142691Y-94163555D01*
X116112925Y-94121486D01*
X116011325Y-94102436D01*
X115128675Y-94102436D01*
X115073112Y-94104817D01*
X115031837Y-94119898D01*
X114999691Y-94161967D01*
X114988975Y-94243723D01*
X114457295Y-94243723D01*
X114457295Y-93831767D01*
X114992150Y-93831767D01*
X115000087Y-93904792D01*
X115019137Y-93946067D01*
X115052475Y-93965911D01*
X115133437Y-93975436D01*
X116014500Y-93975436D01*
X116070062Y-93973055D01*
X116111338Y-93957973D01*
X116143484Y-93915905D01*
X116154200Y-93834148D01*
X116144675Y-93748423D01*
X116114513Y-93708736D01*
X115964935Y-93596464D01*
X115833701Y-93497775D01*
X115720813Y-93412667D01*
X115626268Y-93341141D01*
X115550068Y-93283198D01*
X115492212Y-93238836D01*
X116014500Y-93238836D01*
X116070062Y-93236455D01*
X116111338Y-93221373D01*
X116143484Y-93179305D01*
X116154200Y-93097548D01*
X116143484Y-93018173D01*
X116111338Y-92976898D01*
X116068475Y-92961817D01*
X116012913Y-92959436D01*
X115127087Y-92959436D01*
X115038981Y-92974517D01*
X115001675Y-93019761D01*
X114992150Y-93097548D01*
X115000881Y-93172955D01*
X115020725Y-93211848D01*
X115062000Y-93248361D01*
X115205272Y-93353841D01*
X115331346Y-93446975D01*
X115440222Y-93527761D01*
X115531900Y-93596200D01*
X115606380Y-93652291D01*
X115663663Y-93696036D01*
X115127087Y-93696036D01*
X115038981Y-93711117D01*
X115001675Y-93756361D01*
X114992150Y-93831767D01*
X114457295Y-93831767D01*
X114457295Y-92399048D01*
X114969925Y-92399048D01*
X114983683Y-92521639D01*
X115024958Y-92639643D01*
X115093750Y-92753061D01*
X115164394Y-92795923D01*
X115254087Y-92759411D01*
X115317191Y-92700277D01*
X115338225Y-92646698D01*
X115294569Y-92549861D01*
X115261827Y-92476836D01*
X115250912Y-92391111D01*
X115272145Y-92277208D01*
X115335844Y-92176798D01*
X115433872Y-92106552D01*
X115558094Y-92083136D01*
X115645053Y-92093719D01*
X115722841Y-92125469D01*
X115791456Y-92178386D01*
X115863489Y-92279986D01*
X115887500Y-92394286D01*
X115880356Y-92477233D01*
X115858925Y-92551448D01*
X115685888Y-92551448D01*
X115685888Y-92426036D01*
X115673188Y-92356186D01*
X115635881Y-92329198D01*
X115569206Y-92322848D01*
X115501737Y-92329992D01*
X115466812Y-92356186D01*
X115452525Y-92432386D01*
X115452525Y-92711786D01*
X115496975Y-92816561D01*
X115585875Y-92832436D01*
X115935125Y-92832436D01*
X116031963Y-92787986D01*
X116092387Y-92712977D01*
X116135547Y-92621298D01*
X116161443Y-92512952D01*
X116170075Y-92387936D01*
X116158913Y-92273537D01*
X116125427Y-92166877D01*
X116069616Y-92067955D01*
X115991481Y-91976773D01*
X115897571Y-91900375D01*
X115794433Y-91845805D01*
X115682068Y-91813062D01*
X115560475Y-91802148D01*
X115439478Y-91813261D01*
X115328898Y-91846598D01*
X115228737Y-91902161D01*
X115138994Y-91979948D01*
X115065026Y-92072817D01*
X115012192Y-92173623D01*
X114980492Y-92282367D01*
X114969925Y-92399048D01*
X114457295Y-92399048D01*
X114457295Y-91289518D01*
X116682705Y-91289518D01*
X116682705Y-97762682D01*
X114457295Y-97762682D01*
G37*
%TO.C,kibuzzard-63FC1FE8*%
G36*
X105710038Y-93630949D02*
G01*
X105688805Y-93739693D01*
X105625106Y-93837324D01*
X105529261Y-93906380D01*
X105411588Y-93929399D01*
X105293517Y-93906975D01*
X105196481Y-93839705D01*
X105131592Y-93742272D01*
X105109962Y-93629361D01*
X105109962Y-93476961D01*
X105710038Y-93476961D01*
X105710038Y-93630949D01*
G37*
G36*
X106505243Y-92683344D02*
G01*
X106505243Y-97762682D01*
X104314757Y-97762682D01*
X104314757Y-94977149D01*
X104830562Y-94977149D01*
X104845644Y-95065255D01*
X104890887Y-95107324D01*
X104979787Y-95116849D01*
X105051027Y-95106530D01*
X105137744Y-95075574D01*
X105231605Y-95030132D01*
X105324275Y-94976355D01*
X105416747Y-94918213D01*
X105510013Y-94859674D01*
X105617963Y-94798555D01*
X105714800Y-94754899D01*
X105800525Y-94728705D01*
X105875138Y-94719974D01*
X105926731Y-94716799D01*
X105961656Y-94700924D01*
X105986263Y-94658855D01*
X105992613Y-94578686D01*
X105986263Y-94498518D01*
X105960863Y-94456449D01*
X105925144Y-94441368D01*
X105871963Y-94438986D01*
X105767386Y-94447718D01*
X105660031Y-94473911D01*
X105557042Y-94512408D01*
X105465563Y-94558049D01*
X105383211Y-94607261D01*
X105307606Y-94656474D01*
X105240534Y-94702115D01*
X105183781Y-94740611D01*
X105111550Y-94775536D01*
X105111550Y-94413586D01*
X105095675Y-94321511D01*
X105049637Y-94283411D01*
X104970262Y-94273886D01*
X104890887Y-94283411D01*
X104849612Y-94313574D01*
X104830562Y-94405649D01*
X104830562Y-94977149D01*
X104314757Y-94977149D01*
X104314757Y-93337261D01*
X104827387Y-93337261D01*
X104828975Y-93630949D01*
X104839343Y-93742570D01*
X104870448Y-93847246D01*
X104922290Y-93944976D01*
X104994869Y-94035761D01*
X105082578Y-94112160D01*
X105179812Y-94166730D01*
X105286572Y-94199472D01*
X105402856Y-94210386D01*
X105519587Y-94199720D01*
X105627686Y-94167722D01*
X105727153Y-94114392D01*
X105817988Y-94039730D01*
X105893691Y-93949888D01*
X105947766Y-93851016D01*
X105980210Y-93743116D01*
X105991025Y-93626186D01*
X105991025Y-93335674D01*
X105981103Y-93257093D01*
X105951338Y-93215024D01*
X105849738Y-93195974D01*
X104967087Y-93195974D01*
X104911525Y-93198355D01*
X104870250Y-93213436D01*
X104838103Y-93255505D01*
X104827387Y-93337261D01*
X104314757Y-93337261D01*
X104314757Y-92683344D01*
X106505243Y-92683344D01*
G37*
%TO.C,kibuzzard-63FC1DBD*%
G36*
X113011744Y-80544789D02*
G01*
X112976819Y-80636864D01*
X112872044Y-80682901D01*
X112766475Y-80636864D01*
X112730756Y-80541614D01*
X112730756Y-80341589D01*
X113011744Y-80341589D01*
X113011744Y-80544789D01*
G37*
G36*
X114141911Y-77414768D02*
G01*
X114141911Y-83573606D01*
X111918089Y-83573606D01*
X111918089Y-82946676D01*
X112448181Y-82946676D01*
X112460087Y-83021289D01*
X112497394Y-83053039D01*
X112564069Y-83060976D01*
X112629950Y-83053039D01*
X112664081Y-83026051D01*
X112678369Y-82945089D01*
X112678369Y-82641876D01*
X113476881Y-82641876D01*
X113530856Y-82639495D01*
X113571338Y-82625207D01*
X113603881Y-82583139D01*
X113613406Y-82503764D01*
X113603881Y-82425182D01*
X113571338Y-82383907D01*
X113530062Y-82369620D01*
X113475294Y-82367239D01*
X112678369Y-82367239D01*
X112678369Y-82062439D01*
X112666462Y-81987826D01*
X112629156Y-81956076D01*
X112562481Y-81948139D01*
X112496600Y-81956076D01*
X112462469Y-81983064D01*
X112448181Y-82064026D01*
X112448181Y-82946676D01*
X111918089Y-82946676D01*
X111918089Y-81446489D01*
X112430719Y-81446489D01*
X112436870Y-81537571D01*
X112455325Y-81620320D01*
X112505331Y-81729064D01*
X112535494Y-81768751D01*
X112613281Y-81817964D01*
X112700594Y-81779864D01*
X112760125Y-81725095D01*
X112779969Y-81668739D01*
X112748219Y-81586189D01*
X112732344Y-81567932D01*
X112711706Y-81543326D01*
X112691069Y-81458395D01*
X112715675Y-81372670D01*
X112783937Y-81338539D01*
X112854581Y-81379020D01*
X112891094Y-81479826D01*
X112903198Y-81542929D01*
X112920462Y-81611589D01*
X112942489Y-81680248D01*
X112968881Y-81743351D01*
X113007973Y-81798715D01*
X113068100Y-81844157D01*
X113146880Y-81874518D01*
X113241931Y-81884639D01*
X113338967Y-81874320D01*
X113423700Y-81843364D01*
X113493352Y-81795739D01*
X113545144Y-81735414D01*
X113591887Y-81647748D01*
X113619933Y-81556202D01*
X113629281Y-81460776D01*
X113624717Y-81388148D01*
X113611025Y-81319489D01*
X113565781Y-81211539D01*
X113515775Y-81140101D01*
X113467356Y-81094064D01*
X113449894Y-81079776D01*
X113358613Y-81038501D01*
X113311583Y-81055567D01*
X113251456Y-81106764D01*
X113213356Y-81190901D01*
X113233200Y-81244082D01*
X113292731Y-81314726D01*
X113344325Y-81378226D01*
X113368931Y-81454426D01*
X113355526Y-81536447D01*
X113315309Y-81585659D01*
X113248281Y-81602064D01*
X113187163Y-81561582D01*
X113151444Y-81460776D01*
X113136958Y-81398070D01*
X113115725Y-81330601D01*
X113088936Y-81263132D01*
X113057781Y-81200426D01*
X113014720Y-81145062D01*
X112952212Y-81099620D01*
X112872639Y-81069259D01*
X112778381Y-81059139D01*
X112689217Y-81070692D01*
X112607990Y-81105352D01*
X112534700Y-81163120D01*
X112476933Y-81240819D01*
X112442272Y-81335275D01*
X112430719Y-81446489D01*
X111918089Y-81446489D01*
X111918089Y-80201889D01*
X112449769Y-80201889D01*
X112449769Y-80544789D01*
X112461058Y-80637040D01*
X112494924Y-80727527D01*
X112551369Y-80816251D01*
X112609312Y-80874195D01*
X112684719Y-80921026D01*
X112773619Y-80951982D01*
X112872044Y-80962301D01*
X112984580Y-80949072D01*
X113083005Y-80909384D01*
X113167319Y-80843239D01*
X113232406Y-80870755D01*
X113315485Y-80906739D01*
X113416556Y-80951189D01*
X113499106Y-80975001D01*
X113554669Y-80950395D01*
X113600706Y-80876576D01*
X113622931Y-80794820D01*
X113607850Y-80744020D01*
X113576894Y-80714651D01*
X113531562Y-80693837D01*
X113435783Y-80652562D01*
X113289556Y-80590826D01*
X113292731Y-80541614D01*
X113292731Y-80341589D01*
X113472119Y-80341589D01*
X113526888Y-80339207D01*
X113568956Y-80324126D01*
X113601103Y-80282057D01*
X113611819Y-80200301D01*
X113597134Y-80112195D01*
X113553081Y-80070126D01*
X113470531Y-80060601D01*
X112589469Y-80060601D01*
X112534700Y-80062982D01*
X112492631Y-80078064D01*
X112460484Y-80120132D01*
X112449769Y-80201889D01*
X111918089Y-80201889D01*
X111918089Y-77414768D01*
X114141911Y-77414768D01*
G37*
%TO.C,kibuzzard-63FC1F52*%
G36*
X118206838Y-93689686D02*
G01*
X117989350Y-93583323D01*
X118206838Y-93478548D01*
X118206838Y-93689686D01*
G37*
G36*
X118249154Y-94522032D02*
G01*
X118349117Y-94552095D01*
X118409095Y-94602201D01*
X118429088Y-94672348D01*
X118409641Y-94743885D01*
X118351300Y-94794983D01*
X118254066Y-94825641D01*
X118117938Y-94835861D01*
X118108412Y-94835861D01*
X117968812Y-94825740D01*
X117869097Y-94795379D01*
X117809268Y-94744778D01*
X117789325Y-94673936D01*
X117809318Y-94603093D01*
X117869295Y-94552492D01*
X117969258Y-94522131D01*
X118109206Y-94512011D01*
X118249154Y-94522032D01*
G37*
G36*
X119224293Y-92488080D02*
G01*
X119224293Y-97762682D01*
X116995707Y-97762682D01*
X116995707Y-94673936D01*
X117508337Y-94673936D01*
X117519053Y-94776528D01*
X117551200Y-94865229D01*
X117599222Y-94938254D01*
X117657562Y-94993817D01*
X117726619Y-95036084D01*
X117806787Y-95069223D01*
X117903978Y-95095682D01*
X118005049Y-95111557D01*
X118110000Y-95116848D01*
X118246227Y-95109109D01*
X118367572Y-95085892D01*
X118474034Y-95047197D01*
X118565613Y-94993023D01*
X118623556Y-94938056D01*
X118670388Y-94865229D01*
X118701344Y-94776925D01*
X118711663Y-94675523D01*
X118701145Y-94573725D01*
X118669594Y-94484229D01*
X118622564Y-94410014D01*
X118565613Y-94354054D01*
X118497747Y-94311390D01*
X118417975Y-94277061D01*
X118322901Y-94251484D01*
X118219714Y-94236138D01*
X118108412Y-94231023D01*
X118007694Y-94235168D01*
X117917207Y-94247604D01*
X117836950Y-94268329D01*
X117736342Y-94307818D01*
X117659944Y-94351673D01*
X117600809Y-94407037D01*
X117551994Y-94481054D01*
X117519252Y-94570947D01*
X117508337Y-94673936D01*
X116995707Y-94673936D01*
X116995707Y-93584911D01*
X117525800Y-93584911D01*
X117546437Y-93659523D01*
X117608350Y-93711911D01*
X118494175Y-94140536D01*
X118575138Y-94167523D01*
X118629509Y-94144504D01*
X118678325Y-94075448D01*
X118705313Y-93990517D01*
X118691025Y-93939717D01*
X118660863Y-93911142D01*
X118613238Y-93886536D01*
X118441788Y-93803986D01*
X118441788Y-93364248D01*
X118613238Y-93281698D01*
X118659275Y-93257092D01*
X118688644Y-93228517D01*
X118703725Y-93177717D01*
X118676738Y-93092786D01*
X118629113Y-93023729D01*
X118575138Y-93000711D01*
X118494175Y-93027698D01*
X117606762Y-93456323D01*
X117548025Y-93509504D01*
X117525800Y-93584911D01*
X116995707Y-93584911D01*
X116995707Y-92488080D01*
X119224293Y-92488080D01*
G37*
%TD*%
%LPC*%
D11*
%TO.C,J1*%
X134329000Y-88630000D03*
D12*
X134329000Y-86630000D03*
%TD*%
D13*
%TO.C,J2*%
X96700000Y-84740000D03*
X96700000Y-90520000D03*
D14*
X93010000Y-83310000D03*
D15*
X97180000Y-91950000D03*
X97180000Y-83310000D03*
D14*
X93010000Y-91950000D03*
%TD*%
D16*
%TO.C,J3*%
X97790000Y-96520000D03*
D17*
X100330000Y-96520000D03*
X102870000Y-96520000D03*
X105410000Y-96520000D03*
X107950000Y-96520000D03*
X110490000Y-96520000D03*
X113030000Y-96520000D03*
X115570000Y-96520000D03*
X118110000Y-96520000D03*
X120650000Y-96520000D03*
X123190000Y-96520000D03*
X125730000Y-96520000D03*
X128270000Y-96520000D03*
X130810000Y-96520000D03*
%TD*%
D16*
%TO.C,J4*%
X97790000Y-78740000D03*
D17*
X100330000Y-78740000D03*
X102870000Y-78740000D03*
X105410000Y-78740000D03*
X107950000Y-78740000D03*
X110490000Y-78740000D03*
X113030000Y-78740000D03*
X115570000Y-78740000D03*
X118110000Y-78740000D03*
X120650000Y-78740000D03*
X123190000Y-78740000D03*
X125730000Y-78740000D03*
X128270000Y-78740000D03*
X130810000Y-78740000D03*
%TD*%
M02*
