%TF.GenerationSoftware,KiCad,Pcbnew,(6.0.0-0)*%
%TF.CreationDate,2023-05-28T12:50:48+10:00*%
%TF.ProjectId,atmega32u4-dev,61746d65-6761-4333-9275-342d6465762e,v1.0.0*%
%TF.SameCoordinates,Original*%
%TF.FileFunction,Copper,L2,Bot*%
%TF.FilePolarity,Positive*%
%FSLAX46Y46*%
G04 Gerber Fmt 4.6, Leading zero omitted, Abs format (unit mm)*
G04 Created by KiCad (PCBNEW (6.0.0-0)) date 2023-05-28 12:50:48*
%MOMM*%
%LPD*%
G01*
G04 APERTURE LIST*
G04 Aperture macros list*
%AMRoundRect*
0 Rectangle with rounded corners*
0 $1 Rounding radius*
0 $2 $3 $4 $5 $6 $7 $8 $9 X,Y pos of 4 corners*
0 Add a 4 corners polygon primitive as box body*
4,1,4,$2,$3,$4,$5,$6,$7,$8,$9,$2,$3,0*
0 Add four circle primitives for the rounded corners*
1,1,$1+$1,$2,$3*
1,1,$1+$1,$4,$5*
1,1,$1+$1,$6,$7*
1,1,$1+$1,$8,$9*
0 Add four rect primitives between the rounded corners*
20,1,$1+$1,$2,$3,$4,$5,0*
20,1,$1+$1,$4,$5,$6,$7,0*
20,1,$1+$1,$6,$7,$8,$9,0*
20,1,$1+$1,$8,$9,$2,$3,0*%
G04 Aperture macros list end*
%TA.AperFunction,ComponentPad*%
%ADD10RoundRect,0.250000X0.625000X-0.350000X0.625000X0.350000X-0.625000X0.350000X-0.625000X-0.350000X0*%
%TD*%
%TA.AperFunction,ComponentPad*%
%ADD11O,1.750000X1.200000*%
%TD*%
%TA.AperFunction,ComponentPad*%
%ADD12O,1.700000X0.900000*%
%TD*%
%TA.AperFunction,ComponentPad*%
%ADD13O,2.000000X0.900000*%
%TD*%
%TA.AperFunction,ComponentPad*%
%ADD14R,1.700000X1.700000*%
%TD*%
%TA.AperFunction,ComponentPad*%
%ADD15O,1.700000X1.700000*%
%TD*%
%TA.AperFunction,ViaPad*%
%ADD16C,0.600000*%
%TD*%
%TA.AperFunction,ViaPad*%
%ADD17C,0.800000*%
%TD*%
%TA.AperFunction,Conductor*%
%ADD18C,0.500000*%
%TD*%
%TA.AperFunction,Conductor*%
%ADD19C,0.250000*%
%TD*%
%TA.AperFunction,Conductor*%
%ADD20C,0.200000*%
%TD*%
G04 APERTURE END LIST*
D10*
%TO.P,J1,1,Pin_1*%
%TO.N,+BATT*%
X134329000Y-88630000D03*
D11*
%TO.P,J1,2,Pin_2*%
%TO.N,GND*%
X134329000Y-86630000D03*
%TD*%
D12*
%TO.P,J2,S1,SHIELD*%
%TO.N,unconnected-(J2-PadS1)*%
X93010000Y-83310000D03*
D13*
X97180000Y-91950000D03*
X97180000Y-83310000D03*
D12*
X93010000Y-91950000D03*
%TD*%
D14*
%TO.P,J3,1,Pin_1*%
%TO.N,/D4*%
X97790000Y-96520000D03*
D15*
%TO.P,J3,2,Pin_2*%
%TO.N,/D5*%
X100330000Y-96520000D03*
%TO.P,J3,3,Pin_3*%
%TO.N,/D6*%
X102870000Y-96520000D03*
%TO.P,J3,4,Pin_4*%
%TO.N,/D7*%
X105410000Y-96520000D03*
%TO.P,J3,5,Pin_5*%
%TO.N,/D8*%
X107950000Y-96520000D03*
%TO.P,J3,6,Pin_6*%
%TO.N,/D9*%
X110490000Y-96520000D03*
%TO.P,J3,7,Pin_7*%
%TO.N,/D10*%
X113030000Y-96520000D03*
%TO.P,J3,8,Pin_8*%
%TO.N,GND*%
X115570000Y-96520000D03*
%TO.P,J3,9,Pin_9*%
%TO.N,/A0*%
X118110000Y-96520000D03*
%TO.P,J3,10,Pin_10*%
%TO.N,/A1*%
X120650000Y-96520000D03*
%TO.P,J3,11,Pin_11*%
%TO.N,/A2*%
X123190000Y-96520000D03*
%TO.P,J3,12,Pin_12*%
%TO.N,/A3*%
X125730000Y-96520000D03*
%TO.P,J3,13,Pin_13*%
%TO.N,/A4*%
X128270000Y-96520000D03*
%TO.P,J3,14,Pin_14*%
%TO.N,/A5*%
X130810000Y-96520000D03*
%TD*%
D14*
%TO.P,J4,1,Pin_1*%
%TO.N,/TX*%
X97790000Y-78740000D03*
D15*
%TO.P,J4,2,Pin_2*%
%TO.N,/RX*%
X100330000Y-78740000D03*
%TO.P,J4,3,Pin_3*%
%TO.N,/SDA*%
X102870000Y-78740000D03*
%TO.P,J4,4,Pin_4*%
%TO.N,/SCL*%
X105410000Y-78740000D03*
%TO.P,J4,5,Pin_5*%
%TO.N,/HWB*%
X107950000Y-78740000D03*
%TO.P,J4,6,Pin_6*%
%TO.N,+3V3*%
X110490000Y-78740000D03*
%TO.P,J4,7,Pin_7*%
%TO.N,/RST*%
X113030000Y-78740000D03*
%TO.P,J4,8,Pin_8*%
%TO.N,/D11*%
X115570000Y-78740000D03*
%TO.P,J4,9,Pin_9*%
%TO.N,/D12*%
X118110000Y-78740000D03*
%TO.P,J4,10,Pin_10*%
%TO.N,/D13*%
X120650000Y-78740000D03*
%TO.P,J4,11,Pin_11*%
%TO.N,/MISO*%
X123190000Y-78740000D03*
%TO.P,J4,12,Pin_12*%
%TO.N,/MOSI*%
X125730000Y-78740000D03*
%TO.P,J4,13,Pin_13*%
%TO.N,/SCK*%
X128270000Y-78740000D03*
%TO.P,J4,14,Pin_14*%
%TO.N,/Vin*%
X130810000Y-78740000D03*
%TD*%
D16*
%TO.N,VBUS*%
X124523000Y-88583000D03*
D17*
X99758500Y-90106500D03*
D16*
X117856000Y-84142929D03*
D17*
X99765000Y-85160000D03*
%TO.N,GND*%
X115189000Y-86233000D03*
D16*
X110674000Y-83128000D03*
D17*
X114300000Y-85471000D03*
X99053500Y-84321500D03*
X101193000Y-92228000D03*
D16*
X124206000Y-85090000D03*
X124206000Y-83820000D03*
X104013000Y-92583000D03*
X128220480Y-89457520D03*
D17*
X113411000Y-86233000D03*
D16*
X102997000Y-86106000D03*
X110249931Y-94669020D03*
D17*
X124651000Y-90932000D03*
D16*
X108458000Y-83312000D03*
D17*
X101105000Y-83045000D03*
D16*
X102997000Y-88900000D03*
D17*
X99047000Y-90945000D03*
D16*
X120904000Y-84963000D03*
D17*
X122191592Y-90670192D03*
D16*
X104013000Y-82423000D03*
%TO.N,+3V3*%
X121920000Y-82804000D03*
X115062000Y-92202000D03*
X105791000Y-80264000D03*
X108966000Y-88773000D03*
X119380000Y-88900000D03*
X111125000Y-80772000D03*
%TO.N,/D_P*%
X99314000Y-88479500D03*
X100711000Y-86995000D03*
%TO.N,/U_P*%
X120142000Y-85300000D03*
X108077000Y-87538500D03*
%TO.N,/U_N*%
X120142000Y-86150000D03*
X107315000Y-88138000D03*
%TO.N,/RST*%
X112776000Y-82804000D03*
X117935429Y-82756429D03*
%TO.N,/HWB*%
X107076020Y-81185498D03*
X119063000Y-90932000D03*
X114427000Y-92720500D03*
%TO.N,/D13*%
X106619411Y-90738589D03*
X118237000Y-80424098D03*
X113563400Y-92720500D03*
%TO.N,/RXLED*%
X117173429Y-83518429D03*
X107061000Y-86453980D03*
%TO.N,/D7*%
X107188000Y-92710000D03*
X120396000Y-88265000D03*
%TO.N,/D12*%
X107756589Y-90043000D03*
X116126839Y-81455839D03*
%TO.N,/D5*%
X105285911Y-92712911D03*
X112565302Y-92717498D03*
%TD*%
D18*
%TO.N,VBUS*%
X120253280Y-93919520D02*
X123202489Y-90970311D01*
X123202489Y-89903511D02*
X124523000Y-88583000D01*
D19*
X117856000Y-84142929D02*
X118168071Y-84142929D01*
D18*
X123202489Y-90970311D02*
X123202489Y-89903511D01*
X99758500Y-90106500D02*
X100272891Y-90106500D01*
X98564489Y-86360511D02*
X98564489Y-88912489D01*
X98564489Y-88912489D02*
X99758500Y-90106500D01*
D19*
X124523000Y-86364520D02*
X124523000Y-88583000D01*
D18*
X103628813Y-93462422D02*
X107127928Y-93462422D01*
D19*
X118168071Y-84142929D02*
X119057480Y-83253520D01*
X121412000Y-83253520D02*
X124523000Y-86364520D01*
X119057480Y-83253520D02*
X121412000Y-83253520D01*
D18*
X107585027Y-93919520D02*
X120253280Y-93919520D01*
X100272891Y-90106500D02*
X103628813Y-93462422D01*
X99765000Y-85160000D02*
X98564489Y-86360511D01*
X107127928Y-93462422D02*
X107585027Y-93919520D01*
D19*
%TO.N,+3V3*%
X119733709Y-82804000D02*
X121920000Y-82804000D01*
X105791000Y-80264000D02*
X105943533Y-80111467D01*
X109118533Y-80111467D02*
X110490000Y-78740000D01*
X117701709Y-80772000D02*
X119733709Y-82804000D01*
X111125000Y-80772000D02*
X117701709Y-80772000D01*
X105943533Y-80111467D02*
X109118533Y-80111467D01*
D20*
%TO.N,/D_P*%
X100711000Y-87082500D02*
X99314000Y-88479500D01*
X100711000Y-86995000D02*
X100711000Y-87082500D01*
%TO.N,/U_P*%
X108274001Y-87341499D02*
X118100501Y-87341499D01*
X108077000Y-87538500D02*
X108274001Y-87341499D01*
X118100501Y-87341499D02*
X120142000Y-85300000D01*
%TO.N,/U_N*%
X118535000Y-87757000D02*
X120142000Y-86150000D01*
X108394500Y-88138000D02*
X108775500Y-87757000D01*
X107315000Y-88138000D02*
X108394500Y-88138000D01*
X108775500Y-87757000D02*
X118535000Y-87757000D01*
D19*
%TO.N,/RST*%
X112823571Y-82756429D02*
X112776000Y-82804000D01*
X117935429Y-82756429D02*
X112823571Y-82756429D01*
%TO.N,/HWB*%
X113385600Y-91440000D02*
X108204000Y-91440000D01*
X117099520Y-92895480D02*
X119063000Y-90932000D01*
X108204000Y-91440000D02*
X105537000Y-88773000D01*
X114601980Y-92895480D02*
X117099520Y-92895480D01*
X105537000Y-88773000D02*
X105537000Y-82677000D01*
X105537000Y-82677000D02*
X107028502Y-81185498D01*
X114427000Y-92720500D02*
X114427000Y-92481400D01*
X114427000Y-92720500D02*
X114601980Y-92895480D01*
X114427000Y-92481400D02*
X113385600Y-91440000D01*
X107028502Y-81185498D02*
X107076020Y-81185498D01*
%TO.N,/D13*%
X112732420Y-91889520D02*
X108017803Y-91889520D01*
X105087480Y-88959197D02*
X105087480Y-82290845D01*
X113563400Y-92720500D02*
X112732420Y-91889520D01*
X109431013Y-80560987D02*
X110077489Y-79914511D01*
X106817338Y-80560987D02*
X109431013Y-80560987D01*
X105087480Y-82290845D02*
X106817338Y-80560987D01*
X117727413Y-79914511D02*
X118237000Y-80424098D01*
X110077489Y-79914511D02*
X117727413Y-79914511D01*
X108017803Y-91889520D02*
X105087480Y-88959197D01*
%TO.N,/RXLED*%
X118559940Y-82497747D02*
X118142543Y-82080350D01*
X118142543Y-82080350D02*
X108546650Y-82080350D01*
X118056622Y-83518429D02*
X118559940Y-83015111D01*
X107569000Y-83058000D02*
X107569000Y-85945980D01*
X117173429Y-83518429D02*
X118056622Y-83518429D01*
X107569000Y-85945980D02*
X107061000Y-86453980D01*
X118559940Y-83015111D02*
X118559940Y-82497747D01*
X108546650Y-82080350D02*
X107569000Y-83058000D01*
%TO.N,/D7*%
X107188000Y-92710000D02*
X107823000Y-93345000D01*
X107823000Y-93345000D02*
X117533193Y-93345000D01*
X120396000Y-90482193D02*
X120396000Y-88265000D01*
X117533193Y-93345000D02*
X120396000Y-90482193D01*
%TO.N,/D12*%
X116126839Y-81455839D02*
X107871061Y-81455839D01*
X107871061Y-81455839D02*
X106096982Y-83229918D01*
X106096982Y-83229918D02*
X106096982Y-88383393D01*
X106096982Y-88383393D02*
X107756589Y-90043000D01*
%TO.N,/D5*%
X112565302Y-92717498D02*
X112562760Y-92720040D01*
X105913333Y-92085489D02*
X105285911Y-92712911D01*
X112562760Y-92720040D02*
X108212605Y-92720040D01*
X108212605Y-92720040D02*
X107578054Y-92085489D01*
X107578054Y-92085489D02*
X105913333Y-92085489D01*
%TD*%
%TA.AperFunction,Conductor*%
%TO.N,GND*%
G36*
X96629092Y-77744002D02*
G01*
X96675585Y-77797658D01*
X96686204Y-77861393D01*
X96685500Y-77864933D01*
X96685500Y-77871123D01*
X96685501Y-78740068D01*
X96685501Y-79615066D01*
X96700266Y-79689301D01*
X96707161Y-79699620D01*
X96707162Y-79699622D01*
X96747516Y-79760015D01*
X96756516Y-79773484D01*
X96840699Y-79829734D01*
X96914933Y-79844500D01*
X97789858Y-79844500D01*
X98665066Y-79844499D01*
X98700818Y-79837388D01*
X98727126Y-79832156D01*
X98727128Y-79832155D01*
X98739301Y-79829734D01*
X98749621Y-79822839D01*
X98749622Y-79822838D01*
X98813168Y-79780377D01*
X98823484Y-79773484D01*
X98879734Y-79689301D01*
X98894500Y-79615067D01*
X98894499Y-77864934D01*
X98893806Y-77861450D01*
X98906863Y-77792598D01*
X98955703Y-77741069D01*
X99019028Y-77724000D01*
X99478487Y-77724000D01*
X99546608Y-77744002D01*
X99593101Y-77797658D01*
X99603205Y-77867932D01*
X99573711Y-77932512D01*
X99561565Y-77944732D01*
X99525392Y-77976455D01*
X99399720Y-78135869D01*
X99397031Y-78140980D01*
X99397029Y-78140983D01*
X99384073Y-78165609D01*
X99305203Y-78315515D01*
X99245007Y-78509378D01*
X99221148Y-78710964D01*
X99234424Y-78913522D01*
X99235845Y-78919118D01*
X99235846Y-78919123D01*
X99256119Y-78998945D01*
X99284392Y-79110269D01*
X99286807Y-79115507D01*
X99286809Y-79115512D01*
X99322264Y-79192420D01*
X99369377Y-79294616D01*
X99486533Y-79460389D01*
X99490675Y-79464424D01*
X99592777Y-79563886D01*
X99631938Y-79602035D01*
X99800720Y-79714812D01*
X99806023Y-79717090D01*
X99806026Y-79717092D01*
X99937283Y-79773484D01*
X99987228Y-79794942D01*
X100060244Y-79811464D01*
X100179579Y-79838467D01*
X100179584Y-79838468D01*
X100185216Y-79839742D01*
X100190987Y-79839969D01*
X100190989Y-79839969D01*
X100250756Y-79842317D01*
X100388053Y-79847712D01*
X100495348Y-79832155D01*
X100583231Y-79819413D01*
X100583236Y-79819412D01*
X100588945Y-79818584D01*
X100594409Y-79816729D01*
X100594414Y-79816728D01*
X100775693Y-79755192D01*
X100775698Y-79755190D01*
X100781165Y-79753334D01*
X100814880Y-79734453D01*
X100865975Y-79705838D01*
X100958276Y-79654147D01*
X100997969Y-79621135D01*
X101109913Y-79528031D01*
X101114345Y-79524345D01*
X101138172Y-79495696D01*
X101240453Y-79372718D01*
X101240455Y-79372715D01*
X101244147Y-79368276D01*
X101334664Y-79206647D01*
X101340510Y-79196208D01*
X101340511Y-79196206D01*
X101343334Y-79191165D01*
X101345190Y-79185698D01*
X101345192Y-79185693D01*
X101406728Y-79004414D01*
X101406729Y-79004409D01*
X101408584Y-78998945D01*
X101409412Y-78993236D01*
X101409413Y-78993231D01*
X101437179Y-78801727D01*
X101437712Y-78798053D01*
X101439232Y-78740000D01*
X101420658Y-78537859D01*
X101415949Y-78521161D01*
X101367125Y-78348046D01*
X101367124Y-78348044D01*
X101365557Y-78342487D01*
X101354978Y-78321033D01*
X101278331Y-78165609D01*
X101275776Y-78160428D01*
X101154320Y-77997779D01*
X101127134Y-77972648D01*
X101094546Y-77942524D01*
X101058101Y-77881596D01*
X101060382Y-77810636D01*
X101100665Y-77752174D01*
X101166160Y-77724771D01*
X101180075Y-77724000D01*
X102018487Y-77724000D01*
X102086608Y-77744002D01*
X102133101Y-77797658D01*
X102143205Y-77867932D01*
X102113711Y-77932512D01*
X102101565Y-77944732D01*
X102065392Y-77976455D01*
X101939720Y-78135869D01*
X101937031Y-78140980D01*
X101937029Y-78140983D01*
X101924073Y-78165609D01*
X101845203Y-78315515D01*
X101785007Y-78509378D01*
X101761148Y-78710964D01*
X101774424Y-78913522D01*
X101775845Y-78919118D01*
X101775846Y-78919123D01*
X101796119Y-78998945D01*
X101824392Y-79110269D01*
X101826807Y-79115507D01*
X101826809Y-79115512D01*
X101862264Y-79192420D01*
X101909377Y-79294616D01*
X102026533Y-79460389D01*
X102030675Y-79464424D01*
X102132777Y-79563886D01*
X102171938Y-79602035D01*
X102340720Y-79714812D01*
X102346023Y-79717090D01*
X102346026Y-79717092D01*
X102477283Y-79773484D01*
X102527228Y-79794942D01*
X102600244Y-79811464D01*
X102719579Y-79838467D01*
X102719584Y-79838468D01*
X102725216Y-79839742D01*
X102730987Y-79839969D01*
X102730989Y-79839969D01*
X102790756Y-79842317D01*
X102928053Y-79847712D01*
X103035348Y-79832155D01*
X103123231Y-79819413D01*
X103123236Y-79819412D01*
X103128945Y-79818584D01*
X103134409Y-79816729D01*
X103134414Y-79816728D01*
X103315693Y-79755192D01*
X103315698Y-79755190D01*
X103321165Y-79753334D01*
X103354880Y-79734453D01*
X103405975Y-79705838D01*
X103498276Y-79654147D01*
X103537969Y-79621135D01*
X103649913Y-79528031D01*
X103654345Y-79524345D01*
X103678172Y-79495696D01*
X103780453Y-79372718D01*
X103780455Y-79372715D01*
X103784147Y-79368276D01*
X103874664Y-79206647D01*
X103880510Y-79196208D01*
X103880511Y-79196206D01*
X103883334Y-79191165D01*
X103885190Y-79185698D01*
X103885192Y-79185693D01*
X103946728Y-79004414D01*
X103946729Y-79004409D01*
X103948584Y-78998945D01*
X103949412Y-78993236D01*
X103949413Y-78993231D01*
X103977179Y-78801727D01*
X103977712Y-78798053D01*
X103979232Y-78740000D01*
X103960658Y-78537859D01*
X103955949Y-78521161D01*
X103907125Y-78348046D01*
X103907124Y-78348044D01*
X103905557Y-78342487D01*
X103894978Y-78321033D01*
X103818331Y-78165609D01*
X103815776Y-78160428D01*
X103694320Y-77997779D01*
X103667134Y-77972648D01*
X103634546Y-77942524D01*
X103598101Y-77881596D01*
X103600382Y-77810636D01*
X103640665Y-77752174D01*
X103706160Y-77724771D01*
X103720075Y-77724000D01*
X104558487Y-77724000D01*
X104626608Y-77744002D01*
X104673101Y-77797658D01*
X104683205Y-77867932D01*
X104653711Y-77932512D01*
X104641565Y-77944732D01*
X104605392Y-77976455D01*
X104479720Y-78135869D01*
X104477031Y-78140980D01*
X104477029Y-78140983D01*
X104464073Y-78165609D01*
X104385203Y-78315515D01*
X104325007Y-78509378D01*
X104301148Y-78710964D01*
X104314424Y-78913522D01*
X104315845Y-78919118D01*
X104315846Y-78919123D01*
X104336119Y-78998945D01*
X104364392Y-79110269D01*
X104366807Y-79115507D01*
X104366809Y-79115512D01*
X104402264Y-79192420D01*
X104449377Y-79294616D01*
X104566533Y-79460389D01*
X104570675Y-79464424D01*
X104672777Y-79563886D01*
X104711938Y-79602035D01*
X104880720Y-79714812D01*
X104886023Y-79717090D01*
X104886026Y-79717092D01*
X105017283Y-79773484D01*
X105067228Y-79794942D01*
X105212053Y-79827712D01*
X105274078Y-79862255D01*
X105307583Y-79924848D01*
X105300653Y-79998824D01*
X105250772Y-80119246D01*
X105249695Y-80127430D01*
X105249694Y-80127432D01*
X105247453Y-80144456D01*
X105231715Y-80264000D01*
X105232793Y-80272188D01*
X105240525Y-80330916D01*
X105250772Y-80408754D01*
X105306645Y-80543642D01*
X105311672Y-80550193D01*
X105370797Y-80627246D01*
X105395526Y-80659474D01*
X105402076Y-80664500D01*
X105402079Y-80664503D01*
X105461751Y-80710291D01*
X105511357Y-80748355D01*
X105646246Y-80804228D01*
X105654434Y-80805306D01*
X105738581Y-80816384D01*
X105803508Y-80845106D01*
X105842600Y-80904371D01*
X105843445Y-80975363D01*
X105811230Y-81030401D01*
X104857264Y-81984367D01*
X104838516Y-81999509D01*
X104837291Y-82000624D01*
X104828540Y-82006274D01*
X104822093Y-82014452D01*
X104822091Y-82014454D01*
X104807751Y-82032645D01*
X104803805Y-82037086D01*
X104803878Y-82037148D01*
X104800519Y-82041112D01*
X104796842Y-82044789D01*
X104785588Y-82060537D01*
X104782082Y-82065207D01*
X104750324Y-82105492D01*
X104747292Y-82114126D01*
X104741966Y-82121579D01*
X104738981Y-82131560D01*
X104727279Y-82170689D01*
X104725444Y-82176337D01*
X104708462Y-82224696D01*
X104707980Y-82230261D01*
X104707980Y-82232969D01*
X104707866Y-82235603D01*
X104707837Y-82235701D01*
X104707673Y-82235694D01*
X104707629Y-82236398D01*
X104705767Y-82242623D01*
X104706176Y-82253028D01*
X104707883Y-82296480D01*
X104707980Y-82301427D01*
X104707980Y-88905277D01*
X104705431Y-88929225D01*
X104705352Y-88930890D01*
X104703160Y-88941073D01*
X104705868Y-88963956D01*
X104707107Y-88974420D01*
X104707457Y-88980351D01*
X104707552Y-88980343D01*
X104707980Y-88985521D01*
X104707980Y-88990721D01*
X104708834Y-88995850D01*
X104708834Y-88995853D01*
X104711149Y-89009762D01*
X104711986Y-89015640D01*
X104718010Y-89066538D01*
X104721973Y-89074790D01*
X104723476Y-89083823D01*
X104728423Y-89092992D01*
X104728424Y-89092994D01*
X104747814Y-89128929D01*
X104750511Y-89134222D01*
X104769265Y-89173279D01*
X104769268Y-89173283D01*
X104772699Y-89180429D01*
X104776294Y-89184705D01*
X104778217Y-89186628D01*
X104779989Y-89188560D01*
X104780032Y-89188639D01*
X104779908Y-89188752D01*
X104780384Y-89189292D01*
X104783470Y-89195011D01*
X104791115Y-89202078D01*
X104823066Y-89231613D01*
X104826632Y-89235043D01*
X106051075Y-90459486D01*
X106085101Y-90521798D01*
X106083687Y-90581192D01*
X106082345Y-90586202D01*
X106079183Y-90593835D01*
X106060126Y-90738589D01*
X106061204Y-90746777D01*
X106077702Y-90872092D01*
X106079183Y-90883343D01*
X106087563Y-90903574D01*
X106131487Y-91009614D01*
X106135056Y-91018231D01*
X106167529Y-91060551D01*
X106218867Y-91127455D01*
X106223937Y-91134063D01*
X106230487Y-91139089D01*
X106230490Y-91139092D01*
X106318559Y-91206670D01*
X106339768Y-91222944D01*
X106347396Y-91226104D01*
X106347402Y-91226107D01*
X106354336Y-91228979D01*
X106409617Y-91273527D01*
X106432037Y-91340891D01*
X106430834Y-91363312D01*
X106426000Y-91396936D01*
X106426000Y-91579989D01*
X106405998Y-91648110D01*
X106352342Y-91694603D01*
X106300000Y-91705989D01*
X105967258Y-91705989D01*
X105943300Y-91703439D01*
X105941641Y-91703361D01*
X105931457Y-91701168D01*
X105921115Y-91702392D01*
X105921112Y-91702392D01*
X105898112Y-91705115D01*
X105892181Y-91705465D01*
X105892189Y-91705561D01*
X105887013Y-91705989D01*
X105881809Y-91705989D01*
X105862745Y-91709162D01*
X105856899Y-91709993D01*
X105845450Y-91711348D01*
X105805992Y-91716019D01*
X105797740Y-91719982D01*
X105788707Y-91721485D01*
X105779538Y-91726432D01*
X105779536Y-91726433D01*
X105743601Y-91745823D01*
X105738309Y-91748520D01*
X105692101Y-91770708D01*
X105687826Y-91774302D01*
X105685901Y-91776227D01*
X105683971Y-91777998D01*
X105683886Y-91778044D01*
X105683774Y-91777921D01*
X105683239Y-91778393D01*
X105677519Y-91781479D01*
X105670452Y-91789124D01*
X105640917Y-91821075D01*
X105637487Y-91824641D01*
X105342171Y-92119957D01*
X105279859Y-92153983D01*
X105269531Y-92155782D01*
X105208304Y-92163843D01*
X105149343Y-92171605D01*
X105149341Y-92171606D01*
X105141157Y-92172683D01*
X105107899Y-92186459D01*
X105013897Y-92225396D01*
X105013895Y-92225397D01*
X105006269Y-92228556D01*
X104890437Y-92317437D01*
X104801556Y-92433269D01*
X104745683Y-92568157D01*
X104744606Y-92576341D01*
X104744605Y-92576343D01*
X104734387Y-92653962D01*
X104726626Y-92712911D01*
X104727704Y-92721099D01*
X104740129Y-92815476D01*
X104729190Y-92885624D01*
X104682062Y-92938723D01*
X104615207Y-92957922D01*
X103889974Y-92957922D01*
X103821853Y-92937920D01*
X103800879Y-92921017D01*
X100679568Y-89799706D01*
X100672026Y-89790266D01*
X100671646Y-89790589D01*
X100665828Y-89783753D01*
X100661038Y-89776161D01*
X100621031Y-89740828D01*
X100615345Y-89735483D01*
X100604011Y-89724149D01*
X100595736Y-89717947D01*
X100587891Y-89711560D01*
X100559448Y-89686440D01*
X100552721Y-89680499D01*
X100544599Y-89676686D01*
X100541798Y-89674846D01*
X100527803Y-89666437D01*
X100524840Y-89664815D01*
X100517655Y-89659430D01*
X100509245Y-89656277D01*
X100509243Y-89656276D01*
X100473709Y-89642954D01*
X100464393Y-89639029D01*
X100454968Y-89634604D01*
X100421909Y-89619083D01*
X100413035Y-89617701D01*
X100409808Y-89616715D01*
X100394025Y-89612575D01*
X100390747Y-89611854D01*
X100382339Y-89608702D01*
X100368582Y-89607680D01*
X100335534Y-89605224D01*
X100325487Y-89604070D01*
X100317005Y-89602749D01*
X100317002Y-89602749D01*
X100312194Y-89602000D01*
X100296829Y-89602000D01*
X100287492Y-89601654D01*
X100279939Y-89601093D01*
X100238224Y-89597993D01*
X100230204Y-89599705D01*
X100161261Y-89584467D01*
X100146842Y-89574272D01*
X100146684Y-89574500D01*
X100140451Y-89570168D01*
X100134775Y-89565111D01*
X99994774Y-89490984D01*
X99987411Y-89489135D01*
X99987407Y-89489133D01*
X99843832Y-89453070D01*
X99785432Y-89419961D01*
X99540083Y-89174612D01*
X99506057Y-89112300D01*
X99511122Y-89041485D01*
X99553669Y-88984649D01*
X99580964Y-88969107D01*
X99586011Y-88967017D01*
X99586015Y-88967014D01*
X99593643Y-88963855D01*
X99607593Y-88953151D01*
X99702921Y-88880003D01*
X99702924Y-88880000D01*
X99709474Y-88874974D01*
X99734880Y-88841865D01*
X99793328Y-88765693D01*
X99798355Y-88759142D01*
X99811357Y-88727754D01*
X99851069Y-88631880D01*
X99854228Y-88624254D01*
X99873285Y-88479500D01*
X99872526Y-88473735D01*
X99892209Y-88406701D01*
X99909112Y-88385727D01*
X100714790Y-87580049D01*
X100777102Y-87546023D01*
X100787438Y-87544222D01*
X100847566Y-87536306D01*
X100855754Y-87535228D01*
X100990643Y-87479355D01*
X100997196Y-87474327D01*
X101099921Y-87395503D01*
X101099924Y-87395500D01*
X101106474Y-87390474D01*
X101195355Y-87274642D01*
X101198734Y-87266486D01*
X101248069Y-87147380D01*
X101251228Y-87139754D01*
X101253365Y-87123526D01*
X101269207Y-87003188D01*
X101269207Y-87003187D01*
X101270285Y-86995000D01*
X101262163Y-86933306D01*
X101252306Y-86858432D01*
X101252305Y-86858430D01*
X101251228Y-86850246D01*
X101205634Y-86740173D01*
X101198515Y-86722986D01*
X101198514Y-86722984D01*
X101195355Y-86715358D01*
X101106474Y-86599526D01*
X101099924Y-86594500D01*
X101099921Y-86594497D01*
X100997196Y-86515673D01*
X100997194Y-86515672D01*
X100990643Y-86510645D01*
X100855754Y-86454772D01*
X100711000Y-86435715D01*
X100702812Y-86436793D01*
X100574432Y-86453694D01*
X100574430Y-86453695D01*
X100566246Y-86454772D01*
X100518430Y-86474578D01*
X100438986Y-86507485D01*
X100438984Y-86507486D01*
X100431358Y-86510645D01*
X100315526Y-86599526D01*
X100226645Y-86715358D01*
X100223486Y-86722984D01*
X100223485Y-86722986D01*
X100216366Y-86740173D01*
X100170772Y-86850246D01*
X100169695Y-86858430D01*
X100169694Y-86858432D01*
X100159837Y-86933306D01*
X100151715Y-86995000D01*
X100160526Y-87061922D01*
X100149587Y-87132069D01*
X100124699Y-87167463D01*
X99407774Y-87884388D01*
X99345462Y-87918414D01*
X99320611Y-87921085D01*
X99314000Y-87920215D01*
X99211434Y-87933718D01*
X99141287Y-87922779D01*
X99088188Y-87875651D01*
X99068989Y-87808796D01*
X99068989Y-86621672D01*
X99088991Y-86553551D01*
X99105894Y-86532577D01*
X99793834Y-85844637D01*
X99854800Y-85810912D01*
X99980927Y-85782025D01*
X99988332Y-85780329D01*
X100077497Y-85735484D01*
X100123072Y-85712563D01*
X100123075Y-85712561D01*
X100129855Y-85709151D01*
X100135626Y-85704222D01*
X100135629Y-85704220D01*
X100244536Y-85611204D01*
X100244536Y-85611203D01*
X100250314Y-85606269D01*
X100342755Y-85477624D01*
X100401842Y-85330641D01*
X100424162Y-85173807D01*
X100424307Y-85160000D01*
X100405276Y-85002733D01*
X100349280Y-84854546D01*
X100300496Y-84783564D01*
X100263855Y-84730251D01*
X100263854Y-84730249D01*
X100259553Y-84723992D01*
X100141275Y-84618611D01*
X100133889Y-84614700D01*
X100007988Y-84548039D01*
X100007989Y-84548039D01*
X100001274Y-84544484D01*
X99847633Y-84505892D01*
X99840034Y-84505852D01*
X99840033Y-84505852D01*
X99774181Y-84505507D01*
X99689221Y-84505062D01*
X99681841Y-84506834D01*
X99681839Y-84506834D01*
X99542563Y-84540271D01*
X99542560Y-84540272D01*
X99535184Y-84542043D01*
X99394414Y-84614700D01*
X99275039Y-84718838D01*
X99183950Y-84848444D01*
X99126406Y-84996037D01*
X99125415Y-85003568D01*
X99125414Y-85003570D01*
X99118482Y-85056226D01*
X99089759Y-85121153D01*
X99082655Y-85128874D01*
X98257695Y-85953834D01*
X98248255Y-85961376D01*
X98248578Y-85961756D01*
X98241742Y-85967574D01*
X98234150Y-85972364D01*
X98228208Y-85979092D01*
X98198818Y-86012370D01*
X98193472Y-86018057D01*
X98182138Y-86029391D01*
X98179453Y-86032974D01*
X98179451Y-86032976D01*
X98175936Y-86037666D01*
X98169551Y-86045509D01*
X98138488Y-86080681D01*
X98134675Y-86088803D01*
X98132835Y-86091604D01*
X98124426Y-86105599D01*
X98122804Y-86108562D01*
X98117419Y-86115747D01*
X98114266Y-86124157D01*
X98114265Y-86124159D01*
X98100943Y-86159693D01*
X98097019Y-86169006D01*
X98077072Y-86211493D01*
X98075690Y-86220367D01*
X98074704Y-86223594D01*
X98070564Y-86239377D01*
X98069843Y-86242655D01*
X98066691Y-86251063D01*
X98066026Y-86260014D01*
X98063213Y-86297868D01*
X98062059Y-86307915D01*
X98059989Y-86321208D01*
X98059989Y-86336573D01*
X98059643Y-86345910D01*
X98055982Y-86395178D01*
X98057855Y-86403953D01*
X98058448Y-86412649D01*
X98059989Y-86427249D01*
X98059989Y-88841865D01*
X98058648Y-88853870D01*
X98059144Y-88853910D01*
X98058424Y-88862857D01*
X98056443Y-88871613D01*
X98056999Y-88880573D01*
X98059747Y-88924871D01*
X98059989Y-88932673D01*
X98059989Y-88948715D01*
X98061438Y-88958827D01*
X98061454Y-88958942D01*
X98062485Y-88969003D01*
X98065391Y-89015848D01*
X98068438Y-89024288D01*
X98069119Y-89027578D01*
X98073071Y-89043427D01*
X98074016Y-89046657D01*
X98075288Y-89055541D01*
X98079003Y-89063712D01*
X98094707Y-89098252D01*
X98098519Y-89107617D01*
X98111411Y-89143326D01*
X98111413Y-89143329D01*
X98114461Y-89151773D01*
X98119757Y-89159022D01*
X98121329Y-89161979D01*
X98129582Y-89176103D01*
X98131387Y-89178926D01*
X98135101Y-89187094D01*
X98140958Y-89193891D01*
X98140959Y-89193893D01*
X98165732Y-89222642D01*
X98172014Y-89230553D01*
X98179962Y-89241433D01*
X98183398Y-89244868D01*
X98183399Y-89244870D01*
X98190826Y-89252296D01*
X98197189Y-89259150D01*
X98223570Y-89289768D01*
X98223575Y-89289772D01*
X98229433Y-89296571D01*
X98236967Y-89301454D01*
X98243540Y-89307188D01*
X98254944Y-89316415D01*
X99075524Y-90136995D01*
X99109550Y-90199307D01*
X99111667Y-90212259D01*
X99116613Y-90257053D01*
X99119223Y-90264184D01*
X99119223Y-90264186D01*
X99120901Y-90268770D01*
X99171053Y-90405819D01*
X99175289Y-90412122D01*
X99175289Y-90412123D01*
X99216929Y-90474089D01*
X99259408Y-90537305D01*
X99265027Y-90542418D01*
X99265028Y-90542419D01*
X99279014Y-90555145D01*
X99376576Y-90643919D01*
X99515793Y-90719508D01*
X99669022Y-90759707D01*
X99752977Y-90761026D01*
X99819819Y-90762076D01*
X99819822Y-90762076D01*
X99827416Y-90762195D01*
X99981832Y-90726829D01*
X100032185Y-90701504D01*
X100102029Y-90688766D01*
X100167673Y-90715810D01*
X100177894Y-90724974D01*
X103222136Y-93769216D01*
X103229678Y-93778656D01*
X103230058Y-93778333D01*
X103235876Y-93785169D01*
X103240666Y-93792761D01*
X103247394Y-93798703D01*
X103280672Y-93828093D01*
X103286359Y-93833439D01*
X103297693Y-93844773D01*
X103301279Y-93847460D01*
X103301284Y-93847465D01*
X103305972Y-93850979D01*
X103313810Y-93857360D01*
X103348983Y-93888423D01*
X103357106Y-93892237D01*
X103359917Y-93894083D01*
X103373916Y-93902494D01*
X103376865Y-93904108D01*
X103384048Y-93909492D01*
X103420836Y-93923283D01*
X103427987Y-93925964D01*
X103437307Y-93929891D01*
X103479795Y-93949839D01*
X103488666Y-93951220D01*
X103491888Y-93952205D01*
X103507659Y-93956342D01*
X103510953Y-93957066D01*
X103519365Y-93960220D01*
X103528323Y-93960886D01*
X103528324Y-93960886D01*
X103566163Y-93963698D01*
X103576187Y-93964848D01*
X103589510Y-93966922D01*
X103604875Y-93966922D01*
X103614212Y-93967268D01*
X103663479Y-93970929D01*
X103672254Y-93969056D01*
X103680950Y-93968463D01*
X103695550Y-93966922D01*
X106866768Y-93966922D01*
X106934889Y-93986924D01*
X106955863Y-94003827D01*
X107178351Y-94226315D01*
X107185895Y-94235757D01*
X107186274Y-94235434D01*
X107192090Y-94242268D01*
X107196880Y-94249859D01*
X107203606Y-94255799D01*
X107203610Y-94255804D01*
X107236893Y-94285198D01*
X107242581Y-94290544D01*
X107253908Y-94301871D01*
X107257491Y-94304556D01*
X107257493Y-94304558D01*
X107262179Y-94308070D01*
X107270022Y-94314455D01*
X107305197Y-94345521D01*
X107313324Y-94349336D01*
X107316144Y-94351189D01*
X107330131Y-94359593D01*
X107333081Y-94361208D01*
X107340263Y-94366591D01*
X107348664Y-94369740D01*
X107348671Y-94369744D01*
X107384206Y-94383065D01*
X107393525Y-94386992D01*
X107427877Y-94403120D01*
X107427883Y-94403122D01*
X107436009Y-94406937D01*
X107444881Y-94408319D01*
X107448078Y-94409296D01*
X107463902Y-94413447D01*
X107467170Y-94414166D01*
X107475580Y-94417318D01*
X107493076Y-94418618D01*
X107522373Y-94420795D01*
X107532421Y-94421949D01*
X107540906Y-94423270D01*
X107540909Y-94423270D01*
X107545724Y-94424020D01*
X107561090Y-94424020D01*
X107570427Y-94424366D01*
X107619694Y-94428027D01*
X107628470Y-94426154D01*
X107637164Y-94425561D01*
X107651764Y-94424020D01*
X120182656Y-94424020D01*
X120194661Y-94425361D01*
X120194701Y-94424865D01*
X120203648Y-94425585D01*
X120212404Y-94427566D01*
X120265662Y-94424262D01*
X120273464Y-94424020D01*
X120289506Y-94424020D01*
X120293937Y-94423385D01*
X120293942Y-94423385D01*
X120297967Y-94422808D01*
X120299737Y-94422555D01*
X120309794Y-94421524D01*
X120332256Y-94420131D01*
X120347680Y-94419174D01*
X120347682Y-94419174D01*
X120356639Y-94418618D01*
X120365079Y-94415571D01*
X120368369Y-94414890D01*
X120384218Y-94410938D01*
X120387448Y-94409993D01*
X120396332Y-94408721D01*
X120439043Y-94389302D01*
X120448408Y-94385490D01*
X120484117Y-94372598D01*
X120484120Y-94372596D01*
X120492564Y-94369548D01*
X120499813Y-94364252D01*
X120502770Y-94362680D01*
X120516894Y-94354427D01*
X120519717Y-94352622D01*
X120527885Y-94348908D01*
X120534682Y-94343051D01*
X120534684Y-94343050D01*
X120563433Y-94318277D01*
X120571344Y-94311995D01*
X120582224Y-94304047D01*
X120593086Y-94293185D01*
X120599933Y-94286827D01*
X120630562Y-94260435D01*
X120637362Y-94254576D01*
X120642246Y-94247041D01*
X120647979Y-94240469D01*
X120657206Y-94229065D01*
X123509283Y-91376988D01*
X123518723Y-91369446D01*
X123518400Y-91369066D01*
X123525236Y-91363248D01*
X123532828Y-91358458D01*
X123568161Y-91318451D01*
X123573506Y-91312765D01*
X123584840Y-91301431D01*
X123587527Y-91297845D01*
X123587532Y-91297840D01*
X123591046Y-91293152D01*
X123597427Y-91285314D01*
X123622549Y-91256868D01*
X123628490Y-91250141D01*
X123632304Y-91242018D01*
X123634150Y-91239207D01*
X123642561Y-91225208D01*
X123644175Y-91222259D01*
X123649559Y-91215076D01*
X123666031Y-91171137D01*
X123669958Y-91161817D01*
X123686091Y-91127455D01*
X123686091Y-91127454D01*
X123689906Y-91119329D01*
X123691287Y-91110458D01*
X123692272Y-91107236D01*
X123696409Y-91091465D01*
X123697133Y-91088171D01*
X123700287Y-91079759D01*
X123701040Y-91069634D01*
X123703765Y-91032961D01*
X123704915Y-91022937D01*
X123706989Y-91009614D01*
X123706989Y-90994249D01*
X123707335Y-90984912D01*
X123710331Y-90944593D01*
X123710996Y-90935645D01*
X123709123Y-90926870D01*
X123708530Y-90918174D01*
X123706989Y-90903574D01*
X123706989Y-90164672D01*
X123726991Y-90096551D01*
X123743889Y-90075582D01*
X124698665Y-89120805D01*
X124739539Y-89093494D01*
X124802643Y-89067355D01*
X124817183Y-89056198D01*
X124911921Y-88983503D01*
X124911924Y-88983500D01*
X124918474Y-88978474D01*
X124925735Y-88969012D01*
X125002328Y-88869193D01*
X125007355Y-88862642D01*
X125063228Y-88727754D01*
X125072086Y-88660474D01*
X125081207Y-88591188D01*
X125082285Y-88583000D01*
X125063228Y-88438246D01*
X125033493Y-88366460D01*
X125010515Y-88310986D01*
X125010514Y-88310984D01*
X125007355Y-88303358D01*
X124948149Y-88226199D01*
X124928537Y-88200640D01*
X124902937Y-88134419D01*
X124902500Y-88123936D01*
X124902500Y-86897399D01*
X132978712Y-86897399D01*
X133000194Y-86986537D01*
X133004083Y-86997832D01*
X133086629Y-87179382D01*
X133092576Y-87189724D01*
X133207968Y-87352397D01*
X133215761Y-87361425D01*
X133359831Y-87499342D01*
X133369196Y-87506738D01*
X133511423Y-87598573D01*
X133557801Y-87652328D01*
X133567754Y-87722624D01*
X133538122Y-87787141D01*
X133487304Y-87822407D01*
X133459236Y-87832929D01*
X133452057Y-87838309D01*
X133452054Y-87838311D01*
X133390574Y-87884388D01*
X133343596Y-87919596D01*
X133338215Y-87926776D01*
X133262311Y-88028054D01*
X133262309Y-88028057D01*
X133256929Y-88035236D01*
X133206202Y-88170552D01*
X133199500Y-88232244D01*
X133199500Y-89027756D01*
X133206202Y-89089448D01*
X133256929Y-89224764D01*
X133262309Y-89231943D01*
X133262311Y-89231946D01*
X133310745Y-89296571D01*
X133343596Y-89340404D01*
X133350776Y-89345785D01*
X133452054Y-89421689D01*
X133452057Y-89421691D01*
X133459236Y-89427071D01*
X133548954Y-89460704D01*
X133587157Y-89475026D01*
X133587159Y-89475026D01*
X133594552Y-89477798D01*
X133602402Y-89478651D01*
X133602403Y-89478651D01*
X133652847Y-89484131D01*
X133656244Y-89484500D01*
X135001756Y-89484500D01*
X135005153Y-89484131D01*
X135055597Y-89478651D01*
X135055598Y-89478651D01*
X135063448Y-89477798D01*
X135070841Y-89475026D01*
X135070843Y-89475026D01*
X135109046Y-89460704D01*
X135198764Y-89427071D01*
X135205943Y-89421691D01*
X135205946Y-89421689D01*
X135307224Y-89345785D01*
X135314404Y-89340404D01*
X135347255Y-89296571D01*
X135395689Y-89231946D01*
X135395691Y-89231943D01*
X135401071Y-89224764D01*
X135451798Y-89089448D01*
X135458500Y-89027756D01*
X135458500Y-88232244D01*
X135451798Y-88170552D01*
X135401071Y-88035236D01*
X135395691Y-88028057D01*
X135395689Y-88028054D01*
X135319785Y-87926776D01*
X135314404Y-87919596D01*
X135267426Y-87884388D01*
X135205946Y-87838311D01*
X135205943Y-87838309D01*
X135198764Y-87832929D01*
X135169557Y-87821980D01*
X135112793Y-87779338D01*
X135088093Y-87712776D01*
X135103301Y-87643428D01*
X135156095Y-87591982D01*
X135199978Y-87569381D01*
X135210024Y-87562931D01*
X135366857Y-87439738D01*
X135375506Y-87431501D01*
X135506212Y-87280877D01*
X135513147Y-87271153D01*
X135613010Y-87098533D01*
X135617984Y-87087669D01*
X135683407Y-86899273D01*
X135683648Y-86898284D01*
X135682180Y-86887992D01*
X135668615Y-86884000D01*
X132993598Y-86884000D01*
X132980067Y-86887973D01*
X132978712Y-86897399D01*
X124902500Y-86897399D01*
X124902500Y-86418440D01*
X124905049Y-86394493D01*
X124905128Y-86392827D01*
X124907320Y-86382644D01*
X124906096Y-86372302D01*
X124906096Y-86372299D01*
X124904843Y-86361716D01*
X132974352Y-86361716D01*
X132975820Y-86372008D01*
X132989385Y-86376000D01*
X134056885Y-86376000D01*
X134072124Y-86371525D01*
X134073329Y-86370135D01*
X134075000Y-86362452D01*
X134075000Y-86357885D01*
X134583000Y-86357885D01*
X134587475Y-86373124D01*
X134588865Y-86374329D01*
X134596548Y-86376000D01*
X135664402Y-86376000D01*
X135677933Y-86372027D01*
X135679288Y-86362601D01*
X135657806Y-86273463D01*
X135653917Y-86262168D01*
X135571371Y-86080618D01*
X135565424Y-86070276D01*
X135450032Y-85907603D01*
X135442239Y-85898575D01*
X135298169Y-85760658D01*
X135288804Y-85753262D01*
X135121259Y-85645079D01*
X135110655Y-85639583D01*
X134925688Y-85565039D01*
X134914230Y-85561645D01*
X134717072Y-85523143D01*
X134708209Y-85522066D01*
X134705500Y-85522000D01*
X134601115Y-85522000D01*
X134585876Y-85526475D01*
X134584671Y-85527865D01*
X134583000Y-85535548D01*
X134583000Y-86357885D01*
X134075000Y-86357885D01*
X134075000Y-85540115D01*
X134070525Y-85524876D01*
X134069135Y-85523671D01*
X134061452Y-85522000D01*
X134004168Y-85522000D01*
X133998192Y-85522285D01*
X133849506Y-85536471D01*
X133837772Y-85538730D01*
X133646401Y-85594872D01*
X133635325Y-85599302D01*
X133458022Y-85690619D01*
X133447976Y-85697069D01*
X133291143Y-85820262D01*
X133282494Y-85828499D01*
X133151788Y-85979123D01*
X133144853Y-85988847D01*
X133044990Y-86161467D01*
X133040016Y-86172331D01*
X132974593Y-86360727D01*
X132974352Y-86361716D01*
X124904843Y-86361716D01*
X124903374Y-86349307D01*
X124903023Y-86343366D01*
X124902928Y-86343374D01*
X124902500Y-86338194D01*
X124902500Y-86332996D01*
X124901349Y-86326077D01*
X124899329Y-86313947D01*
X124898492Y-86308067D01*
X124893693Y-86267517D01*
X124893692Y-86267515D01*
X124892469Y-86257179D01*
X124888508Y-86248930D01*
X124887004Y-86239894D01*
X124881963Y-86230551D01*
X124862652Y-86194760D01*
X124859957Y-86189471D01*
X124841212Y-86150435D01*
X124837780Y-86143288D01*
X124834186Y-86139012D01*
X124832246Y-86137072D01*
X124830493Y-86135161D01*
X124830444Y-86135071D01*
X124830567Y-86134959D01*
X124830095Y-86134424D01*
X124827010Y-86128706D01*
X124815564Y-86118125D01*
X124787414Y-86092104D01*
X124783848Y-86088674D01*
X122177954Y-83482780D01*
X122143928Y-83420468D01*
X122148993Y-83349653D01*
X122191540Y-83292817D01*
X122196046Y-83289845D01*
X122199643Y-83288355D01*
X122264241Y-83238787D01*
X122308921Y-83204503D01*
X122308924Y-83204500D01*
X122315474Y-83199474D01*
X122404355Y-83083642D01*
X122410004Y-83070006D01*
X122457069Y-82956380D01*
X122460228Y-82948754D01*
X122464297Y-82917852D01*
X122478207Y-82812188D01*
X122479285Y-82804000D01*
X122460228Y-82659246D01*
X122404355Y-82524358D01*
X122315474Y-82408526D01*
X122308924Y-82403500D01*
X122308921Y-82403497D01*
X122206196Y-82324673D01*
X122206194Y-82324672D01*
X122199643Y-82319645D01*
X122064754Y-82263772D01*
X121920000Y-82244715D01*
X121911812Y-82245793D01*
X121783432Y-82262694D01*
X121783430Y-82262695D01*
X121775246Y-82263772D01*
X121727430Y-82283578D01*
X121647986Y-82316485D01*
X121647984Y-82316486D01*
X121640358Y-82319645D01*
X121588887Y-82359140D01*
X121537640Y-82398463D01*
X121471419Y-82424063D01*
X121460936Y-82424500D01*
X119943093Y-82424500D01*
X119874972Y-82404498D01*
X119853998Y-82387595D01*
X118538010Y-81071607D01*
X118503984Y-81009295D01*
X118509049Y-80938480D01*
X118550400Y-80882550D01*
X118559239Y-80875768D01*
X118632474Y-80819572D01*
X118721355Y-80703740D01*
X118727308Y-80689370D01*
X118774069Y-80576478D01*
X118777228Y-80568852D01*
X118779685Y-80550193D01*
X118794462Y-80437943D01*
X118796285Y-80424098D01*
X118777228Y-80279344D01*
X118721355Y-80144456D01*
X118632474Y-80028624D01*
X118608203Y-80010000D01*
X133361210Y-80010000D01*
X133380334Y-80228587D01*
X133381758Y-80233900D01*
X133381758Y-80233902D01*
X133434915Y-80432286D01*
X133437124Y-80440532D01*
X133439446Y-80445512D01*
X133439447Y-80445514D01*
X133527530Y-80634408D01*
X133527533Y-80634413D01*
X133529856Y-80639395D01*
X133533012Y-80643902D01*
X133533013Y-80643904D01*
X133646028Y-80805306D01*
X133655711Y-80819135D01*
X133810865Y-80974289D01*
X133815373Y-80977446D01*
X133815376Y-80977448D01*
X133970932Y-81086369D01*
X133990605Y-81100144D01*
X133995587Y-81102467D01*
X133995592Y-81102470D01*
X134153700Y-81176197D01*
X134189468Y-81192876D01*
X134194776Y-81194298D01*
X134194778Y-81194299D01*
X134396098Y-81248242D01*
X134396100Y-81248242D01*
X134401413Y-81249666D01*
X134620000Y-81268790D01*
X134838587Y-81249666D01*
X134843900Y-81248242D01*
X134843902Y-81248242D01*
X135045222Y-81194299D01*
X135045224Y-81194298D01*
X135050532Y-81192876D01*
X135086300Y-81176197D01*
X135244408Y-81102470D01*
X135244413Y-81102467D01*
X135249395Y-81100144D01*
X135269068Y-81086369D01*
X135424624Y-80977448D01*
X135424627Y-80977446D01*
X135429135Y-80974289D01*
X135584289Y-80819135D01*
X135593973Y-80805306D01*
X135706987Y-80643904D01*
X135706988Y-80643902D01*
X135710144Y-80639395D01*
X135712467Y-80634413D01*
X135712470Y-80634408D01*
X135800553Y-80445514D01*
X135800554Y-80445512D01*
X135802876Y-80440532D01*
X135805086Y-80432286D01*
X135858242Y-80233902D01*
X135858242Y-80233900D01*
X135859666Y-80228587D01*
X135878790Y-80010000D01*
X135859666Y-79791413D01*
X135838281Y-79711602D01*
X135804299Y-79584778D01*
X135804298Y-79584776D01*
X135802876Y-79579468D01*
X135800553Y-79574486D01*
X135712470Y-79385592D01*
X135712467Y-79385587D01*
X135710144Y-79380605D01*
X135706987Y-79376096D01*
X135587448Y-79205376D01*
X135587446Y-79205373D01*
X135584289Y-79200865D01*
X135429135Y-79045711D01*
X135424627Y-79042554D01*
X135424624Y-79042552D01*
X135253904Y-78923013D01*
X135253902Y-78923012D01*
X135249395Y-78919856D01*
X135244413Y-78917533D01*
X135244408Y-78917530D01*
X135055514Y-78829447D01*
X135055512Y-78829446D01*
X135050532Y-78827124D01*
X135045224Y-78825702D01*
X135045222Y-78825701D01*
X134843902Y-78771758D01*
X134843900Y-78771758D01*
X134838587Y-78770334D01*
X134620000Y-78751210D01*
X134401413Y-78770334D01*
X134396100Y-78771758D01*
X134396098Y-78771758D01*
X134194778Y-78825701D01*
X134194776Y-78825702D01*
X134189468Y-78827124D01*
X134184488Y-78829446D01*
X134184486Y-78829447D01*
X133995592Y-78917530D01*
X133995587Y-78917533D01*
X133990605Y-78919856D01*
X133986098Y-78923012D01*
X133986096Y-78923013D01*
X133815376Y-79042552D01*
X133815373Y-79042554D01*
X133810865Y-79045711D01*
X133655711Y-79200865D01*
X133652554Y-79205373D01*
X133652552Y-79205376D01*
X133533013Y-79376096D01*
X133529856Y-79380605D01*
X133527533Y-79385587D01*
X133527530Y-79385592D01*
X133439447Y-79574486D01*
X133437124Y-79579468D01*
X133435702Y-79584776D01*
X133435701Y-79584778D01*
X133401719Y-79711602D01*
X133380334Y-79791413D01*
X133362121Y-79999584D01*
X133361210Y-80010000D01*
X118608203Y-80010000D01*
X118546734Y-79962833D01*
X118504868Y-79905496D01*
X118500646Y-79834625D01*
X118535410Y-79772723D01*
X118561872Y-79752938D01*
X118738276Y-79654147D01*
X118777969Y-79621135D01*
X118889913Y-79528031D01*
X118894345Y-79524345D01*
X118918172Y-79495696D01*
X119020453Y-79372718D01*
X119020455Y-79372715D01*
X119024147Y-79368276D01*
X119114664Y-79206647D01*
X119120510Y-79196208D01*
X119120511Y-79196206D01*
X119123334Y-79191165D01*
X119125190Y-79185698D01*
X119125192Y-79185693D01*
X119186728Y-79004414D01*
X119186729Y-79004409D01*
X119188584Y-78998945D01*
X119189412Y-78993236D01*
X119189413Y-78993231D01*
X119217179Y-78801727D01*
X119217712Y-78798053D01*
X119219232Y-78740000D01*
X119200658Y-78537859D01*
X119195949Y-78521161D01*
X119147125Y-78348046D01*
X119147124Y-78348044D01*
X119145557Y-78342487D01*
X119134978Y-78321033D01*
X119058331Y-78165609D01*
X119055776Y-78160428D01*
X118934320Y-77997779D01*
X118907134Y-77972648D01*
X118874546Y-77942524D01*
X118838101Y-77881596D01*
X118840382Y-77810636D01*
X118880665Y-77752174D01*
X118946160Y-77724771D01*
X118960075Y-77724000D01*
X119798487Y-77724000D01*
X119866608Y-77744002D01*
X119913101Y-77797658D01*
X119923205Y-77867932D01*
X119893711Y-77932512D01*
X119881565Y-77944732D01*
X119845392Y-77976455D01*
X119719720Y-78135869D01*
X119717031Y-78140980D01*
X119717029Y-78140983D01*
X119704073Y-78165609D01*
X119625203Y-78315515D01*
X119565007Y-78509378D01*
X119541148Y-78710964D01*
X119554424Y-78913522D01*
X119555845Y-78919118D01*
X119555846Y-78919123D01*
X119576119Y-78998945D01*
X119604392Y-79110269D01*
X119606807Y-79115507D01*
X119606809Y-79115512D01*
X119642264Y-79192420D01*
X119689377Y-79294616D01*
X119806533Y-79460389D01*
X119810675Y-79464424D01*
X119912777Y-79563886D01*
X119951938Y-79602035D01*
X120120720Y-79714812D01*
X120126023Y-79717090D01*
X120126026Y-79717092D01*
X120257283Y-79773484D01*
X120307228Y-79794942D01*
X120380244Y-79811464D01*
X120499579Y-79838467D01*
X120499584Y-79838468D01*
X120505216Y-79839742D01*
X120510987Y-79839969D01*
X120510989Y-79839969D01*
X120570756Y-79842317D01*
X120708053Y-79847712D01*
X120815348Y-79832155D01*
X120903231Y-79819413D01*
X120903236Y-79819412D01*
X120908945Y-79818584D01*
X120914409Y-79816729D01*
X120914414Y-79816728D01*
X121095693Y-79755192D01*
X121095698Y-79755190D01*
X121101165Y-79753334D01*
X121134880Y-79734453D01*
X121185975Y-79705838D01*
X121278276Y-79654147D01*
X121317969Y-79621135D01*
X121429913Y-79528031D01*
X121434345Y-79524345D01*
X121458172Y-79495696D01*
X121560453Y-79372718D01*
X121560455Y-79372715D01*
X121564147Y-79368276D01*
X121654664Y-79206647D01*
X121660510Y-79196208D01*
X121660511Y-79196206D01*
X121663334Y-79191165D01*
X121665190Y-79185698D01*
X121665192Y-79185693D01*
X121726728Y-79004414D01*
X121726729Y-79004409D01*
X121728584Y-78998945D01*
X121729412Y-78993236D01*
X121729413Y-78993231D01*
X121757179Y-78801727D01*
X121757712Y-78798053D01*
X121759232Y-78740000D01*
X121740658Y-78537859D01*
X121735949Y-78521161D01*
X121687125Y-78348046D01*
X121687124Y-78348044D01*
X121685557Y-78342487D01*
X121674978Y-78321033D01*
X121598331Y-78165609D01*
X121595776Y-78160428D01*
X121474320Y-77997779D01*
X121447134Y-77972648D01*
X121414546Y-77942524D01*
X121378101Y-77881596D01*
X121380382Y-77810636D01*
X121420665Y-77752174D01*
X121486160Y-77724771D01*
X121500075Y-77724000D01*
X122338487Y-77724000D01*
X122406608Y-77744002D01*
X122453101Y-77797658D01*
X122463205Y-77867932D01*
X122433711Y-77932512D01*
X122421565Y-77944732D01*
X122385392Y-77976455D01*
X122259720Y-78135869D01*
X122257031Y-78140980D01*
X122257029Y-78140983D01*
X122244073Y-78165609D01*
X122165203Y-78315515D01*
X122105007Y-78509378D01*
X122081148Y-78710964D01*
X122094424Y-78913522D01*
X122095845Y-78919118D01*
X122095846Y-78919123D01*
X122116119Y-78998945D01*
X122144392Y-79110269D01*
X122146807Y-79115507D01*
X122146809Y-79115512D01*
X122182264Y-79192420D01*
X122229377Y-79294616D01*
X122346533Y-79460389D01*
X122350675Y-79464424D01*
X122452777Y-79563886D01*
X122491938Y-79602035D01*
X122660720Y-79714812D01*
X122666023Y-79717090D01*
X122666026Y-79717092D01*
X122797283Y-79773484D01*
X122847228Y-79794942D01*
X122920244Y-79811464D01*
X123039579Y-79838467D01*
X123039584Y-79838468D01*
X123045216Y-79839742D01*
X123050987Y-79839969D01*
X123050989Y-79839969D01*
X123110756Y-79842317D01*
X123248053Y-79847712D01*
X123355348Y-79832155D01*
X123443231Y-79819413D01*
X123443236Y-79819412D01*
X123448945Y-79818584D01*
X123454409Y-79816729D01*
X123454414Y-79816728D01*
X123635693Y-79755192D01*
X123635698Y-79755190D01*
X123641165Y-79753334D01*
X123674880Y-79734453D01*
X123725975Y-79705838D01*
X123818276Y-79654147D01*
X123857969Y-79621135D01*
X123969913Y-79528031D01*
X123974345Y-79524345D01*
X123998172Y-79495696D01*
X124100453Y-79372718D01*
X124100455Y-79372715D01*
X124104147Y-79368276D01*
X124194664Y-79206647D01*
X124200510Y-79196208D01*
X124200511Y-79196206D01*
X124203334Y-79191165D01*
X124205190Y-79185698D01*
X124205192Y-79185693D01*
X124266728Y-79004414D01*
X124266729Y-79004409D01*
X124268584Y-78998945D01*
X124269412Y-78993236D01*
X124269413Y-78993231D01*
X124297179Y-78801727D01*
X124297712Y-78798053D01*
X124299232Y-78740000D01*
X124280658Y-78537859D01*
X124275949Y-78521161D01*
X124227125Y-78348046D01*
X124227124Y-78348044D01*
X124225557Y-78342487D01*
X124214978Y-78321033D01*
X124138331Y-78165609D01*
X124135776Y-78160428D01*
X124014320Y-77997779D01*
X123987134Y-77972648D01*
X123954546Y-77942524D01*
X123918101Y-77881596D01*
X123920382Y-77810636D01*
X123960665Y-77752174D01*
X124026160Y-77724771D01*
X124040075Y-77724000D01*
X124878487Y-77724000D01*
X124946608Y-77744002D01*
X124993101Y-77797658D01*
X125003205Y-77867932D01*
X124973711Y-77932512D01*
X124961565Y-77944732D01*
X124925392Y-77976455D01*
X124799720Y-78135869D01*
X124797031Y-78140980D01*
X124797029Y-78140983D01*
X124784073Y-78165609D01*
X124705203Y-78315515D01*
X124645007Y-78509378D01*
X124621148Y-78710964D01*
X124634424Y-78913522D01*
X124635845Y-78919118D01*
X124635846Y-78919123D01*
X124656119Y-78998945D01*
X124684392Y-79110269D01*
X124686807Y-79115507D01*
X124686809Y-79115512D01*
X124722264Y-79192420D01*
X124769377Y-79294616D01*
X124886533Y-79460389D01*
X124890675Y-79464424D01*
X124992777Y-79563886D01*
X125031938Y-79602035D01*
X125200720Y-79714812D01*
X125206023Y-79717090D01*
X125206026Y-79717092D01*
X125337283Y-79773484D01*
X125387228Y-79794942D01*
X125460244Y-79811464D01*
X125579579Y-79838467D01*
X125579584Y-79838468D01*
X125585216Y-79839742D01*
X125590987Y-79839969D01*
X125590989Y-79839969D01*
X125650756Y-79842317D01*
X125788053Y-79847712D01*
X125895348Y-79832155D01*
X125983231Y-79819413D01*
X125983236Y-79819412D01*
X125988945Y-79818584D01*
X125994409Y-79816729D01*
X125994414Y-79816728D01*
X126175693Y-79755192D01*
X126175698Y-79755190D01*
X126181165Y-79753334D01*
X126214880Y-79734453D01*
X126265975Y-79705838D01*
X126358276Y-79654147D01*
X126397969Y-79621135D01*
X126509913Y-79528031D01*
X126514345Y-79524345D01*
X126538172Y-79495696D01*
X126640453Y-79372718D01*
X126640455Y-79372715D01*
X126644147Y-79368276D01*
X126734664Y-79206647D01*
X126740510Y-79196208D01*
X126740511Y-79196206D01*
X126743334Y-79191165D01*
X126745190Y-79185698D01*
X126745192Y-79185693D01*
X126806728Y-79004414D01*
X126806729Y-79004409D01*
X126808584Y-78998945D01*
X126809412Y-78993236D01*
X126809413Y-78993231D01*
X126837179Y-78801727D01*
X126837712Y-78798053D01*
X126839232Y-78740000D01*
X126820658Y-78537859D01*
X126815949Y-78521161D01*
X126767125Y-78348046D01*
X126767124Y-78348044D01*
X126765557Y-78342487D01*
X126754978Y-78321033D01*
X126678331Y-78165609D01*
X126675776Y-78160428D01*
X126554320Y-77997779D01*
X126527134Y-77972648D01*
X126494546Y-77942524D01*
X126458101Y-77881596D01*
X126460382Y-77810636D01*
X126500665Y-77752174D01*
X126566160Y-77724771D01*
X126580075Y-77724000D01*
X127418487Y-77724000D01*
X127486608Y-77744002D01*
X127533101Y-77797658D01*
X127543205Y-77867932D01*
X127513711Y-77932512D01*
X127501565Y-77944732D01*
X127465392Y-77976455D01*
X127339720Y-78135869D01*
X127337031Y-78140980D01*
X127337029Y-78140983D01*
X127324073Y-78165609D01*
X127245203Y-78315515D01*
X127185007Y-78509378D01*
X127161148Y-78710964D01*
X127174424Y-78913522D01*
X127175845Y-78919118D01*
X127175846Y-78919123D01*
X127196119Y-78998945D01*
X127224392Y-79110269D01*
X127226807Y-79115507D01*
X127226809Y-79115512D01*
X127262264Y-79192420D01*
X127309377Y-79294616D01*
X127426533Y-79460389D01*
X127430675Y-79464424D01*
X127532777Y-79563886D01*
X127571938Y-79602035D01*
X127740720Y-79714812D01*
X127746023Y-79717090D01*
X127746026Y-79717092D01*
X127877283Y-79773484D01*
X127927228Y-79794942D01*
X128000244Y-79811464D01*
X128119579Y-79838467D01*
X128119584Y-79838468D01*
X128125216Y-79839742D01*
X128130987Y-79839969D01*
X128130989Y-79839969D01*
X128190756Y-79842317D01*
X128328053Y-79847712D01*
X128435348Y-79832155D01*
X128523231Y-79819413D01*
X128523236Y-79819412D01*
X128528945Y-79818584D01*
X128534409Y-79816729D01*
X128534414Y-79816728D01*
X128715693Y-79755192D01*
X128715698Y-79755190D01*
X128721165Y-79753334D01*
X128754880Y-79734453D01*
X128805975Y-79705838D01*
X128898276Y-79654147D01*
X128937969Y-79621135D01*
X129049913Y-79528031D01*
X129054345Y-79524345D01*
X129078172Y-79495696D01*
X129180453Y-79372718D01*
X129180455Y-79372715D01*
X129184147Y-79368276D01*
X129274664Y-79206647D01*
X129280510Y-79196208D01*
X129280511Y-79196206D01*
X129283334Y-79191165D01*
X129285190Y-79185698D01*
X129285192Y-79185693D01*
X129346728Y-79004414D01*
X129346729Y-79004409D01*
X129348584Y-78998945D01*
X129349412Y-78993236D01*
X129349413Y-78993231D01*
X129377179Y-78801727D01*
X129377712Y-78798053D01*
X129379232Y-78740000D01*
X129360658Y-78537859D01*
X129355949Y-78521161D01*
X129307125Y-78348046D01*
X129307124Y-78348044D01*
X129305557Y-78342487D01*
X129294978Y-78321033D01*
X129218331Y-78165609D01*
X129215776Y-78160428D01*
X129094320Y-77997779D01*
X129067134Y-77972648D01*
X129034546Y-77942524D01*
X128998101Y-77881596D01*
X129000382Y-77810636D01*
X129040665Y-77752174D01*
X129106160Y-77724771D01*
X129120075Y-77724000D01*
X129958487Y-77724000D01*
X130026608Y-77744002D01*
X130073101Y-77797658D01*
X130083205Y-77867932D01*
X130053711Y-77932512D01*
X130041565Y-77944732D01*
X130005392Y-77976455D01*
X129879720Y-78135869D01*
X129877031Y-78140980D01*
X129877029Y-78140983D01*
X129864073Y-78165609D01*
X129785203Y-78315515D01*
X129725007Y-78509378D01*
X129701148Y-78710964D01*
X129714424Y-78913522D01*
X129715845Y-78919118D01*
X129715846Y-78919123D01*
X129736119Y-78998945D01*
X129764392Y-79110269D01*
X129766807Y-79115507D01*
X129766809Y-79115512D01*
X129802264Y-79192420D01*
X129849377Y-79294616D01*
X129966533Y-79460389D01*
X129970675Y-79464424D01*
X130072777Y-79563886D01*
X130111938Y-79602035D01*
X130280720Y-79714812D01*
X130286023Y-79717090D01*
X130286026Y-79717092D01*
X130417283Y-79773484D01*
X130467228Y-79794942D01*
X130540244Y-79811464D01*
X130659579Y-79838467D01*
X130659584Y-79838468D01*
X130665216Y-79839742D01*
X130670987Y-79839969D01*
X130670989Y-79839969D01*
X130730756Y-79842317D01*
X130868053Y-79847712D01*
X130975348Y-79832155D01*
X131063231Y-79819413D01*
X131063236Y-79819412D01*
X131068945Y-79818584D01*
X131074409Y-79816729D01*
X131074414Y-79816728D01*
X131255693Y-79755192D01*
X131255698Y-79755190D01*
X131261165Y-79753334D01*
X131294880Y-79734453D01*
X131345975Y-79705838D01*
X131438276Y-79654147D01*
X131477969Y-79621135D01*
X131589913Y-79528031D01*
X131594345Y-79524345D01*
X131618172Y-79495696D01*
X131720453Y-79372718D01*
X131720455Y-79372715D01*
X131724147Y-79368276D01*
X131814664Y-79206647D01*
X131820510Y-79196208D01*
X131820511Y-79196206D01*
X131823334Y-79191165D01*
X131825190Y-79185698D01*
X131825192Y-79185693D01*
X131886728Y-79004414D01*
X131886729Y-79004409D01*
X131888584Y-78998945D01*
X131889412Y-78993236D01*
X131889413Y-78993231D01*
X131917179Y-78801727D01*
X131917712Y-78798053D01*
X131919232Y-78740000D01*
X131900658Y-78537859D01*
X131895949Y-78521161D01*
X131847125Y-78348046D01*
X131847124Y-78348044D01*
X131845557Y-78342487D01*
X131834978Y-78321033D01*
X131758331Y-78165609D01*
X131755776Y-78160428D01*
X131634320Y-77997779D01*
X131607134Y-77972648D01*
X131574546Y-77942524D01*
X131538101Y-77881596D01*
X131540382Y-77810636D01*
X131580665Y-77752174D01*
X131646160Y-77724771D01*
X131660075Y-77724000D01*
X134582575Y-77724000D01*
X134607153Y-77726421D01*
X134620000Y-77728976D01*
X134632170Y-77726555D01*
X134644583Y-77726555D01*
X134644583Y-77726880D01*
X134655419Y-77726142D01*
X134811126Y-77735561D01*
X134887940Y-77740208D01*
X134903044Y-77742042D01*
X135159577Y-77789053D01*
X135174350Y-77792694D01*
X135423358Y-77870288D01*
X135437576Y-77875680D01*
X135675406Y-77982720D01*
X135688876Y-77989789D01*
X135912074Y-78124717D01*
X135924596Y-78133360D01*
X136129904Y-78294209D01*
X136141292Y-78304299D01*
X136325701Y-78488708D01*
X136335791Y-78500096D01*
X136496640Y-78705404D01*
X136505283Y-78717926D01*
X136640211Y-78941124D01*
X136647280Y-78954594D01*
X136717345Y-79110269D01*
X136754318Y-79192420D01*
X136759712Y-79206642D01*
X136812516Y-79376096D01*
X136837306Y-79455650D01*
X136840947Y-79470423D01*
X136887958Y-79726956D01*
X136889792Y-79742060D01*
X136891069Y-79763168D01*
X136903148Y-79962834D01*
X136903858Y-79974578D01*
X136903120Y-79985417D01*
X136903445Y-79985417D01*
X136903445Y-79997830D01*
X136901024Y-80010000D01*
X136903445Y-80022170D01*
X136903579Y-80022844D01*
X136906000Y-80047425D01*
X136906000Y-95212575D01*
X136903579Y-95237153D01*
X136901024Y-95250000D01*
X136903445Y-95262170D01*
X136903445Y-95274583D01*
X136903120Y-95274583D01*
X136903858Y-95285419D01*
X136895242Y-95427844D01*
X136889792Y-95517940D01*
X136887958Y-95533044D01*
X136840947Y-95789577D01*
X136837306Y-95804350D01*
X136762385Y-96044783D01*
X136759714Y-96053353D01*
X136754320Y-96067576D01*
X136656977Y-96283861D01*
X136647282Y-96305403D01*
X136640211Y-96318876D01*
X136505283Y-96542074D01*
X136496640Y-96554596D01*
X136335791Y-96759904D01*
X136325701Y-96771292D01*
X136141292Y-96955701D01*
X136129904Y-96965791D01*
X135924596Y-97126640D01*
X135912074Y-97135283D01*
X135688876Y-97270211D01*
X135675406Y-97277280D01*
X135437576Y-97384320D01*
X135423358Y-97389712D01*
X135268788Y-97437878D01*
X135174350Y-97467306D01*
X135159577Y-97470947D01*
X134903044Y-97517958D01*
X134887940Y-97519792D01*
X134811125Y-97524439D01*
X134655419Y-97533858D01*
X134644583Y-97533120D01*
X134644583Y-97533445D01*
X134632170Y-97533445D01*
X134620000Y-97531024D01*
X134607153Y-97533579D01*
X134582575Y-97536000D01*
X131664357Y-97536000D01*
X131596236Y-97515998D01*
X131549743Y-97462342D01*
X131539639Y-97392068D01*
X131569133Y-97327488D01*
X131583788Y-97313126D01*
X131589908Y-97308036D01*
X131589913Y-97308031D01*
X131594345Y-97304345D01*
X131724147Y-97148276D01*
X131823334Y-96971165D01*
X131825190Y-96965698D01*
X131825192Y-96965693D01*
X131886728Y-96784414D01*
X131886729Y-96784409D01*
X131888584Y-96778945D01*
X131889412Y-96773236D01*
X131889413Y-96773231D01*
X131917179Y-96581727D01*
X131917712Y-96578053D01*
X131919232Y-96520000D01*
X131907797Y-96395551D01*
X131901187Y-96323613D01*
X131901186Y-96323610D01*
X131900658Y-96317859D01*
X131897145Y-96305403D01*
X131847125Y-96128046D01*
X131847124Y-96128044D01*
X131845557Y-96122487D01*
X131834978Y-96101033D01*
X131758331Y-95945609D01*
X131755776Y-95940428D01*
X131634320Y-95777779D01*
X131485258Y-95639987D01*
X131480375Y-95636906D01*
X131480371Y-95636903D01*
X131318464Y-95534748D01*
X131313581Y-95531667D01*
X131125039Y-95456446D01*
X131119379Y-95455320D01*
X131119375Y-95455319D01*
X130931613Y-95417971D01*
X130931610Y-95417971D01*
X130925946Y-95416844D01*
X130920171Y-95416768D01*
X130920167Y-95416768D01*
X130818793Y-95415441D01*
X130722971Y-95414187D01*
X130717274Y-95415166D01*
X130717273Y-95415166D01*
X130589271Y-95437161D01*
X130522910Y-95448564D01*
X130332463Y-95518824D01*
X130158010Y-95622612D01*
X130153670Y-95626418D01*
X130153666Y-95626421D01*
X130063873Y-95705168D01*
X130005392Y-95756455D01*
X129879720Y-95915869D01*
X129877031Y-95920980D01*
X129877029Y-95920983D01*
X129864073Y-95945609D01*
X129785203Y-96095515D01*
X129725007Y-96289378D01*
X129701148Y-96490964D01*
X129714424Y-96693522D01*
X129715845Y-96699118D01*
X129715846Y-96699123D01*
X129734863Y-96774000D01*
X129764392Y-96890269D01*
X129766809Y-96895512D01*
X129804010Y-96976208D01*
X129849377Y-97074616D01*
X129852710Y-97079332D01*
X129956372Y-97226011D01*
X129966533Y-97240389D01*
X129970675Y-97244424D01*
X130047996Y-97319746D01*
X130082834Y-97381607D01*
X130078697Y-97452483D01*
X130036898Y-97509871D01*
X129970709Y-97535550D01*
X129960075Y-97536000D01*
X129124357Y-97536000D01*
X129056236Y-97515998D01*
X129009743Y-97462342D01*
X128999639Y-97392068D01*
X129029133Y-97327488D01*
X129043788Y-97313126D01*
X129049908Y-97308036D01*
X129049913Y-97308031D01*
X129054345Y-97304345D01*
X129184147Y-97148276D01*
X129283334Y-96971165D01*
X129285190Y-96965698D01*
X129285192Y-96965693D01*
X129346728Y-96784414D01*
X129346729Y-96784409D01*
X129348584Y-96778945D01*
X129349412Y-96773236D01*
X129349413Y-96773231D01*
X129377179Y-96581727D01*
X129377712Y-96578053D01*
X129379232Y-96520000D01*
X129367797Y-96395551D01*
X129361187Y-96323613D01*
X129361186Y-96323610D01*
X129360658Y-96317859D01*
X129357145Y-96305403D01*
X129307125Y-96128046D01*
X129307124Y-96128044D01*
X129305557Y-96122487D01*
X129294978Y-96101033D01*
X129218331Y-95945609D01*
X129215776Y-95940428D01*
X129094320Y-95777779D01*
X128945258Y-95639987D01*
X128940375Y-95636906D01*
X128940371Y-95636903D01*
X128778464Y-95534748D01*
X128773581Y-95531667D01*
X128585039Y-95456446D01*
X128579379Y-95455320D01*
X128579375Y-95455319D01*
X128391613Y-95417971D01*
X128391610Y-95417971D01*
X128385946Y-95416844D01*
X128380171Y-95416768D01*
X128380167Y-95416768D01*
X128278793Y-95415441D01*
X128182971Y-95414187D01*
X128177274Y-95415166D01*
X128177273Y-95415166D01*
X128049271Y-95437161D01*
X127982910Y-95448564D01*
X127792463Y-95518824D01*
X127618010Y-95622612D01*
X127613670Y-95626418D01*
X127613666Y-95626421D01*
X127523873Y-95705168D01*
X127465392Y-95756455D01*
X127339720Y-95915869D01*
X127337031Y-95920980D01*
X127337029Y-95920983D01*
X127324073Y-95945609D01*
X127245203Y-96095515D01*
X127185007Y-96289378D01*
X127161148Y-96490964D01*
X127174424Y-96693522D01*
X127175845Y-96699118D01*
X127175846Y-96699123D01*
X127194863Y-96774000D01*
X127224392Y-96890269D01*
X127226809Y-96895512D01*
X127264010Y-96976208D01*
X127309377Y-97074616D01*
X127312710Y-97079332D01*
X127416372Y-97226011D01*
X127426533Y-97240389D01*
X127430675Y-97244424D01*
X127507996Y-97319746D01*
X127542834Y-97381607D01*
X127538697Y-97452483D01*
X127496898Y-97509871D01*
X127430709Y-97535550D01*
X127420075Y-97536000D01*
X126584357Y-97536000D01*
X126516236Y-97515998D01*
X126469743Y-97462342D01*
X126459639Y-97392068D01*
X126489133Y-97327488D01*
X126503788Y-97313126D01*
X126509908Y-97308036D01*
X126509913Y-97308031D01*
X126514345Y-97304345D01*
X126644147Y-97148276D01*
X126743334Y-96971165D01*
X126745190Y-96965698D01*
X126745192Y-96965693D01*
X126806728Y-96784414D01*
X126806729Y-96784409D01*
X126808584Y-96778945D01*
X126809412Y-96773236D01*
X126809413Y-96773231D01*
X126837179Y-96581727D01*
X126837712Y-96578053D01*
X126839232Y-96520000D01*
X126827797Y-96395551D01*
X126821187Y-96323613D01*
X126821186Y-96323610D01*
X126820658Y-96317859D01*
X126817145Y-96305403D01*
X126767125Y-96128046D01*
X126767124Y-96128044D01*
X126765557Y-96122487D01*
X126754978Y-96101033D01*
X126678331Y-95945609D01*
X126675776Y-95940428D01*
X126554320Y-95777779D01*
X126405258Y-95639987D01*
X126400375Y-95636906D01*
X126400371Y-95636903D01*
X126238464Y-95534748D01*
X126233581Y-95531667D01*
X126045039Y-95456446D01*
X126039379Y-95455320D01*
X126039375Y-95455319D01*
X125851613Y-95417971D01*
X125851610Y-95417971D01*
X125845946Y-95416844D01*
X125840171Y-95416768D01*
X125840167Y-95416768D01*
X125738793Y-95415441D01*
X125642971Y-95414187D01*
X125637274Y-95415166D01*
X125637273Y-95415166D01*
X125509271Y-95437161D01*
X125442910Y-95448564D01*
X125252463Y-95518824D01*
X125078010Y-95622612D01*
X125073670Y-95626418D01*
X125073666Y-95626421D01*
X124983873Y-95705168D01*
X124925392Y-95756455D01*
X124799720Y-95915869D01*
X124797031Y-95920980D01*
X124797029Y-95920983D01*
X124784073Y-95945609D01*
X124705203Y-96095515D01*
X124645007Y-96289378D01*
X124621148Y-96490964D01*
X124634424Y-96693522D01*
X124635845Y-96699118D01*
X124635846Y-96699123D01*
X124654863Y-96774000D01*
X124684392Y-96890269D01*
X124686809Y-96895512D01*
X124724010Y-96976208D01*
X124769377Y-97074616D01*
X124772710Y-97079332D01*
X124876372Y-97226011D01*
X124886533Y-97240389D01*
X124890675Y-97244424D01*
X124967996Y-97319746D01*
X125002834Y-97381607D01*
X124998697Y-97452483D01*
X124956898Y-97509871D01*
X124890709Y-97535550D01*
X124880075Y-97536000D01*
X124044357Y-97536000D01*
X123976236Y-97515998D01*
X123929743Y-97462342D01*
X123919639Y-97392068D01*
X123949133Y-97327488D01*
X123963788Y-97313126D01*
X123969908Y-97308036D01*
X123969913Y-97308031D01*
X123974345Y-97304345D01*
X124104147Y-97148276D01*
X124203334Y-96971165D01*
X124205190Y-96965698D01*
X124205192Y-96965693D01*
X124266728Y-96784414D01*
X124266729Y-96784409D01*
X124268584Y-96778945D01*
X124269412Y-96773236D01*
X124269413Y-96773231D01*
X124297179Y-96581727D01*
X124297712Y-96578053D01*
X124299232Y-96520000D01*
X124287797Y-96395551D01*
X124281187Y-96323613D01*
X124281186Y-96323610D01*
X124280658Y-96317859D01*
X124277145Y-96305403D01*
X124227125Y-96128046D01*
X124227124Y-96128044D01*
X124225557Y-96122487D01*
X124214978Y-96101033D01*
X124138331Y-95945609D01*
X124135776Y-95940428D01*
X124014320Y-95777779D01*
X123865258Y-95639987D01*
X123860375Y-95636906D01*
X123860371Y-95636903D01*
X123698464Y-95534748D01*
X123693581Y-95531667D01*
X123505039Y-95456446D01*
X123499379Y-95455320D01*
X123499375Y-95455319D01*
X123311613Y-95417971D01*
X123311610Y-95417971D01*
X123305946Y-95416844D01*
X123300171Y-95416768D01*
X123300167Y-95416768D01*
X123198793Y-95415441D01*
X123102971Y-95414187D01*
X123097274Y-95415166D01*
X123097273Y-95415166D01*
X122969271Y-95437161D01*
X122902910Y-95448564D01*
X122712463Y-95518824D01*
X122538010Y-95622612D01*
X122533670Y-95626418D01*
X122533666Y-95626421D01*
X122443873Y-95705168D01*
X122385392Y-95756455D01*
X122259720Y-95915869D01*
X122257031Y-95920980D01*
X122257029Y-95920983D01*
X122244073Y-95945609D01*
X122165203Y-96095515D01*
X122105007Y-96289378D01*
X122081148Y-96490964D01*
X122094424Y-96693522D01*
X122095845Y-96699118D01*
X122095846Y-96699123D01*
X122114863Y-96774000D01*
X122144392Y-96890269D01*
X122146809Y-96895512D01*
X122184010Y-96976208D01*
X122229377Y-97074616D01*
X122232710Y-97079332D01*
X122336372Y-97226011D01*
X122346533Y-97240389D01*
X122350675Y-97244424D01*
X122427996Y-97319746D01*
X122462834Y-97381607D01*
X122458697Y-97452483D01*
X122416898Y-97509871D01*
X122350709Y-97535550D01*
X122340075Y-97536000D01*
X121504357Y-97536000D01*
X121436236Y-97515998D01*
X121389743Y-97462342D01*
X121379639Y-97392068D01*
X121409133Y-97327488D01*
X121423788Y-97313126D01*
X121429908Y-97308036D01*
X121429913Y-97308031D01*
X121434345Y-97304345D01*
X121564147Y-97148276D01*
X121663334Y-96971165D01*
X121665190Y-96965698D01*
X121665192Y-96965693D01*
X121726728Y-96784414D01*
X121726729Y-96784409D01*
X121728584Y-96778945D01*
X121729412Y-96773236D01*
X121729413Y-96773231D01*
X121757179Y-96581727D01*
X121757712Y-96578053D01*
X121759232Y-96520000D01*
X121747797Y-96395551D01*
X121741187Y-96323613D01*
X121741186Y-96323610D01*
X121740658Y-96317859D01*
X121737145Y-96305403D01*
X121687125Y-96128046D01*
X121687124Y-96128044D01*
X121685557Y-96122487D01*
X121674978Y-96101033D01*
X121598331Y-95945609D01*
X121595776Y-95940428D01*
X121474320Y-95777779D01*
X121325258Y-95639987D01*
X121320375Y-95636906D01*
X121320371Y-95636903D01*
X121158464Y-95534748D01*
X121153581Y-95531667D01*
X120965039Y-95456446D01*
X120959379Y-95455320D01*
X120959375Y-95455319D01*
X120771613Y-95417971D01*
X120771610Y-95417971D01*
X120765946Y-95416844D01*
X120760171Y-95416768D01*
X120760167Y-95416768D01*
X120658793Y-95415441D01*
X120562971Y-95414187D01*
X120557274Y-95415166D01*
X120557273Y-95415166D01*
X120429271Y-95437161D01*
X120362910Y-95448564D01*
X120172463Y-95518824D01*
X119998010Y-95622612D01*
X119993670Y-95626418D01*
X119993666Y-95626421D01*
X119903873Y-95705168D01*
X119845392Y-95756455D01*
X119719720Y-95915869D01*
X119717031Y-95920980D01*
X119717029Y-95920983D01*
X119704073Y-95945609D01*
X119625203Y-96095515D01*
X119565007Y-96289378D01*
X119541148Y-96490964D01*
X119554424Y-96693522D01*
X119555845Y-96699118D01*
X119555846Y-96699123D01*
X119574863Y-96774000D01*
X119604392Y-96890269D01*
X119606809Y-96895512D01*
X119644010Y-96976208D01*
X119689377Y-97074616D01*
X119692710Y-97079332D01*
X119796372Y-97226011D01*
X119806533Y-97240389D01*
X119810675Y-97244424D01*
X119887996Y-97319746D01*
X119922834Y-97381607D01*
X119918697Y-97452483D01*
X119876898Y-97509871D01*
X119810709Y-97535550D01*
X119800075Y-97536000D01*
X118964357Y-97536000D01*
X118896236Y-97515998D01*
X118849743Y-97462342D01*
X118839639Y-97392068D01*
X118869133Y-97327488D01*
X118883788Y-97313126D01*
X118889908Y-97308036D01*
X118889913Y-97308031D01*
X118894345Y-97304345D01*
X119024147Y-97148276D01*
X119123334Y-96971165D01*
X119125190Y-96965698D01*
X119125192Y-96965693D01*
X119186728Y-96784414D01*
X119186729Y-96784409D01*
X119188584Y-96778945D01*
X119189412Y-96773236D01*
X119189413Y-96773231D01*
X119217179Y-96581727D01*
X119217712Y-96578053D01*
X119219232Y-96520000D01*
X119207797Y-96395551D01*
X119201187Y-96323613D01*
X119201186Y-96323610D01*
X119200658Y-96317859D01*
X119197145Y-96305403D01*
X119147125Y-96128046D01*
X119147124Y-96128044D01*
X119145557Y-96122487D01*
X119134978Y-96101033D01*
X119058331Y-95945609D01*
X119055776Y-95940428D01*
X118934320Y-95777779D01*
X118785258Y-95639987D01*
X118780375Y-95636906D01*
X118780371Y-95636903D01*
X118618464Y-95534748D01*
X118613581Y-95531667D01*
X118425039Y-95456446D01*
X118419379Y-95455320D01*
X118419375Y-95455319D01*
X118231613Y-95417971D01*
X118231610Y-95417971D01*
X118225946Y-95416844D01*
X118220171Y-95416768D01*
X118220167Y-95416768D01*
X118118793Y-95415441D01*
X118022971Y-95414187D01*
X118017274Y-95415166D01*
X118017273Y-95415166D01*
X117889271Y-95437161D01*
X117822910Y-95448564D01*
X117632463Y-95518824D01*
X117458010Y-95622612D01*
X117453670Y-95626418D01*
X117453666Y-95626421D01*
X117363873Y-95705168D01*
X117305392Y-95756455D01*
X117179720Y-95915869D01*
X117177031Y-95920980D01*
X117177029Y-95920983D01*
X117087589Y-96090980D01*
X117038170Y-96141952D01*
X116969037Y-96158115D01*
X116902141Y-96134336D01*
X116862003Y-96079973D01*
X116859955Y-96080863D01*
X116772972Y-95880814D01*
X116768105Y-95871739D01*
X116652426Y-95692926D01*
X116646136Y-95684757D01*
X116502806Y-95527240D01*
X116495273Y-95520215D01*
X116328139Y-95388222D01*
X116319552Y-95382517D01*
X116133117Y-95279599D01*
X116123705Y-95275369D01*
X116052066Y-95250000D01*
X133361210Y-95250000D01*
X133380334Y-95468587D01*
X133381758Y-95473900D01*
X133381758Y-95473902D01*
X133427586Y-95644934D01*
X133437124Y-95680532D01*
X133439446Y-95685512D01*
X133439447Y-95685514D01*
X133527530Y-95874408D01*
X133527533Y-95874413D01*
X133529856Y-95879395D01*
X133533012Y-95883902D01*
X133533013Y-95883904D01*
X133645662Y-96044783D01*
X133655711Y-96059135D01*
X133810865Y-96214289D01*
X133815373Y-96217446D01*
X133815376Y-96217448D01*
X133960231Y-96318876D01*
X133990605Y-96340144D01*
X133995587Y-96342467D01*
X133995592Y-96342470D01*
X134184486Y-96430553D01*
X134189468Y-96432876D01*
X134194776Y-96434298D01*
X134194778Y-96434299D01*
X134396098Y-96488242D01*
X134396100Y-96488242D01*
X134401413Y-96489666D01*
X134620000Y-96508790D01*
X134838587Y-96489666D01*
X134843900Y-96488242D01*
X134843902Y-96488242D01*
X135045222Y-96434299D01*
X135045224Y-96434298D01*
X135050532Y-96432876D01*
X135055514Y-96430553D01*
X135244408Y-96342470D01*
X135244413Y-96342467D01*
X135249395Y-96340144D01*
X135279769Y-96318876D01*
X135424624Y-96217448D01*
X135424627Y-96217446D01*
X135429135Y-96214289D01*
X135584289Y-96059135D01*
X135594339Y-96044783D01*
X135706987Y-95883904D01*
X135706988Y-95883902D01*
X135710144Y-95879395D01*
X135712467Y-95874413D01*
X135712470Y-95874408D01*
X135800553Y-95685514D01*
X135800554Y-95685512D01*
X135802876Y-95680532D01*
X135812415Y-95644934D01*
X135858242Y-95473902D01*
X135858242Y-95473900D01*
X135859666Y-95468587D01*
X135878790Y-95250000D01*
X135859666Y-95031413D01*
X135802876Y-94819468D01*
X135800553Y-94814486D01*
X135712470Y-94625592D01*
X135712467Y-94625587D01*
X135710144Y-94620605D01*
X135681362Y-94579500D01*
X135587448Y-94445376D01*
X135587446Y-94445373D01*
X135584289Y-94440865D01*
X135429135Y-94285711D01*
X135424627Y-94282554D01*
X135424624Y-94282552D01*
X135253904Y-94163013D01*
X135253902Y-94163012D01*
X135249395Y-94159856D01*
X135244413Y-94157533D01*
X135244408Y-94157530D01*
X135055514Y-94069447D01*
X135055512Y-94069446D01*
X135050532Y-94067124D01*
X135045224Y-94065702D01*
X135045222Y-94065701D01*
X134843902Y-94011758D01*
X134843900Y-94011758D01*
X134838587Y-94010334D01*
X134620000Y-93991210D01*
X134401413Y-94010334D01*
X134396100Y-94011758D01*
X134396098Y-94011758D01*
X134194778Y-94065701D01*
X134194776Y-94065702D01*
X134189468Y-94067124D01*
X134184488Y-94069446D01*
X134184486Y-94069447D01*
X133995592Y-94157530D01*
X133995587Y-94157533D01*
X133990605Y-94159856D01*
X133986098Y-94163012D01*
X133986096Y-94163013D01*
X133815376Y-94282552D01*
X133815373Y-94282554D01*
X133810865Y-94285711D01*
X133655711Y-94440865D01*
X133652554Y-94445373D01*
X133652552Y-94445376D01*
X133558638Y-94579500D01*
X133529856Y-94620605D01*
X133527533Y-94625587D01*
X133527530Y-94625592D01*
X133439447Y-94814486D01*
X133437124Y-94819468D01*
X133380334Y-95031413D01*
X133362121Y-95239584D01*
X133361210Y-95250000D01*
X116052066Y-95250000D01*
X115922959Y-95204280D01*
X115912988Y-95201646D01*
X115841837Y-95188972D01*
X115828540Y-95190432D01*
X115824000Y-95204989D01*
X115824000Y-96648000D01*
X115803998Y-96716121D01*
X115750342Y-96762614D01*
X115698000Y-96774000D01*
X115442000Y-96774000D01*
X115373879Y-96753998D01*
X115327386Y-96700342D01*
X115316000Y-96648000D01*
X115316000Y-95203102D01*
X115312082Y-95189758D01*
X115297806Y-95187771D01*
X115259324Y-95193660D01*
X115249288Y-95196051D01*
X115046868Y-95262212D01*
X115037359Y-95266209D01*
X114848463Y-95364542D01*
X114839738Y-95370036D01*
X114669433Y-95497905D01*
X114661726Y-95504748D01*
X114514590Y-95658717D01*
X114508104Y-95666727D01*
X114388098Y-95842649D01*
X114383000Y-95851623D01*
X114293338Y-96044783D01*
X114289777Y-96054464D01*
X114285291Y-96070640D01*
X114247813Y-96130939D01*
X114183684Y-96161403D01*
X114113266Y-96152360D01*
X114058915Y-96106682D01*
X114050867Y-96092698D01*
X113978331Y-95945609D01*
X113975776Y-95940428D01*
X113854320Y-95777779D01*
X113705258Y-95639987D01*
X113700375Y-95636906D01*
X113700371Y-95636903D01*
X113538464Y-95534748D01*
X113533581Y-95531667D01*
X113345039Y-95456446D01*
X113339379Y-95455320D01*
X113339375Y-95455319D01*
X113151613Y-95417971D01*
X113151610Y-95417971D01*
X113145946Y-95416844D01*
X113140171Y-95416768D01*
X113140167Y-95416768D01*
X113038793Y-95415441D01*
X112942971Y-95414187D01*
X112937274Y-95415166D01*
X112937273Y-95415166D01*
X112809271Y-95437161D01*
X112742910Y-95448564D01*
X112552463Y-95518824D01*
X112378010Y-95622612D01*
X112373670Y-95626418D01*
X112373666Y-95626421D01*
X112283873Y-95705168D01*
X112225392Y-95756455D01*
X112099720Y-95915869D01*
X112097031Y-95920980D01*
X112097029Y-95920983D01*
X112084073Y-95945609D01*
X112005203Y-96095515D01*
X111945007Y-96289378D01*
X111921148Y-96490964D01*
X111934424Y-96693522D01*
X111935845Y-96699118D01*
X111935846Y-96699123D01*
X111954863Y-96774000D01*
X111984392Y-96890269D01*
X111986809Y-96895512D01*
X112024010Y-96976208D01*
X112069377Y-97074616D01*
X112072710Y-97079332D01*
X112176372Y-97226011D01*
X112186533Y-97240389D01*
X112190675Y-97244424D01*
X112267996Y-97319746D01*
X112302834Y-97381607D01*
X112298697Y-97452483D01*
X112256898Y-97509871D01*
X112190709Y-97535550D01*
X112180075Y-97536000D01*
X111344357Y-97536000D01*
X111276236Y-97515998D01*
X111229743Y-97462342D01*
X111219639Y-97392068D01*
X111249133Y-97327488D01*
X111263788Y-97313126D01*
X111269908Y-97308036D01*
X111269913Y-97308031D01*
X111274345Y-97304345D01*
X111404147Y-97148276D01*
X111503334Y-96971165D01*
X111505190Y-96965698D01*
X111505192Y-96965693D01*
X111566728Y-96784414D01*
X111566729Y-96784409D01*
X111568584Y-96778945D01*
X111569412Y-96773236D01*
X111569413Y-96773231D01*
X111597179Y-96581727D01*
X111597712Y-96578053D01*
X111599232Y-96520000D01*
X111587797Y-96395551D01*
X111581187Y-96323613D01*
X111581186Y-96323610D01*
X111580658Y-96317859D01*
X111577145Y-96305403D01*
X111527125Y-96128046D01*
X111527124Y-96128044D01*
X111525557Y-96122487D01*
X111514978Y-96101033D01*
X111438331Y-95945609D01*
X111435776Y-95940428D01*
X111314320Y-95777779D01*
X111165258Y-95639987D01*
X111160375Y-95636906D01*
X111160371Y-95636903D01*
X110998464Y-95534748D01*
X110993581Y-95531667D01*
X110805039Y-95456446D01*
X110799379Y-95455320D01*
X110799375Y-95455319D01*
X110611613Y-95417971D01*
X110611610Y-95417971D01*
X110605946Y-95416844D01*
X110600171Y-95416768D01*
X110600167Y-95416768D01*
X110498793Y-95415441D01*
X110402971Y-95414187D01*
X110397274Y-95415166D01*
X110397273Y-95415166D01*
X110269271Y-95437161D01*
X110202910Y-95448564D01*
X110012463Y-95518824D01*
X109838010Y-95622612D01*
X109833670Y-95626418D01*
X109833666Y-95626421D01*
X109743873Y-95705168D01*
X109685392Y-95756455D01*
X109559720Y-95915869D01*
X109557031Y-95920980D01*
X109557029Y-95920983D01*
X109544073Y-95945609D01*
X109465203Y-96095515D01*
X109405007Y-96289378D01*
X109381148Y-96490964D01*
X109394424Y-96693522D01*
X109395845Y-96699118D01*
X109395846Y-96699123D01*
X109414863Y-96774000D01*
X109444392Y-96890269D01*
X109446809Y-96895512D01*
X109484010Y-96976208D01*
X109529377Y-97074616D01*
X109532710Y-97079332D01*
X109636372Y-97226011D01*
X109646533Y-97240389D01*
X109650675Y-97244424D01*
X109727996Y-97319746D01*
X109762834Y-97381607D01*
X109758697Y-97452483D01*
X109716898Y-97509871D01*
X109650709Y-97535550D01*
X109640075Y-97536000D01*
X108804357Y-97536000D01*
X108736236Y-97515998D01*
X108689743Y-97462342D01*
X108679639Y-97392068D01*
X108709133Y-97327488D01*
X108723788Y-97313126D01*
X108729908Y-97308036D01*
X108729913Y-97308031D01*
X108734345Y-97304345D01*
X108864147Y-97148276D01*
X108963334Y-96971165D01*
X108965190Y-96965698D01*
X108965192Y-96965693D01*
X109026728Y-96784414D01*
X109026729Y-96784409D01*
X109028584Y-96778945D01*
X109029412Y-96773236D01*
X109029413Y-96773231D01*
X109057179Y-96581727D01*
X109057712Y-96578053D01*
X109059232Y-96520000D01*
X109047797Y-96395551D01*
X109041187Y-96323613D01*
X109041186Y-96323610D01*
X109040658Y-96317859D01*
X109037145Y-96305403D01*
X108987125Y-96128046D01*
X108987124Y-96128044D01*
X108985557Y-96122487D01*
X108974978Y-96101033D01*
X108898331Y-95945609D01*
X108895776Y-95940428D01*
X108774320Y-95777779D01*
X108625258Y-95639987D01*
X108620375Y-95636906D01*
X108620371Y-95636903D01*
X108458464Y-95534748D01*
X108453581Y-95531667D01*
X108265039Y-95456446D01*
X108259379Y-95455320D01*
X108259375Y-95455319D01*
X108071613Y-95417971D01*
X108071610Y-95417971D01*
X108065946Y-95416844D01*
X108060171Y-95416768D01*
X108060167Y-95416768D01*
X107958793Y-95415441D01*
X107862971Y-95414187D01*
X107857274Y-95415166D01*
X107857273Y-95415166D01*
X107729271Y-95437161D01*
X107662910Y-95448564D01*
X107472463Y-95518824D01*
X107298010Y-95622612D01*
X107293670Y-95626418D01*
X107293666Y-95626421D01*
X107203873Y-95705168D01*
X107145392Y-95756455D01*
X107019720Y-95915869D01*
X107017031Y-95920980D01*
X107017029Y-95920983D01*
X107004073Y-95945609D01*
X106925203Y-96095515D01*
X106865007Y-96289378D01*
X106841148Y-96490964D01*
X106854424Y-96693522D01*
X106855845Y-96699118D01*
X106855846Y-96699123D01*
X106874863Y-96774000D01*
X106904392Y-96890269D01*
X106906809Y-96895512D01*
X106944010Y-96976208D01*
X106989377Y-97074616D01*
X106992710Y-97079332D01*
X107096372Y-97226011D01*
X107106533Y-97240389D01*
X107110675Y-97244424D01*
X107187996Y-97319746D01*
X107222834Y-97381607D01*
X107218697Y-97452483D01*
X107176898Y-97509871D01*
X107110709Y-97535550D01*
X107100075Y-97536000D01*
X106264357Y-97536000D01*
X106196236Y-97515998D01*
X106149743Y-97462342D01*
X106139639Y-97392068D01*
X106169133Y-97327488D01*
X106183788Y-97313126D01*
X106189908Y-97308036D01*
X106189913Y-97308031D01*
X106194345Y-97304345D01*
X106324147Y-97148276D01*
X106423334Y-96971165D01*
X106425190Y-96965698D01*
X106425192Y-96965693D01*
X106486728Y-96784414D01*
X106486729Y-96784409D01*
X106488584Y-96778945D01*
X106489412Y-96773236D01*
X106489413Y-96773231D01*
X106517179Y-96581727D01*
X106517712Y-96578053D01*
X106519232Y-96520000D01*
X106507797Y-96395551D01*
X106501187Y-96323613D01*
X106501186Y-96323610D01*
X106500658Y-96317859D01*
X106497145Y-96305403D01*
X106447125Y-96128046D01*
X106447124Y-96128044D01*
X106445557Y-96122487D01*
X106434978Y-96101033D01*
X106358331Y-95945609D01*
X106355776Y-95940428D01*
X106234320Y-95777779D01*
X106085258Y-95639987D01*
X106080375Y-95636906D01*
X106080371Y-95636903D01*
X105918464Y-95534748D01*
X105913581Y-95531667D01*
X105725039Y-95456446D01*
X105719379Y-95455320D01*
X105719375Y-95455319D01*
X105531613Y-95417971D01*
X105531610Y-95417971D01*
X105525946Y-95416844D01*
X105520171Y-95416768D01*
X105520167Y-95416768D01*
X105418793Y-95415441D01*
X105322971Y-95414187D01*
X105317274Y-95415166D01*
X105317273Y-95415166D01*
X105189271Y-95437161D01*
X105122910Y-95448564D01*
X104932463Y-95518824D01*
X104758010Y-95622612D01*
X104753670Y-95626418D01*
X104753666Y-95626421D01*
X104663873Y-95705168D01*
X104605392Y-95756455D01*
X104479720Y-95915869D01*
X104477031Y-95920980D01*
X104477029Y-95920983D01*
X104464073Y-95945609D01*
X104385203Y-96095515D01*
X104325007Y-96289378D01*
X104301148Y-96490964D01*
X104314424Y-96693522D01*
X104315845Y-96699118D01*
X104315846Y-96699123D01*
X104334863Y-96774000D01*
X104364392Y-96890269D01*
X104366809Y-96895512D01*
X104404010Y-96976208D01*
X104449377Y-97074616D01*
X104452710Y-97079332D01*
X104556372Y-97226011D01*
X104566533Y-97240389D01*
X104570675Y-97244424D01*
X104647996Y-97319746D01*
X104682834Y-97381607D01*
X104678697Y-97452483D01*
X104636898Y-97509871D01*
X104570709Y-97535550D01*
X104560075Y-97536000D01*
X103724357Y-97536000D01*
X103656236Y-97515998D01*
X103609743Y-97462342D01*
X103599639Y-97392068D01*
X103629133Y-97327488D01*
X103643788Y-97313126D01*
X103649908Y-97308036D01*
X103649913Y-97308031D01*
X103654345Y-97304345D01*
X103784147Y-97148276D01*
X103883334Y-96971165D01*
X103885190Y-96965698D01*
X103885192Y-96965693D01*
X103946728Y-96784414D01*
X103946729Y-96784409D01*
X103948584Y-96778945D01*
X103949412Y-96773236D01*
X103949413Y-96773231D01*
X103977179Y-96581727D01*
X103977712Y-96578053D01*
X103979232Y-96520000D01*
X103967797Y-96395551D01*
X103961187Y-96323613D01*
X103961186Y-96323610D01*
X103960658Y-96317859D01*
X103957145Y-96305403D01*
X103907125Y-96128046D01*
X103907124Y-96128044D01*
X103905557Y-96122487D01*
X103894978Y-96101033D01*
X103818331Y-95945609D01*
X103815776Y-95940428D01*
X103694320Y-95777779D01*
X103545258Y-95639987D01*
X103540375Y-95636906D01*
X103540371Y-95636903D01*
X103378464Y-95534748D01*
X103373581Y-95531667D01*
X103185039Y-95456446D01*
X103179379Y-95455320D01*
X103179375Y-95455319D01*
X102991613Y-95417971D01*
X102991610Y-95417971D01*
X102985946Y-95416844D01*
X102980171Y-95416768D01*
X102980167Y-95416768D01*
X102878793Y-95415441D01*
X102782971Y-95414187D01*
X102777274Y-95415166D01*
X102777273Y-95415166D01*
X102649271Y-95437161D01*
X102582910Y-95448564D01*
X102392463Y-95518824D01*
X102218010Y-95622612D01*
X102213670Y-95626418D01*
X102213666Y-95626421D01*
X102123873Y-95705168D01*
X102065392Y-95756455D01*
X101939720Y-95915869D01*
X101937031Y-95920980D01*
X101937029Y-95920983D01*
X101924073Y-95945609D01*
X101845203Y-96095515D01*
X101785007Y-96289378D01*
X101761148Y-96490964D01*
X101774424Y-96693522D01*
X101775845Y-96699118D01*
X101775846Y-96699123D01*
X101794863Y-96774000D01*
X101824392Y-96890269D01*
X101826809Y-96895512D01*
X101864010Y-96976208D01*
X101909377Y-97074616D01*
X101912710Y-97079332D01*
X102016372Y-97226011D01*
X102026533Y-97240389D01*
X102030675Y-97244424D01*
X102107996Y-97319746D01*
X102142834Y-97381607D01*
X102138697Y-97452483D01*
X102096898Y-97509871D01*
X102030709Y-97535550D01*
X102020075Y-97536000D01*
X101184357Y-97536000D01*
X101116236Y-97515998D01*
X101069743Y-97462342D01*
X101059639Y-97392068D01*
X101089133Y-97327488D01*
X101103788Y-97313126D01*
X101109908Y-97308036D01*
X101109913Y-97308031D01*
X101114345Y-97304345D01*
X101244147Y-97148276D01*
X101343334Y-96971165D01*
X101345190Y-96965698D01*
X101345192Y-96965693D01*
X101406728Y-96784414D01*
X101406729Y-96784409D01*
X101408584Y-96778945D01*
X101409412Y-96773236D01*
X101409413Y-96773231D01*
X101437179Y-96581727D01*
X101437712Y-96578053D01*
X101439232Y-96520000D01*
X101427797Y-96395551D01*
X101421187Y-96323613D01*
X101421186Y-96323610D01*
X101420658Y-96317859D01*
X101417145Y-96305403D01*
X101367125Y-96128046D01*
X101367124Y-96128044D01*
X101365557Y-96122487D01*
X101354978Y-96101033D01*
X101278331Y-95945609D01*
X101275776Y-95940428D01*
X101154320Y-95777779D01*
X101005258Y-95639987D01*
X101000375Y-95636906D01*
X101000371Y-95636903D01*
X100838464Y-95534748D01*
X100833581Y-95531667D01*
X100645039Y-95456446D01*
X100639379Y-95455320D01*
X100639375Y-95455319D01*
X100451613Y-95417971D01*
X100451610Y-95417971D01*
X100445946Y-95416844D01*
X100440171Y-95416768D01*
X100440167Y-95416768D01*
X100338793Y-95415441D01*
X100242971Y-95414187D01*
X100237274Y-95415166D01*
X100237273Y-95415166D01*
X100109271Y-95437161D01*
X100042910Y-95448564D01*
X99852463Y-95518824D01*
X99678010Y-95622612D01*
X99673670Y-95626418D01*
X99673666Y-95626421D01*
X99583873Y-95705168D01*
X99525392Y-95756455D01*
X99399720Y-95915869D01*
X99397031Y-95920980D01*
X99397029Y-95920983D01*
X99384073Y-95945609D01*
X99305203Y-96095515D01*
X99245007Y-96289378D01*
X99221148Y-96490964D01*
X99234424Y-96693522D01*
X99235845Y-96699118D01*
X99235846Y-96699123D01*
X99254863Y-96774000D01*
X99284392Y-96890269D01*
X99286809Y-96895512D01*
X99324010Y-96976208D01*
X99369377Y-97074616D01*
X99372710Y-97079332D01*
X99476372Y-97226011D01*
X99486533Y-97240389D01*
X99490675Y-97244424D01*
X99567996Y-97319746D01*
X99602834Y-97381607D01*
X99598697Y-97452483D01*
X99556898Y-97509871D01*
X99490709Y-97535550D01*
X99480075Y-97536000D01*
X99019029Y-97536000D01*
X98950908Y-97515998D01*
X98904415Y-97462342D01*
X98893796Y-97398607D01*
X98894500Y-97395067D01*
X98894499Y-95644934D01*
X98879734Y-95570699D01*
X98854574Y-95533044D01*
X98830377Y-95496832D01*
X98823484Y-95486516D01*
X98739301Y-95430266D01*
X98665067Y-95415500D01*
X97790142Y-95415500D01*
X96914934Y-95415501D01*
X96879182Y-95422612D01*
X96852874Y-95427844D01*
X96852872Y-95427845D01*
X96840699Y-95430266D01*
X96830379Y-95437161D01*
X96830378Y-95437162D01*
X96783348Y-95468587D01*
X96756516Y-95486516D01*
X96700266Y-95570699D01*
X96685500Y-95644933D01*
X96685501Y-97395066D01*
X96686194Y-97398550D01*
X96673137Y-97467402D01*
X96624297Y-97518931D01*
X96560972Y-97536000D01*
X94017425Y-97536000D01*
X93992847Y-97533579D01*
X93980000Y-97531024D01*
X93967830Y-97533445D01*
X93955417Y-97533445D01*
X93955417Y-97533120D01*
X93944581Y-97533858D01*
X93788875Y-97524439D01*
X93712060Y-97519792D01*
X93696956Y-97517958D01*
X93440423Y-97470947D01*
X93425650Y-97467306D01*
X93331212Y-97437878D01*
X93176642Y-97389712D01*
X93162424Y-97384320D01*
X92924594Y-97277280D01*
X92911124Y-97270211D01*
X92687926Y-97135283D01*
X92675404Y-97126640D01*
X92470096Y-96965791D01*
X92458708Y-96955701D01*
X92274299Y-96771292D01*
X92264209Y-96759904D01*
X92103360Y-96554596D01*
X92094717Y-96542074D01*
X91959789Y-96318876D01*
X91952718Y-96305403D01*
X91943023Y-96283861D01*
X91845680Y-96067576D01*
X91840286Y-96053353D01*
X91837616Y-96044783D01*
X91762694Y-95804350D01*
X91759053Y-95789577D01*
X91712042Y-95533044D01*
X91710208Y-95517940D01*
X91704758Y-95427844D01*
X91696142Y-95285419D01*
X91696880Y-95274583D01*
X91696555Y-95274583D01*
X91696555Y-95262170D01*
X91698976Y-95250000D01*
X92721210Y-95250000D01*
X92740334Y-95468587D01*
X92741758Y-95473900D01*
X92741758Y-95473902D01*
X92787586Y-95644934D01*
X92797124Y-95680532D01*
X92799446Y-95685512D01*
X92799447Y-95685514D01*
X92887530Y-95874408D01*
X92887533Y-95874413D01*
X92889856Y-95879395D01*
X92893012Y-95883902D01*
X92893013Y-95883904D01*
X93005662Y-96044783D01*
X93015711Y-96059135D01*
X93170865Y-96214289D01*
X93175373Y-96217446D01*
X93175376Y-96217448D01*
X93320231Y-96318876D01*
X93350605Y-96340144D01*
X93355587Y-96342467D01*
X93355592Y-96342470D01*
X93544486Y-96430553D01*
X93549468Y-96432876D01*
X93554776Y-96434298D01*
X93554778Y-96434299D01*
X93756098Y-96488242D01*
X93756100Y-96488242D01*
X93761413Y-96489666D01*
X93980000Y-96508790D01*
X94198587Y-96489666D01*
X94203900Y-96488242D01*
X94203902Y-96488242D01*
X94405222Y-96434299D01*
X94405224Y-96434298D01*
X94410532Y-96432876D01*
X94415514Y-96430553D01*
X94604408Y-96342470D01*
X94604413Y-96342467D01*
X94609395Y-96340144D01*
X94639769Y-96318876D01*
X94784624Y-96217448D01*
X94784627Y-96217446D01*
X94789135Y-96214289D01*
X94944289Y-96059135D01*
X94954339Y-96044783D01*
X95066987Y-95883904D01*
X95066988Y-95883902D01*
X95070144Y-95879395D01*
X95072467Y-95874413D01*
X95072470Y-95874408D01*
X95160553Y-95685514D01*
X95160554Y-95685512D01*
X95162876Y-95680532D01*
X95172415Y-95644934D01*
X95218242Y-95473902D01*
X95218242Y-95473900D01*
X95219666Y-95468587D01*
X95238790Y-95250000D01*
X95219666Y-95031413D01*
X95162876Y-94819468D01*
X95160553Y-94814486D01*
X95072470Y-94625592D01*
X95072467Y-94625587D01*
X95070144Y-94620605D01*
X95041362Y-94579500D01*
X94947448Y-94445376D01*
X94947446Y-94445373D01*
X94944289Y-94440865D01*
X94789135Y-94285711D01*
X94784627Y-94282554D01*
X94784624Y-94282552D01*
X94613904Y-94163013D01*
X94613902Y-94163012D01*
X94609395Y-94159856D01*
X94604413Y-94157533D01*
X94604408Y-94157530D01*
X94415514Y-94069447D01*
X94415512Y-94069446D01*
X94410532Y-94067124D01*
X94405224Y-94065702D01*
X94405222Y-94065701D01*
X94203902Y-94011758D01*
X94203900Y-94011758D01*
X94198587Y-94010334D01*
X93980000Y-93991210D01*
X93761413Y-94010334D01*
X93756100Y-94011758D01*
X93756098Y-94011758D01*
X93554778Y-94065701D01*
X93554776Y-94065702D01*
X93549468Y-94067124D01*
X93544488Y-94069446D01*
X93544486Y-94069447D01*
X93355592Y-94157530D01*
X93355587Y-94157533D01*
X93350605Y-94159856D01*
X93346098Y-94163012D01*
X93346096Y-94163013D01*
X93175376Y-94282552D01*
X93175373Y-94282554D01*
X93170865Y-94285711D01*
X93015711Y-94440865D01*
X93012554Y-94445373D01*
X93012552Y-94445376D01*
X92918638Y-94579500D01*
X92889856Y-94620605D01*
X92887533Y-94625587D01*
X92887530Y-94625592D01*
X92799447Y-94814486D01*
X92797124Y-94819468D01*
X92740334Y-95031413D01*
X92722121Y-95239584D01*
X92721210Y-95250000D01*
X91698976Y-95250000D01*
X91696421Y-95237153D01*
X91694000Y-95212575D01*
X91694000Y-92217140D01*
X91714002Y-92149019D01*
X91767658Y-92102526D01*
X91837932Y-92092422D01*
X91902512Y-92121916D01*
X91939721Y-92183124D01*
X91940413Y-92182867D01*
X91941749Y-92186459D01*
X91942519Y-92187726D01*
X91944835Y-92197373D01*
X92023042Y-92348896D01*
X92135135Y-92477391D01*
X92274643Y-92575438D01*
X92356711Y-92607435D01*
X92426431Y-92634618D01*
X92426434Y-92634619D01*
X92433511Y-92637378D01*
X92441044Y-92638370D01*
X92441045Y-92638370D01*
X92559477Y-92653962D01*
X92559478Y-92653962D01*
X92563564Y-92654500D01*
X93452756Y-92654500D01*
X93579281Y-92639189D01*
X93738789Y-92578916D01*
X93773108Y-92555329D01*
X93873057Y-92486636D01*
X93873058Y-92486635D01*
X93879316Y-92482334D01*
X93916235Y-92440897D01*
X93987695Y-92360693D01*
X93987697Y-92360690D01*
X93992748Y-92355021D01*
X94038283Y-92269020D01*
X94068984Y-92211037D01*
X94068985Y-92211035D01*
X94072538Y-92204324D01*
X94074388Y-92196959D01*
X94112227Y-92046317D01*
X94112227Y-92046313D01*
X94114078Y-92038946D01*
X94114117Y-92031568D01*
X95925029Y-92031568D01*
X95926801Y-92038948D01*
X95926801Y-92038950D01*
X95962215Y-92186459D01*
X95964835Y-92197373D01*
X96043042Y-92348896D01*
X96155135Y-92477391D01*
X96294643Y-92575438D01*
X96376711Y-92607435D01*
X96446431Y-92634618D01*
X96446434Y-92634619D01*
X96453511Y-92637378D01*
X96461044Y-92638370D01*
X96461045Y-92638370D01*
X96579477Y-92653962D01*
X96579478Y-92653962D01*
X96583564Y-92654500D01*
X97772756Y-92654500D01*
X97899281Y-92639189D01*
X98058789Y-92578916D01*
X98093108Y-92555329D01*
X98193057Y-92486636D01*
X98193058Y-92486635D01*
X98199316Y-92482334D01*
X98236235Y-92440897D01*
X98307695Y-92360693D01*
X98307697Y-92360690D01*
X98312748Y-92355021D01*
X98358283Y-92269020D01*
X98388984Y-92211037D01*
X98388985Y-92211035D01*
X98392538Y-92204324D01*
X98394388Y-92196959D01*
X98432227Y-92046317D01*
X98432227Y-92046313D01*
X98434078Y-92038946D01*
X98434157Y-92023974D01*
X98434931Y-91876026D01*
X98434971Y-91868432D01*
X98413275Y-91778061D01*
X98396937Y-91710006D01*
X98396936Y-91710002D01*
X98395165Y-91702627D01*
X98316958Y-91551104D01*
X98204865Y-91422609D01*
X98065357Y-91324562D01*
X97964691Y-91285314D01*
X97913569Y-91265382D01*
X97913566Y-91265381D01*
X97906489Y-91262622D01*
X97898956Y-91261630D01*
X97898955Y-91261630D01*
X97780523Y-91246038D01*
X97780522Y-91246038D01*
X97776436Y-91245500D01*
X97028190Y-91245500D01*
X96960069Y-91225498D01*
X96913576Y-91171842D01*
X96903472Y-91101568D01*
X96932966Y-91036988D01*
X96978150Y-91003863D01*
X96982062Y-91002170D01*
X96982063Y-91002169D01*
X96989946Y-90998758D01*
X97037909Y-90959919D01*
X97101339Y-90908555D01*
X97101341Y-90908553D01*
X97108013Y-90903150D01*
X97196020Y-90779313D01*
X97247482Y-90636371D01*
X97250190Y-90599505D01*
X97257980Y-90493418D01*
X97258609Y-90484855D01*
X97228580Y-90335929D01*
X97192025Y-90264186D01*
X97163508Y-90208217D01*
X97163506Y-90208214D01*
X97159608Y-90200564D01*
X97126604Y-90164672D01*
X97062584Y-90095052D01*
X97062583Y-90095051D01*
X97056774Y-90088734D01*
X96988894Y-90046646D01*
X96934956Y-90013203D01*
X96934955Y-90013202D01*
X96927656Y-90008677D01*
X96781765Y-89966291D01*
X96770993Y-89965500D01*
X96661943Y-89965500D01*
X96657697Y-89966082D01*
X96657691Y-89966082D01*
X96578946Y-89976869D01*
X96549482Y-89980905D01*
X96541598Y-89984317D01*
X96541597Y-89984317D01*
X96485306Y-90008677D01*
X96410054Y-90041242D01*
X96362091Y-90080081D01*
X96298661Y-90131445D01*
X96298659Y-90131447D01*
X96291987Y-90136850D01*
X96287013Y-90143849D01*
X96287012Y-90143850D01*
X96251201Y-90194241D01*
X96203980Y-90260687D01*
X96152518Y-90403629D01*
X96151889Y-90412189D01*
X96151889Y-90412191D01*
X96147344Y-90474089D01*
X96141391Y-90555145D01*
X96171420Y-90704071D01*
X96175320Y-90711725D01*
X96236492Y-90831783D01*
X96236494Y-90831786D01*
X96240392Y-90839436D01*
X96246205Y-90845757D01*
X96246206Y-90845759D01*
X96337090Y-90944593D01*
X96343226Y-90951266D01*
X96350521Y-90955789D01*
X96350522Y-90955790D01*
X96465041Y-91026795D01*
X96472344Y-91031323D01*
X96472050Y-91031797D01*
X96521499Y-91073824D01*
X96542150Y-91141751D01*
X96522800Y-91210060D01*
X96469590Y-91257063D01*
X96460694Y-91260820D01*
X96315901Y-91315533D01*
X96301211Y-91321084D01*
X96294953Y-91325385D01*
X96197333Y-91392478D01*
X96160684Y-91417666D01*
X96155632Y-91423336D01*
X96155631Y-91423337D01*
X96052305Y-91539307D01*
X96052303Y-91539310D01*
X96047252Y-91544979D01*
X96043697Y-91551692D01*
X96043697Y-91551693D01*
X95972631Y-91685914D01*
X95967462Y-91695676D01*
X95965612Y-91703041D01*
X95936360Y-91819500D01*
X95925922Y-91861054D01*
X95925882Y-91868653D01*
X95925882Y-91868655D01*
X95925511Y-91939571D01*
X95925029Y-92031568D01*
X94114117Y-92031568D01*
X94114157Y-92023974D01*
X94114931Y-91876026D01*
X94114971Y-91868432D01*
X94093275Y-91778061D01*
X94076937Y-91710006D01*
X94076936Y-91710002D01*
X94075165Y-91702627D01*
X93996958Y-91551104D01*
X93884865Y-91422609D01*
X93745357Y-91324562D01*
X93644691Y-91285314D01*
X93593569Y-91265382D01*
X93593566Y-91265381D01*
X93586489Y-91262622D01*
X93578956Y-91261630D01*
X93578955Y-91261630D01*
X93460523Y-91246038D01*
X93460522Y-91246038D01*
X93456436Y-91245500D01*
X92567244Y-91245500D01*
X92440719Y-91260811D01*
X92281211Y-91321084D01*
X92274953Y-91325385D01*
X92177333Y-91392478D01*
X92140684Y-91417666D01*
X92135632Y-91423336D01*
X92135631Y-91423337D01*
X92032305Y-91539307D01*
X92032303Y-91539310D01*
X92027252Y-91544979D01*
X92023697Y-91551692D01*
X92023697Y-91551693D01*
X91952631Y-91685914D01*
X91947462Y-91695676D01*
X91945612Y-91703041D01*
X91942204Y-91716609D01*
X91906209Y-91777805D01*
X91842844Y-91809826D01*
X91772226Y-91802506D01*
X91716775Y-91758168D01*
X91694000Y-91685914D01*
X91694000Y-83577140D01*
X91714002Y-83509019D01*
X91767658Y-83462526D01*
X91837932Y-83452422D01*
X91902512Y-83481916D01*
X91939721Y-83543124D01*
X91940413Y-83542867D01*
X91941749Y-83546459D01*
X91942519Y-83547726D01*
X91944835Y-83557373D01*
X91948316Y-83564117D01*
X92002928Y-83669925D01*
X92023042Y-83708896D01*
X92135135Y-83837391D01*
X92274643Y-83935438D01*
X92370512Y-83972816D01*
X92426431Y-83994618D01*
X92426434Y-83994619D01*
X92433511Y-83997378D01*
X92441044Y-83998370D01*
X92441045Y-83998370D01*
X92559477Y-84013962D01*
X92559478Y-84013962D01*
X92563564Y-84014500D01*
X93452756Y-84014500D01*
X93579281Y-83999189D01*
X93738789Y-83938916D01*
X93879316Y-83842334D01*
X93888823Y-83831664D01*
X93987695Y-83720693D01*
X93987697Y-83720690D01*
X93992748Y-83715021D01*
X94034641Y-83635899D01*
X94068984Y-83571037D01*
X94068985Y-83571035D01*
X94072538Y-83564324D01*
X94074388Y-83556959D01*
X94112227Y-83406317D01*
X94112227Y-83406313D01*
X94114078Y-83398946D01*
X94114117Y-83391568D01*
X95925029Y-83391568D01*
X95926801Y-83398948D01*
X95926801Y-83398950D01*
X95962215Y-83546459D01*
X95964835Y-83557373D01*
X95968316Y-83564117D01*
X96022928Y-83669925D01*
X96043042Y-83708896D01*
X96155135Y-83837391D01*
X96294643Y-83935438D01*
X96409346Y-83980159D01*
X96446434Y-83994619D01*
X96446436Y-83994619D01*
X96453511Y-83997378D01*
X96455784Y-83997677D01*
X96514848Y-84032837D01*
X96546535Y-84096369D01*
X96538844Y-84166948D01*
X96494216Y-84222165D01*
X96472548Y-84234198D01*
X96410054Y-84261242D01*
X96403381Y-84266646D01*
X96298661Y-84351445D01*
X96298659Y-84351447D01*
X96291987Y-84356850D01*
X96287013Y-84363849D01*
X96287012Y-84363850D01*
X96208956Y-84473685D01*
X96203980Y-84480687D01*
X96152518Y-84623629D01*
X96141391Y-84775145D01*
X96171420Y-84924071D01*
X96175320Y-84931725D01*
X96236492Y-85051783D01*
X96236494Y-85051786D01*
X96240392Y-85059436D01*
X96246205Y-85065757D01*
X96246206Y-85065759D01*
X96337416Y-85164948D01*
X96343226Y-85171266D01*
X96350521Y-85175789D01*
X96350522Y-85175790D01*
X96465044Y-85246797D01*
X96472344Y-85251323D01*
X96618235Y-85293709D01*
X96629007Y-85294500D01*
X96738057Y-85294500D01*
X96742303Y-85293918D01*
X96742309Y-85293918D01*
X96821054Y-85283131D01*
X96850518Y-85279095D01*
X96909158Y-85253719D01*
X96982064Y-85222169D01*
X96982065Y-85222169D01*
X96989946Y-85218758D01*
X97040413Y-85177891D01*
X97101339Y-85128555D01*
X97101341Y-85128553D01*
X97108013Y-85123150D01*
X97125440Y-85098629D01*
X97191044Y-85006315D01*
X97191044Y-85006314D01*
X97196020Y-84999313D01*
X97247482Y-84856371D01*
X97258609Y-84704855D01*
X97228580Y-84555929D01*
X97204381Y-84508436D01*
X97163508Y-84428217D01*
X97163506Y-84428214D01*
X97159608Y-84420564D01*
X97145797Y-84405544D01*
X97062584Y-84315052D01*
X97062583Y-84315051D01*
X97056774Y-84308734D01*
X97022823Y-84287683D01*
X96958153Y-84247586D01*
X96910798Y-84194690D01*
X96899559Y-84124589D01*
X96928003Y-84059539D01*
X96987100Y-84020194D01*
X97024550Y-84014500D01*
X97772756Y-84014500D01*
X97899281Y-83999189D01*
X98058789Y-83938916D01*
X98199316Y-83842334D01*
X98208823Y-83831664D01*
X98307695Y-83720693D01*
X98307697Y-83720690D01*
X98312748Y-83715021D01*
X98354641Y-83635899D01*
X98388984Y-83571037D01*
X98388985Y-83571035D01*
X98392538Y-83564324D01*
X98394388Y-83556959D01*
X98432227Y-83406317D01*
X98432227Y-83406313D01*
X98434078Y-83398946D01*
X98434157Y-83383974D01*
X98434677Y-83284565D01*
X98434971Y-83228432D01*
X98429226Y-83204503D01*
X98396937Y-83070006D01*
X98396936Y-83070002D01*
X98395165Y-83062627D01*
X98316958Y-82911104D01*
X98307990Y-82900823D01*
X98209861Y-82788336D01*
X98204865Y-82782609D01*
X98065357Y-82684562D01*
X97969488Y-82647184D01*
X97913569Y-82625382D01*
X97913566Y-82625381D01*
X97906489Y-82622622D01*
X97898956Y-82621630D01*
X97898955Y-82621630D01*
X97780523Y-82606038D01*
X97780522Y-82606038D01*
X97776436Y-82605500D01*
X96587244Y-82605500D01*
X96460719Y-82620811D01*
X96301211Y-82681084D01*
X96160684Y-82777666D01*
X96155632Y-82783336D01*
X96155631Y-82783337D01*
X96052305Y-82899307D01*
X96052303Y-82899310D01*
X96047252Y-82904979D01*
X96043697Y-82911692D01*
X96043697Y-82911693D01*
X95972631Y-83045914D01*
X95967462Y-83055676D01*
X95965612Y-83063041D01*
X95931343Y-83199474D01*
X95925922Y-83221054D01*
X95925882Y-83228653D01*
X95925882Y-83228655D01*
X95925829Y-83238787D01*
X95925029Y-83391568D01*
X94114117Y-83391568D01*
X94114157Y-83383974D01*
X94114677Y-83284565D01*
X94114971Y-83228432D01*
X94109226Y-83204503D01*
X94076937Y-83070006D01*
X94076936Y-83070002D01*
X94075165Y-83062627D01*
X93996958Y-82911104D01*
X93987990Y-82900823D01*
X93889861Y-82788336D01*
X93884865Y-82782609D01*
X93745357Y-82684562D01*
X93649488Y-82647184D01*
X93593569Y-82625382D01*
X93593566Y-82625381D01*
X93586489Y-82622622D01*
X93578956Y-82621630D01*
X93578955Y-82621630D01*
X93460523Y-82606038D01*
X93460522Y-82606038D01*
X93456436Y-82605500D01*
X92567244Y-82605500D01*
X92440719Y-82620811D01*
X92281211Y-82681084D01*
X92140684Y-82777666D01*
X92135632Y-82783336D01*
X92135631Y-82783337D01*
X92032305Y-82899307D01*
X92032303Y-82899310D01*
X92027252Y-82904979D01*
X92023697Y-82911692D01*
X92023697Y-82911693D01*
X91952631Y-83045914D01*
X91947462Y-83055676D01*
X91945612Y-83063041D01*
X91942204Y-83076609D01*
X91906209Y-83137805D01*
X91842844Y-83169826D01*
X91772226Y-83162506D01*
X91716775Y-83118168D01*
X91694000Y-83045914D01*
X91694000Y-80047425D01*
X91696421Y-80022844D01*
X91696555Y-80022170D01*
X91698976Y-80010000D01*
X92721210Y-80010000D01*
X92740334Y-80228587D01*
X92741758Y-80233900D01*
X92741758Y-80233902D01*
X92794915Y-80432286D01*
X92797124Y-80440532D01*
X92799446Y-80445512D01*
X92799447Y-80445514D01*
X92887530Y-80634408D01*
X92887533Y-80634413D01*
X92889856Y-80639395D01*
X92893012Y-80643902D01*
X92893013Y-80643904D01*
X93006028Y-80805306D01*
X93015711Y-80819135D01*
X93170865Y-80974289D01*
X93175373Y-80977446D01*
X93175376Y-80977448D01*
X93330932Y-81086369D01*
X93350605Y-81100144D01*
X93355587Y-81102467D01*
X93355592Y-81102470D01*
X93513700Y-81176197D01*
X93549468Y-81192876D01*
X93554776Y-81194298D01*
X93554778Y-81194299D01*
X93756098Y-81248242D01*
X93756100Y-81248242D01*
X93761413Y-81249666D01*
X93980000Y-81268790D01*
X94198587Y-81249666D01*
X94203900Y-81248242D01*
X94203902Y-81248242D01*
X94405222Y-81194299D01*
X94405224Y-81194298D01*
X94410532Y-81192876D01*
X94446300Y-81176197D01*
X94604408Y-81102470D01*
X94604413Y-81102467D01*
X94609395Y-81100144D01*
X94629068Y-81086369D01*
X94784624Y-80977448D01*
X94784627Y-80977446D01*
X94789135Y-80974289D01*
X94944289Y-80819135D01*
X94953973Y-80805306D01*
X95066987Y-80643904D01*
X95066988Y-80643902D01*
X95070144Y-80639395D01*
X95072467Y-80634413D01*
X95072470Y-80634408D01*
X95160553Y-80445514D01*
X95160554Y-80445512D01*
X95162876Y-80440532D01*
X95165086Y-80432286D01*
X95218242Y-80233902D01*
X95218242Y-80233900D01*
X95219666Y-80228587D01*
X95238790Y-80010000D01*
X95219666Y-79791413D01*
X95198281Y-79711602D01*
X95164299Y-79584778D01*
X95164298Y-79584776D01*
X95162876Y-79579468D01*
X95160553Y-79574486D01*
X95072470Y-79385592D01*
X95072467Y-79385587D01*
X95070144Y-79380605D01*
X95066987Y-79376096D01*
X94947448Y-79205376D01*
X94947446Y-79205373D01*
X94944289Y-79200865D01*
X94789135Y-79045711D01*
X94784627Y-79042554D01*
X94784624Y-79042552D01*
X94613904Y-78923013D01*
X94613902Y-78923012D01*
X94609395Y-78919856D01*
X94604413Y-78917533D01*
X94604408Y-78917530D01*
X94415514Y-78829447D01*
X94415512Y-78829446D01*
X94410532Y-78827124D01*
X94405224Y-78825702D01*
X94405222Y-78825701D01*
X94203902Y-78771758D01*
X94203900Y-78771758D01*
X94198587Y-78770334D01*
X93980000Y-78751210D01*
X93761413Y-78770334D01*
X93756100Y-78771758D01*
X93756098Y-78771758D01*
X93554778Y-78825701D01*
X93554776Y-78825702D01*
X93549468Y-78827124D01*
X93544488Y-78829446D01*
X93544486Y-78829447D01*
X93355592Y-78917530D01*
X93355587Y-78917533D01*
X93350605Y-78919856D01*
X93346098Y-78923012D01*
X93346096Y-78923013D01*
X93175376Y-79042552D01*
X93175373Y-79042554D01*
X93170865Y-79045711D01*
X93015711Y-79200865D01*
X93012554Y-79205373D01*
X93012552Y-79205376D01*
X92893013Y-79376096D01*
X92889856Y-79380605D01*
X92887533Y-79385587D01*
X92887530Y-79385592D01*
X92799447Y-79574486D01*
X92797124Y-79579468D01*
X92795702Y-79584776D01*
X92795701Y-79584778D01*
X92761719Y-79711602D01*
X92740334Y-79791413D01*
X92722121Y-79999584D01*
X92721210Y-80010000D01*
X91698976Y-80010000D01*
X91696555Y-79997830D01*
X91696555Y-79985417D01*
X91696880Y-79985417D01*
X91696142Y-79974578D01*
X91696853Y-79962834D01*
X91708931Y-79763168D01*
X91710208Y-79742060D01*
X91712042Y-79726956D01*
X91759053Y-79470423D01*
X91762694Y-79455650D01*
X91787484Y-79376096D01*
X91840288Y-79206642D01*
X91845682Y-79192420D01*
X91882656Y-79110269D01*
X91952720Y-78954594D01*
X91959789Y-78941124D01*
X92094717Y-78717926D01*
X92103360Y-78705404D01*
X92264209Y-78500096D01*
X92274299Y-78488708D01*
X92458708Y-78304299D01*
X92470096Y-78294209D01*
X92675404Y-78133360D01*
X92687926Y-78124717D01*
X92911124Y-77989789D01*
X92924594Y-77982720D01*
X93162424Y-77875680D01*
X93176642Y-77870288D01*
X93425650Y-77792694D01*
X93440423Y-77789053D01*
X93696956Y-77742042D01*
X93712060Y-77740208D01*
X93788874Y-77735561D01*
X93944581Y-77726142D01*
X93955417Y-77726880D01*
X93955417Y-77726555D01*
X93967830Y-77726555D01*
X93980000Y-77728976D01*
X93992847Y-77726421D01*
X94017425Y-77724000D01*
X96560971Y-77724000D01*
X96629092Y-77744002D01*
G37*
%TD.AperFunction*%
%TA.AperFunction,Conductor*%
G36*
X112197913Y-82479852D02*
G01*
X112244406Y-82533508D01*
X112254510Y-82603782D01*
X112246200Y-82634069D01*
X112238933Y-82651614D01*
X112235772Y-82659246D01*
X112216715Y-82804000D01*
X112217793Y-82812188D01*
X112231704Y-82917852D01*
X112235772Y-82948754D01*
X112238931Y-82956380D01*
X112285997Y-83070006D01*
X112291645Y-83083642D01*
X112380526Y-83199474D01*
X112387076Y-83204500D01*
X112387079Y-83204503D01*
X112431759Y-83238787D01*
X112496357Y-83288355D01*
X112631246Y-83344228D01*
X112639434Y-83345306D01*
X112703623Y-83353756D01*
X112776000Y-83363285D01*
X112784188Y-83362207D01*
X112912566Y-83345306D01*
X112920754Y-83344228D01*
X113055643Y-83288355D01*
X113171474Y-83199474D01*
X113182410Y-83185223D01*
X113239747Y-83143357D01*
X113282370Y-83135929D01*
X116543106Y-83135929D01*
X116611227Y-83155931D01*
X116657720Y-83209587D01*
X116667824Y-83279861D01*
X116659515Y-83310148D01*
X116633201Y-83373675D01*
X116632124Y-83381859D01*
X116632123Y-83381861D01*
X116624561Y-83439302D01*
X116614144Y-83518429D01*
X116615222Y-83526617D01*
X116619217Y-83556959D01*
X116633201Y-83663183D01*
X116689074Y-83798071D01*
X116777955Y-83913903D01*
X116784505Y-83918929D01*
X116784508Y-83918932D01*
X116887233Y-83997756D01*
X116893786Y-84002784D01*
X117028675Y-84058657D01*
X117173429Y-84077714D01*
X117178766Y-84077011D01*
X117245609Y-84096638D01*
X117292102Y-84150294D01*
X117302410Y-84186189D01*
X117305858Y-84212375D01*
X117315772Y-84287683D01*
X117318931Y-84295309D01*
X117368195Y-84414241D01*
X117371645Y-84422571D01*
X117395850Y-84454115D01*
X117454621Y-84530707D01*
X117460526Y-84538403D01*
X117467076Y-84543429D01*
X117467079Y-84543432D01*
X117559957Y-84614700D01*
X117576357Y-84627284D01*
X117711246Y-84683157D01*
X117856000Y-84702214D01*
X117864188Y-84701136D01*
X117992566Y-84684235D01*
X118000754Y-84683157D01*
X118135643Y-84627284D01*
X118156580Y-84611219D01*
X118244924Y-84543429D01*
X118251474Y-84538403D01*
X118256501Y-84531852D01*
X118257646Y-84530707D01*
X118293470Y-84508368D01*
X118292696Y-84506934D01*
X118337803Y-84482595D01*
X118343096Y-84479898D01*
X118382153Y-84461144D01*
X118382157Y-84461141D01*
X118389303Y-84457710D01*
X118393579Y-84454115D01*
X118395502Y-84452192D01*
X118397434Y-84450420D01*
X118397513Y-84450377D01*
X118397626Y-84450501D01*
X118398166Y-84450025D01*
X118403885Y-84446939D01*
X118440488Y-84407342D01*
X118443917Y-84403777D01*
X119177769Y-83669925D01*
X119240081Y-83635899D01*
X119266864Y-83633020D01*
X121202616Y-83633020D01*
X121270737Y-83653022D01*
X121291711Y-83669925D01*
X124106595Y-86484809D01*
X124140621Y-86547121D01*
X124143500Y-86573904D01*
X124143500Y-88123936D01*
X124123498Y-88192057D01*
X124117463Y-88200640D01*
X124097851Y-88226199D01*
X124038645Y-88303358D01*
X124035486Y-88310984D01*
X124035485Y-88310986D01*
X124012507Y-88366460D01*
X123985193Y-88407336D01*
X122895695Y-89496834D01*
X122886255Y-89504376D01*
X122886578Y-89504756D01*
X122879742Y-89510574D01*
X122872150Y-89515364D01*
X122866208Y-89522092D01*
X122836818Y-89555370D01*
X122831472Y-89561057D01*
X122820138Y-89572391D01*
X122817453Y-89575974D01*
X122817451Y-89575976D01*
X122813936Y-89580666D01*
X122807551Y-89588509D01*
X122776488Y-89623681D01*
X122772675Y-89631803D01*
X122770835Y-89634604D01*
X122762426Y-89648599D01*
X122760804Y-89651562D01*
X122755419Y-89658747D01*
X122752266Y-89667157D01*
X122752265Y-89667159D01*
X122738943Y-89702693D01*
X122735019Y-89712006D01*
X122715072Y-89754493D01*
X122713690Y-89763367D01*
X122712704Y-89766594D01*
X122708564Y-89782377D01*
X122707843Y-89785655D01*
X122704691Y-89794063D01*
X122704026Y-89803014D01*
X122701213Y-89840868D01*
X122700059Y-89850915D01*
X122697989Y-89864208D01*
X122697989Y-89879573D01*
X122697643Y-89888910D01*
X122693982Y-89938178D01*
X122695855Y-89946953D01*
X122696448Y-89955649D01*
X122697989Y-89970249D01*
X122697989Y-90709150D01*
X122677987Y-90777271D01*
X122661084Y-90798245D01*
X121119095Y-92340234D01*
X121056783Y-92374260D01*
X120985968Y-92369195D01*
X120929132Y-92326648D01*
X120904321Y-92260128D01*
X120904000Y-92251139D01*
X120904000Y-91069078D01*
X120903838Y-91060013D01*
X120903517Y-91051024D01*
X120902529Y-91046055D01*
X120888652Y-90976289D01*
X120888651Y-90976284D01*
X120887664Y-90971324D01*
X120862853Y-90904804D01*
X120843313Y-90863963D01*
X120837293Y-90857261D01*
X120837291Y-90857258D01*
X120781225Y-90794841D01*
X120777086Y-90790233D01*
X120773333Y-90787424D01*
X120736835Y-90727138D01*
X120738738Y-90656166D01*
X120739504Y-90654271D01*
X120741513Y-90651459D01*
X120756202Y-90602344D01*
X120758034Y-90596707D01*
X120772390Y-90555826D01*
X120772390Y-90555825D01*
X120775018Y-90548342D01*
X120775500Y-90542777D01*
X120775500Y-90540069D01*
X120775614Y-90537435D01*
X120775643Y-90537337D01*
X120775807Y-90537344D01*
X120775851Y-90536640D01*
X120777713Y-90530415D01*
X120775597Y-90476558D01*
X120775500Y-90471611D01*
X120775500Y-88724064D01*
X120795502Y-88655943D01*
X120801537Y-88647360D01*
X120875328Y-88551193D01*
X120880355Y-88544642D01*
X120936228Y-88409754D01*
X120948735Y-88314757D01*
X120954207Y-88273188D01*
X120955285Y-88265000D01*
X120952159Y-88241255D01*
X120937306Y-88128432D01*
X120937305Y-88128430D01*
X120936228Y-88120246D01*
X120916422Y-88072430D01*
X120883515Y-87992986D01*
X120883514Y-87992984D01*
X120880355Y-87985358D01*
X120791474Y-87869526D01*
X120784924Y-87864500D01*
X120784921Y-87864497D01*
X120682196Y-87785673D01*
X120682194Y-87785672D01*
X120675643Y-87780645D01*
X120540754Y-87724772D01*
X120532566Y-87723694D01*
X120398015Y-87705980D01*
X120333087Y-87677258D01*
X120298388Y-87628835D01*
X120297114Y-87623445D01*
X120274288Y-87583360D01*
X120251136Y-87542702D01*
X120251133Y-87542698D01*
X120248073Y-87537324D01*
X120201580Y-87483668D01*
X120168996Y-87452227D01*
X120081179Y-87406291D01*
X120013058Y-87386289D01*
X120008599Y-87385648D01*
X120008595Y-87385647D01*
X119977278Y-87381144D01*
X119941498Y-87376000D01*
X119721530Y-87376000D01*
X119653409Y-87355998D01*
X119606916Y-87302342D01*
X119596812Y-87232068D01*
X119626306Y-87167488D01*
X119632434Y-87160905D01*
X120048226Y-86745112D01*
X120110539Y-86711087D01*
X120135390Y-86708415D01*
X120142000Y-86709285D01*
X120150188Y-86708207D01*
X120193204Y-86702544D01*
X120286754Y-86690228D01*
X120421643Y-86634355D01*
X120438172Y-86621672D01*
X120530921Y-86550503D01*
X120530924Y-86550500D01*
X120537474Y-86545474D01*
X120626355Y-86429642D01*
X120632856Y-86413949D01*
X120676233Y-86309226D01*
X120682228Y-86294754D01*
X120689451Y-86239894D01*
X120700207Y-86158188D01*
X120701285Y-86150000D01*
X120696710Y-86115246D01*
X120683306Y-86013432D01*
X120683305Y-86013430D01*
X120682228Y-86005246D01*
X120638043Y-85898575D01*
X120629515Y-85877986D01*
X120629514Y-85877984D01*
X120626355Y-85870358D01*
X120582548Y-85813268D01*
X120573675Y-85801704D01*
X120548075Y-85735484D01*
X120562340Y-85665935D01*
X120573675Y-85648296D01*
X120611269Y-85599302D01*
X120626355Y-85579642D01*
X120643302Y-85538730D01*
X120679069Y-85452380D01*
X120682228Y-85444754D01*
X120701285Y-85300000D01*
X120694281Y-85246797D01*
X120683306Y-85163432D01*
X120683305Y-85163430D01*
X120682228Y-85155246D01*
X120626355Y-85020358D01*
X120558345Y-84931725D01*
X120542501Y-84911077D01*
X120542500Y-84911076D01*
X120537474Y-84904526D01*
X120530924Y-84899500D01*
X120530921Y-84899497D01*
X120428196Y-84820673D01*
X120428194Y-84820672D01*
X120421643Y-84815645D01*
X120286754Y-84759772D01*
X120142000Y-84740715D01*
X120133812Y-84741793D01*
X120005432Y-84758694D01*
X120005430Y-84758695D01*
X119997246Y-84759772D01*
X119960133Y-84775145D01*
X119869986Y-84812485D01*
X119869984Y-84812486D01*
X119862358Y-84815645D01*
X119746526Y-84904526D01*
X119657645Y-85020358D01*
X119601772Y-85155246D01*
X119600695Y-85163430D01*
X119600694Y-85163432D01*
X119589719Y-85246797D01*
X119582715Y-85300000D01*
X119583474Y-85305765D01*
X119563791Y-85372799D01*
X119546888Y-85393773D01*
X117990568Y-86950094D01*
X117928256Y-86984119D01*
X117901473Y-86986999D01*
X108325254Y-86986999D01*
X108305484Y-86984895D01*
X108301116Y-86984689D01*
X108290931Y-86982496D01*
X108260261Y-86986126D01*
X108254918Y-86986441D01*
X108254929Y-86986571D01*
X108249751Y-86986999D01*
X108244550Y-86986999D01*
X108239421Y-86987853D01*
X108239418Y-86987853D01*
X108226958Y-86989927D01*
X108221077Y-86990764D01*
X108207041Y-86992425D01*
X108175789Y-86992220D01*
X108085190Y-86980293D01*
X108085188Y-86980293D01*
X108077000Y-86979215D01*
X108068812Y-86980293D01*
X107940432Y-86997194D01*
X107940430Y-86997195D01*
X107932246Y-86998272D01*
X107920378Y-87003188D01*
X107804986Y-87050985D01*
X107804984Y-87050986D01*
X107797358Y-87054145D01*
X107681526Y-87143026D01*
X107592645Y-87258858D01*
X107589486Y-87266484D01*
X107589485Y-87266486D01*
X107587552Y-87271153D01*
X107536772Y-87393746D01*
X107534743Y-87409158D01*
X107525503Y-87479342D01*
X107496780Y-87544269D01*
X107437515Y-87583360D01*
X107384136Y-87587817D01*
X107315000Y-87578715D01*
X107306812Y-87579793D01*
X107178432Y-87596694D01*
X107178430Y-87596695D01*
X107170246Y-87597772D01*
X107162619Y-87600931D01*
X107162620Y-87600931D01*
X107042986Y-87650485D01*
X107042984Y-87650486D01*
X107035358Y-87653645D01*
X106919526Y-87742526D01*
X106830645Y-87858358D01*
X106774772Y-87993246D01*
X106773695Y-88001430D01*
X106773694Y-88001432D01*
X106759056Y-88112620D01*
X106755715Y-88138000D01*
X106756793Y-88146188D01*
X106756793Y-88146189D01*
X106762973Y-88193132D01*
X106752033Y-88263281D01*
X106704905Y-88316379D01*
X106636551Y-88335569D01*
X106568673Y-88314757D01*
X106548956Y-88298673D01*
X106513387Y-88263104D01*
X106479361Y-88200792D01*
X106476482Y-88174009D01*
X106476482Y-86959898D01*
X106496484Y-86891777D01*
X106550140Y-86845284D01*
X106620414Y-86835180D01*
X106679187Y-86859936D01*
X106781357Y-86938335D01*
X106916246Y-86994208D01*
X106924434Y-86995286D01*
X106971111Y-87001431D01*
X107061000Y-87013265D01*
X107069188Y-87012187D01*
X107197566Y-86995286D01*
X107205754Y-86994208D01*
X107340643Y-86938335D01*
X107347197Y-86933306D01*
X107449921Y-86854483D01*
X107449924Y-86854480D01*
X107456474Y-86849454D01*
X107545355Y-86733622D01*
X107552921Y-86715358D01*
X107598069Y-86606360D01*
X107601228Y-86598734D01*
X107607177Y-86553551D01*
X107618127Y-86470370D01*
X107646849Y-86405443D01*
X107653954Y-86397721D01*
X107799219Y-86252456D01*
X107817961Y-86237319D01*
X107819190Y-86236201D01*
X107827940Y-86230551D01*
X107848729Y-86204180D01*
X107852676Y-86199739D01*
X107852603Y-86199677D01*
X107855963Y-86195712D01*
X107859638Y-86192037D01*
X107862655Y-86187815D01*
X107862660Y-86187809D01*
X107870862Y-86176330D01*
X107874428Y-86171580D01*
X107876455Y-86169009D01*
X107906156Y-86131333D01*
X107909189Y-86122696D01*
X107914513Y-86115246D01*
X107929202Y-86066131D01*
X107931034Y-86060494D01*
X107945390Y-86019613D01*
X107945390Y-86019612D01*
X107948018Y-86012129D01*
X107948500Y-86006564D01*
X107948500Y-86003856D01*
X107948614Y-86001222D01*
X107948643Y-86001124D01*
X107948807Y-86001131D01*
X107948851Y-86000427D01*
X107950713Y-85994202D01*
X107948597Y-85940345D01*
X107948500Y-85935398D01*
X107948500Y-83267384D01*
X107968502Y-83199263D01*
X107985405Y-83178289D01*
X108666939Y-82496755D01*
X108729251Y-82462729D01*
X108756034Y-82459850D01*
X112129792Y-82459850D01*
X112197913Y-82479852D01*
G37*
%TD.AperFunction*%
%TD*%
%TA.AperFunction,Conductor*%
%TO.N,+3V3*%
G36*
X120009619Y-87650002D02*
G01*
X120056112Y-87703658D01*
X120066216Y-87773932D01*
X120036722Y-87838512D01*
X120018201Y-87855963D01*
X120007075Y-87864500D01*
X120007072Y-87864503D01*
X120000526Y-87869526D01*
X119911645Y-87985358D01*
X119908486Y-87992984D01*
X119908485Y-87992986D01*
X119875885Y-88071690D01*
X119855772Y-88120246D01*
X119854695Y-88128430D01*
X119854694Y-88128432D01*
X119852065Y-88148405D01*
X119836715Y-88265000D01*
X119837793Y-88273188D01*
X119853994Y-88396247D01*
X119855772Y-88409754D01*
X119869059Y-88441832D01*
X119905334Y-88529405D01*
X119911645Y-88544642D01*
X119951140Y-88596113D01*
X119990463Y-88647360D01*
X120016063Y-88713581D01*
X120016500Y-88724064D01*
X120016500Y-90272809D01*
X119996498Y-90340930D01*
X119979595Y-90361904D01*
X119710509Y-90630990D01*
X119648197Y-90665016D01*
X119577382Y-90659951D01*
X119521452Y-90618599D01*
X119463505Y-90543081D01*
X119463500Y-90543076D01*
X119458474Y-90536526D01*
X119451924Y-90531500D01*
X119451921Y-90531497D01*
X119349196Y-90452673D01*
X119349194Y-90452672D01*
X119342643Y-90447645D01*
X119207754Y-90391772D01*
X119063000Y-90372715D01*
X119054812Y-90373793D01*
X118926432Y-90390694D01*
X118926430Y-90390695D01*
X118918246Y-90391772D01*
X118870430Y-90411578D01*
X118790986Y-90444485D01*
X118790984Y-90444486D01*
X118783358Y-90447645D01*
X118667526Y-90536526D01*
X118578645Y-90652358D01*
X118522772Y-90787246D01*
X118521695Y-90795430D01*
X118521694Y-90795432D01*
X118505873Y-90915611D01*
X118477151Y-90980538D01*
X118470046Y-90988260D01*
X116979231Y-92479075D01*
X116916919Y-92513101D01*
X116890136Y-92515980D01*
X115026229Y-92515980D01*
X114958108Y-92495978D01*
X114917110Y-92452981D01*
X114914514Y-92448484D01*
X114911355Y-92440858D01*
X114906331Y-92434311D01*
X114906329Y-92434307D01*
X114827501Y-92331577D01*
X114827500Y-92331576D01*
X114822474Y-92325026D01*
X114815924Y-92320000D01*
X114815921Y-92319997D01*
X114759647Y-92276817D01*
X114741916Y-92259860D01*
X114741781Y-92259984D01*
X114739929Y-92257965D01*
X114738186Y-92255892D01*
X114736264Y-92253970D01*
X114734491Y-92252037D01*
X114734448Y-92251958D01*
X114734572Y-92251845D01*
X114734096Y-92251305D01*
X114731010Y-92245586D01*
X114691413Y-92208983D01*
X114687848Y-92205554D01*
X113692078Y-91209784D01*
X113676936Y-91191036D01*
X113675821Y-91189811D01*
X113670171Y-91181060D01*
X113661993Y-91174613D01*
X113661991Y-91174611D01*
X113643800Y-91160271D01*
X113639359Y-91156325D01*
X113639297Y-91156398D01*
X113635333Y-91153039D01*
X113631656Y-91149362D01*
X113615908Y-91138108D01*
X113611238Y-91134602D01*
X113570953Y-91102844D01*
X113562319Y-91099812D01*
X113554866Y-91094486D01*
X113505750Y-91079797D01*
X113500108Y-91077964D01*
X113459233Y-91063610D01*
X113459232Y-91063610D01*
X113451749Y-91060982D01*
X113446184Y-91060500D01*
X113443476Y-91060500D01*
X113440842Y-91060386D01*
X113440744Y-91060357D01*
X113440751Y-91060193D01*
X113440047Y-91060149D01*
X113433822Y-91058287D01*
X113379965Y-91060403D01*
X113375018Y-91060500D01*
X108413384Y-91060500D01*
X108345263Y-91040498D01*
X108324289Y-91023595D01*
X108019571Y-90718877D01*
X107985545Y-90656565D01*
X107990610Y-90585750D01*
X108033157Y-90528914D01*
X108034320Y-90528147D01*
X108036232Y-90527355D01*
X108040580Y-90524019D01*
X108040587Y-90524014D01*
X108145510Y-90443503D01*
X108145513Y-90443500D01*
X108152063Y-90438474D01*
X108240944Y-90322642D01*
X108296817Y-90187754D01*
X108315874Y-90043000D01*
X108296817Y-89898246D01*
X108240944Y-89763358D01*
X108152063Y-89647526D01*
X108145513Y-89642500D01*
X108145510Y-89642497D01*
X108042785Y-89563673D01*
X108042783Y-89563672D01*
X108036232Y-89558645D01*
X107901343Y-89502772D01*
X107772977Y-89485872D01*
X107708051Y-89457151D01*
X107700329Y-89450046D01*
X107154327Y-88904044D01*
X107120301Y-88841732D01*
X107125366Y-88770917D01*
X107167913Y-88714081D01*
X107234433Y-88689270D01*
X107259868Y-88690027D01*
X107306811Y-88696207D01*
X107306812Y-88696207D01*
X107315000Y-88697285D01*
X107323188Y-88696207D01*
X107451566Y-88679306D01*
X107459754Y-88678228D01*
X107594643Y-88622355D01*
X107710474Y-88533474D01*
X107714012Y-88528863D01*
X107775331Y-88495379D01*
X107802114Y-88492500D01*
X108343243Y-88492500D01*
X108363037Y-88494606D01*
X108367390Y-88494811D01*
X108377570Y-88497003D01*
X108408240Y-88493373D01*
X108413583Y-88493058D01*
X108413572Y-88492928D01*
X108418752Y-88492500D01*
X108423951Y-88492500D01*
X108429075Y-88491647D01*
X108429088Y-88491646D01*
X108441541Y-88489573D01*
X108447416Y-88488736D01*
X108484429Y-88484355D01*
X108494770Y-88483131D01*
X108502478Y-88479430D01*
X108510917Y-88478025D01*
X108552901Y-88455371D01*
X108558164Y-88452690D01*
X108580776Y-88441832D01*
X108601158Y-88432045D01*
X108605150Y-88428689D01*
X108607097Y-88426742D01*
X108608722Y-88425252D01*
X108609154Y-88425019D01*
X108609187Y-88425055D01*
X108609345Y-88424916D01*
X108614780Y-88421983D01*
X108626085Y-88409754D01*
X108648857Y-88385119D01*
X108652286Y-88381553D01*
X108885434Y-88148405D01*
X108947746Y-88114379D01*
X108974529Y-88111500D01*
X118483743Y-88111500D01*
X118503537Y-88113606D01*
X118507890Y-88113811D01*
X118518070Y-88116003D01*
X118548740Y-88112373D01*
X118554083Y-88112058D01*
X118554072Y-88111928D01*
X118559252Y-88111500D01*
X118564451Y-88111500D01*
X118569575Y-88110647D01*
X118569588Y-88110646D01*
X118582041Y-88108573D01*
X118587916Y-88107736D01*
X118624929Y-88103355D01*
X118635270Y-88102131D01*
X118642978Y-88098430D01*
X118651417Y-88097025D01*
X118693401Y-88074371D01*
X118698664Y-88071690D01*
X118706870Y-88067750D01*
X118741658Y-88051045D01*
X118745650Y-88047689D01*
X118747597Y-88045742D01*
X118749222Y-88044252D01*
X118749654Y-88044019D01*
X118749687Y-88044055D01*
X118749845Y-88043916D01*
X118755280Y-88040983D01*
X118789357Y-88004119D01*
X118792786Y-88000553D01*
X119126434Y-87666905D01*
X119188746Y-87632879D01*
X119215529Y-87630000D01*
X119941498Y-87630000D01*
X120009619Y-87650002D01*
G37*
%TD.AperFunction*%
%TD*%
M02*
