M48
; DRILL file {KiCad (6.0.0-0)} date Sunday, 28 May 2023 at 12:50:58 pm
; FORMAT={-:-/ absolute / metric / decimal}
; #@! TF.CreationDate,2023-05-28T12:50:58+10:00
; #@! TF.GenerationSoftware,Kicad,Pcbnew,(6.0.0-0)
; #@! TF.FileFunction,Plated,1,2,PTH
FMAT,2
METRIC
; #@! TA.AperFunction,Plated,PTH,ViaDrill
T1C0.300
; #@! TA.AperFunction,Plated,PTH,ViaDrill
T2C0.400
; #@! TA.AperFunction,Plated,PTH,ComponentDrill
T3C0.600
; #@! TA.AperFunction,Plated,PTH,ComponentDrill
T4C0.750
; #@! TA.AperFunction,Plated,PTH,ComponentDrill
T5C1.000
%
G90
G05
T1
X99.314Y-88.48
X100.711Y-86.995
X102.997Y-86.106
X102.997Y-88.9
X104.013Y-82.423
X104.013Y-92.583
X105.286Y-92.713
X105.791Y-80.264
X106.619Y-90.739
X107.061Y-86.454
X107.076Y-81.185
X107.188Y-92.71
X107.315Y-88.138
X107.757Y-90.043
X108.077Y-87.538
X108.458Y-83.312
X108.966Y-88.773
X110.25Y-94.669
X110.674Y-83.128
X111.125Y-80.772
X112.565Y-92.717
X112.776Y-82.804
X113.563Y-92.721
X114.427Y-92.721
X115.062Y-92.202
X116.127Y-81.456
X117.173Y-83.518
X117.856Y-84.143
X117.935Y-82.756
X118.237Y-80.424
X119.063Y-90.932
X119.38Y-88.9
X120.142Y-85.3
X120.142Y-86.15
X120.396Y-88.265
X120.904Y-84.963
X121.92Y-82.804
X124.206Y-83.82
X124.206Y-85.09
X124.523Y-88.583
X128.22Y-89.458
T2
X99.047Y-90.945
X99.053Y-84.322
X99.758Y-90.106
X99.765Y-85.16
X101.105Y-83.045
X101.193Y-92.228
X113.411Y-86.233
X114.3Y-85.471
X115.189Y-86.233
X122.192Y-90.67
X124.651Y-90.932
T4
X134.329Y-86.63
X134.329Y-88.63
T5
X97.79Y-78.74
X97.79Y-96.52
X100.33Y-78.74
X100.33Y-96.52
X102.87Y-78.74
X102.87Y-96.52
X105.41Y-78.74
X105.41Y-96.52
X107.95Y-78.74
X107.95Y-96.52
X110.49Y-78.74
X110.49Y-96.52
X113.03Y-78.74
X113.03Y-96.52
X115.57Y-78.74
X115.57Y-96.52
X118.11Y-78.74
X118.11Y-96.52
X120.65Y-78.74
X120.65Y-96.52
X123.19Y-78.74
X123.19Y-96.52
X125.73Y-78.74
X125.73Y-96.52
X128.27Y-78.74
X128.27Y-96.52
X130.81Y-78.74
X130.81Y-96.52
T3
X92.61Y-83.31G85X93.41Y-83.31
G05
X92.61Y-91.95G85X93.41Y-91.95
G05
X96.63Y-83.31G85X97.73Y-83.31
G05
X96.63Y-91.95G85X97.73Y-91.95
G05
T0
M30
