%FSLAX45Y45*%
G04 Gerber Fmt 4.5, Leading zero omitted, Abs format (unit mm)*
G04 Created by KiCad (PCBNEW (6.0.0-0)) date 2023-05-28 12:50:59*
%MOMM*%
%LPD*%
G01*
G04 APERTURE LIST*
%TA.AperFunction,Profile*%
%ADD10C,0.100000*%
%TD*%
%ADD11C,0.200000*%
%ADD12C,0.060000*%
G04 APERTURE END LIST*
D10*
X9398000Y-7747000D02*
X13462000Y-7747000D01*
X13562000Y-8001000D02*
G75*
G03*
X13562000Y-8001000I-100000J0D01*
G01*
X13562000Y-9525000D02*
G75*
G03*
X13562000Y-9525000I-100000J0D01*
G01*
X13462000Y-9779000D02*
G75*
G03*
X13716000Y-9525000I0J254000D01*
G01*
X9498000Y-9525000D02*
G75*
G03*
X9498000Y-9525000I-100000J0D01*
G01*
X13716000Y-8001000D02*
X13716000Y-9525000D01*
X9144000Y-9525000D02*
X9144000Y-8001000D01*
X13716000Y-8001000D02*
G75*
G03*
X13462000Y-7747000I-254000J0D01*
G01*
X9398000Y-7747000D02*
G75*
G03*
X9144000Y-8001000I0J-254000D01*
G01*
X13462000Y-9779000D02*
X9398000Y-9779000D01*
X9144000Y-9525000D02*
G75*
G03*
X9398000Y-9779000I254000J0D01*
G01*
X9498000Y-8001000D02*
G75*
G03*
X9498000Y-8001000I-100000J0D01*
G01*
D11*
D12*
X9640000Y-8444000D02*
X9700000Y-8504000D01*
X9700000Y-8444000D02*
X9640000Y-8504000D01*
X9640000Y-9022000D02*
X9700000Y-9082000D01*
X9700000Y-9022000D02*
X9640000Y-9082000D01*
D11*
X9396619Y-10094476D02*
X9396619Y-9894476D01*
X9444238Y-9894476D01*
X9472810Y-9904000D01*
X9491857Y-9923048D01*
X9501381Y-9942095D01*
X9510905Y-9980190D01*
X9510905Y-10008762D01*
X9501381Y-10046857D01*
X9491857Y-10065905D01*
X9472810Y-10084952D01*
X9444238Y-10094476D01*
X9396619Y-10094476D01*
X9596619Y-10094476D02*
X9596619Y-9961143D01*
X9596619Y-9999238D02*
X9606143Y-9980190D01*
X9615667Y-9970667D01*
X9634714Y-9961143D01*
X9653762Y-9961143D01*
X9720429Y-10094476D02*
X9720429Y-9961143D01*
X9720429Y-9894476D02*
X9710905Y-9904000D01*
X9720429Y-9913524D01*
X9729952Y-9904000D01*
X9720429Y-9894476D01*
X9720429Y-9913524D01*
X9844238Y-10094476D02*
X9825190Y-10084952D01*
X9815667Y-10065905D01*
X9815667Y-9894476D01*
X9949000Y-10094476D02*
X9929952Y-10084952D01*
X9920429Y-10065905D01*
X9920429Y-9894476D01*
X10177571Y-10094476D02*
X10177571Y-9894476D01*
X10244238Y-10037333D01*
X10310905Y-9894476D01*
X10310905Y-10094476D01*
X10491857Y-10094476D02*
X10491857Y-9989714D01*
X10482333Y-9970667D01*
X10463286Y-9961143D01*
X10425190Y-9961143D01*
X10406143Y-9970667D01*
X10491857Y-10084952D02*
X10472810Y-10094476D01*
X10425190Y-10094476D01*
X10406143Y-10084952D01*
X10396619Y-10065905D01*
X10396619Y-10046857D01*
X10406143Y-10027810D01*
X10425190Y-10018286D01*
X10472810Y-10018286D01*
X10491857Y-10008762D01*
X10587095Y-9961143D02*
X10587095Y-10161143D01*
X10587095Y-9970667D02*
X10606143Y-9961143D01*
X10644238Y-9961143D01*
X10663286Y-9970667D01*
X10672810Y-9980190D01*
X10682333Y-9999238D01*
X10682333Y-10056381D01*
X10672810Y-10075429D01*
X10663286Y-10084952D01*
X10644238Y-10094476D01*
X10606143Y-10094476D01*
X10587095Y-10084952D01*
X10768048Y-10075429D02*
X10777571Y-10084952D01*
X10768048Y-10094476D01*
X10758524Y-10084952D01*
X10768048Y-10075429D01*
X10768048Y-10094476D01*
X10768048Y-9970667D02*
X10777571Y-9980190D01*
X10768048Y-9989714D01*
X10758524Y-9980190D01*
X10768048Y-9970667D01*
X10768048Y-9989714D01*
D12*
X9079000Y-10394000D02*
X9139000Y-10454000D01*
X9139000Y-10394000D02*
X9079000Y-10454000D01*
D11*
X9434714Y-10314476D02*
X9453762Y-10314476D01*
X9472810Y-10324000D01*
X9482333Y-10333524D01*
X9491857Y-10352571D01*
X9501381Y-10390667D01*
X9501381Y-10438286D01*
X9491857Y-10476381D01*
X9482333Y-10495429D01*
X9472810Y-10504952D01*
X9453762Y-10514476D01*
X9434714Y-10514476D01*
X9415667Y-10504952D01*
X9406143Y-10495429D01*
X9396619Y-10476381D01*
X9387095Y-10438286D01*
X9387095Y-10390667D01*
X9396619Y-10352571D01*
X9406143Y-10333524D01*
X9415667Y-10324000D01*
X9434714Y-10314476D01*
X9587095Y-10495429D02*
X9596619Y-10504952D01*
X9587095Y-10514476D01*
X9577571Y-10504952D01*
X9587095Y-10495429D01*
X9587095Y-10514476D01*
X9768048Y-10314476D02*
X9729952Y-10314476D01*
X9710905Y-10324000D01*
X9701381Y-10333524D01*
X9682333Y-10362095D01*
X9672810Y-10400190D01*
X9672810Y-10476381D01*
X9682333Y-10495429D01*
X9691857Y-10504952D01*
X9710905Y-10514476D01*
X9749000Y-10514476D01*
X9768048Y-10504952D01*
X9777571Y-10495429D01*
X9787095Y-10476381D01*
X9787095Y-10428762D01*
X9777571Y-10409714D01*
X9768048Y-10400190D01*
X9749000Y-10390667D01*
X9710905Y-10390667D01*
X9691857Y-10400190D01*
X9682333Y-10409714D01*
X9672810Y-10428762D01*
X9910905Y-10314476D02*
X9929952Y-10314476D01*
X9949000Y-10324000D01*
X9958524Y-10333524D01*
X9968048Y-10352571D01*
X9977571Y-10390667D01*
X9977571Y-10438286D01*
X9968048Y-10476381D01*
X9958524Y-10495429D01*
X9949000Y-10504952D01*
X9929952Y-10514476D01*
X9910905Y-10514476D01*
X9891857Y-10504952D01*
X9882333Y-10495429D01*
X9872810Y-10476381D01*
X9863286Y-10438286D01*
X9863286Y-10390667D01*
X9872810Y-10352571D01*
X9882333Y-10333524D01*
X9891857Y-10324000D01*
X9910905Y-10314476D01*
X10101381Y-10314476D02*
X10120429Y-10314476D01*
X10139476Y-10324000D01*
X10149000Y-10333524D01*
X10158524Y-10352571D01*
X10168048Y-10390667D01*
X10168048Y-10438286D01*
X10158524Y-10476381D01*
X10149000Y-10495429D01*
X10139476Y-10504952D01*
X10120429Y-10514476D01*
X10101381Y-10514476D01*
X10082333Y-10504952D01*
X10072810Y-10495429D01*
X10063286Y-10476381D01*
X10053762Y-10438286D01*
X10053762Y-10390667D01*
X10063286Y-10352571D01*
X10072810Y-10333524D01*
X10082333Y-10324000D01*
X10101381Y-10314476D01*
X10253762Y-10514476D02*
X10253762Y-10381143D01*
X10253762Y-10400190D02*
X10263286Y-10390667D01*
X10282333Y-10381143D01*
X10310905Y-10381143D01*
X10329952Y-10390667D01*
X10339476Y-10409714D01*
X10339476Y-10514476D01*
X10339476Y-10409714D02*
X10349000Y-10390667D01*
X10368048Y-10381143D01*
X10396619Y-10381143D01*
X10415667Y-10390667D01*
X10425190Y-10409714D01*
X10425190Y-10514476D01*
X10520429Y-10514476D02*
X10520429Y-10381143D01*
X10520429Y-10400190D02*
X10529952Y-10390667D01*
X10549000Y-10381143D01*
X10577571Y-10381143D01*
X10596619Y-10390667D01*
X10606143Y-10409714D01*
X10606143Y-10514476D01*
X10606143Y-10409714D02*
X10615667Y-10390667D01*
X10634714Y-10381143D01*
X10663286Y-10381143D01*
X10682333Y-10390667D01*
X10691857Y-10409714D01*
X10691857Y-10514476D01*
X11082333Y-10304952D02*
X10910905Y-10562095D01*
X11339476Y-10314476D02*
X11358524Y-10314476D01*
X11377571Y-10324000D01*
X11387095Y-10333524D01*
X11396619Y-10352571D01*
X11406143Y-10390667D01*
X11406143Y-10438286D01*
X11396619Y-10476381D01*
X11387095Y-10495429D01*
X11377571Y-10504952D01*
X11358524Y-10514476D01*
X11339476Y-10514476D01*
X11320428Y-10504952D01*
X11310905Y-10495429D01*
X11301381Y-10476381D01*
X11291857Y-10438286D01*
X11291857Y-10390667D01*
X11301381Y-10352571D01*
X11310905Y-10333524D01*
X11320428Y-10324000D01*
X11339476Y-10314476D01*
X11491857Y-10495429D02*
X11501381Y-10504952D01*
X11491857Y-10514476D01*
X11482333Y-10504952D01*
X11491857Y-10495429D01*
X11491857Y-10514476D01*
X11625190Y-10314476D02*
X11644238Y-10314476D01*
X11663286Y-10324000D01*
X11672809Y-10333524D01*
X11682333Y-10352571D01*
X11691857Y-10390667D01*
X11691857Y-10438286D01*
X11682333Y-10476381D01*
X11672809Y-10495429D01*
X11663286Y-10504952D01*
X11644238Y-10514476D01*
X11625190Y-10514476D01*
X11606143Y-10504952D01*
X11596619Y-10495429D01*
X11587095Y-10476381D01*
X11577571Y-10438286D01*
X11577571Y-10390667D01*
X11587095Y-10352571D01*
X11596619Y-10333524D01*
X11606143Y-10324000D01*
X11625190Y-10314476D01*
X11768048Y-10333524D02*
X11777571Y-10324000D01*
X11796619Y-10314476D01*
X11844238Y-10314476D01*
X11863286Y-10324000D01*
X11872809Y-10333524D01*
X11882333Y-10352571D01*
X11882333Y-10371619D01*
X11872809Y-10400190D01*
X11758524Y-10514476D01*
X11882333Y-10514476D01*
X11949000Y-10314476D02*
X12072809Y-10314476D01*
X12006143Y-10390667D01*
X12034714Y-10390667D01*
X12053762Y-10400190D01*
X12063286Y-10409714D01*
X12072809Y-10428762D01*
X12072809Y-10476381D01*
X12063286Y-10495429D01*
X12053762Y-10504952D01*
X12034714Y-10514476D01*
X11977571Y-10514476D01*
X11958524Y-10504952D01*
X11949000Y-10495429D01*
X12244238Y-10314476D02*
X12206143Y-10314476D01*
X12187095Y-10324000D01*
X12177571Y-10333524D01*
X12158524Y-10362095D01*
X12149000Y-10400190D01*
X12149000Y-10476381D01*
X12158524Y-10495429D01*
X12168048Y-10504952D01*
X12187095Y-10514476D01*
X12225190Y-10514476D01*
X12244238Y-10504952D01*
X12253762Y-10495429D01*
X12263286Y-10476381D01*
X12263286Y-10428762D01*
X12253762Y-10409714D01*
X12244238Y-10400190D01*
X12225190Y-10390667D01*
X12187095Y-10390667D01*
X12168048Y-10400190D01*
X12158524Y-10409714D01*
X12149000Y-10428762D01*
X12339476Y-10314476D02*
X12339476Y-10352571D01*
X12415667Y-10314476D02*
X12415667Y-10352571D01*
X12710905Y-10590667D02*
X12701381Y-10581143D01*
X12682333Y-10552571D01*
X12672809Y-10533524D01*
X12663286Y-10504952D01*
X12653762Y-10457333D01*
X12653762Y-10419238D01*
X12663286Y-10371619D01*
X12672809Y-10343048D01*
X12682333Y-10324000D01*
X12701381Y-10295429D01*
X12710905Y-10285905D01*
X12777571Y-10333524D02*
X12787095Y-10324000D01*
X12806143Y-10314476D01*
X12853762Y-10314476D01*
X12872809Y-10324000D01*
X12882333Y-10333524D01*
X12891857Y-10352571D01*
X12891857Y-10371619D01*
X12882333Y-10400190D01*
X12768048Y-10514476D01*
X12891857Y-10514476D01*
X13129952Y-10514476D02*
X13129952Y-10314476D01*
X13215667Y-10514476D02*
X13215667Y-10409714D01*
X13206143Y-10390667D01*
X13187095Y-10381143D01*
X13158524Y-10381143D01*
X13139476Y-10390667D01*
X13129952Y-10400190D01*
X13339476Y-10514476D02*
X13320428Y-10504952D01*
X13310905Y-10495429D01*
X13301381Y-10476381D01*
X13301381Y-10419238D01*
X13310905Y-10400190D01*
X13320428Y-10390667D01*
X13339476Y-10381143D01*
X13368048Y-10381143D01*
X13387095Y-10390667D01*
X13396619Y-10400190D01*
X13406143Y-10419238D01*
X13406143Y-10476381D01*
X13396619Y-10495429D01*
X13387095Y-10504952D01*
X13368048Y-10514476D01*
X13339476Y-10514476D01*
X13520428Y-10514476D02*
X13501381Y-10504952D01*
X13491857Y-10485905D01*
X13491857Y-10314476D01*
X13672809Y-10504952D02*
X13653762Y-10514476D01*
X13615667Y-10514476D01*
X13596619Y-10504952D01*
X13587095Y-10485905D01*
X13587095Y-10409714D01*
X13596619Y-10390667D01*
X13615667Y-10381143D01*
X13653762Y-10381143D01*
X13672809Y-10390667D01*
X13682333Y-10409714D01*
X13682333Y-10428762D01*
X13587095Y-10447810D01*
X13758524Y-10504952D02*
X13777571Y-10514476D01*
X13815667Y-10514476D01*
X13834714Y-10504952D01*
X13844238Y-10485905D01*
X13844238Y-10476381D01*
X13834714Y-10457333D01*
X13815667Y-10447810D01*
X13787095Y-10447810D01*
X13768048Y-10438286D01*
X13758524Y-10419238D01*
X13758524Y-10409714D01*
X13768048Y-10390667D01*
X13787095Y-10381143D01*
X13815667Y-10381143D01*
X13834714Y-10390667D01*
X13910905Y-10590667D02*
X13920428Y-10581143D01*
X13939476Y-10552571D01*
X13949000Y-10533524D01*
X13958524Y-10504952D01*
X13968048Y-10457333D01*
X13968048Y-10419238D01*
X13958524Y-10371619D01*
X13949000Y-10343048D01*
X13939476Y-10324000D01*
X13920428Y-10295429D01*
X13910905Y-10285905D01*
X14272809Y-10590667D02*
X14263286Y-10581143D01*
X14244238Y-10552571D01*
X14234714Y-10533524D01*
X14225190Y-10504952D01*
X14215667Y-10457333D01*
X14215667Y-10419238D01*
X14225190Y-10371619D01*
X14234714Y-10343048D01*
X14244238Y-10324000D01*
X14263286Y-10295429D01*
X14272809Y-10285905D01*
X14349000Y-10381143D02*
X14349000Y-10514476D01*
X14349000Y-10400190D02*
X14358524Y-10390667D01*
X14377571Y-10381143D01*
X14406143Y-10381143D01*
X14425190Y-10390667D01*
X14434714Y-10409714D01*
X14434714Y-10514476D01*
X14558524Y-10514476D02*
X14539476Y-10504952D01*
X14529952Y-10495429D01*
X14520428Y-10476381D01*
X14520428Y-10419238D01*
X14529952Y-10400190D01*
X14539476Y-10390667D01*
X14558524Y-10381143D01*
X14587095Y-10381143D01*
X14606143Y-10390667D01*
X14615667Y-10400190D01*
X14625190Y-10419238D01*
X14625190Y-10476381D01*
X14615667Y-10495429D01*
X14606143Y-10504952D01*
X14587095Y-10514476D01*
X14558524Y-10514476D01*
X14682333Y-10381143D02*
X14758524Y-10381143D01*
X14710905Y-10314476D02*
X14710905Y-10485905D01*
X14720428Y-10504952D01*
X14739476Y-10514476D01*
X14758524Y-10514476D01*
X14977571Y-10381143D02*
X14977571Y-10581143D01*
X14977571Y-10390667D02*
X14996619Y-10381143D01*
X15034714Y-10381143D01*
X15053762Y-10390667D01*
X15063286Y-10400190D01*
X15072809Y-10419238D01*
X15072809Y-10476381D01*
X15063286Y-10495429D01*
X15053762Y-10504952D01*
X15034714Y-10514476D01*
X14996619Y-10514476D01*
X14977571Y-10504952D01*
X15187095Y-10514476D02*
X15168048Y-10504952D01*
X15158524Y-10485905D01*
X15158524Y-10314476D01*
X15349000Y-10514476D02*
X15349000Y-10409714D01*
X15339476Y-10390667D01*
X15320428Y-10381143D01*
X15282333Y-10381143D01*
X15263286Y-10390667D01*
X15349000Y-10504952D02*
X15329952Y-10514476D01*
X15282333Y-10514476D01*
X15263286Y-10504952D01*
X15253762Y-10485905D01*
X15253762Y-10466857D01*
X15263286Y-10447810D01*
X15282333Y-10438286D01*
X15329952Y-10438286D01*
X15349000Y-10428762D01*
X15415667Y-10381143D02*
X15491857Y-10381143D01*
X15444238Y-10314476D02*
X15444238Y-10485905D01*
X15453762Y-10504952D01*
X15472809Y-10514476D01*
X15491857Y-10514476D01*
X15634714Y-10504952D02*
X15615667Y-10514476D01*
X15577571Y-10514476D01*
X15558524Y-10504952D01*
X15549000Y-10485905D01*
X15549000Y-10409714D01*
X15558524Y-10390667D01*
X15577571Y-10381143D01*
X15615667Y-10381143D01*
X15634714Y-10390667D01*
X15644238Y-10409714D01*
X15644238Y-10428762D01*
X15549000Y-10447810D01*
X15815667Y-10514476D02*
X15815667Y-10314476D01*
X15815667Y-10504952D02*
X15796619Y-10514476D01*
X15758524Y-10514476D01*
X15739476Y-10504952D01*
X15729952Y-10495429D01*
X15720428Y-10476381D01*
X15720428Y-10419238D01*
X15729952Y-10400190D01*
X15739476Y-10390667D01*
X15758524Y-10381143D01*
X15796619Y-10381143D01*
X15815667Y-10390667D01*
X15891857Y-10590667D02*
X15901381Y-10581143D01*
X15920428Y-10552571D01*
X15929952Y-10533524D01*
X15939476Y-10504952D01*
X15949000Y-10457333D01*
X15949000Y-10419238D01*
X15939476Y-10371619D01*
X15929952Y-10343048D01*
X15920428Y-10324000D01*
X15901381Y-10295429D01*
X15891857Y-10285905D01*
M02*
