%TF.GenerationSoftware,KiCad,Pcbnew,(6.0.0-0)*%
%TF.CreationDate,2023-05-28T12:29:54+10:00*%
%TF.ProjectId,motor-driver,6d6f746f-722d-4647-9269-7665722e6b69,v1.0.0*%
%TF.SameCoordinates,Original*%
%TF.FileFunction,Legend,Bot*%
%TF.FilePolarity,Positive*%
%FSLAX46Y46*%
G04 Gerber Fmt 4.6, Leading zero omitted, Abs format (unit mm)*
G04 Created by KiCad (PCBNEW (6.0.0-0)) date 2023-05-28 12:29:54*
%MOMM*%
%LPD*%
G01*
G04 APERTURE LIST*
G04 Aperture macros list*
%AMFreePoly0*
4,1,22,0.500000,-0.750000,0.000000,-0.750000,0.000000,-0.745033,-0.079941,-0.743568,-0.215256,-0.701293,-0.333266,-0.622738,-0.424486,-0.514219,-0.481581,-0.384460,-0.499164,-0.250000,-0.500000,-0.250000,-0.500000,0.250000,-0.499164,0.250000,-0.499963,0.256109,-0.478152,0.396186,-0.417904,0.524511,-0.324060,0.630769,-0.204165,0.706417,-0.067858,0.745374,0.000000,0.744959,0.000000,0.750000,
0.500000,0.750000,0.500000,-0.750000,0.500000,-0.750000,$1*%
%AMFreePoly1*
4,1,20,0.000000,0.744959,0.073905,0.744508,0.209726,0.703889,0.328688,0.626782,0.421226,0.519385,0.479903,0.390333,0.500000,0.250000,0.500000,-0.250000,0.499851,-0.262216,0.476331,-0.402017,0.414519,-0.529596,0.319384,-0.634700,0.198574,-0.708877,0.061801,-0.746166,0.000000,-0.745033,0.000000,-0.750000,-0.500000,-0.750000,-0.500000,0.750000,0.000000,0.750000,0.000000,0.744959,
0.000000,0.744959,$1*%
G04 Aperture macros list end*
%ADD10C,0.150000*%
%ADD11C,0.120000*%
%ADD12R,1.700000X1.700000*%
%ADD13O,1.700000X1.700000*%
%ADD14FreePoly0,270.000000*%
%ADD15FreePoly1,270.000000*%
G04 APERTURE END LIST*
D10*
X162306000Y-97790000D02*
X159258000Y-97790000D01*
X159258000Y-97790000D02*
X159258000Y-100330000D01*
X159258000Y-100330000D02*
X162306000Y-100330000D01*
X162306000Y-100330000D02*
X162306000Y-97790000D01*
G36*
X162306000Y-97790000D02*
G01*
X159258000Y-97790000D01*
X159258000Y-100330000D01*
X162306000Y-100330000D01*
X162306000Y-97790000D01*
G37*
X139636666Y-92749619D02*
X139970000Y-91749619D01*
X140303333Y-92749619D01*
X141208095Y-91844857D02*
X141160476Y-91797238D01*
X141017619Y-91749619D01*
X140922380Y-91749619D01*
X140779523Y-91797238D01*
X140684285Y-91892476D01*
X140636666Y-91987714D01*
X140589047Y-92178190D01*
X140589047Y-92321047D01*
X140636666Y-92511523D01*
X140684285Y-92606761D01*
X140779523Y-92702000D01*
X140922380Y-92749619D01*
X141017619Y-92749619D01*
X141160476Y-92702000D01*
X141208095Y-92654380D01*
X142208095Y-91844857D02*
X142160476Y-91797238D01*
X142017619Y-91749619D01*
X141922380Y-91749619D01*
X141779523Y-91797238D01*
X141684285Y-91892476D01*
X141636666Y-91987714D01*
X141589047Y-92178190D01*
X141589047Y-92321047D01*
X141636666Y-92511523D01*
X141684285Y-92606761D01*
X141779523Y-92702000D01*
X141922380Y-92749619D01*
X142017619Y-92749619D01*
X142160476Y-92702000D01*
X142208095Y-92654380D01*
X141660476Y-105989428D02*
X141612857Y-105941809D01*
X141517619Y-105894190D01*
X141327142Y-105989428D01*
X141231904Y-105941809D01*
X141184285Y-105894190D01*
X140850952Y-106084666D02*
X140374761Y-106084666D01*
X140946190Y-106370380D02*
X140612857Y-105370380D01*
X140279523Y-106370380D01*
X136128095Y-106084666D02*
X135651904Y-106084666D01*
X136223333Y-106370380D02*
X135890000Y-105370380D01*
X135556666Y-106370380D01*
X138358571Y-105846571D02*
X138215714Y-105894190D01*
X138168095Y-105941809D01*
X138120476Y-106037047D01*
X138120476Y-106179904D01*
X138168095Y-106275142D01*
X138215714Y-106322761D01*
X138310952Y-106370380D01*
X138691904Y-106370380D01*
X138691904Y-105370380D01*
X138358571Y-105370380D01*
X138263333Y-105418000D01*
X138215714Y-105465619D01*
X138168095Y-105560857D01*
X138168095Y-105656095D01*
X138215714Y-105751333D01*
X138263333Y-105798952D01*
X138358571Y-105846571D01*
X138691904Y-105846571D01*
X144271904Y-105989428D02*
X144224285Y-105941809D01*
X144129047Y-105894190D01*
X143938571Y-105989428D01*
X143843333Y-105941809D01*
X143795714Y-105894190D01*
X143081428Y-105846571D02*
X142938571Y-105894190D01*
X142890952Y-105941809D01*
X142843333Y-106037047D01*
X142843333Y-106179904D01*
X142890952Y-106275142D01*
X142938571Y-106322761D01*
X143033809Y-106370380D01*
X143414761Y-106370380D01*
X143414761Y-105370380D01*
X143081428Y-105370380D01*
X142986190Y-105418000D01*
X142938571Y-105465619D01*
X142890952Y-105560857D01*
X142890952Y-105656095D01*
X142938571Y-105751333D01*
X142986190Y-105798952D01*
X143081428Y-105846571D01*
X143414761Y-105846571D01*
D11*
%TO.C,JP2*%
X144288000Y-98360000D02*
X144288000Y-99760000D01*
X144988000Y-100460000D02*
X145588000Y-100460000D01*
X146288000Y-99760000D02*
X146288000Y-98360000D01*
X145588000Y-97660000D02*
X144988000Y-97660000D01*
X144288000Y-99760000D02*
G75*
G03*
X144988000Y-100460000I699999J-1D01*
G01*
X145588000Y-100460000D02*
G75*
G03*
X146288000Y-99760000I1J699999D01*
G01*
X144988000Y-97660000D02*
G75*
G03*
X144288000Y-98360000I-1J-699999D01*
G01*
X146288000Y-98360000D02*
G75*
G03*
X145588000Y-97660000I-699999J1D01*
G01*
%TO.C,kibuzzard-6471C20C*%
G36*
X158496000Y-99740244D02*
G01*
X158544419Y-99778344D01*
X158583313Y-99881531D01*
X158543625Y-99986306D01*
X158494412Y-100025597D01*
X158426150Y-100038694D01*
X158358284Y-100026391D01*
X158310263Y-99989481D01*
X158272163Y-99883119D01*
X158311850Y-99776756D01*
X158360864Y-99739847D01*
X158428531Y-99727544D01*
X158496000Y-99740244D01*
G37*
G36*
X159375343Y-95782739D02*
G01*
X159375343Y-102337261D01*
X157108657Y-102337261D01*
X157108657Y-101445219D01*
X157726062Y-101445219D01*
X157740747Y-101531341D01*
X157784800Y-101573806D01*
X157865762Y-101581744D01*
X158021337Y-101581744D01*
X158014987Y-101687313D01*
X158017369Y-101741288D01*
X158032450Y-101783356D01*
X158073328Y-101814313D01*
X158154687Y-101824631D01*
X158235253Y-101813916D01*
X158276925Y-101781769D01*
X158290419Y-101739700D01*
X158292800Y-101684931D01*
X158286450Y-101581744D01*
X158505525Y-101581744D01*
X158567438Y-101595238D01*
X158586488Y-101646038D01*
X158588869Y-101703188D01*
X158603950Y-101745256D01*
X158710313Y-101781769D01*
X158790878Y-101770656D01*
X158832550Y-101737319D01*
X158846044Y-101695250D01*
X158848425Y-101642069D01*
X158840135Y-101540822D01*
X158815264Y-101457213D01*
X158773813Y-101391244D01*
X158712606Y-101343619D01*
X158628468Y-101315044D01*
X158521400Y-101305519D01*
X158286450Y-101305519D01*
X158291213Y-101240431D01*
X158264225Y-101182488D01*
X158172150Y-101159469D01*
X158077694Y-101167406D01*
X158035625Y-101189631D01*
X158014987Y-101253131D01*
X158021337Y-101305519D01*
X157857825Y-101305519D01*
X157803850Y-101307900D01*
X157765750Y-101322981D01*
X157735984Y-101363859D01*
X157726062Y-101445219D01*
X157108657Y-101445219D01*
X157108657Y-100772119D01*
X157995937Y-100772119D01*
X158009431Y-100886419D01*
X158049912Y-101003894D01*
X158113412Y-101059456D01*
X158207075Y-101024531D01*
X158262638Y-100953094D01*
X158238825Y-100882450D01*
X158215012Y-100770531D01*
X158249938Y-100676869D01*
X158289228Y-100703856D01*
X158311850Y-100784819D01*
X158332488Y-100888006D01*
X158372175Y-100988019D01*
X158449169Y-101065012D01*
X158510883Y-101088230D01*
X158586488Y-101095969D01*
X158662886Y-101088230D01*
X158726981Y-101065012D01*
X158813500Y-100978494D01*
X158840840Y-100905028D01*
X158857244Y-100820097D01*
X158862713Y-100723700D01*
X158852835Y-100622894D01*
X158823201Y-100524733D01*
X158773813Y-100429219D01*
X158713488Y-100399056D01*
X158661497Y-100414138D01*
X158588075Y-100459381D01*
X158561088Y-100515738D01*
X158599981Y-100621306D01*
X158638875Y-100741956D01*
X158629350Y-100814584D01*
X158600775Y-100838794D01*
X158574581Y-100812203D01*
X158556325Y-100732431D01*
X158530528Y-100632816D01*
X158481713Y-100533994D01*
X158392019Y-100457794D01*
X158325145Y-100435172D01*
X158246763Y-100427631D01*
X158156465Y-100441411D01*
X158086234Y-100482749D01*
X158036069Y-100551647D01*
X158005970Y-100648103D01*
X157995937Y-100772119D01*
X157108657Y-100772119D01*
X157108657Y-99884706D01*
X157992762Y-99884706D01*
X158006433Y-99994597D01*
X158047443Y-100095667D01*
X158115794Y-100187919D01*
X158205311Y-100261120D01*
X158309822Y-100305041D01*
X158429325Y-100319681D01*
X158553745Y-100302616D01*
X158663481Y-100251419D01*
X158752381Y-100175814D01*
X158814294Y-100085525D01*
X158850608Y-99986108D01*
X158862713Y-99883119D01*
X158849814Y-99779931D01*
X158811119Y-99679919D01*
X158747222Y-99589233D01*
X158658719Y-99514025D01*
X158551364Y-99463423D01*
X158430913Y-99446556D01*
X158311321Y-99461373D01*
X158206546Y-99505823D01*
X158116587Y-99579906D01*
X158047796Y-99673040D01*
X158006521Y-99774640D01*
X157992762Y-99884706D01*
X157108657Y-99884706D01*
X157108657Y-98932206D01*
X157992762Y-98932206D01*
X158006433Y-99042097D01*
X158047443Y-99143167D01*
X158115794Y-99235419D01*
X158205311Y-99308620D01*
X158309822Y-99352541D01*
X158429325Y-99367181D01*
X158553745Y-99350116D01*
X158663481Y-99298919D01*
X158752381Y-99223314D01*
X158814294Y-99133025D01*
X158850608Y-99033608D01*
X158862713Y-98930619D01*
X158849814Y-98827431D01*
X158811119Y-98727419D01*
X158747222Y-98636733D01*
X158658719Y-98561525D01*
X158551364Y-98510923D01*
X158430913Y-98494056D01*
X158311321Y-98508873D01*
X158206546Y-98553323D01*
X158116587Y-98627406D01*
X158047796Y-98720540D01*
X158006521Y-98822140D01*
X157992762Y-98932206D01*
X157108657Y-98932206D01*
X157108657Y-97717769D01*
X157621287Y-97717769D01*
X157632003Y-97797937D01*
X157664150Y-97838419D01*
X157706219Y-97853500D01*
X157760987Y-97855881D01*
X158091187Y-97855881D01*
X158032847Y-97932875D01*
X158013400Y-98036856D01*
X158027335Y-98128490D01*
X158069139Y-98215009D01*
X158138812Y-98296412D01*
X158226919Y-98362117D01*
X158324021Y-98401540D01*
X158430119Y-98414681D01*
X158536128Y-98401628D01*
X158632966Y-98362470D01*
X158720631Y-98297206D01*
X158789864Y-98216949D01*
X158831403Y-98132812D01*
X158845250Y-98044794D01*
X158826200Y-97929303D01*
X158769050Y-97852706D01*
X158827391Y-97812225D01*
X158846838Y-97716181D01*
X158836122Y-97635616D01*
X158803975Y-97593944D01*
X158761906Y-97580450D01*
X158707138Y-97578069D01*
X157759400Y-97578069D01*
X157704631Y-97580450D01*
X157664150Y-97593944D01*
X157632003Y-97636012D01*
X157621287Y-97717769D01*
X157108657Y-97717769D01*
X157108657Y-97303431D01*
X157675262Y-97303431D01*
X157702250Y-97397094D01*
X157750669Y-97467341D01*
X157803850Y-97490756D01*
X157880050Y-97466944D01*
X158769050Y-97028794D01*
X158825406Y-96975612D01*
X158846838Y-96901794D01*
X158846838Y-96885919D01*
X158825406Y-96810512D01*
X158769050Y-96757331D01*
X157880050Y-96319181D01*
X157803850Y-96295369D01*
X157750669Y-96318784D01*
X157702250Y-96389031D01*
X157675262Y-96469200D01*
X157681612Y-96511269D01*
X157703837Y-96538256D01*
X157745906Y-96564450D01*
X157790356Y-96585683D01*
X157877669Y-96625569D01*
X157989786Y-96676567D01*
X158108650Y-96731137D01*
X158227514Y-96785906D01*
X158339631Y-96837500D01*
X158424364Y-96876592D01*
X158461075Y-96893856D01*
X157765750Y-97211356D01*
X157718125Y-97233581D01*
X157675262Y-97303431D01*
X157108657Y-97303431D01*
X157108657Y-95782739D01*
X159375343Y-95782739D01*
G37*
G36*
X158496000Y-98787744D02*
G01*
X158544419Y-98825844D01*
X158583313Y-98929031D01*
X158543625Y-99033806D01*
X158494412Y-99073097D01*
X158426150Y-99086194D01*
X158358284Y-99073891D01*
X158310263Y-99036981D01*
X158272163Y-98930619D01*
X158311850Y-98824256D01*
X158360864Y-98787347D01*
X158428531Y-98775044D01*
X158496000Y-98787744D01*
G37*
G36*
X158526163Y-97897950D02*
G01*
X158569025Y-97995581D01*
X158526163Y-98095594D01*
X158430913Y-98136869D01*
X158334869Y-98098769D01*
X158291213Y-97997169D01*
X158335663Y-97896362D01*
X158431706Y-97859056D01*
X158526163Y-97897950D01*
G37*
%TO.C,kibuzzard-6471BDC6*%
G36*
X138249356Y-103820913D02*
G01*
X138018374Y-103820913D01*
X137855259Y-103789063D01*
X137708812Y-103693516D01*
X137605227Y-103549748D01*
X137570699Y-103373237D01*
X137604334Y-103196132D01*
X137705240Y-103050578D01*
X137851389Y-102953245D01*
X138020756Y-102920800D01*
X138249356Y-102920800D01*
X138249356Y-103820913D01*
G37*
G36*
X135960974Y-103342281D02*
G01*
X135656174Y-103342281D01*
X135518062Y-103289894D01*
X135449006Y-103132731D01*
X135518062Y-102974378D01*
X135660937Y-102920800D01*
X135960974Y-102920800D01*
X135960974Y-103342281D01*
G37*
G36*
X134361620Y-104764982D02*
G01*
X134226329Y-104744913D01*
X134093658Y-104711681D01*
X133964882Y-104665604D01*
X133841243Y-104607127D01*
X133723931Y-104536813D01*
X133614076Y-104455339D01*
X133512736Y-104363489D01*
X133420887Y-104262149D01*
X133339412Y-104152294D01*
X133292080Y-104073325D01*
X135010856Y-104073325D01*
X135047765Y-104156669D01*
X135158493Y-104225725D01*
X135281127Y-104259063D01*
X135357327Y-104236441D01*
X135401381Y-104190006D01*
X135432601Y-104122008D01*
X135494514Y-103978340D01*
X135587118Y-103759000D01*
X135660937Y-103763763D01*
X135960974Y-103763763D01*
X135960974Y-104032844D01*
X135964546Y-104114997D01*
X135987168Y-104178100D01*
X136050271Y-104226320D01*
X136172906Y-104242394D01*
X136305065Y-104220367D01*
X136368168Y-104154288D01*
X136381907Y-104035225D01*
X136572956Y-104035225D01*
X136576527Y-104118569D01*
X136599149Y-104180481D01*
X136662252Y-104228702D01*
X136784887Y-104244775D01*
X136917046Y-104222153D01*
X136980149Y-104154288D01*
X136994437Y-104032844D01*
X136994437Y-103360141D01*
X137149218Y-103360141D01*
X137165217Y-103535237D01*
X137213214Y-103697385D01*
X137293209Y-103846585D01*
X137405202Y-103982838D01*
X137539966Y-104096393D01*
X137688274Y-104177505D01*
X137850124Y-104226171D01*
X138025518Y-104242394D01*
X138461287Y-104242394D01*
X138579159Y-104227511D01*
X138642262Y-104182863D01*
X138670837Y-104030463D01*
X138670837Y-102706487D01*
X138667265Y-102623144D01*
X138644643Y-102561231D01*
X138581540Y-102513011D01*
X138458906Y-102496937D01*
X138018374Y-102499319D01*
X137850943Y-102514871D01*
X137693929Y-102561529D01*
X137547333Y-102639292D01*
X137411156Y-102748159D01*
X137296558Y-102879723D01*
X137214702Y-103025575D01*
X137165589Y-103185714D01*
X137149218Y-103360141D01*
X136994437Y-103360141D01*
X136994437Y-102708869D01*
X136990865Y-102626716D01*
X136968243Y-102563612D01*
X136905140Y-102515392D01*
X136782506Y-102499319D01*
X136649751Y-102521345D01*
X136584862Y-102587425D01*
X136572956Y-102711250D01*
X136572956Y-104035225D01*
X136381907Y-104035225D01*
X136382456Y-104030463D01*
X136382456Y-102708869D01*
X136378884Y-102626716D01*
X136356262Y-102563612D01*
X136293159Y-102515392D01*
X136170524Y-102499319D01*
X135656174Y-102499319D01*
X135517797Y-102516252D01*
X135382066Y-102567052D01*
X135248981Y-102651719D01*
X135162065Y-102738634D01*
X135091818Y-102851744D01*
X135045384Y-102985094D01*
X135029906Y-103132731D01*
X135049749Y-103301535D01*
X135109281Y-103449173D01*
X135208499Y-103575644D01*
X135167224Y-103673275D01*
X135113249Y-103797894D01*
X135046574Y-103949500D01*
X135010856Y-104073325D01*
X133292080Y-104073325D01*
X133269098Y-104034982D01*
X133210622Y-103911343D01*
X133164545Y-103782568D01*
X133131312Y-103649896D01*
X133111244Y-103514606D01*
X133104533Y-103378000D01*
X133111244Y-103241394D01*
X133131312Y-103106104D01*
X133164545Y-102973432D01*
X133210622Y-102844657D01*
X133269098Y-102721018D01*
X133339412Y-102603706D01*
X133420887Y-102493851D01*
X133512736Y-102392511D01*
X133614076Y-102300661D01*
X133723931Y-102219187D01*
X133841243Y-102148873D01*
X133964882Y-102090396D01*
X134093658Y-102044319D01*
X134226329Y-102011087D01*
X134361620Y-101991018D01*
X134498225Y-101984307D01*
X139183467Y-101984307D01*
X139183467Y-104771693D01*
X134498225Y-104771693D01*
X134361620Y-104764982D01*
G37*
%TO.C,kibuzzard-6471C159*%
G36*
X151181107Y-98755901D02*
G01*
X151231449Y-98813379D01*
X151261655Y-98909177D01*
X151271723Y-99043293D01*
X151271723Y-99052677D01*
X151261753Y-99190215D01*
X151231840Y-99288456D01*
X151181987Y-99347401D01*
X151112191Y-99367049D01*
X151042396Y-99347352D01*
X150992542Y-99288261D01*
X150962630Y-99189775D01*
X150952659Y-99051895D01*
X150962532Y-98914015D01*
X150992151Y-98815530D01*
X151041516Y-98756438D01*
X151110627Y-98736741D01*
X151181107Y-98755901D01*
G37*
G36*
X153616218Y-98760202D02*
G01*
X153650627Y-98840750D01*
X153615436Y-98921298D01*
X153512210Y-98958835D01*
X153408201Y-98922080D01*
X153372228Y-98841532D01*
X153408201Y-98760202D01*
X153512992Y-98722665D01*
X153616218Y-98760202D01*
G37*
G36*
X154300796Y-100744411D02*
G01*
X154351894Y-100802751D01*
X154382552Y-100899986D01*
X154392772Y-101036114D01*
X154392772Y-101045639D01*
X154382652Y-101185240D01*
X154352291Y-101284954D01*
X154301689Y-101344783D01*
X154230847Y-101364726D01*
X154160005Y-101344734D01*
X154109403Y-101284756D01*
X154079042Y-101184793D01*
X154068922Y-101044845D01*
X154078943Y-100904897D01*
X154109006Y-100804934D01*
X154159112Y-100744956D01*
X154229259Y-100724964D01*
X154300796Y-100744411D01*
G37*
G36*
X147445085Y-99060000D02*
G01*
X148641783Y-97264954D01*
X150023278Y-97264954D01*
X150078764Y-97355888D01*
X150331531Y-97583995D01*
X150336155Y-97587077D01*
X150423236Y-97627150D01*
X150496446Y-97619444D01*
X150536519Y-97601719D01*
X150558096Y-97568582D01*
X150565803Y-97486895D01*
X150565803Y-97264954D01*
X150650572Y-97264954D01*
X150706057Y-97355888D01*
X150958824Y-97583995D01*
X150963448Y-97587077D01*
X151050530Y-97627150D01*
X151123739Y-97619444D01*
X151163812Y-97601719D01*
X151185390Y-97568582D01*
X151193096Y-97486895D01*
X151193096Y-96833400D01*
X151683218Y-96833400D01*
X151692465Y-96902757D01*
X151721749Y-96939747D01*
X151795730Y-96953619D01*
X152162550Y-96953619D01*
X152231136Y-96940903D01*
X152264273Y-96902757D01*
X152273521Y-96831859D01*
X152265044Y-96761732D01*
X152238072Y-96723971D01*
X152161009Y-96710099D01*
X151794189Y-96710099D01*
X151725217Y-96723200D01*
X151690924Y-96762502D01*
X151683218Y-96833400D01*
X151193096Y-96833400D01*
X151193096Y-96679274D01*
X152725111Y-96679274D01*
X152782138Y-96779456D01*
X152871531Y-96830318D01*
X152974795Y-96780997D01*
X153071124Y-96748631D01*
X153172847Y-96777915D01*
X153205985Y-96858831D01*
X153169765Y-96940518D01*
X153087307Y-96970573D01*
X153013327Y-96942830D01*
X152929328Y-96907381D01*
X152832229Y-96936665D01*
X152760560Y-96983673D01*
X152743606Y-97021434D01*
X152751312Y-97093488D01*
X152774431Y-97269577D01*
X152797935Y-97442969D01*
X152806798Y-97506932D01*
X152817587Y-97539298D01*
X152839935Y-97580912D01*
X152880008Y-97614050D01*
X152942429Y-97628692D01*
X153176701Y-97627150D01*
X153321579Y-97627150D01*
X153375523Y-97624838D01*
X153415596Y-97610196D01*
X153446807Y-97568582D01*
X153454266Y-97510014D01*
X153931919Y-97510014D01*
X153954653Y-97561647D01*
X154022854Y-97608655D01*
X154100687Y-97634857D01*
X154141531Y-97628692D01*
X154167732Y-97607114D01*
X154193163Y-97566270D01*
X154213777Y-97523115D01*
X154252502Y-97438346D01*
X154302015Y-97329494D01*
X154354996Y-97214092D01*
X154408169Y-97098690D01*
X154458260Y-96989838D01*
X154512975Y-96871932D01*
X154821227Y-97547005D01*
X154842805Y-97593242D01*
X154910621Y-97634857D01*
X155001555Y-97608655D01*
X155069756Y-97561647D01*
X155092489Y-97510014D01*
X155069371Y-97436034D01*
X154643982Y-96572927D01*
X154592350Y-96518212D01*
X154520681Y-96497405D01*
X154505269Y-96497405D01*
X154432059Y-96518212D01*
X154380426Y-96572927D01*
X153955038Y-97436034D01*
X153931919Y-97510014D01*
X153454266Y-97510014D01*
X153457210Y-97486895D01*
X153447577Y-97412529D01*
X153418679Y-97374383D01*
X153380918Y-97359741D01*
X153330827Y-97357429D01*
X153061106Y-97357429D01*
X153045693Y-97240293D01*
X153099638Y-97243376D01*
X153193997Y-97231131D01*
X153281849Y-97194398D01*
X153363193Y-97133176D01*
X153428269Y-97054229D01*
X153467314Y-96964322D01*
X153480329Y-96863455D01*
X153467999Y-96762074D01*
X153431009Y-96670626D01*
X153369358Y-96589110D01*
X153289384Y-96525319D01*
X153197422Y-96487044D01*
X153093472Y-96474286D01*
X153000997Y-96482335D01*
X152914686Y-96506481D01*
X152834540Y-96546725D01*
X152796009Y-96576009D01*
X152783679Y-96586798D01*
X152725111Y-96679274D01*
X151193096Y-96679274D01*
X151193096Y-96628412D01*
X151190784Y-96575239D01*
X151176142Y-96534395D01*
X151135299Y-96503185D01*
X151055924Y-96492781D01*
X150978476Y-96502800D01*
X150937247Y-96532854D01*
X150922605Y-96575239D01*
X150920293Y-96631495D01*
X150920293Y-97181725D01*
X150900256Y-97163230D01*
X150792368Y-97115451D01*
X150699122Y-97169395D01*
X150650572Y-97264954D01*
X150565803Y-97264954D01*
X150565803Y-96628412D01*
X150563491Y-96575239D01*
X150548849Y-96534395D01*
X150508005Y-96503185D01*
X150428630Y-96492781D01*
X150351182Y-96502800D01*
X150309953Y-96532854D01*
X150295311Y-96575239D01*
X150292999Y-96631495D01*
X150292999Y-97181725D01*
X150272963Y-97163230D01*
X150165074Y-97115451D01*
X150071828Y-97169395D01*
X150023278Y-97264954D01*
X148641783Y-97264954D01*
X149510648Y-95961656D01*
X156846915Y-95961656D01*
X156846915Y-102158344D01*
X149510648Y-102158344D01*
X148768845Y-101045639D01*
X150039847Y-101045639D01*
X150043992Y-101146357D01*
X150056427Y-101236844D01*
X150077153Y-101317101D01*
X150116642Y-101417709D01*
X150160497Y-101494108D01*
X150215861Y-101553242D01*
X150289878Y-101602058D01*
X150379770Y-101634800D01*
X150482759Y-101645714D01*
X150585352Y-101634998D01*
X150674053Y-101602851D01*
X150747078Y-101554829D01*
X150802641Y-101496489D01*
X150844908Y-101427433D01*
X150878047Y-101347264D01*
X150902681Y-101256776D01*
X150989172Y-101256776D01*
X151046322Y-101350439D01*
X151306672Y-101585389D01*
X151311434Y-101588564D01*
X151401128Y-101629839D01*
X151476534Y-101621901D01*
X151517809Y-101603645D01*
X151540034Y-101569514D01*
X151547972Y-101485376D01*
X151547972Y-101256776D01*
X153125947Y-101256776D01*
X153183097Y-101350439D01*
X153443447Y-101585389D01*
X153448209Y-101588564D01*
X153537903Y-101629839D01*
X153613309Y-101621901D01*
X153654584Y-101603645D01*
X153676809Y-101569514D01*
X153684747Y-101485376D01*
X153684747Y-101045639D01*
X153787934Y-101045639D01*
X153792080Y-101146357D01*
X153804515Y-101236844D01*
X153825241Y-101317101D01*
X153864730Y-101417709D01*
X153908584Y-101494108D01*
X153963948Y-101553242D01*
X154037966Y-101602058D01*
X154127858Y-101634800D01*
X154230847Y-101645714D01*
X154333439Y-101634998D01*
X154422141Y-101602851D01*
X154495166Y-101554829D01*
X154538633Y-101509189D01*
X155138897Y-101509189D01*
X155162313Y-101562370D01*
X155232559Y-101610789D01*
X155312728Y-101637776D01*
X155354797Y-101631426D01*
X155381784Y-101609201D01*
X155407978Y-101567133D01*
X155429211Y-101522683D01*
X155469097Y-101435370D01*
X155520095Y-101323253D01*
X155574666Y-101204389D01*
X155629434Y-101085525D01*
X155681028Y-100973408D01*
X155720120Y-100888675D01*
X155737384Y-100851964D01*
X156054884Y-101547289D01*
X156077109Y-101594914D01*
X156146959Y-101637776D01*
X156240622Y-101610789D01*
X156310869Y-101562370D01*
X156334284Y-101509189D01*
X156310472Y-101432989D01*
X155872322Y-100543989D01*
X155819141Y-100487633D01*
X155745322Y-100466201D01*
X155729447Y-100466201D01*
X155654041Y-100487633D01*
X155600859Y-100543989D01*
X155162709Y-101432989D01*
X155138897Y-101509189D01*
X154538633Y-101509189D01*
X154550728Y-101496489D01*
X154592995Y-101427433D01*
X154626134Y-101347264D01*
X154652593Y-101250074D01*
X154668468Y-101149003D01*
X154673759Y-101044051D01*
X154666020Y-100907824D01*
X154642803Y-100786479D01*
X154604108Y-100680018D01*
X154549934Y-100588439D01*
X154494967Y-100530495D01*
X154422141Y-100483664D01*
X154333836Y-100452708D01*
X154232434Y-100442389D01*
X154130636Y-100452906D01*
X154041141Y-100484458D01*
X153966925Y-100531487D01*
X153910966Y-100588439D01*
X153868302Y-100656304D01*
X153833972Y-100736076D01*
X153808395Y-100831150D01*
X153793050Y-100934337D01*
X153787934Y-101045639D01*
X153684747Y-101045639D01*
X153684747Y-100601139D01*
X153682366Y-100546370D01*
X153667284Y-100504301D01*
X153625216Y-100472154D01*
X153543459Y-100461439D01*
X153463688Y-100471758D01*
X153421222Y-100502714D01*
X153406141Y-100546370D01*
X153403759Y-100604314D01*
X153403759Y-101171051D01*
X153383122Y-101152001D01*
X153271997Y-101102789D01*
X153175953Y-101158351D01*
X153125947Y-101256776D01*
X151547972Y-101256776D01*
X151547972Y-100812276D01*
X152052797Y-100812276D01*
X152062322Y-100883714D01*
X152092484Y-100921814D01*
X152168684Y-100936101D01*
X152546509Y-100936101D01*
X152617153Y-100923004D01*
X152651284Y-100883714D01*
X152660809Y-100810689D01*
X152652078Y-100738458D01*
X152624297Y-100699564D01*
X152544922Y-100685276D01*
X152167097Y-100685276D01*
X152096056Y-100698770D01*
X152060734Y-100739251D01*
X152052797Y-100812276D01*
X151547972Y-100812276D01*
X151547972Y-100601139D01*
X151545591Y-100546370D01*
X151530509Y-100504301D01*
X151488441Y-100472154D01*
X151406684Y-100461439D01*
X151326913Y-100471758D01*
X151284447Y-100502714D01*
X151269366Y-100546370D01*
X151266984Y-100604314D01*
X151266984Y-101171051D01*
X151246347Y-101152001D01*
X151135222Y-101102789D01*
X151039178Y-101158351D01*
X150989172Y-101256776D01*
X150902681Y-101256776D01*
X150904505Y-101250074D01*
X150920380Y-101149003D01*
X150925672Y-101044051D01*
X150917933Y-100907824D01*
X150894716Y-100786479D01*
X150856020Y-100680018D01*
X150801847Y-100588439D01*
X150746880Y-100530495D01*
X150674053Y-100483664D01*
X150585748Y-100452708D01*
X150484347Y-100442389D01*
X150382548Y-100452906D01*
X150293053Y-100484458D01*
X150218838Y-100531487D01*
X150162878Y-100588439D01*
X150120214Y-100656304D01*
X150085884Y-100736076D01*
X150060308Y-100831150D01*
X150044962Y-100934337D01*
X150039847Y-101045639D01*
X148768845Y-101045639D01*
X147578881Y-99260694D01*
X150023620Y-99260694D01*
X150079925Y-99352973D01*
X150336428Y-99584451D01*
X150341120Y-99587579D01*
X150429488Y-99628244D01*
X150503780Y-99620424D01*
X150544445Y-99602437D01*
X150566342Y-99568810D01*
X150574162Y-99485916D01*
X150574162Y-99052677D01*
X150675824Y-99052677D01*
X150679908Y-99151907D01*
X150692160Y-99241057D01*
X150712579Y-99320128D01*
X150751485Y-99419249D01*
X150794691Y-99494518D01*
X150849237Y-99552779D01*
X150922161Y-99600873D01*
X151010724Y-99633131D01*
X151112191Y-99643884D01*
X151213267Y-99633327D01*
X151300658Y-99601655D01*
X151372604Y-99554343D01*
X151427345Y-99496864D01*
X151468988Y-99428829D01*
X151501637Y-99349845D01*
X151527705Y-99254091D01*
X151543345Y-99154514D01*
X151548558Y-99051113D01*
X151540934Y-98916899D01*
X151522923Y-98822763D01*
X152022462Y-98822763D01*
X152031847Y-98893145D01*
X152061563Y-98930682D01*
X152136637Y-98944759D01*
X152508879Y-98944759D01*
X152578478Y-98931855D01*
X152612105Y-98893145D01*
X152618021Y-98847788D01*
X153095393Y-98847788D01*
X153103409Y-98912500D01*
X153127456Y-98975257D01*
X153190800Y-99065190D01*
X153223645Y-99094906D01*
X153197056Y-99119931D01*
X153155609Y-99187967D01*
X153129802Y-99296667D01*
X153142662Y-99392943D01*
X153181242Y-99477401D01*
X153245541Y-99550042D01*
X153326871Y-99605652D01*
X153416543Y-99639018D01*
X153514556Y-99650140D01*
X153612222Y-99638844D01*
X153700850Y-99604957D01*
X153780443Y-99548478D01*
X153813486Y-99509377D01*
X154385726Y-99509377D01*
X154408795Y-99561772D01*
X154478004Y-99609475D01*
X154556988Y-99636064D01*
X154598435Y-99629808D01*
X154625024Y-99607911D01*
X154650831Y-99566464D01*
X154671750Y-99522671D01*
X154711046Y-99436649D01*
X154761291Y-99326189D01*
X154815055Y-99209081D01*
X154869014Y-99091974D01*
X154919845Y-98981513D01*
X154975369Y-98861864D01*
X155288177Y-99546914D01*
X155310073Y-99593835D01*
X155378891Y-99636064D01*
X155471169Y-99609475D01*
X155540378Y-99561772D01*
X155563448Y-99509377D01*
X155539987Y-99434303D01*
X155108312Y-98558441D01*
X155055917Y-98502917D01*
X154983189Y-98481803D01*
X154967549Y-98481803D01*
X154893257Y-98502917D01*
X154840861Y-98558441D01*
X154409186Y-99434303D01*
X154385726Y-99509377D01*
X153813486Y-99509377D01*
X153843004Y-99474447D01*
X153880541Y-99387903D01*
X153893053Y-99288847D01*
X153870375Y-99193441D01*
X153824236Y-99119931D01*
X153800775Y-99094906D01*
X153835966Y-99062844D01*
X153892271Y-98977603D01*
X153918665Y-98913087D01*
X153927462Y-98847788D01*
X153913299Y-98738566D01*
X153870809Y-98644463D01*
X153799993Y-98565479D01*
X153711277Y-98505959D01*
X153615089Y-98470246D01*
X153511428Y-98458342D01*
X153407767Y-98470159D01*
X153311578Y-98505611D01*
X153222863Y-98564697D01*
X153152046Y-98643420D01*
X153109557Y-98737784D01*
X153095393Y-98847788D01*
X152618021Y-98847788D01*
X152621489Y-98821199D01*
X152612887Y-98750036D01*
X152585517Y-98711717D01*
X152507315Y-98697640D01*
X152135073Y-98697640D01*
X152065082Y-98710935D01*
X152030283Y-98750818D01*
X152022462Y-98822763D01*
X151522923Y-98822763D01*
X151518060Y-98797348D01*
X151479936Y-98692459D01*
X151426563Y-98602234D01*
X151372408Y-98545146D01*
X151300658Y-98499007D01*
X151213658Y-98468509D01*
X151113755Y-98458342D01*
X151013461Y-98468704D01*
X150925289Y-98499789D01*
X150852170Y-98546124D01*
X150797037Y-98602234D01*
X150755004Y-98669097D01*
X150721182Y-98747690D01*
X150695983Y-98841358D01*
X150680864Y-98943021D01*
X150675824Y-99052677D01*
X150574162Y-99052677D01*
X150574162Y-98614746D01*
X150571816Y-98560787D01*
X150556957Y-98519340D01*
X150515510Y-98487668D01*
X150434962Y-98477111D01*
X150356369Y-98487277D01*
X150314531Y-98517776D01*
X150299673Y-98560787D01*
X150297327Y-98617874D01*
X150297327Y-99176236D01*
X150276994Y-99157468D01*
X150167512Y-99108983D01*
X150072887Y-99163724D01*
X150023620Y-99260694D01*
X147578881Y-99260694D01*
X147445085Y-99060000D01*
G37*
G36*
X150552709Y-100744411D02*
G01*
X150603806Y-100802751D01*
X150634465Y-100899986D01*
X150644684Y-101036114D01*
X150644684Y-101045639D01*
X150634564Y-101185240D01*
X150604203Y-101284954D01*
X150553602Y-101344783D01*
X150482759Y-101364726D01*
X150411917Y-101344734D01*
X150361316Y-101284756D01*
X150330955Y-101184793D01*
X150320834Y-101044845D01*
X150330855Y-100904897D01*
X150360919Y-100804934D01*
X150411024Y-100744956D01*
X150481172Y-100724964D01*
X150552709Y-100744411D01*
G37*
G36*
X153590412Y-99238798D02*
G01*
X153616218Y-99298231D01*
X153589630Y-99356883D01*
X153510646Y-99384254D01*
X153433226Y-99357665D01*
X153408201Y-99299013D01*
X153435572Y-99238798D01*
X153513774Y-99210645D01*
X153590412Y-99238798D01*
G37*
%TO.C,J4*%
X126950000Y-88840000D02*
X126950000Y-90170000D01*
X128280000Y-88840000D02*
X126950000Y-88840000D01*
X129550000Y-88840000D02*
X129550000Y-91500000D01*
X129550000Y-91500000D02*
X162630000Y-91500000D01*
X162630000Y-88840000D02*
X162630000Y-91500000D01*
X129550000Y-88840000D02*
X162630000Y-88840000D01*
%TO.C,J1*%
X128280000Y-106620000D02*
X126950000Y-106620000D01*
X126950000Y-106620000D02*
X126950000Y-107950000D01*
X129550000Y-106620000D02*
X162630000Y-106620000D01*
X162630000Y-106620000D02*
X162630000Y-109280000D01*
X129550000Y-109280000D02*
X162630000Y-109280000D01*
X129550000Y-106620000D02*
X129550000Y-109280000D01*
%TO.C,kibuzzard-6471BDE7*%
G36*
X146345850Y-101993388D02*
G01*
X146480909Y-102013422D01*
X146613354Y-102046598D01*
X146741909Y-102092596D01*
X146865337Y-102150973D01*
X146982449Y-102221167D01*
X147092116Y-102302502D01*
X147193283Y-102394194D01*
X147284976Y-102495361D01*
X147366311Y-102605029D01*
X147436505Y-102722140D01*
X147494882Y-102845568D01*
X147540880Y-102974124D01*
X147574055Y-103106569D01*
X147594090Y-103241628D01*
X147600789Y-103378000D01*
X147594090Y-103514372D01*
X147574055Y-103649431D01*
X147540880Y-103781876D01*
X147494882Y-103910432D01*
X147436505Y-104033860D01*
X147366311Y-104150971D01*
X147284976Y-104260639D01*
X147193283Y-104361806D01*
X147092116Y-104453498D01*
X146982449Y-104534833D01*
X146865337Y-104605027D01*
X146741909Y-104663404D01*
X146613354Y-104709402D01*
X146480909Y-104742578D01*
X146345850Y-104762612D01*
X146209478Y-104769311D01*
X139419211Y-104769311D01*
X139419211Y-104049513D01*
X139931841Y-104049513D01*
X139954463Y-104179886D01*
X140022329Y-104242394D01*
X140136629Y-104256681D01*
X140246166Y-104244775D01*
X140308079Y-104216200D01*
X140341416Y-104168575D01*
X140353322Y-104044750D01*
X140353322Y-103247031D01*
X140426546Y-103342579D01*
X140527154Y-103481584D01*
X140620618Y-103612255D01*
X140672410Y-103682800D01*
X140715272Y-103738759D01*
X140773613Y-103781622D01*
X140873626Y-103809006D01*
X140971257Y-103784003D01*
X141034360Y-103735188D01*
X141053410Y-103708994D01*
X141124252Y-103615827D01*
X141241529Y-103455391D01*
X141349876Y-103306265D01*
X141393929Y-103247031D01*
X141393929Y-104049513D01*
X141397501Y-104131666D01*
X141420122Y-104192388D01*
X141484416Y-104240608D01*
X141605860Y-104256681D01*
X141723732Y-104240608D01*
X141786835Y-104192388D01*
X141809457Y-104130475D01*
X141813029Y-104044750D01*
X141813029Y-102723156D01*
X141810958Y-102675531D01*
X141943997Y-102675531D01*
X141972572Y-102792212D01*
X142429772Y-104113806D01*
X142446441Y-104154288D01*
X142509544Y-104217391D01*
X142630988Y-104256681D01*
X142752432Y-104217391D01*
X142820297Y-104140000D01*
X143098904Y-103318469D01*
X143194249Y-103600218D01*
X143268830Y-103820627D01*
X143322646Y-103979694D01*
X143355698Y-104077421D01*
X143367985Y-104113806D01*
X143389416Y-104154288D01*
X143427516Y-104201913D01*
X143558485Y-104256681D01*
X143683501Y-104220963D01*
X143748985Y-104149525D01*
X143765654Y-104113806D01*
X144101852Y-103147019D01*
X144346679Y-103147019D01*
X144362157Y-103294359D01*
X144408591Y-103426816D01*
X144479433Y-103539032D01*
X144568135Y-103625650D01*
X144701485Y-103710317D01*
X144838010Y-103761117D01*
X144977710Y-103778050D01*
X145275366Y-103778050D01*
X145275366Y-104047131D01*
X145278938Y-104129284D01*
X145301560Y-104192388D01*
X145364663Y-104240608D01*
X145487297Y-104256681D01*
X145619457Y-104234655D01*
X145682560Y-104168575D01*
X145696847Y-104044750D01*
X145696847Y-102723156D01*
X145693276Y-102641003D01*
X145670654Y-102577900D01*
X145607551Y-102529680D01*
X145484916Y-102513606D01*
X144975329Y-102513606D01*
X144836952Y-102530540D01*
X144701220Y-102581340D01*
X144568135Y-102666006D01*
X144479433Y-102752922D01*
X144408591Y-102866031D01*
X144362157Y-102999381D01*
X144346679Y-103147019D01*
X144101852Y-103147019D01*
X144225235Y-102792212D01*
X144251429Y-102675531D01*
X144211543Y-102590402D01*
X144091885Y-102525512D01*
X143966869Y-102501700D01*
X143881144Y-102539800D01*
X143827566Y-102656481D01*
X143565629Y-103451819D01*
X143306072Y-102668387D01*
X143259043Y-102583853D01*
X143184629Y-102530275D01*
X143085807Y-102513606D01*
X142972697Y-102552897D01*
X142906022Y-102630287D01*
X142632179Y-103456581D01*
X142370241Y-102656481D01*
X142339285Y-102575519D01*
X142295232Y-102524322D01*
X142215460Y-102499319D01*
X142103541Y-102523131D01*
X141983883Y-102589806D01*
X141943997Y-102675531D01*
X141810958Y-102675531D01*
X141809457Y-102641003D01*
X141786835Y-102577900D01*
X141722541Y-102531466D01*
X141601097Y-102515987D01*
X141490369Y-102531466D01*
X141429647Y-102563612D01*
X141415360Y-102577900D01*
X140874816Y-103287512D01*
X140723654Y-103087773D01*
X140594019Y-102917180D01*
X140485910Y-102775734D01*
X140399328Y-102663434D01*
X140334272Y-102580281D01*
X140266109Y-102532061D01*
X140142582Y-102515987D01*
X140020840Y-102532061D01*
X139958035Y-102580281D01*
X139935413Y-102644575D01*
X139931841Y-102727919D01*
X139931841Y-104049513D01*
X139419211Y-104049513D01*
X139419211Y-101986689D01*
X146209478Y-101986689D01*
X146345850Y-101993388D01*
G37*
G36*
X145275366Y-103356569D02*
G01*
X144975329Y-103356569D01*
X144834835Y-103304181D01*
X144765779Y-103147019D01*
X144834835Y-102988666D01*
X144977710Y-102935087D01*
X145275366Y-102935087D01*
X145275366Y-103356569D01*
G37*
%TO.C,JP3*%
X143748000Y-99760000D02*
X143748000Y-98360000D01*
X141748000Y-98360000D02*
X141748000Y-99760000D01*
X143048000Y-97660000D02*
X142448000Y-97660000D01*
X142448000Y-100460000D02*
X143048000Y-100460000D01*
X143748000Y-98360000D02*
G75*
G03*
X143048000Y-97660000I-699999J1D01*
G01*
X142448000Y-97660000D02*
G75*
G03*
X141748000Y-98360000I-1J-699999D01*
G01*
X141748000Y-99760000D02*
G75*
G03*
X142448000Y-100460000I699999J-1D01*
G01*
X143048000Y-100460000D02*
G75*
G03*
X143748000Y-99760000I1J699999D01*
G01*
%TO.C,JP1*%
X140000000Y-93342000D02*
X139400000Y-93342000D01*
X138700000Y-94042000D02*
X138700000Y-95442000D01*
X139400000Y-96142000D02*
X140000000Y-96142000D01*
X140700000Y-95442000D02*
X140700000Y-94042000D01*
X140700000Y-94042000D02*
G75*
G03*
X140000000Y-93342000I-699999J1D01*
G01*
X139400000Y-93342000D02*
G75*
G03*
X138700000Y-94042000I-1J-699999D01*
G01*
X138700000Y-95442000D02*
G75*
G03*
X139400000Y-96142000I699999J-1D01*
G01*
X140000000Y-96142000D02*
G75*
G03*
X140700000Y-95442000I1J699999D01*
G01*
%TO.C,kibuzzard-6471BF11*%
G36*
X144616091Y-94297897D02*
G01*
X144760156Y-94394337D01*
X144835562Y-94489852D01*
X144880806Y-94604946D01*
X144895887Y-94739619D01*
X144880674Y-94874556D01*
X144835033Y-94990444D01*
X144758966Y-95087281D01*
X144614007Y-95185508D01*
X144452975Y-95218250D01*
X144292241Y-95185210D01*
X144148175Y-95086091D01*
X144072769Y-94989121D01*
X144027525Y-94874424D01*
X144012444Y-94742000D01*
X144027657Y-94609576D01*
X144073298Y-94494879D01*
X144149366Y-94397909D01*
X144294324Y-94298790D01*
X144455356Y-94265750D01*
X144616091Y-94297897D01*
G37*
G36*
X141042364Y-93331639D02*
G01*
X149025636Y-93331639D01*
X149025636Y-96152361D01*
X141042364Y-96152361D01*
X141042364Y-95408750D01*
X141554994Y-95408750D01*
X141558566Y-95490903D01*
X141581187Y-95554006D01*
X141645481Y-95600441D01*
X141766925Y-95615919D01*
X141877653Y-95600441D01*
X141938375Y-95568294D01*
X141952662Y-95554006D01*
X142493206Y-94844394D01*
X142644368Y-95044133D01*
X142774003Y-95214726D01*
X142882112Y-95356172D01*
X142968694Y-95468472D01*
X143033750Y-95551625D01*
X143101913Y-95599845D01*
X143225441Y-95615919D01*
X143347182Y-95599845D01*
X143409987Y-95551625D01*
X143432609Y-95487331D01*
X143436181Y-95403988D01*
X143436181Y-94730094D01*
X143590962Y-94730094D01*
X143608822Y-94921487D01*
X143662400Y-95100378D01*
X143745744Y-95259029D01*
X143852900Y-95389700D01*
X143980892Y-95493880D01*
X144126744Y-95573056D01*
X144283906Y-95623063D01*
X144445831Y-95639731D01*
X144616239Y-95623807D01*
X144775039Y-95576033D01*
X144922230Y-95496410D01*
X145025955Y-95411131D01*
X145472150Y-95411131D01*
X145475722Y-95494475D01*
X145498344Y-95556388D01*
X145561447Y-95604608D01*
X145684081Y-95620681D01*
X146124613Y-95618300D01*
X146292044Y-95602747D01*
X146449058Y-95556090D01*
X146595654Y-95478327D01*
X146682684Y-95408750D01*
X147148550Y-95408750D01*
X147193794Y-95574247D01*
X147365244Y-95618300D01*
X148303456Y-95618300D01*
X148385609Y-95614728D01*
X148448713Y-95592106D01*
X148496933Y-95529003D01*
X148513006Y-95406369D01*
X148490980Y-95274209D01*
X148424900Y-95211106D01*
X148301075Y-95196819D01*
X147570031Y-95196819D01*
X147570031Y-94956313D01*
X148041519Y-94956313D01*
X148123672Y-94952741D01*
X148186775Y-94930119D01*
X148234995Y-94867016D01*
X148251069Y-94744381D01*
X148228447Y-94612222D01*
X148160581Y-94549119D01*
X148036756Y-94534831D01*
X147570031Y-94534831D01*
X147570031Y-94294325D01*
X148303456Y-94294325D01*
X148385609Y-94290753D01*
X148448713Y-94268131D01*
X148496933Y-94205028D01*
X148513006Y-94082394D01*
X148490980Y-93950234D01*
X148424900Y-93887131D01*
X148301075Y-93872844D01*
X147358100Y-93872844D01*
X147225941Y-93895466D01*
X147162838Y-93963331D01*
X147148550Y-94084775D01*
X147148550Y-95408750D01*
X146682684Y-95408750D01*
X146731831Y-95369459D01*
X146846429Y-95237895D01*
X146928284Y-95092044D01*
X146977398Y-94931905D01*
X146993769Y-94757478D01*
X146977770Y-94582382D01*
X146929773Y-94420234D01*
X146849778Y-94271033D01*
X146737784Y-94134781D01*
X146603021Y-94021225D01*
X146454713Y-93940114D01*
X146292863Y-93891447D01*
X146117469Y-93875225D01*
X145681700Y-93875225D01*
X145563828Y-93890108D01*
X145500725Y-93934756D01*
X145472150Y-94087156D01*
X145472150Y-95411131D01*
X145025955Y-95411131D01*
X145057813Y-95384938D01*
X145171368Y-95249876D01*
X145252480Y-95099485D01*
X145301146Y-94933765D01*
X145317369Y-94752716D01*
X145301891Y-94570996D01*
X145255456Y-94403267D01*
X145178066Y-94249528D01*
X145069719Y-94109778D01*
X144938750Y-93993618D01*
X144793494Y-93910646D01*
X144633950Y-93860863D01*
X144460119Y-93844269D01*
X144285915Y-93860640D01*
X144125255Y-93909753D01*
X143978139Y-93991609D01*
X143844566Y-94106206D01*
X143733614Y-94243426D01*
X143654363Y-94393147D01*
X143606813Y-94555370D01*
X143590962Y-94730094D01*
X143436181Y-94730094D01*
X143436181Y-94082394D01*
X143413559Y-93952020D01*
X143345694Y-93889512D01*
X143231394Y-93875225D01*
X143121856Y-93887131D01*
X143059944Y-93915706D01*
X143026606Y-93963331D01*
X143014700Y-94087156D01*
X143014700Y-94884875D01*
X142941477Y-94789327D01*
X142840869Y-94650322D01*
X142747405Y-94519651D01*
X142695612Y-94449106D01*
X142652750Y-94393147D01*
X142594409Y-94350284D01*
X142494397Y-94322900D01*
X142396766Y-94347903D01*
X142333662Y-94396719D01*
X142314612Y-94422912D01*
X142243770Y-94516079D01*
X142126494Y-94676516D01*
X142018147Y-94825641D01*
X141974094Y-94884875D01*
X141974094Y-94082394D01*
X141970522Y-94000241D01*
X141947900Y-93939519D01*
X141883606Y-93891298D01*
X141762162Y-93875225D01*
X141644291Y-93891298D01*
X141581187Y-93939519D01*
X141558566Y-94001431D01*
X141554994Y-94087156D01*
X141554994Y-95408750D01*
X141042364Y-95408750D01*
X141042364Y-93331639D01*
G37*
G36*
X146287728Y-94328555D02*
G01*
X146434175Y-94424103D01*
X146537759Y-94567871D01*
X146572288Y-94744381D01*
X146538652Y-94921487D01*
X146437747Y-95067041D01*
X146291598Y-95164374D01*
X146122231Y-95196819D01*
X145893631Y-95196819D01*
X145893631Y-94296706D01*
X146124613Y-94296706D01*
X146287728Y-94328555D01*
G37*
%TD*%
%LPC*%
D12*
%TO.C,J2*%
X160655000Y-96520000D03*
D13*
X160655000Y-99060000D03*
X160655000Y-101600000D03*
%TD*%
D12*
%TO.C,J3*%
X131445000Y-95250000D03*
D13*
X131445000Y-97790000D03*
X131445000Y-100330000D03*
X131445000Y-102870000D03*
%TD*%
D14*
%TO.C,JP2*%
X145288000Y-98410000D03*
D15*
X145288000Y-99710000D03*
%TD*%
D12*
%TO.C,J4*%
X128280000Y-90170000D03*
D13*
X130820000Y-90170000D03*
X133360000Y-90170000D03*
X135900000Y-90170000D03*
X138440000Y-90170000D03*
X140980000Y-90170000D03*
X143520000Y-90170000D03*
X146060000Y-90170000D03*
X148600000Y-90170000D03*
X151140000Y-90170000D03*
X153680000Y-90170000D03*
X156220000Y-90170000D03*
X158760000Y-90170000D03*
X161300000Y-90170000D03*
%TD*%
D12*
%TO.C,J1*%
X128280000Y-107950000D03*
D13*
X130820000Y-107950000D03*
X133360000Y-107950000D03*
X135900000Y-107950000D03*
X138440000Y-107950000D03*
X140980000Y-107950000D03*
X143520000Y-107950000D03*
X146060000Y-107950000D03*
X148600000Y-107950000D03*
X151140000Y-107950000D03*
X153680000Y-107950000D03*
X156220000Y-107950000D03*
X158760000Y-107950000D03*
X161300000Y-107950000D03*
%TD*%
D14*
%TO.C,JP3*%
X142748000Y-98410000D03*
D15*
X142748000Y-99710000D03*
%TD*%
D14*
%TO.C,JP1*%
X139700000Y-94092000D03*
D15*
X139700000Y-95392000D03*
%TD*%
M02*
