%TF.GenerationSoftware,KiCad,Pcbnew,(6.0.0-0)*%
%TF.CreationDate,2023-05-28T12:29:54+10:00*%
%TF.ProjectId,motor-driver,6d6f746f-722d-4647-9269-7665722e6b69,v1.0.0*%
%TF.SameCoordinates,Original*%
%TF.FileFunction,Copper,L2,Bot*%
%TF.FilePolarity,Positive*%
%FSLAX46Y46*%
G04 Gerber Fmt 4.6, Leading zero omitted, Abs format (unit mm)*
G04 Created by KiCad (PCBNEW (6.0.0-0)) date 2023-05-28 12:29:54*
%MOMM*%
%LPD*%
G01*
G04 APERTURE LIST*
G04 Aperture macros list*
%AMFreePoly0*
4,1,22,0.500000,-0.750000,0.000000,-0.750000,0.000000,-0.745033,-0.079941,-0.743568,-0.215256,-0.701293,-0.333266,-0.622738,-0.424486,-0.514219,-0.481581,-0.384460,-0.499164,-0.250000,-0.500000,-0.250000,-0.500000,0.250000,-0.499164,0.250000,-0.499963,0.256109,-0.478152,0.396186,-0.417904,0.524511,-0.324060,0.630769,-0.204165,0.706417,-0.067858,0.745374,0.000000,0.744959,0.000000,0.750000,
0.500000,0.750000,0.500000,-0.750000,0.500000,-0.750000,$1*%
%AMFreePoly1*
4,1,20,0.000000,0.744959,0.073905,0.744508,0.209726,0.703889,0.328688,0.626782,0.421226,0.519385,0.479903,0.390333,0.500000,0.250000,0.500000,-0.250000,0.499851,-0.262216,0.476331,-0.402017,0.414519,-0.529596,0.319384,-0.634700,0.198574,-0.708877,0.061801,-0.746166,0.000000,-0.745033,0.000000,-0.750000,-0.500000,-0.750000,-0.500000,0.750000,0.000000,0.750000,0.000000,0.744959,
0.000000,0.744959,$1*%
G04 Aperture macros list end*
%TA.AperFunction,ComponentPad*%
%ADD10R,1.700000X1.700000*%
%TD*%
%TA.AperFunction,ComponentPad*%
%ADD11O,1.700000X1.700000*%
%TD*%
%TA.AperFunction,SMDPad,CuDef*%
%ADD12FreePoly0,270.000000*%
%TD*%
%TA.AperFunction,SMDPad,CuDef*%
%ADD13FreePoly1,270.000000*%
%TD*%
%TA.AperFunction,ViaPad*%
%ADD14C,0.600000*%
%TD*%
%TA.AperFunction,ViaPad*%
%ADD15C,0.800000*%
%TD*%
%TA.AperFunction,Conductor*%
%ADD16C,0.250000*%
%TD*%
G04 APERTURE END LIST*
%TO.C,JP1*%
G36*
X140000000Y-94992000D02*
G01*
X139400000Y-94992000D01*
X139400000Y-94492000D01*
X140000000Y-94492000D01*
X140000000Y-94992000D01*
G37*
%TD*%
D10*
%TO.P,J2,1,Pin_1*%
%TO.N,GND*%
X160655000Y-96520000D03*
D11*
%TO.P,J2,2,Pin_2*%
%TO.N,/Vboost*%
X160655000Y-99060000D03*
%TO.P,J2,3,Pin_3*%
%TO.N,VDC*%
X160655000Y-101600000D03*
%TD*%
D10*
%TO.P,J3,1,Pin_1*%
%TO.N,/M1+*%
X131445000Y-95250000D03*
D11*
%TO.P,J3,2,Pin_2*%
%TO.N,/M1-*%
X131445000Y-97790000D03*
%TO.P,J3,3,Pin_3*%
%TO.N,/M2+*%
X131445000Y-100330000D03*
%TO.P,J3,4,Pin_4*%
%TO.N,/M2-*%
X131445000Y-102870000D03*
%TD*%
D12*
%TO.P,JP2,1,A*%
%TO.N,Net-(JP2-Pad1)*%
X145288000Y-98410000D03*
D13*
%TO.P,JP2,2,B*%
%TO.N,Net-(JP2-Pad2)*%
X145288000Y-99710000D03*
%TD*%
D10*
%TO.P,J4,1,Pin_1*%
%TO.N,unconnected-(J4-Pad1)*%
X128280000Y-90170000D03*
D11*
%TO.P,J4,2,Pin_2*%
%TO.N,unconnected-(J4-Pad2)*%
X130820000Y-90170000D03*
%TO.P,J4,3,Pin_3*%
%TO.N,unconnected-(J4-Pad3)*%
X133360000Y-90170000D03*
%TO.P,J4,4,Pin_4*%
%TO.N,unconnected-(J4-Pad4)*%
X135900000Y-90170000D03*
%TO.P,J4,5,Pin_5*%
%TO.N,unconnected-(J4-Pad5)*%
X138440000Y-90170000D03*
%TO.P,J4,6,Pin_6*%
%TO.N,+3V3*%
X140980000Y-90170000D03*
%TO.P,J4,7,Pin_7*%
%TO.N,unconnected-(J4-Pad7)*%
X143520000Y-90170000D03*
%TO.P,J4,8,Pin_8*%
%TO.N,unconnected-(J4-Pad8)*%
X146060000Y-90170000D03*
%TO.P,J4,9,Pin_9*%
%TO.N,unconnected-(J4-Pad9)*%
X148600000Y-90170000D03*
%TO.P,J4,10,Pin_10*%
%TO.N,unconnected-(J4-Pad10)*%
X151140000Y-90170000D03*
%TO.P,J4,11,Pin_11*%
%TO.N,unconnected-(J4-Pad11)*%
X153680000Y-90170000D03*
%TO.P,J4,12,Pin_12*%
%TO.N,unconnected-(J4-Pad12)*%
X156220000Y-90170000D03*
%TO.P,J4,13,Pin_13*%
%TO.N,unconnected-(J4-Pad13)*%
X158760000Y-90170000D03*
%TO.P,J4,14,Pin_14*%
%TO.N,/Vin*%
X161300000Y-90170000D03*
%TD*%
D10*
%TO.P,J1,1,Pin_1*%
%TO.N,unconnected-(J1-Pad1)*%
X128280000Y-107950000D03*
D11*
%TO.P,J1,2,Pin_2*%
%TO.N,unconnected-(J1-Pad2)*%
X130820000Y-107950000D03*
%TO.P,J1,3,Pin_3*%
%TO.N,unconnected-(J1-Pad3)*%
X133360000Y-107950000D03*
%TO.P,J1,4,Pin_4*%
%TO.N,/AIN1*%
X135900000Y-107950000D03*
%TO.P,J1,5,Pin_5*%
%TO.N,/BIN1*%
X138440000Y-107950000D03*
%TO.P,J1,6,Pin_6*%
%TO.N,/AIN2*%
X140980000Y-107950000D03*
%TO.P,J1,7,Pin_7*%
%TO.N,/BIN2*%
X143520000Y-107950000D03*
%TO.P,J1,8,Pin_8*%
%TO.N,GND*%
X146060000Y-107950000D03*
%TO.P,J1,9,Pin_9*%
%TO.N,unconnected-(J1-Pad9)*%
X148600000Y-107950000D03*
%TO.P,J1,10,Pin_10*%
%TO.N,unconnected-(J1-Pad10)*%
X151140000Y-107950000D03*
%TO.P,J1,11,Pin_11*%
%TO.N,unconnected-(J1-Pad11)*%
X153680000Y-107950000D03*
%TO.P,J1,12,Pin_12*%
%TO.N,unconnected-(J1-Pad12)*%
X156220000Y-107950000D03*
%TO.P,J1,13,Pin_13*%
%TO.N,unconnected-(J1-Pad13)*%
X158760000Y-107950000D03*
%TO.P,J1,14,Pin_14*%
%TO.N,unconnected-(J1-Pad14)*%
X161300000Y-107950000D03*
%TD*%
D12*
%TO.P,JP3,1,A*%
%TO.N,Net-(JP2-Pad1)*%
X142748000Y-98410000D03*
D13*
%TO.P,JP3,2,B*%
%TO.N,Net-(JP3-Pad2)*%
X142748000Y-99710000D03*
%TD*%
D12*
%TO.P,JP1,1,A*%
%TO.N,+3V3*%
X139700000Y-94092000D03*
D13*
%TO.P,JP1,2,B*%
%TO.N,Net-(JP1-Pad2)*%
X139700000Y-95392000D03*
%TD*%
D14*
%TO.N,GND*%
X137160000Y-96774000D03*
X143510000Y-92710000D03*
X145415000Y-94615000D03*
X143510000Y-94615000D03*
X137160000Y-97790000D03*
D15*
X135128000Y-101092000D03*
D14*
X137922000Y-91948000D03*
X136144000Y-91948000D03*
X134239000Y-91948000D03*
D15*
X155956000Y-100838000D03*
X135128000Y-102362000D03*
D14*
X141605000Y-94615000D03*
D15*
X150622000Y-100838000D03*
D14*
X146050000Y-100838000D03*
X145415000Y-92710000D03*
X132334000Y-91948000D03*
D15*
X135128000Y-104902000D03*
D14*
X137160000Y-95758000D03*
D15*
X135128000Y-103632000D03*
D14*
X141605000Y-92710000D03*
%TO.N,+3V3*%
X138935170Y-94392720D03*
X141222731Y-97456481D03*
%TO.N,Vdrive*%
X133858000Y-93472000D03*
X134874000Y-93472000D03*
X133858000Y-94488000D03*
X134874000Y-94488000D03*
X139192000Y-101600000D03*
X139192000Y-100584000D03*
X138176000Y-101600000D03*
X138176000Y-100584000D03*
%TO.N,/AIN1*%
X139797406Y-97168489D03*
%TO.N,/BIN1*%
X139192000Y-98687161D03*
%TO.N,/AIN2*%
X141478000Y-101600000D03*
%TO.N,/BIN2*%
X140754500Y-104902000D03*
%TO.N,Net-(JP1-Pad2)*%
X138938000Y-95758000D03*
%TO.N,Net-(JP2-Pad1)*%
X146841089Y-99538911D03*
%TO.N,Net-(JP2-Pad2)*%
X144526000Y-100838000D03*
%TO.N,Net-(JP3-Pad2)*%
X143002000Y-100838000D03*
%TD*%
D16*
%TO.N,+3V3*%
X139399280Y-94392720D02*
X139700000Y-94092000D01*
X138935170Y-94392720D02*
X139399280Y-94392720D01*
X139700000Y-91450000D02*
X140980000Y-90170000D01*
X141222731Y-95205791D02*
X141222731Y-97456481D01*
X140108940Y-94092000D02*
X141222731Y-95205791D01*
X139700000Y-94092000D02*
X140108940Y-94092000D01*
X139700000Y-91450000D02*
X139700000Y-94092000D01*
%TO.N,/AIN1*%
X138567489Y-98945843D02*
X138567489Y-98398406D01*
X135900000Y-106922564D02*
X138683282Y-104139282D01*
X140207282Y-102615282D02*
X140266480Y-102556084D01*
X138683282Y-104139282D02*
X140207282Y-102615282D01*
X140266480Y-100584000D02*
X140266480Y-100397359D01*
X135900000Y-107950000D02*
X135900000Y-106922564D01*
X138567489Y-98398406D02*
X139797406Y-97168489D01*
X139194085Y-99572439D02*
X138567489Y-98945843D01*
X139441560Y-99572439D02*
X139194085Y-99572439D01*
X140266480Y-102556084D02*
X140266480Y-100584000D01*
X140266480Y-100397359D02*
X139441560Y-99572439D01*
%TO.N,/BIN1*%
X140716000Y-100211161D02*
X140716000Y-102742282D01*
X140716000Y-102742282D02*
X138440000Y-105018282D01*
X139192000Y-98687161D02*
X140716000Y-100211161D01*
X138440000Y-105018282D02*
X138440000Y-107950000D01*
%TO.N,/AIN2*%
X140130000Y-107100000D02*
X140130000Y-103964000D01*
X141478000Y-102616000D02*
X141478000Y-101600000D01*
X140130000Y-103964000D02*
X141478000Y-102616000D01*
X140980000Y-107950000D02*
X140130000Y-107100000D01*
%TO.N,/BIN2*%
X143520000Y-107706000D02*
X143520000Y-107950000D01*
X140754500Y-104940500D02*
X143520000Y-107706000D01*
X140754500Y-104902000D02*
X140754500Y-104940500D01*
%TO.N,Net-(JP1-Pad2)*%
X139334000Y-95758000D02*
X139700000Y-95392000D01*
X138938000Y-95758000D02*
X139334000Y-95758000D01*
%TO.N,Net-(JP2-Pad1)*%
X145288000Y-98410000D02*
X145712178Y-98410000D01*
X145712178Y-98410000D02*
X146841089Y-99538911D01*
X142748000Y-98410000D02*
X145288000Y-98410000D01*
%TO.N,Net-(JP2-Pad2)*%
X145288000Y-100076000D02*
X144526000Y-100838000D01*
X145288000Y-99710000D02*
X145288000Y-100076000D01*
%TO.N,Net-(JP3-Pad2)*%
X142748000Y-100584000D02*
X143002000Y-100838000D01*
X142748000Y-99710000D02*
X142748000Y-100584000D01*
%TD*%
%TA.AperFunction,Conductor*%
%TO.N,GND*%
G36*
X138430000Y-95535441D02*
G01*
X138397772Y-95613246D01*
X138378715Y-95758000D01*
X138397772Y-95902754D01*
X138400931Y-95910380D01*
X138430000Y-95980559D01*
X138430000Y-97999201D01*
X138337273Y-98091928D01*
X138318525Y-98107070D01*
X138317300Y-98108185D01*
X138308549Y-98113835D01*
X138302102Y-98122013D01*
X138302100Y-98122015D01*
X138287760Y-98140206D01*
X138283814Y-98144647D01*
X138283887Y-98144709D01*
X138280528Y-98148673D01*
X138276851Y-98152350D01*
X138265597Y-98168098D01*
X138262091Y-98172768D01*
X138230333Y-98213053D01*
X138227301Y-98221687D01*
X138221975Y-98229140D01*
X138218990Y-98239121D01*
X138207288Y-98278250D01*
X138205453Y-98283898D01*
X138200501Y-98298000D01*
X135890000Y-98298000D01*
X135890000Y-95250000D01*
X138430000Y-95250000D01*
X138430000Y-95535441D01*
G37*
%TD.AperFunction*%
%TD*%
%TA.AperFunction,Conductor*%
%TO.N,Vdrive*%
G36*
X137102121Y-93111002D02*
G01*
X137148614Y-93164658D01*
X137160000Y-93217000D01*
X137160000Y-94870000D01*
X137139998Y-94938121D01*
X137086342Y-94984614D01*
X137034000Y-94996000D01*
X135890000Y-94996000D01*
X135859351Y-95002097D01*
X135804967Y-95012914D01*
X135804965Y-95012915D01*
X135792798Y-95015335D01*
X135782483Y-95022227D01*
X135782481Y-95022228D01*
X135765724Y-95033425D01*
X135710395Y-95070395D01*
X135703502Y-95080711D01*
X135662228Y-95142481D01*
X135662227Y-95142483D01*
X135655335Y-95152798D01*
X135652915Y-95164965D01*
X135652914Y-95164967D01*
X135642097Y-95219351D01*
X135636000Y-95250000D01*
X135636000Y-98298000D01*
X135655335Y-98395202D01*
X135662227Y-98405517D01*
X135662228Y-98405519D01*
X135703502Y-98467289D01*
X135710395Y-98477605D01*
X135720711Y-98484498D01*
X135782481Y-98525772D01*
X135782483Y-98525773D01*
X135792798Y-98532665D01*
X135804965Y-98535085D01*
X135804967Y-98535086D01*
X135859351Y-98545903D01*
X135890000Y-98552000D01*
X138061989Y-98552000D01*
X138130110Y-98572002D01*
X138176603Y-98625658D01*
X138187989Y-98678000D01*
X138187989Y-98891923D01*
X138185440Y-98915871D01*
X138185361Y-98917536D01*
X138183169Y-98927719D01*
X138184393Y-98938060D01*
X138187116Y-98961066D01*
X138187466Y-98966997D01*
X138187561Y-98966989D01*
X138187989Y-98972167D01*
X138187989Y-98977367D01*
X138188843Y-98982496D01*
X138188843Y-98982499D01*
X138191158Y-98996408D01*
X138191995Y-99002286D01*
X138198019Y-99053184D01*
X138201982Y-99061436D01*
X138203485Y-99070469D01*
X138208432Y-99079638D01*
X138208433Y-99079640D01*
X138227823Y-99115575D01*
X138230520Y-99120868D01*
X138249274Y-99159925D01*
X138249277Y-99159929D01*
X138252708Y-99167075D01*
X138256303Y-99171351D01*
X138258226Y-99173274D01*
X138259998Y-99175206D01*
X138260041Y-99175285D01*
X138259917Y-99175398D01*
X138260393Y-99175938D01*
X138263479Y-99181657D01*
X138271124Y-99188724D01*
X138303075Y-99218259D01*
X138306641Y-99221689D01*
X138887607Y-99802655D01*
X138902749Y-99821403D01*
X138903864Y-99822628D01*
X138909514Y-99831379D01*
X138917692Y-99837826D01*
X138917694Y-99837828D01*
X138935885Y-99852168D01*
X138940327Y-99856115D01*
X138940389Y-99856042D01*
X138944352Y-99859400D01*
X138948029Y-99863077D01*
X138952258Y-99866099D01*
X138963731Y-99874298D01*
X138968477Y-99877861D01*
X138986936Y-99892412D01*
X139008732Y-99909595D01*
X139017368Y-99912628D01*
X139024820Y-99917953D01*
X139071485Y-99931909D01*
X139073940Y-99932643D01*
X139079587Y-99934478D01*
X139120455Y-99948830D01*
X139120457Y-99948830D01*
X139127936Y-99951457D01*
X139133501Y-99951939D01*
X139136208Y-99951939D01*
X139138840Y-99952053D01*
X139138941Y-99952083D01*
X139138934Y-99952246D01*
X139139634Y-99952290D01*
X139145863Y-99954153D01*
X139196644Y-99952157D01*
X139199735Y-99952036D01*
X139204683Y-99951939D01*
X139232176Y-99951939D01*
X139300297Y-99971941D01*
X139321271Y-99988844D01*
X139850075Y-100517648D01*
X139884101Y-100579960D01*
X139886980Y-100606743D01*
X139886980Y-101982000D01*
X139866978Y-102050121D01*
X139813322Y-102096614D01*
X139760980Y-102108000D01*
X136778000Y-102108000D01*
X136709879Y-102087998D01*
X136663386Y-102034342D01*
X136652000Y-101982000D01*
X136652000Y-100330000D01*
X134172559Y-100330000D01*
X134104438Y-100309998D01*
X134074170Y-100282712D01*
X133123611Y-99094514D01*
X133096675Y-99028825D01*
X133096000Y-99015802D01*
X133096000Y-93217000D01*
X133116002Y-93148879D01*
X133169658Y-93102386D01*
X133222000Y-93091000D01*
X137034000Y-93091000D01*
X137102121Y-93111002D01*
G37*
%TD.AperFunction*%
%TD*%
%TA.AperFunction,Conductor*%
%TO.N,GND*%
G36*
X142736608Y-89174002D02*
G01*
X142783101Y-89227658D01*
X142793205Y-89297932D01*
X142763711Y-89362512D01*
X142751565Y-89374732D01*
X142715392Y-89406455D01*
X142589720Y-89565869D01*
X142587031Y-89570980D01*
X142587029Y-89570983D01*
X142574073Y-89595609D01*
X142495203Y-89745515D01*
X142435007Y-89939378D01*
X142411148Y-90140964D01*
X142424424Y-90343522D01*
X142425845Y-90349118D01*
X142425846Y-90349123D01*
X142446119Y-90428945D01*
X142474392Y-90540269D01*
X142476807Y-90545507D01*
X142476809Y-90545512D01*
X142512264Y-90622420D01*
X142559377Y-90724616D01*
X142676533Y-90890389D01*
X142680675Y-90894424D01*
X142782777Y-90993886D01*
X142821938Y-91032035D01*
X142990720Y-91144812D01*
X142996023Y-91147090D01*
X142996026Y-91147092D01*
X143169014Y-91221413D01*
X143177228Y-91224942D01*
X143250244Y-91241464D01*
X143369579Y-91268467D01*
X143369584Y-91268468D01*
X143375216Y-91269742D01*
X143380987Y-91269969D01*
X143380989Y-91269969D01*
X143440756Y-91272317D01*
X143578053Y-91277712D01*
X143685348Y-91262155D01*
X143773231Y-91249413D01*
X143773236Y-91249412D01*
X143778945Y-91248584D01*
X143784409Y-91246729D01*
X143784414Y-91246728D01*
X143965693Y-91185192D01*
X143965698Y-91185190D01*
X143971165Y-91183334D01*
X143988531Y-91173609D01*
X144045683Y-91141602D01*
X144148276Y-91084147D01*
X144187969Y-91051135D01*
X144299913Y-90958031D01*
X144304345Y-90954345D01*
X144361463Y-90885669D01*
X144430453Y-90802718D01*
X144430455Y-90802715D01*
X144434147Y-90798276D01*
X144524664Y-90636647D01*
X144530510Y-90626208D01*
X144530511Y-90626206D01*
X144533334Y-90621165D01*
X144535190Y-90615698D01*
X144535192Y-90615693D01*
X144596728Y-90434414D01*
X144596729Y-90434409D01*
X144598584Y-90428945D01*
X144599412Y-90423236D01*
X144599413Y-90423231D01*
X144627179Y-90231727D01*
X144627712Y-90228053D01*
X144629232Y-90170000D01*
X144610658Y-89967859D01*
X144605949Y-89951161D01*
X144557125Y-89778046D01*
X144557124Y-89778044D01*
X144555557Y-89772487D01*
X144544978Y-89751033D01*
X144468331Y-89595609D01*
X144465776Y-89590428D01*
X144344320Y-89427779D01*
X144317134Y-89402648D01*
X144284546Y-89372524D01*
X144248101Y-89311596D01*
X144250382Y-89240636D01*
X144290665Y-89182174D01*
X144356160Y-89154771D01*
X144370075Y-89154000D01*
X145208487Y-89154000D01*
X145276608Y-89174002D01*
X145323101Y-89227658D01*
X145333205Y-89297932D01*
X145303711Y-89362512D01*
X145291565Y-89374732D01*
X145255392Y-89406455D01*
X145129720Y-89565869D01*
X145127031Y-89570980D01*
X145127029Y-89570983D01*
X145114073Y-89595609D01*
X145035203Y-89745515D01*
X144975007Y-89939378D01*
X144951148Y-90140964D01*
X144964424Y-90343522D01*
X144965845Y-90349118D01*
X144965846Y-90349123D01*
X144986119Y-90428945D01*
X145014392Y-90540269D01*
X145016807Y-90545507D01*
X145016809Y-90545512D01*
X145052264Y-90622420D01*
X145099377Y-90724616D01*
X145216533Y-90890389D01*
X145220675Y-90894424D01*
X145322777Y-90993886D01*
X145361938Y-91032035D01*
X145530720Y-91144812D01*
X145536023Y-91147090D01*
X145536026Y-91147092D01*
X145709014Y-91221413D01*
X145717228Y-91224942D01*
X145790244Y-91241464D01*
X145909579Y-91268467D01*
X145909584Y-91268468D01*
X145915216Y-91269742D01*
X145920987Y-91269969D01*
X145920989Y-91269969D01*
X145980756Y-91272317D01*
X146118053Y-91277712D01*
X146225348Y-91262155D01*
X146313231Y-91249413D01*
X146313236Y-91249412D01*
X146318945Y-91248584D01*
X146324409Y-91246729D01*
X146324414Y-91246728D01*
X146505693Y-91185192D01*
X146505698Y-91185190D01*
X146511165Y-91183334D01*
X146528531Y-91173609D01*
X146585683Y-91141602D01*
X146688276Y-91084147D01*
X146727969Y-91051135D01*
X146839913Y-90958031D01*
X146844345Y-90954345D01*
X146901463Y-90885669D01*
X146970453Y-90802718D01*
X146970455Y-90802715D01*
X146974147Y-90798276D01*
X147064664Y-90636647D01*
X147070510Y-90626208D01*
X147070511Y-90626206D01*
X147073334Y-90621165D01*
X147075190Y-90615698D01*
X147075192Y-90615693D01*
X147136728Y-90434414D01*
X147136729Y-90434409D01*
X147138584Y-90428945D01*
X147139412Y-90423236D01*
X147139413Y-90423231D01*
X147167179Y-90231727D01*
X147167712Y-90228053D01*
X147169232Y-90170000D01*
X147150658Y-89967859D01*
X147145949Y-89951161D01*
X147097125Y-89778046D01*
X147097124Y-89778044D01*
X147095557Y-89772487D01*
X147084978Y-89751033D01*
X147008331Y-89595609D01*
X147005776Y-89590428D01*
X146884320Y-89427779D01*
X146857134Y-89402648D01*
X146824546Y-89372524D01*
X146788101Y-89311596D01*
X146790382Y-89240636D01*
X146830665Y-89182174D01*
X146896160Y-89154771D01*
X146910075Y-89154000D01*
X147748487Y-89154000D01*
X147816608Y-89174002D01*
X147863101Y-89227658D01*
X147873205Y-89297932D01*
X147843711Y-89362512D01*
X147831565Y-89374732D01*
X147795392Y-89406455D01*
X147669720Y-89565869D01*
X147667031Y-89570980D01*
X147667029Y-89570983D01*
X147654073Y-89595609D01*
X147575203Y-89745515D01*
X147515007Y-89939378D01*
X147491148Y-90140964D01*
X147504424Y-90343522D01*
X147505845Y-90349118D01*
X147505846Y-90349123D01*
X147526119Y-90428945D01*
X147554392Y-90540269D01*
X147556807Y-90545507D01*
X147556809Y-90545512D01*
X147592264Y-90622420D01*
X147639377Y-90724616D01*
X147756533Y-90890389D01*
X147760675Y-90894424D01*
X147862777Y-90993886D01*
X147901938Y-91032035D01*
X148070720Y-91144812D01*
X148076023Y-91147090D01*
X148076026Y-91147092D01*
X148249014Y-91221413D01*
X148257228Y-91224942D01*
X148330244Y-91241464D01*
X148449579Y-91268467D01*
X148449584Y-91268468D01*
X148455216Y-91269742D01*
X148460987Y-91269969D01*
X148460989Y-91269969D01*
X148520756Y-91272317D01*
X148658053Y-91277712D01*
X148765348Y-91262155D01*
X148853231Y-91249413D01*
X148853236Y-91249412D01*
X148858945Y-91248584D01*
X148864409Y-91246729D01*
X148864414Y-91246728D01*
X149045693Y-91185192D01*
X149045698Y-91185190D01*
X149051165Y-91183334D01*
X149068531Y-91173609D01*
X149125683Y-91141602D01*
X149228276Y-91084147D01*
X149267969Y-91051135D01*
X149379913Y-90958031D01*
X149384345Y-90954345D01*
X149441463Y-90885669D01*
X149510453Y-90802718D01*
X149510455Y-90802715D01*
X149514147Y-90798276D01*
X149604664Y-90636647D01*
X149610510Y-90626208D01*
X149610511Y-90626206D01*
X149613334Y-90621165D01*
X149615190Y-90615698D01*
X149615192Y-90615693D01*
X149676728Y-90434414D01*
X149676729Y-90434409D01*
X149678584Y-90428945D01*
X149679412Y-90423236D01*
X149679413Y-90423231D01*
X149707179Y-90231727D01*
X149707712Y-90228053D01*
X149709232Y-90170000D01*
X149690658Y-89967859D01*
X149685949Y-89951161D01*
X149637125Y-89778046D01*
X149637124Y-89778044D01*
X149635557Y-89772487D01*
X149624978Y-89751033D01*
X149548331Y-89595609D01*
X149545776Y-89590428D01*
X149424320Y-89427779D01*
X149397134Y-89402648D01*
X149364546Y-89372524D01*
X149328101Y-89311596D01*
X149330382Y-89240636D01*
X149370665Y-89182174D01*
X149436160Y-89154771D01*
X149450075Y-89154000D01*
X150288487Y-89154000D01*
X150356608Y-89174002D01*
X150403101Y-89227658D01*
X150413205Y-89297932D01*
X150383711Y-89362512D01*
X150371565Y-89374732D01*
X150335392Y-89406455D01*
X150209720Y-89565869D01*
X150207031Y-89570980D01*
X150207029Y-89570983D01*
X150194073Y-89595609D01*
X150115203Y-89745515D01*
X150055007Y-89939378D01*
X150031148Y-90140964D01*
X150044424Y-90343522D01*
X150045845Y-90349118D01*
X150045846Y-90349123D01*
X150066119Y-90428945D01*
X150094392Y-90540269D01*
X150096807Y-90545507D01*
X150096809Y-90545512D01*
X150132264Y-90622420D01*
X150179377Y-90724616D01*
X150296533Y-90890389D01*
X150300675Y-90894424D01*
X150402777Y-90993886D01*
X150441938Y-91032035D01*
X150610720Y-91144812D01*
X150616023Y-91147090D01*
X150616026Y-91147092D01*
X150789014Y-91221413D01*
X150797228Y-91224942D01*
X150870244Y-91241464D01*
X150989579Y-91268467D01*
X150989584Y-91268468D01*
X150995216Y-91269742D01*
X151000987Y-91269969D01*
X151000989Y-91269969D01*
X151060756Y-91272317D01*
X151198053Y-91277712D01*
X151305348Y-91262155D01*
X151393231Y-91249413D01*
X151393236Y-91249412D01*
X151398945Y-91248584D01*
X151404409Y-91246729D01*
X151404414Y-91246728D01*
X151585693Y-91185192D01*
X151585698Y-91185190D01*
X151591165Y-91183334D01*
X151608531Y-91173609D01*
X151665683Y-91141602D01*
X151768276Y-91084147D01*
X151807969Y-91051135D01*
X151919913Y-90958031D01*
X151924345Y-90954345D01*
X151981463Y-90885669D01*
X152050453Y-90802718D01*
X152050455Y-90802715D01*
X152054147Y-90798276D01*
X152144664Y-90636647D01*
X152150510Y-90626208D01*
X152150511Y-90626206D01*
X152153334Y-90621165D01*
X152155190Y-90615698D01*
X152155192Y-90615693D01*
X152216728Y-90434414D01*
X152216729Y-90434409D01*
X152218584Y-90428945D01*
X152219412Y-90423236D01*
X152219413Y-90423231D01*
X152247179Y-90231727D01*
X152247712Y-90228053D01*
X152249232Y-90170000D01*
X152230658Y-89967859D01*
X152225949Y-89951161D01*
X152177125Y-89778046D01*
X152177124Y-89778044D01*
X152175557Y-89772487D01*
X152164978Y-89751033D01*
X152088331Y-89595609D01*
X152085776Y-89590428D01*
X151964320Y-89427779D01*
X151937134Y-89402648D01*
X151904546Y-89372524D01*
X151868101Y-89311596D01*
X151870382Y-89240636D01*
X151910665Y-89182174D01*
X151976160Y-89154771D01*
X151990075Y-89154000D01*
X152828487Y-89154000D01*
X152896608Y-89174002D01*
X152943101Y-89227658D01*
X152953205Y-89297932D01*
X152923711Y-89362512D01*
X152911565Y-89374732D01*
X152875392Y-89406455D01*
X152749720Y-89565869D01*
X152747031Y-89570980D01*
X152747029Y-89570983D01*
X152734073Y-89595609D01*
X152655203Y-89745515D01*
X152595007Y-89939378D01*
X152571148Y-90140964D01*
X152584424Y-90343522D01*
X152585845Y-90349118D01*
X152585846Y-90349123D01*
X152606119Y-90428945D01*
X152634392Y-90540269D01*
X152636807Y-90545507D01*
X152636809Y-90545512D01*
X152672264Y-90622420D01*
X152719377Y-90724616D01*
X152836533Y-90890389D01*
X152840675Y-90894424D01*
X152942777Y-90993886D01*
X152981938Y-91032035D01*
X153150720Y-91144812D01*
X153156023Y-91147090D01*
X153156026Y-91147092D01*
X153329014Y-91221413D01*
X153337228Y-91224942D01*
X153410244Y-91241464D01*
X153529579Y-91268467D01*
X153529584Y-91268468D01*
X153535216Y-91269742D01*
X153540987Y-91269969D01*
X153540989Y-91269969D01*
X153600756Y-91272317D01*
X153738053Y-91277712D01*
X153845348Y-91262155D01*
X153933231Y-91249413D01*
X153933236Y-91249412D01*
X153938945Y-91248584D01*
X153944409Y-91246729D01*
X153944414Y-91246728D01*
X154125693Y-91185192D01*
X154125698Y-91185190D01*
X154131165Y-91183334D01*
X154148531Y-91173609D01*
X154205683Y-91141602D01*
X154308276Y-91084147D01*
X154347969Y-91051135D01*
X154459913Y-90958031D01*
X154464345Y-90954345D01*
X154521463Y-90885669D01*
X154590453Y-90802718D01*
X154590455Y-90802715D01*
X154594147Y-90798276D01*
X154684664Y-90636647D01*
X154690510Y-90626208D01*
X154690511Y-90626206D01*
X154693334Y-90621165D01*
X154695190Y-90615698D01*
X154695192Y-90615693D01*
X154756728Y-90434414D01*
X154756729Y-90434409D01*
X154758584Y-90428945D01*
X154759412Y-90423236D01*
X154759413Y-90423231D01*
X154787179Y-90231727D01*
X154787712Y-90228053D01*
X154789232Y-90170000D01*
X154770658Y-89967859D01*
X154765949Y-89951161D01*
X154717125Y-89778046D01*
X154717124Y-89778044D01*
X154715557Y-89772487D01*
X154704978Y-89751033D01*
X154628331Y-89595609D01*
X154625776Y-89590428D01*
X154504320Y-89427779D01*
X154477134Y-89402648D01*
X154444546Y-89372524D01*
X154408101Y-89311596D01*
X154410382Y-89240636D01*
X154450665Y-89182174D01*
X154516160Y-89154771D01*
X154530075Y-89154000D01*
X155368487Y-89154000D01*
X155436608Y-89174002D01*
X155483101Y-89227658D01*
X155493205Y-89297932D01*
X155463711Y-89362512D01*
X155451565Y-89374732D01*
X155415392Y-89406455D01*
X155289720Y-89565869D01*
X155287031Y-89570980D01*
X155287029Y-89570983D01*
X155274073Y-89595609D01*
X155195203Y-89745515D01*
X155135007Y-89939378D01*
X155111148Y-90140964D01*
X155124424Y-90343522D01*
X155125845Y-90349118D01*
X155125846Y-90349123D01*
X155146119Y-90428945D01*
X155174392Y-90540269D01*
X155176807Y-90545507D01*
X155176809Y-90545512D01*
X155212264Y-90622420D01*
X155259377Y-90724616D01*
X155376533Y-90890389D01*
X155380675Y-90894424D01*
X155482777Y-90993886D01*
X155521938Y-91032035D01*
X155690720Y-91144812D01*
X155696023Y-91147090D01*
X155696026Y-91147092D01*
X155869014Y-91221413D01*
X155877228Y-91224942D01*
X155950244Y-91241464D01*
X156069579Y-91268467D01*
X156069584Y-91268468D01*
X156075216Y-91269742D01*
X156080987Y-91269969D01*
X156080989Y-91269969D01*
X156140756Y-91272317D01*
X156278053Y-91277712D01*
X156385348Y-91262155D01*
X156473231Y-91249413D01*
X156473236Y-91249412D01*
X156478945Y-91248584D01*
X156484409Y-91246729D01*
X156484414Y-91246728D01*
X156665693Y-91185192D01*
X156665698Y-91185190D01*
X156671165Y-91183334D01*
X156688531Y-91173609D01*
X156745683Y-91141602D01*
X156848276Y-91084147D01*
X156887969Y-91051135D01*
X156999913Y-90958031D01*
X157004345Y-90954345D01*
X157061463Y-90885669D01*
X157130453Y-90802718D01*
X157130455Y-90802715D01*
X157134147Y-90798276D01*
X157224664Y-90636647D01*
X157230510Y-90626208D01*
X157230511Y-90626206D01*
X157233334Y-90621165D01*
X157235190Y-90615698D01*
X157235192Y-90615693D01*
X157296728Y-90434414D01*
X157296729Y-90434409D01*
X157298584Y-90428945D01*
X157299412Y-90423236D01*
X157299413Y-90423231D01*
X157327179Y-90231727D01*
X157327712Y-90228053D01*
X157329232Y-90170000D01*
X157310658Y-89967859D01*
X157305949Y-89951161D01*
X157257125Y-89778046D01*
X157257124Y-89778044D01*
X157255557Y-89772487D01*
X157244978Y-89751033D01*
X157168331Y-89595609D01*
X157165776Y-89590428D01*
X157044320Y-89427779D01*
X157017134Y-89402648D01*
X156984546Y-89372524D01*
X156948101Y-89311596D01*
X156950382Y-89240636D01*
X156990665Y-89182174D01*
X157056160Y-89154771D01*
X157070075Y-89154000D01*
X157908487Y-89154000D01*
X157976608Y-89174002D01*
X158023101Y-89227658D01*
X158033205Y-89297932D01*
X158003711Y-89362512D01*
X157991565Y-89374732D01*
X157955392Y-89406455D01*
X157829720Y-89565869D01*
X157827031Y-89570980D01*
X157827029Y-89570983D01*
X157814073Y-89595609D01*
X157735203Y-89745515D01*
X157675007Y-89939378D01*
X157651148Y-90140964D01*
X157664424Y-90343522D01*
X157665845Y-90349118D01*
X157665846Y-90349123D01*
X157686119Y-90428945D01*
X157714392Y-90540269D01*
X157716807Y-90545507D01*
X157716809Y-90545512D01*
X157752264Y-90622420D01*
X157799377Y-90724616D01*
X157916533Y-90890389D01*
X157920675Y-90894424D01*
X158022777Y-90993886D01*
X158061938Y-91032035D01*
X158230720Y-91144812D01*
X158236023Y-91147090D01*
X158236026Y-91147092D01*
X158409014Y-91221413D01*
X158417228Y-91224942D01*
X158490244Y-91241464D01*
X158609579Y-91268467D01*
X158609584Y-91268468D01*
X158615216Y-91269742D01*
X158620987Y-91269969D01*
X158620989Y-91269969D01*
X158680756Y-91272317D01*
X158818053Y-91277712D01*
X158925348Y-91262155D01*
X159013231Y-91249413D01*
X159013236Y-91249412D01*
X159018945Y-91248584D01*
X159024409Y-91246729D01*
X159024414Y-91246728D01*
X159205693Y-91185192D01*
X159205698Y-91185190D01*
X159211165Y-91183334D01*
X159228531Y-91173609D01*
X159285683Y-91141602D01*
X159388276Y-91084147D01*
X159427969Y-91051135D01*
X159539913Y-90958031D01*
X159544345Y-90954345D01*
X159601463Y-90885669D01*
X159670453Y-90802718D01*
X159670455Y-90802715D01*
X159674147Y-90798276D01*
X159764664Y-90636647D01*
X159770510Y-90626208D01*
X159770511Y-90626206D01*
X159773334Y-90621165D01*
X159775190Y-90615698D01*
X159775192Y-90615693D01*
X159836728Y-90434414D01*
X159836729Y-90434409D01*
X159838584Y-90428945D01*
X159839412Y-90423236D01*
X159839413Y-90423231D01*
X159867179Y-90231727D01*
X159867712Y-90228053D01*
X159869232Y-90170000D01*
X159850658Y-89967859D01*
X159845949Y-89951161D01*
X159797125Y-89778046D01*
X159797124Y-89778044D01*
X159795557Y-89772487D01*
X159784978Y-89751033D01*
X159708331Y-89595609D01*
X159705776Y-89590428D01*
X159584320Y-89427779D01*
X159557134Y-89402648D01*
X159524546Y-89372524D01*
X159488101Y-89311596D01*
X159490382Y-89240636D01*
X159530665Y-89182174D01*
X159596160Y-89154771D01*
X159610075Y-89154000D01*
X160448487Y-89154000D01*
X160516608Y-89174002D01*
X160563101Y-89227658D01*
X160573205Y-89297932D01*
X160543711Y-89362512D01*
X160531565Y-89374732D01*
X160495392Y-89406455D01*
X160369720Y-89565869D01*
X160367031Y-89570980D01*
X160367029Y-89570983D01*
X160354073Y-89595609D01*
X160275203Y-89745515D01*
X160215007Y-89939378D01*
X160191148Y-90140964D01*
X160204424Y-90343522D01*
X160205845Y-90349118D01*
X160205846Y-90349123D01*
X160226119Y-90428945D01*
X160254392Y-90540269D01*
X160256807Y-90545507D01*
X160256809Y-90545512D01*
X160292264Y-90622420D01*
X160339377Y-90724616D01*
X160456533Y-90890389D01*
X160460675Y-90894424D01*
X160562777Y-90993886D01*
X160601938Y-91032035D01*
X160770720Y-91144812D01*
X160776023Y-91147090D01*
X160776026Y-91147092D01*
X160949014Y-91221413D01*
X160957228Y-91224942D01*
X161030244Y-91241464D01*
X161149579Y-91268467D01*
X161149584Y-91268468D01*
X161155216Y-91269742D01*
X161160987Y-91269969D01*
X161160989Y-91269969D01*
X161220756Y-91272317D01*
X161358053Y-91277712D01*
X161465348Y-91262155D01*
X161553231Y-91249413D01*
X161553236Y-91249412D01*
X161558945Y-91248584D01*
X161564409Y-91246729D01*
X161564414Y-91246728D01*
X161745693Y-91185192D01*
X161745698Y-91185190D01*
X161751165Y-91183334D01*
X161768531Y-91173609D01*
X161825683Y-91141602D01*
X161928276Y-91084147D01*
X161967969Y-91051135D01*
X162079913Y-90958031D01*
X162084345Y-90954345D01*
X162141463Y-90885669D01*
X162210453Y-90802718D01*
X162210455Y-90802715D01*
X162214147Y-90798276D01*
X162304664Y-90636647D01*
X162310510Y-90626208D01*
X162310511Y-90626206D01*
X162313334Y-90621165D01*
X162315190Y-90615698D01*
X162315192Y-90615693D01*
X162376728Y-90434414D01*
X162376729Y-90434409D01*
X162378584Y-90428945D01*
X162379412Y-90423236D01*
X162379413Y-90423231D01*
X162407179Y-90231727D01*
X162407712Y-90228053D01*
X162409232Y-90170000D01*
X162390658Y-89967859D01*
X162385949Y-89951161D01*
X162337125Y-89778046D01*
X162337124Y-89778044D01*
X162335557Y-89772487D01*
X162324978Y-89751033D01*
X162248331Y-89595609D01*
X162245776Y-89590428D01*
X162124320Y-89427779D01*
X162097134Y-89402648D01*
X162064546Y-89372524D01*
X162028101Y-89311596D01*
X162030382Y-89240636D01*
X162070665Y-89182174D01*
X162136160Y-89154771D01*
X162150075Y-89154000D01*
X165062575Y-89154000D01*
X165087153Y-89156421D01*
X165100000Y-89158976D01*
X165112170Y-89156555D01*
X165124583Y-89156555D01*
X165124583Y-89156880D01*
X165135419Y-89156142D01*
X165291125Y-89165561D01*
X165367940Y-89170208D01*
X165383044Y-89172042D01*
X165639577Y-89219053D01*
X165654350Y-89222694D01*
X165903358Y-89300288D01*
X165917576Y-89305680D01*
X166155406Y-89412720D01*
X166168876Y-89419789D01*
X166392074Y-89554717D01*
X166404596Y-89563360D01*
X166609904Y-89724209D01*
X166621292Y-89734299D01*
X166805701Y-89918708D01*
X166815791Y-89930096D01*
X166976640Y-90135404D01*
X166985283Y-90147926D01*
X167120211Y-90371124D01*
X167127280Y-90384594D01*
X167197345Y-90540269D01*
X167234318Y-90622420D01*
X167239712Y-90636642D01*
X167292516Y-90806096D01*
X167317306Y-90885650D01*
X167320947Y-90900423D01*
X167367958Y-91156956D01*
X167369792Y-91172060D01*
X167370986Y-91191800D01*
X167383689Y-91401778D01*
X167383858Y-91404578D01*
X167383120Y-91415417D01*
X167383445Y-91415417D01*
X167383445Y-91427830D01*
X167381024Y-91440000D01*
X167383445Y-91452170D01*
X167383579Y-91452844D01*
X167386000Y-91477425D01*
X167386000Y-94870000D01*
X167365998Y-94938121D01*
X167312342Y-94984614D01*
X167260000Y-94996000D01*
X162597425Y-94996000D01*
X162572847Y-94993579D01*
X162560000Y-94991024D01*
X162460894Y-95010737D01*
X162376876Y-95066876D01*
X162369983Y-95077192D01*
X162333414Y-95131922D01*
X162320737Y-95150894D01*
X162306651Y-95221716D01*
X162306214Y-95223911D01*
X162306212Y-95223915D01*
X162306213Y-95223915D01*
X162301024Y-95250000D01*
X162303445Y-95262170D01*
X162303579Y-95262844D01*
X162306000Y-95287425D01*
X162306000Y-102832575D01*
X162303579Y-102857153D01*
X162301024Y-102870000D01*
X162306000Y-102895017D01*
X162320737Y-102969106D01*
X162376876Y-103053124D01*
X162460894Y-103109263D01*
X162560000Y-103128976D01*
X162572847Y-103126421D01*
X162597425Y-103124000D01*
X167260000Y-103124000D01*
X167328121Y-103144002D01*
X167374614Y-103197658D01*
X167386000Y-103250000D01*
X167386000Y-106642575D01*
X167383579Y-106667153D01*
X167381024Y-106680000D01*
X167383445Y-106692170D01*
X167383445Y-106704583D01*
X167383120Y-106704583D01*
X167383858Y-106715419D01*
X167375781Y-106848934D01*
X167369792Y-106947940D01*
X167367958Y-106963044D01*
X167320947Y-107219577D01*
X167317306Y-107234350D01*
X167274903Y-107370428D01*
X167239714Y-107483353D01*
X167234320Y-107497576D01*
X167136977Y-107713861D01*
X167127282Y-107735403D01*
X167120211Y-107748876D01*
X166985283Y-107972074D01*
X166976640Y-107984596D01*
X166815791Y-108189904D01*
X166805701Y-108201292D01*
X166621292Y-108385701D01*
X166609904Y-108395791D01*
X166404596Y-108556640D01*
X166392074Y-108565283D01*
X166168876Y-108700211D01*
X166155406Y-108707280D01*
X165917576Y-108814320D01*
X165903358Y-108819712D01*
X165748788Y-108867878D01*
X165654350Y-108897306D01*
X165639577Y-108900947D01*
X165383044Y-108947958D01*
X165367940Y-108949792D01*
X165291125Y-108954439D01*
X165135419Y-108963858D01*
X165124583Y-108963120D01*
X165124583Y-108963445D01*
X165112170Y-108963445D01*
X165100000Y-108961024D01*
X165087153Y-108963579D01*
X165062575Y-108966000D01*
X162154357Y-108966000D01*
X162086236Y-108945998D01*
X162039743Y-108892342D01*
X162029639Y-108822068D01*
X162059133Y-108757488D01*
X162073788Y-108743126D01*
X162079908Y-108738036D01*
X162079913Y-108738031D01*
X162084345Y-108734345D01*
X162214147Y-108578276D01*
X162313334Y-108401165D01*
X162315190Y-108395698D01*
X162315192Y-108395693D01*
X162376728Y-108214414D01*
X162376729Y-108214409D01*
X162378584Y-108208945D01*
X162379412Y-108203236D01*
X162379413Y-108203231D01*
X162407179Y-108011727D01*
X162407712Y-108008053D01*
X162409232Y-107950000D01*
X162397797Y-107825551D01*
X162391187Y-107753613D01*
X162391186Y-107753610D01*
X162390658Y-107747859D01*
X162387145Y-107735403D01*
X162337125Y-107558046D01*
X162337124Y-107558044D01*
X162335557Y-107552487D01*
X162324978Y-107531033D01*
X162248331Y-107375609D01*
X162245776Y-107370428D01*
X162124320Y-107207779D01*
X161975258Y-107069987D01*
X161970375Y-107066906D01*
X161970371Y-107066903D01*
X161808464Y-106964748D01*
X161803581Y-106961667D01*
X161615039Y-106886446D01*
X161609379Y-106885320D01*
X161609375Y-106885319D01*
X161421613Y-106847971D01*
X161421610Y-106847971D01*
X161415946Y-106846844D01*
X161410171Y-106846768D01*
X161410167Y-106846768D01*
X161308793Y-106845441D01*
X161212971Y-106844187D01*
X161207274Y-106845166D01*
X161207273Y-106845166D01*
X161037480Y-106874342D01*
X161012910Y-106878564D01*
X160822463Y-106948824D01*
X160648010Y-107052612D01*
X160643670Y-107056418D01*
X160643666Y-107056421D01*
X160532978Y-107153493D01*
X160495392Y-107186455D01*
X160369720Y-107345869D01*
X160367031Y-107350980D01*
X160367029Y-107350983D01*
X160355753Y-107372416D01*
X160275203Y-107525515D01*
X160215007Y-107719378D01*
X160191148Y-107920964D01*
X160204424Y-108123522D01*
X160205845Y-108129118D01*
X160205846Y-108129123D01*
X160226119Y-108208945D01*
X160254392Y-108320269D01*
X160256809Y-108325512D01*
X160294010Y-108406208D01*
X160339377Y-108504616D01*
X160456533Y-108670389D01*
X160460675Y-108674424D01*
X160537996Y-108749746D01*
X160572834Y-108811607D01*
X160568697Y-108882483D01*
X160526898Y-108939871D01*
X160460709Y-108965550D01*
X160450075Y-108966000D01*
X159614357Y-108966000D01*
X159546236Y-108945998D01*
X159499743Y-108892342D01*
X159489639Y-108822068D01*
X159519133Y-108757488D01*
X159533788Y-108743126D01*
X159539908Y-108738036D01*
X159539913Y-108738031D01*
X159544345Y-108734345D01*
X159674147Y-108578276D01*
X159773334Y-108401165D01*
X159775190Y-108395698D01*
X159775192Y-108395693D01*
X159836728Y-108214414D01*
X159836729Y-108214409D01*
X159838584Y-108208945D01*
X159839412Y-108203236D01*
X159839413Y-108203231D01*
X159867179Y-108011727D01*
X159867712Y-108008053D01*
X159869232Y-107950000D01*
X159857797Y-107825551D01*
X159851187Y-107753613D01*
X159851186Y-107753610D01*
X159850658Y-107747859D01*
X159847145Y-107735403D01*
X159797125Y-107558046D01*
X159797124Y-107558044D01*
X159795557Y-107552487D01*
X159784978Y-107531033D01*
X159708331Y-107375609D01*
X159705776Y-107370428D01*
X159584320Y-107207779D01*
X159435258Y-107069987D01*
X159430375Y-107066906D01*
X159430371Y-107066903D01*
X159268464Y-106964748D01*
X159263581Y-106961667D01*
X159075039Y-106886446D01*
X159069379Y-106885320D01*
X159069375Y-106885319D01*
X158881613Y-106847971D01*
X158881610Y-106847971D01*
X158875946Y-106846844D01*
X158870171Y-106846768D01*
X158870167Y-106846768D01*
X158768793Y-106845441D01*
X158672971Y-106844187D01*
X158667274Y-106845166D01*
X158667273Y-106845166D01*
X158497480Y-106874342D01*
X158472910Y-106878564D01*
X158282463Y-106948824D01*
X158108010Y-107052612D01*
X158103670Y-107056418D01*
X158103666Y-107056421D01*
X157992978Y-107153493D01*
X157955392Y-107186455D01*
X157829720Y-107345869D01*
X157827031Y-107350980D01*
X157827029Y-107350983D01*
X157815753Y-107372416D01*
X157735203Y-107525515D01*
X157675007Y-107719378D01*
X157651148Y-107920964D01*
X157664424Y-108123522D01*
X157665845Y-108129118D01*
X157665846Y-108129123D01*
X157686119Y-108208945D01*
X157714392Y-108320269D01*
X157716809Y-108325512D01*
X157754010Y-108406208D01*
X157799377Y-108504616D01*
X157916533Y-108670389D01*
X157920675Y-108674424D01*
X157997996Y-108749746D01*
X158032834Y-108811607D01*
X158028697Y-108882483D01*
X157986898Y-108939871D01*
X157920709Y-108965550D01*
X157910075Y-108966000D01*
X157074357Y-108966000D01*
X157006236Y-108945998D01*
X156959743Y-108892342D01*
X156949639Y-108822068D01*
X156979133Y-108757488D01*
X156993788Y-108743126D01*
X156999908Y-108738036D01*
X156999913Y-108738031D01*
X157004345Y-108734345D01*
X157134147Y-108578276D01*
X157233334Y-108401165D01*
X157235190Y-108395698D01*
X157235192Y-108395693D01*
X157296728Y-108214414D01*
X157296729Y-108214409D01*
X157298584Y-108208945D01*
X157299412Y-108203236D01*
X157299413Y-108203231D01*
X157327179Y-108011727D01*
X157327712Y-108008053D01*
X157329232Y-107950000D01*
X157317797Y-107825551D01*
X157311187Y-107753613D01*
X157311186Y-107753610D01*
X157310658Y-107747859D01*
X157307145Y-107735403D01*
X157257125Y-107558046D01*
X157257124Y-107558044D01*
X157255557Y-107552487D01*
X157244978Y-107531033D01*
X157168331Y-107375609D01*
X157165776Y-107370428D01*
X157044320Y-107207779D01*
X156895258Y-107069987D01*
X156890375Y-107066906D01*
X156890371Y-107066903D01*
X156728464Y-106964748D01*
X156723581Y-106961667D01*
X156535039Y-106886446D01*
X156529379Y-106885320D01*
X156529375Y-106885319D01*
X156341613Y-106847971D01*
X156341610Y-106847971D01*
X156335946Y-106846844D01*
X156330171Y-106846768D01*
X156330167Y-106846768D01*
X156228793Y-106845441D01*
X156132971Y-106844187D01*
X156127274Y-106845166D01*
X156127273Y-106845166D01*
X155957480Y-106874342D01*
X155932910Y-106878564D01*
X155742463Y-106948824D01*
X155568010Y-107052612D01*
X155563670Y-107056418D01*
X155563666Y-107056421D01*
X155452978Y-107153493D01*
X155415392Y-107186455D01*
X155289720Y-107345869D01*
X155287031Y-107350980D01*
X155287029Y-107350983D01*
X155275753Y-107372416D01*
X155195203Y-107525515D01*
X155135007Y-107719378D01*
X155111148Y-107920964D01*
X155124424Y-108123522D01*
X155125845Y-108129118D01*
X155125846Y-108129123D01*
X155146119Y-108208945D01*
X155174392Y-108320269D01*
X155176809Y-108325512D01*
X155214010Y-108406208D01*
X155259377Y-108504616D01*
X155376533Y-108670389D01*
X155380675Y-108674424D01*
X155457996Y-108749746D01*
X155492834Y-108811607D01*
X155488697Y-108882483D01*
X155446898Y-108939871D01*
X155380709Y-108965550D01*
X155370075Y-108966000D01*
X154534357Y-108966000D01*
X154466236Y-108945998D01*
X154419743Y-108892342D01*
X154409639Y-108822068D01*
X154439133Y-108757488D01*
X154453788Y-108743126D01*
X154459908Y-108738036D01*
X154459913Y-108738031D01*
X154464345Y-108734345D01*
X154594147Y-108578276D01*
X154693334Y-108401165D01*
X154695190Y-108395698D01*
X154695192Y-108395693D01*
X154756728Y-108214414D01*
X154756729Y-108214409D01*
X154758584Y-108208945D01*
X154759412Y-108203236D01*
X154759413Y-108203231D01*
X154787179Y-108011727D01*
X154787712Y-108008053D01*
X154789232Y-107950000D01*
X154777797Y-107825551D01*
X154771187Y-107753613D01*
X154771186Y-107753610D01*
X154770658Y-107747859D01*
X154767145Y-107735403D01*
X154717125Y-107558046D01*
X154717124Y-107558044D01*
X154715557Y-107552487D01*
X154704978Y-107531033D01*
X154628331Y-107375609D01*
X154625776Y-107370428D01*
X154504320Y-107207779D01*
X154355258Y-107069987D01*
X154350375Y-107066906D01*
X154350371Y-107066903D01*
X154188464Y-106964748D01*
X154183581Y-106961667D01*
X153995039Y-106886446D01*
X153989379Y-106885320D01*
X153989375Y-106885319D01*
X153801613Y-106847971D01*
X153801610Y-106847971D01*
X153795946Y-106846844D01*
X153790171Y-106846768D01*
X153790167Y-106846768D01*
X153688793Y-106845441D01*
X153592971Y-106844187D01*
X153587274Y-106845166D01*
X153587273Y-106845166D01*
X153417480Y-106874342D01*
X153392910Y-106878564D01*
X153202463Y-106948824D01*
X153028010Y-107052612D01*
X153023670Y-107056418D01*
X153023666Y-107056421D01*
X152912978Y-107153493D01*
X152875392Y-107186455D01*
X152749720Y-107345869D01*
X152747031Y-107350980D01*
X152747029Y-107350983D01*
X152735753Y-107372416D01*
X152655203Y-107525515D01*
X152595007Y-107719378D01*
X152571148Y-107920964D01*
X152584424Y-108123522D01*
X152585845Y-108129118D01*
X152585846Y-108129123D01*
X152606119Y-108208945D01*
X152634392Y-108320269D01*
X152636809Y-108325512D01*
X152674010Y-108406208D01*
X152719377Y-108504616D01*
X152836533Y-108670389D01*
X152840675Y-108674424D01*
X152917996Y-108749746D01*
X152952834Y-108811607D01*
X152948697Y-108882483D01*
X152906898Y-108939871D01*
X152840709Y-108965550D01*
X152830075Y-108966000D01*
X151994357Y-108966000D01*
X151926236Y-108945998D01*
X151879743Y-108892342D01*
X151869639Y-108822068D01*
X151899133Y-108757488D01*
X151913788Y-108743126D01*
X151919908Y-108738036D01*
X151919913Y-108738031D01*
X151924345Y-108734345D01*
X152054147Y-108578276D01*
X152153334Y-108401165D01*
X152155190Y-108395698D01*
X152155192Y-108395693D01*
X152216728Y-108214414D01*
X152216729Y-108214409D01*
X152218584Y-108208945D01*
X152219412Y-108203236D01*
X152219413Y-108203231D01*
X152247179Y-108011727D01*
X152247712Y-108008053D01*
X152249232Y-107950000D01*
X152237797Y-107825551D01*
X152231187Y-107753613D01*
X152231186Y-107753610D01*
X152230658Y-107747859D01*
X152227145Y-107735403D01*
X152177125Y-107558046D01*
X152177124Y-107558044D01*
X152175557Y-107552487D01*
X152164978Y-107531033D01*
X152088331Y-107375609D01*
X152085776Y-107370428D01*
X151964320Y-107207779D01*
X151815258Y-107069987D01*
X151810375Y-107066906D01*
X151810371Y-107066903D01*
X151648464Y-106964748D01*
X151643581Y-106961667D01*
X151455039Y-106886446D01*
X151449379Y-106885320D01*
X151449375Y-106885319D01*
X151261613Y-106847971D01*
X151261610Y-106847971D01*
X151255946Y-106846844D01*
X151250171Y-106846768D01*
X151250167Y-106846768D01*
X151148793Y-106845441D01*
X151052971Y-106844187D01*
X151047274Y-106845166D01*
X151047273Y-106845166D01*
X150877480Y-106874342D01*
X150852910Y-106878564D01*
X150662463Y-106948824D01*
X150488010Y-107052612D01*
X150483670Y-107056418D01*
X150483666Y-107056421D01*
X150372978Y-107153493D01*
X150335392Y-107186455D01*
X150209720Y-107345869D01*
X150207031Y-107350980D01*
X150207029Y-107350983D01*
X150195753Y-107372416D01*
X150115203Y-107525515D01*
X150055007Y-107719378D01*
X150031148Y-107920964D01*
X150044424Y-108123522D01*
X150045845Y-108129118D01*
X150045846Y-108129123D01*
X150066119Y-108208945D01*
X150094392Y-108320269D01*
X150096809Y-108325512D01*
X150134010Y-108406208D01*
X150179377Y-108504616D01*
X150296533Y-108670389D01*
X150300675Y-108674424D01*
X150377996Y-108749746D01*
X150412834Y-108811607D01*
X150408697Y-108882483D01*
X150366898Y-108939871D01*
X150300709Y-108965550D01*
X150290075Y-108966000D01*
X149454357Y-108966000D01*
X149386236Y-108945998D01*
X149339743Y-108892342D01*
X149329639Y-108822068D01*
X149359133Y-108757488D01*
X149373788Y-108743126D01*
X149379908Y-108738036D01*
X149379913Y-108738031D01*
X149384345Y-108734345D01*
X149514147Y-108578276D01*
X149613334Y-108401165D01*
X149615190Y-108395698D01*
X149615192Y-108395693D01*
X149676728Y-108214414D01*
X149676729Y-108214409D01*
X149678584Y-108208945D01*
X149679412Y-108203236D01*
X149679413Y-108203231D01*
X149707179Y-108011727D01*
X149707712Y-108008053D01*
X149709232Y-107950000D01*
X149697797Y-107825551D01*
X149691187Y-107753613D01*
X149691186Y-107753610D01*
X149690658Y-107747859D01*
X149687145Y-107735403D01*
X149637125Y-107558046D01*
X149637124Y-107558044D01*
X149635557Y-107552487D01*
X149624978Y-107531033D01*
X149548331Y-107375609D01*
X149545776Y-107370428D01*
X149424320Y-107207779D01*
X149275258Y-107069987D01*
X149270375Y-107066906D01*
X149270371Y-107066903D01*
X149108464Y-106964748D01*
X149103581Y-106961667D01*
X148915039Y-106886446D01*
X148909379Y-106885320D01*
X148909375Y-106885319D01*
X148721613Y-106847971D01*
X148721610Y-106847971D01*
X148715946Y-106846844D01*
X148710171Y-106846768D01*
X148710167Y-106846768D01*
X148608793Y-106845441D01*
X148512971Y-106844187D01*
X148507274Y-106845166D01*
X148507273Y-106845166D01*
X148337480Y-106874342D01*
X148312910Y-106878564D01*
X148122463Y-106948824D01*
X147948010Y-107052612D01*
X147943670Y-107056418D01*
X147943666Y-107056421D01*
X147832978Y-107153493D01*
X147795392Y-107186455D01*
X147669720Y-107345869D01*
X147667031Y-107350980D01*
X147667029Y-107350983D01*
X147655753Y-107372416D01*
X147575203Y-107525515D01*
X147515007Y-107719378D01*
X147491148Y-107920964D01*
X147504424Y-108123522D01*
X147505845Y-108129118D01*
X147505846Y-108129123D01*
X147526119Y-108208945D01*
X147554392Y-108320269D01*
X147556809Y-108325512D01*
X147594010Y-108406208D01*
X147639377Y-108504616D01*
X147756533Y-108670389D01*
X147760675Y-108674424D01*
X147837996Y-108749746D01*
X147872834Y-108811607D01*
X147868697Y-108882483D01*
X147826898Y-108939871D01*
X147760709Y-108965550D01*
X147750075Y-108966000D01*
X144374357Y-108966000D01*
X144306236Y-108945998D01*
X144259743Y-108892342D01*
X144249639Y-108822068D01*
X144279133Y-108757488D01*
X144293788Y-108743126D01*
X144299908Y-108738036D01*
X144299913Y-108738031D01*
X144304345Y-108734345D01*
X144434147Y-108578276D01*
X144533334Y-108401165D01*
X144535190Y-108395698D01*
X144535192Y-108395693D01*
X144596728Y-108214414D01*
X144596729Y-108214409D01*
X144598584Y-108208945D01*
X144599412Y-108203236D01*
X144599413Y-108203231D01*
X144627179Y-108011727D01*
X144627712Y-108008053D01*
X144629232Y-107950000D01*
X144617797Y-107825551D01*
X144611187Y-107753613D01*
X144611186Y-107753610D01*
X144610658Y-107747859D01*
X144607145Y-107735403D01*
X144557125Y-107558046D01*
X144557124Y-107558044D01*
X144555557Y-107552487D01*
X144544978Y-107531033D01*
X144468331Y-107375609D01*
X144465776Y-107370428D01*
X144344320Y-107207779D01*
X144195258Y-107069987D01*
X144190375Y-107066906D01*
X144190371Y-107066903D01*
X144028464Y-106964748D01*
X144023581Y-106961667D01*
X143835039Y-106886446D01*
X143829379Y-106885320D01*
X143829375Y-106885319D01*
X143641613Y-106847971D01*
X143641610Y-106847971D01*
X143635946Y-106846844D01*
X143630171Y-106846768D01*
X143630167Y-106846768D01*
X143528793Y-106845441D01*
X143432971Y-106844187D01*
X143427274Y-106845166D01*
X143427273Y-106845166D01*
X143405345Y-106848934D01*
X143294092Y-106868051D01*
X143223569Y-106859874D01*
X143183660Y-106832966D01*
X143030694Y-106680000D01*
X163841210Y-106680000D01*
X163860334Y-106898587D01*
X163861758Y-106903900D01*
X163861758Y-106903902D01*
X163912217Y-107092217D01*
X163917124Y-107110532D01*
X163919446Y-107115512D01*
X163919447Y-107115514D01*
X164007530Y-107304408D01*
X164007533Y-107304413D01*
X164009856Y-107309395D01*
X164013012Y-107313902D01*
X164013013Y-107313904D01*
X164131996Y-107483829D01*
X164135711Y-107489135D01*
X164290865Y-107644289D01*
X164295373Y-107647446D01*
X164295376Y-107647448D01*
X164440231Y-107748876D01*
X164470605Y-107770144D01*
X164475587Y-107772467D01*
X164475592Y-107772470D01*
X164664486Y-107860553D01*
X164669468Y-107862876D01*
X164674776Y-107864298D01*
X164674778Y-107864299D01*
X164876098Y-107918242D01*
X164876100Y-107918242D01*
X164881413Y-107919666D01*
X165100000Y-107938790D01*
X165318587Y-107919666D01*
X165323900Y-107918242D01*
X165323902Y-107918242D01*
X165525222Y-107864299D01*
X165525224Y-107864298D01*
X165530532Y-107862876D01*
X165535514Y-107860553D01*
X165724408Y-107772470D01*
X165724413Y-107772467D01*
X165729395Y-107770144D01*
X165759769Y-107748876D01*
X165904624Y-107647448D01*
X165904627Y-107647446D01*
X165909135Y-107644289D01*
X166064289Y-107489135D01*
X166068005Y-107483829D01*
X166186987Y-107313904D01*
X166186988Y-107313902D01*
X166190144Y-107309395D01*
X166192467Y-107304413D01*
X166192470Y-107304408D01*
X166280553Y-107115514D01*
X166280554Y-107115512D01*
X166282876Y-107110532D01*
X166287784Y-107092217D01*
X166338242Y-106903902D01*
X166338242Y-106903900D01*
X166339666Y-106898587D01*
X166358790Y-106680000D01*
X166339666Y-106461413D01*
X166282876Y-106249468D01*
X166280553Y-106244486D01*
X166192470Y-106055592D01*
X166192467Y-106055587D01*
X166190144Y-106050605D01*
X166161362Y-106009500D01*
X166067448Y-105875376D01*
X166067446Y-105875373D01*
X166064289Y-105870865D01*
X165909135Y-105715711D01*
X165904627Y-105712554D01*
X165904624Y-105712552D01*
X165733904Y-105593013D01*
X165733902Y-105593012D01*
X165729395Y-105589856D01*
X165724413Y-105587533D01*
X165724408Y-105587530D01*
X165535514Y-105499447D01*
X165535512Y-105499446D01*
X165530532Y-105497124D01*
X165525224Y-105495702D01*
X165525222Y-105495701D01*
X165323902Y-105441758D01*
X165323900Y-105441758D01*
X165318587Y-105440334D01*
X165100000Y-105421210D01*
X164881413Y-105440334D01*
X164876100Y-105441758D01*
X164876098Y-105441758D01*
X164674778Y-105495701D01*
X164674776Y-105495702D01*
X164669468Y-105497124D01*
X164664488Y-105499446D01*
X164664486Y-105499447D01*
X164475592Y-105587530D01*
X164475587Y-105587533D01*
X164470605Y-105589856D01*
X164466098Y-105593012D01*
X164466096Y-105593013D01*
X164295376Y-105712552D01*
X164295373Y-105712554D01*
X164290865Y-105715711D01*
X164135711Y-105870865D01*
X164132554Y-105875373D01*
X164132552Y-105875376D01*
X164038638Y-106009500D01*
X164009856Y-106050605D01*
X164007533Y-106055587D01*
X164007530Y-106055592D01*
X163919447Y-106244486D01*
X163917124Y-106249468D01*
X163860334Y-106461413D01*
X163842121Y-106669584D01*
X163841210Y-106680000D01*
X143030694Y-106680000D01*
X141349612Y-104998918D01*
X141315586Y-104936606D01*
X141312729Y-104910024D01*
X141313785Y-104902000D01*
X141298668Y-104787172D01*
X141295806Y-104765432D01*
X141295805Y-104765430D01*
X141294728Y-104757246D01*
X141238855Y-104622358D01*
X141175412Y-104539677D01*
X141155001Y-104513077D01*
X141155000Y-104513076D01*
X141149974Y-104506526D01*
X141143424Y-104501500D01*
X141143421Y-104501497D01*
X141040696Y-104422673D01*
X141040694Y-104422672D01*
X141034143Y-104417645D01*
X140899254Y-104361772D01*
X140857052Y-104356216D01*
X140762688Y-104343793D01*
X140754500Y-104342715D01*
X140746312Y-104343793D01*
X140746311Y-104343793D01*
X140651946Y-104356216D01*
X140581797Y-104345276D01*
X140528699Y-104298148D01*
X140509500Y-104231294D01*
X140509500Y-104173384D01*
X140529502Y-104105263D01*
X140546405Y-104084289D01*
X141708216Y-102922478D01*
X141726964Y-102907336D01*
X141728189Y-102906221D01*
X141736940Y-102900571D01*
X141743387Y-102892393D01*
X141743389Y-102892391D01*
X141757729Y-102874200D01*
X141761675Y-102869759D01*
X141761602Y-102869697D01*
X141764958Y-102865736D01*
X141768638Y-102862056D01*
X141779872Y-102846335D01*
X141783409Y-102841625D01*
X141815156Y-102801353D01*
X141818188Y-102792719D01*
X141823514Y-102785266D01*
X141838203Y-102736150D01*
X141840036Y-102730508D01*
X141854390Y-102689633D01*
X141854390Y-102689632D01*
X141857018Y-102682149D01*
X141857500Y-102676584D01*
X141857500Y-102673876D01*
X141857614Y-102671242D01*
X141857643Y-102671144D01*
X141857807Y-102671151D01*
X141857851Y-102670447D01*
X141859713Y-102664222D01*
X141857597Y-102610365D01*
X141857500Y-102605418D01*
X141857500Y-102059064D01*
X141877502Y-101990943D01*
X141883537Y-101982360D01*
X141957328Y-101886193D01*
X141962355Y-101879642D01*
X141965614Y-101871776D01*
X142008611Y-101767971D01*
X142018228Y-101744754D01*
X142037285Y-101600000D01*
X142033462Y-101570964D01*
X159546148Y-101570964D01*
X159559424Y-101773522D01*
X159560845Y-101779118D01*
X159560846Y-101779123D01*
X159587672Y-101884748D01*
X159609392Y-101970269D01*
X159611809Y-101975512D01*
X159672405Y-102106954D01*
X159694377Y-102154616D01*
X159697710Y-102159332D01*
X159790020Y-102289948D01*
X159811533Y-102320389D01*
X159815675Y-102324424D01*
X159843686Y-102351711D01*
X159956938Y-102462035D01*
X160125720Y-102574812D01*
X160131023Y-102577090D01*
X160131026Y-102577092D01*
X160289355Y-102645115D01*
X160312228Y-102654942D01*
X160353240Y-102664222D01*
X160504579Y-102698467D01*
X160504584Y-102698468D01*
X160510216Y-102699742D01*
X160515987Y-102699969D01*
X160515989Y-102699969D01*
X160575756Y-102702317D01*
X160713053Y-102707712D01*
X160813499Y-102693148D01*
X160908231Y-102679413D01*
X160908236Y-102679412D01*
X160913945Y-102678584D01*
X160919409Y-102676729D01*
X160919414Y-102676728D01*
X161100693Y-102615192D01*
X161100698Y-102615190D01*
X161106165Y-102613334D01*
X161115876Y-102607896D01*
X161182629Y-102570512D01*
X161283276Y-102514147D01*
X161293154Y-102505932D01*
X161434913Y-102388031D01*
X161439345Y-102384345D01*
X161496463Y-102315669D01*
X161565453Y-102232718D01*
X161565455Y-102232715D01*
X161569147Y-102228276D01*
X161646597Y-102089980D01*
X161665510Y-102056208D01*
X161665511Y-102056206D01*
X161668334Y-102051165D01*
X161670190Y-102045698D01*
X161670192Y-102045693D01*
X161731728Y-101864414D01*
X161731729Y-101864409D01*
X161733584Y-101858945D01*
X161734412Y-101853236D01*
X161734413Y-101853231D01*
X161762179Y-101661727D01*
X161762712Y-101658053D01*
X161764232Y-101600000D01*
X161749244Y-101436883D01*
X161746187Y-101403613D01*
X161746186Y-101403610D01*
X161745658Y-101397859D01*
X161741372Y-101382662D01*
X161692125Y-101208046D01*
X161692124Y-101208044D01*
X161690557Y-101202487D01*
X161686654Y-101194571D01*
X161603331Y-101025609D01*
X161600776Y-101020428D01*
X161586148Y-101000838D01*
X161554365Y-100958276D01*
X161479320Y-100857779D01*
X161330258Y-100719987D01*
X161325375Y-100716906D01*
X161325371Y-100716903D01*
X161163464Y-100614748D01*
X161158581Y-100611667D01*
X160970039Y-100536446D01*
X160964379Y-100535320D01*
X160964375Y-100535319D01*
X160776613Y-100497971D01*
X160776610Y-100497971D01*
X160770946Y-100496844D01*
X160765171Y-100496768D01*
X160765167Y-100496768D01*
X160663793Y-100495441D01*
X160567971Y-100494187D01*
X160562274Y-100495166D01*
X160562273Y-100495166D01*
X160481049Y-100509123D01*
X160367910Y-100528564D01*
X160177463Y-100598824D01*
X160172502Y-100601776D01*
X160172501Y-100601776D01*
X160166837Y-100605146D01*
X160003010Y-100702612D01*
X159998670Y-100706418D01*
X159998666Y-100706421D01*
X159919677Y-100775693D01*
X159850392Y-100836455D01*
X159724720Y-100995869D01*
X159722031Y-101000980D01*
X159722029Y-101000983D01*
X159691666Y-101058694D01*
X159630203Y-101175515D01*
X159570007Y-101369378D01*
X159546148Y-101570964D01*
X142033462Y-101570964D01*
X142018228Y-101455246D01*
X141989107Y-101384942D01*
X141965515Y-101327986D01*
X141965514Y-101327984D01*
X141962355Y-101320358D01*
X141901042Y-101240453D01*
X141878501Y-101211077D01*
X141878500Y-101211076D01*
X141873474Y-101204526D01*
X141866924Y-101199500D01*
X141866921Y-101199497D01*
X141764196Y-101120673D01*
X141764194Y-101120672D01*
X141757643Y-101115645D01*
X141622754Y-101059772D01*
X141582132Y-101054424D01*
X141486188Y-101041793D01*
X141478000Y-101040715D01*
X141469812Y-101041793D01*
X141341432Y-101058694D01*
X141341430Y-101058695D01*
X141333246Y-101059772D01*
X141272497Y-101084935D01*
X141269719Y-101086086D01*
X141199129Y-101093675D01*
X141135642Y-101061896D01*
X141099414Y-101000838D01*
X141095500Y-100969677D01*
X141095500Y-100265081D01*
X141098049Y-100241134D01*
X141098128Y-100239468D01*
X141100320Y-100229285D01*
X141099096Y-100218943D01*
X141099096Y-100218940D01*
X141096374Y-100195948D01*
X141096023Y-100190007D01*
X141095928Y-100190015D01*
X141095500Y-100184835D01*
X141095500Y-100179637D01*
X141093637Y-100168442D01*
X141092329Y-100160588D01*
X141091492Y-100154708D01*
X141086693Y-100114158D01*
X141086692Y-100114156D01*
X141085469Y-100103820D01*
X141081508Y-100095571D01*
X141080004Y-100086535D01*
X141065214Y-100059124D01*
X141050468Y-99989675D01*
X141075611Y-99923280D01*
X141093588Y-99904067D01*
X141114207Y-99886201D01*
X141114215Y-99886193D01*
X141116332Y-99884359D01*
X141147773Y-99851775D01*
X141191762Y-99767680D01*
X141737289Y-99767680D01*
X141746383Y-99840690D01*
X141784056Y-99978870D01*
X141791569Y-99996231D01*
X141806875Y-100031602D01*
X141813274Y-100046390D01*
X141888214Y-100168442D01*
X141935209Y-100225048D01*
X141938522Y-100228047D01*
X141938526Y-100228051D01*
X141994499Y-100278715D01*
X142041393Y-100321162D01*
X142045109Y-100323669D01*
X142045111Y-100323670D01*
X142098670Y-100359796D01*
X142098675Y-100359799D01*
X142102389Y-100362304D01*
X142106426Y-100364260D01*
X142106428Y-100364261D01*
X142160859Y-100390632D01*
X142231281Y-100424751D01*
X142277856Y-100439615D01*
X142336668Y-100479379D01*
X142364648Y-100544630D01*
X142365167Y-100558971D01*
X142363680Y-100565876D01*
X142364904Y-100576218D01*
X142364904Y-100576219D01*
X142367627Y-100599223D01*
X142367977Y-100605154D01*
X142368072Y-100605146D01*
X142368500Y-100610324D01*
X142368500Y-100615524D01*
X142369354Y-100620653D01*
X142369354Y-100620656D01*
X142371669Y-100634565D01*
X142372506Y-100640443D01*
X142374544Y-100657658D01*
X142378530Y-100691341D01*
X142382493Y-100699593D01*
X142383996Y-100708626D01*
X142388943Y-100717795D01*
X142388944Y-100717797D01*
X142408334Y-100753732D01*
X142411031Y-100759025D01*
X142431647Y-100801960D01*
X142442985Y-100840054D01*
X142448852Y-100884616D01*
X142461772Y-100982754D01*
X142469263Y-101000838D01*
X142514444Y-101109913D01*
X142517645Y-101117642D01*
X142522672Y-101124193D01*
X142580455Y-101199497D01*
X142606526Y-101233474D01*
X142613076Y-101238500D01*
X142613079Y-101238503D01*
X142702466Y-101307092D01*
X142722357Y-101322355D01*
X142857246Y-101378228D01*
X143002000Y-101397285D01*
X143010188Y-101396207D01*
X143138566Y-101379306D01*
X143146754Y-101378228D01*
X143281643Y-101322355D01*
X143301534Y-101307092D01*
X143390921Y-101238503D01*
X143390924Y-101238500D01*
X143397474Y-101233474D01*
X143423546Y-101199497D01*
X143481328Y-101124193D01*
X143486355Y-101117642D01*
X143489557Y-101109913D01*
X143534737Y-101000838D01*
X143542228Y-100982754D01*
X143555839Y-100879371D01*
X143560207Y-100846188D01*
X143561285Y-100838000D01*
X143546265Y-100723911D01*
X143543306Y-100701432D01*
X143543305Y-100701430D01*
X143542228Y-100693246D01*
X143505739Y-100605154D01*
X143489515Y-100565986D01*
X143489514Y-100565984D01*
X143486355Y-100558358D01*
X143444024Y-100503191D01*
X143435697Y-100492339D01*
X143410097Y-100426118D01*
X143424362Y-100356570D01*
X143453412Y-100320182D01*
X143544644Y-100241572D01*
X143544649Y-100241567D01*
X143548039Y-100238646D01*
X143596404Y-100183204D01*
X143605973Y-100168442D01*
X143671865Y-100066782D01*
X143671865Y-100066781D01*
X143674304Y-100063019D01*
X143705164Y-99996231D01*
X143746200Y-99859013D01*
X143749055Y-99839913D01*
X143756412Y-99790681D01*
X143756412Y-99790678D01*
X143757074Y-99786250D01*
X143757626Y-99695837D01*
X143757922Y-99647509D01*
X143757922Y-99647504D01*
X143757949Y-99643029D01*
X143757611Y-99640560D01*
X143757486Y-99636718D01*
X143757486Y-99210000D01*
X143737734Y-99110699D01*
X143733705Y-99104669D01*
X143726497Y-99037627D01*
X143732527Y-99017095D01*
X143737734Y-99009301D01*
X143757486Y-98910000D01*
X143757486Y-98903812D01*
X143757551Y-98903152D01*
X143784132Y-98837319D01*
X143842086Y-98796308D01*
X143882944Y-98789500D01*
X144153056Y-98789500D01*
X144221177Y-98809502D01*
X144267670Y-98863158D01*
X144278449Y-98903152D01*
X144278514Y-98903812D01*
X144278514Y-98910000D01*
X144298266Y-99009301D01*
X144302295Y-99015331D01*
X144309503Y-99082373D01*
X144303473Y-99102905D01*
X144298266Y-99110699D01*
X144278514Y-99210000D01*
X144278514Y-99699691D01*
X144278493Y-99701999D01*
X144277289Y-99767680D01*
X144286383Y-99840690D01*
X144324056Y-99978870D01*
X144331569Y-99996231D01*
X144346875Y-100031602D01*
X144353274Y-100046390D01*
X144371442Y-100075979D01*
X144404738Y-100130208D01*
X144423336Y-100198725D01*
X144401939Y-100266421D01*
X144345581Y-100312545D01*
X144292455Y-100334551D01*
X144246358Y-100353645D01*
X144130526Y-100442526D01*
X144041645Y-100558358D01*
X144038486Y-100565984D01*
X144038485Y-100565986D01*
X144022261Y-100605154D01*
X143985772Y-100693246D01*
X143984695Y-100701430D01*
X143984694Y-100701432D01*
X143981735Y-100723911D01*
X143966715Y-100838000D01*
X143967793Y-100846188D01*
X143972162Y-100879371D01*
X143985772Y-100982754D01*
X143993263Y-101000838D01*
X144038444Y-101109913D01*
X144041645Y-101117642D01*
X144046672Y-101124193D01*
X144104455Y-101199497D01*
X144130526Y-101233474D01*
X144137076Y-101238500D01*
X144137079Y-101238503D01*
X144226466Y-101307092D01*
X144246357Y-101322355D01*
X144381246Y-101378228D01*
X144526000Y-101397285D01*
X144534188Y-101396207D01*
X144662566Y-101379306D01*
X144670754Y-101378228D01*
X144805643Y-101322355D01*
X144825534Y-101307092D01*
X144914921Y-101238503D01*
X144914924Y-101238500D01*
X144921474Y-101233474D01*
X144947546Y-101199497D01*
X145005328Y-101124193D01*
X145010355Y-101117642D01*
X145013557Y-101109913D01*
X145058737Y-101000838D01*
X145066228Y-100982754D01*
X145083128Y-100854388D01*
X145111849Y-100789462D01*
X145118954Y-100781740D01*
X145392494Y-100508200D01*
X145454806Y-100474174D01*
X145492844Y-100471799D01*
X145522484Y-100474458D01*
X145524908Y-100474488D01*
X145524915Y-100474488D01*
X145528000Y-100474525D01*
X145534826Y-100474609D01*
X145574786Y-100472007D01*
X145592243Y-100469507D01*
X145712125Y-100452339D01*
X145712131Y-100452338D01*
X145716563Y-100451703D01*
X145720856Y-100450448D01*
X145720859Y-100450447D01*
X145782883Y-100432310D01*
X145782884Y-100432310D01*
X145787178Y-100431054D01*
X145917557Y-100371774D01*
X145979538Y-100332136D01*
X146088039Y-100238646D01*
X146136404Y-100183204D01*
X146145973Y-100168442D01*
X146211865Y-100066782D01*
X146211865Y-100066781D01*
X146214304Y-100063019D01*
X146245164Y-99996231D01*
X146246451Y-99991927D01*
X146248034Y-99987744D01*
X146249923Y-99988459D01*
X146284128Y-99935874D01*
X146348870Y-99906737D01*
X146419087Y-99917227D01*
X146444931Y-99935277D01*
X146445615Y-99934385D01*
X146526214Y-99996231D01*
X146561446Y-100023266D01*
X146626519Y-100050220D01*
X146682321Y-100073334D01*
X146696335Y-100079139D01*
X146704523Y-100080217D01*
X146768712Y-100088668D01*
X146841089Y-100098196D01*
X146849277Y-100097118D01*
X146897800Y-100090730D01*
X146913466Y-100088668D01*
X146977655Y-100080217D01*
X146985843Y-100079139D01*
X146999858Y-100073334D01*
X147055659Y-100050220D01*
X147120732Y-100023266D01*
X147127285Y-100018238D01*
X147230010Y-99939414D01*
X147230013Y-99939411D01*
X147236563Y-99934385D01*
X147243577Y-99925245D01*
X147320417Y-99825104D01*
X147325444Y-99818553D01*
X147338825Y-99786250D01*
X147378158Y-99691291D01*
X147381317Y-99683665D01*
X147389136Y-99624277D01*
X147399296Y-99547099D01*
X147400374Y-99538911D01*
X147386881Y-99436421D01*
X147382395Y-99402343D01*
X147382394Y-99402341D01*
X147381317Y-99394157D01*
X147347796Y-99313231D01*
X147328604Y-99266897D01*
X147328603Y-99266895D01*
X147325444Y-99259269D01*
X147236563Y-99143437D01*
X147230013Y-99138411D01*
X147230010Y-99138408D01*
X147127285Y-99059584D01*
X147127283Y-99059583D01*
X147120732Y-99054556D01*
X147063776Y-99030964D01*
X159546148Y-99030964D01*
X159559424Y-99233522D01*
X159560845Y-99239118D01*
X159560846Y-99239123D01*
X159602300Y-99402343D01*
X159609392Y-99430269D01*
X159611809Y-99435512D01*
X159674266Y-99570991D01*
X159694377Y-99614616D01*
X159697710Y-99619332D01*
X159803794Y-99769438D01*
X159811533Y-99780389D01*
X159815675Y-99784424D01*
X159822098Y-99790681D01*
X159956938Y-99922035D01*
X159961742Y-99925245D01*
X159972580Y-99932487D01*
X160125720Y-100034812D01*
X160131023Y-100037090D01*
X160131026Y-100037092D01*
X160286341Y-100103820D01*
X160312228Y-100114942D01*
X160369313Y-100127859D01*
X160504579Y-100158467D01*
X160504584Y-100158468D01*
X160510216Y-100159742D01*
X160515987Y-100159969D01*
X160515989Y-100159969D01*
X160575756Y-100162317D01*
X160713053Y-100167712D01*
X160813499Y-100153148D01*
X160908231Y-100139413D01*
X160908236Y-100139412D01*
X160913945Y-100138584D01*
X160919409Y-100136729D01*
X160919414Y-100136728D01*
X161100693Y-100075192D01*
X161100698Y-100075190D01*
X161106165Y-100073334D01*
X161117865Y-100066782D01*
X161204546Y-100018238D01*
X161283276Y-99974147D01*
X161296862Y-99962848D01*
X161434913Y-99848031D01*
X161439345Y-99844345D01*
X161511140Y-99758022D01*
X161565453Y-99692718D01*
X161565455Y-99692715D01*
X161569147Y-99688276D01*
X161648210Y-99547099D01*
X161665510Y-99516208D01*
X161665511Y-99516206D01*
X161668334Y-99511165D01*
X161670190Y-99505698D01*
X161670192Y-99505693D01*
X161731728Y-99324414D01*
X161731729Y-99324409D01*
X161733584Y-99318945D01*
X161734412Y-99313236D01*
X161734413Y-99313231D01*
X161755801Y-99165719D01*
X161762712Y-99118053D01*
X161764232Y-99060000D01*
X161749244Y-98896883D01*
X161746187Y-98863613D01*
X161746186Y-98863610D01*
X161745658Y-98857859D01*
X161739865Y-98837319D01*
X161692125Y-98668046D01*
X161692124Y-98668044D01*
X161690557Y-98662487D01*
X161679978Y-98641033D01*
X161603331Y-98485609D01*
X161600776Y-98480428D01*
X161479320Y-98317779D01*
X161330258Y-98179987D01*
X161325375Y-98176906D01*
X161325371Y-98176903D01*
X161163464Y-98074748D01*
X161158581Y-98071667D01*
X160970039Y-97996446D01*
X160964379Y-97995320D01*
X160964375Y-97995319D01*
X160776613Y-97957971D01*
X160776610Y-97957971D01*
X160770946Y-97956844D01*
X160765171Y-97956768D01*
X160765167Y-97956768D01*
X160663793Y-97955441D01*
X160567971Y-97954187D01*
X160562274Y-97955166D01*
X160562273Y-97955166D01*
X160450810Y-97974319D01*
X160367910Y-97988564D01*
X160177463Y-98058824D01*
X160003010Y-98162612D01*
X159998670Y-98166418D01*
X159998666Y-98166421D01*
X159871438Y-98277998D01*
X159850392Y-98296455D01*
X159846817Y-98300990D01*
X159846816Y-98300991D01*
X159817722Y-98337897D01*
X159724720Y-98455869D01*
X159722031Y-98460980D01*
X159722029Y-98460983D01*
X159683202Y-98534781D01*
X159630203Y-98635515D01*
X159570007Y-98829378D01*
X159546148Y-99030964D01*
X147063776Y-99030964D01*
X146985843Y-98998683D01*
X146974070Y-98997133D01*
X146965456Y-98995999D01*
X146857477Y-98981783D01*
X146792551Y-98953062D01*
X146784829Y-98945957D01*
X146334469Y-98495597D01*
X146300443Y-98433285D01*
X146297566Y-98405732D01*
X146297922Y-98347515D01*
X146297922Y-98347509D01*
X146297949Y-98343029D01*
X146295125Y-98322409D01*
X146292190Y-98300991D01*
X146287964Y-98270138D01*
X146277312Y-98232865D01*
X146249839Y-98136740D01*
X146248607Y-98132429D01*
X146230491Y-98091928D01*
X146220396Y-98069361D01*
X146220396Y-98069360D01*
X146218566Y-98065270D01*
X146142140Y-97944142D01*
X146094455Y-97888112D01*
X146059209Y-97856984D01*
X145990467Y-97796274D01*
X145990466Y-97796274D01*
X145987104Y-97793304D01*
X145925614Y-97752913D01*
X145921558Y-97751009D01*
X145921555Y-97751007D01*
X145800029Y-97693950D01*
X145800027Y-97693949D01*
X145795969Y-97692044D01*
X145725609Y-97670533D01*
X145721179Y-97669843D01*
X145721178Y-97669843D01*
X145693849Y-97665588D01*
X145584091Y-97648499D01*
X145579624Y-97648444D01*
X145579619Y-97648444D01*
X145544214Y-97648012D01*
X145510527Y-97647600D01*
X145506085Y-97648181D01*
X145506082Y-97648181D01*
X145496379Y-97649450D01*
X145480042Y-97650514D01*
X145106783Y-97650514D01*
X145092993Y-97649447D01*
X145092983Y-97649561D01*
X145088512Y-97649187D01*
X145084091Y-97648499D01*
X145079624Y-97648444D01*
X145079619Y-97648444D01*
X145044214Y-97648012D01*
X145010527Y-97647600D01*
X145006085Y-97648181D01*
X145006082Y-97648181D01*
X144946257Y-97656004D01*
X144868513Y-97666170D01*
X144864193Y-97667376D01*
X144864189Y-97667377D01*
X144801964Y-97684751D01*
X144801961Y-97684752D01*
X144797649Y-97685956D01*
X144720399Y-97719947D01*
X144670653Y-97741836D01*
X144670650Y-97741838D01*
X144666556Y-97743639D01*
X144654719Y-97751007D01*
X144607894Y-97780152D01*
X144607888Y-97780156D01*
X144604097Y-97782516D01*
X144600676Y-97785392D01*
X144600670Y-97785396D01*
X144515506Y-97856984D01*
X144494462Y-97874673D01*
X144491474Y-97878015D01*
X144448415Y-97926173D01*
X144448411Y-97926178D01*
X144445423Y-97929520D01*
X144435787Y-97943996D01*
X144415602Y-97974319D01*
X144361204Y-98019942D01*
X144310715Y-98030500D01*
X143726113Y-98030500D01*
X143657992Y-98010498D01*
X143619552Y-97971737D01*
X143604531Y-97947930D01*
X143604524Y-97947921D01*
X143602140Y-97944142D01*
X143554455Y-97888112D01*
X143519209Y-97856984D01*
X143450467Y-97796274D01*
X143450466Y-97796274D01*
X143447104Y-97793304D01*
X143385614Y-97752913D01*
X143381558Y-97751009D01*
X143381555Y-97751007D01*
X143260029Y-97693950D01*
X143260027Y-97693949D01*
X143255969Y-97692044D01*
X143185609Y-97670533D01*
X143181179Y-97669843D01*
X143181178Y-97669843D01*
X143153849Y-97665588D01*
X143044091Y-97648499D01*
X143039624Y-97648444D01*
X143039619Y-97648444D01*
X143004214Y-97648012D01*
X142970527Y-97647600D01*
X142966085Y-97648181D01*
X142966082Y-97648181D01*
X142956379Y-97649450D01*
X142940042Y-97650514D01*
X142566783Y-97650514D01*
X142552993Y-97649447D01*
X142552983Y-97649561D01*
X142548512Y-97649187D01*
X142544091Y-97648499D01*
X142539624Y-97648444D01*
X142539619Y-97648444D01*
X142504214Y-97648012D01*
X142470527Y-97647600D01*
X142466085Y-97648181D01*
X142466082Y-97648181D01*
X142406257Y-97656004D01*
X142328513Y-97666170D01*
X142324193Y-97667376D01*
X142324189Y-97667377D01*
X142261964Y-97684751D01*
X142261961Y-97684752D01*
X142257649Y-97685956D01*
X142180399Y-97719947D01*
X142130653Y-97741836D01*
X142130650Y-97741838D01*
X142126556Y-97743639D01*
X142114719Y-97751007D01*
X142067894Y-97780152D01*
X142067888Y-97780156D01*
X142064097Y-97782516D01*
X142060676Y-97785392D01*
X142060670Y-97785396D01*
X141975506Y-97856984D01*
X141954462Y-97874673D01*
X141951474Y-97878015D01*
X141908415Y-97926173D01*
X141908411Y-97926178D01*
X141905423Y-97929520D01*
X141902938Y-97933253D01*
X141902935Y-97933257D01*
X141828541Y-98045017D01*
X141828538Y-98045023D01*
X141826060Y-98048745D01*
X141824132Y-98052788D01*
X141824131Y-98052789D01*
X141821252Y-98058824D01*
X141794386Y-98115150D01*
X141793051Y-98119425D01*
X141793048Y-98119431D01*
X141753015Y-98247569D01*
X141751676Y-98251856D01*
X141739914Y-98324481D01*
X141737289Y-98467680D01*
X141737842Y-98472122D01*
X141738079Y-98476602D01*
X141737973Y-98476608D01*
X141738514Y-98485332D01*
X141738514Y-98910000D01*
X141758266Y-99009301D01*
X141762295Y-99015331D01*
X141769503Y-99082373D01*
X141763473Y-99102905D01*
X141758266Y-99110699D01*
X141738514Y-99210000D01*
X141738514Y-99699691D01*
X141738493Y-99701999D01*
X141737289Y-99767680D01*
X141191762Y-99767680D01*
X141193709Y-99763958D01*
X141213711Y-99695837D01*
X141224000Y-99624277D01*
X141224000Y-99440000D01*
X141222888Y-99429657D01*
X141218558Y-99389374D01*
X141218557Y-99389367D01*
X141218196Y-99386010D01*
X141206810Y-99333668D01*
X141199616Y-99307445D01*
X141160711Y-99239123D01*
X141153638Y-99226702D01*
X141153635Y-99226698D01*
X141150575Y-99221324D01*
X141120593Y-99186723D01*
X141105922Y-99169791D01*
X141105917Y-99169786D01*
X141104082Y-99167668D01*
X141071498Y-99136227D01*
X140983681Y-99090291D01*
X140915560Y-99070289D01*
X140911101Y-99069648D01*
X140911097Y-99069647D01*
X140869761Y-99063704D01*
X140844000Y-99060000D01*
X140659723Y-99060000D01*
X140656722Y-99060054D01*
X140651196Y-99060152D01*
X140651155Y-99060153D01*
X140650658Y-99060162D01*
X140649150Y-99060216D01*
X140646730Y-99060302D01*
X140646727Y-99060302D01*
X140641669Y-99060483D01*
X140636705Y-99061470D01*
X140636700Y-99061471D01*
X140566934Y-99075348D01*
X140566929Y-99075349D01*
X140561969Y-99076336D01*
X140557225Y-99078105D01*
X140557223Y-99078106D01*
X140545783Y-99082373D01*
X140495449Y-99101147D01*
X140492905Y-99102364D01*
X140492903Y-99102365D01*
X140462736Y-99116798D01*
X140462735Y-99116799D01*
X140454606Y-99120688D01*
X140447904Y-99126708D01*
X140447898Y-99126712D01*
X140389422Y-99179238D01*
X140325378Y-99209879D01*
X140254935Y-99201030D01*
X140216129Y-99174596D01*
X139784954Y-98743421D01*
X139750928Y-98681109D01*
X139749127Y-98670772D01*
X139748037Y-98662487D01*
X139732228Y-98542407D01*
X139698501Y-98460983D01*
X139679515Y-98415147D01*
X139679514Y-98415145D01*
X139676355Y-98407519D01*
X139587474Y-98291687D01*
X139488384Y-98215652D01*
X139446517Y-98158314D01*
X139442296Y-98087443D01*
X139475994Y-98026595D01*
X139741146Y-97761443D01*
X139803458Y-97727417D01*
X139813786Y-97725618D01*
X139942160Y-97708717D01*
X140077049Y-97652844D01*
X140083602Y-97647816D01*
X140186327Y-97568992D01*
X140186330Y-97568989D01*
X140192880Y-97563963D01*
X140281761Y-97448131D01*
X140337634Y-97313243D01*
X140356691Y-97168489D01*
X140353565Y-97144744D01*
X140338712Y-97031921D01*
X140338711Y-97031919D01*
X140337634Y-97023735D01*
X140281761Y-96888847D01*
X140217230Y-96804748D01*
X140197907Y-96779566D01*
X140197906Y-96779565D01*
X140192880Y-96773015D01*
X140186330Y-96767989D01*
X140186327Y-96767986D01*
X140083602Y-96689162D01*
X140083600Y-96689161D01*
X140077049Y-96684134D01*
X139942160Y-96628261D01*
X139797406Y-96609204D01*
X139789218Y-96610282D01*
X139660838Y-96627183D01*
X139660836Y-96627184D01*
X139652652Y-96628261D01*
X139604836Y-96648067D01*
X139525392Y-96680974D01*
X139525390Y-96680975D01*
X139517764Y-96684134D01*
X139401932Y-96773015D01*
X139313051Y-96888847D01*
X139257178Y-97023735D01*
X139256101Y-97031919D01*
X139256100Y-97031921D01*
X139240279Y-97152100D01*
X139211557Y-97217027D01*
X139204452Y-97224749D01*
X138430000Y-97999201D01*
X138430000Y-95980558D01*
X138444909Y-96016551D01*
X138453645Y-96037642D01*
X138458672Y-96044193D01*
X138535134Y-96143840D01*
X138542526Y-96153474D01*
X138549076Y-96158500D01*
X138549079Y-96158503D01*
X138651804Y-96237327D01*
X138658357Y-96242355D01*
X138793246Y-96298228D01*
X138938000Y-96317285D01*
X138946188Y-96316207D01*
X139074566Y-96299306D01*
X139082754Y-96298228D01*
X139217643Y-96242355D01*
X139301788Y-96177788D01*
X139368006Y-96152188D01*
X139393938Y-96152768D01*
X139394607Y-96152881D01*
X139397044Y-96153100D01*
X139397047Y-96153100D01*
X139408921Y-96154165D01*
X139434484Y-96156458D01*
X139436908Y-96156488D01*
X139436915Y-96156488D01*
X139440000Y-96156525D01*
X139446826Y-96156609D01*
X139472102Y-96154963D01*
X139484363Y-96154165D01*
X139484369Y-96154164D01*
X139486786Y-96154007D01*
X139489190Y-96153663D01*
X139489197Y-96153662D01*
X139494886Y-96152847D01*
X139495500Y-96152759D01*
X139513363Y-96151486D01*
X139876429Y-96151486D01*
X139892398Y-96152509D01*
X139894607Y-96152881D01*
X139934484Y-96156458D01*
X139936908Y-96156488D01*
X139936915Y-96156488D01*
X139940000Y-96156525D01*
X139946826Y-96156609D01*
X139986786Y-96154007D01*
X139995333Y-96152783D01*
X140124125Y-96134339D01*
X140124131Y-96134338D01*
X140128563Y-96133703D01*
X140132856Y-96132448D01*
X140132859Y-96132447D01*
X140194883Y-96114310D01*
X140194884Y-96114310D01*
X140199178Y-96113054D01*
X140329557Y-96053774D01*
X140391538Y-96014136D01*
X140500039Y-95920646D01*
X140548404Y-95865204D01*
X140611499Y-95767860D01*
X140665334Y-95721576D01*
X140735647Y-95711745D01*
X140800113Y-95741489D01*
X140838264Y-95801364D01*
X140843231Y-95836392D01*
X140843231Y-96997417D01*
X140823229Y-97065538D01*
X140817194Y-97074121D01*
X140738376Y-97176839D01*
X140735217Y-97184465D01*
X140735216Y-97184467D01*
X140732517Y-97190983D01*
X140682503Y-97311727D01*
X140663446Y-97456481D01*
X140664524Y-97464669D01*
X140676734Y-97557412D01*
X140682503Y-97601235D01*
X140685662Y-97608861D01*
X140734918Y-97727774D01*
X140738376Y-97736123D01*
X140827257Y-97851955D01*
X140833807Y-97856981D01*
X140833810Y-97856984D01*
X140933212Y-97933258D01*
X140943088Y-97940836D01*
X141077977Y-97996709D01*
X141222731Y-98015766D01*
X141230919Y-98014688D01*
X141359297Y-97997787D01*
X141367485Y-97996709D01*
X141502374Y-97940836D01*
X141512250Y-97933258D01*
X141611652Y-97856984D01*
X141611655Y-97856981D01*
X141618205Y-97851955D01*
X141707086Y-97736123D01*
X141710545Y-97727774D01*
X141759800Y-97608861D01*
X141762959Y-97601235D01*
X141768729Y-97557412D01*
X141780938Y-97464669D01*
X141782016Y-97456481D01*
X141762959Y-97311727D01*
X141712945Y-97190983D01*
X141710246Y-97184467D01*
X141710245Y-97184465D01*
X141707086Y-97176839D01*
X141628268Y-97074121D01*
X141602668Y-97007900D01*
X141602231Y-96997417D01*
X141602231Y-95259711D01*
X141604780Y-95235764D01*
X141604859Y-95234098D01*
X141607051Y-95223915D01*
X141605827Y-95213573D01*
X141605827Y-95213570D01*
X141603105Y-95190578D01*
X141602754Y-95184637D01*
X141602659Y-95184645D01*
X141602231Y-95179465D01*
X141602231Y-95174267D01*
X141600367Y-95163066D01*
X141599060Y-95155218D01*
X141598223Y-95149338D01*
X141593424Y-95108788D01*
X141593423Y-95108786D01*
X141592200Y-95098450D01*
X141588239Y-95090201D01*
X141586735Y-95081165D01*
X141581787Y-95071994D01*
X141562383Y-95036031D01*
X141559688Y-95030742D01*
X141540943Y-94991706D01*
X141537511Y-94984559D01*
X141533917Y-94980283D01*
X141531977Y-94978343D01*
X141530224Y-94976432D01*
X141530175Y-94976342D01*
X141530298Y-94976230D01*
X141529826Y-94975695D01*
X141526741Y-94969977D01*
X141487144Y-94933374D01*
X141483579Y-94929945D01*
X140746391Y-94192757D01*
X140712365Y-94130445D01*
X140709486Y-94103662D01*
X140709486Y-94101257D01*
X140709488Y-94100487D01*
X140709922Y-94029515D01*
X140709922Y-94029509D01*
X140709949Y-94025029D01*
X140699964Y-93952138D01*
X140660607Y-93814429D01*
X140630566Y-93747270D01*
X140554140Y-93626142D01*
X140506455Y-93570112D01*
X140399104Y-93475304D01*
X140337614Y-93434913D01*
X140333558Y-93433009D01*
X140333555Y-93433007D01*
X140212029Y-93375950D01*
X140212027Y-93375949D01*
X140207969Y-93374044D01*
X140203685Y-93372734D01*
X140203674Y-93372730D01*
X140168660Y-93362025D01*
X140109364Y-93322980D01*
X140080591Y-93258075D01*
X140079500Y-93241531D01*
X140079500Y-91659384D01*
X140099502Y-91591263D01*
X140116405Y-91570289D01*
X140246694Y-91440000D01*
X163841210Y-91440000D01*
X163860334Y-91658587D01*
X163917124Y-91870532D01*
X163919446Y-91875512D01*
X163919447Y-91875514D01*
X164007530Y-92064408D01*
X164007533Y-92064413D01*
X164009856Y-92069395D01*
X164013012Y-92073902D01*
X164013013Y-92073904D01*
X164091389Y-92185836D01*
X164135711Y-92249135D01*
X164290865Y-92404289D01*
X164295373Y-92407446D01*
X164295376Y-92407448D01*
X164466096Y-92526987D01*
X164470605Y-92530144D01*
X164475587Y-92532467D01*
X164475592Y-92532470D01*
X164664486Y-92620553D01*
X164669468Y-92622876D01*
X164674776Y-92624298D01*
X164674778Y-92624299D01*
X164876098Y-92678242D01*
X164876100Y-92678242D01*
X164881413Y-92679666D01*
X165100000Y-92698790D01*
X165318587Y-92679666D01*
X165323900Y-92678242D01*
X165323902Y-92678242D01*
X165525222Y-92624299D01*
X165525224Y-92624298D01*
X165530532Y-92622876D01*
X165535514Y-92620553D01*
X165724408Y-92532470D01*
X165724413Y-92532467D01*
X165729395Y-92530144D01*
X165733904Y-92526987D01*
X165904624Y-92407448D01*
X165904627Y-92407446D01*
X165909135Y-92404289D01*
X166064289Y-92249135D01*
X166108612Y-92185836D01*
X166186987Y-92073904D01*
X166186988Y-92073902D01*
X166190144Y-92069395D01*
X166192467Y-92064413D01*
X166192470Y-92064408D01*
X166280553Y-91875514D01*
X166280554Y-91875512D01*
X166282876Y-91870532D01*
X166339666Y-91658587D01*
X166358790Y-91440000D01*
X166339666Y-91221413D01*
X166336117Y-91208168D01*
X166284299Y-91014778D01*
X166284298Y-91014776D01*
X166282876Y-91009468D01*
X166280553Y-91004486D01*
X166192470Y-90815592D01*
X166192467Y-90815587D01*
X166190144Y-90810605D01*
X166186987Y-90806096D01*
X166067448Y-90635376D01*
X166067446Y-90635373D01*
X166064289Y-90630865D01*
X165909135Y-90475711D01*
X165904627Y-90472554D01*
X165904624Y-90472552D01*
X165733904Y-90353013D01*
X165733902Y-90353012D01*
X165729395Y-90349856D01*
X165724413Y-90347533D01*
X165724408Y-90347530D01*
X165535514Y-90259447D01*
X165535512Y-90259446D01*
X165530532Y-90257124D01*
X165525224Y-90255702D01*
X165525222Y-90255701D01*
X165323902Y-90201758D01*
X165323900Y-90201758D01*
X165318587Y-90200334D01*
X165100000Y-90181210D01*
X164881413Y-90200334D01*
X164876100Y-90201758D01*
X164876098Y-90201758D01*
X164674778Y-90255701D01*
X164674776Y-90255702D01*
X164669468Y-90257124D01*
X164664488Y-90259446D01*
X164664486Y-90259447D01*
X164475592Y-90347530D01*
X164475587Y-90347533D01*
X164470605Y-90349856D01*
X164466098Y-90353012D01*
X164466096Y-90353013D01*
X164295376Y-90472552D01*
X164295373Y-90472554D01*
X164290865Y-90475711D01*
X164135711Y-90630865D01*
X164132554Y-90635373D01*
X164132552Y-90635376D01*
X164013013Y-90806096D01*
X164009856Y-90810605D01*
X164007533Y-90815587D01*
X164007530Y-90815592D01*
X163919447Y-91004486D01*
X163917124Y-91009468D01*
X163915702Y-91014776D01*
X163915701Y-91014778D01*
X163863883Y-91208168D01*
X163860334Y-91221413D01*
X163842121Y-91429584D01*
X163841210Y-91440000D01*
X140246694Y-91440000D01*
X140454107Y-91232587D01*
X140516419Y-91198561D01*
X140592941Y-91205915D01*
X140624904Y-91219647D01*
X140637228Y-91224942D01*
X140710244Y-91241464D01*
X140829579Y-91268467D01*
X140829584Y-91268468D01*
X140835216Y-91269742D01*
X140840987Y-91269969D01*
X140840989Y-91269969D01*
X140900756Y-91272317D01*
X141038053Y-91277712D01*
X141145348Y-91262155D01*
X141233231Y-91249413D01*
X141233236Y-91249412D01*
X141238945Y-91248584D01*
X141244409Y-91246729D01*
X141244414Y-91246728D01*
X141425693Y-91185192D01*
X141425698Y-91185190D01*
X141431165Y-91183334D01*
X141448531Y-91173609D01*
X141505683Y-91141602D01*
X141608276Y-91084147D01*
X141647969Y-91051135D01*
X141759913Y-90958031D01*
X141764345Y-90954345D01*
X141821463Y-90885669D01*
X141890453Y-90802718D01*
X141890455Y-90802715D01*
X141894147Y-90798276D01*
X141984664Y-90636647D01*
X141990510Y-90626208D01*
X141990511Y-90626206D01*
X141993334Y-90621165D01*
X141995190Y-90615698D01*
X141995192Y-90615693D01*
X142056728Y-90434414D01*
X142056729Y-90434409D01*
X142058584Y-90428945D01*
X142059412Y-90423236D01*
X142059413Y-90423231D01*
X142087179Y-90231727D01*
X142087712Y-90228053D01*
X142089232Y-90170000D01*
X142070658Y-89967859D01*
X142065949Y-89951161D01*
X142017125Y-89778046D01*
X142017124Y-89778044D01*
X142015557Y-89772487D01*
X142004978Y-89751033D01*
X141928331Y-89595609D01*
X141925776Y-89590428D01*
X141804320Y-89427779D01*
X141777134Y-89402648D01*
X141744546Y-89372524D01*
X141708101Y-89311596D01*
X141710382Y-89240636D01*
X141750665Y-89182174D01*
X141816160Y-89154771D01*
X141830075Y-89154000D01*
X142668487Y-89154000D01*
X142736608Y-89174002D01*
G37*
%TD.AperFunction*%
%TA.AperFunction,Conductor*%
G36*
X127119092Y-89174002D02*
G01*
X127165585Y-89227658D01*
X127176204Y-89291393D01*
X127175500Y-89294933D01*
X127175500Y-89301123D01*
X127175501Y-90170069D01*
X127175501Y-91045066D01*
X127190266Y-91119301D01*
X127197161Y-91129620D01*
X127197162Y-91129622D01*
X127237516Y-91190015D01*
X127246516Y-91203484D01*
X127330699Y-91259734D01*
X127404933Y-91274500D01*
X128279858Y-91274500D01*
X129155066Y-91274499D01*
X129201161Y-91265331D01*
X129217126Y-91262156D01*
X129217128Y-91262155D01*
X129229301Y-91259734D01*
X129239621Y-91252839D01*
X129239622Y-91252838D01*
X129303168Y-91210377D01*
X129313484Y-91203484D01*
X129369734Y-91119301D01*
X129384500Y-91045067D01*
X129384499Y-89294934D01*
X129383806Y-89291450D01*
X129396863Y-89222598D01*
X129445703Y-89171069D01*
X129509028Y-89154000D01*
X129968487Y-89154000D01*
X130036608Y-89174002D01*
X130083101Y-89227658D01*
X130093205Y-89297932D01*
X130063711Y-89362512D01*
X130051565Y-89374732D01*
X130015392Y-89406455D01*
X129889720Y-89565869D01*
X129887031Y-89570980D01*
X129887029Y-89570983D01*
X129874073Y-89595609D01*
X129795203Y-89745515D01*
X129735007Y-89939378D01*
X129711148Y-90140964D01*
X129724424Y-90343522D01*
X129725845Y-90349118D01*
X129725846Y-90349123D01*
X129746119Y-90428945D01*
X129774392Y-90540269D01*
X129776807Y-90545507D01*
X129776809Y-90545512D01*
X129812264Y-90622420D01*
X129859377Y-90724616D01*
X129976533Y-90890389D01*
X129980675Y-90894424D01*
X130082777Y-90993886D01*
X130121938Y-91032035D01*
X130290720Y-91144812D01*
X130296023Y-91147090D01*
X130296026Y-91147092D01*
X130469014Y-91221413D01*
X130477228Y-91224942D01*
X130550244Y-91241464D01*
X130669579Y-91268467D01*
X130669584Y-91268468D01*
X130675216Y-91269742D01*
X130680987Y-91269969D01*
X130680989Y-91269969D01*
X130740756Y-91272317D01*
X130878053Y-91277712D01*
X130985348Y-91262155D01*
X131073231Y-91249413D01*
X131073236Y-91249412D01*
X131078945Y-91248584D01*
X131084409Y-91246729D01*
X131084414Y-91246728D01*
X131265693Y-91185192D01*
X131265698Y-91185190D01*
X131271165Y-91183334D01*
X131288531Y-91173609D01*
X131345683Y-91141602D01*
X131448276Y-91084147D01*
X131487969Y-91051135D01*
X131599913Y-90958031D01*
X131604345Y-90954345D01*
X131661463Y-90885669D01*
X131730453Y-90802718D01*
X131730455Y-90802715D01*
X131734147Y-90798276D01*
X131824664Y-90636647D01*
X131830510Y-90626208D01*
X131830511Y-90626206D01*
X131833334Y-90621165D01*
X131835190Y-90615698D01*
X131835192Y-90615693D01*
X131896728Y-90434414D01*
X131896729Y-90434409D01*
X131898584Y-90428945D01*
X131899412Y-90423236D01*
X131899413Y-90423231D01*
X131927179Y-90231727D01*
X131927712Y-90228053D01*
X131929232Y-90170000D01*
X131910658Y-89967859D01*
X131905949Y-89951161D01*
X131857125Y-89778046D01*
X131857124Y-89778044D01*
X131855557Y-89772487D01*
X131844978Y-89751033D01*
X131768331Y-89595609D01*
X131765776Y-89590428D01*
X131644320Y-89427779D01*
X131617134Y-89402648D01*
X131584546Y-89372524D01*
X131548101Y-89311596D01*
X131550382Y-89240636D01*
X131590665Y-89182174D01*
X131656160Y-89154771D01*
X131670075Y-89154000D01*
X132508487Y-89154000D01*
X132576608Y-89174002D01*
X132623101Y-89227658D01*
X132633205Y-89297932D01*
X132603711Y-89362512D01*
X132591565Y-89374732D01*
X132555392Y-89406455D01*
X132429720Y-89565869D01*
X132427031Y-89570980D01*
X132427029Y-89570983D01*
X132414073Y-89595609D01*
X132335203Y-89745515D01*
X132275007Y-89939378D01*
X132251148Y-90140964D01*
X132264424Y-90343522D01*
X132265845Y-90349118D01*
X132265846Y-90349123D01*
X132286119Y-90428945D01*
X132314392Y-90540269D01*
X132316807Y-90545507D01*
X132316809Y-90545512D01*
X132352264Y-90622420D01*
X132399377Y-90724616D01*
X132516533Y-90890389D01*
X132520675Y-90894424D01*
X132622777Y-90993886D01*
X132661938Y-91032035D01*
X132830720Y-91144812D01*
X132836023Y-91147090D01*
X132836026Y-91147092D01*
X133009014Y-91221413D01*
X133017228Y-91224942D01*
X133090244Y-91241464D01*
X133209579Y-91268467D01*
X133209584Y-91268468D01*
X133215216Y-91269742D01*
X133220987Y-91269969D01*
X133220989Y-91269969D01*
X133280756Y-91272317D01*
X133418053Y-91277712D01*
X133525348Y-91262155D01*
X133613231Y-91249413D01*
X133613236Y-91249412D01*
X133618945Y-91248584D01*
X133624409Y-91246729D01*
X133624414Y-91246728D01*
X133805693Y-91185192D01*
X133805698Y-91185190D01*
X133811165Y-91183334D01*
X133828531Y-91173609D01*
X133885683Y-91141602D01*
X133988276Y-91084147D01*
X134027969Y-91051135D01*
X134139913Y-90958031D01*
X134144345Y-90954345D01*
X134201463Y-90885669D01*
X134270453Y-90802718D01*
X134270455Y-90802715D01*
X134274147Y-90798276D01*
X134364664Y-90636647D01*
X134370510Y-90626208D01*
X134370511Y-90626206D01*
X134373334Y-90621165D01*
X134375190Y-90615698D01*
X134375192Y-90615693D01*
X134436728Y-90434414D01*
X134436729Y-90434409D01*
X134438584Y-90428945D01*
X134439412Y-90423236D01*
X134439413Y-90423231D01*
X134467179Y-90231727D01*
X134467712Y-90228053D01*
X134469232Y-90170000D01*
X134450658Y-89967859D01*
X134445949Y-89951161D01*
X134397125Y-89778046D01*
X134397124Y-89778044D01*
X134395557Y-89772487D01*
X134384978Y-89751033D01*
X134308331Y-89595609D01*
X134305776Y-89590428D01*
X134184320Y-89427779D01*
X134157134Y-89402648D01*
X134124546Y-89372524D01*
X134088101Y-89311596D01*
X134090382Y-89240636D01*
X134130665Y-89182174D01*
X134196160Y-89154771D01*
X134210075Y-89154000D01*
X135048487Y-89154000D01*
X135116608Y-89174002D01*
X135163101Y-89227658D01*
X135173205Y-89297932D01*
X135143711Y-89362512D01*
X135131565Y-89374732D01*
X135095392Y-89406455D01*
X134969720Y-89565869D01*
X134967031Y-89570980D01*
X134967029Y-89570983D01*
X134954073Y-89595609D01*
X134875203Y-89745515D01*
X134815007Y-89939378D01*
X134791148Y-90140964D01*
X134804424Y-90343522D01*
X134805845Y-90349118D01*
X134805846Y-90349123D01*
X134826119Y-90428945D01*
X134854392Y-90540269D01*
X134856807Y-90545507D01*
X134856809Y-90545512D01*
X134892264Y-90622420D01*
X134939377Y-90724616D01*
X135056533Y-90890389D01*
X135060675Y-90894424D01*
X135162777Y-90993886D01*
X135201938Y-91032035D01*
X135370720Y-91144812D01*
X135376023Y-91147090D01*
X135376026Y-91147092D01*
X135549014Y-91221413D01*
X135557228Y-91224942D01*
X135630244Y-91241464D01*
X135749579Y-91268467D01*
X135749584Y-91268468D01*
X135755216Y-91269742D01*
X135760987Y-91269969D01*
X135760989Y-91269969D01*
X135820756Y-91272317D01*
X135958053Y-91277712D01*
X136065348Y-91262155D01*
X136153231Y-91249413D01*
X136153236Y-91249412D01*
X136158945Y-91248584D01*
X136164409Y-91246729D01*
X136164414Y-91246728D01*
X136345693Y-91185192D01*
X136345698Y-91185190D01*
X136351165Y-91183334D01*
X136368531Y-91173609D01*
X136425683Y-91141602D01*
X136528276Y-91084147D01*
X136567969Y-91051135D01*
X136679913Y-90958031D01*
X136684345Y-90954345D01*
X136741463Y-90885669D01*
X136810453Y-90802718D01*
X136810455Y-90802715D01*
X136814147Y-90798276D01*
X136904664Y-90636647D01*
X136910510Y-90626208D01*
X136910511Y-90626206D01*
X136913334Y-90621165D01*
X136915190Y-90615698D01*
X136915192Y-90615693D01*
X136976728Y-90434414D01*
X136976729Y-90434409D01*
X136978584Y-90428945D01*
X136979412Y-90423236D01*
X136979413Y-90423231D01*
X137007179Y-90231727D01*
X137007712Y-90228053D01*
X137009232Y-90170000D01*
X136990658Y-89967859D01*
X136985949Y-89951161D01*
X136937125Y-89778046D01*
X136937124Y-89778044D01*
X136935557Y-89772487D01*
X136924978Y-89751033D01*
X136848331Y-89595609D01*
X136845776Y-89590428D01*
X136724320Y-89427779D01*
X136697134Y-89402648D01*
X136664546Y-89372524D01*
X136628101Y-89311596D01*
X136630382Y-89240636D01*
X136670665Y-89182174D01*
X136736160Y-89154771D01*
X136750075Y-89154000D01*
X137588487Y-89154000D01*
X137656608Y-89174002D01*
X137703101Y-89227658D01*
X137713205Y-89297932D01*
X137683711Y-89362512D01*
X137671565Y-89374732D01*
X137635392Y-89406455D01*
X137509720Y-89565869D01*
X137507031Y-89570980D01*
X137507029Y-89570983D01*
X137494073Y-89595609D01*
X137415203Y-89745515D01*
X137355007Y-89939378D01*
X137331148Y-90140964D01*
X137344424Y-90343522D01*
X137345845Y-90349118D01*
X137345846Y-90349123D01*
X137366119Y-90428945D01*
X137394392Y-90540269D01*
X137396807Y-90545507D01*
X137396809Y-90545512D01*
X137432264Y-90622420D01*
X137479377Y-90724616D01*
X137596533Y-90890389D01*
X137600675Y-90894424D01*
X137702777Y-90993886D01*
X137741938Y-91032035D01*
X137910720Y-91144812D01*
X137916023Y-91147090D01*
X137916026Y-91147092D01*
X138089014Y-91221413D01*
X138097228Y-91224942D01*
X138170244Y-91241464D01*
X138289579Y-91268467D01*
X138289584Y-91268468D01*
X138295216Y-91269742D01*
X138300987Y-91269969D01*
X138300989Y-91269969D01*
X138360756Y-91272317D01*
X138498053Y-91277712D01*
X138605348Y-91262155D01*
X138693231Y-91249413D01*
X138693236Y-91249412D01*
X138698945Y-91248584D01*
X138704409Y-91246729D01*
X138704414Y-91246728D01*
X138885693Y-91185192D01*
X138885698Y-91185190D01*
X138891165Y-91183334D01*
X138908531Y-91173609D01*
X138965683Y-91141602D01*
X139068276Y-91084147D01*
X139107969Y-91051135D01*
X139219913Y-90958031D01*
X139224345Y-90954345D01*
X139281463Y-90885669D01*
X139350453Y-90802718D01*
X139350455Y-90802715D01*
X139354147Y-90798276D01*
X139444664Y-90636647D01*
X139450510Y-90626208D01*
X139450511Y-90626206D01*
X139453334Y-90621165D01*
X139455190Y-90615698D01*
X139455192Y-90615693D01*
X139516728Y-90434414D01*
X139516729Y-90434409D01*
X139518584Y-90428945D01*
X139519412Y-90423236D01*
X139519413Y-90423231D01*
X139547179Y-90231727D01*
X139547712Y-90228053D01*
X139549232Y-90170000D01*
X139530658Y-89967859D01*
X139525949Y-89951161D01*
X139477125Y-89778046D01*
X139477124Y-89778044D01*
X139475557Y-89772487D01*
X139464978Y-89751033D01*
X139388331Y-89595609D01*
X139385776Y-89590428D01*
X139264320Y-89427779D01*
X139237134Y-89402648D01*
X139204546Y-89372524D01*
X139168101Y-89311596D01*
X139170382Y-89240636D01*
X139210665Y-89182174D01*
X139276160Y-89154771D01*
X139290075Y-89154000D01*
X140128487Y-89154000D01*
X140196608Y-89174002D01*
X140243101Y-89227658D01*
X140253205Y-89297932D01*
X140223711Y-89362512D01*
X140211565Y-89374732D01*
X140175392Y-89406455D01*
X140049720Y-89565869D01*
X140047031Y-89570980D01*
X140047029Y-89570983D01*
X140034073Y-89595609D01*
X139955203Y-89745515D01*
X139895007Y-89939378D01*
X139871148Y-90140964D01*
X139884424Y-90343522D01*
X139885845Y-90349118D01*
X139885846Y-90349123D01*
X139906119Y-90428945D01*
X139934392Y-90540269D01*
X139941375Y-90555417D01*
X139951730Y-90625652D01*
X139922468Y-90690338D01*
X139916044Y-90697262D01*
X139469784Y-91143522D01*
X139451036Y-91158664D01*
X139449811Y-91159779D01*
X139441060Y-91165429D01*
X139434613Y-91173607D01*
X139434611Y-91173609D01*
X139420271Y-91191800D01*
X139416325Y-91196241D01*
X139416398Y-91196303D01*
X139413039Y-91200267D01*
X139409362Y-91203944D01*
X139398108Y-91219692D01*
X139394602Y-91224362D01*
X139362844Y-91264647D01*
X139359812Y-91273281D01*
X139354486Y-91280734D01*
X139351501Y-91290715D01*
X139339799Y-91329844D01*
X139337964Y-91335492D01*
X139320982Y-91383851D01*
X139320500Y-91389416D01*
X139320500Y-91392124D01*
X139320386Y-91394758D01*
X139320357Y-91394856D01*
X139320193Y-91394849D01*
X139320149Y-91395553D01*
X139318287Y-91401778D01*
X139319574Y-91434523D01*
X139320403Y-91455635D01*
X139320500Y-91460582D01*
X139320500Y-93241367D01*
X139300498Y-93309488D01*
X139246842Y-93355981D01*
X139228392Y-93362723D01*
X139209649Y-93367956D01*
X139132399Y-93401947D01*
X139082653Y-93423836D01*
X139082650Y-93423838D01*
X139078556Y-93425639D01*
X139066719Y-93433007D01*
X139019894Y-93462152D01*
X139019888Y-93462156D01*
X139016097Y-93464516D01*
X139012676Y-93467392D01*
X139012670Y-93467396D01*
X138940425Y-93528124D01*
X138906462Y-93556673D01*
X138903474Y-93560015D01*
X138860415Y-93608173D01*
X138860411Y-93608178D01*
X138857423Y-93611520D01*
X138854938Y-93615253D01*
X138854935Y-93615257D01*
X138780541Y-93727017D01*
X138780538Y-93727023D01*
X138778060Y-93730745D01*
X138746386Y-93797150D01*
X138737561Y-93825397D01*
X138698157Y-93884451D01*
X138665514Y-93904229D01*
X138655528Y-93908365D01*
X138539696Y-93997246D01*
X138450815Y-94113078D01*
X138394942Y-94247966D01*
X138393865Y-94256150D01*
X138393864Y-94256152D01*
X138386397Y-94312872D01*
X138375885Y-94392720D01*
X138394942Y-94537474D01*
X138450815Y-94672362D01*
X138539696Y-94788194D01*
X138546246Y-94793220D01*
X138546249Y-94793223D01*
X138617119Y-94847604D01*
X138640435Y-94865494D01*
X138641218Y-94866095D01*
X138683085Y-94923433D01*
X138690514Y-94966057D01*
X138690514Y-95186834D01*
X138670512Y-95254955D01*
X138641218Y-95286797D01*
X138542526Y-95362526D01*
X138453645Y-95478358D01*
X138450486Y-95485984D01*
X138450485Y-95485986D01*
X138440962Y-95508976D01*
X138430000Y-95535441D01*
X138430000Y-95250000D01*
X137034000Y-95250000D01*
X137037347Y-95249640D01*
X137037351Y-95249640D01*
X137084626Y-95244558D01*
X137084633Y-95244557D01*
X137087990Y-95244196D01*
X137117255Y-95237830D01*
X137138678Y-95233170D01*
X137138685Y-95233168D01*
X137140332Y-95232810D01*
X137166555Y-95225616D01*
X137207320Y-95202403D01*
X137247298Y-95179638D01*
X137247302Y-95179635D01*
X137252676Y-95176575D01*
X137284109Y-95149338D01*
X137304209Y-95131922D01*
X137304214Y-95131917D01*
X137306332Y-95130082D01*
X137337773Y-95097498D01*
X137383709Y-95009681D01*
X137403711Y-94941560D01*
X137414000Y-94870000D01*
X137414000Y-93217000D01*
X137408196Y-93163010D01*
X137404374Y-93145440D01*
X137397170Y-93112322D01*
X137397168Y-93112315D01*
X137396810Y-93110668D01*
X137389616Y-93084445D01*
X137351405Y-93017342D01*
X137343638Y-93003702D01*
X137343635Y-93003698D01*
X137340575Y-92998324D01*
X137304697Y-92956918D01*
X137295922Y-92946791D01*
X137295917Y-92946786D01*
X137294082Y-92944668D01*
X137261498Y-92913227D01*
X137173681Y-92867291D01*
X137105560Y-92847289D01*
X137101101Y-92846648D01*
X137101097Y-92846647D01*
X137069780Y-92842145D01*
X137034000Y-92837000D01*
X133222000Y-92837000D01*
X133218653Y-92837360D01*
X133218649Y-92837360D01*
X133171374Y-92842442D01*
X133171367Y-92842443D01*
X133168010Y-92842804D01*
X133164710Y-92843522D01*
X133164709Y-92843522D01*
X133117322Y-92853830D01*
X133117315Y-92853832D01*
X133115668Y-92854190D01*
X133089445Y-92861384D01*
X133048680Y-92884597D01*
X133008702Y-92907362D01*
X133008698Y-92907365D01*
X133003324Y-92910425D01*
X132998647Y-92914478D01*
X132966055Y-92942719D01*
X132949668Y-92956918D01*
X132918227Y-92989502D01*
X132872291Y-93077319D01*
X132852289Y-93145440D01*
X132851648Y-93149899D01*
X132851647Y-93149903D01*
X132847144Y-93181220D01*
X132842000Y-93217000D01*
X132842000Y-99015802D01*
X132842340Y-99028950D01*
X132843015Y-99041973D01*
X132861665Y-99125191D01*
X132863683Y-99130112D01*
X132881924Y-99174596D01*
X132888601Y-99190880D01*
X132925270Y-99253187D01*
X133875829Y-100441385D01*
X133904099Y-100471370D01*
X133907558Y-100474488D01*
X133933368Y-100497755D01*
X133934367Y-100498656D01*
X133945061Y-100507773D01*
X134032878Y-100553709D01*
X134100999Y-100573711D01*
X134105458Y-100574352D01*
X134105462Y-100574353D01*
X134136779Y-100578855D01*
X134172559Y-100584000D01*
X136272000Y-100584000D01*
X136340121Y-100604002D01*
X136386614Y-100657658D01*
X136398000Y-100710000D01*
X136398000Y-101982000D01*
X136398360Y-101985347D01*
X136398360Y-101985351D01*
X136400519Y-102005429D01*
X136403804Y-102035990D01*
X136415190Y-102088332D01*
X136422384Y-102114555D01*
X136432551Y-102132409D01*
X136468362Y-102195298D01*
X136468365Y-102195302D01*
X136471425Y-102200676D01*
X136517918Y-102254332D01*
X136550502Y-102285773D01*
X136638319Y-102331709D01*
X136706440Y-102351711D01*
X136710899Y-102352352D01*
X136710903Y-102352353D01*
X136737633Y-102356196D01*
X136778000Y-102362000D01*
X139619680Y-102362000D01*
X139687801Y-102382002D01*
X139734294Y-102435658D01*
X139744398Y-102505932D01*
X139714904Y-102570512D01*
X139708775Y-102577095D01*
X135669784Y-106616086D01*
X135651036Y-106631228D01*
X135649811Y-106632343D01*
X135641060Y-106637993D01*
X135634613Y-106646171D01*
X135634611Y-106646173D01*
X135620271Y-106664364D01*
X135616325Y-106668805D01*
X135616398Y-106668867D01*
X135613039Y-106672831D01*
X135609362Y-106676508D01*
X135598108Y-106692256D01*
X135594602Y-106696926D01*
X135562844Y-106737211D01*
X135559812Y-106745845D01*
X135554486Y-106753298D01*
X135551501Y-106763279D01*
X135539799Y-106802408D01*
X135537964Y-106808056D01*
X135523608Y-106848934D01*
X135523606Y-106848942D01*
X135523458Y-106849364D01*
X135523457Y-106849366D01*
X135520981Y-106856416D01*
X135519844Y-106856017D01*
X135489664Y-106911573D01*
X135443987Y-106940883D01*
X135427878Y-106946826D01*
X135427876Y-106946827D01*
X135422463Y-106948824D01*
X135248010Y-107052612D01*
X135243670Y-107056418D01*
X135243666Y-107056421D01*
X135132978Y-107153493D01*
X135095392Y-107186455D01*
X134969720Y-107345869D01*
X134967031Y-107350980D01*
X134967029Y-107350983D01*
X134955753Y-107372416D01*
X134875203Y-107525515D01*
X134815007Y-107719378D01*
X134791148Y-107920964D01*
X134804424Y-108123522D01*
X134805845Y-108129118D01*
X134805846Y-108129123D01*
X134826119Y-108208945D01*
X134854392Y-108320269D01*
X134856809Y-108325512D01*
X134894010Y-108406208D01*
X134939377Y-108504616D01*
X135056533Y-108670389D01*
X135060675Y-108674424D01*
X135137996Y-108749746D01*
X135172834Y-108811607D01*
X135168697Y-108882483D01*
X135126898Y-108939871D01*
X135060709Y-108965550D01*
X135050075Y-108966000D01*
X134214357Y-108966000D01*
X134146236Y-108945998D01*
X134099743Y-108892342D01*
X134089639Y-108822068D01*
X134119133Y-108757488D01*
X134133788Y-108743126D01*
X134139908Y-108738036D01*
X134139913Y-108738031D01*
X134144345Y-108734345D01*
X134274147Y-108578276D01*
X134373334Y-108401165D01*
X134375190Y-108395698D01*
X134375192Y-108395693D01*
X134436728Y-108214414D01*
X134436729Y-108214409D01*
X134438584Y-108208945D01*
X134439412Y-108203236D01*
X134439413Y-108203231D01*
X134467179Y-108011727D01*
X134467712Y-108008053D01*
X134469232Y-107950000D01*
X134457797Y-107825551D01*
X134451187Y-107753613D01*
X134451186Y-107753610D01*
X134450658Y-107747859D01*
X134447145Y-107735403D01*
X134397125Y-107558046D01*
X134397124Y-107558044D01*
X134395557Y-107552487D01*
X134384978Y-107531033D01*
X134308331Y-107375609D01*
X134305776Y-107370428D01*
X134184320Y-107207779D01*
X134035258Y-107069987D01*
X134030375Y-107066906D01*
X134030371Y-107066903D01*
X133868464Y-106964748D01*
X133863581Y-106961667D01*
X133675039Y-106886446D01*
X133669379Y-106885320D01*
X133669375Y-106885319D01*
X133481613Y-106847971D01*
X133481610Y-106847971D01*
X133475946Y-106846844D01*
X133470171Y-106846768D01*
X133470167Y-106846768D01*
X133368793Y-106845441D01*
X133272971Y-106844187D01*
X133267274Y-106845166D01*
X133267273Y-106845166D01*
X133097480Y-106874342D01*
X133072910Y-106878564D01*
X132882463Y-106948824D01*
X132708010Y-107052612D01*
X132703670Y-107056418D01*
X132703666Y-107056421D01*
X132592978Y-107153493D01*
X132555392Y-107186455D01*
X132429720Y-107345869D01*
X132427031Y-107350980D01*
X132427029Y-107350983D01*
X132415753Y-107372416D01*
X132335203Y-107525515D01*
X132275007Y-107719378D01*
X132251148Y-107920964D01*
X132264424Y-108123522D01*
X132265845Y-108129118D01*
X132265846Y-108129123D01*
X132286119Y-108208945D01*
X132314392Y-108320269D01*
X132316809Y-108325512D01*
X132354010Y-108406208D01*
X132399377Y-108504616D01*
X132516533Y-108670389D01*
X132520675Y-108674424D01*
X132597996Y-108749746D01*
X132632834Y-108811607D01*
X132628697Y-108882483D01*
X132586898Y-108939871D01*
X132520709Y-108965550D01*
X132510075Y-108966000D01*
X131674357Y-108966000D01*
X131606236Y-108945998D01*
X131559743Y-108892342D01*
X131549639Y-108822068D01*
X131579133Y-108757488D01*
X131593788Y-108743126D01*
X131599908Y-108738036D01*
X131599913Y-108738031D01*
X131604345Y-108734345D01*
X131734147Y-108578276D01*
X131833334Y-108401165D01*
X131835190Y-108395698D01*
X131835192Y-108395693D01*
X131896728Y-108214414D01*
X131896729Y-108214409D01*
X131898584Y-108208945D01*
X131899412Y-108203236D01*
X131899413Y-108203231D01*
X131927179Y-108011727D01*
X131927712Y-108008053D01*
X131929232Y-107950000D01*
X131917797Y-107825551D01*
X131911187Y-107753613D01*
X131911186Y-107753610D01*
X131910658Y-107747859D01*
X131907145Y-107735403D01*
X131857125Y-107558046D01*
X131857124Y-107558044D01*
X131855557Y-107552487D01*
X131844978Y-107531033D01*
X131768331Y-107375609D01*
X131765776Y-107370428D01*
X131644320Y-107207779D01*
X131495258Y-107069987D01*
X131490375Y-107066906D01*
X131490371Y-107066903D01*
X131328464Y-106964748D01*
X131323581Y-106961667D01*
X131135039Y-106886446D01*
X131129379Y-106885320D01*
X131129375Y-106885319D01*
X130941613Y-106847971D01*
X130941610Y-106847971D01*
X130935946Y-106846844D01*
X130930171Y-106846768D01*
X130930167Y-106846768D01*
X130828793Y-106845441D01*
X130732971Y-106844187D01*
X130727274Y-106845166D01*
X130727273Y-106845166D01*
X130557480Y-106874342D01*
X130532910Y-106878564D01*
X130342463Y-106948824D01*
X130168010Y-107052612D01*
X130163670Y-107056418D01*
X130163666Y-107056421D01*
X130052978Y-107153493D01*
X130015392Y-107186455D01*
X129889720Y-107345869D01*
X129887031Y-107350980D01*
X129887029Y-107350983D01*
X129875753Y-107372416D01*
X129795203Y-107525515D01*
X129735007Y-107719378D01*
X129711148Y-107920964D01*
X129724424Y-108123522D01*
X129725845Y-108129118D01*
X129725846Y-108129123D01*
X129746119Y-108208945D01*
X129774392Y-108320269D01*
X129776809Y-108325512D01*
X129814010Y-108406208D01*
X129859377Y-108504616D01*
X129976533Y-108670389D01*
X129980675Y-108674424D01*
X130057996Y-108749746D01*
X130092834Y-108811607D01*
X130088697Y-108882483D01*
X130046898Y-108939871D01*
X129980709Y-108965550D01*
X129970075Y-108966000D01*
X129509029Y-108966000D01*
X129440908Y-108945998D01*
X129394415Y-108892342D01*
X129383796Y-108828607D01*
X129384500Y-108825067D01*
X129384499Y-107074934D01*
X129369734Y-107000699D01*
X129344574Y-106963044D01*
X129320377Y-106926832D01*
X129313484Y-106916516D01*
X129229301Y-106860266D01*
X129155067Y-106845500D01*
X128280142Y-106845500D01*
X127404934Y-106845501D01*
X127369182Y-106852612D01*
X127342874Y-106857844D01*
X127342872Y-106857845D01*
X127330699Y-106860266D01*
X127320379Y-106867161D01*
X127320378Y-106867162D01*
X127273348Y-106898587D01*
X127246516Y-106916516D01*
X127190266Y-107000699D01*
X127175500Y-107074933D01*
X127175501Y-108825066D01*
X127176194Y-108828550D01*
X127163137Y-108897402D01*
X127114297Y-108948931D01*
X127050972Y-108966000D01*
X124497425Y-108966000D01*
X124472847Y-108963579D01*
X124460000Y-108961024D01*
X124447830Y-108963445D01*
X124435417Y-108963445D01*
X124435417Y-108963120D01*
X124424581Y-108963858D01*
X124268875Y-108954439D01*
X124192060Y-108949792D01*
X124176956Y-108947958D01*
X123920423Y-108900947D01*
X123905650Y-108897306D01*
X123811212Y-108867878D01*
X123656642Y-108819712D01*
X123642424Y-108814320D01*
X123404594Y-108707280D01*
X123391124Y-108700211D01*
X123167926Y-108565283D01*
X123155404Y-108556640D01*
X122950096Y-108395791D01*
X122938708Y-108385701D01*
X122754299Y-108201292D01*
X122744209Y-108189904D01*
X122583360Y-107984596D01*
X122574717Y-107972074D01*
X122439789Y-107748876D01*
X122432718Y-107735403D01*
X122423023Y-107713861D01*
X122325680Y-107497576D01*
X122320286Y-107483353D01*
X122285098Y-107370428D01*
X122242694Y-107234350D01*
X122239053Y-107219577D01*
X122192042Y-106963044D01*
X122190208Y-106947940D01*
X122184219Y-106848934D01*
X122176142Y-106715419D01*
X122176880Y-106704583D01*
X122176555Y-106704583D01*
X122176555Y-106692170D01*
X122178976Y-106680000D01*
X123201210Y-106680000D01*
X123220334Y-106898587D01*
X123221758Y-106903900D01*
X123221758Y-106903902D01*
X123272217Y-107092217D01*
X123277124Y-107110532D01*
X123279446Y-107115512D01*
X123279447Y-107115514D01*
X123367530Y-107304408D01*
X123367533Y-107304413D01*
X123369856Y-107309395D01*
X123373012Y-107313902D01*
X123373013Y-107313904D01*
X123491996Y-107483829D01*
X123495711Y-107489135D01*
X123650865Y-107644289D01*
X123655373Y-107647446D01*
X123655376Y-107647448D01*
X123800231Y-107748876D01*
X123830605Y-107770144D01*
X123835587Y-107772467D01*
X123835592Y-107772470D01*
X124024486Y-107860553D01*
X124029468Y-107862876D01*
X124034776Y-107864298D01*
X124034778Y-107864299D01*
X124236098Y-107918242D01*
X124236100Y-107918242D01*
X124241413Y-107919666D01*
X124460000Y-107938790D01*
X124678587Y-107919666D01*
X124683900Y-107918242D01*
X124683902Y-107918242D01*
X124885222Y-107864299D01*
X124885224Y-107864298D01*
X124890532Y-107862876D01*
X124895514Y-107860553D01*
X125084408Y-107772470D01*
X125084413Y-107772467D01*
X125089395Y-107770144D01*
X125119769Y-107748876D01*
X125264624Y-107647448D01*
X125264627Y-107647446D01*
X125269135Y-107644289D01*
X125424289Y-107489135D01*
X125428005Y-107483829D01*
X125546987Y-107313904D01*
X125546988Y-107313902D01*
X125550144Y-107309395D01*
X125552467Y-107304413D01*
X125552470Y-107304408D01*
X125640553Y-107115514D01*
X125640554Y-107115512D01*
X125642876Y-107110532D01*
X125647784Y-107092217D01*
X125698242Y-106903902D01*
X125698242Y-106903900D01*
X125699666Y-106898587D01*
X125718790Y-106680000D01*
X125699666Y-106461413D01*
X125642876Y-106249468D01*
X125640553Y-106244486D01*
X125552470Y-106055592D01*
X125552467Y-106055587D01*
X125550144Y-106050605D01*
X125521362Y-106009500D01*
X125427448Y-105875376D01*
X125427446Y-105875373D01*
X125424289Y-105870865D01*
X125269135Y-105715711D01*
X125264627Y-105712554D01*
X125264624Y-105712552D01*
X125093904Y-105593013D01*
X125093902Y-105593012D01*
X125089395Y-105589856D01*
X125084413Y-105587533D01*
X125084408Y-105587530D01*
X124895514Y-105499447D01*
X124895512Y-105499446D01*
X124890532Y-105497124D01*
X124885224Y-105495702D01*
X124885222Y-105495701D01*
X124683902Y-105441758D01*
X124683900Y-105441758D01*
X124678587Y-105440334D01*
X124460000Y-105421210D01*
X124241413Y-105440334D01*
X124236100Y-105441758D01*
X124236098Y-105441758D01*
X124034778Y-105495701D01*
X124034776Y-105495702D01*
X124029468Y-105497124D01*
X124024488Y-105499446D01*
X124024486Y-105499447D01*
X123835592Y-105587530D01*
X123835587Y-105587533D01*
X123830605Y-105589856D01*
X123826098Y-105593012D01*
X123826096Y-105593013D01*
X123655376Y-105712552D01*
X123655373Y-105712554D01*
X123650865Y-105715711D01*
X123495711Y-105870865D01*
X123492554Y-105875373D01*
X123492552Y-105875376D01*
X123398638Y-106009500D01*
X123369856Y-106050605D01*
X123367533Y-106055587D01*
X123367530Y-106055592D01*
X123279447Y-106244486D01*
X123277124Y-106249468D01*
X123220334Y-106461413D01*
X123202121Y-106669584D01*
X123201210Y-106680000D01*
X122178976Y-106680000D01*
X122176421Y-106667153D01*
X122174000Y-106642575D01*
X122174000Y-105155000D01*
X122194002Y-105086879D01*
X122247658Y-105040386D01*
X122300000Y-105029000D01*
X129502575Y-105029000D01*
X129527153Y-105031421D01*
X129540000Y-105033976D01*
X129639106Y-105014263D01*
X129723124Y-104958124D01*
X129779263Y-104874106D01*
X129794000Y-104800017D01*
X129798976Y-104775000D01*
X129796421Y-104762153D01*
X129794000Y-104737575D01*
X129794000Y-102840964D01*
X130336148Y-102840964D01*
X130349424Y-103043522D01*
X130350845Y-103049118D01*
X130350846Y-103049123D01*
X130369863Y-103124000D01*
X130399392Y-103240269D01*
X130401809Y-103245512D01*
X130439010Y-103326208D01*
X130484377Y-103424616D01*
X130601533Y-103590389D01*
X130746938Y-103732035D01*
X130915720Y-103844812D01*
X130921023Y-103847090D01*
X130921026Y-103847092D01*
X131009707Y-103885192D01*
X131102228Y-103924942D01*
X131175244Y-103941464D01*
X131294579Y-103968467D01*
X131294584Y-103968468D01*
X131300216Y-103969742D01*
X131305987Y-103969969D01*
X131305989Y-103969969D01*
X131365756Y-103972317D01*
X131503053Y-103977712D01*
X131603499Y-103963148D01*
X131698231Y-103949413D01*
X131698236Y-103949412D01*
X131703945Y-103948584D01*
X131709409Y-103946729D01*
X131709414Y-103946728D01*
X131890693Y-103885192D01*
X131890698Y-103885190D01*
X131896165Y-103883334D01*
X132073276Y-103784147D01*
X132135934Y-103732035D01*
X132224913Y-103658031D01*
X132229345Y-103654345D01*
X132359147Y-103498276D01*
X132458334Y-103321165D01*
X132460190Y-103315698D01*
X132460192Y-103315693D01*
X132521728Y-103134414D01*
X132521729Y-103134409D01*
X132523584Y-103128945D01*
X132524412Y-103123236D01*
X132524413Y-103123231D01*
X132541991Y-103001996D01*
X132552712Y-102928053D01*
X132554232Y-102870000D01*
X132539244Y-102706883D01*
X132536187Y-102673613D01*
X132536186Y-102673610D01*
X132535658Y-102667859D01*
X132531372Y-102652662D01*
X132482125Y-102478046D01*
X132482124Y-102478044D01*
X132480557Y-102472487D01*
X132473811Y-102458806D01*
X132393331Y-102295609D01*
X132390776Y-102290428D01*
X132269320Y-102127779D01*
X132120258Y-101989987D01*
X132115375Y-101986906D01*
X132115371Y-101986903D01*
X131953464Y-101884748D01*
X131948581Y-101881667D01*
X131760039Y-101806446D01*
X131754379Y-101805320D01*
X131754375Y-101805319D01*
X131566613Y-101767971D01*
X131566610Y-101767971D01*
X131560946Y-101766844D01*
X131555171Y-101766768D01*
X131555167Y-101766768D01*
X131453793Y-101765441D01*
X131357971Y-101764187D01*
X131352274Y-101765166D01*
X131352273Y-101765166D01*
X131271049Y-101779123D01*
X131157910Y-101798564D01*
X130967463Y-101868824D01*
X130793010Y-101972612D01*
X130788670Y-101976418D01*
X130788666Y-101976421D01*
X130709677Y-102045693D01*
X130640392Y-102106455D01*
X130514720Y-102265869D01*
X130512031Y-102270980D01*
X130512029Y-102270983D01*
X130476026Y-102339414D01*
X130420203Y-102445515D01*
X130360007Y-102639378D01*
X130336148Y-102840964D01*
X129794000Y-102840964D01*
X129794000Y-100300964D01*
X130336148Y-100300964D01*
X130349424Y-100503522D01*
X130350845Y-100509118D01*
X130350846Y-100509123D01*
X130382705Y-100634565D01*
X130399392Y-100700269D01*
X130401809Y-100705512D01*
X130462887Y-100838000D01*
X130484377Y-100884616D01*
X130487710Y-100889332D01*
X130566617Y-101000983D01*
X130601533Y-101050389D01*
X130746938Y-101192035D01*
X130915720Y-101304812D01*
X130921023Y-101307090D01*
X130921026Y-101307092D01*
X131079355Y-101375115D01*
X131102228Y-101384942D01*
X131159313Y-101397859D01*
X131294579Y-101428467D01*
X131294584Y-101428468D01*
X131300216Y-101429742D01*
X131305987Y-101429969D01*
X131305989Y-101429969D01*
X131365756Y-101432317D01*
X131503053Y-101437712D01*
X131603499Y-101423148D01*
X131698231Y-101409413D01*
X131698236Y-101409412D01*
X131703945Y-101408584D01*
X131709409Y-101406729D01*
X131709414Y-101406728D01*
X131890693Y-101345192D01*
X131890698Y-101345190D01*
X131896165Y-101343334D01*
X132073276Y-101244147D01*
X132080063Y-101238503D01*
X132224913Y-101118031D01*
X132229345Y-101114345D01*
X132290583Y-101040715D01*
X132355453Y-100962718D01*
X132355455Y-100962715D01*
X132359147Y-100958276D01*
X132446688Y-100801960D01*
X132455510Y-100786208D01*
X132455511Y-100786206D01*
X132458334Y-100781165D01*
X132460190Y-100775698D01*
X132460192Y-100775693D01*
X132521728Y-100594414D01*
X132521729Y-100594409D01*
X132523584Y-100588945D01*
X132524412Y-100583236D01*
X132524413Y-100583231D01*
X132547193Y-100426118D01*
X132552712Y-100388053D01*
X132554232Y-100330000D01*
X132541054Y-100186583D01*
X132536187Y-100133613D01*
X132536186Y-100133610D01*
X132535658Y-100127859D01*
X132531372Y-100112662D01*
X132482125Y-99938046D01*
X132482124Y-99938044D01*
X132480557Y-99932487D01*
X132469978Y-99911033D01*
X132393331Y-99755609D01*
X132390776Y-99750428D01*
X132269320Y-99587779D01*
X132120258Y-99449987D01*
X132115375Y-99446906D01*
X132115371Y-99446903D01*
X131953464Y-99344748D01*
X131948581Y-99341667D01*
X131760039Y-99266446D01*
X131754379Y-99265320D01*
X131754375Y-99265319D01*
X131566613Y-99227971D01*
X131566610Y-99227971D01*
X131560946Y-99226844D01*
X131555171Y-99226768D01*
X131555167Y-99226768D01*
X131453793Y-99225441D01*
X131357971Y-99224187D01*
X131352274Y-99225166D01*
X131352273Y-99225166D01*
X131163607Y-99257585D01*
X131157910Y-99258564D01*
X130967463Y-99328824D01*
X130793010Y-99432612D01*
X130788670Y-99436418D01*
X130788666Y-99436421D01*
X130768723Y-99453911D01*
X130640392Y-99566455D01*
X130514720Y-99725869D01*
X130512031Y-99730980D01*
X130512029Y-99730983D01*
X130469970Y-99810925D01*
X130420203Y-99905515D01*
X130360007Y-100099378D01*
X130336148Y-100300964D01*
X129794000Y-100300964D01*
X129794000Y-97760964D01*
X130336148Y-97760964D01*
X130349424Y-97963522D01*
X130350845Y-97969118D01*
X130350846Y-97969123D01*
X130391283Y-98128342D01*
X130399392Y-98160269D01*
X130401809Y-98165512D01*
X130462326Y-98296783D01*
X130484377Y-98344616D01*
X130487710Y-98349332D01*
X130583825Y-98485332D01*
X130601533Y-98510389D01*
X130746938Y-98652035D01*
X130915720Y-98764812D01*
X130921023Y-98767090D01*
X130921026Y-98767092D01*
X131079355Y-98835115D01*
X131102228Y-98844942D01*
X131159313Y-98857859D01*
X131294579Y-98888467D01*
X131294584Y-98888468D01*
X131300216Y-98889742D01*
X131305987Y-98889969D01*
X131305989Y-98889969D01*
X131365756Y-98892317D01*
X131503053Y-98897712D01*
X131603499Y-98883148D01*
X131698231Y-98869413D01*
X131698236Y-98869412D01*
X131703945Y-98868584D01*
X131709409Y-98866729D01*
X131709414Y-98866728D01*
X131890693Y-98805192D01*
X131890698Y-98805190D01*
X131896165Y-98803334D01*
X131920868Y-98789500D01*
X132067960Y-98707124D01*
X132073276Y-98704147D01*
X132093700Y-98687161D01*
X132224913Y-98578031D01*
X132229345Y-98574345D01*
X132286463Y-98505669D01*
X132355453Y-98422718D01*
X132355455Y-98422715D01*
X132359147Y-98418276D01*
X132432855Y-98286661D01*
X132455510Y-98246208D01*
X132455511Y-98246206D01*
X132458334Y-98241165D01*
X132460190Y-98235698D01*
X132460192Y-98235693D01*
X132521728Y-98054414D01*
X132521729Y-98054409D01*
X132523584Y-98048945D01*
X132524412Y-98043236D01*
X132524413Y-98043231D01*
X132548852Y-97874673D01*
X132552712Y-97848053D01*
X132554232Y-97790000D01*
X132541167Y-97647816D01*
X132536187Y-97593613D01*
X132536186Y-97593610D01*
X132535658Y-97587859D01*
X132530337Y-97568992D01*
X132482125Y-97398046D01*
X132482124Y-97398044D01*
X132480557Y-97392487D01*
X132469978Y-97371033D01*
X132393331Y-97215609D01*
X132390776Y-97210428D01*
X132269320Y-97047779D01*
X132120258Y-96909987D01*
X132115375Y-96906906D01*
X132115371Y-96906903D01*
X131953464Y-96804748D01*
X131948581Y-96801667D01*
X131760039Y-96726446D01*
X131754379Y-96725320D01*
X131754375Y-96725319D01*
X131566613Y-96687971D01*
X131566610Y-96687971D01*
X131560946Y-96686844D01*
X131555171Y-96686768D01*
X131555167Y-96686768D01*
X131453793Y-96685441D01*
X131357971Y-96684187D01*
X131352274Y-96685166D01*
X131352273Y-96685166D01*
X131329024Y-96689161D01*
X131157910Y-96718564D01*
X130967463Y-96788824D01*
X130793010Y-96892612D01*
X130788670Y-96896418D01*
X130788666Y-96896421D01*
X130768723Y-96913911D01*
X130640392Y-97026455D01*
X130514720Y-97185869D01*
X130512031Y-97190980D01*
X130512029Y-97190983D01*
X130499073Y-97215609D01*
X130420203Y-97365515D01*
X130360007Y-97559378D01*
X130336148Y-97760964D01*
X129794000Y-97760964D01*
X129794000Y-94374933D01*
X130340500Y-94374933D01*
X130340501Y-96125066D01*
X130355266Y-96199301D01*
X130362161Y-96209620D01*
X130362162Y-96209622D01*
X130402516Y-96270015D01*
X130411516Y-96283484D01*
X130495699Y-96339734D01*
X130569933Y-96354500D01*
X131444858Y-96354500D01*
X132320066Y-96354499D01*
X132355818Y-96347388D01*
X132382126Y-96342156D01*
X132382128Y-96342155D01*
X132394301Y-96339734D01*
X132404621Y-96332839D01*
X132404622Y-96332838D01*
X132468168Y-96290377D01*
X132478484Y-96283484D01*
X132534734Y-96199301D01*
X132549500Y-96125067D01*
X132549499Y-94374934D01*
X132534734Y-94300699D01*
X132499499Y-94247966D01*
X132485377Y-94226832D01*
X132478484Y-94216516D01*
X132394301Y-94160266D01*
X132320067Y-94145500D01*
X131445142Y-94145500D01*
X130569934Y-94145501D01*
X130534182Y-94152612D01*
X130507874Y-94157844D01*
X130507872Y-94157845D01*
X130495699Y-94160266D01*
X130485379Y-94167161D01*
X130485378Y-94167162D01*
X130447073Y-94192757D01*
X130411516Y-94216516D01*
X130355266Y-94300699D01*
X130340500Y-94374933D01*
X129794000Y-94374933D01*
X129794000Y-93382425D01*
X129796421Y-93357844D01*
X129796555Y-93357170D01*
X129798976Y-93345000D01*
X129779263Y-93245894D01*
X129723124Y-93161876D01*
X129639106Y-93105737D01*
X129565017Y-93091000D01*
X129552172Y-93088445D01*
X129540000Y-93086024D01*
X129527153Y-93088579D01*
X129502575Y-93091000D01*
X122300000Y-93091000D01*
X122231879Y-93070998D01*
X122185386Y-93017342D01*
X122174000Y-92965000D01*
X122174000Y-91477425D01*
X122176421Y-91452844D01*
X122176555Y-91452170D01*
X122178976Y-91440000D01*
X123201210Y-91440000D01*
X123220334Y-91658587D01*
X123277124Y-91870532D01*
X123279446Y-91875512D01*
X123279447Y-91875514D01*
X123367530Y-92064408D01*
X123367533Y-92064413D01*
X123369856Y-92069395D01*
X123373012Y-92073902D01*
X123373013Y-92073904D01*
X123451389Y-92185836D01*
X123495711Y-92249135D01*
X123650865Y-92404289D01*
X123655373Y-92407446D01*
X123655376Y-92407448D01*
X123826096Y-92526987D01*
X123830605Y-92530144D01*
X123835587Y-92532467D01*
X123835592Y-92532470D01*
X124024486Y-92620553D01*
X124029468Y-92622876D01*
X124034776Y-92624298D01*
X124034778Y-92624299D01*
X124236098Y-92678242D01*
X124236100Y-92678242D01*
X124241413Y-92679666D01*
X124460000Y-92698790D01*
X124678587Y-92679666D01*
X124683900Y-92678242D01*
X124683902Y-92678242D01*
X124885222Y-92624299D01*
X124885224Y-92624298D01*
X124890532Y-92622876D01*
X124895514Y-92620553D01*
X125084408Y-92532470D01*
X125084413Y-92532467D01*
X125089395Y-92530144D01*
X125093904Y-92526987D01*
X125264624Y-92407448D01*
X125264627Y-92407446D01*
X125269135Y-92404289D01*
X125424289Y-92249135D01*
X125468612Y-92185836D01*
X125546987Y-92073904D01*
X125546988Y-92073902D01*
X125550144Y-92069395D01*
X125552467Y-92064413D01*
X125552470Y-92064408D01*
X125640553Y-91875514D01*
X125640554Y-91875512D01*
X125642876Y-91870532D01*
X125699666Y-91658587D01*
X125718790Y-91440000D01*
X125699666Y-91221413D01*
X125696117Y-91208168D01*
X125644299Y-91014778D01*
X125644298Y-91014776D01*
X125642876Y-91009468D01*
X125640553Y-91004486D01*
X125552470Y-90815592D01*
X125552467Y-90815587D01*
X125550144Y-90810605D01*
X125546987Y-90806096D01*
X125427448Y-90635376D01*
X125427446Y-90635373D01*
X125424289Y-90630865D01*
X125269135Y-90475711D01*
X125264627Y-90472554D01*
X125264624Y-90472552D01*
X125093904Y-90353013D01*
X125093902Y-90353012D01*
X125089395Y-90349856D01*
X125084413Y-90347533D01*
X125084408Y-90347530D01*
X124895514Y-90259447D01*
X124895512Y-90259446D01*
X124890532Y-90257124D01*
X124885224Y-90255702D01*
X124885222Y-90255701D01*
X124683902Y-90201758D01*
X124683900Y-90201758D01*
X124678587Y-90200334D01*
X124460000Y-90181210D01*
X124241413Y-90200334D01*
X124236100Y-90201758D01*
X124236098Y-90201758D01*
X124034778Y-90255701D01*
X124034776Y-90255702D01*
X124029468Y-90257124D01*
X124024488Y-90259446D01*
X124024486Y-90259447D01*
X123835592Y-90347530D01*
X123835587Y-90347533D01*
X123830605Y-90349856D01*
X123826098Y-90353012D01*
X123826096Y-90353013D01*
X123655376Y-90472552D01*
X123655373Y-90472554D01*
X123650865Y-90475711D01*
X123495711Y-90630865D01*
X123492554Y-90635373D01*
X123492552Y-90635376D01*
X123373013Y-90806096D01*
X123369856Y-90810605D01*
X123367533Y-90815587D01*
X123367530Y-90815592D01*
X123279447Y-91004486D01*
X123277124Y-91009468D01*
X123275702Y-91014776D01*
X123275701Y-91014778D01*
X123223883Y-91208168D01*
X123220334Y-91221413D01*
X123202121Y-91429584D01*
X123201210Y-91440000D01*
X122178976Y-91440000D01*
X122176555Y-91427830D01*
X122176555Y-91415417D01*
X122176880Y-91415417D01*
X122176142Y-91404578D01*
X122176312Y-91401778D01*
X122189014Y-91191800D01*
X122190208Y-91172060D01*
X122192042Y-91156956D01*
X122239053Y-90900423D01*
X122242694Y-90885650D01*
X122267484Y-90806096D01*
X122320288Y-90636642D01*
X122325682Y-90622420D01*
X122362656Y-90540269D01*
X122432720Y-90384594D01*
X122439789Y-90371124D01*
X122574717Y-90147926D01*
X122583360Y-90135404D01*
X122744209Y-89930096D01*
X122754299Y-89918708D01*
X122938708Y-89734299D01*
X122950096Y-89724209D01*
X123155404Y-89563360D01*
X123167926Y-89554717D01*
X123391124Y-89419789D01*
X123404594Y-89412720D01*
X123642424Y-89305680D01*
X123656642Y-89300288D01*
X123905650Y-89222694D01*
X123920423Y-89219053D01*
X124176956Y-89172042D01*
X124192060Y-89170208D01*
X124268875Y-89165561D01*
X124424581Y-89156142D01*
X124435417Y-89156880D01*
X124435417Y-89156555D01*
X124447830Y-89156555D01*
X124460000Y-89158976D01*
X124472847Y-89156421D01*
X124497425Y-89154000D01*
X127050971Y-89154000D01*
X127119092Y-89174002D01*
G37*
%TD.AperFunction*%
%TA.AperFunction,Conductor*%
G36*
X138105496Y-98303403D02*
G01*
X138090964Y-98302166D01*
X138061989Y-98298000D01*
X138125920Y-98298000D01*
X138105496Y-98303403D01*
G37*
%TD.AperFunction*%
%TD*%
M02*
