%TF.GenerationSoftware,KiCad,Pcbnew,(6.0.0-0)*%
%TF.CreationDate,2023-05-28T12:29:55+10:00*%
%TF.ProjectId,motor-driver,6d6f746f-722d-4647-9269-7665722e6b69,v1.0.0*%
%TF.SameCoordinates,Original*%
%TF.FileFunction,Soldermask,Bot*%
%TF.FilePolarity,Negative*%
%FSLAX46Y46*%
G04 Gerber Fmt 4.6, Leading zero omitted, Abs format (unit mm)*
G04 Created by KiCad (PCBNEW (6.0.0-0)) date 2023-05-28 12:29:55*
%MOMM*%
%LPD*%
G01*
G04 APERTURE LIST*
G04 Aperture macros list*
%AMFreePoly0*
4,1,22,0.500000,-0.750000,0.000000,-0.750000,0.000000,-0.745033,-0.079941,-0.743568,-0.215256,-0.701293,-0.333266,-0.622738,-0.424486,-0.514219,-0.481581,-0.384460,-0.499164,-0.250000,-0.500000,-0.250000,-0.500000,0.250000,-0.499164,0.250000,-0.499963,0.256109,-0.478152,0.396186,-0.417904,0.524511,-0.324060,0.630769,-0.204165,0.706417,-0.067858,0.745374,0.000000,0.744959,0.000000,0.750000,
0.500000,0.750000,0.500000,-0.750000,0.500000,-0.750000,$1*%
%AMFreePoly1*
4,1,20,0.000000,0.744959,0.073905,0.744508,0.209726,0.703889,0.328688,0.626782,0.421226,0.519385,0.479903,0.390333,0.500000,0.250000,0.500000,-0.250000,0.499851,-0.262216,0.476331,-0.402017,0.414519,-0.529596,0.319384,-0.634700,0.198574,-0.708877,0.061801,-0.746166,0.000000,-0.745033,0.000000,-0.750000,-0.500000,-0.750000,-0.500000,0.750000,0.000000,0.750000,0.000000,0.744959,
0.000000,0.744959,$1*%
G04 Aperture macros list end*
%ADD10R,1.700000X1.700000*%
%ADD11O,1.700000X1.700000*%
%ADD12FreePoly0,270.000000*%
%ADD13FreePoly1,270.000000*%
G04 APERTURE END LIST*
D10*
%TO.C,J2*%
X160655000Y-96520000D03*
D11*
X160655000Y-99060000D03*
X160655000Y-101600000D03*
%TD*%
D10*
%TO.C,J3*%
X131445000Y-95250000D03*
D11*
X131445000Y-97790000D03*
X131445000Y-100330000D03*
X131445000Y-102870000D03*
%TD*%
D12*
%TO.C,JP2*%
X145288000Y-98410000D03*
D13*
X145288000Y-99710000D03*
%TD*%
D10*
%TO.C,J4*%
X128280000Y-90170000D03*
D11*
X130820000Y-90170000D03*
X133360000Y-90170000D03*
X135900000Y-90170000D03*
X138440000Y-90170000D03*
X140980000Y-90170000D03*
X143520000Y-90170000D03*
X146060000Y-90170000D03*
X148600000Y-90170000D03*
X151140000Y-90170000D03*
X153680000Y-90170000D03*
X156220000Y-90170000D03*
X158760000Y-90170000D03*
X161300000Y-90170000D03*
%TD*%
D10*
%TO.C,J1*%
X128280000Y-107950000D03*
D11*
X130820000Y-107950000D03*
X133360000Y-107950000D03*
X135900000Y-107950000D03*
X138440000Y-107950000D03*
X140980000Y-107950000D03*
X143520000Y-107950000D03*
X146060000Y-107950000D03*
X148600000Y-107950000D03*
X151140000Y-107950000D03*
X153680000Y-107950000D03*
X156220000Y-107950000D03*
X158760000Y-107950000D03*
X161300000Y-107950000D03*
%TD*%
D12*
%TO.C,JP3*%
X142748000Y-98410000D03*
D13*
X142748000Y-99710000D03*
%TD*%
D12*
%TO.C,JP1*%
X139700000Y-94092000D03*
D13*
X139700000Y-95392000D03*
%TD*%
M02*
