%FSLAX45Y45*%
G04 Gerber Fmt 4.5, Leading zero omitted, Abs format (unit mm)*
G04 Created by KiCad (PCBNEW (6.0.0-0)) date 2023-05-28 12:30:23*
%MOMM*%
%LPD*%
G01*
G04 APERTURE LIST*
%TA.AperFunction,Profile*%
%ADD10C,0.100000*%
%TD*%
%ADD11C,0.200000*%
%ADD12C,0.030000*%
%ADD13C,0.040000*%
%ADD14C,0.100000*%
G04 APERTURE END LIST*
D10*
X12954000Y-10477500D02*
X12954000Y-9334500D01*
X16610000Y-10668000D02*
G75*
G03*
X16610000Y-10668000I-100000J0D01*
G01*
X16256000Y-9525000D02*
X16764000Y-9525000D01*
X12446000Y-8890000D02*
X16510000Y-8890000D01*
X12446000Y-8890000D02*
G75*
G03*
X12192000Y-9144000I0J-254000D01*
G01*
X12192000Y-10477500D02*
X12954000Y-10477500D01*
X16764000Y-9144000D02*
G75*
G03*
X16510000Y-8890000I-254000J0D01*
G01*
X16256000Y-10287000D02*
X16256000Y-9525000D01*
X12192000Y-10668000D02*
G75*
G03*
X12446000Y-10922000I254000J0D01*
G01*
X16610000Y-9144000D02*
G75*
G03*
X16610000Y-9144000I-100000J0D01*
G01*
X16764000Y-9525000D02*
X16764000Y-9144000D01*
X16764000Y-10287000D02*
X16256000Y-10287000D01*
X12192000Y-10477500D02*
X12192000Y-10668000D01*
X16764000Y-10668000D02*
X16764000Y-10287000D01*
X12192000Y-9334500D02*
X12192000Y-9144000D01*
X16510000Y-10922000D02*
X12446000Y-10922000D01*
X16510000Y-10922000D02*
G75*
G03*
X16764000Y-10668000I0J254000D01*
G01*
X12546000Y-10668000D02*
G75*
G03*
X12546000Y-10668000I-100000J0D01*
G01*
X12954000Y-9334500D02*
X12192000Y-9334500D01*
X12546000Y-9144000D02*
G75*
G03*
X12546000Y-9144000I-100000J0D01*
G01*
D11*
D12*
X13218400Y-9179800D02*
X13248400Y-9209800D01*
X13248400Y-9179800D02*
X13218400Y-9209800D01*
X13370800Y-9332200D02*
X13400800Y-9362200D01*
X13400800Y-9332200D02*
X13370800Y-9362200D01*
X13370800Y-9433800D02*
X13400800Y-9463800D01*
X13400800Y-9433800D02*
X13370800Y-9463800D01*
X13408900Y-9179800D02*
X13438900Y-9209800D01*
X13438900Y-9179800D02*
X13408900Y-9209800D01*
X13472400Y-9332200D02*
X13502400Y-9362200D01*
X13502400Y-9332200D02*
X13472400Y-9362200D01*
X13472400Y-9433800D02*
X13502400Y-9463800D01*
X13502400Y-9433800D02*
X13472400Y-9463800D01*
X13599400Y-9179800D02*
X13629400Y-9209800D01*
X13629400Y-9179800D02*
X13599400Y-9209800D01*
X13701000Y-9560800D02*
X13731000Y-9590800D01*
X13731000Y-9560800D02*
X13701000Y-9590800D01*
X13701000Y-9662400D02*
X13731000Y-9692400D01*
X13731000Y-9662400D02*
X13701000Y-9692400D01*
X13701000Y-9764000D02*
X13731000Y-9794000D01*
X13731000Y-9764000D02*
X13701000Y-9794000D01*
X13777200Y-9179800D02*
X13807200Y-9209800D01*
X13807200Y-9179800D02*
X13777200Y-9209800D01*
X13802600Y-10043400D02*
X13832600Y-10073400D01*
X13832600Y-10043400D02*
X13802600Y-10073400D01*
X13802600Y-10145000D02*
X13832600Y-10175000D01*
X13832600Y-10145000D02*
X13802600Y-10175000D01*
X13878517Y-9424272D02*
X13908517Y-9454272D01*
X13908517Y-9424272D02*
X13878517Y-9454272D01*
X13878800Y-9560800D02*
X13908800Y-9590800D01*
X13908800Y-9560800D02*
X13878800Y-9590800D01*
X13904200Y-9853716D02*
X13934200Y-9883716D01*
X13934200Y-9853716D02*
X13904200Y-9883716D01*
X13904200Y-10043400D02*
X13934200Y-10073400D01*
X13934200Y-10043400D02*
X13904200Y-10073400D01*
X13904200Y-10145000D02*
X13934200Y-10175000D01*
X13934200Y-10145000D02*
X13904200Y-10175000D01*
X13964741Y-9701849D02*
X13994741Y-9731849D01*
X13994741Y-9701849D02*
X13964741Y-9731849D01*
X14060450Y-10475200D02*
X14090450Y-10505200D01*
X14090450Y-10475200D02*
X14060450Y-10505200D01*
X14107273Y-9730648D02*
X14137273Y-9760648D01*
X14137273Y-9730648D02*
X14107273Y-9760648D01*
X14132800Y-10145000D02*
X14162800Y-10175000D01*
X14162800Y-10145000D02*
X14132800Y-10175000D01*
X14145500Y-9256000D02*
X14175500Y-9286000D01*
X14175500Y-9256000D02*
X14145500Y-9286000D01*
X14145500Y-9446500D02*
X14175500Y-9476500D01*
X14175500Y-9446500D02*
X14145500Y-9476500D01*
X14285200Y-10068800D02*
X14315200Y-10098800D01*
X14315200Y-10068800D02*
X14285200Y-10098800D01*
X14336000Y-9256000D02*
X14366000Y-9286000D01*
X14366000Y-9256000D02*
X14336000Y-9286000D01*
X14336000Y-9446500D02*
X14366000Y-9476500D01*
X14366000Y-9446500D02*
X14336000Y-9476500D01*
X14437600Y-10068800D02*
X14467600Y-10098800D01*
X14467600Y-10068800D02*
X14437600Y-10098800D01*
X14526500Y-9256000D02*
X14556500Y-9286000D01*
X14556500Y-9256000D02*
X14526500Y-9286000D01*
X14526500Y-9446500D02*
X14556500Y-9476500D01*
X14556500Y-9446500D02*
X14526500Y-9476500D01*
X14590000Y-10068800D02*
X14620000Y-10098800D01*
X14620000Y-10068800D02*
X14590000Y-10098800D01*
X14669109Y-9938891D02*
X14699109Y-9968891D01*
X14699109Y-9938891D02*
X14669109Y-9968891D01*
D13*
X13532800Y-10109200D02*
G75*
G03*
X13532800Y-10109200I-20000J0D01*
G01*
X13532800Y-10236200D02*
G75*
G03*
X13532800Y-10236200I-20000J0D01*
G01*
X13532800Y-10363200D02*
G75*
G03*
X13532800Y-10363200I-20000J0D01*
G01*
X13532800Y-10490200D02*
G75*
G03*
X13532800Y-10490200I-20000J0D01*
G01*
X15082200Y-10083800D02*
G75*
G03*
X15082200Y-10083800I-20000J0D01*
G01*
X15615600Y-10083800D02*
G75*
G03*
X15615600Y-10083800I-20000J0D01*
G01*
D14*
X12828000Y-8967000D02*
X12828000Y-9067000D01*
X12778000Y-9017000D02*
X12878000Y-9017000D01*
X12828000Y-10745000D02*
X12828000Y-10845000D01*
X12778000Y-10795000D02*
X12878000Y-10795000D01*
X13082000Y-8967000D02*
X13082000Y-9067000D01*
X13032000Y-9017000D02*
X13132000Y-9017000D01*
X13082000Y-10745000D02*
X13082000Y-10845000D01*
X13032000Y-10795000D02*
X13132000Y-10795000D01*
X13144500Y-9475000D02*
X13144500Y-9575000D01*
X13094500Y-9525000D02*
X13194500Y-9525000D01*
X13144500Y-9729000D02*
X13144500Y-9829000D01*
X13094500Y-9779000D02*
X13194500Y-9779000D01*
X13144500Y-9983000D02*
X13144500Y-10083000D01*
X13094500Y-10033000D02*
X13194500Y-10033000D01*
X13144500Y-10237000D02*
X13144500Y-10337000D01*
X13094500Y-10287000D02*
X13194500Y-10287000D01*
X13336000Y-8967000D02*
X13336000Y-9067000D01*
X13286000Y-9017000D02*
X13386000Y-9017000D01*
X13336000Y-10745000D02*
X13336000Y-10845000D01*
X13286000Y-10795000D02*
X13386000Y-10795000D01*
X13590000Y-8967000D02*
X13590000Y-9067000D01*
X13540000Y-9017000D02*
X13640000Y-9017000D01*
X13590000Y-10745000D02*
X13590000Y-10845000D01*
X13540000Y-10795000D02*
X13640000Y-10795000D01*
X13844000Y-8967000D02*
X13844000Y-9067000D01*
X13794000Y-9017000D02*
X13894000Y-9017000D01*
X13844000Y-10745000D02*
X13844000Y-10845000D01*
X13794000Y-10795000D02*
X13894000Y-10795000D01*
X14098000Y-8967000D02*
X14098000Y-9067000D01*
X14048000Y-9017000D02*
X14148000Y-9017000D01*
X14098000Y-10745000D02*
X14098000Y-10845000D01*
X14048000Y-10795000D02*
X14148000Y-10795000D01*
X14352000Y-8967000D02*
X14352000Y-9067000D01*
X14302000Y-9017000D02*
X14402000Y-9017000D01*
X14352000Y-10745000D02*
X14352000Y-10845000D01*
X14302000Y-10795000D02*
X14402000Y-10795000D01*
X14606000Y-8967000D02*
X14606000Y-9067000D01*
X14556000Y-9017000D02*
X14656000Y-9017000D01*
X14606000Y-10745000D02*
X14606000Y-10845000D01*
X14556000Y-10795000D02*
X14656000Y-10795000D01*
X14860000Y-8967000D02*
X14860000Y-9067000D01*
X14810000Y-9017000D02*
X14910000Y-9017000D01*
X14860000Y-10745000D02*
X14860000Y-10845000D01*
X14810000Y-10795000D02*
X14910000Y-10795000D01*
X15114000Y-8967000D02*
X15114000Y-9067000D01*
X15064000Y-9017000D02*
X15164000Y-9017000D01*
X15114000Y-10745000D02*
X15114000Y-10845000D01*
X15064000Y-10795000D02*
X15164000Y-10795000D01*
X15368000Y-8967000D02*
X15368000Y-9067000D01*
X15318000Y-9017000D02*
X15418000Y-9017000D01*
X15368000Y-10745000D02*
X15368000Y-10845000D01*
X15318000Y-10795000D02*
X15418000Y-10795000D01*
X15622000Y-8967000D02*
X15622000Y-9067000D01*
X15572000Y-9017000D02*
X15672000Y-9017000D01*
X15622000Y-10745000D02*
X15622000Y-10845000D01*
X15572000Y-10795000D02*
X15672000Y-10795000D01*
X15876000Y-8967000D02*
X15876000Y-9067000D01*
X15826000Y-9017000D02*
X15926000Y-9017000D01*
X15876000Y-10745000D02*
X15876000Y-10845000D01*
X15826000Y-10795000D02*
X15926000Y-10795000D01*
X16065500Y-9602000D02*
X16065500Y-9702000D01*
X16015500Y-9652000D02*
X16115500Y-9652000D01*
X16065500Y-9856000D02*
X16065500Y-9956000D01*
X16015500Y-9906000D02*
X16115500Y-9906000D01*
X16065500Y-10110000D02*
X16065500Y-10210000D01*
X16015500Y-10160000D02*
X16115500Y-10160000D01*
X16130000Y-8967000D02*
X16130000Y-9067000D01*
X16080000Y-9017000D02*
X16180000Y-9017000D01*
X16130000Y-10745000D02*
X16130000Y-10845000D01*
X16080000Y-10795000D02*
X16180000Y-10795000D01*
D11*
X12444619Y-11237476D02*
X12444619Y-11037476D01*
X12492238Y-11037476D01*
X12520809Y-11047000D01*
X12539857Y-11066048D01*
X12549381Y-11085095D01*
X12558905Y-11123190D01*
X12558905Y-11151762D01*
X12549381Y-11189857D01*
X12539857Y-11208905D01*
X12520809Y-11227952D01*
X12492238Y-11237476D01*
X12444619Y-11237476D01*
X12644619Y-11237476D02*
X12644619Y-11104143D01*
X12644619Y-11142238D02*
X12654143Y-11123190D01*
X12663667Y-11113667D01*
X12682714Y-11104143D01*
X12701762Y-11104143D01*
X12768428Y-11237476D02*
X12768428Y-11104143D01*
X12768428Y-11037476D02*
X12758905Y-11047000D01*
X12768428Y-11056524D01*
X12777952Y-11047000D01*
X12768428Y-11037476D01*
X12768428Y-11056524D01*
X12892238Y-11237476D02*
X12873190Y-11227952D01*
X12863667Y-11208905D01*
X12863667Y-11037476D01*
X12997000Y-11237476D02*
X12977952Y-11227952D01*
X12968428Y-11208905D01*
X12968428Y-11037476D01*
X13225571Y-11237476D02*
X13225571Y-11037476D01*
X13292238Y-11180333D01*
X13358905Y-11037476D01*
X13358905Y-11237476D01*
X13539857Y-11237476D02*
X13539857Y-11132714D01*
X13530333Y-11113667D01*
X13511286Y-11104143D01*
X13473190Y-11104143D01*
X13454143Y-11113667D01*
X13539857Y-11227952D02*
X13520809Y-11237476D01*
X13473190Y-11237476D01*
X13454143Y-11227952D01*
X13444619Y-11208905D01*
X13444619Y-11189857D01*
X13454143Y-11170810D01*
X13473190Y-11161286D01*
X13520809Y-11161286D01*
X13539857Y-11151762D01*
X13635095Y-11104143D02*
X13635095Y-11304143D01*
X13635095Y-11113667D02*
X13654143Y-11104143D01*
X13692238Y-11104143D01*
X13711286Y-11113667D01*
X13720809Y-11123190D01*
X13730333Y-11142238D01*
X13730333Y-11199381D01*
X13720809Y-11218428D01*
X13711286Y-11227952D01*
X13692238Y-11237476D01*
X13654143Y-11237476D01*
X13635095Y-11227952D01*
X13816048Y-11218428D02*
X13825571Y-11227952D01*
X13816048Y-11237476D01*
X13806524Y-11227952D01*
X13816048Y-11218428D01*
X13816048Y-11237476D01*
X13816048Y-11113667D02*
X13825571Y-11123190D01*
X13816048Y-11132714D01*
X13806524Y-11123190D01*
X13816048Y-11113667D01*
X13816048Y-11132714D01*
D12*
X12157000Y-11552000D02*
X12187000Y-11582000D01*
X12187000Y-11552000D02*
X12157000Y-11582000D01*
D11*
X12482714Y-11457476D02*
X12501762Y-11457476D01*
X12520809Y-11467000D01*
X12530333Y-11476524D01*
X12539857Y-11495571D01*
X12549381Y-11533667D01*
X12549381Y-11581286D01*
X12539857Y-11619381D01*
X12530333Y-11638428D01*
X12520809Y-11647952D01*
X12501762Y-11657476D01*
X12482714Y-11657476D01*
X12463667Y-11647952D01*
X12454143Y-11638428D01*
X12444619Y-11619381D01*
X12435095Y-11581286D01*
X12435095Y-11533667D01*
X12444619Y-11495571D01*
X12454143Y-11476524D01*
X12463667Y-11467000D01*
X12482714Y-11457476D01*
X12635095Y-11638428D02*
X12644619Y-11647952D01*
X12635095Y-11657476D01*
X12625571Y-11647952D01*
X12635095Y-11638428D01*
X12635095Y-11657476D01*
X12711286Y-11457476D02*
X12835095Y-11457476D01*
X12768428Y-11533667D01*
X12797000Y-11533667D01*
X12816048Y-11543190D01*
X12825571Y-11552714D01*
X12835095Y-11571762D01*
X12835095Y-11619381D01*
X12825571Y-11638428D01*
X12816048Y-11647952D01*
X12797000Y-11657476D01*
X12739857Y-11657476D01*
X12720809Y-11647952D01*
X12711286Y-11638428D01*
X12958905Y-11457476D02*
X12977952Y-11457476D01*
X12997000Y-11467000D01*
X13006524Y-11476524D01*
X13016048Y-11495571D01*
X13025571Y-11533667D01*
X13025571Y-11581286D01*
X13016048Y-11619381D01*
X13006524Y-11638428D01*
X12997000Y-11647952D01*
X12977952Y-11657476D01*
X12958905Y-11657476D01*
X12939857Y-11647952D01*
X12930333Y-11638428D01*
X12920809Y-11619381D01*
X12911286Y-11581286D01*
X12911286Y-11533667D01*
X12920809Y-11495571D01*
X12930333Y-11476524D01*
X12939857Y-11467000D01*
X12958905Y-11457476D01*
X13149381Y-11457476D02*
X13168428Y-11457476D01*
X13187476Y-11467000D01*
X13197000Y-11476524D01*
X13206524Y-11495571D01*
X13216048Y-11533667D01*
X13216048Y-11581286D01*
X13206524Y-11619381D01*
X13197000Y-11638428D01*
X13187476Y-11647952D01*
X13168428Y-11657476D01*
X13149381Y-11657476D01*
X13130333Y-11647952D01*
X13120809Y-11638428D01*
X13111286Y-11619381D01*
X13101762Y-11581286D01*
X13101762Y-11533667D01*
X13111286Y-11495571D01*
X13120809Y-11476524D01*
X13130333Y-11467000D01*
X13149381Y-11457476D01*
X13301762Y-11657476D02*
X13301762Y-11524143D01*
X13301762Y-11543190D02*
X13311286Y-11533667D01*
X13330333Y-11524143D01*
X13358905Y-11524143D01*
X13377952Y-11533667D01*
X13387476Y-11552714D01*
X13387476Y-11657476D01*
X13387476Y-11552714D02*
X13397000Y-11533667D01*
X13416048Y-11524143D01*
X13444619Y-11524143D01*
X13463667Y-11533667D01*
X13473190Y-11552714D01*
X13473190Y-11657476D01*
X13568428Y-11657476D02*
X13568428Y-11524143D01*
X13568428Y-11543190D02*
X13577952Y-11533667D01*
X13597000Y-11524143D01*
X13625571Y-11524143D01*
X13644619Y-11533667D01*
X13654143Y-11552714D01*
X13654143Y-11657476D01*
X13654143Y-11552714D02*
X13663667Y-11533667D01*
X13682714Y-11524143D01*
X13711286Y-11524143D01*
X13730333Y-11533667D01*
X13739857Y-11552714D01*
X13739857Y-11657476D01*
X14130333Y-11447952D02*
X13958905Y-11705095D01*
X14387476Y-11457476D02*
X14406524Y-11457476D01*
X14425571Y-11467000D01*
X14435095Y-11476524D01*
X14444619Y-11495571D01*
X14454143Y-11533667D01*
X14454143Y-11581286D01*
X14444619Y-11619381D01*
X14435095Y-11638428D01*
X14425571Y-11647952D01*
X14406524Y-11657476D01*
X14387476Y-11657476D01*
X14368428Y-11647952D01*
X14358905Y-11638428D01*
X14349381Y-11619381D01*
X14339857Y-11581286D01*
X14339857Y-11533667D01*
X14349381Y-11495571D01*
X14358905Y-11476524D01*
X14368428Y-11467000D01*
X14387476Y-11457476D01*
X14539857Y-11638428D02*
X14549381Y-11647952D01*
X14539857Y-11657476D01*
X14530333Y-11647952D01*
X14539857Y-11638428D01*
X14539857Y-11657476D01*
X14673190Y-11457476D02*
X14692238Y-11457476D01*
X14711286Y-11467000D01*
X14720809Y-11476524D01*
X14730333Y-11495571D01*
X14739857Y-11533667D01*
X14739857Y-11581286D01*
X14730333Y-11619381D01*
X14720809Y-11638428D01*
X14711286Y-11647952D01*
X14692238Y-11657476D01*
X14673190Y-11657476D01*
X14654143Y-11647952D01*
X14644619Y-11638428D01*
X14635095Y-11619381D01*
X14625571Y-11581286D01*
X14625571Y-11533667D01*
X14635095Y-11495571D01*
X14644619Y-11476524D01*
X14654143Y-11467000D01*
X14673190Y-11457476D01*
X14930333Y-11657476D02*
X14816048Y-11657476D01*
X14873190Y-11657476D02*
X14873190Y-11457476D01*
X14854143Y-11486048D01*
X14835095Y-11505095D01*
X14816048Y-11514619D01*
X15120809Y-11657476D02*
X15006524Y-11657476D01*
X15063667Y-11657476D02*
X15063667Y-11457476D01*
X15044619Y-11486048D01*
X15025571Y-11505095D01*
X15006524Y-11514619D01*
X15235095Y-11543190D02*
X15216048Y-11533667D01*
X15206524Y-11524143D01*
X15197000Y-11505095D01*
X15197000Y-11495571D01*
X15206524Y-11476524D01*
X15216048Y-11467000D01*
X15235095Y-11457476D01*
X15273190Y-11457476D01*
X15292238Y-11467000D01*
X15301762Y-11476524D01*
X15311286Y-11495571D01*
X15311286Y-11505095D01*
X15301762Y-11524143D01*
X15292238Y-11533667D01*
X15273190Y-11543190D01*
X15235095Y-11543190D01*
X15216048Y-11552714D01*
X15206524Y-11562238D01*
X15197000Y-11581286D01*
X15197000Y-11619381D01*
X15206524Y-11638428D01*
X15216048Y-11647952D01*
X15235095Y-11657476D01*
X15273190Y-11657476D01*
X15292238Y-11647952D01*
X15301762Y-11638428D01*
X15311286Y-11619381D01*
X15311286Y-11581286D01*
X15301762Y-11562238D01*
X15292238Y-11552714D01*
X15273190Y-11543190D01*
X15387476Y-11457476D02*
X15387476Y-11495571D01*
X15463667Y-11457476D02*
X15463667Y-11495571D01*
X15758905Y-11733667D02*
X15749381Y-11724143D01*
X15730333Y-11695571D01*
X15720809Y-11676524D01*
X15711286Y-11647952D01*
X15701762Y-11600333D01*
X15701762Y-11562238D01*
X15711286Y-11514619D01*
X15720809Y-11486048D01*
X15730333Y-11467000D01*
X15749381Y-11438428D01*
X15758905Y-11428905D01*
X15816048Y-11457476D02*
X15939857Y-11457476D01*
X15873190Y-11533667D01*
X15901762Y-11533667D01*
X15920809Y-11543190D01*
X15930333Y-11552714D01*
X15939857Y-11571762D01*
X15939857Y-11619381D01*
X15930333Y-11638428D01*
X15920809Y-11647952D01*
X15901762Y-11657476D01*
X15844619Y-11657476D01*
X15825571Y-11647952D01*
X15816048Y-11638428D01*
X16016048Y-11476524D02*
X16025571Y-11467000D01*
X16044619Y-11457476D01*
X16092238Y-11457476D01*
X16111286Y-11467000D01*
X16120809Y-11476524D01*
X16130333Y-11495571D01*
X16130333Y-11514619D01*
X16120809Y-11543190D01*
X16006524Y-11657476D01*
X16130333Y-11657476D01*
X16368428Y-11657476D02*
X16368428Y-11457476D01*
X16454143Y-11657476D02*
X16454143Y-11552714D01*
X16444619Y-11533667D01*
X16425571Y-11524143D01*
X16397000Y-11524143D01*
X16377952Y-11533667D01*
X16368428Y-11543190D01*
X16577952Y-11657476D02*
X16558905Y-11647952D01*
X16549381Y-11638428D01*
X16539857Y-11619381D01*
X16539857Y-11562238D01*
X16549381Y-11543190D01*
X16558905Y-11533667D01*
X16577952Y-11524143D01*
X16606524Y-11524143D01*
X16625571Y-11533667D01*
X16635095Y-11543190D01*
X16644619Y-11562238D01*
X16644619Y-11619381D01*
X16635095Y-11638428D01*
X16625571Y-11647952D01*
X16606524Y-11657476D01*
X16577952Y-11657476D01*
X16758905Y-11657476D02*
X16739857Y-11647952D01*
X16730333Y-11628905D01*
X16730333Y-11457476D01*
X16911286Y-11647952D02*
X16892238Y-11657476D01*
X16854143Y-11657476D01*
X16835095Y-11647952D01*
X16825571Y-11628905D01*
X16825571Y-11552714D01*
X16835095Y-11533667D01*
X16854143Y-11524143D01*
X16892238Y-11524143D01*
X16911286Y-11533667D01*
X16920810Y-11552714D01*
X16920810Y-11571762D01*
X16825571Y-11590809D01*
X16997000Y-11647952D02*
X17016048Y-11657476D01*
X17054143Y-11657476D01*
X17073190Y-11647952D01*
X17082714Y-11628905D01*
X17082714Y-11619381D01*
X17073190Y-11600333D01*
X17054143Y-11590809D01*
X17025571Y-11590809D01*
X17006524Y-11581286D01*
X16997000Y-11562238D01*
X16997000Y-11552714D01*
X17006524Y-11533667D01*
X17025571Y-11524143D01*
X17054143Y-11524143D01*
X17073190Y-11533667D01*
X17149381Y-11733667D02*
X17158905Y-11724143D01*
X17177952Y-11695571D01*
X17187476Y-11676524D01*
X17197000Y-11647952D01*
X17206524Y-11600333D01*
X17206524Y-11562238D01*
X17197000Y-11514619D01*
X17187476Y-11486048D01*
X17177952Y-11467000D01*
X17158905Y-11438428D01*
X17149381Y-11428905D01*
D13*
X12187000Y-11831000D02*
G75*
G03*
X12187000Y-11831000I-20000J0D01*
G01*
D11*
X12482714Y-11721476D02*
X12501762Y-11721476D01*
X12520809Y-11731000D01*
X12530333Y-11740524D01*
X12539857Y-11759571D01*
X12549381Y-11797667D01*
X12549381Y-11845286D01*
X12539857Y-11883381D01*
X12530333Y-11902428D01*
X12520809Y-11911952D01*
X12501762Y-11921476D01*
X12482714Y-11921476D01*
X12463667Y-11911952D01*
X12454143Y-11902428D01*
X12444619Y-11883381D01*
X12435095Y-11845286D01*
X12435095Y-11797667D01*
X12444619Y-11759571D01*
X12454143Y-11740524D01*
X12463667Y-11731000D01*
X12482714Y-11721476D01*
X12635095Y-11902428D02*
X12644619Y-11911952D01*
X12635095Y-11921476D01*
X12625571Y-11911952D01*
X12635095Y-11902428D01*
X12635095Y-11921476D01*
X12816048Y-11788143D02*
X12816048Y-11921476D01*
X12768428Y-11711952D02*
X12720809Y-11854809D01*
X12844619Y-11854809D01*
X12958905Y-11721476D02*
X12977952Y-11721476D01*
X12997000Y-11731000D01*
X13006524Y-11740524D01*
X13016048Y-11759571D01*
X13025571Y-11797667D01*
X13025571Y-11845286D01*
X13016048Y-11883381D01*
X13006524Y-11902428D01*
X12997000Y-11911952D01*
X12977952Y-11921476D01*
X12958905Y-11921476D01*
X12939857Y-11911952D01*
X12930333Y-11902428D01*
X12920809Y-11883381D01*
X12911286Y-11845286D01*
X12911286Y-11797667D01*
X12920809Y-11759571D01*
X12930333Y-11740524D01*
X12939857Y-11731000D01*
X12958905Y-11721476D01*
X13149381Y-11721476D02*
X13168428Y-11721476D01*
X13187476Y-11731000D01*
X13197000Y-11740524D01*
X13206524Y-11759571D01*
X13216048Y-11797667D01*
X13216048Y-11845286D01*
X13206524Y-11883381D01*
X13197000Y-11902428D01*
X13187476Y-11911952D01*
X13168428Y-11921476D01*
X13149381Y-11921476D01*
X13130333Y-11911952D01*
X13120809Y-11902428D01*
X13111286Y-11883381D01*
X13101762Y-11845286D01*
X13101762Y-11797667D01*
X13111286Y-11759571D01*
X13120809Y-11740524D01*
X13130333Y-11731000D01*
X13149381Y-11721476D01*
X13301762Y-11921476D02*
X13301762Y-11788143D01*
X13301762Y-11807190D02*
X13311286Y-11797667D01*
X13330333Y-11788143D01*
X13358905Y-11788143D01*
X13377952Y-11797667D01*
X13387476Y-11816714D01*
X13387476Y-11921476D01*
X13387476Y-11816714D02*
X13397000Y-11797667D01*
X13416048Y-11788143D01*
X13444619Y-11788143D01*
X13463667Y-11797667D01*
X13473190Y-11816714D01*
X13473190Y-11921476D01*
X13568428Y-11921476D02*
X13568428Y-11788143D01*
X13568428Y-11807190D02*
X13577952Y-11797667D01*
X13597000Y-11788143D01*
X13625571Y-11788143D01*
X13644619Y-11797667D01*
X13654143Y-11816714D01*
X13654143Y-11921476D01*
X13654143Y-11816714D02*
X13663667Y-11797667D01*
X13682714Y-11788143D01*
X13711286Y-11788143D01*
X13730333Y-11797667D01*
X13739857Y-11816714D01*
X13739857Y-11921476D01*
X14130333Y-11711952D02*
X13958905Y-11969095D01*
X14387476Y-11721476D02*
X14406524Y-11721476D01*
X14425571Y-11731000D01*
X14435095Y-11740524D01*
X14444619Y-11759571D01*
X14454143Y-11797667D01*
X14454143Y-11845286D01*
X14444619Y-11883381D01*
X14435095Y-11902428D01*
X14425571Y-11911952D01*
X14406524Y-11921476D01*
X14387476Y-11921476D01*
X14368428Y-11911952D01*
X14358905Y-11902428D01*
X14349381Y-11883381D01*
X14339857Y-11845286D01*
X14339857Y-11797667D01*
X14349381Y-11759571D01*
X14358905Y-11740524D01*
X14368428Y-11731000D01*
X14387476Y-11721476D01*
X14539857Y-11902428D02*
X14549381Y-11911952D01*
X14539857Y-11921476D01*
X14530333Y-11911952D01*
X14539857Y-11902428D01*
X14539857Y-11921476D01*
X14673190Y-11721476D02*
X14692238Y-11721476D01*
X14711286Y-11731000D01*
X14720809Y-11740524D01*
X14730333Y-11759571D01*
X14739857Y-11797667D01*
X14739857Y-11845286D01*
X14730333Y-11883381D01*
X14720809Y-11902428D01*
X14711286Y-11911952D01*
X14692238Y-11921476D01*
X14673190Y-11921476D01*
X14654143Y-11911952D01*
X14644619Y-11902428D01*
X14635095Y-11883381D01*
X14625571Y-11845286D01*
X14625571Y-11797667D01*
X14635095Y-11759571D01*
X14644619Y-11740524D01*
X14654143Y-11731000D01*
X14673190Y-11721476D01*
X14930333Y-11921476D02*
X14816048Y-11921476D01*
X14873190Y-11921476D02*
X14873190Y-11721476D01*
X14854143Y-11750048D01*
X14835095Y-11769095D01*
X14816048Y-11778619D01*
X15111286Y-11721476D02*
X15016048Y-11721476D01*
X15006524Y-11816714D01*
X15016048Y-11807190D01*
X15035095Y-11797667D01*
X15082714Y-11797667D01*
X15101762Y-11807190D01*
X15111286Y-11816714D01*
X15120809Y-11835762D01*
X15120809Y-11883381D01*
X15111286Y-11902428D01*
X15101762Y-11911952D01*
X15082714Y-11921476D01*
X15035095Y-11921476D01*
X15016048Y-11911952D01*
X15006524Y-11902428D01*
X15187476Y-11721476D02*
X15320809Y-11721476D01*
X15235095Y-11921476D01*
X15387476Y-11721476D02*
X15387476Y-11759571D01*
X15463667Y-11721476D02*
X15463667Y-11759571D01*
X15758905Y-11997667D02*
X15749381Y-11988143D01*
X15730333Y-11959571D01*
X15720809Y-11940524D01*
X15711286Y-11911952D01*
X15701762Y-11864333D01*
X15701762Y-11826238D01*
X15711286Y-11778619D01*
X15720809Y-11750048D01*
X15730333Y-11731000D01*
X15749381Y-11702428D01*
X15758905Y-11692905D01*
X15920809Y-11721476D02*
X15882714Y-11721476D01*
X15863667Y-11731000D01*
X15854143Y-11740524D01*
X15835095Y-11769095D01*
X15825571Y-11807190D01*
X15825571Y-11883381D01*
X15835095Y-11902428D01*
X15844619Y-11911952D01*
X15863667Y-11921476D01*
X15901762Y-11921476D01*
X15920809Y-11911952D01*
X15930333Y-11902428D01*
X15939857Y-11883381D01*
X15939857Y-11835762D01*
X15930333Y-11816714D01*
X15920809Y-11807190D01*
X15901762Y-11797667D01*
X15863667Y-11797667D01*
X15844619Y-11807190D01*
X15835095Y-11816714D01*
X15825571Y-11835762D01*
X16177952Y-11921476D02*
X16177952Y-11721476D01*
X16263667Y-11921476D02*
X16263667Y-11816714D01*
X16254143Y-11797667D01*
X16235095Y-11788143D01*
X16206524Y-11788143D01*
X16187476Y-11797667D01*
X16177952Y-11807190D01*
X16387476Y-11921476D02*
X16368428Y-11911952D01*
X16358905Y-11902428D01*
X16349381Y-11883381D01*
X16349381Y-11826238D01*
X16358905Y-11807190D01*
X16368428Y-11797667D01*
X16387476Y-11788143D01*
X16416048Y-11788143D01*
X16435095Y-11797667D01*
X16444619Y-11807190D01*
X16454143Y-11826238D01*
X16454143Y-11883381D01*
X16444619Y-11902428D01*
X16435095Y-11911952D01*
X16416048Y-11921476D01*
X16387476Y-11921476D01*
X16568428Y-11921476D02*
X16549381Y-11911952D01*
X16539857Y-11892905D01*
X16539857Y-11721476D01*
X16720809Y-11911952D02*
X16701762Y-11921476D01*
X16663667Y-11921476D01*
X16644619Y-11911952D01*
X16635095Y-11892905D01*
X16635095Y-11816714D01*
X16644619Y-11797667D01*
X16663667Y-11788143D01*
X16701762Y-11788143D01*
X16720809Y-11797667D01*
X16730333Y-11816714D01*
X16730333Y-11835762D01*
X16635095Y-11854809D01*
X16806524Y-11911952D02*
X16825571Y-11921476D01*
X16863667Y-11921476D01*
X16882714Y-11911952D01*
X16892238Y-11892905D01*
X16892238Y-11883381D01*
X16882714Y-11864333D01*
X16863667Y-11854809D01*
X16835095Y-11854809D01*
X16816048Y-11845286D01*
X16806524Y-11826238D01*
X16806524Y-11816714D01*
X16816048Y-11797667D01*
X16835095Y-11788143D01*
X16863667Y-11788143D01*
X16882714Y-11797667D01*
X16958905Y-11997667D02*
X16968429Y-11988143D01*
X16987476Y-11959571D01*
X16997000Y-11940524D01*
X17006524Y-11911952D01*
X17016048Y-11864333D01*
X17016048Y-11826238D01*
X17006524Y-11778619D01*
X16997000Y-11750048D01*
X16987476Y-11731000D01*
X16968429Y-11702428D01*
X16958905Y-11692905D01*
D14*
X12137000Y-12045000D02*
X12137000Y-12145000D01*
X12087000Y-12095000D02*
X12187000Y-12095000D01*
D11*
X12549381Y-12185476D02*
X12435095Y-12185476D01*
X12492238Y-12185476D02*
X12492238Y-11985476D01*
X12473190Y-12014048D01*
X12454143Y-12033095D01*
X12435095Y-12042619D01*
X12635095Y-12166428D02*
X12644619Y-12175952D01*
X12635095Y-12185476D01*
X12625571Y-12175952D01*
X12635095Y-12166428D01*
X12635095Y-12185476D01*
X12768428Y-11985476D02*
X12787476Y-11985476D01*
X12806524Y-11995000D01*
X12816048Y-12004524D01*
X12825571Y-12023571D01*
X12835095Y-12061667D01*
X12835095Y-12109286D01*
X12825571Y-12147381D01*
X12816048Y-12166428D01*
X12806524Y-12175952D01*
X12787476Y-12185476D01*
X12768428Y-12185476D01*
X12749381Y-12175952D01*
X12739857Y-12166428D01*
X12730333Y-12147381D01*
X12720809Y-12109286D01*
X12720809Y-12061667D01*
X12730333Y-12023571D01*
X12739857Y-12004524D01*
X12749381Y-11995000D01*
X12768428Y-11985476D01*
X12958905Y-11985476D02*
X12977952Y-11985476D01*
X12997000Y-11995000D01*
X13006524Y-12004524D01*
X13016048Y-12023571D01*
X13025571Y-12061667D01*
X13025571Y-12109286D01*
X13016048Y-12147381D01*
X13006524Y-12166428D01*
X12997000Y-12175952D01*
X12977952Y-12185476D01*
X12958905Y-12185476D01*
X12939857Y-12175952D01*
X12930333Y-12166428D01*
X12920809Y-12147381D01*
X12911286Y-12109286D01*
X12911286Y-12061667D01*
X12920809Y-12023571D01*
X12930333Y-12004524D01*
X12939857Y-11995000D01*
X12958905Y-11985476D01*
X13149381Y-11985476D02*
X13168428Y-11985476D01*
X13187476Y-11995000D01*
X13197000Y-12004524D01*
X13206524Y-12023571D01*
X13216048Y-12061667D01*
X13216048Y-12109286D01*
X13206524Y-12147381D01*
X13197000Y-12166428D01*
X13187476Y-12175952D01*
X13168428Y-12185476D01*
X13149381Y-12185476D01*
X13130333Y-12175952D01*
X13120809Y-12166428D01*
X13111286Y-12147381D01*
X13101762Y-12109286D01*
X13101762Y-12061667D01*
X13111286Y-12023571D01*
X13120809Y-12004524D01*
X13130333Y-11995000D01*
X13149381Y-11985476D01*
X13301762Y-12185476D02*
X13301762Y-12052143D01*
X13301762Y-12071190D02*
X13311286Y-12061667D01*
X13330333Y-12052143D01*
X13358905Y-12052143D01*
X13377952Y-12061667D01*
X13387476Y-12080714D01*
X13387476Y-12185476D01*
X13387476Y-12080714D02*
X13397000Y-12061667D01*
X13416048Y-12052143D01*
X13444619Y-12052143D01*
X13463667Y-12061667D01*
X13473190Y-12080714D01*
X13473190Y-12185476D01*
X13568428Y-12185476D02*
X13568428Y-12052143D01*
X13568428Y-12071190D02*
X13577952Y-12061667D01*
X13597000Y-12052143D01*
X13625571Y-12052143D01*
X13644619Y-12061667D01*
X13654143Y-12080714D01*
X13654143Y-12185476D01*
X13654143Y-12080714D02*
X13663667Y-12061667D01*
X13682714Y-12052143D01*
X13711286Y-12052143D01*
X13730333Y-12061667D01*
X13739857Y-12080714D01*
X13739857Y-12185476D01*
X14130333Y-11975952D02*
X13958905Y-12233095D01*
X14387476Y-11985476D02*
X14406524Y-11985476D01*
X14425571Y-11995000D01*
X14435095Y-12004524D01*
X14444619Y-12023571D01*
X14454143Y-12061667D01*
X14454143Y-12109286D01*
X14444619Y-12147381D01*
X14435095Y-12166428D01*
X14425571Y-12175952D01*
X14406524Y-12185476D01*
X14387476Y-12185476D01*
X14368428Y-12175952D01*
X14358905Y-12166428D01*
X14349381Y-12147381D01*
X14339857Y-12109286D01*
X14339857Y-12061667D01*
X14349381Y-12023571D01*
X14358905Y-12004524D01*
X14368428Y-11995000D01*
X14387476Y-11985476D01*
X14539857Y-12166428D02*
X14549381Y-12175952D01*
X14539857Y-12185476D01*
X14530333Y-12175952D01*
X14539857Y-12166428D01*
X14539857Y-12185476D01*
X14673190Y-11985476D02*
X14692238Y-11985476D01*
X14711286Y-11995000D01*
X14720809Y-12004524D01*
X14730333Y-12023571D01*
X14739857Y-12061667D01*
X14739857Y-12109286D01*
X14730333Y-12147381D01*
X14720809Y-12166428D01*
X14711286Y-12175952D01*
X14692238Y-12185476D01*
X14673190Y-12185476D01*
X14654143Y-12175952D01*
X14644619Y-12166428D01*
X14635095Y-12147381D01*
X14625571Y-12109286D01*
X14625571Y-12061667D01*
X14635095Y-12023571D01*
X14644619Y-12004524D01*
X14654143Y-11995000D01*
X14673190Y-11985476D01*
X14806524Y-11985476D02*
X14930333Y-11985476D01*
X14863667Y-12061667D01*
X14892238Y-12061667D01*
X14911286Y-12071190D01*
X14920809Y-12080714D01*
X14930333Y-12099762D01*
X14930333Y-12147381D01*
X14920809Y-12166428D01*
X14911286Y-12175952D01*
X14892238Y-12185476D01*
X14835095Y-12185476D01*
X14816048Y-12175952D01*
X14806524Y-12166428D01*
X15025571Y-12185476D02*
X15063667Y-12185476D01*
X15082714Y-12175952D01*
X15092238Y-12166428D01*
X15111286Y-12137857D01*
X15120809Y-12099762D01*
X15120809Y-12023571D01*
X15111286Y-12004524D01*
X15101762Y-11995000D01*
X15082714Y-11985476D01*
X15044619Y-11985476D01*
X15025571Y-11995000D01*
X15016048Y-12004524D01*
X15006524Y-12023571D01*
X15006524Y-12071190D01*
X15016048Y-12090238D01*
X15025571Y-12099762D01*
X15044619Y-12109286D01*
X15082714Y-12109286D01*
X15101762Y-12099762D01*
X15111286Y-12090238D01*
X15120809Y-12071190D01*
X15292238Y-12052143D02*
X15292238Y-12185476D01*
X15244619Y-11975952D02*
X15197000Y-12118809D01*
X15320809Y-12118809D01*
X15387476Y-11985476D02*
X15387476Y-12023571D01*
X15463667Y-11985476D02*
X15463667Y-12023571D01*
X15758905Y-12261667D02*
X15749381Y-12252143D01*
X15730333Y-12223571D01*
X15720809Y-12204524D01*
X15711286Y-12175952D01*
X15701762Y-12128333D01*
X15701762Y-12090238D01*
X15711286Y-12042619D01*
X15720809Y-12014048D01*
X15730333Y-11995000D01*
X15749381Y-11966428D01*
X15758905Y-11956905D01*
X15816048Y-11985476D02*
X15939857Y-11985476D01*
X15873190Y-12061667D01*
X15901762Y-12061667D01*
X15920809Y-12071190D01*
X15930333Y-12080714D01*
X15939857Y-12099762D01*
X15939857Y-12147381D01*
X15930333Y-12166428D01*
X15920809Y-12175952D01*
X15901762Y-12185476D01*
X15844619Y-12185476D01*
X15825571Y-12175952D01*
X15816048Y-12166428D01*
X16120809Y-11985476D02*
X16025571Y-11985476D01*
X16016048Y-12080714D01*
X16025571Y-12071190D01*
X16044619Y-12061667D01*
X16092238Y-12061667D01*
X16111286Y-12071190D01*
X16120809Y-12080714D01*
X16130333Y-12099762D01*
X16130333Y-12147381D01*
X16120809Y-12166428D01*
X16111286Y-12175952D01*
X16092238Y-12185476D01*
X16044619Y-12185476D01*
X16025571Y-12175952D01*
X16016048Y-12166428D01*
X16368428Y-12185476D02*
X16368428Y-11985476D01*
X16454143Y-12185476D02*
X16454143Y-12080714D01*
X16444619Y-12061667D01*
X16425571Y-12052143D01*
X16397000Y-12052143D01*
X16377952Y-12061667D01*
X16368428Y-12071190D01*
X16577952Y-12185476D02*
X16558905Y-12175952D01*
X16549381Y-12166428D01*
X16539857Y-12147381D01*
X16539857Y-12090238D01*
X16549381Y-12071190D01*
X16558905Y-12061667D01*
X16577952Y-12052143D01*
X16606524Y-12052143D01*
X16625571Y-12061667D01*
X16635095Y-12071190D01*
X16644619Y-12090238D01*
X16644619Y-12147381D01*
X16635095Y-12166428D01*
X16625571Y-12175952D01*
X16606524Y-12185476D01*
X16577952Y-12185476D01*
X16758905Y-12185476D02*
X16739857Y-12175952D01*
X16730333Y-12156905D01*
X16730333Y-11985476D01*
X16911286Y-12175952D02*
X16892238Y-12185476D01*
X16854143Y-12185476D01*
X16835095Y-12175952D01*
X16825571Y-12156905D01*
X16825571Y-12080714D01*
X16835095Y-12061667D01*
X16854143Y-12052143D01*
X16892238Y-12052143D01*
X16911286Y-12061667D01*
X16920810Y-12080714D01*
X16920810Y-12099762D01*
X16825571Y-12118809D01*
X16997000Y-12175952D02*
X17016048Y-12185476D01*
X17054143Y-12185476D01*
X17073190Y-12175952D01*
X17082714Y-12156905D01*
X17082714Y-12147381D01*
X17073190Y-12128333D01*
X17054143Y-12118809D01*
X17025571Y-12118809D01*
X17006524Y-12109286D01*
X16997000Y-12090238D01*
X16997000Y-12080714D01*
X17006524Y-12061667D01*
X17025571Y-12052143D01*
X17054143Y-12052143D01*
X17073190Y-12061667D01*
X17149381Y-12261667D02*
X17158905Y-12252143D01*
X17177952Y-12223571D01*
X17187476Y-12204524D01*
X17197000Y-12175952D01*
X17206524Y-12128333D01*
X17206524Y-12090238D01*
X17197000Y-12042619D01*
X17187476Y-12014048D01*
X17177952Y-11995000D01*
X17158905Y-11966428D01*
X17149381Y-11956905D01*
M02*
