%TF.GenerationSoftware,KiCad,Pcbnew,(6.0.0-0)*%
%TF.CreationDate,2023-05-28T12:29:54+10:00*%
%TF.ProjectId,motor-driver,6d6f746f-722d-4647-9269-7665722e6b69,v1.0.0*%
%TF.SameCoordinates,Original*%
%TF.FileFunction,Copper,L1,Top*%
%TF.FilePolarity,Positive*%
%FSLAX46Y46*%
G04 Gerber Fmt 4.6, Leading zero omitted, Abs format (unit mm)*
G04 Created by KiCad (PCBNEW (6.0.0-0)) date 2023-05-28 12:29:54*
%MOMM*%
%LPD*%
G01*
G04 APERTURE LIST*
G04 Aperture macros list*
%AMRoundRect*
0 Rectangle with rounded corners*
0 $1 Rounding radius*
0 $2 $3 $4 $5 $6 $7 $8 $9 X,Y pos of 4 corners*
0 Add a 4 corners polygon primitive as box body*
4,1,4,$2,$3,$4,$5,$6,$7,$8,$9,$2,$3,0*
0 Add four circle primitives for the rounded corners*
1,1,$1+$1,$2,$3*
1,1,$1+$1,$4,$5*
1,1,$1+$1,$6,$7*
1,1,$1+$1,$8,$9*
0 Add four rect primitives between the rounded corners*
20,1,$1+$1,$2,$3,$4,$5,0*
20,1,$1+$1,$4,$5,$6,$7,0*
20,1,$1+$1,$6,$7,$8,$9,0*
20,1,$1+$1,$8,$9,$2,$3,0*%
G04 Aperture macros list end*
%TA.AperFunction,SMDPad,CuDef*%
%ADD10RoundRect,0.225000X-0.225000X-0.250000X0.225000X-0.250000X0.225000X0.250000X-0.225000X0.250000X0*%
%TD*%
%TA.AperFunction,SMDPad,CuDef*%
%ADD11RoundRect,0.250000X0.325000X0.650000X-0.325000X0.650000X-0.325000X-0.650000X0.325000X-0.650000X0*%
%TD*%
%TA.AperFunction,SMDPad,CuDef*%
%ADD12R,0.500000X0.250000*%
%TD*%
%TA.AperFunction,SMDPad,CuDef*%
%ADD13R,1.000000X2.650000*%
%TD*%
%TA.AperFunction,SMDPad,CuDef*%
%ADD14RoundRect,0.225000X0.250000X-0.225000X0.250000X0.225000X-0.250000X0.225000X-0.250000X-0.225000X0*%
%TD*%
%TA.AperFunction,SMDPad,CuDef*%
%ADD15RoundRect,0.200000X0.275000X-0.200000X0.275000X0.200000X-0.275000X0.200000X-0.275000X-0.200000X0*%
%TD*%
%TA.AperFunction,SMDPad,CuDef*%
%ADD16R,2.400000X1.500000*%
%TD*%
%TA.AperFunction,SMDPad,CuDef*%
%ADD17R,1.200000X0.900000*%
%TD*%
%TA.AperFunction,SMDPad,CuDef*%
%ADD18RoundRect,0.200000X0.200000X0.275000X-0.200000X0.275000X-0.200000X-0.275000X0.200000X-0.275000X0*%
%TD*%
%TA.AperFunction,SMDPad,CuDef*%
%ADD19RoundRect,0.250000X0.650000X-0.325000X0.650000X0.325000X-0.650000X0.325000X-0.650000X-0.325000X0*%
%TD*%
%TA.AperFunction,SMDPad,CuDef*%
%ADD20RoundRect,0.150000X0.150000X-0.587500X0.150000X0.587500X-0.150000X0.587500X-0.150000X-0.587500X0*%
%TD*%
%TA.AperFunction,ComponentPad*%
%ADD21R,1.700000X1.700000*%
%TD*%
%TA.AperFunction,ComponentPad*%
%ADD22O,1.700000X1.700000*%
%TD*%
%TA.AperFunction,SMDPad,CuDef*%
%ADD23RoundRect,0.225000X0.225000X0.250000X-0.225000X0.250000X-0.225000X-0.250000X0.225000X-0.250000X0*%
%TD*%
%TA.AperFunction,SMDPad,CuDef*%
%ADD24R,0.450000X1.450000*%
%TD*%
%TA.AperFunction,SMDPad,CuDef*%
%ADD25RoundRect,0.225000X-0.250000X0.225000X-0.250000X-0.225000X0.250000X-0.225000X0.250000X0.225000X0*%
%TD*%
%TA.AperFunction,ViaPad*%
%ADD26C,0.600000*%
%TD*%
%TA.AperFunction,ViaPad*%
%ADD27C,0.800000*%
%TD*%
%TA.AperFunction,Conductor*%
%ADD28C,0.250000*%
%TD*%
%TA.AperFunction,Conductor*%
%ADD29C,1.000000*%
%TD*%
G04 APERTURE END LIST*
D10*
%TO.P,C5,1*%
%TO.N,Vdrive*%
X136385000Y-93726000D03*
%TO.P,C5,2*%
%TO.N,GND*%
X137935000Y-93726000D03*
%TD*%
D11*
%TO.P,C1,1*%
%TO.N,/Vin*%
X150319000Y-93472000D03*
%TO.P,C1,2*%
%TO.N,GND*%
X147369000Y-93472000D03*
%TD*%
D12*
%TO.P,U2,1,VM*%
%TO.N,Vdrive*%
X136210000Y-95524000D03*
%TO.P,U2,2,AOUT1*%
%TO.N,/M1+*%
X136210000Y-96024000D03*
%TO.P,U2,3,AOUT2*%
%TO.N,/M1-*%
X136210000Y-96524000D03*
%TO.P,U2,4,BOUT1*%
%TO.N,/M2+*%
X136210000Y-97024000D03*
%TO.P,U2,5,BOUT2*%
%TO.N,/M2-*%
X136210000Y-97524000D03*
%TO.P,U2,6,GND*%
%TO.N,GND*%
X136210000Y-98024000D03*
%TO.P,U2,7,BIN2/EN*%
%TO.N,/BIN2*%
X138110000Y-98024000D03*
%TO.P,U2,8,BIN1/PH*%
%TO.N,/BIN1*%
X138110000Y-97524000D03*
%TO.P,U2,9,AIN2/EN*%
%TO.N,/AIN2*%
X138110000Y-97024000D03*
%TO.P,U2,10,AIN1/PH*%
%TO.N,/AIN1*%
X138110000Y-96524000D03*
%TO.P,U2,11,MODE*%
%TO.N,Net-(JP1-Pad2)*%
X138110000Y-96024000D03*
%TO.P,U2,12,VCC*%
%TO.N,+3V3*%
X138110000Y-95524000D03*
D13*
%TO.P,U2,13,Pad*%
%TO.N,GND*%
X137160000Y-96774000D03*
%TD*%
D14*
%TO.P,C6,1*%
%TO.N,Net-(C6-Pad1)*%
X143002000Y-98057000D03*
%TO.P,C6,2*%
%TO.N,GND*%
X143002000Y-96507000D03*
%TD*%
D15*
%TO.P,R4,1*%
%TO.N,/Vboost*%
X143002000Y-103187000D03*
%TO.P,R4,2*%
%TO.N,Net-(JP3-Pad2)*%
X143002000Y-101537000D03*
%TD*%
D16*
%TO.P,L1,1,1*%
%TO.N,/Vin*%
X154940000Y-93135000D03*
%TO.P,L1,2,2*%
%TO.N,Net-(D1-Pad2)*%
X154940000Y-98635000D03*
%TD*%
D14*
%TO.P,C4,1*%
%TO.N,Net-(C4-Pad1)*%
X146050000Y-98057000D03*
%TO.P,C4,2*%
%TO.N,GND*%
X146050000Y-96507000D03*
%TD*%
D17*
%TO.P,D2,1,K*%
%TO.N,Vdrive*%
X137160000Y-99950000D03*
%TO.P,D2,2,A*%
%TO.N,VDC*%
X137160000Y-103250000D03*
%TD*%
D15*
%TO.P,R3,1*%
%TO.N,Net-(JP2-Pad1)*%
X146050000Y-103187000D03*
%TO.P,R3,2*%
%TO.N,GND*%
X146050000Y-101537000D03*
%TD*%
D18*
%TO.P,R5,1*%
%TO.N,VDC*%
X137985000Y-104902000D03*
%TO.P,R5,2*%
%TO.N,GND*%
X136335000Y-104902000D03*
%TD*%
D19*
%TO.P,C8,1*%
%TO.N,/Vboost*%
X154686000Y-103710000D03*
%TO.P,C8,2*%
%TO.N,GND*%
X154686000Y-100760000D03*
%TD*%
D20*
%TO.P,Q1,1,G*%
%TO.N,VDC*%
X139258000Y-103045500D03*
%TO.P,Q1,2,S*%
%TO.N,/Vboost*%
X141158000Y-103045500D03*
%TO.P,Q1,3,D*%
%TO.N,Vdrive*%
X140208000Y-101170500D03*
%TD*%
D21*
%TO.P,J2,1,Pin_1*%
%TO.N,GND*%
X160655000Y-96520000D03*
D22*
%TO.P,J2,2,Pin_2*%
%TO.N,/Vboost*%
X160655000Y-99060000D03*
%TO.P,J2,3,Pin_3*%
%TO.N,VDC*%
X160655000Y-101600000D03*
%TD*%
D15*
%TO.P,R2,1*%
%TO.N,/Vboost*%
X144526000Y-103187000D03*
%TO.P,R2,2*%
%TO.N,Net-(JP2-Pad2)*%
X144526000Y-101537000D03*
%TD*%
D19*
%TO.P,C7,1*%
%TO.N,/Vboost*%
X152146000Y-103710000D03*
%TO.P,C7,2*%
%TO.N,GND*%
X152146000Y-100760000D03*
%TD*%
D23*
%TO.P,C2,1*%
%TO.N,/Vin*%
X149619000Y-95504000D03*
%TO.P,C2,2*%
%TO.N,GND*%
X148069000Y-95504000D03*
%TD*%
D21*
%TO.P,J3,1,Pin_1*%
%TO.N,/M1+*%
X131445000Y-95250000D03*
D22*
%TO.P,J3,2,Pin_2*%
%TO.N,/M1-*%
X131445000Y-97790000D03*
%TO.P,J3,3,Pin_3*%
%TO.N,/M2+*%
X131445000Y-100330000D03*
%TO.P,J3,4,Pin_4*%
%TO.N,/M2-*%
X131445000Y-102870000D03*
%TD*%
D17*
%TO.P,D1,1,K*%
%TO.N,/Vboost*%
X157226000Y-103885000D03*
%TO.P,D1,2,A*%
%TO.N,Net-(D1-Pad2)*%
X157226000Y-100585000D03*
%TD*%
D24*
%TO.P,U1,1,COMP*%
%TO.N,Net-(R1-Pad1)*%
X147869000Y-102022000D03*
%TO.P,U1,2,FB*%
%TO.N,Net-(JP2-Pad1)*%
X148519000Y-102022000D03*
%TO.P,U1,3,EN*%
%TO.N,/Vin*%
X149169000Y-102022000D03*
%TO.P,U1,4,GND*%
%TO.N,GND*%
X149819000Y-102022000D03*
%TO.P,U1,5,SW*%
%TO.N,Net-(D1-Pad2)*%
X149819000Y-97622000D03*
%TO.P,U1,6,IN*%
%TO.N,/Vin*%
X149169000Y-97622000D03*
%TO.P,U1,7,FREQ*%
X148519000Y-97622000D03*
%TO.P,U1,8,SS*%
%TO.N,Net-(C4-Pad1)*%
X147869000Y-97622000D03*
%TD*%
D25*
%TO.P,C3,1*%
%TO.N,GND*%
X141478000Y-96507000D03*
%TO.P,C3,2*%
%TO.N,+3V3*%
X141478000Y-98057000D03*
%TD*%
D15*
%TO.P,R1,1*%
%TO.N,Net-(R1-Pad1)*%
X144526000Y-98107000D03*
%TO.P,R1,2*%
%TO.N,Net-(C6-Pad1)*%
X144526000Y-96457000D03*
%TD*%
D21*
%TO.P,J4,1,Pin_1*%
%TO.N,unconnected-(J4-Pad1)*%
X128280000Y-90170000D03*
D22*
%TO.P,J4,2,Pin_2*%
%TO.N,unconnected-(J4-Pad2)*%
X130820000Y-90170000D03*
%TO.P,J4,3,Pin_3*%
%TO.N,unconnected-(J4-Pad3)*%
X133360000Y-90170000D03*
%TO.P,J4,4,Pin_4*%
%TO.N,unconnected-(J4-Pad4)*%
X135900000Y-90170000D03*
%TO.P,J4,5,Pin_5*%
%TO.N,unconnected-(J4-Pad5)*%
X138440000Y-90170000D03*
%TO.P,J4,6,Pin_6*%
%TO.N,+3V3*%
X140980000Y-90170000D03*
%TO.P,J4,7,Pin_7*%
%TO.N,unconnected-(J4-Pad7)*%
X143520000Y-90170000D03*
%TO.P,J4,8,Pin_8*%
%TO.N,unconnected-(J4-Pad8)*%
X146060000Y-90170000D03*
%TO.P,J4,9,Pin_9*%
%TO.N,unconnected-(J4-Pad9)*%
X148600000Y-90170000D03*
%TO.P,J4,10,Pin_10*%
%TO.N,unconnected-(J4-Pad10)*%
X151140000Y-90170000D03*
%TO.P,J4,11,Pin_11*%
%TO.N,unconnected-(J4-Pad11)*%
X153680000Y-90170000D03*
%TO.P,J4,12,Pin_12*%
%TO.N,unconnected-(J4-Pad12)*%
X156220000Y-90170000D03*
%TO.P,J4,13,Pin_13*%
%TO.N,unconnected-(J4-Pad13)*%
X158760000Y-90170000D03*
%TO.P,J4,14,Pin_14*%
%TO.N,/Vin*%
X161300000Y-90170000D03*
%TD*%
D21*
%TO.P,J1,1,Pin_1*%
%TO.N,unconnected-(J1-Pad1)*%
X128280000Y-107950000D03*
D22*
%TO.P,J1,2,Pin_2*%
%TO.N,unconnected-(J1-Pad2)*%
X130820000Y-107950000D03*
%TO.P,J1,3,Pin_3*%
%TO.N,unconnected-(J1-Pad3)*%
X133360000Y-107950000D03*
%TO.P,J1,4,Pin_4*%
%TO.N,/AIN1*%
X135900000Y-107950000D03*
%TO.P,J1,5,Pin_5*%
%TO.N,/BIN1*%
X138440000Y-107950000D03*
%TO.P,J1,6,Pin_6*%
%TO.N,/AIN2*%
X140980000Y-107950000D03*
%TO.P,J1,7,Pin_7*%
%TO.N,/BIN2*%
X143520000Y-107950000D03*
%TO.P,J1,8,Pin_8*%
%TO.N,GND*%
X146060000Y-107950000D03*
%TO.P,J1,9,Pin_9*%
%TO.N,unconnected-(J1-Pad9)*%
X148600000Y-107950000D03*
%TO.P,J1,10,Pin_10*%
%TO.N,unconnected-(J1-Pad10)*%
X151140000Y-107950000D03*
%TO.P,J1,11,Pin_11*%
%TO.N,unconnected-(J1-Pad11)*%
X153680000Y-107950000D03*
%TO.P,J1,12,Pin_12*%
%TO.N,unconnected-(J1-Pad12)*%
X156220000Y-107950000D03*
%TO.P,J1,13,Pin_13*%
%TO.N,unconnected-(J1-Pad13)*%
X158760000Y-107950000D03*
%TO.P,J1,14,Pin_14*%
%TO.N,unconnected-(J1-Pad14)*%
X161300000Y-107950000D03*
%TD*%
D26*
%TO.N,GND*%
X137160000Y-96774000D03*
X143510000Y-92710000D03*
X145415000Y-94615000D03*
X143510000Y-94615000D03*
X137160000Y-97790000D03*
D27*
X135128000Y-101092000D03*
D26*
X137922000Y-91948000D03*
X136144000Y-91948000D03*
X134239000Y-91948000D03*
D27*
X155956000Y-100838000D03*
X135128000Y-102362000D03*
D26*
X141605000Y-94615000D03*
D27*
X150622000Y-100838000D03*
D26*
X146050000Y-100838000D03*
X145415000Y-92710000D03*
X132334000Y-91948000D03*
D27*
X135128000Y-104902000D03*
D26*
X137160000Y-95758000D03*
D27*
X135128000Y-103632000D03*
D26*
X141605000Y-92710000D03*
%TO.N,+3V3*%
X138935170Y-94392720D03*
X141222731Y-97456481D03*
%TO.N,Vdrive*%
X133858000Y-93472000D03*
X134874000Y-93472000D03*
X133858000Y-94488000D03*
X134874000Y-94488000D03*
X139192000Y-101600000D03*
X139192000Y-100584000D03*
X138176000Y-101600000D03*
X138176000Y-100584000D03*
%TO.N,/AIN1*%
X139797406Y-97168489D03*
%TO.N,/BIN1*%
X139192000Y-98687161D03*
%TO.N,/AIN2*%
X141478000Y-101600000D03*
%TO.N,/BIN2*%
X140754500Y-104902000D03*
%TO.N,Net-(JP1-Pad2)*%
X138938000Y-95758000D03*
%TO.N,Net-(JP2-Pad1)*%
X146841089Y-99538911D03*
%TO.N,Net-(JP2-Pad2)*%
X144526000Y-100838000D03*
%TO.N,Net-(JP3-Pad2)*%
X143002000Y-100838000D03*
%TD*%
D28*
%TO.N,/Vin*%
X147574000Y-99568000D02*
X147574000Y-99060000D01*
X147574000Y-99060000D02*
X147828000Y-98806000D01*
X149169000Y-101163000D02*
X147574000Y-99568000D01*
X148519000Y-98571022D02*
X148519000Y-97622000D01*
X149169000Y-102022000D02*
X149169000Y-101163000D01*
X148284022Y-98806000D02*
X148519000Y-98571022D01*
X147828000Y-98806000D02*
X148284022Y-98806000D01*
D29*
%TO.N,GND*%
X152146000Y-100760000D02*
X154686000Y-100760000D01*
D28*
X146050000Y-101537000D02*
X146050000Y-100838000D01*
%TO.N,+3V3*%
X141222731Y-97456481D02*
X141222731Y-97801731D01*
X141222731Y-97801731D02*
X141478000Y-98057000D01*
X138110000Y-95217890D02*
X138935170Y-94392720D01*
X138110000Y-95524000D02*
X138110000Y-95217890D01*
%TO.N,Net-(C4-Pad1)*%
X147434000Y-98057000D02*
X147869000Y-97622000D01*
X146050000Y-98057000D02*
X147434000Y-98057000D01*
%TO.N,Net-(C6-Pad1)*%
X143002000Y-97981000D02*
X144526000Y-96457000D01*
X143002000Y-98057000D02*
X143002000Y-97981000D01*
%TO.N,/AIN1*%
X139797406Y-97168489D02*
X139152917Y-96524000D01*
X139152917Y-96524000D02*
X138110000Y-96524000D01*
%TO.N,/BIN1*%
X138940339Y-98435500D02*
X138940339Y-97830317D01*
X138634022Y-97524000D02*
X138110000Y-97524000D01*
X139192000Y-98687161D02*
X138940339Y-98435500D01*
X138940339Y-97830317D02*
X138634022Y-97524000D01*
%TO.N,/AIN2*%
X138769740Y-97024000D02*
X138110000Y-97024000D01*
X139389859Y-97644119D02*
X138769740Y-97024000D01*
X139389859Y-97987859D02*
X139389859Y-97644119D01*
X139816511Y-98734721D02*
X139816511Y-98414511D01*
X141478000Y-101600000D02*
X141478000Y-100396210D01*
X141478000Y-100396210D02*
X139816511Y-98734721D01*
X139816511Y-98414511D02*
X139389859Y-97987859D01*
%TO.N,/BIN2*%
X140533480Y-104680980D02*
X140533480Y-102261448D01*
X140754500Y-104902000D02*
X140533480Y-104680980D01*
X140832520Y-101962408D02*
X140832520Y-100386448D01*
X138110000Y-98740000D02*
X138110000Y-98024000D01*
X140832520Y-100386448D02*
X139760072Y-99314000D01*
X139760072Y-99314000D02*
X138684000Y-99314000D01*
X140533480Y-102261448D02*
X140832520Y-101962408D01*
X138684000Y-99314000D02*
X138110000Y-98740000D01*
%TO.N,/M1+*%
X136210000Y-96024000D02*
X132219000Y-96024000D01*
X132219000Y-96024000D02*
X131445000Y-95250000D01*
%TO.N,/M1-*%
X132711000Y-96524000D02*
X131445000Y-97790000D01*
X136210000Y-96524000D02*
X132711000Y-96524000D01*
%TO.N,/M2-*%
X136210000Y-97524000D02*
X134886718Y-97524000D01*
X133350000Y-100965000D02*
X131445000Y-102870000D01*
X134886718Y-97524000D02*
X133350000Y-99060718D01*
X133350000Y-99060718D02*
X133350000Y-100965000D01*
%TO.N,/M2+*%
X136210000Y-97024000D02*
X134751000Y-97024000D01*
X134751000Y-97024000D02*
X131445000Y-100330000D01*
%TO.N,Net-(JP1-Pad2)*%
X138672000Y-96024000D02*
X138938000Y-95758000D01*
X138110000Y-96024000D02*
X138672000Y-96024000D01*
%TO.N,Net-(JP2-Pad1)*%
X148519000Y-102022000D02*
X148519000Y-101216822D01*
X146050000Y-103187000D02*
X148303022Y-103187000D01*
X148519000Y-102971022D02*
X148519000Y-102022000D01*
X148303022Y-103187000D02*
X148519000Y-102971022D01*
X148519000Y-101216822D02*
X146841089Y-99538911D01*
%TO.N,Net-(JP2-Pad2)*%
X144526000Y-100838000D02*
X144526000Y-101537000D01*
%TO.N,Net-(JP3-Pad2)*%
X143002000Y-100838000D02*
X143002000Y-101537000D01*
%TO.N,Net-(R1-Pad1)*%
X144526000Y-98107000D02*
X147869000Y-101450000D01*
X147869000Y-101450000D02*
X147869000Y-102022000D01*
%TD*%
%TA.AperFunction,Conductor*%
%TO.N,GND*%
G36*
X127119092Y-89174002D02*
G01*
X127165585Y-89227658D01*
X127176204Y-89291393D01*
X127175500Y-89294933D01*
X127175500Y-89301123D01*
X127175501Y-90170069D01*
X127175501Y-91045066D01*
X127190266Y-91119301D01*
X127197161Y-91129620D01*
X127197162Y-91129622D01*
X127237516Y-91190015D01*
X127246516Y-91203484D01*
X127330699Y-91259734D01*
X127404933Y-91274500D01*
X128279858Y-91274500D01*
X129155066Y-91274499D01*
X129190818Y-91267388D01*
X129217126Y-91262156D01*
X129217128Y-91262155D01*
X129229301Y-91259734D01*
X129239621Y-91252839D01*
X129239622Y-91252838D01*
X129303168Y-91210377D01*
X129313484Y-91203484D01*
X129369734Y-91119301D01*
X129384500Y-91045067D01*
X129384499Y-89294934D01*
X129383806Y-89291450D01*
X129396863Y-89222598D01*
X129445703Y-89171069D01*
X129509028Y-89154000D01*
X129968487Y-89154000D01*
X130036608Y-89174002D01*
X130083101Y-89227658D01*
X130093205Y-89297932D01*
X130063711Y-89362512D01*
X130051565Y-89374732D01*
X130015392Y-89406455D01*
X129889720Y-89565869D01*
X129887031Y-89570980D01*
X129887029Y-89570983D01*
X129874073Y-89595609D01*
X129795203Y-89745515D01*
X129735007Y-89939378D01*
X129711148Y-90140964D01*
X129724424Y-90343522D01*
X129725845Y-90349118D01*
X129725846Y-90349123D01*
X129746119Y-90428945D01*
X129774392Y-90540269D01*
X129776809Y-90545512D01*
X129812264Y-90622420D01*
X129859377Y-90724616D01*
X129862710Y-90729332D01*
X129894265Y-90773981D01*
X129976533Y-90890389D01*
X129980675Y-90894424D01*
X130070940Y-90982355D01*
X130121938Y-91032035D01*
X130290720Y-91144812D01*
X130296023Y-91147090D01*
X130296026Y-91147092D01*
X130427283Y-91203484D01*
X130477228Y-91224942D01*
X130550244Y-91241464D01*
X130669579Y-91268467D01*
X130669584Y-91268468D01*
X130675216Y-91269742D01*
X130680987Y-91269969D01*
X130680989Y-91269969D01*
X130740756Y-91272317D01*
X130878053Y-91277712D01*
X130985348Y-91262155D01*
X131073231Y-91249413D01*
X131073236Y-91249412D01*
X131078945Y-91248584D01*
X131084409Y-91246729D01*
X131084414Y-91246728D01*
X131265693Y-91185192D01*
X131265698Y-91185190D01*
X131271165Y-91183334D01*
X131304880Y-91164453D01*
X131345683Y-91141602D01*
X131448276Y-91084147D01*
X131487969Y-91051135D01*
X131599913Y-90958031D01*
X131604345Y-90954345D01*
X131661463Y-90885669D01*
X131730453Y-90802718D01*
X131730455Y-90802715D01*
X131734147Y-90798276D01*
X131824664Y-90636647D01*
X131830510Y-90626208D01*
X131830511Y-90626206D01*
X131833334Y-90621165D01*
X131835190Y-90615698D01*
X131835192Y-90615693D01*
X131896728Y-90434414D01*
X131896729Y-90434409D01*
X131898584Y-90428945D01*
X131899412Y-90423236D01*
X131899413Y-90423231D01*
X131927179Y-90231727D01*
X131927712Y-90228053D01*
X131929232Y-90170000D01*
X131910658Y-89967859D01*
X131905949Y-89951161D01*
X131857125Y-89778046D01*
X131857124Y-89778044D01*
X131855557Y-89772487D01*
X131844978Y-89751033D01*
X131768331Y-89595609D01*
X131765776Y-89590428D01*
X131644320Y-89427779D01*
X131617134Y-89402648D01*
X131584546Y-89372524D01*
X131548101Y-89311596D01*
X131550382Y-89240636D01*
X131590665Y-89182174D01*
X131656160Y-89154771D01*
X131670075Y-89154000D01*
X132508487Y-89154000D01*
X132576608Y-89174002D01*
X132623101Y-89227658D01*
X132633205Y-89297932D01*
X132603711Y-89362512D01*
X132591565Y-89374732D01*
X132555392Y-89406455D01*
X132429720Y-89565869D01*
X132427031Y-89570980D01*
X132427029Y-89570983D01*
X132414073Y-89595609D01*
X132335203Y-89745515D01*
X132275007Y-89939378D01*
X132251148Y-90140964D01*
X132264424Y-90343522D01*
X132265845Y-90349118D01*
X132265846Y-90349123D01*
X132286119Y-90428945D01*
X132314392Y-90540269D01*
X132316809Y-90545512D01*
X132352264Y-90622420D01*
X132399377Y-90724616D01*
X132402710Y-90729332D01*
X132434265Y-90773981D01*
X132516533Y-90890389D01*
X132520675Y-90894424D01*
X132610940Y-90982355D01*
X132661938Y-91032035D01*
X132830720Y-91144812D01*
X132836023Y-91147090D01*
X132836026Y-91147092D01*
X132967283Y-91203484D01*
X133017228Y-91224942D01*
X133090244Y-91241464D01*
X133209579Y-91268467D01*
X133209584Y-91268468D01*
X133215216Y-91269742D01*
X133220987Y-91269969D01*
X133220989Y-91269969D01*
X133280756Y-91272317D01*
X133418053Y-91277712D01*
X133525348Y-91262155D01*
X133613231Y-91249413D01*
X133613236Y-91249412D01*
X133618945Y-91248584D01*
X133624409Y-91246729D01*
X133624414Y-91246728D01*
X133805693Y-91185192D01*
X133805698Y-91185190D01*
X133811165Y-91183334D01*
X133844880Y-91164453D01*
X133885683Y-91141602D01*
X133988276Y-91084147D01*
X134027969Y-91051135D01*
X134139913Y-90958031D01*
X134144345Y-90954345D01*
X134201463Y-90885669D01*
X134270453Y-90802718D01*
X134270455Y-90802715D01*
X134274147Y-90798276D01*
X134364664Y-90636647D01*
X134370510Y-90626208D01*
X134370511Y-90626206D01*
X134373334Y-90621165D01*
X134375190Y-90615698D01*
X134375192Y-90615693D01*
X134436728Y-90434414D01*
X134436729Y-90434409D01*
X134438584Y-90428945D01*
X134439412Y-90423236D01*
X134439413Y-90423231D01*
X134467179Y-90231727D01*
X134467712Y-90228053D01*
X134469232Y-90170000D01*
X134450658Y-89967859D01*
X134445949Y-89951161D01*
X134397125Y-89778046D01*
X134397124Y-89778044D01*
X134395557Y-89772487D01*
X134384978Y-89751033D01*
X134308331Y-89595609D01*
X134305776Y-89590428D01*
X134184320Y-89427779D01*
X134157134Y-89402648D01*
X134124546Y-89372524D01*
X134088101Y-89311596D01*
X134090382Y-89240636D01*
X134130665Y-89182174D01*
X134196160Y-89154771D01*
X134210075Y-89154000D01*
X135048487Y-89154000D01*
X135116608Y-89174002D01*
X135163101Y-89227658D01*
X135173205Y-89297932D01*
X135143711Y-89362512D01*
X135131565Y-89374732D01*
X135095392Y-89406455D01*
X134969720Y-89565869D01*
X134967031Y-89570980D01*
X134967029Y-89570983D01*
X134954073Y-89595609D01*
X134875203Y-89745515D01*
X134815007Y-89939378D01*
X134791148Y-90140964D01*
X134804424Y-90343522D01*
X134805845Y-90349118D01*
X134805846Y-90349123D01*
X134826119Y-90428945D01*
X134854392Y-90540269D01*
X134856809Y-90545512D01*
X134892264Y-90622420D01*
X134939377Y-90724616D01*
X134942710Y-90729332D01*
X134974265Y-90773981D01*
X135056533Y-90890389D01*
X135060675Y-90894424D01*
X135150940Y-90982355D01*
X135201938Y-91032035D01*
X135370720Y-91144812D01*
X135376023Y-91147090D01*
X135376026Y-91147092D01*
X135507283Y-91203484D01*
X135557228Y-91224942D01*
X135630244Y-91241464D01*
X135749579Y-91268467D01*
X135749584Y-91268468D01*
X135755216Y-91269742D01*
X135760987Y-91269969D01*
X135760989Y-91269969D01*
X135820756Y-91272317D01*
X135958053Y-91277712D01*
X136065348Y-91262155D01*
X136153231Y-91249413D01*
X136153236Y-91249412D01*
X136158945Y-91248584D01*
X136164409Y-91246729D01*
X136164414Y-91246728D01*
X136345693Y-91185192D01*
X136345698Y-91185190D01*
X136351165Y-91183334D01*
X136384880Y-91164453D01*
X136425683Y-91141602D01*
X136528276Y-91084147D01*
X136567969Y-91051135D01*
X136679913Y-90958031D01*
X136684345Y-90954345D01*
X136741463Y-90885669D01*
X136810453Y-90802718D01*
X136810455Y-90802715D01*
X136814147Y-90798276D01*
X136904664Y-90636647D01*
X136910510Y-90626208D01*
X136910511Y-90626206D01*
X136913334Y-90621165D01*
X136915190Y-90615698D01*
X136915192Y-90615693D01*
X136976728Y-90434414D01*
X136976729Y-90434409D01*
X136978584Y-90428945D01*
X136979412Y-90423236D01*
X136979413Y-90423231D01*
X137007179Y-90231727D01*
X137007712Y-90228053D01*
X137009232Y-90170000D01*
X136990658Y-89967859D01*
X136985949Y-89951161D01*
X136937125Y-89778046D01*
X136937124Y-89778044D01*
X136935557Y-89772487D01*
X136924978Y-89751033D01*
X136848331Y-89595609D01*
X136845776Y-89590428D01*
X136724320Y-89427779D01*
X136697134Y-89402648D01*
X136664546Y-89372524D01*
X136628101Y-89311596D01*
X136630382Y-89240636D01*
X136670665Y-89182174D01*
X136736160Y-89154771D01*
X136750075Y-89154000D01*
X137588487Y-89154000D01*
X137656608Y-89174002D01*
X137703101Y-89227658D01*
X137713205Y-89297932D01*
X137683711Y-89362512D01*
X137671565Y-89374732D01*
X137635392Y-89406455D01*
X137509720Y-89565869D01*
X137507031Y-89570980D01*
X137507029Y-89570983D01*
X137494073Y-89595609D01*
X137415203Y-89745515D01*
X137355007Y-89939378D01*
X137331148Y-90140964D01*
X137344424Y-90343522D01*
X137345845Y-90349118D01*
X137345846Y-90349123D01*
X137366119Y-90428945D01*
X137394392Y-90540269D01*
X137396809Y-90545512D01*
X137432264Y-90622420D01*
X137479377Y-90724616D01*
X137482710Y-90729332D01*
X137514265Y-90773981D01*
X137596533Y-90890389D01*
X137600675Y-90894424D01*
X137690940Y-90982355D01*
X137741938Y-91032035D01*
X137910720Y-91144812D01*
X137916023Y-91147090D01*
X137916026Y-91147092D01*
X138047283Y-91203484D01*
X138097228Y-91224942D01*
X138170244Y-91241464D01*
X138289579Y-91268467D01*
X138289584Y-91268468D01*
X138295216Y-91269742D01*
X138300987Y-91269969D01*
X138300989Y-91269969D01*
X138360756Y-91272317D01*
X138498053Y-91277712D01*
X138605348Y-91262155D01*
X138693231Y-91249413D01*
X138693236Y-91249412D01*
X138698945Y-91248584D01*
X138704409Y-91246729D01*
X138704414Y-91246728D01*
X138885693Y-91185192D01*
X138885698Y-91185190D01*
X138891165Y-91183334D01*
X138924880Y-91164453D01*
X138965683Y-91141602D01*
X139068276Y-91084147D01*
X139107969Y-91051135D01*
X139219913Y-90958031D01*
X139224345Y-90954345D01*
X139281463Y-90885669D01*
X139350453Y-90802718D01*
X139350455Y-90802715D01*
X139354147Y-90798276D01*
X139444664Y-90636647D01*
X139450510Y-90626208D01*
X139450511Y-90626206D01*
X139453334Y-90621165D01*
X139455190Y-90615698D01*
X139455192Y-90615693D01*
X139516728Y-90434414D01*
X139516729Y-90434409D01*
X139518584Y-90428945D01*
X139519412Y-90423236D01*
X139519413Y-90423231D01*
X139547179Y-90231727D01*
X139547712Y-90228053D01*
X139549232Y-90170000D01*
X139530658Y-89967859D01*
X139525949Y-89951161D01*
X139477125Y-89778046D01*
X139477124Y-89778044D01*
X139475557Y-89772487D01*
X139464978Y-89751033D01*
X139388331Y-89595609D01*
X139385776Y-89590428D01*
X139264320Y-89427779D01*
X139237134Y-89402648D01*
X139204546Y-89372524D01*
X139168101Y-89311596D01*
X139170382Y-89240636D01*
X139210665Y-89182174D01*
X139276160Y-89154771D01*
X139290075Y-89154000D01*
X140128487Y-89154000D01*
X140196608Y-89174002D01*
X140243101Y-89227658D01*
X140253205Y-89297932D01*
X140223711Y-89362512D01*
X140211565Y-89374732D01*
X140175392Y-89406455D01*
X140049720Y-89565869D01*
X140047031Y-89570980D01*
X140047029Y-89570983D01*
X140034073Y-89595609D01*
X139955203Y-89745515D01*
X139895007Y-89939378D01*
X139871148Y-90140964D01*
X139884424Y-90343522D01*
X139885845Y-90349118D01*
X139885846Y-90349123D01*
X139906119Y-90428945D01*
X139934392Y-90540269D01*
X139936809Y-90545512D01*
X139972264Y-90622420D01*
X140019377Y-90724616D01*
X140022710Y-90729332D01*
X140054265Y-90773981D01*
X140136533Y-90890389D01*
X140140675Y-90894424D01*
X140230940Y-90982355D01*
X140281938Y-91032035D01*
X140450720Y-91144812D01*
X140456023Y-91147090D01*
X140456026Y-91147092D01*
X140587283Y-91203484D01*
X140637228Y-91224942D01*
X140710244Y-91241464D01*
X140829579Y-91268467D01*
X140829584Y-91268468D01*
X140835216Y-91269742D01*
X140840987Y-91269969D01*
X140840989Y-91269969D01*
X140900756Y-91272317D01*
X141038053Y-91277712D01*
X141145348Y-91262155D01*
X141233231Y-91249413D01*
X141233236Y-91249412D01*
X141238945Y-91248584D01*
X141244409Y-91246729D01*
X141244414Y-91246728D01*
X141425693Y-91185192D01*
X141425698Y-91185190D01*
X141431165Y-91183334D01*
X141464880Y-91164453D01*
X141505683Y-91141602D01*
X141608276Y-91084147D01*
X141647969Y-91051135D01*
X141759913Y-90958031D01*
X141764345Y-90954345D01*
X141821463Y-90885669D01*
X141890453Y-90802718D01*
X141890455Y-90802715D01*
X141894147Y-90798276D01*
X141984664Y-90636647D01*
X141990510Y-90626208D01*
X141990511Y-90626206D01*
X141993334Y-90621165D01*
X141995190Y-90615698D01*
X141995192Y-90615693D01*
X142056728Y-90434414D01*
X142056729Y-90434409D01*
X142058584Y-90428945D01*
X142059412Y-90423236D01*
X142059413Y-90423231D01*
X142087179Y-90231727D01*
X142087712Y-90228053D01*
X142089232Y-90170000D01*
X142070658Y-89967859D01*
X142065949Y-89951161D01*
X142017125Y-89778046D01*
X142017124Y-89778044D01*
X142015557Y-89772487D01*
X142004978Y-89751033D01*
X141928331Y-89595609D01*
X141925776Y-89590428D01*
X141804320Y-89427779D01*
X141777134Y-89402648D01*
X141744546Y-89372524D01*
X141708101Y-89311596D01*
X141710382Y-89240636D01*
X141750665Y-89182174D01*
X141816160Y-89154771D01*
X141830075Y-89154000D01*
X142668487Y-89154000D01*
X142736608Y-89174002D01*
X142783101Y-89227658D01*
X142793205Y-89297932D01*
X142763711Y-89362512D01*
X142751565Y-89374732D01*
X142715392Y-89406455D01*
X142589720Y-89565869D01*
X142587031Y-89570980D01*
X142587029Y-89570983D01*
X142574073Y-89595609D01*
X142495203Y-89745515D01*
X142435007Y-89939378D01*
X142411148Y-90140964D01*
X142424424Y-90343522D01*
X142425845Y-90349118D01*
X142425846Y-90349123D01*
X142446119Y-90428945D01*
X142474392Y-90540269D01*
X142476809Y-90545512D01*
X142512264Y-90622420D01*
X142559377Y-90724616D01*
X142562710Y-90729332D01*
X142594265Y-90773981D01*
X142676533Y-90890389D01*
X142680675Y-90894424D01*
X142770940Y-90982355D01*
X142821938Y-91032035D01*
X142990720Y-91144812D01*
X142996023Y-91147090D01*
X142996026Y-91147092D01*
X143127283Y-91203484D01*
X143177228Y-91224942D01*
X143250244Y-91241464D01*
X143369579Y-91268467D01*
X143369584Y-91268468D01*
X143375216Y-91269742D01*
X143380987Y-91269969D01*
X143380989Y-91269969D01*
X143440756Y-91272317D01*
X143578053Y-91277712D01*
X143685348Y-91262155D01*
X143773231Y-91249413D01*
X143773236Y-91249412D01*
X143778945Y-91248584D01*
X143784409Y-91246729D01*
X143784414Y-91246728D01*
X143965693Y-91185192D01*
X143965698Y-91185190D01*
X143971165Y-91183334D01*
X144004880Y-91164453D01*
X144045683Y-91141602D01*
X144148276Y-91084147D01*
X144187969Y-91051135D01*
X144299913Y-90958031D01*
X144304345Y-90954345D01*
X144361463Y-90885669D01*
X144430453Y-90802718D01*
X144430455Y-90802715D01*
X144434147Y-90798276D01*
X144524664Y-90636647D01*
X144530510Y-90626208D01*
X144530511Y-90626206D01*
X144533334Y-90621165D01*
X144535190Y-90615698D01*
X144535192Y-90615693D01*
X144596728Y-90434414D01*
X144596729Y-90434409D01*
X144598584Y-90428945D01*
X144599412Y-90423236D01*
X144599413Y-90423231D01*
X144627179Y-90231727D01*
X144627712Y-90228053D01*
X144629232Y-90170000D01*
X144610658Y-89967859D01*
X144605949Y-89951161D01*
X144557125Y-89778046D01*
X144557124Y-89778044D01*
X144555557Y-89772487D01*
X144544978Y-89751033D01*
X144468331Y-89595609D01*
X144465776Y-89590428D01*
X144344320Y-89427779D01*
X144317134Y-89402648D01*
X144284546Y-89372524D01*
X144248101Y-89311596D01*
X144250382Y-89240636D01*
X144290665Y-89182174D01*
X144356160Y-89154771D01*
X144370075Y-89154000D01*
X145208487Y-89154000D01*
X145276608Y-89174002D01*
X145323101Y-89227658D01*
X145333205Y-89297932D01*
X145303711Y-89362512D01*
X145291565Y-89374732D01*
X145255392Y-89406455D01*
X145129720Y-89565869D01*
X145127031Y-89570980D01*
X145127029Y-89570983D01*
X145114073Y-89595609D01*
X145035203Y-89745515D01*
X144975007Y-89939378D01*
X144951148Y-90140964D01*
X144964424Y-90343522D01*
X144965845Y-90349118D01*
X144965846Y-90349123D01*
X144986119Y-90428945D01*
X145014392Y-90540269D01*
X145016809Y-90545512D01*
X145052264Y-90622420D01*
X145099377Y-90724616D01*
X145102710Y-90729332D01*
X145134265Y-90773981D01*
X145216533Y-90890389D01*
X145220675Y-90894424D01*
X145310940Y-90982355D01*
X145361938Y-91032035D01*
X145530720Y-91144812D01*
X145536023Y-91147090D01*
X145536026Y-91147092D01*
X145667283Y-91203484D01*
X145717228Y-91224942D01*
X145790244Y-91241464D01*
X145909579Y-91268467D01*
X145909584Y-91268468D01*
X145915216Y-91269742D01*
X145920987Y-91269969D01*
X145920989Y-91269969D01*
X145980756Y-91272317D01*
X146118053Y-91277712D01*
X146225348Y-91262155D01*
X146313231Y-91249413D01*
X146313236Y-91249412D01*
X146318945Y-91248584D01*
X146324409Y-91246729D01*
X146324414Y-91246728D01*
X146505693Y-91185192D01*
X146505698Y-91185190D01*
X146511165Y-91183334D01*
X146544880Y-91164453D01*
X146585683Y-91141602D01*
X146688276Y-91084147D01*
X146727969Y-91051135D01*
X146839913Y-90958031D01*
X146844345Y-90954345D01*
X146901463Y-90885669D01*
X146970453Y-90802718D01*
X146970455Y-90802715D01*
X146974147Y-90798276D01*
X147064664Y-90636647D01*
X147070510Y-90626208D01*
X147070511Y-90626206D01*
X147073334Y-90621165D01*
X147075190Y-90615698D01*
X147075192Y-90615693D01*
X147136728Y-90434414D01*
X147136729Y-90434409D01*
X147138584Y-90428945D01*
X147139412Y-90423236D01*
X147139413Y-90423231D01*
X147167179Y-90231727D01*
X147167712Y-90228053D01*
X147169232Y-90170000D01*
X147150658Y-89967859D01*
X147145949Y-89951161D01*
X147097125Y-89778046D01*
X147097124Y-89778044D01*
X147095557Y-89772487D01*
X147084978Y-89751033D01*
X147008331Y-89595609D01*
X147005776Y-89590428D01*
X146884320Y-89427779D01*
X146857134Y-89402648D01*
X146824546Y-89372524D01*
X146788101Y-89311596D01*
X146790382Y-89240636D01*
X146830665Y-89182174D01*
X146896160Y-89154771D01*
X146910075Y-89154000D01*
X147748487Y-89154000D01*
X147816608Y-89174002D01*
X147863101Y-89227658D01*
X147873205Y-89297932D01*
X147843711Y-89362512D01*
X147831565Y-89374732D01*
X147795392Y-89406455D01*
X147669720Y-89565869D01*
X147667031Y-89570980D01*
X147667029Y-89570983D01*
X147654073Y-89595609D01*
X147575203Y-89745515D01*
X147515007Y-89939378D01*
X147491148Y-90140964D01*
X147504424Y-90343522D01*
X147505845Y-90349118D01*
X147505846Y-90349123D01*
X147526119Y-90428945D01*
X147554392Y-90540269D01*
X147556809Y-90545512D01*
X147592264Y-90622420D01*
X147639377Y-90724616D01*
X147642710Y-90729332D01*
X147674265Y-90773981D01*
X147756533Y-90890389D01*
X147760675Y-90894424D01*
X147850940Y-90982355D01*
X147901938Y-91032035D01*
X148070720Y-91144812D01*
X148076023Y-91147090D01*
X148076026Y-91147092D01*
X148207283Y-91203484D01*
X148257228Y-91224942D01*
X148353509Y-91246728D01*
X148365233Y-91249381D01*
X148427259Y-91283924D01*
X148460764Y-91346517D01*
X148462898Y-91378213D01*
X148463000Y-91378213D01*
X148463000Y-94993411D01*
X148465228Y-95018193D01*
X148466580Y-95033221D01*
X148467074Y-95038719D01*
X148467578Y-95041497D01*
X148467578Y-95041500D01*
X148468870Y-95048624D01*
X148475092Y-95082948D01*
X148487181Y-95126799D01*
X148507363Y-95180635D01*
X148511481Y-95191620D01*
X148519499Y-95235849D01*
X148519500Y-95501097D01*
X148519500Y-95759000D01*
X148499498Y-95827121D01*
X148445843Y-95873614D01*
X148393500Y-95885000D01*
X147955000Y-95885000D01*
X147955000Y-96028504D01*
X147934998Y-96096625D01*
X147919670Y-96115996D01*
X147910484Y-96125516D01*
X147910482Y-96125518D01*
X147904227Y-96132001D01*
X147858291Y-96219818D01*
X147838289Y-96287939D01*
X147837648Y-96292398D01*
X147837647Y-96292402D01*
X147837083Y-96296324D01*
X147828000Y-96359499D01*
X147828000Y-96394000D01*
X147807998Y-96462121D01*
X147754342Y-96508614D01*
X147702000Y-96520000D01*
X145381500Y-96520000D01*
X145313379Y-96499998D01*
X145266886Y-96446342D01*
X145255500Y-96394001D01*
X145255499Y-96205654D01*
X145255499Y-96202686D01*
X145255180Y-96199301D01*
X145253216Y-96178522D01*
X145253215Y-96178518D01*
X145252493Y-96170873D01*
X145207209Y-96041924D01*
X145126010Y-95931990D01*
X145016076Y-95850791D01*
X144887127Y-95805507D01*
X144879485Y-95804785D01*
X144879482Y-95804784D01*
X144864579Y-95803376D01*
X144855315Y-95802500D01*
X144526223Y-95802500D01*
X144196686Y-95802501D01*
X144193738Y-95802780D01*
X144193729Y-95802780D01*
X144172522Y-95804784D01*
X144172520Y-95804784D01*
X144164873Y-95805507D01*
X144035924Y-95850791D01*
X143925990Y-95931990D01*
X143844791Y-96041924D01*
X143799507Y-96170873D01*
X143796500Y-96202685D01*
X143796500Y-96394001D01*
X143776499Y-96462120D01*
X143722844Y-96508613D01*
X143670501Y-96520000D01*
X139737801Y-96520000D01*
X139669680Y-96499998D01*
X139648706Y-96483095D01*
X139459395Y-96293784D01*
X139444253Y-96275036D01*
X139443138Y-96273811D01*
X139437488Y-96265060D01*
X139416991Y-96248902D01*
X139375878Y-96191023D01*
X139372583Y-96120103D01*
X139395034Y-96073247D01*
X139417328Y-96044194D01*
X139417330Y-96044191D01*
X139422355Y-96037642D01*
X139427310Y-96025681D01*
X139475069Y-95910380D01*
X139478228Y-95902754D01*
X139480566Y-95885000D01*
X139496207Y-95766188D01*
X139497285Y-95758000D01*
X139480844Y-95633114D01*
X139479306Y-95621432D01*
X139479305Y-95621430D01*
X139478228Y-95613246D01*
X139422355Y-95478358D01*
X139355787Y-95391605D01*
X139338501Y-95369077D01*
X139338500Y-95369076D01*
X139333474Y-95362526D01*
X139326924Y-95357500D01*
X139326921Y-95357497D01*
X139224196Y-95278673D01*
X139224194Y-95278672D01*
X139217643Y-95273645D01*
X139082754Y-95217772D01*
X138950844Y-95200406D01*
X138885917Y-95171684D01*
X138846825Y-95112419D01*
X138845980Y-95041427D01*
X138878195Y-94986389D01*
X138878910Y-94985674D01*
X138941222Y-94951648D01*
X138951550Y-94949849D01*
X139079924Y-94932948D01*
X139214813Y-94877075D01*
X139221366Y-94872047D01*
X139324091Y-94793223D01*
X139324094Y-94793220D01*
X139330644Y-94788194D01*
X139419525Y-94672362D01*
X139475398Y-94537474D01*
X139494455Y-94392720D01*
X139483943Y-94312872D01*
X139476476Y-94256152D01*
X139476475Y-94256150D01*
X139475398Y-94247966D01*
X139419525Y-94113078D01*
X139330644Y-93997246D01*
X139324094Y-93992220D01*
X139324091Y-93992217D01*
X139221366Y-93913393D01*
X139221364Y-93913392D01*
X139214813Y-93908365D01*
X139079924Y-93852492D01*
X138935170Y-93833435D01*
X138926982Y-93834513D01*
X138798602Y-93851414D01*
X138798600Y-93851415D01*
X138790416Y-93852492D01*
X138742600Y-93872298D01*
X138663156Y-93905205D01*
X138663154Y-93905206D01*
X138655528Y-93908365D01*
X138539696Y-93997246D01*
X138450815Y-94113078D01*
X138394942Y-94247966D01*
X138393865Y-94256150D01*
X138393864Y-94256152D01*
X138378043Y-94376331D01*
X138349321Y-94441258D01*
X138342216Y-94448980D01*
X137879784Y-94911412D01*
X137861036Y-94926554D01*
X137859811Y-94927669D01*
X137851060Y-94933319D01*
X137844613Y-94941497D01*
X137844611Y-94941499D01*
X137830271Y-94959690D01*
X137826325Y-94964131D01*
X137826398Y-94964193D01*
X137823039Y-94968157D01*
X137819362Y-94971834D01*
X137808108Y-94987582D01*
X137804602Y-94992252D01*
X137772844Y-95032537D01*
X137769812Y-95041171D01*
X137764486Y-95048624D01*
X137753410Y-95085661D01*
X137749799Y-95097734D01*
X137747964Y-95103383D01*
X137732345Y-95147858D01*
X137695235Y-95199474D01*
X137695608Y-95199847D01*
X137693329Y-95202126D01*
X137690901Y-95205503D01*
X137687485Y-95207970D01*
X137686832Y-95208623D01*
X137676516Y-95215516D01*
X137620266Y-95299699D01*
X137605500Y-95373933D01*
X137605501Y-95674066D01*
X137620266Y-95748301D01*
X137616066Y-95749136D01*
X137621157Y-95796324D01*
X137620172Y-95799680D01*
X137620266Y-95799699D01*
X137605500Y-95873933D01*
X137605501Y-96174066D01*
X137611783Y-96205649D01*
X137620266Y-96248301D01*
X137616066Y-96249136D01*
X137621157Y-96296324D01*
X137620172Y-96299680D01*
X137620266Y-96299699D01*
X137605500Y-96373933D01*
X137605500Y-96394000D01*
X137585498Y-96462121D01*
X137531842Y-96508614D01*
X137479500Y-96520000D01*
X136981200Y-96520000D01*
X136913079Y-96499998D01*
X136866586Y-96446342D01*
X136855200Y-96394000D01*
X136855200Y-95501097D01*
X136875202Y-95432976D01*
X136918849Y-95391605D01*
X136947876Y-95375076D01*
X137001532Y-95328583D01*
X137032973Y-95295999D01*
X137078909Y-95208182D01*
X137098911Y-95140061D01*
X137109200Y-95068501D01*
X137109200Y-93217000D01*
X137103396Y-93163010D01*
X137099574Y-93145440D01*
X137092370Y-93112322D01*
X137092368Y-93112315D01*
X137092010Y-93110668D01*
X137084816Y-93084445D01*
X137046605Y-93017342D01*
X137038838Y-93003702D01*
X137038835Y-93003698D01*
X137035775Y-92998324D01*
X136999897Y-92956918D01*
X136991122Y-92946791D01*
X136991117Y-92946786D01*
X136989282Y-92944668D01*
X136956698Y-92913227D01*
X136868881Y-92867291D01*
X136800760Y-92847289D01*
X136796301Y-92846648D01*
X136796297Y-92846647D01*
X136764980Y-92842145D01*
X136729200Y-92837000D01*
X133222000Y-92837000D01*
X133218653Y-92837360D01*
X133218649Y-92837360D01*
X133171374Y-92842442D01*
X133171367Y-92842443D01*
X133168010Y-92842804D01*
X133164710Y-92843522D01*
X133164709Y-92843522D01*
X133117322Y-92853830D01*
X133117315Y-92853832D01*
X133115668Y-92854190D01*
X133089445Y-92861384D01*
X133048680Y-92884597D01*
X133008702Y-92907362D01*
X133008698Y-92907365D01*
X133003324Y-92910425D01*
X132998647Y-92914478D01*
X132966055Y-92942719D01*
X132949668Y-92956918D01*
X132918227Y-92989502D01*
X132872291Y-93077319D01*
X132852289Y-93145440D01*
X132851648Y-93149899D01*
X132851647Y-93149903D01*
X132847144Y-93181220D01*
X132842000Y-93217000D01*
X132842000Y-95518500D01*
X132821998Y-95586621D01*
X132768342Y-95633114D01*
X132716000Y-95644500D01*
X132675500Y-95644500D01*
X132607379Y-95624498D01*
X132560886Y-95570842D01*
X132549500Y-95518500D01*
X132549499Y-94381123D01*
X132549499Y-94374934D01*
X132534734Y-94300699D01*
X132499499Y-94247966D01*
X132485377Y-94226832D01*
X132478484Y-94216516D01*
X132394301Y-94160266D01*
X132320067Y-94145500D01*
X131445142Y-94145500D01*
X130569934Y-94145501D01*
X130534182Y-94152612D01*
X130507874Y-94157844D01*
X130507872Y-94157845D01*
X130495699Y-94160266D01*
X130485379Y-94167161D01*
X130485378Y-94167162D01*
X130424985Y-94207516D01*
X130411516Y-94216516D01*
X130355266Y-94300699D01*
X130340500Y-94374933D01*
X130340501Y-96125066D01*
X130355266Y-96199301D01*
X130362161Y-96209621D01*
X130362162Y-96209622D01*
X130378025Y-96233362D01*
X130411516Y-96283484D01*
X130495699Y-96339734D01*
X130569933Y-96354500D01*
X130805757Y-96354500D01*
X131993210Y-96354499D01*
X132034947Y-96361612D01*
X132036931Y-96362309D01*
X132043509Y-96365064D01*
X132049734Y-96369513D01*
X132062245Y-96373255D01*
X132065271Y-96375221D01*
X132069066Y-96377080D01*
X132068841Y-96377540D01*
X132121779Y-96411935D01*
X132150949Y-96476662D01*
X132140495Y-96546885D01*
X132115239Y-96583067D01*
X131970144Y-96728162D01*
X131907832Y-96762188D01*
X131834360Y-96756097D01*
X131760039Y-96726446D01*
X131754379Y-96725320D01*
X131754375Y-96725319D01*
X131566613Y-96687971D01*
X131566610Y-96687971D01*
X131560946Y-96686844D01*
X131555171Y-96686768D01*
X131555167Y-96686768D01*
X131453793Y-96685441D01*
X131357971Y-96684187D01*
X131352274Y-96685166D01*
X131352273Y-96685166D01*
X131316116Y-96691379D01*
X131157910Y-96718564D01*
X130967463Y-96788824D01*
X130793010Y-96892612D01*
X130788670Y-96896418D01*
X130788666Y-96896421D01*
X130644733Y-97022648D01*
X130640392Y-97026455D01*
X130514720Y-97185869D01*
X130420203Y-97365515D01*
X130381718Y-97489456D01*
X130363265Y-97548887D01*
X130360007Y-97559378D01*
X130336148Y-97760964D01*
X130349424Y-97963522D01*
X130350845Y-97969118D01*
X130350846Y-97969123D01*
X130371119Y-98048945D01*
X130399392Y-98160269D01*
X130401809Y-98165512D01*
X130437145Y-98242162D01*
X130484377Y-98344616D01*
X130487710Y-98349332D01*
X130529492Y-98408452D01*
X130601533Y-98510389D01*
X130746938Y-98652035D01*
X130751742Y-98655245D01*
X130760367Y-98661008D01*
X130915720Y-98764812D01*
X130921023Y-98767090D01*
X130921026Y-98767092D01*
X131083745Y-98837001D01*
X131102228Y-98844942D01*
X131136651Y-98852731D01*
X131294579Y-98888467D01*
X131294584Y-98888468D01*
X131300216Y-98889742D01*
X131305987Y-98889969D01*
X131305989Y-98889969D01*
X131365756Y-98892317D01*
X131503053Y-98897712D01*
X131603499Y-98883148D01*
X131698231Y-98869413D01*
X131698236Y-98869412D01*
X131703945Y-98868584D01*
X131709409Y-98866729D01*
X131709414Y-98866728D01*
X131890693Y-98805192D01*
X131890698Y-98805190D01*
X131896165Y-98803334D01*
X131903985Y-98798955D01*
X131995433Y-98747741D01*
X132073276Y-98704147D01*
X132092303Y-98688323D01*
X132224913Y-98578031D01*
X132229345Y-98574345D01*
X132308997Y-98478575D01*
X132355453Y-98422718D01*
X132355455Y-98422715D01*
X132359147Y-98418276D01*
X132425991Y-98298918D01*
X132455510Y-98246208D01*
X132455511Y-98246206D01*
X132458334Y-98241165D01*
X132460190Y-98235698D01*
X132460192Y-98235693D01*
X132521728Y-98054414D01*
X132521729Y-98054409D01*
X132523584Y-98048945D01*
X132524412Y-98043236D01*
X132524413Y-98043231D01*
X132544255Y-97906379D01*
X132552712Y-97848053D01*
X132554232Y-97790000D01*
X132536887Y-97601235D01*
X132536187Y-97593613D01*
X132536186Y-97593610D01*
X132535658Y-97587859D01*
X132529575Y-97566291D01*
X132482127Y-97398053D01*
X132482126Y-97398051D01*
X132480557Y-97392487D01*
X132481058Y-97392346D01*
X132475618Y-97325289D01*
X132509894Y-97261800D01*
X132831289Y-96940405D01*
X132893601Y-96906379D01*
X132920384Y-96903500D01*
X133732000Y-96903500D01*
X133800121Y-96923502D01*
X133846614Y-96977158D01*
X133858000Y-97029500D01*
X133858000Y-97328116D01*
X133837998Y-97396237D01*
X133821095Y-97417211D01*
X131970144Y-99268162D01*
X131907832Y-99302188D01*
X131834360Y-99296097D01*
X131760039Y-99266446D01*
X131754379Y-99265320D01*
X131754375Y-99265319D01*
X131566613Y-99227971D01*
X131566610Y-99227971D01*
X131560946Y-99226844D01*
X131555171Y-99226768D01*
X131555167Y-99226768D01*
X131453793Y-99225441D01*
X131357971Y-99224187D01*
X131352274Y-99225166D01*
X131352273Y-99225166D01*
X131163607Y-99257585D01*
X131157910Y-99258564D01*
X130967463Y-99328824D01*
X130793010Y-99432612D01*
X130788670Y-99436418D01*
X130788666Y-99436421D01*
X130651984Y-99556289D01*
X130640392Y-99566455D01*
X130514720Y-99725869D01*
X130420203Y-99905515D01*
X130360007Y-100099378D01*
X130336148Y-100300964D01*
X130349424Y-100503522D01*
X130350845Y-100509118D01*
X130350846Y-100509123D01*
X130397608Y-100693246D01*
X130399392Y-100700269D01*
X130401809Y-100705512D01*
X130439010Y-100786208D01*
X130484377Y-100884616D01*
X130487710Y-100889332D01*
X130593225Y-101038633D01*
X130601533Y-101050389D01*
X130746938Y-101192035D01*
X130751742Y-101195245D01*
X130819400Y-101240453D01*
X130915720Y-101304812D01*
X130921023Y-101307090D01*
X130921026Y-101307092D01*
X131090609Y-101379950D01*
X131102228Y-101384942D01*
X131175244Y-101401464D01*
X131294579Y-101428467D01*
X131294584Y-101428468D01*
X131300216Y-101429742D01*
X131305987Y-101429969D01*
X131305989Y-101429969D01*
X131365756Y-101432317D01*
X131503053Y-101437712D01*
X131603499Y-101423148D01*
X131698231Y-101409413D01*
X131698236Y-101409412D01*
X131703945Y-101408584D01*
X131709409Y-101406729D01*
X131709414Y-101406728D01*
X131890693Y-101345192D01*
X131890698Y-101345190D01*
X131896165Y-101343334D01*
X132073276Y-101244147D01*
X132105477Y-101217366D01*
X132206441Y-101133394D01*
X132229345Y-101114345D01*
X132286463Y-101045669D01*
X132355453Y-100962718D01*
X132355455Y-100962715D01*
X132359147Y-100958276D01*
X132458334Y-100781165D01*
X132460190Y-100775698D01*
X132460192Y-100775693D01*
X132521728Y-100594414D01*
X132521729Y-100594409D01*
X132523584Y-100588945D01*
X132524412Y-100583236D01*
X132524413Y-100583231D01*
X132552179Y-100391727D01*
X132552712Y-100388053D01*
X132554232Y-100330000D01*
X132539595Y-100170702D01*
X132536187Y-100133613D01*
X132536186Y-100133610D01*
X132535658Y-100127859D01*
X132534043Y-100122131D01*
X132482127Y-99938053D01*
X132482126Y-99938051D01*
X132480557Y-99932487D01*
X132481058Y-99932346D01*
X132475618Y-99865289D01*
X132509894Y-99801800D01*
X132755405Y-99556289D01*
X132817717Y-99522263D01*
X132888532Y-99527328D01*
X132945368Y-99569875D01*
X132970179Y-99636395D01*
X132970500Y-99645384D01*
X132970500Y-100755616D01*
X132950498Y-100823737D01*
X132933595Y-100844711D01*
X131970144Y-101808162D01*
X131907832Y-101842188D01*
X131834360Y-101836097D01*
X131760039Y-101806446D01*
X131754379Y-101805320D01*
X131754375Y-101805319D01*
X131566613Y-101767971D01*
X131566610Y-101767971D01*
X131560946Y-101766844D01*
X131555171Y-101766768D01*
X131555167Y-101766768D01*
X131453793Y-101765441D01*
X131357971Y-101764187D01*
X131352274Y-101765166D01*
X131352273Y-101765166D01*
X131200102Y-101791314D01*
X131157910Y-101798564D01*
X130967463Y-101868824D01*
X130793010Y-101972612D01*
X130788670Y-101976418D01*
X130788666Y-101976421D01*
X130662943Y-102086678D01*
X130640392Y-102106455D01*
X130514720Y-102265869D01*
X130420203Y-102445515D01*
X130418490Y-102451033D01*
X130367138Y-102616414D01*
X130360007Y-102639378D01*
X130336148Y-102840964D01*
X130349424Y-103043522D01*
X130350845Y-103049118D01*
X130350846Y-103049123D01*
X130397971Y-103234674D01*
X130399392Y-103240269D01*
X130401809Y-103245512D01*
X130439010Y-103326208D01*
X130484377Y-103424616D01*
X130601533Y-103590389D01*
X130746938Y-103732035D01*
X130915720Y-103844812D01*
X130921023Y-103847090D01*
X130921026Y-103847092D01*
X131039144Y-103897839D01*
X131102228Y-103924942D01*
X131175244Y-103941464D01*
X131294579Y-103968467D01*
X131294584Y-103968468D01*
X131300216Y-103969742D01*
X131305987Y-103969969D01*
X131305989Y-103969969D01*
X131365756Y-103972317D01*
X131503053Y-103977712D01*
X131603499Y-103963148D01*
X131698231Y-103949413D01*
X131698236Y-103949412D01*
X131703945Y-103948584D01*
X131709409Y-103946729D01*
X131709414Y-103946728D01*
X131890693Y-103885192D01*
X131890698Y-103885190D01*
X131896165Y-103883334D01*
X132073276Y-103784147D01*
X132135934Y-103732035D01*
X132224913Y-103658031D01*
X132229345Y-103654345D01*
X132359147Y-103498276D01*
X132458334Y-103321165D01*
X132460190Y-103315698D01*
X132460192Y-103315693D01*
X132521728Y-103134414D01*
X132521729Y-103134409D01*
X132523584Y-103128945D01*
X132524412Y-103123236D01*
X132524413Y-103123231D01*
X132552179Y-102931727D01*
X132552712Y-102928053D01*
X132554232Y-102870000D01*
X132538676Y-102700699D01*
X132536187Y-102673613D01*
X132536186Y-102673610D01*
X132535658Y-102667859D01*
X132534090Y-102662299D01*
X132482127Y-102478053D01*
X132482126Y-102478051D01*
X132480557Y-102472487D01*
X132481058Y-102472346D01*
X132475618Y-102405289D01*
X132509894Y-102341800D01*
X133580216Y-101271478D01*
X133598964Y-101256336D01*
X133600189Y-101255221D01*
X133608940Y-101249571D01*
X133615387Y-101241393D01*
X133615389Y-101241391D01*
X133629729Y-101223200D01*
X133633675Y-101218759D01*
X133633602Y-101218697D01*
X133636961Y-101214733D01*
X133640638Y-101211056D01*
X133651892Y-101195308D01*
X133655398Y-101190638D01*
X133687156Y-101150353D01*
X133690188Y-101141719D01*
X133695514Y-101134266D01*
X133710203Y-101085150D01*
X133712036Y-101079508D01*
X133726390Y-101038633D01*
X133726390Y-101038632D01*
X133729018Y-101031149D01*
X133729500Y-101025584D01*
X133729500Y-101022876D01*
X133729614Y-101020242D01*
X133729643Y-101020144D01*
X133729807Y-101020151D01*
X133729851Y-101019447D01*
X133731713Y-101013222D01*
X133729597Y-100959365D01*
X133729500Y-100954418D01*
X133729500Y-99270102D01*
X133749502Y-99201981D01*
X133766405Y-99181007D01*
X135007007Y-97940405D01*
X135069319Y-97906379D01*
X135096102Y-97903500D01*
X136241524Y-97903500D01*
X136241526Y-97903499D01*
X136485066Y-97903499D01*
X136520818Y-97896388D01*
X136547126Y-97891156D01*
X136547128Y-97891155D01*
X136559301Y-97888734D01*
X136569621Y-97881839D01*
X136569622Y-97881838D01*
X136633168Y-97839377D01*
X136643484Y-97832484D01*
X136648115Y-97825554D01*
X136707952Y-97792879D01*
X136734735Y-97790000D01*
X137479500Y-97790000D01*
X137547621Y-97810002D01*
X137594114Y-97863658D01*
X137605500Y-97916000D01*
X137605501Y-98174066D01*
X137620266Y-98248301D01*
X137627161Y-98258621D01*
X137627162Y-98258622D01*
X137662616Y-98311681D01*
X137676516Y-98332484D01*
X137686832Y-98339377D01*
X137693595Y-98346140D01*
X137727621Y-98408452D01*
X137730500Y-98435235D01*
X137730500Y-98686080D01*
X137727951Y-98710028D01*
X137727872Y-98711693D01*
X137725680Y-98721876D01*
X137726904Y-98732217D01*
X137729627Y-98755223D01*
X137729977Y-98761154D01*
X137730072Y-98761146D01*
X137730500Y-98766324D01*
X137730500Y-98771524D01*
X137731354Y-98776653D01*
X137731354Y-98776656D01*
X137733669Y-98790565D01*
X137734506Y-98796443D01*
X137735831Y-98807634D01*
X137740530Y-98847341D01*
X137744493Y-98855593D01*
X137745996Y-98864626D01*
X137751143Y-98874166D01*
X137751263Y-98874728D01*
X137754317Y-98883650D01*
X137753236Y-98884020D01*
X137765890Y-98943613D01*
X137740749Y-99010009D01*
X137683703Y-99052273D01*
X137640257Y-99060000D01*
X136778000Y-99060000D01*
X136774653Y-99060360D01*
X136774649Y-99060360D01*
X136727374Y-99065442D01*
X136727367Y-99065443D01*
X136724010Y-99065804D01*
X136720710Y-99066522D01*
X136720709Y-99066522D01*
X136673322Y-99076830D01*
X136673315Y-99076832D01*
X136671668Y-99077190D01*
X136645445Y-99084384D01*
X136604680Y-99107597D01*
X136564702Y-99130362D01*
X136564698Y-99130365D01*
X136559324Y-99133425D01*
X136505668Y-99179918D01*
X136474227Y-99212502D01*
X136470052Y-99220483D01*
X136470050Y-99220486D01*
X136457992Y-99243538D01*
X136416348Y-99289901D01*
X136376516Y-99316516D01*
X136320266Y-99400699D01*
X136305500Y-99474933D01*
X136305501Y-100425066D01*
X136320266Y-100499301D01*
X136327161Y-100509621D01*
X136327162Y-100509622D01*
X136376516Y-100583484D01*
X136372757Y-100585996D01*
X136395121Y-100626952D01*
X136398000Y-100653735D01*
X136398000Y-101982000D01*
X136403804Y-102035990D01*
X136415190Y-102088332D01*
X136422384Y-102114555D01*
X136426284Y-102121403D01*
X136455151Y-102172097D01*
X136471478Y-102241191D01*
X136457307Y-102292849D01*
X136431157Y-102342839D01*
X136431155Y-102342843D01*
X136428291Y-102348319D01*
X136408289Y-102416440D01*
X136407648Y-102420899D01*
X136407647Y-102420903D01*
X136403315Y-102451033D01*
X136398000Y-102488000D01*
X136398000Y-102546265D01*
X136377998Y-102614386D01*
X136376364Y-102616414D01*
X136376516Y-102616516D01*
X136338365Y-102673613D01*
X136320266Y-102700699D01*
X136305500Y-102774933D01*
X136305501Y-103725066D01*
X136307526Y-103735245D01*
X136317814Y-103786972D01*
X136320266Y-103799301D01*
X136327161Y-103809621D01*
X136327162Y-103809622D01*
X136376516Y-103883484D01*
X136372757Y-103885996D01*
X136395121Y-103926952D01*
X136398000Y-103953735D01*
X136398000Y-104097054D01*
X136398261Y-104108573D01*
X136398779Y-104119983D01*
X136416288Y-104201798D01*
X136442376Y-104267827D01*
X136462700Y-104308285D01*
X136530335Y-104380725D01*
X136587977Y-104422167D01*
X136591977Y-104424252D01*
X136592063Y-104424305D01*
X136639582Y-104477054D01*
X136652000Y-104531598D01*
X136652000Y-105273071D01*
X136631998Y-105341192D01*
X136591701Y-105380585D01*
X136563782Y-105397646D01*
X136563776Y-105397650D01*
X136559324Y-105400371D01*
X136555384Y-105403785D01*
X136555380Y-105403788D01*
X136507791Y-105445024D01*
X136505668Y-105446864D01*
X136474227Y-105479448D01*
X136428291Y-105567265D01*
X136408289Y-105635386D01*
X136398000Y-105706946D01*
X136398000Y-106773514D01*
X136377998Y-106841635D01*
X136324342Y-106888128D01*
X136254068Y-106898232D01*
X136225311Y-106890544D01*
X136215039Y-106886446D01*
X136209379Y-106885320D01*
X136209375Y-106885319D01*
X136021613Y-106847971D01*
X136021610Y-106847971D01*
X136015946Y-106846844D01*
X136010171Y-106846768D01*
X136010167Y-106846768D01*
X135908793Y-106845441D01*
X135812971Y-106844187D01*
X135807274Y-106845166D01*
X135807273Y-106845166D01*
X135679271Y-106867161D01*
X135612910Y-106878564D01*
X135422463Y-106948824D01*
X135248010Y-107052612D01*
X135243670Y-107056418D01*
X135243666Y-107056421D01*
X135158611Y-107131013D01*
X135095392Y-107186455D01*
X134969720Y-107345869D01*
X134967031Y-107350980D01*
X134967029Y-107350983D01*
X134954073Y-107375609D01*
X134875203Y-107525515D01*
X134815007Y-107719378D01*
X134791148Y-107920964D01*
X134804424Y-108123522D01*
X134805845Y-108129118D01*
X134805846Y-108129123D01*
X134826119Y-108208945D01*
X134854392Y-108320269D01*
X134856809Y-108325512D01*
X134894010Y-108406208D01*
X134939377Y-108504616D01*
X135056533Y-108670389D01*
X135060675Y-108674424D01*
X135137996Y-108749746D01*
X135172834Y-108811607D01*
X135168697Y-108882483D01*
X135126898Y-108939871D01*
X135060709Y-108965550D01*
X135050075Y-108966000D01*
X134214357Y-108966000D01*
X134146236Y-108945998D01*
X134099743Y-108892342D01*
X134089639Y-108822068D01*
X134119133Y-108757488D01*
X134133788Y-108743126D01*
X134139908Y-108738036D01*
X134139913Y-108738031D01*
X134144345Y-108734345D01*
X134172734Y-108700211D01*
X134270453Y-108582718D01*
X134270455Y-108582715D01*
X134274147Y-108578276D01*
X134373334Y-108401165D01*
X134375190Y-108395698D01*
X134375192Y-108395693D01*
X134436728Y-108214414D01*
X134436729Y-108214409D01*
X134438584Y-108208945D01*
X134439412Y-108203236D01*
X134439413Y-108203231D01*
X134467179Y-108011727D01*
X134467712Y-108008053D01*
X134469232Y-107950000D01*
X134454930Y-107794346D01*
X134451187Y-107753613D01*
X134451186Y-107753610D01*
X134450658Y-107747859D01*
X134447145Y-107735403D01*
X134397125Y-107558046D01*
X134397124Y-107558044D01*
X134395557Y-107552487D01*
X134384978Y-107531033D01*
X134308331Y-107375609D01*
X134305776Y-107370428D01*
X134184320Y-107207779D01*
X134035258Y-107069987D01*
X134030375Y-107066906D01*
X134030371Y-107066903D01*
X133868464Y-106964748D01*
X133863581Y-106961667D01*
X133675039Y-106886446D01*
X133669379Y-106885320D01*
X133669375Y-106885319D01*
X133481613Y-106847971D01*
X133481610Y-106847971D01*
X133475946Y-106846844D01*
X133470171Y-106846768D01*
X133470167Y-106846768D01*
X133368793Y-106845441D01*
X133272971Y-106844187D01*
X133267274Y-106845166D01*
X133267273Y-106845166D01*
X133139271Y-106867161D01*
X133072910Y-106878564D01*
X132882463Y-106948824D01*
X132708010Y-107052612D01*
X132703670Y-107056418D01*
X132703666Y-107056421D01*
X132618611Y-107131013D01*
X132555392Y-107186455D01*
X132429720Y-107345869D01*
X132427031Y-107350980D01*
X132427029Y-107350983D01*
X132414073Y-107375609D01*
X132335203Y-107525515D01*
X132275007Y-107719378D01*
X132251148Y-107920964D01*
X132264424Y-108123522D01*
X132265845Y-108129118D01*
X132265846Y-108129123D01*
X132286119Y-108208945D01*
X132314392Y-108320269D01*
X132316809Y-108325512D01*
X132354010Y-108406208D01*
X132399377Y-108504616D01*
X132516533Y-108670389D01*
X132520675Y-108674424D01*
X132597996Y-108749746D01*
X132632834Y-108811607D01*
X132628697Y-108882483D01*
X132586898Y-108939871D01*
X132520709Y-108965550D01*
X132510075Y-108966000D01*
X131674357Y-108966000D01*
X131606236Y-108945998D01*
X131559743Y-108892342D01*
X131549639Y-108822068D01*
X131579133Y-108757488D01*
X131593788Y-108743126D01*
X131599908Y-108738036D01*
X131599913Y-108738031D01*
X131604345Y-108734345D01*
X131632734Y-108700211D01*
X131730453Y-108582718D01*
X131730455Y-108582715D01*
X131734147Y-108578276D01*
X131833334Y-108401165D01*
X131835190Y-108395698D01*
X131835192Y-108395693D01*
X131896728Y-108214414D01*
X131896729Y-108214409D01*
X131898584Y-108208945D01*
X131899412Y-108203236D01*
X131899413Y-108203231D01*
X131927179Y-108011727D01*
X131927712Y-108008053D01*
X131929232Y-107950000D01*
X131914930Y-107794346D01*
X131911187Y-107753613D01*
X131911186Y-107753610D01*
X131910658Y-107747859D01*
X131907145Y-107735403D01*
X131857125Y-107558046D01*
X131857124Y-107558044D01*
X131855557Y-107552487D01*
X131844978Y-107531033D01*
X131768331Y-107375609D01*
X131765776Y-107370428D01*
X131644320Y-107207779D01*
X131495258Y-107069987D01*
X131490375Y-107066906D01*
X131490371Y-107066903D01*
X131328464Y-106964748D01*
X131323581Y-106961667D01*
X131135039Y-106886446D01*
X131129379Y-106885320D01*
X131129375Y-106885319D01*
X130941613Y-106847971D01*
X130941610Y-106847971D01*
X130935946Y-106846844D01*
X130930171Y-106846768D01*
X130930167Y-106846768D01*
X130828793Y-106845441D01*
X130732971Y-106844187D01*
X130727274Y-106845166D01*
X130727273Y-106845166D01*
X130599271Y-106867161D01*
X130532910Y-106878564D01*
X130342463Y-106948824D01*
X130168010Y-107052612D01*
X130163670Y-107056418D01*
X130163666Y-107056421D01*
X130078611Y-107131013D01*
X130015392Y-107186455D01*
X129889720Y-107345869D01*
X129887031Y-107350980D01*
X129887029Y-107350983D01*
X129874073Y-107375609D01*
X129795203Y-107525515D01*
X129735007Y-107719378D01*
X129711148Y-107920964D01*
X129724424Y-108123522D01*
X129725845Y-108129118D01*
X129725846Y-108129123D01*
X129746119Y-108208945D01*
X129774392Y-108320269D01*
X129776809Y-108325512D01*
X129814010Y-108406208D01*
X129859377Y-108504616D01*
X129976533Y-108670389D01*
X129980675Y-108674424D01*
X130057996Y-108749746D01*
X130092834Y-108811607D01*
X130088697Y-108882483D01*
X130046898Y-108939871D01*
X129980709Y-108965550D01*
X129970075Y-108966000D01*
X129509029Y-108966000D01*
X129440908Y-108945998D01*
X129394415Y-108892342D01*
X129383796Y-108828607D01*
X129384500Y-108825067D01*
X129384499Y-107074934D01*
X129369734Y-107000699D01*
X129344574Y-106963044D01*
X129320377Y-106926832D01*
X129313484Y-106916516D01*
X129229301Y-106860266D01*
X129155067Y-106845500D01*
X128280142Y-106845500D01*
X127404934Y-106845501D01*
X127369182Y-106852612D01*
X127342874Y-106857844D01*
X127342872Y-106857845D01*
X127330699Y-106860266D01*
X127320379Y-106867161D01*
X127320378Y-106867162D01*
X127273348Y-106898587D01*
X127246516Y-106916516D01*
X127190266Y-107000699D01*
X127175500Y-107074933D01*
X127175501Y-108825066D01*
X127176194Y-108828550D01*
X127163137Y-108897402D01*
X127114297Y-108948931D01*
X127050972Y-108966000D01*
X124497425Y-108966000D01*
X124472847Y-108963579D01*
X124460000Y-108961024D01*
X124447830Y-108963445D01*
X124435417Y-108963445D01*
X124435417Y-108963120D01*
X124424581Y-108963858D01*
X124268875Y-108954439D01*
X124192060Y-108949792D01*
X124176956Y-108947958D01*
X123920423Y-108900947D01*
X123905650Y-108897306D01*
X123811212Y-108867878D01*
X123656642Y-108819712D01*
X123642424Y-108814320D01*
X123404594Y-108707280D01*
X123391124Y-108700211D01*
X123167926Y-108565283D01*
X123155404Y-108556640D01*
X122950096Y-108395791D01*
X122938708Y-108385701D01*
X122754299Y-108201292D01*
X122744209Y-108189904D01*
X122583360Y-107984596D01*
X122574717Y-107972074D01*
X122439789Y-107748876D01*
X122432718Y-107735403D01*
X122423023Y-107713861D01*
X122325680Y-107497576D01*
X122320286Y-107483353D01*
X122285098Y-107370428D01*
X122242694Y-107234350D01*
X122239053Y-107219577D01*
X122192042Y-106963044D01*
X122190208Y-106947940D01*
X122184758Y-106857844D01*
X122176142Y-106715419D01*
X122176880Y-106704583D01*
X122176555Y-106704583D01*
X122176555Y-106692170D01*
X122178976Y-106680000D01*
X123201210Y-106680000D01*
X123220334Y-106898587D01*
X123221758Y-106903900D01*
X123221758Y-106903902D01*
X123267586Y-107074934D01*
X123277124Y-107110532D01*
X123279446Y-107115512D01*
X123279447Y-107115514D01*
X123367530Y-107304408D01*
X123367533Y-107304413D01*
X123369856Y-107309395D01*
X123373012Y-107313902D01*
X123373013Y-107313904D01*
X123451389Y-107425836D01*
X123495711Y-107489135D01*
X123650865Y-107644289D01*
X123655373Y-107647446D01*
X123655376Y-107647448D01*
X123800231Y-107748876D01*
X123830605Y-107770144D01*
X123835587Y-107772467D01*
X123835592Y-107772470D01*
X124024486Y-107860553D01*
X124029468Y-107862876D01*
X124034776Y-107864298D01*
X124034778Y-107864299D01*
X124236098Y-107918242D01*
X124236100Y-107918242D01*
X124241413Y-107919666D01*
X124460000Y-107938790D01*
X124678587Y-107919666D01*
X124683900Y-107918242D01*
X124683902Y-107918242D01*
X124885222Y-107864299D01*
X124885224Y-107864298D01*
X124890532Y-107862876D01*
X124895514Y-107860553D01*
X125084408Y-107772470D01*
X125084413Y-107772467D01*
X125089395Y-107770144D01*
X125119769Y-107748876D01*
X125264624Y-107647448D01*
X125264627Y-107647446D01*
X125269135Y-107644289D01*
X125424289Y-107489135D01*
X125468612Y-107425836D01*
X125546987Y-107313904D01*
X125546988Y-107313902D01*
X125550144Y-107309395D01*
X125552467Y-107304413D01*
X125552470Y-107304408D01*
X125640553Y-107115514D01*
X125640554Y-107115512D01*
X125642876Y-107110532D01*
X125652415Y-107074934D01*
X125698242Y-106903902D01*
X125698242Y-106903900D01*
X125699666Y-106898587D01*
X125718790Y-106680000D01*
X125699666Y-106461413D01*
X125642876Y-106249468D01*
X125640553Y-106244486D01*
X125552470Y-106055592D01*
X125552467Y-106055587D01*
X125550144Y-106050605D01*
X125521362Y-106009500D01*
X125427448Y-105875376D01*
X125427446Y-105875373D01*
X125424289Y-105870865D01*
X125269135Y-105715711D01*
X125264627Y-105712554D01*
X125264624Y-105712552D01*
X125093904Y-105593013D01*
X125093902Y-105593012D01*
X125089395Y-105589856D01*
X125084413Y-105587533D01*
X125084408Y-105587530D01*
X124895514Y-105499447D01*
X124895512Y-105499446D01*
X124890532Y-105497124D01*
X124885224Y-105495702D01*
X124885222Y-105495701D01*
X124683902Y-105441758D01*
X124683900Y-105441758D01*
X124678587Y-105440334D01*
X124460000Y-105421210D01*
X124241413Y-105440334D01*
X124236100Y-105441758D01*
X124236098Y-105441758D01*
X124034778Y-105495701D01*
X124034776Y-105495702D01*
X124029468Y-105497124D01*
X124024488Y-105499446D01*
X124024486Y-105499447D01*
X123835592Y-105587530D01*
X123835587Y-105587533D01*
X123830605Y-105589856D01*
X123826098Y-105593012D01*
X123826096Y-105593013D01*
X123655376Y-105712552D01*
X123655373Y-105712554D01*
X123650865Y-105715711D01*
X123495711Y-105870865D01*
X123492554Y-105875373D01*
X123492552Y-105875376D01*
X123398638Y-106009500D01*
X123369856Y-106050605D01*
X123367533Y-106055587D01*
X123367530Y-106055592D01*
X123279447Y-106244486D01*
X123277124Y-106249468D01*
X123220334Y-106461413D01*
X123202121Y-106669584D01*
X123201210Y-106680000D01*
X122178976Y-106680000D01*
X122176421Y-106667153D01*
X122174000Y-106642575D01*
X122174000Y-105155000D01*
X122194002Y-105086879D01*
X122247658Y-105040386D01*
X122300000Y-105029000D01*
X129502575Y-105029000D01*
X129527153Y-105031421D01*
X129540000Y-105033976D01*
X129639106Y-105014263D01*
X129723124Y-104958124D01*
X129779263Y-104874106D01*
X129794000Y-104800017D01*
X129798976Y-104775000D01*
X129796421Y-104762153D01*
X129794000Y-104737575D01*
X129794000Y-93382425D01*
X129796421Y-93357844D01*
X129796555Y-93357170D01*
X129798976Y-93345000D01*
X129779263Y-93245894D01*
X129723124Y-93161876D01*
X129639106Y-93105737D01*
X129565017Y-93091000D01*
X129552172Y-93088445D01*
X129540000Y-93086024D01*
X129527153Y-93088579D01*
X129502575Y-93091000D01*
X122300000Y-93091000D01*
X122231879Y-93070998D01*
X122185386Y-93017342D01*
X122174000Y-92965000D01*
X122174000Y-91477425D01*
X122176421Y-91452844D01*
X122176555Y-91452170D01*
X122178976Y-91440000D01*
X123201210Y-91440000D01*
X123220334Y-91658587D01*
X123277124Y-91870532D01*
X123279446Y-91875512D01*
X123279447Y-91875514D01*
X123367530Y-92064408D01*
X123367533Y-92064413D01*
X123369856Y-92069395D01*
X123373012Y-92073902D01*
X123373013Y-92073904D01*
X123451389Y-92185836D01*
X123495711Y-92249135D01*
X123650865Y-92404289D01*
X123655373Y-92407446D01*
X123655376Y-92407448D01*
X123826096Y-92526987D01*
X123830605Y-92530144D01*
X123835587Y-92532467D01*
X123835592Y-92532470D01*
X124024486Y-92620553D01*
X124029468Y-92622876D01*
X124034776Y-92624298D01*
X124034778Y-92624299D01*
X124236098Y-92678242D01*
X124236100Y-92678242D01*
X124241413Y-92679666D01*
X124460000Y-92698790D01*
X124678587Y-92679666D01*
X124683900Y-92678242D01*
X124683902Y-92678242D01*
X124885222Y-92624299D01*
X124885224Y-92624298D01*
X124890532Y-92622876D01*
X124895514Y-92620553D01*
X125084408Y-92532470D01*
X125084413Y-92532467D01*
X125089395Y-92530144D01*
X125093904Y-92526987D01*
X125264624Y-92407448D01*
X125264627Y-92407446D01*
X125269135Y-92404289D01*
X125424289Y-92249135D01*
X125468612Y-92185836D01*
X125546987Y-92073904D01*
X125546988Y-92073902D01*
X125550144Y-92069395D01*
X125552467Y-92064413D01*
X125552470Y-92064408D01*
X125640553Y-91875514D01*
X125640554Y-91875512D01*
X125642876Y-91870532D01*
X125699666Y-91658587D01*
X125718790Y-91440000D01*
X125699666Y-91221413D01*
X125675071Y-91129622D01*
X125644299Y-91014778D01*
X125644298Y-91014776D01*
X125642876Y-91009468D01*
X125630233Y-90982355D01*
X125552470Y-90815592D01*
X125552467Y-90815587D01*
X125550144Y-90810605D01*
X125546987Y-90806096D01*
X125427448Y-90635376D01*
X125427446Y-90635373D01*
X125424289Y-90630865D01*
X125269135Y-90475711D01*
X125264627Y-90472554D01*
X125264624Y-90472552D01*
X125093904Y-90353013D01*
X125093902Y-90353012D01*
X125089395Y-90349856D01*
X125084413Y-90347533D01*
X125084408Y-90347530D01*
X124895514Y-90259447D01*
X124895512Y-90259446D01*
X124890532Y-90257124D01*
X124885224Y-90255702D01*
X124885222Y-90255701D01*
X124683902Y-90201758D01*
X124683900Y-90201758D01*
X124678587Y-90200334D01*
X124460000Y-90181210D01*
X124241413Y-90200334D01*
X124236100Y-90201758D01*
X124236098Y-90201758D01*
X124034778Y-90255701D01*
X124034776Y-90255702D01*
X124029468Y-90257124D01*
X124024488Y-90259446D01*
X124024486Y-90259447D01*
X123835592Y-90347530D01*
X123835587Y-90347533D01*
X123830605Y-90349856D01*
X123826098Y-90353012D01*
X123826096Y-90353013D01*
X123655376Y-90472552D01*
X123655373Y-90472554D01*
X123650865Y-90475711D01*
X123495711Y-90630865D01*
X123492554Y-90635373D01*
X123492552Y-90635376D01*
X123373013Y-90806096D01*
X123369856Y-90810605D01*
X123367533Y-90815587D01*
X123367530Y-90815592D01*
X123289767Y-90982355D01*
X123277124Y-91009468D01*
X123275702Y-91014776D01*
X123275701Y-91014778D01*
X123244929Y-91129622D01*
X123220334Y-91221413D01*
X123202121Y-91429584D01*
X123201210Y-91440000D01*
X122178976Y-91440000D01*
X122176555Y-91427830D01*
X122176555Y-91415417D01*
X122176880Y-91415417D01*
X122176142Y-91404578D01*
X122177465Y-91382721D01*
X122188931Y-91193168D01*
X122190208Y-91172060D01*
X122192042Y-91156956D01*
X122239053Y-90900423D01*
X122242694Y-90885650D01*
X122267484Y-90806096D01*
X122320288Y-90636642D01*
X122325682Y-90622420D01*
X122337086Y-90597083D01*
X122432720Y-90384594D01*
X122439789Y-90371124D01*
X122574717Y-90147926D01*
X122583360Y-90135404D01*
X122744209Y-89930096D01*
X122754299Y-89918708D01*
X122938708Y-89734299D01*
X122950096Y-89724209D01*
X123155404Y-89563360D01*
X123167926Y-89554717D01*
X123391124Y-89419789D01*
X123404594Y-89412720D01*
X123642424Y-89305680D01*
X123656642Y-89300288D01*
X123890395Y-89227448D01*
X123905650Y-89222694D01*
X123920423Y-89219053D01*
X124176956Y-89172042D01*
X124192060Y-89170208D01*
X124268875Y-89165561D01*
X124424581Y-89156142D01*
X124435417Y-89156880D01*
X124435417Y-89156555D01*
X124447830Y-89156555D01*
X124460000Y-89158976D01*
X124472847Y-89156421D01*
X124497425Y-89154000D01*
X127050971Y-89154000D01*
X127119092Y-89174002D01*
G37*
%TD.AperFunction*%
%TD*%
%TA.AperFunction,Conductor*%
%TO.N,/Vin*%
G36*
X150356608Y-89174002D02*
G01*
X150403101Y-89227658D01*
X150413205Y-89297932D01*
X150383711Y-89362512D01*
X150371565Y-89374732D01*
X150335392Y-89406455D01*
X150209720Y-89565869D01*
X150207031Y-89570980D01*
X150207029Y-89570983D01*
X150194073Y-89595609D01*
X150115203Y-89745515D01*
X150055007Y-89939378D01*
X150031148Y-90140964D01*
X150044424Y-90343522D01*
X150045845Y-90349118D01*
X150045846Y-90349123D01*
X150066119Y-90428945D01*
X150094392Y-90540269D01*
X150096809Y-90545512D01*
X150134010Y-90626208D01*
X150179377Y-90724616D01*
X150296533Y-90890389D01*
X150441938Y-91032035D01*
X150610720Y-91144812D01*
X150616023Y-91147090D01*
X150616026Y-91147092D01*
X150704707Y-91185192D01*
X150797228Y-91224942D01*
X150870244Y-91241464D01*
X150989579Y-91268467D01*
X150989584Y-91268468D01*
X150995216Y-91269742D01*
X151000987Y-91269969D01*
X151000989Y-91269969D01*
X151060756Y-91272317D01*
X151198053Y-91277712D01*
X151298499Y-91263148D01*
X151393231Y-91249413D01*
X151393236Y-91249412D01*
X151398945Y-91248584D01*
X151404409Y-91246729D01*
X151404414Y-91246728D01*
X151585693Y-91185192D01*
X151585698Y-91185190D01*
X151591165Y-91183334D01*
X151768276Y-91084147D01*
X151830934Y-91032035D01*
X151919913Y-90958031D01*
X151924345Y-90954345D01*
X152054147Y-90798276D01*
X152153334Y-90621165D01*
X152155190Y-90615698D01*
X152155192Y-90615693D01*
X152216728Y-90434414D01*
X152216729Y-90434409D01*
X152218584Y-90428945D01*
X152219412Y-90423236D01*
X152219413Y-90423231D01*
X152247179Y-90231727D01*
X152247712Y-90228053D01*
X152249232Y-90170000D01*
X152230658Y-89967859D01*
X152229090Y-89962299D01*
X152177125Y-89778046D01*
X152177124Y-89778044D01*
X152175557Y-89772487D01*
X152164978Y-89751033D01*
X152088331Y-89595609D01*
X152085776Y-89590428D01*
X151964320Y-89427779D01*
X151937134Y-89402648D01*
X151904546Y-89372524D01*
X151868101Y-89311596D01*
X151870382Y-89240636D01*
X151910665Y-89182174D01*
X151976160Y-89154771D01*
X151990075Y-89154000D01*
X152828487Y-89154000D01*
X152896608Y-89174002D01*
X152943101Y-89227658D01*
X152953205Y-89297932D01*
X152923711Y-89362512D01*
X152911565Y-89374732D01*
X152875392Y-89406455D01*
X152749720Y-89565869D01*
X152747031Y-89570980D01*
X152747029Y-89570983D01*
X152734073Y-89595609D01*
X152655203Y-89745515D01*
X152595007Y-89939378D01*
X152571148Y-90140964D01*
X152584424Y-90343522D01*
X152585845Y-90349118D01*
X152585846Y-90349123D01*
X152606119Y-90428945D01*
X152634392Y-90540269D01*
X152636809Y-90545512D01*
X152674010Y-90626208D01*
X152719377Y-90724616D01*
X152836533Y-90890389D01*
X152981938Y-91032035D01*
X153150720Y-91144812D01*
X153156023Y-91147090D01*
X153156026Y-91147092D01*
X153244707Y-91185192D01*
X153337228Y-91224942D01*
X153410244Y-91241464D01*
X153529579Y-91268467D01*
X153529584Y-91268468D01*
X153535216Y-91269742D01*
X153540987Y-91269969D01*
X153540989Y-91269969D01*
X153600756Y-91272317D01*
X153738053Y-91277712D01*
X153838499Y-91263148D01*
X153933231Y-91249413D01*
X153933236Y-91249412D01*
X153938945Y-91248584D01*
X153944409Y-91246729D01*
X153944414Y-91246728D01*
X154125693Y-91185192D01*
X154125698Y-91185190D01*
X154131165Y-91183334D01*
X154308276Y-91084147D01*
X154370934Y-91032035D01*
X154459913Y-90958031D01*
X154464345Y-90954345D01*
X154594147Y-90798276D01*
X154693334Y-90621165D01*
X154695190Y-90615698D01*
X154695192Y-90615693D01*
X154756728Y-90434414D01*
X154756729Y-90434409D01*
X154758584Y-90428945D01*
X154759412Y-90423236D01*
X154759413Y-90423231D01*
X154787179Y-90231727D01*
X154787712Y-90228053D01*
X154789232Y-90170000D01*
X154770658Y-89967859D01*
X154769090Y-89962299D01*
X154717125Y-89778046D01*
X154717124Y-89778044D01*
X154715557Y-89772487D01*
X154704978Y-89751033D01*
X154628331Y-89595609D01*
X154625776Y-89590428D01*
X154504320Y-89427779D01*
X154477134Y-89402648D01*
X154444546Y-89372524D01*
X154408101Y-89311596D01*
X154410382Y-89240636D01*
X154450665Y-89182174D01*
X154516160Y-89154771D01*
X154530075Y-89154000D01*
X155368487Y-89154000D01*
X155436608Y-89174002D01*
X155483101Y-89227658D01*
X155493205Y-89297932D01*
X155463711Y-89362512D01*
X155451565Y-89374732D01*
X155415392Y-89406455D01*
X155289720Y-89565869D01*
X155287031Y-89570980D01*
X155287029Y-89570983D01*
X155274073Y-89595609D01*
X155195203Y-89745515D01*
X155135007Y-89939378D01*
X155111148Y-90140964D01*
X155124424Y-90343522D01*
X155125845Y-90349118D01*
X155125846Y-90349123D01*
X155146119Y-90428945D01*
X155174392Y-90540269D01*
X155176809Y-90545512D01*
X155214010Y-90626208D01*
X155259377Y-90724616D01*
X155376533Y-90890389D01*
X155521938Y-91032035D01*
X155690720Y-91144812D01*
X155696023Y-91147090D01*
X155696026Y-91147092D01*
X155784707Y-91185192D01*
X155877228Y-91224942D01*
X155950244Y-91241464D01*
X156069579Y-91268467D01*
X156069584Y-91268468D01*
X156075216Y-91269742D01*
X156080987Y-91269969D01*
X156080989Y-91269969D01*
X156140756Y-91272317D01*
X156278053Y-91277712D01*
X156378499Y-91263148D01*
X156473231Y-91249413D01*
X156473236Y-91249412D01*
X156478945Y-91248584D01*
X156484409Y-91246729D01*
X156484414Y-91246728D01*
X156665693Y-91185192D01*
X156665698Y-91185190D01*
X156671165Y-91183334D01*
X156848276Y-91084147D01*
X156910934Y-91032035D01*
X156999913Y-90958031D01*
X157004345Y-90954345D01*
X157134147Y-90798276D01*
X157233334Y-90621165D01*
X157235190Y-90615698D01*
X157235192Y-90615693D01*
X157296728Y-90434414D01*
X157296729Y-90434409D01*
X157298584Y-90428945D01*
X157299412Y-90423236D01*
X157299413Y-90423231D01*
X157327179Y-90231727D01*
X157327712Y-90228053D01*
X157329232Y-90170000D01*
X157310658Y-89967859D01*
X157309090Y-89962299D01*
X157257125Y-89778046D01*
X157257124Y-89778044D01*
X157255557Y-89772487D01*
X157244978Y-89751033D01*
X157168331Y-89595609D01*
X157165776Y-89590428D01*
X157044320Y-89427779D01*
X157017134Y-89402648D01*
X156984546Y-89372524D01*
X156948101Y-89311596D01*
X156950382Y-89240636D01*
X156990665Y-89182174D01*
X157056160Y-89154771D01*
X157070075Y-89154000D01*
X157908487Y-89154000D01*
X157976608Y-89174002D01*
X158023101Y-89227658D01*
X158033205Y-89297932D01*
X158003711Y-89362512D01*
X157991565Y-89374732D01*
X157955392Y-89406455D01*
X157829720Y-89565869D01*
X157827031Y-89570980D01*
X157827029Y-89570983D01*
X157814073Y-89595609D01*
X157735203Y-89745515D01*
X157675007Y-89939378D01*
X157651148Y-90140964D01*
X157664424Y-90343522D01*
X157665845Y-90349118D01*
X157665846Y-90349123D01*
X157686119Y-90428945D01*
X157714392Y-90540269D01*
X157716809Y-90545512D01*
X157754010Y-90626208D01*
X157799377Y-90724616D01*
X157916533Y-90890389D01*
X158061938Y-91032035D01*
X158230720Y-91144812D01*
X158236023Y-91147090D01*
X158236026Y-91147092D01*
X158324707Y-91185192D01*
X158417228Y-91224942D01*
X158490244Y-91241464D01*
X158609579Y-91268467D01*
X158609584Y-91268468D01*
X158615216Y-91269742D01*
X158620987Y-91269969D01*
X158620989Y-91269969D01*
X158680756Y-91272317D01*
X158818053Y-91277712D01*
X158918499Y-91263148D01*
X159013231Y-91249413D01*
X159013236Y-91249412D01*
X159018945Y-91248584D01*
X159024409Y-91246729D01*
X159024414Y-91246728D01*
X159205693Y-91185192D01*
X159205698Y-91185190D01*
X159211165Y-91183334D01*
X159388276Y-91084147D01*
X159450934Y-91032035D01*
X159539913Y-90958031D01*
X159544345Y-90954345D01*
X159674147Y-90798276D01*
X159773334Y-90621165D01*
X159775190Y-90615698D01*
X159775192Y-90615693D01*
X159836728Y-90434414D01*
X159836729Y-90434409D01*
X159838584Y-90428945D01*
X159839412Y-90423236D01*
X159839413Y-90423231D01*
X159867179Y-90231727D01*
X159867712Y-90228053D01*
X159869232Y-90170000D01*
X159850658Y-89967859D01*
X159849090Y-89962299D01*
X159797125Y-89778046D01*
X159797124Y-89778044D01*
X159795557Y-89772487D01*
X159784978Y-89751033D01*
X159708331Y-89595609D01*
X159705776Y-89590428D01*
X159584320Y-89427779D01*
X159557134Y-89402648D01*
X159524546Y-89372524D01*
X159488101Y-89311596D01*
X159490382Y-89240636D01*
X159530665Y-89182174D01*
X159596160Y-89154771D01*
X159610075Y-89154000D01*
X163069000Y-89154000D01*
X163137121Y-89174002D01*
X163183614Y-89227658D01*
X163195000Y-89280000D01*
X163195000Y-93854000D01*
X163174998Y-93922121D01*
X163121342Y-93968614D01*
X163069000Y-93980000D01*
X151384000Y-93980000D01*
X151384000Y-95886000D01*
X151363998Y-95954121D01*
X151310342Y-96000614D01*
X151258000Y-96012000D01*
X150368000Y-96012000D01*
X149860000Y-96266000D01*
X149858387Y-96278907D01*
X149858386Y-96278909D01*
X149841356Y-96415156D01*
X149813059Y-96480270D01*
X149754051Y-96519749D01*
X149729797Y-96524806D01*
X149720509Y-96525804D01*
X149717209Y-96526522D01*
X149717208Y-96526522D01*
X149669821Y-96536830D01*
X149669814Y-96536832D01*
X149668167Y-96537190D01*
X149641944Y-96544384D01*
X149631571Y-96550291D01*
X149561201Y-96590362D01*
X149561197Y-96590365D01*
X149555823Y-96593425D01*
X149502167Y-96639918D01*
X149500217Y-96641939D01*
X149478004Y-96664959D01*
X149457338Y-96682230D01*
X149410516Y-96713516D01*
X149354266Y-96797699D01*
X149339500Y-96871933D01*
X149339501Y-97612227D01*
X149339501Y-98172000D01*
X149319499Y-98240121D01*
X149265843Y-98286614D01*
X149213501Y-98298000D01*
X148474500Y-98298000D01*
X148406379Y-98277998D01*
X148359886Y-98224342D01*
X148348500Y-98172000D01*
X148348499Y-96878123D01*
X148348499Y-96871934D01*
X148333734Y-96797699D01*
X148277484Y-96713516D01*
X148193301Y-96657266D01*
X148181129Y-96654845D01*
X148169664Y-96650096D01*
X148170341Y-96648460D01*
X148120506Y-96622390D01*
X148085376Y-96560693D01*
X148082000Y-96531721D01*
X148082000Y-96359499D01*
X148102002Y-96291378D01*
X148155658Y-96244885D01*
X148207999Y-96233499D01*
X148339388Y-96233499D01*
X148342782Y-96233130D01*
X148342788Y-96233130D01*
X148390166Y-96227984D01*
X148390170Y-96227983D01*
X148398024Y-96227130D01*
X148526635Y-96178917D01*
X148533814Y-96173537D01*
X148533817Y-96173535D01*
X148629367Y-96101923D01*
X148636544Y-96096544D01*
X148675068Y-96045141D01*
X148693418Y-96031422D01*
X148710247Y-96012000D01*
X148717000Y-96012000D01*
X148717000Y-95998453D01*
X148718537Y-95991387D01*
X148723676Y-95973940D01*
X148764358Y-95865419D01*
X148764358Y-95865418D01*
X148767130Y-95858024D01*
X148773500Y-95799389D01*
X148773499Y-95208612D01*
X148767130Y-95149976D01*
X148725018Y-95037640D01*
X148717000Y-94993411D01*
X148717000Y-91378213D01*
X148737002Y-91310092D01*
X148790658Y-91263599D01*
X148824919Y-91253517D01*
X148836547Y-91251832D01*
X148853230Y-91249413D01*
X148853234Y-91249412D01*
X148858945Y-91248584D01*
X148864409Y-91246729D01*
X148864414Y-91246728D01*
X149045693Y-91185192D01*
X149045698Y-91185190D01*
X149051165Y-91183334D01*
X149228276Y-91084147D01*
X149290934Y-91032035D01*
X149379913Y-90958031D01*
X149384345Y-90954345D01*
X149514147Y-90798276D01*
X149613334Y-90621165D01*
X149615190Y-90615698D01*
X149615192Y-90615693D01*
X149676728Y-90434414D01*
X149676729Y-90434409D01*
X149678584Y-90428945D01*
X149679412Y-90423236D01*
X149679413Y-90423231D01*
X149707179Y-90231727D01*
X149707712Y-90228053D01*
X149709232Y-90170000D01*
X149690658Y-89967859D01*
X149689090Y-89962299D01*
X149637125Y-89778046D01*
X149637124Y-89778044D01*
X149635557Y-89772487D01*
X149624978Y-89751033D01*
X149548331Y-89595609D01*
X149545776Y-89590428D01*
X149424320Y-89427779D01*
X149397134Y-89402648D01*
X149364546Y-89372524D01*
X149328101Y-89311596D01*
X149330382Y-89240636D01*
X149370665Y-89182174D01*
X149436160Y-89154771D01*
X149450075Y-89154000D01*
X150288487Y-89154000D01*
X150356608Y-89174002D01*
G37*
%TD.AperFunction*%
%TD*%
%TA.AperFunction,Conductor*%
%TO.N,Net-(D1-Pad2)*%
G36*
X152088121Y-96794002D02*
G01*
X152134614Y-96847658D01*
X152146000Y-96900000D01*
X152146000Y-97790000D01*
X157608000Y-97790000D01*
X157676121Y-97810002D01*
X157722614Y-97863658D01*
X157734000Y-97916000D01*
X157734000Y-99881265D01*
X157735455Y-99908412D01*
X157738334Y-99935195D01*
X157767949Y-100029779D01*
X157770911Y-100035203D01*
X157770912Y-100035206D01*
X157782555Y-100056527D01*
X157788376Y-100068695D01*
X157795924Y-100086918D01*
X157795929Y-100086928D01*
X157798293Y-100092634D01*
X157801725Y-100097770D01*
X157801728Y-100097776D01*
X157805265Y-100103069D01*
X157826499Y-100173070D01*
X157826500Y-100996930D01*
X157805266Y-101066931D01*
X157798292Y-101077368D01*
X157795929Y-101083057D01*
X157786947Y-101104680D01*
X157782238Y-101114740D01*
X157764291Y-101149054D01*
X157744289Y-101217175D01*
X157741304Y-101237932D01*
X157711814Y-101302511D01*
X157652089Y-101340895D01*
X157616588Y-101346000D01*
X156641107Y-101346000D01*
X156572986Y-101325998D01*
X156526493Y-101272342D01*
X156516389Y-101202068D01*
X156530327Y-101160394D01*
X156533755Y-101155624D01*
X156592842Y-101008641D01*
X156615162Y-100851807D01*
X156615307Y-100838000D01*
X156596276Y-100680733D01*
X156540280Y-100532546D01*
X156486160Y-100453800D01*
X156464000Y-100382434D01*
X156464000Y-99568000D01*
X151002000Y-99568000D01*
X150933879Y-99547998D01*
X150887386Y-99494342D01*
X150876000Y-99442000D01*
X150876000Y-98552000D01*
X149766241Y-98552000D01*
X149698120Y-98531998D01*
X149651627Y-98478342D01*
X149642662Y-98401421D01*
X149647293Y-98378140D01*
X149647294Y-98378130D01*
X149648500Y-98372067D01*
X149648499Y-96900000D01*
X149668501Y-96831879D01*
X149722157Y-96785386D01*
X149774499Y-96774000D01*
X152020000Y-96774000D01*
X152088121Y-96794002D01*
G37*
%TD.AperFunction*%
%TD*%
%TA.AperFunction,Conductor*%
%TO.N,GND*%
G36*
X149432831Y-98621501D02*
G01*
X149459934Y-98644985D01*
X149484513Y-98673351D01*
X149500151Y-98691398D01*
X149506159Y-98698332D01*
X149538743Y-98729773D01*
X149626560Y-98775709D01*
X149694681Y-98795711D01*
X149699140Y-98796352D01*
X149699144Y-98796353D01*
X149730461Y-98800855D01*
X149766241Y-98806000D01*
X150496000Y-98806000D01*
X150564121Y-98826002D01*
X150610614Y-98879658D01*
X150622000Y-98932000D01*
X150622000Y-99442000D01*
X150627804Y-99495990D01*
X150639190Y-99548332D01*
X150646384Y-99574555D01*
X150650284Y-99581403D01*
X150692362Y-99655298D01*
X150692365Y-99655302D01*
X150695425Y-99660676D01*
X150741918Y-99714332D01*
X150774502Y-99745773D01*
X150862319Y-99791709D01*
X150930440Y-99811711D01*
X150934899Y-99812352D01*
X150934903Y-99812353D01*
X150966220Y-99816855D01*
X151002000Y-99822000D01*
X156084000Y-99822000D01*
X156152121Y-99842002D01*
X156198614Y-99895658D01*
X156210000Y-99948000D01*
X156210000Y-100382434D01*
X156221425Y-100457756D01*
X156243585Y-100529122D01*
X156276831Y-100597666D01*
X156279517Y-100601575D01*
X156279521Y-100601581D01*
X156304907Y-100638519D01*
X156318931Y-100665345D01*
X156342419Y-100727502D01*
X156349640Y-100756897D01*
X156357974Y-100825766D01*
X156357629Y-100858649D01*
X156347855Y-100927327D01*
X156340019Y-100956571D01*
X156298085Y-101060885D01*
X156296765Y-101060354D01*
X156293237Y-101072411D01*
X156289442Y-101079829D01*
X156275504Y-101121503D01*
X156270279Y-101139253D01*
X156269886Y-101146585D01*
X156265589Y-101226745D01*
X156241970Y-101293697D01*
X156185902Y-101337251D01*
X156139770Y-101346000D01*
X150114000Y-101346000D01*
X150114000Y-101988397D01*
X150099648Y-102046798D01*
X150077659Y-102088834D01*
X150077655Y-102088844D01*
X150074791Y-102094319D01*
X150054789Y-102162440D01*
X150044500Y-102234000D01*
X150044500Y-102621500D01*
X150024498Y-102689621D01*
X149970842Y-102736114D01*
X149918502Y-102747500D01*
X149774500Y-102747500D01*
X149706379Y-102727498D01*
X149659886Y-102673842D01*
X149648500Y-102621500D01*
X149648499Y-101278123D01*
X149648499Y-101271934D01*
X149633734Y-101197699D01*
X149577484Y-101113516D01*
X149568058Y-101107217D01*
X149542256Y-101057068D01*
X149538778Y-101058259D01*
X149538470Y-101055659D01*
X149534507Y-101047407D01*
X149533004Y-101038374D01*
X149508665Y-100993266D01*
X149505969Y-100987975D01*
X149487215Y-100948919D01*
X149487214Y-100948918D01*
X149483781Y-100941768D01*
X149480187Y-100937493D01*
X149478262Y-100935568D01*
X149476491Y-100933638D01*
X149476445Y-100933553D01*
X149476568Y-100933441D01*
X149476096Y-100932906D01*
X149473010Y-100927186D01*
X149433413Y-100890583D01*
X149429848Y-100887154D01*
X147990405Y-99447711D01*
X147956379Y-99385399D01*
X147953500Y-99358616D01*
X147953500Y-99311500D01*
X147973502Y-99243379D01*
X148027158Y-99196886D01*
X148079500Y-99185500D01*
X148230102Y-99185500D01*
X148254050Y-99188049D01*
X148255715Y-99188128D01*
X148265898Y-99190320D01*
X148276239Y-99189096D01*
X148299245Y-99186373D01*
X148305176Y-99186023D01*
X148305168Y-99185928D01*
X148310346Y-99185500D01*
X148315546Y-99185500D01*
X148320675Y-99184646D01*
X148320678Y-99184646D01*
X148334587Y-99182331D01*
X148340465Y-99181494D01*
X148381023Y-99176694D01*
X148381024Y-99176694D01*
X148391363Y-99175470D01*
X148399615Y-99171507D01*
X148408648Y-99170004D01*
X148417817Y-99165057D01*
X148417819Y-99165056D01*
X148453754Y-99145666D01*
X148459047Y-99142969D01*
X148498104Y-99124215D01*
X148498108Y-99124212D01*
X148505254Y-99120781D01*
X148509530Y-99117186D01*
X148511453Y-99115263D01*
X148513385Y-99113491D01*
X148513464Y-99113448D01*
X148513577Y-99113572D01*
X148514117Y-99113096D01*
X148519836Y-99110010D01*
X148556439Y-99070413D01*
X148559868Y-99066848D01*
X148749216Y-98877500D01*
X148767964Y-98862358D01*
X148769189Y-98861243D01*
X148777940Y-98855593D01*
X148784387Y-98847415D01*
X148784389Y-98847413D01*
X148798729Y-98829222D01*
X148802675Y-98824781D01*
X148802602Y-98824719D01*
X148805961Y-98820755D01*
X148809638Y-98817078D01*
X148820892Y-98801330D01*
X148824398Y-98796660D01*
X148856156Y-98756375D01*
X148859188Y-98747741D01*
X148864514Y-98740288D01*
X148879136Y-98691397D01*
X148917816Y-98631865D01*
X148982543Y-98602695D01*
X148999852Y-98601500D01*
X149218106Y-98601499D01*
X149364711Y-98601499D01*
X149432831Y-98621501D01*
G37*
%TD.AperFunction*%
%TD*%
%TA.AperFunction,Conductor*%
%TO.N,/Vboost*%
G36*
X162248121Y-97810002D02*
G01*
X162294614Y-97863658D01*
X162306000Y-97916000D01*
X162306000Y-100204000D01*
X162285998Y-100272121D01*
X162232342Y-100318614D01*
X162180000Y-100330000D01*
X159258000Y-100330000D01*
X159258000Y-105030000D01*
X159237998Y-105098121D01*
X159184342Y-105144614D01*
X159132000Y-105156000D01*
X141424021Y-105156000D01*
X141355900Y-105135998D01*
X141309407Y-105082342D01*
X141299099Y-105013554D01*
X141312707Y-104910188D01*
X141313785Y-104902000D01*
X141301095Y-104805606D01*
X141295806Y-104765432D01*
X141295805Y-104765430D01*
X141294728Y-104757246D01*
X141238855Y-104622358D01*
X141149974Y-104506526D01*
X141143424Y-104501500D01*
X141143421Y-104501497D01*
X141040696Y-104422673D01*
X141040694Y-104422672D01*
X141034143Y-104417645D01*
X140990762Y-104399676D01*
X140935481Y-104355128D01*
X140912980Y-104283267D01*
X140912980Y-102470832D01*
X140932982Y-102402711D01*
X140949885Y-102381737D01*
X141062736Y-102268886D01*
X141081484Y-102253744D01*
X141082709Y-102252629D01*
X141091460Y-102246979D01*
X141097907Y-102238801D01*
X141097909Y-102238799D01*
X141112249Y-102220608D01*
X141116198Y-102216164D01*
X141116124Y-102216102D01*
X141119477Y-102212145D01*
X141123158Y-102208464D01*
X141134385Y-102192754D01*
X141137941Y-102188017D01*
X141155368Y-102165911D01*
X141213249Y-102124798D01*
X141284169Y-102121504D01*
X141302534Y-102127508D01*
X141325610Y-102137066D01*
X141325616Y-102137068D01*
X141333246Y-102140228D01*
X141478000Y-102159285D01*
X141486188Y-102158207D01*
X141614566Y-102141306D01*
X141622754Y-102140228D01*
X141677406Y-102117590D01*
X141725622Y-102108000D01*
X142422768Y-102108000D01*
X142490889Y-102128002D01*
X142497613Y-102132638D01*
X142511924Y-102143209D01*
X142640873Y-102188493D01*
X142648515Y-102189215D01*
X142648518Y-102189216D01*
X142660455Y-102190344D01*
X142672685Y-102191500D01*
X143001777Y-102191500D01*
X143331314Y-102191499D01*
X143334262Y-102191220D01*
X143334271Y-102191220D01*
X143355478Y-102189216D01*
X143355480Y-102189216D01*
X143363127Y-102188493D01*
X143492076Y-102143209D01*
X143506374Y-102132648D01*
X143573051Y-102108266D01*
X143581232Y-102108000D01*
X143946768Y-102108000D01*
X144014889Y-102128002D01*
X144021613Y-102132638D01*
X144035924Y-102143209D01*
X144164873Y-102188493D01*
X144172515Y-102189215D01*
X144172518Y-102189216D01*
X144184455Y-102190344D01*
X144196685Y-102191500D01*
X144525777Y-102191500D01*
X144855314Y-102191499D01*
X144858262Y-102191220D01*
X144858271Y-102191220D01*
X144879478Y-102189216D01*
X144879480Y-102189216D01*
X144887127Y-102188493D01*
X145016076Y-102143209D01*
X145030374Y-102132648D01*
X145097051Y-102108266D01*
X145105232Y-102108000D01*
X145470768Y-102108000D01*
X145538889Y-102128002D01*
X145545613Y-102132638D01*
X145559924Y-102143209D01*
X145688873Y-102188493D01*
X145696515Y-102189215D01*
X145696518Y-102189216D01*
X145708455Y-102190344D01*
X145720685Y-102191500D01*
X146049777Y-102191500D01*
X146379314Y-102191499D01*
X146382262Y-102191220D01*
X146382271Y-102191220D01*
X146403478Y-102189216D01*
X146403480Y-102189216D01*
X146411127Y-102188493D01*
X146540076Y-102143209D01*
X146554374Y-102132648D01*
X146621051Y-102108266D01*
X146629232Y-102108000D01*
X147263500Y-102108000D01*
X147331621Y-102128002D01*
X147378114Y-102181658D01*
X147389500Y-102234000D01*
X147389501Y-102681500D01*
X147369499Y-102749621D01*
X147315844Y-102796114D01*
X147263501Y-102807500D01*
X146821064Y-102807500D01*
X146752943Y-102787498D01*
X146719713Y-102756359D01*
X146655605Y-102669564D01*
X146655602Y-102669561D01*
X146650010Y-102661990D01*
X146540076Y-102580791D01*
X146411127Y-102535507D01*
X146403485Y-102534785D01*
X146403482Y-102534784D01*
X146388579Y-102533376D01*
X146379315Y-102532500D01*
X146050223Y-102532500D01*
X145720686Y-102532501D01*
X145717738Y-102532780D01*
X145717729Y-102532780D01*
X145696522Y-102534784D01*
X145696520Y-102534784D01*
X145688873Y-102535507D01*
X145559924Y-102580791D01*
X145449990Y-102661990D01*
X145368791Y-102771924D01*
X145323507Y-102900873D01*
X145320500Y-102932685D01*
X145320501Y-103441314D01*
X145323507Y-103473127D01*
X145368791Y-103602076D01*
X145449990Y-103712010D01*
X145559924Y-103793209D01*
X145688873Y-103838493D01*
X145696515Y-103839215D01*
X145696518Y-103839216D01*
X145711421Y-103840624D01*
X145720685Y-103841500D01*
X146049777Y-103841500D01*
X146379314Y-103841499D01*
X146382262Y-103841220D01*
X146382271Y-103841220D01*
X146403478Y-103839216D01*
X146403480Y-103839216D01*
X146411127Y-103838493D01*
X146540076Y-103793209D01*
X146650010Y-103712010D01*
X146655602Y-103704439D01*
X146655605Y-103704436D01*
X146719713Y-103617641D01*
X146776274Y-103574730D01*
X146821064Y-103566500D01*
X148249102Y-103566500D01*
X148273050Y-103569049D01*
X148274715Y-103569128D01*
X148284898Y-103571320D01*
X148295239Y-103570096D01*
X148318245Y-103567373D01*
X148324176Y-103567023D01*
X148324168Y-103566928D01*
X148329346Y-103566500D01*
X148334546Y-103566500D01*
X148339675Y-103565646D01*
X148339678Y-103565646D01*
X148353587Y-103563331D01*
X148359465Y-103562494D01*
X148400023Y-103557694D01*
X148400024Y-103557694D01*
X148410363Y-103556470D01*
X148418615Y-103552507D01*
X148427648Y-103551004D01*
X148436817Y-103546057D01*
X148436819Y-103546056D01*
X148472754Y-103526666D01*
X148478047Y-103523969D01*
X148517104Y-103505215D01*
X148517108Y-103505212D01*
X148524254Y-103501781D01*
X148528530Y-103498186D01*
X148530453Y-103496263D01*
X148532385Y-103494491D01*
X148532464Y-103494448D01*
X148532577Y-103494572D01*
X148533117Y-103494096D01*
X148538836Y-103491010D01*
X148575439Y-103451413D01*
X148578868Y-103447848D01*
X148749216Y-103277500D01*
X148767964Y-103262358D01*
X148769189Y-103261243D01*
X148777940Y-103255593D01*
X148784387Y-103247415D01*
X148784389Y-103247413D01*
X148798729Y-103229222D01*
X148802675Y-103224781D01*
X148802602Y-103224719D01*
X148805961Y-103220755D01*
X148809638Y-103217078D01*
X148820892Y-103201330D01*
X148824398Y-103196660D01*
X148856156Y-103156375D01*
X148859188Y-103147741D01*
X148864514Y-103140288D01*
X148879136Y-103091397D01*
X148917816Y-103031865D01*
X148982543Y-103002695D01*
X148999852Y-103001500D01*
X149383532Y-103001499D01*
X149419066Y-103001499D01*
X149469419Y-102991484D01*
X149518579Y-102991484D01*
X149568933Y-103001500D01*
X149818959Y-103001500D01*
X150069066Y-103001499D01*
X150104818Y-102994388D01*
X150131126Y-102989156D01*
X150131128Y-102989155D01*
X150143301Y-102986734D01*
X150153621Y-102979839D01*
X150153622Y-102979838D01*
X150217168Y-102937377D01*
X150227484Y-102930484D01*
X150283734Y-102846301D01*
X150298500Y-102772067D01*
X150298500Y-102234000D01*
X150318502Y-102165879D01*
X150372158Y-102119386D01*
X150424500Y-102108000D01*
X150622000Y-102108000D01*
X151093095Y-101636905D01*
X151155407Y-101602879D01*
X151182190Y-101600000D01*
X157988000Y-101600000D01*
X157988000Y-101288735D01*
X158008002Y-101220614D01*
X158009636Y-101218586D01*
X158009484Y-101218484D01*
X158058839Y-101144620D01*
X158065734Y-101134301D01*
X158080500Y-101060067D01*
X158080499Y-100109934D01*
X158065734Y-100035699D01*
X158045556Y-100005500D01*
X158009484Y-99951516D01*
X158013243Y-99949004D01*
X157990879Y-99908048D01*
X157988000Y-99881265D01*
X157988000Y-97916000D01*
X158008002Y-97847879D01*
X158061658Y-97801386D01*
X158114000Y-97790000D01*
X162180000Y-97790000D01*
X162248121Y-97810002D01*
G37*
%TD.AperFunction*%
%TD*%
%TA.AperFunction,Conductor*%
%TO.N,Vdrive*%
G36*
X136797321Y-93111002D02*
G01*
X136843814Y-93164658D01*
X136855200Y-93217000D01*
X136855200Y-95068501D01*
X136835198Y-95136622D01*
X136781542Y-95183115D01*
X136729200Y-95194501D01*
X136634934Y-95194501D01*
X136599182Y-95201612D01*
X136572874Y-95206844D01*
X136572872Y-95206845D01*
X136560699Y-95209266D01*
X136550379Y-95216161D01*
X136550378Y-95216162D01*
X136489985Y-95256516D01*
X136476516Y-95265516D01*
X136420266Y-95349699D01*
X136405500Y-95423933D01*
X136405500Y-95518500D01*
X136385498Y-95586621D01*
X136331842Y-95633114D01*
X136279500Y-95644500D01*
X133222000Y-95644500D01*
X133153879Y-95624498D01*
X133107386Y-95570842D01*
X133096000Y-95518500D01*
X133096000Y-93217000D01*
X133116002Y-93148879D01*
X133169658Y-93102386D01*
X133222000Y-93091000D01*
X136729200Y-93091000D01*
X136797321Y-93111002D01*
G37*
%TD.AperFunction*%
%TD*%
%TA.AperFunction,Conductor*%
%TO.N,Vdrive*%
G36*
X138163237Y-99334002D02*
G01*
X138184211Y-99350905D01*
X138377522Y-99544216D01*
X138392664Y-99562964D01*
X138393779Y-99564189D01*
X138399429Y-99572940D01*
X138407607Y-99579387D01*
X138407609Y-99579389D01*
X138425800Y-99593729D01*
X138430241Y-99597675D01*
X138430303Y-99597602D01*
X138434267Y-99600961D01*
X138437944Y-99604638D01*
X138453692Y-99615892D01*
X138458362Y-99619398D01*
X138498647Y-99651156D01*
X138507281Y-99654188D01*
X138514734Y-99659514D01*
X138561554Y-99673516D01*
X138563858Y-99674205D01*
X138569507Y-99676040D01*
X138617851Y-99693018D01*
X138623416Y-99693500D01*
X138626123Y-99693500D01*
X138628755Y-99693614D01*
X138628856Y-99693644D01*
X138628849Y-99693807D01*
X138629549Y-99693851D01*
X138635778Y-99695714D01*
X138686559Y-99693718D01*
X138689650Y-99693597D01*
X138694598Y-99693500D01*
X139550688Y-99693500D01*
X139618809Y-99713502D01*
X139639783Y-99730405D01*
X140416115Y-100506737D01*
X140450141Y-100569049D01*
X140453020Y-100595832D01*
X140453020Y-101753024D01*
X140433018Y-101821145D01*
X140416115Y-101842119D01*
X140303264Y-101954970D01*
X140284516Y-101970112D01*
X140283291Y-101971227D01*
X140274540Y-101976877D01*
X140268093Y-101985055D01*
X140268091Y-101985057D01*
X140253751Y-102003248D01*
X140249805Y-102007689D01*
X140249878Y-102007751D01*
X140246519Y-102011715D01*
X140242842Y-102015392D01*
X140231588Y-102031140D01*
X140228076Y-102035817D01*
X140209006Y-102060008D01*
X140151124Y-102101120D01*
X140110058Y-102108000D01*
X139642325Y-102108000D01*
X139585123Y-102094267D01*
X139543392Y-102073004D01*
X139543388Y-102073003D01*
X139534555Y-102068502D01*
X139439834Y-102053500D01*
X139076166Y-102053500D01*
X138981445Y-102068502D01*
X138972612Y-102073003D01*
X138972608Y-102073004D01*
X138930877Y-102094267D01*
X138873675Y-102108000D01*
X136778000Y-102108000D01*
X136709879Y-102087998D01*
X136663386Y-102034342D01*
X136652000Y-101982000D01*
X136652000Y-99440000D01*
X136672002Y-99371879D01*
X136725658Y-99325386D01*
X136778000Y-99314000D01*
X138095116Y-99314000D01*
X138163237Y-99334002D01*
G37*
%TD.AperFunction*%
%TD*%
%TA.AperFunction,Conductor*%
%TO.N,VDC*%
G36*
X162248121Y-100604002D02*
G01*
X162294614Y-100657658D01*
X162306000Y-100710000D01*
X162306000Y-102832575D01*
X162303579Y-102857153D01*
X162301024Y-102870000D01*
X162306000Y-102895017D01*
X162320737Y-102969106D01*
X162376876Y-103053124D01*
X162460894Y-103109263D01*
X162560000Y-103128976D01*
X162572847Y-103126421D01*
X162597425Y-103124000D01*
X163069000Y-103124000D01*
X163137121Y-103144002D01*
X163183614Y-103197658D01*
X163195000Y-103250000D01*
X163195000Y-108840000D01*
X163174998Y-108908121D01*
X163121342Y-108954614D01*
X163069000Y-108966000D01*
X162154357Y-108966000D01*
X162086236Y-108945998D01*
X162039743Y-108892342D01*
X162029639Y-108822068D01*
X162059133Y-108757488D01*
X162073788Y-108743126D01*
X162079908Y-108738036D01*
X162079913Y-108738031D01*
X162084345Y-108734345D01*
X162214147Y-108578276D01*
X162313334Y-108401165D01*
X162315190Y-108395698D01*
X162315192Y-108395693D01*
X162376728Y-108214414D01*
X162376729Y-108214409D01*
X162378584Y-108208945D01*
X162379412Y-108203236D01*
X162379413Y-108203231D01*
X162407179Y-108011727D01*
X162407712Y-108008053D01*
X162409232Y-107950000D01*
X162390658Y-107747859D01*
X162389090Y-107742299D01*
X162337125Y-107558046D01*
X162337124Y-107558044D01*
X162335557Y-107552487D01*
X162324978Y-107531033D01*
X162248331Y-107375609D01*
X162245776Y-107370428D01*
X162124320Y-107207779D01*
X161975258Y-107069987D01*
X161970375Y-107066906D01*
X161970371Y-107066903D01*
X161808464Y-106964748D01*
X161803581Y-106961667D01*
X161615039Y-106886446D01*
X161609379Y-106885320D01*
X161609375Y-106885319D01*
X161421613Y-106847971D01*
X161421610Y-106847971D01*
X161415946Y-106846844D01*
X161410171Y-106846768D01*
X161410167Y-106846768D01*
X161308793Y-106845441D01*
X161212971Y-106844187D01*
X161207274Y-106845166D01*
X161207273Y-106845166D01*
X161018607Y-106877585D01*
X161012910Y-106878564D01*
X160822463Y-106948824D01*
X160648010Y-107052612D01*
X160643670Y-107056418D01*
X160643666Y-107056421D01*
X160504648Y-107178338D01*
X160495392Y-107186455D01*
X160369720Y-107345869D01*
X160367031Y-107350980D01*
X160367029Y-107350983D01*
X160354073Y-107375609D01*
X160275203Y-107525515D01*
X160215007Y-107719378D01*
X160191148Y-107920964D01*
X160204424Y-108123522D01*
X160205845Y-108129118D01*
X160205846Y-108129123D01*
X160226119Y-108208945D01*
X160254392Y-108320269D01*
X160256809Y-108325512D01*
X160294010Y-108406208D01*
X160339377Y-108504616D01*
X160456533Y-108670389D01*
X160460675Y-108674424D01*
X160537996Y-108749746D01*
X160572834Y-108811607D01*
X160568697Y-108882483D01*
X160526898Y-108939871D01*
X160460709Y-108965550D01*
X160450075Y-108966000D01*
X159614357Y-108966000D01*
X159546236Y-108945998D01*
X159499743Y-108892342D01*
X159489639Y-108822068D01*
X159519133Y-108757488D01*
X159533788Y-108743126D01*
X159539908Y-108738036D01*
X159539913Y-108738031D01*
X159544345Y-108734345D01*
X159674147Y-108578276D01*
X159773334Y-108401165D01*
X159775190Y-108395698D01*
X159775192Y-108395693D01*
X159836728Y-108214414D01*
X159836729Y-108214409D01*
X159838584Y-108208945D01*
X159839412Y-108203236D01*
X159839413Y-108203231D01*
X159867179Y-108011727D01*
X159867712Y-108008053D01*
X159869232Y-107950000D01*
X159850658Y-107747859D01*
X159849090Y-107742299D01*
X159797125Y-107558046D01*
X159797124Y-107558044D01*
X159795557Y-107552487D01*
X159784978Y-107531033D01*
X159708331Y-107375609D01*
X159705776Y-107370428D01*
X159584320Y-107207779D01*
X159435258Y-107069987D01*
X159430375Y-107066906D01*
X159430371Y-107066903D01*
X159268464Y-106964748D01*
X159263581Y-106961667D01*
X159075039Y-106886446D01*
X159069379Y-106885320D01*
X159069375Y-106885319D01*
X158881613Y-106847971D01*
X158881610Y-106847971D01*
X158875946Y-106846844D01*
X158870171Y-106846768D01*
X158870167Y-106846768D01*
X158768793Y-106845441D01*
X158672971Y-106844187D01*
X158667274Y-106845166D01*
X158667273Y-106845166D01*
X158478607Y-106877585D01*
X158472910Y-106878564D01*
X158282463Y-106948824D01*
X158108010Y-107052612D01*
X158103670Y-107056418D01*
X158103666Y-107056421D01*
X157964648Y-107178338D01*
X157955392Y-107186455D01*
X157829720Y-107345869D01*
X157827031Y-107350980D01*
X157827029Y-107350983D01*
X157814073Y-107375609D01*
X157735203Y-107525515D01*
X157675007Y-107719378D01*
X157651148Y-107920964D01*
X157664424Y-108123522D01*
X157665845Y-108129118D01*
X157665846Y-108129123D01*
X157686119Y-108208945D01*
X157714392Y-108320269D01*
X157716809Y-108325512D01*
X157754010Y-108406208D01*
X157799377Y-108504616D01*
X157916533Y-108670389D01*
X157920675Y-108674424D01*
X157997996Y-108749746D01*
X158032834Y-108811607D01*
X158028697Y-108882483D01*
X157986898Y-108939871D01*
X157920709Y-108965550D01*
X157910075Y-108966000D01*
X157074357Y-108966000D01*
X157006236Y-108945998D01*
X156959743Y-108892342D01*
X156949639Y-108822068D01*
X156979133Y-108757488D01*
X156993788Y-108743126D01*
X156999908Y-108738036D01*
X156999913Y-108738031D01*
X157004345Y-108734345D01*
X157134147Y-108578276D01*
X157233334Y-108401165D01*
X157235190Y-108395698D01*
X157235192Y-108395693D01*
X157296728Y-108214414D01*
X157296729Y-108214409D01*
X157298584Y-108208945D01*
X157299412Y-108203236D01*
X157299413Y-108203231D01*
X157327179Y-108011727D01*
X157327712Y-108008053D01*
X157329232Y-107950000D01*
X157310658Y-107747859D01*
X157309090Y-107742299D01*
X157257125Y-107558046D01*
X157257124Y-107558044D01*
X157255557Y-107552487D01*
X157244978Y-107531033D01*
X157168331Y-107375609D01*
X157165776Y-107370428D01*
X157044320Y-107207779D01*
X156895258Y-107069987D01*
X156890375Y-107066906D01*
X156890371Y-107066903D01*
X156728464Y-106964748D01*
X156723581Y-106961667D01*
X156535039Y-106886446D01*
X156529379Y-106885320D01*
X156529375Y-106885319D01*
X156341613Y-106847971D01*
X156341610Y-106847971D01*
X156335946Y-106846844D01*
X156330171Y-106846768D01*
X156330167Y-106846768D01*
X156228793Y-106845441D01*
X156132971Y-106844187D01*
X156127274Y-106845166D01*
X156127273Y-106845166D01*
X155938607Y-106877585D01*
X155932910Y-106878564D01*
X155742463Y-106948824D01*
X155568010Y-107052612D01*
X155563670Y-107056418D01*
X155563666Y-107056421D01*
X155424648Y-107178338D01*
X155415392Y-107186455D01*
X155289720Y-107345869D01*
X155287031Y-107350980D01*
X155287029Y-107350983D01*
X155274073Y-107375609D01*
X155195203Y-107525515D01*
X155135007Y-107719378D01*
X155111148Y-107920964D01*
X155124424Y-108123522D01*
X155125845Y-108129118D01*
X155125846Y-108129123D01*
X155146119Y-108208945D01*
X155174392Y-108320269D01*
X155176809Y-108325512D01*
X155214010Y-108406208D01*
X155259377Y-108504616D01*
X155376533Y-108670389D01*
X155380675Y-108674424D01*
X155457996Y-108749746D01*
X155492834Y-108811607D01*
X155488697Y-108882483D01*
X155446898Y-108939871D01*
X155380709Y-108965550D01*
X155370075Y-108966000D01*
X154534357Y-108966000D01*
X154466236Y-108945998D01*
X154419743Y-108892342D01*
X154409639Y-108822068D01*
X154439133Y-108757488D01*
X154453788Y-108743126D01*
X154459908Y-108738036D01*
X154459913Y-108738031D01*
X154464345Y-108734345D01*
X154594147Y-108578276D01*
X154693334Y-108401165D01*
X154695190Y-108395698D01*
X154695192Y-108395693D01*
X154756728Y-108214414D01*
X154756729Y-108214409D01*
X154758584Y-108208945D01*
X154759412Y-108203236D01*
X154759413Y-108203231D01*
X154787179Y-108011727D01*
X154787712Y-108008053D01*
X154789232Y-107950000D01*
X154770658Y-107747859D01*
X154769090Y-107742299D01*
X154717125Y-107558046D01*
X154717124Y-107558044D01*
X154715557Y-107552487D01*
X154704978Y-107531033D01*
X154628331Y-107375609D01*
X154625776Y-107370428D01*
X154504320Y-107207779D01*
X154355258Y-107069987D01*
X154350375Y-107066906D01*
X154350371Y-107066903D01*
X154188464Y-106964748D01*
X154183581Y-106961667D01*
X153995039Y-106886446D01*
X153989379Y-106885320D01*
X153989375Y-106885319D01*
X153801613Y-106847971D01*
X153801610Y-106847971D01*
X153795946Y-106846844D01*
X153790171Y-106846768D01*
X153790167Y-106846768D01*
X153688793Y-106845441D01*
X153592971Y-106844187D01*
X153587274Y-106845166D01*
X153587273Y-106845166D01*
X153398607Y-106877585D01*
X153392910Y-106878564D01*
X153202463Y-106948824D01*
X153028010Y-107052612D01*
X153023670Y-107056418D01*
X153023666Y-107056421D01*
X152884648Y-107178338D01*
X152875392Y-107186455D01*
X152749720Y-107345869D01*
X152747031Y-107350980D01*
X152747029Y-107350983D01*
X152734073Y-107375609D01*
X152655203Y-107525515D01*
X152595007Y-107719378D01*
X152571148Y-107920964D01*
X152584424Y-108123522D01*
X152585845Y-108129118D01*
X152585846Y-108129123D01*
X152606119Y-108208945D01*
X152634392Y-108320269D01*
X152636809Y-108325512D01*
X152674010Y-108406208D01*
X152719377Y-108504616D01*
X152836533Y-108670389D01*
X152840675Y-108674424D01*
X152917996Y-108749746D01*
X152952834Y-108811607D01*
X152948697Y-108882483D01*
X152906898Y-108939871D01*
X152840709Y-108965550D01*
X152830075Y-108966000D01*
X151994357Y-108966000D01*
X151926236Y-108945998D01*
X151879743Y-108892342D01*
X151869639Y-108822068D01*
X151899133Y-108757488D01*
X151913788Y-108743126D01*
X151919908Y-108738036D01*
X151919913Y-108738031D01*
X151924345Y-108734345D01*
X152054147Y-108578276D01*
X152153334Y-108401165D01*
X152155190Y-108395698D01*
X152155192Y-108395693D01*
X152216728Y-108214414D01*
X152216729Y-108214409D01*
X152218584Y-108208945D01*
X152219412Y-108203236D01*
X152219413Y-108203231D01*
X152247179Y-108011727D01*
X152247712Y-108008053D01*
X152249232Y-107950000D01*
X152230658Y-107747859D01*
X152229090Y-107742299D01*
X152177125Y-107558046D01*
X152177124Y-107558044D01*
X152175557Y-107552487D01*
X152164978Y-107531033D01*
X152088331Y-107375609D01*
X152085776Y-107370428D01*
X151964320Y-107207779D01*
X151815258Y-107069987D01*
X151810375Y-107066906D01*
X151810371Y-107066903D01*
X151648464Y-106964748D01*
X151643581Y-106961667D01*
X151455039Y-106886446D01*
X151449379Y-106885320D01*
X151449375Y-106885319D01*
X151261613Y-106847971D01*
X151261610Y-106847971D01*
X151255946Y-106846844D01*
X151250171Y-106846768D01*
X151250167Y-106846768D01*
X151148793Y-106845441D01*
X151052971Y-106844187D01*
X151047274Y-106845166D01*
X151047273Y-106845166D01*
X150858607Y-106877585D01*
X150852910Y-106878564D01*
X150662463Y-106948824D01*
X150488010Y-107052612D01*
X150483670Y-107056418D01*
X150483666Y-107056421D01*
X150344648Y-107178338D01*
X150335392Y-107186455D01*
X150209720Y-107345869D01*
X150207031Y-107350980D01*
X150207029Y-107350983D01*
X150194073Y-107375609D01*
X150115203Y-107525515D01*
X150055007Y-107719378D01*
X150031148Y-107920964D01*
X150044424Y-108123522D01*
X150045845Y-108129118D01*
X150045846Y-108129123D01*
X150066119Y-108208945D01*
X150094392Y-108320269D01*
X150096809Y-108325512D01*
X150134010Y-108406208D01*
X150179377Y-108504616D01*
X150296533Y-108670389D01*
X150300675Y-108674424D01*
X150377996Y-108749746D01*
X150412834Y-108811607D01*
X150408697Y-108882483D01*
X150366898Y-108939871D01*
X150300709Y-108965550D01*
X150290075Y-108966000D01*
X149454357Y-108966000D01*
X149386236Y-108945998D01*
X149339743Y-108892342D01*
X149329639Y-108822068D01*
X149359133Y-108757488D01*
X149373788Y-108743126D01*
X149379908Y-108738036D01*
X149379913Y-108738031D01*
X149384345Y-108734345D01*
X149514147Y-108578276D01*
X149613334Y-108401165D01*
X149615190Y-108395698D01*
X149615192Y-108395693D01*
X149676728Y-108214414D01*
X149676729Y-108214409D01*
X149678584Y-108208945D01*
X149679412Y-108203236D01*
X149679413Y-108203231D01*
X149707179Y-108011727D01*
X149707712Y-108008053D01*
X149709232Y-107950000D01*
X149690658Y-107747859D01*
X149689090Y-107742299D01*
X149637125Y-107558046D01*
X149637124Y-107558044D01*
X149635557Y-107552487D01*
X149624978Y-107531033D01*
X149548331Y-107375609D01*
X149545776Y-107370428D01*
X149424320Y-107207779D01*
X149275258Y-107069987D01*
X149270375Y-107066906D01*
X149270371Y-107066903D01*
X149108464Y-106964748D01*
X149103581Y-106961667D01*
X148915039Y-106886446D01*
X148909379Y-106885320D01*
X148909375Y-106885319D01*
X148721613Y-106847971D01*
X148721610Y-106847971D01*
X148715946Y-106846844D01*
X148710171Y-106846768D01*
X148710167Y-106846768D01*
X148608793Y-106845441D01*
X148512971Y-106844187D01*
X148507274Y-106845166D01*
X148507273Y-106845166D01*
X148318607Y-106877585D01*
X148312910Y-106878564D01*
X148122463Y-106948824D01*
X147948010Y-107052612D01*
X147943670Y-107056418D01*
X147943666Y-107056421D01*
X147804648Y-107178338D01*
X147795392Y-107186455D01*
X147669720Y-107345869D01*
X147667031Y-107350980D01*
X147667029Y-107350983D01*
X147654073Y-107375609D01*
X147575203Y-107525515D01*
X147515007Y-107719378D01*
X147491148Y-107920964D01*
X147504424Y-108123522D01*
X147505845Y-108129118D01*
X147505846Y-108129123D01*
X147526119Y-108208945D01*
X147554392Y-108320269D01*
X147556809Y-108325512D01*
X147594010Y-108406208D01*
X147639377Y-108504616D01*
X147756533Y-108670389D01*
X147760675Y-108674424D01*
X147837996Y-108749746D01*
X147872834Y-108811607D01*
X147868697Y-108882483D01*
X147826898Y-108939871D01*
X147760709Y-108965550D01*
X147750075Y-108966000D01*
X146914357Y-108966000D01*
X146846236Y-108945998D01*
X146799743Y-108892342D01*
X146789639Y-108822068D01*
X146819133Y-108757488D01*
X146833788Y-108743126D01*
X146839908Y-108738036D01*
X146839913Y-108738031D01*
X146844345Y-108734345D01*
X146974147Y-108578276D01*
X147073334Y-108401165D01*
X147075190Y-108395698D01*
X147075192Y-108395693D01*
X147136728Y-108214414D01*
X147136729Y-108214409D01*
X147138584Y-108208945D01*
X147139412Y-108203236D01*
X147139413Y-108203231D01*
X147167179Y-108011727D01*
X147167712Y-108008053D01*
X147169232Y-107950000D01*
X147150658Y-107747859D01*
X147149090Y-107742299D01*
X147097125Y-107558046D01*
X147097124Y-107558044D01*
X147095557Y-107552487D01*
X147084978Y-107531033D01*
X147008331Y-107375609D01*
X147005776Y-107370428D01*
X146884320Y-107207779D01*
X146735258Y-107069987D01*
X146730375Y-107066906D01*
X146730371Y-107066903D01*
X146568464Y-106964748D01*
X146563581Y-106961667D01*
X146375039Y-106886446D01*
X146369379Y-106885320D01*
X146369375Y-106885319D01*
X146181613Y-106847971D01*
X146181610Y-106847971D01*
X146175946Y-106846844D01*
X146170171Y-106846768D01*
X146170167Y-106846768D01*
X146068793Y-106845441D01*
X145972971Y-106844187D01*
X145967274Y-106845166D01*
X145967273Y-106845166D01*
X145778607Y-106877585D01*
X145772910Y-106878564D01*
X145582463Y-106948824D01*
X145408010Y-107052612D01*
X145403670Y-107056418D01*
X145403666Y-107056421D01*
X145264648Y-107178338D01*
X145255392Y-107186455D01*
X145129720Y-107345869D01*
X145127031Y-107350980D01*
X145127029Y-107350983D01*
X145114073Y-107375609D01*
X145035203Y-107525515D01*
X144975007Y-107719378D01*
X144951148Y-107920964D01*
X144964424Y-108123522D01*
X144965845Y-108129118D01*
X144965846Y-108129123D01*
X144986119Y-108208945D01*
X145014392Y-108320269D01*
X145016809Y-108325512D01*
X145054010Y-108406208D01*
X145099377Y-108504616D01*
X145216533Y-108670389D01*
X145220675Y-108674424D01*
X145297996Y-108749746D01*
X145332834Y-108811607D01*
X145328697Y-108882483D01*
X145286898Y-108939871D01*
X145220709Y-108965550D01*
X145210075Y-108966000D01*
X144374357Y-108966000D01*
X144306236Y-108945998D01*
X144259743Y-108892342D01*
X144249639Y-108822068D01*
X144279133Y-108757488D01*
X144293788Y-108743126D01*
X144299908Y-108738036D01*
X144299913Y-108738031D01*
X144304345Y-108734345D01*
X144434147Y-108578276D01*
X144533334Y-108401165D01*
X144535190Y-108395698D01*
X144535192Y-108395693D01*
X144596728Y-108214414D01*
X144596729Y-108214409D01*
X144598584Y-108208945D01*
X144599412Y-108203236D01*
X144599413Y-108203231D01*
X144627179Y-108011727D01*
X144627712Y-108008053D01*
X144629232Y-107950000D01*
X144610658Y-107747859D01*
X144609090Y-107742299D01*
X144557125Y-107558046D01*
X144557124Y-107558044D01*
X144555557Y-107552487D01*
X144544978Y-107531033D01*
X144468331Y-107375609D01*
X144465776Y-107370428D01*
X144344320Y-107207779D01*
X144195258Y-107069987D01*
X144190375Y-107066906D01*
X144190371Y-107066903D01*
X144028464Y-106964748D01*
X144023581Y-106961667D01*
X143835039Y-106886446D01*
X143829379Y-106885320D01*
X143829375Y-106885319D01*
X143641613Y-106847971D01*
X143641610Y-106847971D01*
X143635946Y-106846844D01*
X143630171Y-106846768D01*
X143630167Y-106846768D01*
X143528793Y-106845441D01*
X143432971Y-106844187D01*
X143427274Y-106845166D01*
X143427273Y-106845166D01*
X143238607Y-106877585D01*
X143232910Y-106878564D01*
X143042463Y-106948824D01*
X142868010Y-107052612D01*
X142863670Y-107056418D01*
X142863666Y-107056421D01*
X142724648Y-107178338D01*
X142715392Y-107186455D01*
X142589720Y-107345869D01*
X142587031Y-107350980D01*
X142587029Y-107350983D01*
X142574073Y-107375609D01*
X142495203Y-107525515D01*
X142435007Y-107719378D01*
X142411148Y-107920964D01*
X142424424Y-108123522D01*
X142425845Y-108129118D01*
X142425846Y-108129123D01*
X142446119Y-108208945D01*
X142474392Y-108320269D01*
X142476809Y-108325512D01*
X142514010Y-108406208D01*
X142559377Y-108504616D01*
X142676533Y-108670389D01*
X142680675Y-108674424D01*
X142757996Y-108749746D01*
X142792834Y-108811607D01*
X142788697Y-108882483D01*
X142746898Y-108939871D01*
X142680709Y-108965550D01*
X142670075Y-108966000D01*
X141834357Y-108966000D01*
X141766236Y-108945998D01*
X141719743Y-108892342D01*
X141709639Y-108822068D01*
X141739133Y-108757488D01*
X141753788Y-108743126D01*
X141759908Y-108738036D01*
X141759913Y-108738031D01*
X141764345Y-108734345D01*
X141894147Y-108578276D01*
X141993334Y-108401165D01*
X141995190Y-108395698D01*
X141995192Y-108395693D01*
X142056728Y-108214414D01*
X142056729Y-108214409D01*
X142058584Y-108208945D01*
X142059412Y-108203236D01*
X142059413Y-108203231D01*
X142087179Y-108011727D01*
X142087712Y-108008053D01*
X142089232Y-107950000D01*
X142070658Y-107747859D01*
X142069090Y-107742299D01*
X142017125Y-107558046D01*
X142017124Y-107558044D01*
X142015557Y-107552487D01*
X142004978Y-107531033D01*
X141928331Y-107375609D01*
X141925776Y-107370428D01*
X141804320Y-107207779D01*
X141655258Y-107069987D01*
X141650375Y-107066906D01*
X141650371Y-107066903D01*
X141488464Y-106964748D01*
X141483581Y-106961667D01*
X141295039Y-106886446D01*
X141289379Y-106885320D01*
X141289375Y-106885319D01*
X141101613Y-106847971D01*
X141101610Y-106847971D01*
X141095946Y-106846844D01*
X141090171Y-106846768D01*
X141090167Y-106846768D01*
X140988793Y-106845441D01*
X140892971Y-106844187D01*
X140887274Y-106845166D01*
X140887273Y-106845166D01*
X140698607Y-106877585D01*
X140692910Y-106878564D01*
X140502463Y-106948824D01*
X140328010Y-107052612D01*
X140323670Y-107056418D01*
X140323666Y-107056421D01*
X140184648Y-107178338D01*
X140175392Y-107186455D01*
X140049720Y-107345869D01*
X140047031Y-107350980D01*
X140047029Y-107350983D01*
X140034073Y-107375609D01*
X139955203Y-107525515D01*
X139895007Y-107719378D01*
X139871148Y-107920964D01*
X139884424Y-108123522D01*
X139885845Y-108129118D01*
X139885846Y-108129123D01*
X139906119Y-108208945D01*
X139934392Y-108320269D01*
X139936809Y-108325512D01*
X139974010Y-108406208D01*
X140019377Y-108504616D01*
X140136533Y-108670389D01*
X140140675Y-108674424D01*
X140217996Y-108749746D01*
X140252834Y-108811607D01*
X140248697Y-108882483D01*
X140206898Y-108939871D01*
X140140709Y-108965550D01*
X140130075Y-108966000D01*
X139294357Y-108966000D01*
X139226236Y-108945998D01*
X139179743Y-108892342D01*
X139169639Y-108822068D01*
X139199133Y-108757488D01*
X139213788Y-108743126D01*
X139219908Y-108738036D01*
X139219913Y-108738031D01*
X139224345Y-108734345D01*
X139354147Y-108578276D01*
X139453334Y-108401165D01*
X139455190Y-108395698D01*
X139455192Y-108395693D01*
X139516728Y-108214414D01*
X139516729Y-108214409D01*
X139518584Y-108208945D01*
X139519412Y-108203236D01*
X139519413Y-108203231D01*
X139547179Y-108011727D01*
X139547712Y-108008053D01*
X139549232Y-107950000D01*
X139530658Y-107747859D01*
X139529090Y-107742299D01*
X139477125Y-107558046D01*
X139477124Y-107558044D01*
X139475557Y-107552487D01*
X139464978Y-107531033D01*
X139388331Y-107375609D01*
X139385776Y-107370428D01*
X139264320Y-107207779D01*
X139115258Y-107069987D01*
X139110375Y-107066906D01*
X139110371Y-107066903D01*
X138948464Y-106964748D01*
X138943581Y-106961667D01*
X138755039Y-106886446D01*
X138749379Y-106885320D01*
X138749375Y-106885319D01*
X138561613Y-106847971D01*
X138561610Y-106847971D01*
X138555946Y-106846844D01*
X138550171Y-106846768D01*
X138550167Y-106846768D01*
X138448793Y-106845441D01*
X138352971Y-106844187D01*
X138347274Y-106845166D01*
X138347273Y-106845166D01*
X138158607Y-106877585D01*
X138152910Y-106878564D01*
X137962463Y-106948824D01*
X137788010Y-107052612D01*
X137783670Y-107056418D01*
X137783666Y-107056421D01*
X137644648Y-107178338D01*
X137635392Y-107186455D01*
X137509720Y-107345869D01*
X137507031Y-107350980D01*
X137507029Y-107350983D01*
X137494073Y-107375609D01*
X137415203Y-107525515D01*
X137355007Y-107719378D01*
X137331148Y-107920964D01*
X137344424Y-108123522D01*
X137345845Y-108129118D01*
X137345846Y-108129123D01*
X137366119Y-108208945D01*
X137394392Y-108320269D01*
X137396809Y-108325512D01*
X137434010Y-108406208D01*
X137479377Y-108504616D01*
X137596533Y-108670389D01*
X137600675Y-108674424D01*
X137677996Y-108749746D01*
X137712834Y-108811607D01*
X137708697Y-108882483D01*
X137666898Y-108939871D01*
X137600709Y-108965550D01*
X137590075Y-108966000D01*
X136778000Y-108966000D01*
X136709879Y-108945998D01*
X136663386Y-108892342D01*
X136652000Y-108840000D01*
X136652000Y-108818134D01*
X136672002Y-108750013D01*
X136684515Y-108734486D01*
X136684345Y-108734345D01*
X136810453Y-108582718D01*
X136810455Y-108582715D01*
X136814147Y-108578276D01*
X136913334Y-108401165D01*
X136915190Y-108395698D01*
X136915192Y-108395693D01*
X136976728Y-108214414D01*
X136976729Y-108214409D01*
X136978584Y-108208945D01*
X136979412Y-108203236D01*
X136979413Y-108203231D01*
X137007179Y-108011727D01*
X137007712Y-108008053D01*
X137009232Y-107950000D01*
X136990658Y-107747859D01*
X136989090Y-107742299D01*
X136937125Y-107558046D01*
X136937124Y-107558044D01*
X136935557Y-107552487D01*
X136924978Y-107531033D01*
X136848331Y-107375609D01*
X136845776Y-107370428D01*
X136724320Y-107207779D01*
X136692471Y-107178338D01*
X136656026Y-107117409D01*
X136652000Y-107085813D01*
X136652000Y-105706946D01*
X136672002Y-105638825D01*
X136725658Y-105592332D01*
X136736231Y-105588071D01*
X136750076Y-105583209D01*
X136860010Y-105502010D01*
X136941209Y-105392076D01*
X136986493Y-105263127D01*
X136989500Y-105231315D01*
X136989499Y-104572686D01*
X136986493Y-104540873D01*
X136941209Y-104411924D01*
X136860010Y-104301990D01*
X136750076Y-104220791D01*
X136736248Y-104215935D01*
X136678606Y-104174493D01*
X136652518Y-104108464D01*
X136652000Y-104097054D01*
X136652000Y-102488000D01*
X136672002Y-102419879D01*
X136725658Y-102373386D01*
X136778000Y-102362000D01*
X139574000Y-102362000D01*
X139642121Y-102382002D01*
X139688614Y-102435658D01*
X139700000Y-102488000D01*
X139700000Y-105156000D01*
X139707793Y-105156000D01*
X139716871Y-105163866D01*
X139743850Y-105196740D01*
X139773425Y-105248676D01*
X139785947Y-105263127D01*
X139815709Y-105297474D01*
X139819918Y-105302332D01*
X139852502Y-105333773D01*
X139940319Y-105379709D01*
X140008440Y-105399711D01*
X140012899Y-105400352D01*
X140012903Y-105400353D01*
X140034639Y-105403478D01*
X140080000Y-105410000D01*
X140084979Y-105410000D01*
X140089341Y-105409386D01*
X140089342Y-105409386D01*
X140150720Y-105400747D01*
X140150723Y-105400746D01*
X140155088Y-105400132D01*
X140159322Y-105398916D01*
X140159327Y-105398915D01*
X140219335Y-105381682D01*
X140219342Y-105381680D01*
X140221942Y-105380933D01*
X140262816Y-105365272D01*
X140279089Y-105352939D01*
X140345459Y-105327732D01*
X140414921Y-105342409D01*
X140431892Y-105353387D01*
X140474857Y-105386355D01*
X140609746Y-105442228D01*
X140754500Y-105461285D01*
X140762688Y-105460207D01*
X140891066Y-105443306D01*
X140899254Y-105442228D01*
X141034143Y-105386355D01*
X141042805Y-105379709D01*
X141076891Y-105353553D01*
X141143111Y-105327952D01*
X141211997Y-105341867D01*
X141278860Y-105376843D01*
X141278864Y-105376845D01*
X141284340Y-105379709D01*
X141352461Y-105399711D01*
X141356920Y-105400352D01*
X141356924Y-105400353D01*
X141378660Y-105403478D01*
X141424021Y-105410000D01*
X159132000Y-105410000D01*
X159135347Y-105409640D01*
X159135351Y-105409640D01*
X159182626Y-105404558D01*
X159182633Y-105404557D01*
X159185990Y-105404196D01*
X159189291Y-105403478D01*
X159236678Y-105393170D01*
X159236685Y-105393168D01*
X159238332Y-105392810D01*
X159264555Y-105385616D01*
X159321142Y-105353393D01*
X159345298Y-105339638D01*
X159345302Y-105339635D01*
X159350676Y-105336575D01*
X159386644Y-105305409D01*
X159402209Y-105291922D01*
X159402214Y-105291917D01*
X159404332Y-105290082D01*
X159435773Y-105257498D01*
X159481709Y-105169681D01*
X159501711Y-105101560D01*
X159512000Y-105030000D01*
X159512000Y-100710000D01*
X159532002Y-100641879D01*
X159585658Y-100595386D01*
X159638000Y-100584000D01*
X162180000Y-100584000D01*
X162248121Y-100604002D01*
G37*
%TD.AperFunction*%
%TD*%
M02*
