%TF.GenerationSoftware,KiCad,Pcbnew,(6.0.0-0)*%
%TF.CreationDate,2023-05-28T12:29:54+10:00*%
%TF.ProjectId,motor-driver,6d6f746f-722d-4647-9269-7665722e6b69,v1.0.0*%
%TF.SameCoordinates,Original*%
%TF.FileFunction,Soldermask,Top*%
%TF.FilePolarity,Negative*%
%FSLAX46Y46*%
G04 Gerber Fmt 4.6, Leading zero omitted, Abs format (unit mm)*
G04 Created by KiCad (PCBNEW (6.0.0-0)) date 2023-05-28 12:29:54*
%MOMM*%
%LPD*%
G01*
G04 APERTURE LIST*
G04 Aperture macros list*
%AMRoundRect*
0 Rectangle with rounded corners*
0 $1 Rounding radius*
0 $2 $3 $4 $5 $6 $7 $8 $9 X,Y pos of 4 corners*
0 Add a 4 corners polygon primitive as box body*
4,1,4,$2,$3,$4,$5,$6,$7,$8,$9,$2,$3,0*
0 Add four circle primitives for the rounded corners*
1,1,$1+$1,$2,$3*
1,1,$1+$1,$4,$5*
1,1,$1+$1,$6,$7*
1,1,$1+$1,$8,$9*
0 Add four rect primitives between the rounded corners*
20,1,$1+$1,$2,$3,$4,$5,0*
20,1,$1+$1,$4,$5,$6,$7,0*
20,1,$1+$1,$6,$7,$8,$9,0*
20,1,$1+$1,$8,$9,$2,$3,0*%
G04 Aperture macros list end*
%ADD10RoundRect,0.225000X-0.225000X-0.250000X0.225000X-0.250000X0.225000X0.250000X-0.225000X0.250000X0*%
%ADD11RoundRect,0.250000X0.325000X0.650000X-0.325000X0.650000X-0.325000X-0.650000X0.325000X-0.650000X0*%
%ADD12R,0.500000X0.250000*%
%ADD13R,1.000000X2.650000*%
%ADD14RoundRect,0.225000X0.250000X-0.225000X0.250000X0.225000X-0.250000X0.225000X-0.250000X-0.225000X0*%
%ADD15RoundRect,0.200000X0.275000X-0.200000X0.275000X0.200000X-0.275000X0.200000X-0.275000X-0.200000X0*%
%ADD16R,2.400000X1.500000*%
%ADD17R,1.200000X0.900000*%
%ADD18RoundRect,0.200000X0.200000X0.275000X-0.200000X0.275000X-0.200000X-0.275000X0.200000X-0.275000X0*%
%ADD19RoundRect,0.250000X0.650000X-0.325000X0.650000X0.325000X-0.650000X0.325000X-0.650000X-0.325000X0*%
%ADD20RoundRect,0.150000X0.150000X-0.587500X0.150000X0.587500X-0.150000X0.587500X-0.150000X-0.587500X0*%
%ADD21R,1.700000X1.700000*%
%ADD22O,1.700000X1.700000*%
%ADD23RoundRect,0.225000X0.225000X0.250000X-0.225000X0.250000X-0.225000X-0.250000X0.225000X-0.250000X0*%
%ADD24R,0.450000X1.450000*%
%ADD25RoundRect,0.225000X-0.250000X0.225000X-0.250000X-0.225000X0.250000X-0.225000X0.250000X0.225000X0*%
G04 APERTURE END LIST*
D10*
%TO.C,C5*%
X136385000Y-93726000D03*
X137935000Y-93726000D03*
%TD*%
D11*
%TO.C,C1*%
X150319000Y-93472000D03*
X147369000Y-93472000D03*
%TD*%
D12*
%TO.C,U2*%
X136210000Y-95524000D03*
X136210000Y-96024000D03*
X136210000Y-96524000D03*
X136210000Y-97024000D03*
X136210000Y-97524000D03*
X136210000Y-98024000D03*
X138110000Y-98024000D03*
X138110000Y-97524000D03*
X138110000Y-97024000D03*
X138110000Y-96524000D03*
X138110000Y-96024000D03*
X138110000Y-95524000D03*
D13*
X137160000Y-96774000D03*
%TD*%
D14*
%TO.C,C6*%
X143002000Y-98057000D03*
X143002000Y-96507000D03*
%TD*%
D15*
%TO.C,R4*%
X143002000Y-103187000D03*
X143002000Y-101537000D03*
%TD*%
D16*
%TO.C,L1*%
X154940000Y-93135000D03*
X154940000Y-98635000D03*
%TD*%
D14*
%TO.C,C4*%
X146050000Y-98057000D03*
X146050000Y-96507000D03*
%TD*%
D17*
%TO.C,D2*%
X137160000Y-99950000D03*
X137160000Y-103250000D03*
%TD*%
D15*
%TO.C,R3*%
X146050000Y-103187000D03*
X146050000Y-101537000D03*
%TD*%
D18*
%TO.C,R5*%
X137985000Y-104902000D03*
X136335000Y-104902000D03*
%TD*%
D19*
%TO.C,C8*%
X154686000Y-103710000D03*
X154686000Y-100760000D03*
%TD*%
D20*
%TO.C,Q1*%
X139258000Y-103045500D03*
X141158000Y-103045500D03*
X140208000Y-101170500D03*
%TD*%
D21*
%TO.C,J2*%
X160655000Y-96520000D03*
D22*
X160655000Y-99060000D03*
X160655000Y-101600000D03*
%TD*%
D15*
%TO.C,R2*%
X144526000Y-103187000D03*
X144526000Y-101537000D03*
%TD*%
D19*
%TO.C,C7*%
X152146000Y-103710000D03*
X152146000Y-100760000D03*
%TD*%
D23*
%TO.C,C2*%
X149619000Y-95504000D03*
X148069000Y-95504000D03*
%TD*%
D21*
%TO.C,J3*%
X131445000Y-95250000D03*
D22*
X131445000Y-97790000D03*
X131445000Y-100330000D03*
X131445000Y-102870000D03*
%TD*%
D17*
%TO.C,D1*%
X157226000Y-103885000D03*
X157226000Y-100585000D03*
%TD*%
D24*
%TO.C,U1*%
X147869000Y-102022000D03*
X148519000Y-102022000D03*
X149169000Y-102022000D03*
X149819000Y-102022000D03*
X149819000Y-97622000D03*
X149169000Y-97622000D03*
X148519000Y-97622000D03*
X147869000Y-97622000D03*
%TD*%
D25*
%TO.C,C3*%
X141478000Y-96507000D03*
X141478000Y-98057000D03*
%TD*%
D15*
%TO.C,R1*%
X144526000Y-98107000D03*
X144526000Y-96457000D03*
%TD*%
D21*
%TO.C,J4*%
X128280000Y-90170000D03*
D22*
X130820000Y-90170000D03*
X133360000Y-90170000D03*
X135900000Y-90170000D03*
X138440000Y-90170000D03*
X140980000Y-90170000D03*
X143520000Y-90170000D03*
X146060000Y-90170000D03*
X148600000Y-90170000D03*
X151140000Y-90170000D03*
X153680000Y-90170000D03*
X156220000Y-90170000D03*
X158760000Y-90170000D03*
X161300000Y-90170000D03*
%TD*%
D21*
%TO.C,J1*%
X128280000Y-107950000D03*
D22*
X130820000Y-107950000D03*
X133360000Y-107950000D03*
X135900000Y-107950000D03*
X138440000Y-107950000D03*
X140980000Y-107950000D03*
X143520000Y-107950000D03*
X146060000Y-107950000D03*
X148600000Y-107950000D03*
X151140000Y-107950000D03*
X153680000Y-107950000D03*
X156220000Y-107950000D03*
X158760000Y-107950000D03*
X161300000Y-107950000D03*
%TD*%
M02*
