M48
; DRILL file {KiCad (6.0.0-0)} date Sunday, 28 May 2023 at 12:30:17 pm
; FORMAT={-:-/ absolute / metric / decimal}
; #@! TF.CreationDate,2023-05-28T12:30:17+10:00
; #@! TF.GenerationSoftware,Kicad,Pcbnew,(6.0.0-0)
; #@! TF.FileFunction,Plated,1,2,PTH
FMAT,2
METRIC
; #@! TA.AperFunction,Plated,PTH,ViaDrill
T1C0.300
; #@! TA.AperFunction,Plated,PTH,ViaDrill
T2C0.400
; #@! TA.AperFunction,Plated,PTH,ComponentDrill
T3C1.000
%
G90
G05
T1
X132.334Y-91.948
X133.858Y-93.472
X133.858Y-94.488
X134.239Y-91.948
X134.874Y-93.472
X134.874Y-94.488
X136.144Y-91.948
X137.16Y-95.758
X137.16Y-96.774
X137.16Y-97.79
X137.922Y-91.948
X138.176Y-100.584
X138.176Y-101.6
X138.935Y-94.393
X138.938Y-95.758
X139.192Y-98.687
X139.192Y-100.584
X139.192Y-101.6
X139.797Y-97.168
X140.755Y-104.902
X141.223Y-97.456
X141.478Y-101.6
X141.605Y-92.71
X141.605Y-94.615
X143.002Y-100.838
X143.51Y-92.71
X143.51Y-94.615
X144.526Y-100.838
X145.415Y-92.71
X145.415Y-94.615
X146.05Y-100.838
X146.841Y-99.539
T2
X135.128Y-101.092
X135.128Y-102.362
X135.128Y-103.632
X135.128Y-104.902
X150.622Y-100.838
X155.956Y-100.838
T3
X128.28Y-90.17
X128.28Y-107.95
X130.82Y-90.17
X130.82Y-107.95
X131.445Y-95.25
X131.445Y-97.79
X131.445Y-100.33
X131.445Y-102.87
X133.36Y-90.17
X133.36Y-107.95
X135.9Y-90.17
X135.9Y-107.95
X138.44Y-90.17
X138.44Y-107.95
X140.98Y-90.17
X140.98Y-107.95
X143.52Y-90.17
X143.52Y-107.95
X146.06Y-90.17
X146.06Y-107.95
X148.6Y-90.17
X148.6Y-107.95
X151.14Y-90.17
X151.14Y-107.95
X153.68Y-90.17
X153.68Y-107.95
X156.22Y-90.17
X156.22Y-107.95
X158.76Y-90.17
X158.76Y-107.95
X160.655Y-96.52
X160.655Y-99.06
X160.655Y-101.6
X161.3Y-90.17
X161.3Y-107.95
T0
M30
